<?xml version="1.0" encoding="UTF-8" standalone="no"?>
<!DOCTYPE svg PUBLIC "-//W3C//DTD SVG 1.1//EN"
 "http://www.w3.org/Graphics/SVG/1.1/DTD/svg11.dtd">
<!-- Generated by graphviz version 2.43.0 (0)
 -->
<!-- Title: raku&#45;type&#45;graph Pages: 1 -->
<svg width="909pt" height="404pt"
 viewBox="0.00 0.00 909.09 404.00" xmlns="http://www.w3.org/2000/svg" xmlns:xlink="http://www.w3.org/1999/xlink">
<g id="graph0" class="graph" transform="scale(1 1) rotate(0) translate(4 400)">
<title>raku&#45;type&#45;graph</title>
<polygon fill="#ffffff" stroke="transparent" points="-4,4 -4,-400 905.09,-400 905.09,4 -4,4"/>
<!-- Associative -->
<g id="node1" class="node">
<title>Associative</title>
<g id="a_node1"><a xlink:href="/type/Associative" xlink:title="Associative">
<ellipse fill="none" stroke="#6666ff" cx="289.3" cy="-306" rx="55.49" ry="18"/>
<text text-anchor="middle" x="289.3" y="-302.3" font-family="FreeSans" font-size="14.00" fill="#6666ff">Associative</text>
</a>
</g>
</g>
<!-- QuantHash -->
<g id="node2" class="node">
<title>QuantHash</title>
<g id="a_node2"><a xlink:href="/type/QuantHash" xlink:title="QuantHash">
<ellipse fill="none" stroke="#6666ff" cx="504.3" cy="-234" rx="55.79" ry="18"/>
<text text-anchor="middle" x="504.3" y="-230.3" font-family="FreeSans" font-size="14.00" fill="#6666ff">QuantHash</text>
</a>
</g>
</g>
<!-- QuantHash&#45;&gt;Associative -->
<g id="edge15" class="edge">
<title>QuantHash&#45;&gt;Associative</title>
<path fill="none" stroke="#6666ff" d="M466.35,-247.35C430.12,-259.15 375.42,-276.96 336.42,-289.66"/>
<polygon fill="#6666ff" stroke="#6666ff" points="335.29,-286.35 326.86,-292.77 337.45,-293 335.29,-286.35"/>
</g>
<!-- Mu -->
<g id="node3" class="node">
<title>Mu</title>
<g id="a_node3"><a xlink:href="/type/Mu" xlink:title="Mu">
<ellipse fill="none" stroke="#000000" cx="504.3" cy="-378" rx="27" ry="18"/>
<text text-anchor="middle" x="504.3" y="-374.3" font-family="FreeSans" font-size="14.00" fill="#000000">Mu</text>
</a>
</g>
</g>
<!-- Any -->
<g id="node4" class="node">
<title>Any</title>
<g id="a_node4"><a xlink:href="/type/Any" xlink:title="Any">
<ellipse fill="none" stroke="#000000" cx="504.3" cy="-306" rx="27" ry="18"/>
<text text-anchor="middle" x="504.3" y="-302.3" font-family="FreeSans" font-size="14.00" fill="#000000">Any</text>
</a>
</g>
</g>
<!-- Any&#45;&gt;Mu -->
<g id="edge1" class="edge">
<title>Any&#45;&gt;Mu</title>
<path fill="none" stroke="#000000" d="M504.3,-324.3C504.3,-332.02 504.3,-341.29 504.3,-349.89"/>
<polygon fill="#000000" stroke="#000000" points="500.8,-349.9 504.3,-359.9 507.8,-349.9 500.8,-349.9"/>
</g>
<!-- Cool -->
<g id="node5" class="node">
<title>Cool</title>
<g id="a_node5"><a xlink:href="/type/Cool" xlink:title="Cool">
<ellipse fill="none" stroke="#000000" cx="363.3" cy="-234" rx="28.7" ry="18"/>
<text text-anchor="middle" x="363.3" y="-230.3" font-family="FreeSans" font-size="14.00" fill="#000000">Cool</text>
</a>
</g>
</g>
<!-- Cool&#45;&gt;Any -->
<g id="edge2" class="edge">
<title>Cool&#45;&gt;Any</title>
<path fill="none" stroke="#000000" d="M385.02,-245.78C408.82,-257.6 447.18,-276.65 473.95,-289.93"/>
<polygon fill="#000000" stroke="#000000" points="472.73,-293.24 483.24,-294.55 475.84,-286.97 472.73,-293.24"/>
</g>
<!-- Iterable -->
<g id="node6" class="node">
<title>Iterable</title>
<g id="a_node6"><a xlink:href="/type/Iterable" xlink:title="Iterable">
<ellipse fill="none" stroke="#6666ff" cx="40.3" cy="-306" rx="40.09" ry="18"/>
<text text-anchor="middle" x="40.3" y="-302.3" font-family="FreeSans" font-size="14.00" fill="#6666ff">Iterable</text>
</a>
</g>
</g>
<!-- Map -->
<g id="node7" class="node">
<title>Map</title>
<g id="a_node7"><a xlink:href="/type/Map" xlink:title="Map">
<ellipse fill="none" stroke="#000000" cx="234.3" cy="-162" rx="28.7" ry="18"/>
<text text-anchor="middle" x="234.3" y="-158.3" font-family="FreeSans" font-size="14.00" fill="#000000">Map</text>
</a>
</g>
</g>
<!-- Map&#45;&gt;Associative -->
<g id="edge17" class="edge">
<title>Map&#45;&gt;Associative</title>
<path fill="none" stroke="#6666ff" d="M237.96,-180.16C243.48,-206.02 253.3,-252 253.3,-252 253.3,-252 262.94,-266.2 272.25,-279.9"/>
<polygon fill="#6666ff" stroke="#6666ff" points="269.39,-281.92 277.91,-288.23 275.18,-277.99 269.39,-281.92"/>
</g>
<!-- Map&#45;&gt;Cool -->
<g id="edge3" class="edge">
<title>Map&#45;&gt;Cool</title>
<path fill="none" stroke="#000000" d="M255.31,-174.4C276.49,-185.89 309.37,-203.74 333.29,-216.72"/>
<polygon fill="#000000" stroke="#000000" points="331.83,-219.91 342.29,-221.6 335.17,-213.76 331.83,-219.91"/>
</g>
<!-- Map&#45;&gt;Iterable -->
<g id="edge16" class="edge">
<title>Map&#45;&gt;Iterable</title>
<path fill="none" stroke="#6666ff" d="M208.85,-170.71C160.31,-185.41 59.3,-216 59.3,-216 59.3,-216 51.65,-251.83 46.06,-278.03"/>
<polygon fill="#6666ff" stroke="#6666ff" points="42.62,-277.33 43.96,-287.84 49.47,-278.79 42.62,-277.33"/>
</g>
<!-- Telemetry -->
<g id="node8" class="node">
<title>Telemetry</title>
<g id="a_node8"><a xlink:href="/type/Telemetry" xlink:title="Telemetry">
<ellipse fill="none" stroke="#000000" cx="728.3" cy="-234" rx="50.09" ry="18"/>
<text text-anchor="middle" x="728.3" y="-230.3" font-family="FreeSans" font-size="14.00" fill="#000000">Telemetry</text>
</a>
</g>
</g>
<!-- Telemetry&#45;&gt;Any -->
<g id="edge4" class="edge">
<title>Telemetry&#45;&gt;Any</title>
<path fill="none" stroke="#000000" d="M691.81,-246.4C649.2,-259.72 579.31,-281.56 537.96,-294.48"/>
<polygon fill="#000000" stroke="#000000" points="536.85,-291.16 528.34,-297.48 538.93,-297.84 536.85,-291.16"/>
</g>
<!-- Telemetry::Period -->
<g id="node9" class="node">
<title>Telemetry::Period</title>
<g id="a_node9"><a xlink:href="/type/Telemetry::Period" xlink:title="Telemetry::Period">
<ellipse fill="none" stroke="#000000" cx="736.3" cy="-162" rx="80.69" ry="18"/>
<text text-anchor="middle" x="736.3" y="-158.3" font-family="FreeSans" font-size="14.00" fill="#000000">Telemetry::Period</text>
</a>
</g>
</g>
<!-- Telemetry::Period&#45;&gt;Associative -->
<g id="edge18" class="edge">
<title>Telemetry::Period&#45;&gt;Associative</title>
<path fill="none" stroke="#6666ff" d="M706.44,-178.91C658.41,-204.51 569.3,-252 569.3,-252 569.3,-252 427.54,-278.83 345.75,-294.31"/>
<polygon fill="#6666ff" stroke="#6666ff" points="345.02,-290.89 335.85,-296.19 346.32,-297.77 345.02,-290.89"/>
</g>
<!-- Telemetry::Period&#45;&gt;Telemetry -->
<g id="edge5" class="edge">
<title>Telemetry::Period&#45;&gt;Telemetry</title>
<path fill="none" stroke="#000000" d="M734.32,-180.3C733.44,-188.02 732.38,-197.29 731.39,-205.89"/>
<polygon fill="#000000" stroke="#000000" points="727.91,-205.56 730.25,-215.9 734.86,-206.36 727.91,-205.56"/>
</g>
<!-- Pair -->
<g id="node10" class="node">
<title>Pair</title>
<g id="a_node10"><a xlink:href="/type/Pair" xlink:title="Pair">
<ellipse fill="none" stroke="#000000" cx="289.3" cy="-234" rx="27" ry="18"/>
<text text-anchor="middle" x="289.3" y="-230.3" font-family="FreeSans" font-size="14.00" fill="#000000">Pair</text>
</a>
</g>
</g>
<!-- Pair&#45;&gt;Associative -->
<g id="edge19" class="edge">
<title>Pair&#45;&gt;Associative</title>
<path fill="none" stroke="#6666ff" d="M289.3,-252.3C289.3,-260.02 289.3,-269.29 289.3,-277.89"/>
<polygon fill="#6666ff" stroke="#6666ff" points="285.8,-277.9 289.3,-287.9 292.8,-277.9 285.8,-277.9"/>
</g>
<!-- Pair&#45;&gt;Any -->
<g id="edge6" class="edge">
<title>Pair&#45;&gt;Any</title>
<path fill="none" stroke="#000000" d="M310.65,-245.09C318.41,-248.75 325.3,-252 325.3,-252 325.3,-252 418.46,-279.58 470.36,-294.95"/>
<polygon fill="#000000" stroke="#000000" points="469.57,-298.37 480.16,-297.85 471.56,-291.66 469.57,-298.37"/>
</g>
<!-- Positional -->
<g id="node11" class="node">
<title>Positional</title>
<g id="a_node11"><a xlink:href="/type/Positional" xlink:title="Positional">
<ellipse fill="none" stroke="#6666ff" cx="147.3" cy="-306" rx="48.99" ry="18"/>
<text text-anchor="middle" x="147.3" y="-302.3" font-family="FreeSans" font-size="14.00" fill="#6666ff">Positional</text>
</a>
</g>
</g>
<!-- IO::Path::Parts -->
<g id="node12" class="node">
<title>IO::Path::Parts</title>
<g id="a_node12"><a xlink:href="/type/IO::Path::Parts" xlink:title="IO::Path::Parts">
<ellipse fill="none" stroke="#000000" cx="137.3" cy="-234" rx="68.79" ry="18"/>
<text text-anchor="middle" x="137.3" y="-230.3" font-family="FreeSans" font-size="14.00" fill="#000000">IO::Path::Parts</text>
</a>
</g>
</g>
<!-- IO::Path::Parts&#45;&gt;Associative -->
<g id="edge21" class="edge">
<title>IO::Path::Parts&#45;&gt;Associative</title>
<path fill="none" stroke="#6666ff" d="M169.9,-250.02C193.26,-260.77 224.85,-275.32 249.66,-286.75"/>
<polygon fill="#6666ff" stroke="#6666ff" points="248.27,-289.96 258.81,-290.96 251.19,-283.6 248.27,-289.96"/>
</g>
<!-- IO::Path::Parts&#45;&gt;Any -->
<g id="edge7" class="edge">
<title>IO::Path::Parts&#45;&gt;Any</title>
<path fill="none" stroke="#000000" d="M191.45,-245.33C267.56,-259.85 404.1,-285.89 468.64,-298.2"/>
<polygon fill="#000000" stroke="#000000" points="468.24,-301.69 478.72,-300.12 469.55,-294.81 468.24,-301.69"/>
</g>
<!-- IO::Path::Parts&#45;&gt;Iterable -->
<g id="edge22" class="edge">
<title>IO::Path::Parts&#45;&gt;Iterable</title>
<path fill="none" stroke="#6666ff" d="M114.8,-251.24C101.14,-261.09 83.57,-273.77 68.92,-284.34"/>
<polygon fill="#6666ff" stroke="#6666ff" points="66.75,-281.59 60.69,-290.28 70.85,-287.27 66.75,-281.59"/>
</g>
<!-- IO::Path::Parts&#45;&gt;Positional -->
<g id="edge20" class="edge">
<title>IO::Path::Parts&#45;&gt;Positional</title>
<path fill="none" stroke="#6666ff" d="M139.77,-252.3C140.87,-260.02 142.19,-269.29 143.42,-277.89"/>
<polygon fill="#6666ff" stroke="#6666ff" points="139.97,-278.49 144.85,-287.9 146.9,-277.5 139.97,-278.49"/>
</g>
<!-- Hash -->
<g id="node13" class="node">
<title>Hash</title>
<g id="a_node13"><a xlink:href="/type/Hash" xlink:title="Hash">
<ellipse fill="none" stroke="#000000" cx="148.3" cy="-90" rx="31.4" ry="18"/>
<text text-anchor="middle" x="148.3" y="-86.3" font-family="FreeSans" font-size="14.00" fill="#000000">Hash</text>
</a>
</g>
</g>
<!-- Hash&#45;&gt;Map -->
<g id="edge8" class="edge">
<title>Hash&#45;&gt;Map</title>
<path fill="none" stroke="#000000" d="M165.7,-105.17C178.34,-115.45 195.61,-129.51 209.66,-140.95"/>
<polygon fill="#000000" stroke="#000000" points="207.54,-143.73 217.5,-147.33 211.96,-138.3 207.54,-143.73"/>
</g>
<!-- PseudoStash -->
<g id="node14" class="node">
<title>PseudoStash</title>
<g id="a_node14"><a xlink:href="/type/PseudoStash" xlink:title="PseudoStash">
<ellipse fill="none" stroke="#000000" cx="260.3" cy="-90" rx="63.09" ry="18"/>
<text text-anchor="middle" x="260.3" y="-86.3" font-family="FreeSans" font-size="14.00" fill="#000000">PseudoStash</text>
</a>
</g>
</g>
<!-- PseudoStash&#45;&gt;Map -->
<g id="edge9" class="edge">
<title>PseudoStash&#45;&gt;Map</title>
<path fill="none" stroke="#000000" d="M254,-107.95C251.03,-115.94 247.42,-125.67 244.1,-134.6"/>
<polygon fill="#000000" stroke="#000000" points="240.73,-133.62 240.53,-144.21 247.3,-136.06 240.73,-133.62"/>
</g>
<!-- Setty -->
<g id="node15" class="node">
<title>Setty</title>
<g id="a_node15"><a xlink:href="/type/Setty" xlink:title="Setty">
<ellipse fill="none" stroke="#6666ff" cx="479.3" cy="-162" rx="30.59" ry="18"/>
<text text-anchor="middle" x="479.3" y="-158.3" font-family="FreeSans" font-size="14.00" fill="#6666ff">Setty</text>
</a>
</g>
</g>
<!-- Setty&#45;&gt;QuantHash -->
<g id="edge23" class="edge">
<title>Setty&#45;&gt;QuantHash</title>
<path fill="none" stroke="#6666ff" d="M485.35,-179.95C488.16,-187.82 491.58,-197.38 494.73,-206.21"/>
<polygon fill="#6666ff" stroke="#6666ff" points="491.47,-207.48 498.13,-215.72 498.06,-205.13 491.47,-207.48"/>
</g>
<!-- Baggy -->
<g id="node16" class="node">
<title>Baggy</title>
<g id="a_node16"><a xlink:href="/type/Baggy" xlink:title="Baggy">
<ellipse fill="none" stroke="#6666ff" cx="602.3" cy="-162" rx="36" ry="18"/>
<text text-anchor="middle" x="602.3" y="-158.3" font-family="FreeSans" font-size="14.00" fill="#6666ff">Baggy</text>
</a>
</g>
</g>
<!-- Baggy&#45;&gt;QuantHash -->
<g id="edge24" class="edge">
<title>Baggy&#45;&gt;QuantHash</title>
<path fill="none" stroke="#6666ff" d="M582.46,-177.17C568.69,-187.01 550.07,-200.31 534.46,-211.46"/>
<polygon fill="#6666ff" stroke="#6666ff" points="532.25,-208.73 526.14,-217.39 536.32,-214.43 532.25,-208.73"/>
</g>
<!-- Stash -->
<g id="node17" class="node">
<title>Stash</title>
<g id="a_node17"><a xlink:href="/type/Stash" xlink:title="Stash">
<ellipse fill="none" stroke="#000000" cx="148.3" cy="-18" rx="33.29" ry="18"/>
<text text-anchor="middle" x="148.3" y="-14.3" font-family="FreeSans" font-size="14.00" fill="#000000">Stash</text>
</a>
</g>
</g>
<!-- Stash&#45;&gt;Hash -->
<g id="edge10" class="edge">
<title>Stash&#45;&gt;Hash</title>
<path fill="none" stroke="#000000" d="M148.3,-36.3C148.3,-44.02 148.3,-53.29 148.3,-61.89"/>
<polygon fill="#000000" stroke="#000000" points="144.8,-61.9 148.3,-71.9 151.8,-61.9 144.8,-61.9"/>
</g>
<!-- SetHash -->
<g id="node18" class="node">
<title>SetHash</title>
<g id="a_node18"><a xlink:href="/type/SetHash" xlink:title="SetHash">
<ellipse fill="none" stroke="#000000" cx="425.3" cy="-90" rx="44.39" ry="18"/>
<text text-anchor="middle" x="425.3" y="-86.3" font-family="FreeSans" font-size="14.00" fill="#000000">SetHash</text>
</a>
</g>
</g>
<!-- SetHash&#45;&gt;Any -->
<g id="edge11" class="edge">
<title>SetHash&#45;&gt;Any</title>
<path fill="none" stroke="#000000" d="M426.79,-108.23C430.41,-149.76 439.3,-252 439.3,-252 439.3,-252 461.36,-269.99 479.78,-285.01"/>
<polygon fill="#000000" stroke="#000000" points="477.93,-288.02 487.89,-291.63 482.36,-282.59 477.93,-288.02"/>
</g>
<!-- SetHash&#45;&gt;Setty -->
<g id="edge25" class="edge">
<title>SetHash&#45;&gt;Setty</title>
<path fill="none" stroke="#6666ff" d="M438.09,-107.59C444.85,-116.34 453.26,-127.25 460.72,-136.92"/>
<polygon fill="#6666ff" stroke="#6666ff" points="458.08,-139.23 466.96,-145.01 463.63,-134.96 458.08,-139.23"/>
</g>
<!-- Set -->
<g id="node19" class="node">
<title>Set</title>
<g id="a_node19"><a xlink:href="/type/Set" xlink:title="Set">
<ellipse fill="none" stroke="#000000" cx="523.3" cy="-90" rx="27" ry="18"/>
<text text-anchor="middle" x="523.3" y="-86.3" font-family="FreeSans" font-size="14.00" fill="#000000">Set</text>
</a>
</g>
</g>
<!-- Set&#45;&gt;Any -->
<g id="edge12" class="edge">
<title>Set&#45;&gt;Any</title>
<path fill="none" stroke="#000000" d="M529.4,-107.6C541.92,-141.6 569.3,-216 569.3,-216 569.3,-216 569.3,-252 569.3,-252 569.3,-252 547.23,-269.99 528.81,-285.01"/>
<polygon fill="#000000" stroke="#000000" points="526.24,-282.59 520.7,-291.63 530.66,-288.02 526.24,-282.59"/>
</g>
<!-- Set&#45;&gt;Setty -->
<g id="edge26" class="edge">
<title>Set&#45;&gt;Setty</title>
<path fill="none" stroke="#6666ff" d="M513.31,-106.88C507.88,-115.53 501.03,-126.42 494.91,-136.17"/>
<polygon fill="#6666ff" stroke="#6666ff" points="491.91,-134.36 489.55,-144.69 497.83,-138.09 491.91,-134.36"/>
</g>
<!-- Bag -->
<g id="node20" class="node">
<title>Bag</title>
<g id="a_node20"><a xlink:href="/type/Bag" xlink:title="Bag">
<ellipse fill="none" stroke="#000000" cx="705.3" cy="-90" rx="27" ry="18"/>
<text text-anchor="middle" x="705.3" y="-86.3" font-family="FreeSans" font-size="14.00" fill="#000000">Bag</text>
</a>
</g>
</g>
<!-- Bag&#45;&gt;Any -->
<g id="edge13" class="edge">
<title>Bag&#45;&gt;Any</title>
<path fill="none" stroke="#000000" d="M727.21,-100.6C762.08,-115.87 826.3,-144 826.3,-144 826.3,-144 826.3,-180 826.3,-180 826.3,-180 787.3,-252 787.3,-252 787.3,-252 616.06,-284.07 539.99,-298.32"/>
<polygon fill="#000000" stroke="#000000" points="539.09,-294.92 529.91,-300.2 540.38,-301.8 539.09,-294.92"/>
</g>
<!-- Bag&#45;&gt;Baggy -->
<g id="edge27" class="edge">
<title>Bag&#45;&gt;Baggy</title>
<path fill="none" stroke="#6666ff" d="M686.88,-103.51C671.37,-114.06 648.91,-129.32 631.03,-141.47"/>
<polygon fill="#6666ff" stroke="#6666ff" points="628.97,-138.64 622.67,-147.15 632.91,-144.43 628.97,-138.64"/>
</g>
<!-- Mixy -->
<g id="node21" class="node">
<title>Mixy</title>
<g id="a_node21"><a xlink:href="/type/Mixy" xlink:title="Mixy">
<ellipse fill="none" stroke="#6666ff" cx="602.3" cy="-90" rx="29.5" ry="18"/>
<text text-anchor="middle" x="602.3" y="-86.3" font-family="FreeSans" font-size="14.00" fill="#6666ff">Mixy</text>
</a>
</g>
</g>
<!-- Mixy&#45;&gt;Baggy -->
<g id="edge28" class="edge">
<title>Mixy&#45;&gt;Baggy</title>
<path fill="none" stroke="#6666ff" d="M602.3,-108.3C602.3,-116.02 602.3,-125.29 602.3,-133.89"/>
<polygon fill="#6666ff" stroke="#6666ff" points="598.8,-133.9 602.3,-143.9 605.8,-133.9 598.8,-133.9"/>
</g>
<!-- BagHash -->
<g id="node22" class="node">
<title>BagHash</title>
<g id="a_node22"><a xlink:href="/type/BagHash" xlink:title="BagHash">
<ellipse fill="none" stroke="#000000" cx="854.3" cy="-90" rx="46.59" ry="18"/>
<text text-anchor="middle" x="854.3" y="-86.3" font-family="FreeSans" font-size="14.00" fill="#000000">BagHash</text>
</a>
</g>
</g>
<!-- BagHash&#45;&gt;Any -->
<g id="edge14" class="edge">
<title>BagHash&#45;&gt;Any</title>
<path fill="none" stroke="#000000" d="M851.6,-108.16C847.53,-134.02 840.3,-180 840.3,-180 840.3,-180 810.3,-252 810.3,-252 810.3,-252 621.25,-284.74 540.34,-298.76"/>
<polygon fill="#000000" stroke="#000000" points="539.38,-295.37 530.12,-300.53 540.57,-302.27 539.38,-295.37"/>
</g>
<!-- BagHash&#45;&gt;Baggy -->
<g id="edge29" class="edge">
<title>BagHash&#45;&gt;Baggy</title>
<path fill="none" stroke="#6666ff" d="M816.15,-100.72C756.1,-116.02 646.3,-144 646.3,-144 646.3,-144 643.5,-145.08 639.31,-146.7"/>
<polygon fill="#6666ff" stroke="#6666ff" points="637.98,-143.46 629.91,-150.33 640.5,-149.99 637.98,-143.46"/>
</g>
</g>
</svg>
