<?xml version="1.0" encoding="UTF-8" standalone="no"?>
<!DOCTYPE svg PUBLIC "-//W3C//DTD SVG 1.1//EN"
 "http://www.w3.org/Graphics/SVG/1.1/DTD/svg11.dtd">
<!-- Generated by graphviz version 2.43.0 (0)
 -->
<!-- Title: raku&#45;type&#45;graph Pages: 1 -->
<svg width="451pt" height="476pt"
 viewBox="0.00 0.00 451.04 476.00" xmlns="http://www.w3.org/2000/svg" xmlns:xlink="http://www.w3.org/1999/xlink">
<g id="graph0" class="graph" transform="scale(1 1) rotate(0) translate(4 472)">
<title>raku&#45;type&#45;graph</title>
<polygon fill="#ffffff" stroke="transparent" points="-4,4 -4,-472 447.04,-472 447.04,4 -4,4"/>
<!-- Callable -->
<g id="node1" class="node">
<title>Callable</title>
<g id="a_node1"><a xlink:href="/type/Callable" xlink:title="Callable">
<ellipse fill="none" stroke="#6666ff" cx="73.74" cy="-378" rx="42.49" ry="18"/>
<text text-anchor="middle" x="73.74" y="-374.3" font-family="FreeSans" font-size="14.00" fill="#6666ff">Callable</text>
</a>
</g>
</g>
<!-- Mu -->
<g id="node2" class="node">
<title>Mu</title>
<g id="a_node2"><a xlink:href="/type/Mu" xlink:title="Mu">
<ellipse fill="none" stroke="#000000" cx="166.74" cy="-450" rx="27" ry="18"/>
<text text-anchor="middle" x="166.74" y="-446.3" font-family="FreeSans" font-size="14.00" fill="#000000">Mu</text>
</a>
</g>
</g>
<!-- Any -->
<g id="node3" class="node">
<title>Any</title>
<g id="a_node3"><a xlink:href="/type/Any" xlink:title="Any">
<ellipse fill="none" stroke="#000000" cx="166.74" cy="-378" rx="27" ry="18"/>
<text text-anchor="middle" x="166.74" y="-374.3" font-family="FreeSans" font-size="14.00" fill="#000000">Any</text>
</a>
</g>
</g>
<!-- Any&#45;&gt;Mu -->
<g id="edge1" class="edge">
<title>Any&#45;&gt;Mu</title>
<path fill="none" stroke="#000000" d="M166.74,-396.3C166.74,-404.02 166.74,-413.29 166.74,-421.89"/>
<polygon fill="#000000" stroke="#000000" points="163.24,-421.9 166.74,-431.9 170.24,-421.9 163.24,-421.9"/>
</g>
<!-- ForeignCode -->
<g id="node4" class="node">
<title>ForeignCode</title>
<g id="a_node4"><a xlink:href="/type/ForeignCode" xlink:title="ForeignCode">
<ellipse fill="none" stroke="#000000" cx="61.74" cy="-306" rx="61.99" ry="18"/>
<text text-anchor="middle" x="61.74" y="-302.3" font-family="FreeSans" font-size="14.00" fill="#000000">ForeignCode</text>
</a>
</g>
</g>
<!-- ForeignCode&#45;&gt;Callable -->
<g id="edge12" class="edge">
<title>ForeignCode&#45;&gt;Callable</title>
<path fill="none" stroke="#6666ff" d="M64.71,-324.3C66.03,-332.02 67.62,-341.29 69.1,-349.89"/>
<polygon fill="#6666ff" stroke="#6666ff" points="65.67,-350.63 70.81,-359.9 72.57,-349.45 65.67,-350.63"/>
</g>
<!-- ForeignCode&#45;&gt;Any -->
<g id="edge2" class="edge">
<title>ForeignCode&#45;&gt;Any</title>
<path fill="none" stroke="#000000" d="M85.31,-322.71C101.48,-333.49 122.97,-347.82 139.81,-359.05"/>
<polygon fill="#000000" stroke="#000000" points="137.88,-361.97 148.15,-364.6 141.77,-356.14 137.88,-361.97"/>
</g>
<!-- Code -->
<g id="node5" class="node">
<title>Code</title>
<g id="a_node5"><a xlink:href="/type/Code" xlink:title="Code">
<ellipse fill="none" stroke="#000000" cx="173.74" cy="-306" rx="31.7" ry="18"/>
<text text-anchor="middle" x="173.74" y="-302.3" font-family="FreeSans" font-size="14.00" fill="#000000">Code</text>
</a>
</g>
</g>
<!-- Code&#45;&gt;Callable -->
<g id="edge13" class="edge">
<title>Code&#45;&gt;Callable</title>
<path fill="none" stroke="#6666ff" d="M154.46,-320.5C139.87,-330.71 119.57,-344.92 102.98,-356.54"/>
<polygon fill="#6666ff" stroke="#6666ff" points="100.88,-353.73 94.69,-362.34 104.89,-359.47 100.88,-353.73"/>
</g>
<!-- Code&#45;&gt;Any -->
<g id="edge3" class="edge">
<title>Code&#45;&gt;Any</title>
<path fill="none" stroke="#000000" d="M172.01,-324.3C171.24,-332.02 170.32,-341.29 169.46,-349.89"/>
<polygon fill="#000000" stroke="#000000" points="165.97,-349.6 168.45,-359.9 172.93,-350.29 165.97,-349.6"/>
</g>
<!-- WhateverCode -->
<g id="node6" class="node">
<title>WhateverCode</title>
<g id="a_node6"><a xlink:href="/type/WhateverCode" xlink:title="WhateverCode">
<ellipse fill="none" stroke="#000000" cx="113.74" cy="-234" rx="69.59" ry="18"/>
<text text-anchor="middle" x="113.74" y="-230.3" font-family="FreeSans" font-size="14.00" fill="#000000">WhateverCode</text>
</a>
</g>
</g>
<!-- WhateverCode&#45;&gt;Code -->
<g id="edge4" class="edge">
<title>WhateverCode&#45;&gt;Code</title>
<path fill="none" stroke="#000000" d="M128.27,-251.95C135.86,-260.8 145.26,-271.77 153.55,-281.43"/>
<polygon fill="#000000" stroke="#000000" points="151.01,-283.86 160.18,-289.17 156.33,-279.3 151.01,-283.86"/>
</g>
<!-- Block -->
<g id="node7" class="node">
<title>Block</title>
<g id="a_node7"><a xlink:href="/type/Block" xlink:title="Block">
<ellipse fill="none" stroke="#000000" cx="233.74" cy="-234" rx="32.49" ry="18"/>
<text text-anchor="middle" x="233.74" y="-230.3" font-family="FreeSans" font-size="14.00" fill="#000000">Block</text>
</a>
</g>
</g>
<!-- Block&#45;&gt;Code -->
<g id="edge5" class="edge">
<title>Block&#45;&gt;Code</title>
<path fill="none" stroke="#000000" d="M220.43,-250.54C212.58,-259.69 202.51,-271.45 193.72,-281.69"/>
<polygon fill="#000000" stroke="#000000" points="190.87,-279.64 187.02,-289.51 196.19,-284.19 190.87,-279.64"/>
</g>
<!-- Routine -->
<g id="node8" class="node">
<title>Routine</title>
<g id="a_node8"><a xlink:href="/type/Routine" xlink:title="Routine">
<ellipse fill="none" stroke="#000000" cx="233.74" cy="-162" rx="40.89" ry="18"/>
<text text-anchor="middle" x="233.74" y="-158.3" font-family="FreeSans" font-size="14.00" fill="#000000">Routine</text>
</a>
</g>
</g>
<!-- Routine&#45;&gt;Block -->
<g id="edge6" class="edge">
<title>Routine&#45;&gt;Block</title>
<path fill="none" stroke="#000000" d="M233.74,-180.3C233.74,-188.02 233.74,-197.29 233.74,-205.89"/>
<polygon fill="#000000" stroke="#000000" points="230.24,-205.9 233.74,-215.9 237.24,-205.9 230.24,-205.9"/>
</g>
<!-- Sub -->
<g id="node9" class="node">
<title>Sub</title>
<g id="a_node9"><a xlink:href="/type/Sub" xlink:title="Sub">
<ellipse fill="none" stroke="#000000" cx="97.74" cy="-90" rx="27" ry="18"/>
<text text-anchor="middle" x="97.74" y="-86.3" font-family="FreeSans" font-size="14.00" fill="#000000">Sub</text>
</a>
</g>
</g>
<!-- Sub&#45;&gt;Routine -->
<g id="edge7" class="edge">
<title>Sub&#45;&gt;Routine</title>
<path fill="none" stroke="#000000" d="M118.4,-101.63C139.84,-112.67 173.75,-130.12 199.27,-143.25"/>
<polygon fill="#000000" stroke="#000000" points="197.76,-146.41 208.25,-147.88 200.96,-140.19 197.76,-146.41"/>
</g>
<!-- Macro -->
<g id="node10" class="node">
<title>Macro</title>
<g id="a_node10"><a xlink:href="/type/Macro" xlink:title="Macro">
<ellipse fill="none" stroke="#000000" cx="178.74" cy="-90" rx="36" ry="18"/>
<text text-anchor="middle" x="178.74" y="-86.3" font-family="FreeSans" font-size="14.00" fill="#000000">Macro</text>
</a>
</g>
</g>
<!-- Macro&#45;&gt;Routine -->
<g id="edge8" class="edge">
<title>Macro&#45;&gt;Routine</title>
<path fill="none" stroke="#000000" d="M191.22,-106.88C198.16,-115.71 206.93,-126.87 214.7,-136.76"/>
<polygon fill="#000000" stroke="#000000" points="212,-138.99 220.93,-144.69 217.51,-134.67 212,-138.99"/>
</g>
<!-- Submethod -->
<g id="node11" class="node">
<title>Submethod</title>
<g id="a_node11"><a xlink:href="/type/Submethod" xlink:title="Submethod">
<ellipse fill="none" stroke="#000000" cx="288.74" cy="-90" rx="55.79" ry="18"/>
<text text-anchor="middle" x="288.74" y="-86.3" font-family="FreeSans" font-size="14.00" fill="#000000">Submethod</text>
</a>
</g>
</g>
<!-- Submethod&#45;&gt;Routine -->
<g id="edge9" class="edge">
<title>Submethod&#45;&gt;Routine</title>
<path fill="none" stroke="#000000" d="M275.71,-107.59C268.93,-116.22 260.51,-126.94 252.99,-136.5"/>
<polygon fill="#000000" stroke="#000000" points="250.11,-134.5 246.69,-144.53 255.62,-138.83 250.11,-134.5"/>
</g>
<!-- Method -->
<g id="node12" class="node">
<title>Method</title>
<g id="a_node12"><a xlink:href="/type/Method" xlink:title="Method">
<ellipse fill="none" stroke="#000000" cx="402.74" cy="-90" rx="40.09" ry="18"/>
<text text-anchor="middle" x="402.74" y="-86.3" font-family="FreeSans" font-size="14.00" fill="#000000">Method</text>
</a>
</g>
</g>
<!-- Method&#45;&gt;Routine -->
<g id="edge10" class="edge">
<title>Method&#45;&gt;Routine</title>
<path fill="none" stroke="#000000" d="M374.08,-102.87C346.03,-114.49 303.14,-132.25 272.16,-145.09"/>
<polygon fill="#000000" stroke="#000000" points="270.45,-142.01 262.55,-149.07 273.13,-148.47 270.45,-142.01"/>
</g>
<!-- Regex -->
<g id="node13" class="node">
<title>Regex</title>
<g id="a_node13"><a xlink:href="/type/Regex" xlink:title="Regex">
<ellipse fill="none" stroke="#000000" cx="402.74" cy="-18" rx="36.29" ry="18"/>
<text text-anchor="middle" x="402.74" y="-14.3" font-family="FreeSans" font-size="14.00" fill="#000000">Regex</text>
</a>
</g>
</g>
<!-- Regex&#45;&gt;Method -->
<g id="edge11" class="edge">
<title>Regex&#45;&gt;Method</title>
<path fill="none" stroke="#000000" d="M402.74,-36.3C402.74,-44.02 402.74,-53.29 402.74,-61.89"/>
<polygon fill="#000000" stroke="#000000" points="399.24,-61.9 402.74,-71.9 406.24,-61.9 399.24,-61.9"/>
</g>
</g>
</svg>
