<?xml version="1.0" encoding="UTF-8" standalone="no"?>
<!DOCTYPE svg PUBLIC "-//W3C//DTD SVG 1.1//EN"
 "http://www.w3.org/Graphics/SVG/1.1/DTD/svg11.dtd">
<!-- Generated by graphviz version 2.43.0 (0)
 -->
<!-- Title: raku&#45;type&#45;graph Pages: 1 -->
<svg width="459pt" height="476pt"
 viewBox="0.00 0.00 458.64 476.00" xmlns="http://www.w3.org/2000/svg" xmlns:xlink="http://www.w3.org/1999/xlink">
<g id="graph0" class="graph" transform="scale(1 1) rotate(0) translate(4 472)">
<title>raku&#45;type&#45;graph</title>
<polygon fill="#ffffff" stroke="transparent" points="-4,4 -4,-472 454.64,-472 454.64,4 -4,4"/>
<!-- Callable -->
<g id="node1" class="node">
<title>Callable</title>
<g id="a_node1"><a xlink:href="/type/Callable" xlink:title="Callable">
<ellipse fill="none" stroke="#6666ff" cx="288.9" cy="-378" rx="42.49" ry="18"/>
<text text-anchor="middle" x="288.9" y="-374.3" font-family="FreeSans" font-size="14.00" fill="#6666ff">Callable</text>
</a>
</g>
</g>
<!-- Mu -->
<g id="node2" class="node">
<title>Mu</title>
<g id="a_node2"><a xlink:href="/type/Mu" xlink:title="Mu">
<ellipse fill="none" stroke="#000000" cx="381.9" cy="-450" rx="27" ry="18"/>
<text text-anchor="middle" x="381.9" y="-446.3" font-family="FreeSans" font-size="14.00" fill="#000000">Mu</text>
</a>
</g>
</g>
<!-- Any -->
<g id="node3" class="node">
<title>Any</title>
<g id="a_node3"><a xlink:href="/type/Any" xlink:title="Any">
<ellipse fill="none" stroke="#000000" cx="381.9" cy="-378" rx="27" ry="18"/>
<text text-anchor="middle" x="381.9" y="-374.3" font-family="FreeSans" font-size="14.00" fill="#000000">Any</text>
</a>
</g>
</g>
<!-- Any&#45;&gt;Mu -->
<g id="edge1" class="edge">
<title>Any&#45;&gt;Mu</title>
<path fill="none" stroke="#000000" d="M381.9,-396.3C381.9,-404.02 381.9,-413.29 381.9,-421.89"/>
<polygon fill="#000000" stroke="#000000" points="378.4,-421.9 381.9,-431.9 385.4,-421.9 378.4,-421.9"/>
</g>
<!-- Code -->
<g id="node4" class="node">
<title>Code</title>
<g id="a_node4"><a xlink:href="/type/Code" xlink:title="Code">
<ellipse fill="none" stroke="#000000" cx="276.9" cy="-306" rx="31.7" ry="18"/>
<text text-anchor="middle" x="276.9" y="-302.3" font-family="FreeSans" font-size="14.00" fill="#000000">Code</text>
</a>
</g>
</g>
<!-- Code&#45;&gt;Callable -->
<g id="edge12" class="edge">
<title>Code&#45;&gt;Callable</title>
<path fill="none" stroke="#6666ff" d="M279.8,-323.95C281.12,-331.65 282.72,-340.97 284.2,-349.64"/>
<polygon fill="#6666ff" stroke="#6666ff" points="280.79,-350.46 285.93,-359.72 287.69,-349.28 280.79,-350.46"/>
</g>
<!-- Code&#45;&gt;Any -->
<g id="edge2" class="edge">
<title>Code&#45;&gt;Any</title>
<path fill="none" stroke="#000000" d="M296.64,-320.17C313.08,-331.13 336.66,-346.84 354.85,-358.97"/>
<polygon fill="#000000" stroke="#000000" points="353.03,-361.96 363.29,-364.6 356.91,-356.14 353.03,-361.96"/>
</g>
<!-- ForeignCode -->
<g id="node5" class="node">
<title>ForeignCode</title>
<g id="a_node5"><a xlink:href="/type/ForeignCode" xlink:title="ForeignCode">
<ellipse fill="none" stroke="#000000" cx="388.9" cy="-306" rx="61.99" ry="18"/>
<text text-anchor="middle" x="388.9" y="-302.3" font-family="FreeSans" font-size="14.00" fill="#000000">ForeignCode</text>
</a>
</g>
</g>
<!-- ForeignCode&#45;&gt;Callable -->
<g id="edge13" class="edge">
<title>ForeignCode&#45;&gt;Callable</title>
<path fill="none" stroke="#6666ff" d="M366.2,-322.88C352.14,-332.73 333.91,-345.49 318.69,-356.14"/>
<polygon fill="#6666ff" stroke="#6666ff" points="316.31,-353.53 310.13,-362.14 320.33,-359.27 316.31,-353.53"/>
</g>
<!-- ForeignCode&#45;&gt;Any -->
<g id="edge3" class="edge">
<title>ForeignCode&#45;&gt;Any</title>
<path fill="none" stroke="#000000" d="M387.16,-324.3C386.39,-332.02 385.47,-341.29 384.61,-349.89"/>
<polygon fill="#000000" stroke="#000000" points="381.12,-349.6 383.61,-359.9 388.08,-350.29 381.12,-349.6"/>
</g>
<!-- Block -->
<g id="node6" class="node">
<title>Block</title>
<g id="a_node6"><a xlink:href="/type/Block" xlink:title="Block">
<ellipse fill="none" stroke="#000000" cx="216.9" cy="-234" rx="32.49" ry="18"/>
<text text-anchor="middle" x="216.9" y="-230.3" font-family="FreeSans" font-size="14.00" fill="#000000">Block</text>
</a>
</g>
</g>
<!-- Block&#45;&gt;Code -->
<g id="edge4" class="edge">
<title>Block&#45;&gt;Code</title>
<path fill="none" stroke="#000000" d="M230.21,-250.54C238.06,-259.69 248.13,-271.45 256.92,-281.69"/>
<polygon fill="#000000" stroke="#000000" points="254.45,-284.19 263.62,-289.51 259.77,-279.64 254.45,-284.19"/>
</g>
<!-- WhateverCode -->
<g id="node7" class="node">
<title>WhateverCode</title>
<g id="a_node7"><a xlink:href="/type/WhateverCode" xlink:title="WhateverCode">
<ellipse fill="none" stroke="#000000" cx="336.9" cy="-234" rx="69.59" ry="18"/>
<text text-anchor="middle" x="336.9" y="-230.3" font-family="FreeSans" font-size="14.00" fill="#000000">WhateverCode</text>
</a>
</g>
</g>
<!-- WhateverCode&#45;&gt;Code -->
<g id="edge5" class="edge">
<title>WhateverCode&#45;&gt;Code</title>
<path fill="none" stroke="#000000" d="M322.37,-251.95C314.78,-260.8 305.38,-271.77 297.09,-281.43"/>
<polygon fill="#000000" stroke="#000000" points="294.31,-279.3 290.46,-289.17 299.63,-283.86 294.31,-279.3"/>
</g>
<!-- Routine -->
<g id="node8" class="node">
<title>Routine</title>
<g id="a_node8"><a xlink:href="/type/Routine" xlink:title="Routine">
<ellipse fill="none" stroke="#000000" cx="216.9" cy="-162" rx="40.89" ry="18"/>
<text text-anchor="middle" x="216.9" y="-158.3" font-family="FreeSans" font-size="14.00" fill="#000000">Routine</text>
</a>
</g>
</g>
<!-- Routine&#45;&gt;Block -->
<g id="edge6" class="edge">
<title>Routine&#45;&gt;Block</title>
<path fill="none" stroke="#000000" d="M216.9,-180.3C216.9,-188.02 216.9,-197.29 216.9,-205.89"/>
<polygon fill="#000000" stroke="#000000" points="213.4,-205.9 216.9,-215.9 220.4,-205.9 213.4,-205.9"/>
</g>
<!-- Submethod -->
<g id="node9" class="node">
<title>Submethod</title>
<g id="a_node9"><a xlink:href="/type/Submethod" xlink:title="Submethod">
<ellipse fill="none" stroke="#000000" cx="55.9" cy="-90" rx="55.79" ry="18"/>
<text text-anchor="middle" x="55.9" y="-86.3" font-family="FreeSans" font-size="14.00" fill="#000000">Submethod</text>
</a>
</g>
</g>
<!-- Submethod&#45;&gt;Routine -->
<g id="edge7" class="edge">
<title>Submethod&#45;&gt;Routine</title>
<path fill="none" stroke="#000000" d="M87.7,-104.83C114.1,-116.31 151.68,-132.65 179.51,-144.75"/>
<polygon fill="#000000" stroke="#000000" points="178.35,-148.06 188.92,-148.84 181.14,-141.64 178.35,-148.06"/>
</g>
<!-- Method -->
<g id="node10" class="node">
<title>Method</title>
<g id="a_node10"><a xlink:href="/type/Method" xlink:title="Method">
<ellipse fill="none" stroke="#000000" cx="169.9" cy="-90" rx="40.09" ry="18"/>
<text text-anchor="middle" x="169.9" y="-86.3" font-family="FreeSans" font-size="14.00" fill="#000000">Method</text>
</a>
</g>
</g>
<!-- Method&#45;&gt;Routine -->
<g id="edge8" class="edge">
<title>Method&#45;&gt;Routine</title>
<path fill="none" stroke="#000000" d="M181.03,-107.59C186.77,-116.13 193.88,-126.72 200.25,-136.21"/>
<polygon fill="#000000" stroke="#000000" points="197.36,-138.18 205.84,-144.53 203.17,-134.28 197.36,-138.18"/>
</g>
<!-- Macro -->
<g id="node11" class="node">
<title>Macro</title>
<g id="a_node11"><a xlink:href="/type/Macro" xlink:title="Macro">
<ellipse fill="none" stroke="#000000" cx="263.9" cy="-90" rx="36" ry="18"/>
<text text-anchor="middle" x="263.9" y="-86.3" font-family="FreeSans" font-size="14.00" fill="#000000">Macro</text>
</a>
</g>
</g>
<!-- Macro&#45;&gt;Routine -->
<g id="edge9" class="edge">
<title>Macro&#45;&gt;Routine</title>
<path fill="none" stroke="#000000" d="M252.99,-107.24C247.26,-115.77 240.11,-126.42 233.69,-135.98"/>
<polygon fill="#000000" stroke="#000000" points="230.73,-134.11 228.06,-144.37 236.54,-138.02 230.73,-134.11"/>
</g>
<!-- Sub -->
<g id="node12" class="node">
<title>Sub</title>
<g id="a_node12"><a xlink:href="/type/Sub" xlink:title="Sub">
<ellipse fill="none" stroke="#000000" cx="344.9" cy="-90" rx="27" ry="18"/>
<text text-anchor="middle" x="344.9" y="-86.3" font-family="FreeSans" font-size="14.00" fill="#000000">Sub</text>
</a>
</g>
</g>
<!-- Sub&#45;&gt;Routine -->
<g id="edge10" class="edge">
<title>Sub&#45;&gt;Routine</title>
<path fill="none" stroke="#000000" d="M324.61,-102.09C304.7,-112.98 273.97,-129.79 250.42,-142.67"/>
<polygon fill="#000000" stroke="#000000" points="248.56,-139.7 241.46,-147.57 251.91,-145.84 248.56,-139.7"/>
</g>
<!-- Regex -->
<g id="node13" class="node">
<title>Regex</title>
<g id="a_node13"><a xlink:href="/type/Regex" xlink:title="Regex">
<ellipse fill="none" stroke="#000000" cx="169.9" cy="-18" rx="36.29" ry="18"/>
<text text-anchor="middle" x="169.9" y="-14.3" font-family="FreeSans" font-size="14.00" fill="#000000">Regex</text>
</a>
</g>
</g>
<!-- Regex&#45;&gt;Method -->
<g id="edge11" class="edge">
<title>Regex&#45;&gt;Method</title>
<path fill="none" stroke="#000000" d="M169.9,-36.3C169.9,-44.02 169.9,-53.29 169.9,-61.89"/>
<polygon fill="#000000" stroke="#000000" points="166.4,-61.9 169.9,-71.9 173.4,-61.9 166.4,-61.9"/>
</g>
</g>
</svg>
