<?xml version="1.0" encoding="UTF-8" standalone="no"?>
<!DOCTYPE svg PUBLIC "-//W3C//DTD SVG 1.1//EN"
 "http://www.w3.org/Graphics/SVG/1.1/DTD/svg11.dtd">
<!-- Generated by graphviz version 2.43.0 (0)
 -->
<!-- Title: raku&#45;type&#45;graph Pages: 1 -->
<svg width="407pt" height="476pt"
 viewBox="0.00 0.00 406.84 476.00" xmlns="http://www.w3.org/2000/svg" xmlns:xlink="http://www.w3.org/1999/xlink">
<g id="graph0" class="graph" transform="scale(1 1) rotate(0) translate(4 472)">
<title>raku&#45;type&#45;graph</title>
<polygon fill="#ffffff" stroke="transparent" points="-4,4 -4,-472 402.84,-472 402.84,4 -4,4"/>
<!-- Code -->
<g id="node1" class="node">
<title>Code</title>
<g id="a_node1"><a xlink:href="/type/Code" xlink:title="Code">
<ellipse fill="none" stroke="#000000" cx="129.54" cy="-306" rx="31.7" ry="18"/>
<text text-anchor="middle" x="129.54" y="-302.3" font-family="FreeSans" font-size="14.00" fill="#000000">Code</text>
</a>
</g>
</g>
<!-- Any -->
<g id="node3" class="node">
<title>Any</title>
<g id="a_node3"><a xlink:href="/type/Any" xlink:title="Any">
<ellipse fill="none" stroke="#000000" cx="86.54" cy="-378" rx="27" ry="18"/>
<text text-anchor="middle" x="86.54" y="-374.3" font-family="FreeSans" font-size="14.00" fill="#000000">Any</text>
</a>
</g>
</g>
<!-- Code&#45;&gt;Any -->
<g id="edge1" class="edge">
<title>Code&#45;&gt;Any</title>
<path fill="none" stroke="#000000" d="M119.57,-323.24C114.31,-331.81 107.73,-342.51 101.84,-352.1"/>
<polygon fill="#000000" stroke="#000000" points="98.71,-350.5 96.46,-360.85 104.68,-354.16 98.71,-350.5"/>
</g>
<!-- Callable -->
<g id="node4" class="node">
<title>Callable</title>
<g id="a_node4"><a xlink:href="/type/Callable" xlink:title="Callable">
<ellipse fill="none" stroke="#6666ff" cx="173.54" cy="-378" rx="42.49" ry="18"/>
<text text-anchor="middle" x="173.54" y="-374.3" font-family="FreeSans" font-size="14.00" fill="#6666ff">Callable</text>
</a>
</g>
</g>
<!-- Code&#45;&gt;Callable -->
<g id="edge11" class="edge">
<title>Code&#45;&gt;Callable</title>
<path fill="none" stroke="#6666ff" d="M139.75,-323.24C145.06,-331.68 151.67,-342.2 157.63,-351.69"/>
<polygon fill="#6666ff" stroke="#6666ff" points="154.8,-353.76 163.09,-360.37 160.73,-350.04 154.8,-353.76"/>
</g>
<!-- Mu -->
<g id="node2" class="node">
<title>Mu</title>
<g id="a_node2"><a xlink:href="/type/Mu" xlink:title="Mu">
<ellipse fill="none" stroke="#000000" cx="86.54" cy="-450" rx="27" ry="18"/>
<text text-anchor="middle" x="86.54" y="-446.3" font-family="FreeSans" font-size="14.00" fill="#000000">Mu</text>
</a>
</g>
</g>
<!-- Any&#45;&gt;Mu -->
<g id="edge2" class="edge">
<title>Any&#45;&gt;Mu</title>
<path fill="none" stroke="#000000" d="M86.54,-396.3C86.54,-404.02 86.54,-413.29 86.54,-421.89"/>
<polygon fill="#000000" stroke="#000000" points="83.04,-421.9 86.54,-431.9 90.04,-421.9 83.04,-421.9"/>
</g>
<!-- WhateverCode -->
<g id="node5" class="node">
<title>WhateverCode</title>
<g id="a_node5"><a xlink:href="/type/WhateverCode" xlink:title="WhateverCode">
<ellipse fill="none" stroke="#000000" cx="69.54" cy="-234" rx="69.59" ry="18"/>
<text text-anchor="middle" x="69.54" y="-230.3" font-family="FreeSans" font-size="14.00" fill="#000000">WhateverCode</text>
</a>
</g>
</g>
<!-- WhateverCode&#45;&gt;Code -->
<g id="edge3" class="edge">
<title>WhateverCode&#45;&gt;Code</title>
<path fill="none" stroke="#000000" d="M84.07,-251.95C91.65,-260.8 101.06,-271.77 109.34,-281.43"/>
<polygon fill="#000000" stroke="#000000" points="106.81,-283.86 115.98,-289.17 112.13,-279.3 106.81,-283.86"/>
</g>
<!-- Block -->
<g id="node6" class="node">
<title>Block</title>
<g id="a_node6"><a xlink:href="/type/Block" xlink:title="Block">
<ellipse fill="none" stroke="#000000" cx="189.54" cy="-234" rx="32.49" ry="18"/>
<text text-anchor="middle" x="189.54" y="-230.3" font-family="FreeSans" font-size="14.00" fill="#000000">Block</text>
</a>
</g>
</g>
<!-- Block&#45;&gt;Code -->
<g id="edge4" class="edge">
<title>Block&#45;&gt;Code</title>
<path fill="none" stroke="#000000" d="M176.23,-250.54C168.38,-259.69 158.3,-271.45 149.52,-281.69"/>
<polygon fill="#000000" stroke="#000000" points="146.67,-279.64 142.82,-289.51 151.99,-284.19 146.67,-279.64"/>
</g>
<!-- Routine -->
<g id="node7" class="node">
<title>Routine</title>
<g id="a_node7"><a xlink:href="/type/Routine" xlink:title="Routine">
<ellipse fill="none" stroke="#000000" cx="189.54" cy="-162" rx="40.89" ry="18"/>
<text text-anchor="middle" x="189.54" y="-158.3" font-family="FreeSans" font-size="14.00" fill="#000000">Routine</text>
</a>
</g>
</g>
<!-- Routine&#45;&gt;Block -->
<g id="edge5" class="edge">
<title>Routine&#45;&gt;Block</title>
<path fill="none" stroke="#000000" d="M189.54,-180.3C189.54,-188.02 189.54,-197.29 189.54,-205.89"/>
<polygon fill="#000000" stroke="#000000" points="186.04,-205.9 189.54,-215.9 193.04,-205.9 186.04,-205.9"/>
</g>
<!-- Sub -->
<g id="node8" class="node">
<title>Sub</title>
<g id="a_node8"><a xlink:href="/type/Sub" xlink:title="Sub">
<ellipse fill="none" stroke="#000000" cx="53.54" cy="-90" rx="27" ry="18"/>
<text text-anchor="middle" x="53.54" y="-86.3" font-family="FreeSans" font-size="14.00" fill="#000000">Sub</text>
</a>
</g>
</g>
<!-- Sub&#45;&gt;Routine -->
<g id="edge6" class="edge">
<title>Sub&#45;&gt;Routine</title>
<path fill="none" stroke="#000000" d="M74.2,-101.63C95.64,-112.67 129.55,-130.12 155.07,-143.25"/>
<polygon fill="#000000" stroke="#000000" points="153.55,-146.41 164.05,-147.88 156.76,-140.19 153.55,-146.41"/>
</g>
<!-- Macro -->
<g id="node9" class="node">
<title>Macro</title>
<g id="a_node9"><a xlink:href="/type/Macro" xlink:title="Macro">
<ellipse fill="none" stroke="#000000" cx="134.54" cy="-90" rx="36" ry="18"/>
<text text-anchor="middle" x="134.54" y="-86.3" font-family="FreeSans" font-size="14.00" fill="#000000">Macro</text>
</a>
</g>
</g>
<!-- Macro&#45;&gt;Routine -->
<g id="edge7" class="edge">
<title>Macro&#45;&gt;Routine</title>
<path fill="none" stroke="#000000" d="M147.02,-106.88C153.96,-115.71 162.73,-126.87 170.5,-136.76"/>
<polygon fill="#000000" stroke="#000000" points="167.8,-138.99 176.73,-144.69 173.31,-134.67 167.8,-138.99"/>
</g>
<!-- Submethod -->
<g id="node10" class="node">
<title>Submethod</title>
<g id="a_node10"><a xlink:href="/type/Submethod" xlink:title="Submethod">
<ellipse fill="none" stroke="#000000" cx="244.54" cy="-90" rx="55.79" ry="18"/>
<text text-anchor="middle" x="244.54" y="-86.3" font-family="FreeSans" font-size="14.00" fill="#000000">Submethod</text>
</a>
</g>
</g>
<!-- Submethod&#45;&gt;Routine -->
<g id="edge8" class="edge">
<title>Submethod&#45;&gt;Routine</title>
<path fill="none" stroke="#000000" d="M231.51,-107.59C224.73,-116.22 216.31,-126.94 208.79,-136.5"/>
<polygon fill="#000000" stroke="#000000" points="205.91,-134.5 202.48,-144.53 211.41,-138.83 205.91,-134.5"/>
</g>
<!-- Method -->
<g id="node11" class="node">
<title>Method</title>
<g id="a_node11"><a xlink:href="/type/Method" xlink:title="Method">
<ellipse fill="none" stroke="#000000" cx="358.54" cy="-90" rx="40.09" ry="18"/>
<text text-anchor="middle" x="358.54" y="-86.3" font-family="FreeSans" font-size="14.00" fill="#000000">Method</text>
</a>
</g>
</g>
<!-- Method&#45;&gt;Routine -->
<g id="edge9" class="edge">
<title>Method&#45;&gt;Routine</title>
<path fill="none" stroke="#000000" d="M329.88,-102.87C301.83,-114.49 258.94,-132.25 227.96,-145.09"/>
<polygon fill="#000000" stroke="#000000" points="226.25,-142.01 218.35,-149.07 228.93,-148.47 226.25,-142.01"/>
</g>
<!-- Regex -->
<g id="node12" class="node">
<title>Regex</title>
<g id="a_node12"><a xlink:href="/type/Regex" xlink:title="Regex">
<ellipse fill="none" stroke="#000000" cx="358.54" cy="-18" rx="36.29" ry="18"/>
<text text-anchor="middle" x="358.54" y="-14.3" font-family="FreeSans" font-size="14.00" fill="#000000">Regex</text>
</a>
</g>
</g>
<!-- Regex&#45;&gt;Method -->
<g id="edge10" class="edge">
<title>Regex&#45;&gt;Method</title>
<path fill="none" stroke="#000000" d="M358.54,-36.3C358.54,-44.02 358.54,-53.29 358.54,-61.89"/>
<polygon fill="#000000" stroke="#000000" points="355.04,-61.9 358.54,-71.9 362.04,-61.9 355.04,-61.9"/>
</g>
</g>
</svg>
