<?xml version="1.0" encoding="UTF-8" standalone="no"?>
<!DOCTYPE svg PUBLIC "-//W3C//DTD SVG 1.1//EN"
 "http://www.w3.org/Graphics/SVG/1.1/DTD/svg11.dtd">
<!-- Generated by graphviz version 2.43.0 (0)
 -->
<!-- Title: raku&#45;type&#45;graph Pages: 1 -->
<svg width="1484pt" height="332pt"
 viewBox="0.00 0.00 1484.09 332.00" xmlns="http://www.w3.org/2000/svg" xmlns:xlink="http://www.w3.org/1999/xlink">
<g id="graph0" class="graph" transform="scale(1 1) rotate(0) translate(4 328)">
<title>raku&#45;type&#45;graph</title>
<polygon fill="#ffffff" stroke="transparent" points="-4,4 -4,-328 1480.09,-328 1480.09,4 -4,4"/>
<!-- Cool -->
<g id="node1" class="node">
<title>Cool</title>
<g id="a_node1"><a xlink:href="/type/Cool" xlink:title="Cool">
<ellipse fill="none" stroke="#000000" cx="663.75" cy="-162" rx="28.7" ry="18"/>
<text text-anchor="middle" x="663.75" y="-158.3" font-family="FreeSans" font-size="14.00" fill="#000000">Cool</text>
</a>
</g>
</g>
<!-- Any -->
<g id="node3" class="node">
<title>Any</title>
<g id="a_node3"><a xlink:href="/type/Any" xlink:title="Any">
<ellipse fill="none" stroke="#000000" cx="599.75" cy="-234" rx="27" ry="18"/>
<text text-anchor="middle" x="599.75" y="-230.3" font-family="FreeSans" font-size="14.00" fill="#000000">Any</text>
</a>
</g>
</g>
<!-- Cool&#45;&gt;Any -->
<g id="edge1" class="edge">
<title>Cool&#45;&gt;Any</title>
<path fill="none" stroke="#000000" d="M650.17,-177.85C641.43,-187.4 629.91,-200.01 620.09,-210.75"/>
<polygon fill="#000000" stroke="#000000" points="617.46,-208.43 613.3,-218.18 622.63,-213.16 617.46,-208.43"/>
</g>
<!-- Mu -->
<g id="node2" class="node">
<title>Mu</title>
<g id="a_node2"><a xlink:href="/type/Mu" xlink:title="Mu">
<ellipse fill="none" stroke="#000000" cx="599.75" cy="-306" rx="27" ry="18"/>
<text text-anchor="middle" x="599.75" y="-302.3" font-family="FreeSans" font-size="14.00" fill="#000000">Mu</text>
</a>
</g>
</g>
<!-- Any&#45;&gt;Mu -->
<g id="edge2" class="edge">
<title>Any&#45;&gt;Mu</title>
<path fill="none" stroke="#000000" d="M599.75,-252.3C599.75,-260.02 599.75,-269.29 599.75,-277.89"/>
<polygon fill="#000000" stroke="#000000" points="596.25,-277.9 599.75,-287.9 603.25,-277.9 596.25,-277.9"/>
</g>
<!-- Iterable -->
<g id="node4" class="node">
<title>Iterable</title>
<g id="a_node4"><a xlink:href="/type/Iterable" xlink:title="Iterable">
<ellipse fill="none" stroke="#6666ff" cx="155.75" cy="-162" rx="40.09" ry="18"/>
<text text-anchor="middle" x="155.75" y="-158.3" font-family="FreeSans" font-size="14.00" fill="#6666ff">Iterable</text>
</a>
</g>
</g>
<!-- Associative -->
<g id="node5" class="node">
<title>Associative</title>
<g id="a_node5"><a xlink:href="/type/Associative" xlink:title="Associative">
<ellipse fill="none" stroke="#6666ff" cx="269.75" cy="-162" rx="55.49" ry="18"/>
<text text-anchor="middle" x="269.75" y="-158.3" font-family="FreeSans" font-size="14.00" fill="#6666ff">Associative</text>
</a>
</g>
</g>
<!-- Map -->
<g id="node6" class="node">
<title>Map</title>
<g id="a_node6"><a xlink:href="/type/Map" xlink:title="Map">
<ellipse fill="none" stroke="#000000" cx="259.75" cy="-90" rx="28.7" ry="18"/>
<text text-anchor="middle" x="259.75" y="-86.3" font-family="FreeSans" font-size="14.00" fill="#000000">Map</text>
</a>
</g>
</g>
<!-- Map&#45;&gt;Cool -->
<g id="edge3" class="edge">
<title>Map&#45;&gt;Cool</title>
<path fill="none" stroke="#000000" d="M282.29,-101.09C290.47,-104.75 297.75,-108 297.75,-108 297.75,-108 625.75,-144 625.75,-144 625.75,-144 628.18,-145.09 631.81,-146.71"/>
<polygon fill="#000000" stroke="#000000" points="630.64,-150.03 641.2,-150.91 633.5,-143.64 630.64,-150.03"/>
</g>
<!-- Map&#45;&gt;Iterable -->
<g id="edge21" class="edge">
<title>Map&#45;&gt;Iterable</title>
<path fill="none" stroke="#6666ff" d="M240.67,-103.84C225.25,-114.22 203.27,-129.01 185.53,-140.95"/>
<polygon fill="#6666ff" stroke="#6666ff" points="183.55,-138.06 177.21,-146.55 187.46,-143.87 183.55,-138.06"/>
</g>
<!-- Map&#45;&gt;Associative -->
<g id="edge22" class="edge">
<title>Map&#45;&gt;Associative</title>
<path fill="none" stroke="#6666ff" d="M262.17,-107.95C263.27,-115.65 264.6,-124.97 265.84,-133.64"/>
<polygon fill="#6666ff" stroke="#6666ff" points="262.4,-134.32 267.28,-143.72 269.33,-133.33 262.4,-134.32"/>
</g>
<!-- Positional -->
<g id="node7" class="node">
<title>Positional</title>
<g id="a_node7"><a xlink:href="/type/Positional" xlink:title="Positional">
<ellipse fill="none" stroke="#6666ff" cx="48.75" cy="-162" rx="48.99" ry="18"/>
<text text-anchor="middle" x="48.75" y="-158.3" font-family="FreeSans" font-size="14.00" fill="#6666ff">Positional</text>
</a>
</g>
</g>
<!-- Range -->
<g id="node8" class="node">
<title>Range</title>
<g id="a_node8"><a xlink:href="/type/Range" xlink:title="Range">
<ellipse fill="none" stroke="#000000" cx="84.75" cy="-90" rx="36.29" ry="18"/>
<text text-anchor="middle" x="84.75" y="-86.3" font-family="FreeSans" font-size="14.00" fill="#000000">Range</text>
</a>
</g>
</g>
<!-- Range&#45;&gt;Cool -->
<g id="edge4" class="edge">
<title>Range&#45;&gt;Cool</title>
<path fill="none" stroke="#000000" d="M112.73,-101.57C121.88,-105.03 129.75,-108 129.75,-108 129.75,-108 625.75,-144 625.75,-144 625.75,-144 628.18,-145.09 631.81,-146.71"/>
<polygon fill="#000000" stroke="#000000" points="630.64,-150.03 641.2,-150.91 633.5,-143.64 630.64,-150.03"/>
</g>
<!-- Range&#45;&gt;Iterable -->
<g id="edge24" class="edge">
<title>Range&#45;&gt;Iterable</title>
<path fill="none" stroke="#6666ff" d="M100.5,-106.54C109.84,-115.74 121.85,-127.58 132.28,-137.87"/>
<polygon fill="#6666ff" stroke="#6666ff" points="129.96,-140.49 139.54,-145.02 134.88,-135.51 129.96,-140.49"/>
</g>
<!-- Range&#45;&gt;Positional -->
<g id="edge23" class="edge">
<title>Range&#45;&gt;Positional</title>
<path fill="none" stroke="#6666ff" d="M76.21,-107.59C72.02,-115.75 66.86,-125.78 62.15,-134.93"/>
<polygon fill="#6666ff" stroke="#6666ff" points="58.93,-133.55 57.47,-144.04 65.15,-136.75 58.93,-133.55"/>
</g>
<!-- StrDistance -->
<g id="node9" class="node">
<title>StrDistance</title>
<g id="a_node9"><a xlink:href="/type/StrDistance" xlink:title="StrDistance">
<ellipse fill="none" stroke="#000000" cx="738.75" cy="-90" rx="55.79" ry="18"/>
<text text-anchor="middle" x="738.75" y="-86.3" font-family="FreeSans" font-size="14.00" fill="#000000">StrDistance</text>
</a>
</g>
</g>
<!-- StrDistance&#45;&gt;Cool -->
<g id="edge5" class="edge">
<title>StrDistance&#45;&gt;Cool</title>
<path fill="none" stroke="#000000" d="M721.35,-107.24C710.94,-116.95 697.6,-129.4 686.38,-139.87"/>
<polygon fill="#000000" stroke="#000000" points="683.94,-137.37 679.01,-146.75 688.71,-142.49 683.94,-137.37"/>
</g>
<!-- IO -->
<g id="node10" class="node">
<title>IO</title>
<g id="a_node10"><a xlink:href="/type/IO" xlink:title="IO">
<ellipse fill="none" stroke="#6666ff" cx="589.75" cy="-162" rx="27" ry="18"/>
<text text-anchor="middle" x="589.75" y="-158.3" font-family="FreeSans" font-size="14.00" fill="#6666ff">IO</text>
</a>
</g>
</g>
<!-- IO::Path -->
<g id="node11" class="node">
<title>IO::Path</title>
<g id="a_node11"><a xlink:href="/type/IO::Path" xlink:title="IO::Path">
<ellipse fill="none" stroke="#000000" cx="510.75" cy="-90" rx="43.59" ry="18"/>
<text text-anchor="middle" x="510.75" y="-86.3" font-family="FreeSans" font-size="14.00" fill="#000000">IO::Path</text>
</a>
</g>
</g>
<!-- IO::Path&#45;&gt;Cool -->
<g id="edge6" class="edge">
<title>IO::Path&#45;&gt;Cool</title>
<path fill="none" stroke="#000000" d="M538.81,-103.84C565.2,-115.91 604.66,-133.97 632.15,-146.54"/>
<polygon fill="#000000" stroke="#000000" points="630.78,-149.77 641.33,-150.74 633.69,-143.4 630.78,-149.77"/>
</g>
<!-- IO::Path&#45;&gt;IO -->
<g id="edge25" class="edge">
<title>IO::Path&#45;&gt;IO</title>
<path fill="none" stroke="#6666ff" d="M528.28,-106.54C539.54,-116.51 554.29,-129.59 566.52,-140.42"/>
<polygon fill="#6666ff" stroke="#6666ff" points="564.33,-143.16 574.13,-147.17 568.97,-137.92 564.33,-143.16"/>
</g>
<!-- Numeric -->
<g id="node12" class="node">
<title>Numeric</title>
<g id="a_node12"><a xlink:href="/type/Numeric" xlink:title="Numeric">
<ellipse fill="none" stroke="#6666ff" cx="1196.75" cy="-234" rx="44.39" ry="18"/>
<text text-anchor="middle" x="1196.75" y="-230.3" font-family="FreeSans" font-size="14.00" fill="#6666ff">Numeric</text>
</a>
</g>
</g>
<!-- Real -->
<g id="node13" class="node">
<title>Real</title>
<g id="a_node13"><a xlink:href="/type/Real" xlink:title="Real">
<ellipse fill="none" stroke="#6666ff" cx="1115.75" cy="-162" rx="28.7" ry="18"/>
<text text-anchor="middle" x="1115.75" y="-158.3" font-family="FreeSans" font-size="14.00" fill="#6666ff">Real</text>
</a>
</g>
</g>
<!-- Real&#45;&gt;Numeric -->
<g id="edge26" class="edge">
<title>Real&#45;&gt;Numeric</title>
<path fill="none" stroke="#6666ff" d="M1132.14,-177.17C1143.32,-186.83 1158.35,-199.82 1171.1,-210.83"/>
<polygon fill="#6666ff" stroke="#6666ff" points="1168.83,-213.5 1178.69,-217.39 1173.41,-208.21 1168.83,-213.5"/>
</g>
<!-- Int -->
<g id="node14" class="node">
<title>Int</title>
<g id="a_node14"><a xlink:href="/type/Int" xlink:title="Int">
<ellipse fill="none" stroke="#000000" cx="1153.75" cy="-90" rx="27" ry="18"/>
<text text-anchor="middle" x="1153.75" y="-86.3" font-family="FreeSans" font-size="14.00" fill="#000000">Int</text>
</a>
</g>
</g>
<!-- Int&#45;&gt;Cool -->
<g id="edge7" class="edge">
<title>Int&#45;&gt;Cool</title>
<path fill="none" stroke="#000000" d="M1132.39,-101.09C1124.64,-104.75 1117.75,-108 1117.75,-108 1117.75,-108 811.52,-143.75 702.06,-156.53"/>
<polygon fill="#000000" stroke="#000000" points="701.33,-153.09 691.8,-157.72 702.14,-160.04 701.33,-153.09"/>
</g>
<!-- Int&#45;&gt;Real -->
<g id="edge27" class="edge">
<title>Int&#45;&gt;Real</title>
<path fill="none" stroke="#6666ff" d="M1144.93,-107.24C1140.33,-115.72 1134.59,-126.29 1129.42,-135.8"/>
<polygon fill="#6666ff" stroke="#6666ff" points="1126.21,-134.39 1124.51,-144.85 1132.36,-137.73 1126.21,-134.39"/>
</g>
<!-- Nil -->
<g id="node15" class="node">
<title>Nil</title>
<g id="a_node15"><a xlink:href="/type/Nil" xlink:title="Nil">
<ellipse fill="none" stroke="#000000" cx="637.75" cy="-90" rx="27" ry="18"/>
<text text-anchor="middle" x="637.75" y="-86.3" font-family="FreeSans" font-size="14.00" fill="#000000">Nil</text>
</a>
</g>
</g>
<!-- Nil&#45;&gt;Cool -->
<g id="edge8" class="edge">
<title>Nil&#45;&gt;Cool</title>
<path fill="none" stroke="#000000" d="M643.91,-107.59C646.91,-115.66 650.59,-125.57 653.96,-134.65"/>
<polygon fill="#000000" stroke="#000000" points="650.68,-135.89 657.45,-144.04 657.25,-133.45 650.68,-135.89"/>
</g>
<!-- List -->
<g id="node16" class="node">
<title>List</title>
<g id="a_node16"><a xlink:href="/type/List" xlink:title="List">
<ellipse fill="none" stroke="#000000" cx="165.75" cy="-90" rx="27" ry="18"/>
<text text-anchor="middle" x="165.75" y="-86.3" font-family="FreeSans" font-size="14.00" fill="#000000">List</text>
</a>
</g>
</g>
<!-- List&#45;&gt;Cool -->
<g id="edge9" class="edge">
<title>List&#45;&gt;Cool</title>
<path fill="none" stroke="#000000" d="M189.82,-98.31C205,-102.92 221.75,-108 221.75,-108 221.75,-108 625.75,-144 625.75,-144 625.75,-144 628.18,-145.09 631.81,-146.71"/>
<polygon fill="#000000" stroke="#000000" points="630.64,-150.03 641.2,-150.91 633.5,-143.64 630.64,-150.03"/>
</g>
<!-- List&#45;&gt;Iterable -->
<g id="edge29" class="edge">
<title>List&#45;&gt;Iterable</title>
<path fill="none" stroke="#6666ff" d="M163.32,-107.95C162.22,-115.65 160.89,-124.97 159.65,-133.64"/>
<polygon fill="#6666ff" stroke="#6666ff" points="156.16,-133.33 158.21,-143.72 163.09,-134.32 156.16,-133.33"/>
</g>
<!-- List&#45;&gt;Positional -->
<g id="edge28" class="edge">
<title>List&#45;&gt;Positional</title>
<path fill="none" stroke="#6666ff" d="M146.16,-102.72C128.71,-113.16 102.8,-128.66 82.08,-141.05"/>
<polygon fill="#6666ff" stroke="#6666ff" points="80.06,-138.19 73.27,-146.32 83.65,-144.19 80.06,-138.19"/>
</g>
<!-- Rational -->
<g id="node17" class="node">
<title>Rational</title>
<g id="a_node17"><a xlink:href="/type/Rational" xlink:title="Rational">
<ellipse fill="none" stroke="#6666ff" cx="1241.75" cy="-90" rx="42.79" ry="18"/>
<text text-anchor="middle" x="1241.75" y="-86.3" font-family="FreeSans" font-size="14.00" fill="#6666ff">Rational</text>
</a>
</g>
</g>
<!-- Rational&#45;&gt;Real -->
<g id="edge30" class="edge">
<title>Rational&#45;&gt;Real</title>
<path fill="none" stroke="#6666ff" d="M1216.85,-104.83C1196.27,-116.26 1166.99,-132.53 1145.24,-144.62"/>
<polygon fill="#6666ff" stroke="#6666ff" points="1143.46,-141.6 1136.42,-149.51 1146.86,-147.72 1143.46,-141.6"/>
</g>
<!-- FatRat -->
<g id="node18" class="node">
<title>FatRat</title>
<g id="a_node18"><a xlink:href="/type/FatRat" xlink:title="FatRat">
<ellipse fill="none" stroke="#000000" cx="1031.75" cy="-18" rx="37.09" ry="18"/>
<text text-anchor="middle" x="1031.75" y="-14.3" font-family="FreeSans" font-size="14.00" fill="#000000">FatRat</text>
</a>
</g>
</g>
<!-- FatRat&#45;&gt;Cool -->
<g id="edge10" class="edge">
<title>FatRat&#45;&gt;Cool</title>
<path fill="none" stroke="#000000" d="M1000.37,-27.75C946.41,-42.81 841.75,-72 841.75,-72 841.75,-72 803.75,-108 803.75,-108 803.75,-108 738.69,-132.63 697.27,-148.31"/>
<polygon fill="#000000" stroke="#000000" points="695.93,-145.08 687.81,-151.89 698.4,-151.62 695.93,-145.08"/>
</g>
<!-- FatRat&#45;&gt;Rational -->
<g id="edge31" class="edge">
<title>FatRat&#45;&gt;Rational</title>
<path fill="none" stroke="#6666ff" d="M1061.39,-28.88C1097.42,-40.89 1158.48,-61.25 1199.45,-74.9"/>
<polygon fill="#6666ff" stroke="#6666ff" points="1198.55,-78.29 1209.15,-78.13 1200.77,-71.65 1198.55,-78.29"/>
</g>
<!-- Capture -->
<g id="node19" class="node">
<title>Capture</title>
<g id="a_node19"><a xlink:href="/type/Capture" xlink:title="Capture">
<ellipse fill="none" stroke="#000000" cx="502.75" cy="-162" rx="42.49" ry="18"/>
<text text-anchor="middle" x="502.75" y="-158.3" font-family="FreeSans" font-size="14.00" fill="#000000">Capture</text>
</a>
</g>
</g>
<!-- Capture&#45;&gt;Any -->
<g id="edge11" class="edge">
<title>Capture&#45;&gt;Any</title>
<path fill="none" stroke="#000000" d="M523.32,-177.85C538.05,-188.48 558,-202.87 573.82,-214.29"/>
<polygon fill="#000000" stroke="#000000" points="571.97,-217.27 582.13,-220.29 576.07,-211.6 571.97,-217.27"/>
</g>
<!-- Match -->
<g id="node20" class="node">
<title>Match</title>
<g id="a_node20"><a xlink:href="/type/Match" xlink:title="Match">
<ellipse fill="none" stroke="#000000" cx="413.75" cy="-90" rx="35.19" ry="18"/>
<text text-anchor="middle" x="413.75" y="-86.3" font-family="FreeSans" font-size="14.00" fill="#000000">Match</text>
</a>
</g>
</g>
<!-- Match&#45;&gt;Cool -->
<g id="edge13" class="edge">
<title>Match&#45;&gt;Cool</title>
<path fill="none" stroke="#000000" d="M440.86,-101.48C449.91,-104.97 457.75,-108 457.75,-108 457.75,-108 625.75,-144 625.75,-144 625.75,-144 628.18,-145.09 631.81,-146.71"/>
<polygon fill="#000000" stroke="#000000" points="630.64,-150.03 641.2,-150.91 633.5,-143.64 630.64,-150.03"/>
</g>
<!-- Match&#45;&gt;Capture -->
<g id="edge12" class="edge">
<title>Match&#45;&gt;Capture</title>
<path fill="none" stroke="#000000" d="M432.19,-105.5C444.7,-115.35 461.46,-128.53 475.5,-139.57"/>
<polygon fill="#000000" stroke="#000000" points="473.38,-142.36 483.4,-145.79 477.71,-136.85 473.38,-142.36"/>
</g>
<!-- Instant -->
<g id="node21" class="node">
<title>Instant</title>
<g id="a_node21"><a xlink:href="/type/Instant" xlink:title="Instant">
<ellipse fill="none" stroke="#000000" cx="887.75" cy="-90" rx="37.09" ry="18"/>
<text text-anchor="middle" x="887.75" y="-86.3" font-family="FreeSans" font-size="14.00" fill="#000000">Instant</text>
</a>
</g>
</g>
<!-- Instant&#45;&gt;Cool -->
<g id="edge14" class="edge">
<title>Instant&#45;&gt;Cool</title>
<path fill="none" stroke="#000000" d="M858.08,-100.89C846.86,-104.63 836.75,-108 836.75,-108 836.75,-108 748.98,-134.89 698.47,-150.36"/>
<polygon fill="#000000" stroke="#000000" points="697.44,-147.02 688.9,-153.29 699.49,-153.71 697.44,-147.02"/>
</g>
<!-- Instant&#45;&gt;Real -->
<g id="edge32" class="edge">
<title>Instant&#45;&gt;Real</title>
<path fill="none" stroke="#6666ff" d="M916.36,-101.57C925.71,-105.03 933.75,-108 933.75,-108 933.75,-108 1027.42,-135.28 1080.36,-150.7"/>
<polygon fill="#6666ff" stroke="#6666ff" points="1079.48,-154.08 1090.06,-153.52 1081.43,-147.36 1079.48,-154.08"/>
</g>
<!-- Duration -->
<g id="node22" class="node">
<title>Duration</title>
<g id="a_node22"><a xlink:href="/type/Duration" xlink:title="Duration">
<ellipse fill="none" stroke="#000000" cx="986.75" cy="-90" rx="44.39" ry="18"/>
<text text-anchor="middle" x="986.75" y="-86.3" font-family="FreeSans" font-size="14.00" fill="#000000">Duration</text>
</a>
</g>
</g>
<!-- Duration&#45;&gt;Cool -->
<g id="edge15" class="edge">
<title>Duration&#45;&gt;Cool</title>
<path fill="none" stroke="#000000" d="M953.18,-101.77C942.66,-105.14 933.75,-108 933.75,-108 933.75,-108 774.27,-139.3 700.44,-153.8"/>
<polygon fill="#000000" stroke="#000000" points="699.76,-150.36 690.62,-155.72 701.11,-157.23 699.76,-150.36"/>
</g>
<!-- Duration&#45;&gt;Real -->
<g id="edge33" class="edge">
<title>Duration&#45;&gt;Real</title>
<path fill="none" stroke="#6666ff" d="M1012.23,-104.83C1033.31,-116.26 1063.28,-132.53 1085.55,-144.62"/>
<polygon fill="#6666ff" stroke="#6666ff" points="1084.12,-147.82 1094.58,-149.51 1087.46,-141.67 1084.12,-147.82"/>
</g>
<!-- Num -->
<g id="node23" class="node">
<title>Num</title>
<g id="a_node23"><a xlink:href="/type/Num" xlink:title="Num">
<ellipse fill="none" stroke="#000000" cx="1078.75" cy="-90" rx="29.8" ry="18"/>
<text text-anchor="middle" x="1078.75" y="-86.3" font-family="FreeSans" font-size="14.00" fill="#000000">Num</text>
</a>
</g>
</g>
<!-- Num&#45;&gt;Cool -->
<g id="edge16" class="edge">
<title>Num&#45;&gt;Cool</title>
<path fill="none" stroke="#000000" d="M1055.16,-101.28C1046.95,-104.86 1039.75,-108 1039.75,-108 1039.75,-108 796.78,-142.25 701.47,-155.68"/>
<polygon fill="#000000" stroke="#000000" points="700.81,-152.24 691.39,-157.1 701.78,-159.17 700.81,-152.24"/>
</g>
<!-- Num&#45;&gt;Real -->
<g id="edge34" class="edge">
<title>Num&#45;&gt;Real</title>
<path fill="none" stroke="#6666ff" d="M1087.51,-107.59C1091.94,-115.96 1097.4,-126.29 1102.34,-135.63"/>
<polygon fill="#6666ff" stroke="#6666ff" points="1099.27,-137.32 1107.04,-144.53 1105.46,-134.05 1099.27,-137.32"/>
</g>
<!-- Rat -->
<g id="node24" class="node">
<title>Rat</title>
<g id="a_node24"><a xlink:href="/type/Rat" xlink:title="Rat">
<ellipse fill="none" stroke="#000000" cx="870.75" cy="-18" rx="27" ry="18"/>
<text text-anchor="middle" x="870.75" y="-14.3" font-family="FreeSans" font-size="14.00" fill="#000000">Rat</text>
</a>
</g>
</g>
<!-- Rat&#45;&gt;Cool -->
<g id="edge17" class="edge">
<title>Rat&#45;&gt;Cool</title>
<path fill="none" stroke="#000000" d="M844.95,-24.08C777.62,-37.35 601.75,-72 601.75,-72 601.75,-72 601.75,-108 601.75,-108 601.75,-108 622.31,-125.58 639.75,-140.49"/>
<polygon fill="#000000" stroke="#000000" points="637.58,-143.24 647.46,-147.07 642.13,-137.92 637.58,-143.24"/>
</g>
<!-- Rat&#45;&gt;Rational -->
<g id="edge35" class="edge">
<title>Rat&#45;&gt;Rational</title>
<path fill="none" stroke="#6666ff" d="M896.58,-23.29C972.52,-35.91 1189.75,-72 1189.75,-72 1189.75,-72 1193.51,-73.23 1199.02,-75.03"/>
<polygon fill="#6666ff" stroke="#6666ff" points="1198.22,-78.45 1208.81,-78.23 1200.4,-71.8 1198.22,-78.45"/>
</g>
<!-- PositionalBindFailover -->
<g id="node25" class="node">
<title>PositionalBindFailover</title>
<g id="a_node25"><a xlink:href="/type/PositionalBindFailover" xlink:title="PositionalBindFailover">
<ellipse fill="none" stroke="#6666ff" cx="392.75" cy="-234" rx="97.48" ry="18"/>
<text text-anchor="middle" x="392.75" y="-230.3" font-family="FreeSans" font-size="14.00" fill="#6666ff">PositionalBindFailover</text>
</a>
</g>
</g>
<!-- Sequence -->
<g id="node26" class="node">
<title>Sequence</title>
<g id="a_node26"><a xlink:href="/type/Sequence" xlink:title="Sequence">
<ellipse fill="none" stroke="#6666ff" cx="392.75" cy="-162" rx="50.09" ry="18"/>
<text text-anchor="middle" x="392.75" y="-158.3" font-family="FreeSans" font-size="14.00" fill="#6666ff">Sequence</text>
</a>
</g>
</g>
<!-- Sequence&#45;&gt;PositionalBindFailover -->
<g id="edge36" class="edge">
<title>Sequence&#45;&gt;PositionalBindFailover</title>
<path fill="none" stroke="#6666ff" d="M392.75,-180.3C392.75,-188.02 392.75,-197.29 392.75,-205.89"/>
<polygon fill="#6666ff" stroke="#6666ff" points="389.25,-205.9 392.75,-215.9 396.25,-205.9 389.25,-205.9"/>
</g>
<!-- Seq -->
<g id="node27" class="node">
<title>Seq</title>
<g id="a_node27"><a xlink:href="/type/Seq" xlink:title="Seq">
<ellipse fill="none" stroke="#000000" cx="333.75" cy="-90" rx="27" ry="18"/>
<text text-anchor="middle" x="333.75" y="-86.3" font-family="FreeSans" font-size="14.00" fill="#000000">Seq</text>
</a>
</g>
</g>
<!-- Seq&#45;&gt;Cool -->
<g id="edge18" class="edge">
<title>Seq&#45;&gt;Cool</title>
<path fill="none" stroke="#000000" d="M355.1,-101.09C362.86,-104.75 369.75,-108 369.75,-108 369.75,-108 625.75,-144 625.75,-144 625.75,-144 628.18,-145.09 631.81,-146.71"/>
<polygon fill="#000000" stroke="#000000" points="630.64,-150.03 641.2,-150.91 633.5,-143.64 630.64,-150.03"/>
</g>
<!-- Seq&#45;&gt;Iterable -->
<g id="edge37" class="edge">
<title>Seq&#45;&gt;Iterable</title>
<path fill="none" stroke="#6666ff" d="M312.39,-101.09C304.64,-104.75 297.75,-108 297.75,-108 297.75,-108 237.32,-130.55 195.31,-146.23"/>
<polygon fill="#6666ff" stroke="#6666ff" points="194.01,-142.98 185.86,-149.76 196.45,-149.54 194.01,-142.98"/>
</g>
<!-- Seq&#45;&gt;Sequence -->
<g id="edge38" class="edge">
<title>Seq&#45;&gt;Sequence</title>
<path fill="none" stroke="#6666ff" d="M346.55,-106.19C354.04,-115.07 363.66,-126.5 372.19,-136.61"/>
<polygon fill="#6666ff" stroke="#6666ff" points="369.61,-138.98 378.73,-144.37 374.96,-134.47 369.61,-138.98"/>
</g>
<!-- Stringy -->
<g id="node28" class="node">
<title>Stringy</title>
<g id="a_node28"><a xlink:href="/type/Stringy" xlink:title="Stringy">
<ellipse fill="none" stroke="#6666ff" cx="1437.75" cy="-162" rx="38.19" ry="18"/>
<text text-anchor="middle" x="1437.75" y="-158.3" font-family="FreeSans" font-size="14.00" fill="#6666ff">Stringy</text>
</a>
</g>
</g>
<!-- Str -->
<g id="node29" class="node">
<title>Str</title>
<g id="a_node29"><a xlink:href="/type/Str" xlink:title="Str">
<ellipse fill="none" stroke="#000000" cx="1437.75" cy="-90" rx="27" ry="18"/>
<text text-anchor="middle" x="1437.75" y="-86.3" font-family="FreeSans" font-size="14.00" fill="#000000">Str</text>
</a>
</g>
</g>
<!-- Str&#45;&gt;Cool -->
<g id="edge19" class="edge">
<title>Str&#45;&gt;Cool</title>
<path fill="none" stroke="#000000" d="M1416.39,-101.09C1408.64,-104.75 1401.75,-108 1401.75,-108 1401.75,-108 854.44,-147.31 702.47,-158.22"/>
<polygon fill="#000000" stroke="#000000" points="701.95,-154.75 692.22,-158.95 702.45,-161.73 701.95,-154.75"/>
</g>
<!-- Str&#45;&gt;Stringy -->
<g id="edge39" class="edge">
<title>Str&#45;&gt;Stringy</title>
<path fill="none" stroke="#6666ff" d="M1437.75,-108.3C1437.75,-116.02 1437.75,-125.29 1437.75,-133.89"/>
<polygon fill="#6666ff" stroke="#6666ff" points="1434.25,-133.9 1437.75,-143.9 1441.25,-133.9 1434.25,-133.9"/>
</g>
<!-- Complex -->
<g id="node30" class="node">
<title>Complex</title>
<g id="a_node30"><a xlink:href="/type/Complex" xlink:title="Complex">
<ellipse fill="none" stroke="#000000" cx="1347.75" cy="-90" rx="45.49" ry="18"/>
<text text-anchor="middle" x="1347.75" y="-86.3" font-family="FreeSans" font-size="14.00" fill="#000000">Complex</text>
</a>
</g>
</g>
<!-- Complex&#45;&gt;Cool -->
<g id="edge20" class="edge">
<title>Complex&#45;&gt;Cool</title>
<path fill="none" stroke="#000000" d="M1313.24,-101.86C1302.66,-105.19 1293.75,-108 1293.75,-108 1293.75,-108 838.65,-146.29 702.05,-157.78"/>
<polygon fill="#000000" stroke="#000000" points="701.71,-154.29 692.04,-158.62 702.3,-161.27 701.71,-154.29"/>
</g>
<!-- Complex&#45;&gt;Numeric -->
<g id="edge40" class="edge">
<title>Complex&#45;&gt;Numeric</title>
<path fill="none" stroke="#6666ff" d="M1331.01,-106.74C1304.25,-131.9 1251.72,-181.3 1220.9,-210.29"/>
<polygon fill="#6666ff" stroke="#6666ff" points="1218.44,-207.79 1213.56,-217.19 1223.24,-212.89 1218.44,-207.79"/>
</g>
</g>
</svg>
