<?xml version="1.0" encoding="UTF-8" standalone="no"?>
<!DOCTYPE svg PUBLIC "-//W3C//DTD SVG 1.1//EN"
 "http://www.w3.org/Graphics/SVG/1.1/DTD/svg11.dtd">
<!-- Generated by graphviz version 2.43.0 (0)
 -->
<!-- Title: raku&#45;type&#45;graph Pages: 1 -->
<svg width="1549pt" height="332pt"
 viewBox="0.00 0.00 1549.44 332.00" xmlns="http://www.w3.org/2000/svg" xmlns:xlink="http://www.w3.org/1999/xlink">
<g id="graph0" class="graph" transform="scale(1 1) rotate(0) translate(4 328)">
<title>raku&#45;type&#45;graph</title>
<polygon fill="#ffffff" stroke="transparent" points="-4,4 -4,-328 1545.44,-328 1545.44,4 -4,4"/>
<!-- Cool -->
<g id="node1" class="node">
<title>Cool</title>
<g id="a_node1"><a xlink:href="/type/Cool" xlink:title="Cool">
<ellipse fill="none" stroke="#000000" cx="672.1" cy="-162" rx="28.7" ry="18"/>
<text text-anchor="middle" x="672.1" y="-158.3" font-family="FreeSans" font-size="14.00" fill="#000000">Cool</text>
</a>
</g>
</g>
<!-- Any -->
<g id="node3" class="node">
<title>Any</title>
<g id="a_node3"><a xlink:href="/type/Any" xlink:title="Any">
<ellipse fill="none" stroke="#000000" cx="486.1" cy="-234" rx="27" ry="18"/>
<text text-anchor="middle" x="486.1" y="-230.3" font-family="FreeSans" font-size="14.00" fill="#000000">Any</text>
</a>
</g>
</g>
<!-- Cool&#45;&gt;Any -->
<g id="edge1" class="edge">
<title>Cool&#45;&gt;Any</title>
<path fill="none" stroke="#000000" d="M648.16,-172.01C615.25,-184.4 555.89,-206.73 518.87,-220.66"/>
<polygon fill="#000000" stroke="#000000" points="517.19,-217.56 509.07,-224.36 519.66,-224.11 517.19,-217.56"/>
</g>
<!-- Mu -->
<g id="node2" class="node">
<title>Mu</title>
<g id="a_node2"><a xlink:href="/type/Mu" xlink:title="Mu">
<ellipse fill="none" stroke="#000000" cx="486.1" cy="-306" rx="27" ry="18"/>
<text text-anchor="middle" x="486.1" y="-302.3" font-family="FreeSans" font-size="14.00" fill="#000000">Mu</text>
</a>
</g>
</g>
<!-- Any&#45;&gt;Mu -->
<g id="edge2" class="edge">
<title>Any&#45;&gt;Mu</title>
<path fill="none" stroke="#000000" d="M486.1,-252.3C486.1,-260.02 486.1,-269.29 486.1,-277.89"/>
<polygon fill="#000000" stroke="#000000" points="482.6,-277.9 486.1,-287.9 489.6,-277.9 482.6,-277.9"/>
</g>
<!-- Numeric -->
<g id="node4" class="node">
<title>Numeric</title>
<g id="a_node4"><a xlink:href="/type/Numeric" xlink:title="Numeric">
<ellipse fill="none" stroke="#6666ff" cx="652.1" cy="-234" rx="44.39" ry="18"/>
<text text-anchor="middle" x="652.1" y="-230.3" font-family="FreeSans" font-size="14.00" fill="#6666ff">Numeric</text>
</a>
</g>
</g>
<!-- Real -->
<g id="node5" class="node">
<title>Real</title>
<g id="a_node5"><a xlink:href="/type/Real" xlink:title="Real">
<ellipse fill="none" stroke="#6666ff" cx="342.1" cy="-162" rx="28.7" ry="18"/>
<text text-anchor="middle" x="342.1" y="-158.3" font-family="FreeSans" font-size="14.00" fill="#6666ff">Real</text>
</a>
</g>
</g>
<!-- Real&#45;&gt;Numeric -->
<g id="edge21" class="edge">
<title>Real&#45;&gt;Numeric</title>
<path fill="none" stroke="#6666ff" d="M368.53,-168.97C420.89,-180.79 538.46,-207.34 604.59,-222.27"/>
<polygon fill="#6666ff" stroke="#6666ff" points="603.83,-225.69 614.36,-224.48 605.37,-218.86 603.83,-225.69"/>
</g>
<!-- Rational -->
<g id="node6" class="node">
<title>Rational</title>
<g id="a_node6"><a xlink:href="/type/Rational" xlink:title="Rational">
<ellipse fill="none" stroke="#6666ff" cx="517.1" cy="-90" rx="42.79" ry="18"/>
<text text-anchor="middle" x="517.1" y="-86.3" font-family="FreeSans" font-size="14.00" fill="#6666ff">Rational</text>
</a>
</g>
</g>
<!-- Rational&#45;&gt;Real -->
<g id="edge22" class="edge">
<title>Rational&#45;&gt;Real</title>
<path fill="none" stroke="#6666ff" d="M487.01,-103.03C455.84,-115.5 407.26,-134.94 375.06,-147.82"/>
<polygon fill="#6666ff" stroke="#6666ff" points="373.61,-144.62 365.63,-151.59 376.21,-151.12 373.61,-144.62"/>
</g>
<!-- Rat -->
<g id="node7" class="node">
<title>Rat</title>
<g id="a_node7"><a xlink:href="/type/Rat" xlink:title="Rat">
<ellipse fill="none" stroke="#000000" cx="573.1" cy="-18" rx="27" ry="18"/>
<text text-anchor="middle" x="573.1" y="-14.3" font-family="FreeSans" font-size="14.00" fill="#000000">Rat</text>
</a>
</g>
</g>
<!-- Rat&#45;&gt;Cool -->
<g id="edge3" class="edge">
<title>Rat&#45;&gt;Cool</title>
<path fill="none" stroke="#000000" d="M579.49,-35.74C589.34,-61.52 607.1,-108 607.1,-108 607.1,-108 628.91,-125.78 647.26,-140.75"/>
<polygon fill="#000000" stroke="#000000" points="645.4,-143.74 655.36,-147.35 649.82,-138.32 645.4,-143.74"/>
</g>
<!-- Rat&#45;&gt;Rational -->
<g id="edge23" class="edge">
<title>Rat&#45;&gt;Rational</title>
<path fill="none" stroke="#6666ff" d="M560.95,-34.19C553.91,-42.98 544.88,-54.27 536.85,-64.31"/>
<polygon fill="#6666ff" stroke="#6666ff" points="533.91,-62.38 530.4,-72.37 539.38,-66.75 533.91,-62.38"/>
</g>
<!-- Iterable -->
<g id="node8" class="node">
<title>Iterable</title>
<g id="a_node8"><a xlink:href="/type/Iterable" xlink:title="Iterable">
<ellipse fill="none" stroke="#6666ff" cx="1160.1" cy="-162" rx="40.09" ry="18"/>
<text text-anchor="middle" x="1160.1" y="-158.3" font-family="FreeSans" font-size="14.00" fill="#6666ff">Iterable</text>
</a>
</g>
</g>
<!-- Associative -->
<g id="node9" class="node">
<title>Associative</title>
<g id="a_node9"><a xlink:href="/type/Associative" xlink:title="Associative">
<ellipse fill="none" stroke="#6666ff" cx="1274.1" cy="-162" rx="55.49" ry="18"/>
<text text-anchor="middle" x="1274.1" y="-158.3" font-family="FreeSans" font-size="14.00" fill="#6666ff">Associative</text>
</a>
</g>
</g>
<!-- Map -->
<g id="node10" class="node">
<title>Map</title>
<g id="a_node10"><a xlink:href="/type/Map" xlink:title="Map">
<ellipse fill="none" stroke="#000000" cx="1223.1" cy="-90" rx="28.7" ry="18"/>
<text text-anchor="middle" x="1223.1" y="-86.3" font-family="FreeSans" font-size="14.00" fill="#000000">Map</text>
</a>
</g>
</g>
<!-- Map&#45;&gt;Cool -->
<g id="edge4" class="edge">
<title>Map&#45;&gt;Cool</title>
<path fill="none" stroke="#000000" d="M1200.55,-101.09C1192.37,-104.75 1185.1,-108 1185.1,-108 1185.1,-108 828.92,-144.8 710.13,-157.07"/>
<polygon fill="#000000" stroke="#000000" points="709.63,-153.6 700.04,-158.11 710.35,-160.57 709.63,-153.6"/>
</g>
<!-- Map&#45;&gt;Iterable -->
<g id="edge24" class="edge">
<title>Map&#45;&gt;Iterable</title>
<path fill="none" stroke="#6666ff" d="M1209.43,-106.19C1201.24,-115.29 1190.65,-127.05 1181.38,-137.35"/>
<polygon fill="#6666ff" stroke="#6666ff" points="1178.71,-135.09 1174.62,-144.87 1183.91,-139.77 1178.71,-135.09"/>
</g>
<!-- Map&#45;&gt;Associative -->
<g id="edge25" class="edge">
<title>Map&#45;&gt;Associative</title>
<path fill="none" stroke="#6666ff" d="M1234.42,-106.54C1240.68,-115.13 1248.62,-126.03 1255.75,-135.81"/>
<polygon fill="#6666ff" stroke="#6666ff" points="1253.02,-138.02 1261.74,-144.04 1258.68,-133.89 1253.02,-138.02"/>
</g>
<!-- Duration -->
<g id="node11" class="node">
<title>Duration</title>
<g id="a_node11"><a xlink:href="/type/Duration" xlink:title="Duration">
<ellipse fill="none" stroke="#000000" cx="296.1" cy="-90" rx="44.39" ry="18"/>
<text text-anchor="middle" x="296.1" y="-86.3" font-family="FreeSans" font-size="14.00" fill="#000000">Duration</text>
</a>
</g>
</g>
<!-- Duration&#45;&gt;Cool -->
<g id="edge5" class="edge">
<title>Duration&#45;&gt;Cool</title>
<path fill="none" stroke="#000000" d="M329.66,-101.77C340.18,-105.14 349.1,-108 349.1,-108 349.1,-108 549.87,-140.94 634.83,-154.89"/>
<polygon fill="#000000" stroke="#000000" points="634.4,-158.36 644.84,-156.53 635.54,-151.45 634.4,-158.36"/>
</g>
<!-- Duration&#45;&gt;Real -->
<g id="edge26" class="edge">
<title>Duration&#45;&gt;Real</title>
<path fill="none" stroke="#6666ff" d="M307,-107.59C312.69,-116.26 319.77,-127.03 326.08,-136.62"/>
<polygon fill="#6666ff" stroke="#6666ff" points="323.17,-138.58 331.59,-145.01 329.02,-134.73 323.17,-138.58"/>
</g>
<!-- IO -->
<g id="node12" class="node">
<title>IO</title>
<g id="a_node12"><a xlink:href="/type/IO" xlink:title="IO">
<ellipse fill="none" stroke="#6666ff" cx="959.1" cy="-162" rx="27" ry="18"/>
<text text-anchor="middle" x="959.1" y="-158.3" font-family="FreeSans" font-size="14.00" fill="#6666ff">IO</text>
</a>
</g>
</g>
<!-- IO::Path -->
<g id="node13" class="node">
<title>IO::Path</title>
<g id="a_node13"><a xlink:href="/type/IO::Path" xlink:title="IO::Path">
<ellipse fill="none" stroke="#000000" cx="970.1" cy="-90" rx="43.59" ry="18"/>
<text text-anchor="middle" x="970.1" y="-86.3" font-family="FreeSans" font-size="14.00" fill="#000000">IO::Path</text>
</a>
</g>
</g>
<!-- IO::Path&#45;&gt;Cool -->
<g id="edge6" class="edge">
<title>IO::Path&#45;&gt;Cool</title>
<path fill="none" stroke="#000000" d="M936.83,-101.67C926.18,-105.09 917.1,-108 917.1,-108 917.1,-108 777.03,-138.3 708.71,-153.08"/>
<polygon fill="#000000" stroke="#000000" points="707.82,-149.69 698.78,-155.23 709.3,-156.53 707.82,-149.69"/>
</g>
<!-- IO::Path&#45;&gt;IO -->
<g id="edge27" class="edge">
<title>IO::Path&#45;&gt;IO</title>
<path fill="none" stroke="#6666ff" d="M967.38,-108.3C966.17,-116.02 964.71,-125.29 963.36,-133.89"/>
<polygon fill="#6666ff" stroke="#6666ff" points="959.88,-133.47 961.78,-143.9 966.79,-134.56 959.88,-133.47"/>
</g>
<!-- Positional -->
<g id="node14" class="node">
<title>Positional</title>
<g id="a_node14"><a xlink:href="/type/Positional" xlink:title="Positional">
<ellipse fill="none" stroke="#6666ff" cx="1053.1" cy="-162" rx="48.99" ry="18"/>
<text text-anchor="middle" x="1053.1" y="-158.3" font-family="FreeSans" font-size="14.00" fill="#6666ff">Positional</text>
</a>
</g>
</g>
<!-- List -->
<g id="node15" class="node">
<title>List</title>
<g id="a_node15"><a xlink:href="/type/List" xlink:title="List">
<ellipse fill="none" stroke="#000000" cx="1149.1" cy="-90" rx="27" ry="18"/>
<text text-anchor="middle" x="1149.1" y="-86.3" font-family="FreeSans" font-size="14.00" fill="#000000">List</text>
</a>
</g>
</g>
<!-- List&#45;&gt;Cool -->
<g id="edge7" class="edge">
<title>List&#45;&gt;Cool</title>
<path fill="none" stroke="#000000" d="M1127.74,-101.09C1119.99,-104.75 1113.1,-108 1113.1,-108 1113.1,-108 817.01,-143.58 710.06,-156.44"/>
<polygon fill="#000000" stroke="#000000" points="709.53,-152.98 700.02,-157.64 710.36,-159.93 709.53,-152.98"/>
</g>
<!-- List&#45;&gt;Iterable -->
<g id="edge29" class="edge">
<title>List&#45;&gt;Iterable</title>
<path fill="none" stroke="#6666ff" d="M1151.76,-107.95C1152.97,-115.65 1154.44,-124.97 1155.8,-133.64"/>
<polygon fill="#6666ff" stroke="#6666ff" points="1152.37,-134.39 1157.38,-143.72 1159.29,-133.3 1152.37,-134.39"/>
</g>
<!-- List&#45;&gt;Positional -->
<g id="edge28" class="edge">
<title>List&#45;&gt;Positional</title>
<path fill="none" stroke="#6666ff" d="M1131.49,-103.84C1117.88,-113.76 1098.73,-127.73 1082.77,-139.37"/>
<polygon fill="#6666ff" stroke="#6666ff" points="1080.3,-136.83 1074.28,-145.55 1084.42,-142.49 1080.3,-136.83"/>
</g>
<!-- Num -->
<g id="node16" class="node">
<title>Num</title>
<g id="a_node16"><a xlink:href="/type/Num" xlink:title="Num">
<ellipse fill="none" stroke="#000000" cx="388.1" cy="-90" rx="29.8" ry="18"/>
<text text-anchor="middle" x="388.1" y="-86.3" font-family="FreeSans" font-size="14.00" fill="#000000">Num</text>
</a>
</g>
</g>
<!-- Num&#45;&gt;Cool -->
<g id="edge8" class="edge">
<title>Num&#45;&gt;Cool</title>
<path fill="none" stroke="#000000" d="M412.67,-100.49C422.75,-104.39 432.1,-108 432.1,-108 432.1,-108 568.07,-138.03 635.32,-152.88"/>
<polygon fill="#000000" stroke="#000000" points="634.98,-156.39 645.5,-155.13 636.49,-149.55 634.98,-156.39"/>
</g>
<!-- Num&#45;&gt;Real -->
<g id="edge30" class="edge">
<title>Num&#45;&gt;Real</title>
<path fill="none" stroke="#6666ff" d="M377.66,-106.88C371.9,-115.66 364.61,-126.74 358.14,-136.58"/>
<polygon fill="#6666ff" stroke="#6666ff" points="355.06,-134.9 352.49,-145.18 360.91,-138.74 355.06,-134.9"/>
</g>
<!-- PositionalBindFailover -->
<g id="node17" class="node">
<title>PositionalBindFailover</title>
<g id="a_node17"><a xlink:href="/type/PositionalBindFailover" xlink:title="PositionalBindFailover">
<ellipse fill="none" stroke="#6666ff" cx="1397.1" cy="-234" rx="97.48" ry="18"/>
<text text-anchor="middle" x="1397.1" y="-230.3" font-family="FreeSans" font-size="14.00" fill="#6666ff">PositionalBindFailover</text>
</a>
</g>
</g>
<!-- Sequence -->
<g id="node18" class="node">
<title>Sequence</title>
<g id="a_node18"><a xlink:href="/type/Sequence" xlink:title="Sequence">
<ellipse fill="none" stroke="#6666ff" cx="1397.1" cy="-162" rx="50.09" ry="18"/>
<text text-anchor="middle" x="1397.1" y="-158.3" font-family="FreeSans" font-size="14.00" fill="#6666ff">Sequence</text>
</a>
</g>
</g>
<!-- Sequence&#45;&gt;PositionalBindFailover -->
<g id="edge31" class="edge">
<title>Sequence&#45;&gt;PositionalBindFailover</title>
<path fill="none" stroke="#6666ff" d="M1397.1,-180.3C1397.1,-188.02 1397.1,-197.29 1397.1,-205.89"/>
<polygon fill="#6666ff" stroke="#6666ff" points="1393.6,-205.9 1397.1,-215.9 1400.6,-205.9 1393.6,-205.9"/>
</g>
<!-- Seq -->
<g id="node19" class="node">
<title>Seq</title>
<g id="a_node19"><a xlink:href="/type/Seq" xlink:title="Seq">
<ellipse fill="none" stroke="#000000" cx="1297.1" cy="-90" rx="27" ry="18"/>
<text text-anchor="middle" x="1297.1" y="-86.3" font-family="FreeSans" font-size="14.00" fill="#000000">Seq</text>
</a>
</g>
</g>
<!-- Seq&#45;&gt;Cool -->
<g id="edge9" class="edge">
<title>Seq&#45;&gt;Cool</title>
<path fill="none" stroke="#000000" d="M1275.74,-101.09C1267.99,-104.75 1261.1,-108 1261.1,-108 1261.1,-108 841.21,-145.78 710.48,-157.55"/>
<polygon fill="#000000" stroke="#000000" points="710.15,-154.06 700.51,-158.44 710.78,-161.03 710.15,-154.06"/>
</g>
<!-- Seq&#45;&gt;Iterable -->
<g id="edge32" class="edge">
<title>Seq&#45;&gt;Iterable</title>
<path fill="none" stroke="#6666ff" d="M1276.29,-101.63C1254.69,-112.67 1220.53,-130.12 1194.83,-143.25"/>
<polygon fill="#6666ff" stroke="#6666ff" points="1193.09,-140.21 1185.78,-147.88 1196.28,-146.44 1193.09,-140.21"/>
</g>
<!-- Seq&#45;&gt;Sequence -->
<g id="edge33" class="edge">
<title>Seq&#45;&gt;Sequence</title>
<path fill="none" stroke="#6666ff" d="M1314.97,-103.51C1329.33,-113.56 1349.8,-127.89 1366.72,-139.73"/>
<polygon fill="#6666ff" stroke="#6666ff" points="1364.99,-142.8 1375.19,-145.66 1369,-137.06 1364.99,-142.8"/>
</g>
<!-- Nil -->
<g id="node20" class="node">
<title>Nil</title>
<g id="a_node20"><a xlink:href="/type/Nil" xlink:title="Nil">
<ellipse fill="none" stroke="#000000" cx="773.1" cy="-90" rx="27" ry="18"/>
<text text-anchor="middle" x="773.1" y="-86.3" font-family="FreeSans" font-size="14.00" fill="#000000">Nil</text>
</a>
</g>
</g>
<!-- Nil&#45;&gt;Cool -->
<g id="edge10" class="edge">
<title>Nil&#45;&gt;Cool</title>
<path fill="none" stroke="#000000" d="M755.04,-103.51C739.44,-114.33 716.67,-130.11 698.93,-142.4"/>
<polygon fill="#000000" stroke="#000000" points="696.91,-139.55 690.68,-148.12 700.89,-145.3 696.91,-139.55"/>
</g>
<!-- Capture -->
<g id="node21" class="node">
<title>Capture</title>
<g id="a_node21"><a xlink:href="/type/Capture" xlink:title="Capture">
<ellipse fill="none" stroke="#000000" cx="121.1" cy="-162" rx="42.49" ry="18"/>
<text text-anchor="middle" x="121.1" y="-158.3" font-family="FreeSans" font-size="14.00" fill="#000000">Capture</text>
</a>
</g>
</g>
<!-- Capture&#45;&gt;Any -->
<g id="edge11" class="edge">
<title>Capture&#45;&gt;Any</title>
<path fill="none" stroke="#000000" d="M158.78,-170.23C229.47,-183.78 381.05,-212.85 450.28,-226.13"/>
<polygon fill="#000000" stroke="#000000" points="449.79,-229.6 460.27,-228.05 451.11,-222.73 449.79,-229.6"/>
</g>
<!-- Match -->
<g id="node22" class="node">
<title>Match</title>
<g id="a_node22"><a xlink:href="/type/Match" xlink:title="Match">
<ellipse fill="none" stroke="#000000" cx="35.1" cy="-90" rx="35.19" ry="18"/>
<text text-anchor="middle" x="35.1" y="-86.3" font-family="FreeSans" font-size="14.00" fill="#000000">Match</text>
</a>
</g>
</g>
<!-- Match&#45;&gt;Cool -->
<g id="edge13" class="edge">
<title>Match&#45;&gt;Cool</title>
<path fill="none" stroke="#000000" d="M62.21,-101.48C71.27,-104.97 79.1,-108 79.1,-108 79.1,-108 502.79,-145.87 633.9,-157.59"/>
<polygon fill="#000000" stroke="#000000" points="633.62,-161.08 643.89,-158.48 634.25,-154.1 633.62,-161.08"/>
</g>
<!-- Match&#45;&gt;Capture -->
<g id="edge12" class="edge">
<title>Match&#45;&gt;Capture</title>
<path fill="none" stroke="#000000" d="M53.34,-105.85C65.26,-115.55 81.03,-128.39 94.36,-139.24"/>
<polygon fill="#000000" stroke="#000000" points="92.33,-142.09 102.29,-145.69 96.74,-136.67 92.33,-142.09"/>
</g>
<!-- FatRat -->
<g id="node23" class="node">
<title>FatRat</title>
<g id="a_node23"><a xlink:href="/type/FatRat" xlink:title="FatRat">
<ellipse fill="none" stroke="#000000" cx="476.1" cy="-18" rx="37.09" ry="18"/>
<text text-anchor="middle" x="476.1" y="-14.3" font-family="FreeSans" font-size="14.00" fill="#000000">FatRat</text>
</a>
</g>
</g>
<!-- FatRat&#45;&gt;Cool -->
<g id="edge14" class="edge">
<title>FatRat&#45;&gt;Cool</title>
<path fill="none" stroke="#000000" d="M472.56,-36.06C469.34,-51.55 465.1,-72 465.1,-72 465.1,-72 465.1,-108 465.1,-108 465.1,-108 576.87,-136.62 636.15,-151.8"/>
<polygon fill="#000000" stroke="#000000" points="635.32,-155.2 645.88,-154.29 637.06,-148.42 635.32,-155.2"/>
</g>
<!-- FatRat&#45;&gt;Rational -->
<g id="edge34" class="edge">
<title>FatRat&#45;&gt;Rational</title>
<path fill="none" stroke="#6666ff" d="M485.81,-35.59C490.64,-43.84 496.59,-53.99 502,-63.22"/>
<polygon fill="#6666ff" stroke="#6666ff" points="499.09,-65.18 507.17,-72.04 505.13,-61.65 499.09,-65.18"/>
</g>
<!-- Int -->
<g id="node24" class="node">
<title>Int</title>
<g id="a_node24"><a xlink:href="/type/Int" xlink:title="Int">
<ellipse fill="none" stroke="#000000" cx="115.1" cy="-90" rx="27" ry="18"/>
<text text-anchor="middle" x="115.1" y="-86.3" font-family="FreeSans" font-size="14.00" fill="#000000">Int</text>
</a>
</g>
</g>
<!-- Int&#45;&gt;Cool -->
<g id="edge15" class="edge">
<title>Int&#45;&gt;Cool</title>
<path fill="none" stroke="#000000" d="M136.45,-101.09C144.21,-104.75 151.1,-108 151.1,-108 151.1,-108 513.65,-144.88 633.88,-157.11"/>
<polygon fill="#000000" stroke="#000000" points="633.78,-160.62 644.09,-158.15 634.49,-153.66 633.78,-160.62"/>
</g>
<!-- Int&#45;&gt;Real -->
<g id="edge35" class="edge">
<title>Int&#45;&gt;Real</title>
<path fill="none" stroke="#6666ff" d="M136.45,-101.09C144.21,-104.75 151.1,-108 151.1,-108 151.1,-108 251.34,-135.82 306.58,-151.14"/>
<polygon fill="#6666ff" stroke="#6666ff" points="305.77,-154.55 316.34,-153.85 307.64,-147.81 305.77,-154.55"/>
</g>
<!-- Complex -->
<g id="node25" class="node">
<title>Complex</title>
<g id="a_node25"><a xlink:href="/type/Complex" xlink:title="Complex">
<ellipse fill="none" stroke="#000000" cx="863.1" cy="-90" rx="45.49" ry="18"/>
<text text-anchor="middle" x="863.1" y="-86.3" font-family="FreeSans" font-size="14.00" fill="#000000">Complex</text>
</a>
</g>
</g>
<!-- Complex&#45;&gt;Cool -->
<g id="edge16" class="edge">
<title>Complex&#45;&gt;Cool</title>
<path fill="none" stroke="#000000" d="M830.7,-102.87C796.02,-115.58 741.24,-135.66 706,-148.58"/>
<polygon fill="#000000" stroke="#000000" points="704.35,-145.45 696.17,-152.18 706.76,-152.02 704.35,-145.45"/>
</g>
<!-- Complex&#45;&gt;Numeric -->
<g id="edge36" class="edge">
<title>Complex&#45;&gt;Numeric</title>
<path fill="none" stroke="#6666ff" d="M840.91,-105.93C802.9,-131.51 725.27,-183.75 682.34,-212.65"/>
<polygon fill="#6666ff" stroke="#6666ff" points="680.32,-209.78 673.98,-218.27 684.23,-215.59 680.32,-209.78"/>
</g>
<!-- Range -->
<g id="node26" class="node">
<title>Range</title>
<g id="a_node26"><a xlink:href="/type/Range" xlink:title="Range">
<ellipse fill="none" stroke="#000000" cx="1068.1" cy="-90" rx="36.29" ry="18"/>
<text text-anchor="middle" x="1068.1" y="-86.3" font-family="FreeSans" font-size="14.00" fill="#000000">Range</text>
</a>
</g>
</g>
<!-- Range&#45;&gt;Cool -->
<g id="edge17" class="edge">
<title>Range&#45;&gt;Cool</title>
<path fill="none" stroke="#000000" d="M1040.11,-101.57C1030.96,-105.03 1023.1,-108 1023.1,-108 1023.1,-108 800.37,-141.63 709.76,-155.31"/>
<polygon fill="#000000" stroke="#000000" points="709,-151.89 699.64,-156.84 710.05,-158.81 709,-151.89"/>
</g>
<!-- Range&#45;&gt;Iterable -->
<g id="edge38" class="edge">
<title>Range&#45;&gt;Iterable</title>
<path fill="none" stroke="#6666ff" d="M1087.16,-105.5C1100.18,-115.41 1117.65,-128.71 1132.23,-139.8"/>
<polygon fill="#6666ff" stroke="#6666ff" points="1130.35,-142.76 1140.42,-146.03 1134.59,-137.19 1130.35,-142.76"/>
</g>
<!-- Range&#45;&gt;Positional -->
<g id="edge37" class="edge">
<title>Range&#45;&gt;Positional</title>
<path fill="none" stroke="#6666ff" d="M1064.47,-107.95C1062.8,-115.74 1060.77,-125.18 1058.9,-133.92"/>
<polygon fill="#6666ff" stroke="#6666ff" points="1055.47,-133.21 1056.8,-143.72 1062.32,-134.68 1055.47,-133.21"/>
</g>
<!-- Instant -->
<g id="node27" class="node">
<title>Instant</title>
<g id="a_node27"><a xlink:href="/type/Instant" xlink:title="Instant">
<ellipse fill="none" stroke="#000000" cx="197.1" cy="-90" rx="37.09" ry="18"/>
<text text-anchor="middle" x="197.1" y="-86.3" font-family="FreeSans" font-size="14.00" fill="#000000">Instant</text>
</a>
</g>
</g>
<!-- Instant&#45;&gt;Cool -->
<g id="edge18" class="edge">
<title>Instant&#45;&gt;Cool</title>
<path fill="none" stroke="#000000" d="M225.71,-101.57C235.06,-105.03 243.1,-108 243.1,-108 243.1,-108 529.22,-143.35 634.13,-156.31"/>
<polygon fill="#000000" stroke="#000000" points="633.93,-159.81 644.28,-157.56 634.78,-152.86 633.93,-159.81"/>
</g>
<!-- Instant&#45;&gt;Real -->
<g id="edge39" class="edge">
<title>Instant&#45;&gt;Real</title>
<path fill="none" stroke="#6666ff" d="M222.35,-103.19C246.92,-115.05 284.32,-133.11 310.77,-145.88"/>
<polygon fill="#6666ff" stroke="#6666ff" points="309.45,-149.13 319.98,-150.32 312.49,-142.82 309.45,-149.13"/>
</g>
<!-- Stringy -->
<g id="node28" class="node">
<title>Stringy</title>
<g id="a_node28"><a xlink:href="/type/Stringy" xlink:title="Stringy">
<ellipse fill="none" stroke="#6666ff" cx="1503.1" cy="-162" rx="38.19" ry="18"/>
<text text-anchor="middle" x="1503.1" y="-158.3" font-family="FreeSans" font-size="14.00" fill="#6666ff">Stringy</text>
</a>
</g>
</g>
<!-- Str -->
<g id="node29" class="node">
<title>Str</title>
<g id="a_node29"><a xlink:href="/type/Str" xlink:title="Str">
<ellipse fill="none" stroke="#000000" cx="1436.1" cy="-90" rx="27" ry="18"/>
<text text-anchor="middle" x="1436.1" y="-86.3" font-family="FreeSans" font-size="14.00" fill="#000000">Str</text>
</a>
</g>
</g>
<!-- Str&#45;&gt;Cool -->
<g id="edge19" class="edge">
<title>Str&#45;&gt;Cool</title>
<path fill="none" stroke="#000000" d="M1410.11,-95.29C1379.59,-100.33 1333.1,-108 1333.1,-108 1333.1,-108 852.39,-146.54 710.86,-157.89"/>
<polygon fill="#000000" stroke="#000000" points="710.19,-154.43 700.5,-158.72 710.75,-161.41 710.19,-154.43"/>
</g>
<!-- Str&#45;&gt;Stringy -->
<g id="edge40" class="edge">
<title>Str&#45;&gt;Stringy</title>
<path fill="none" stroke="#6666ff" d="M1449.98,-105.5C1458.86,-114.78 1470.59,-127.03 1480.76,-137.66"/>
<polygon fill="#6666ff" stroke="#6666ff" points="1478.39,-140.25 1487.83,-145.05 1483.44,-135.41 1478.39,-140.25"/>
</g>
<!-- StrDistance -->
<g id="node30" class="node">
<title>StrDistance</title>
<g id="a_node30"><a xlink:href="/type/StrDistance" xlink:title="StrDistance">
<ellipse fill="none" stroke="#000000" cx="672.1" cy="-90" rx="55.79" ry="18"/>
<text text-anchor="middle" x="672.1" y="-86.3" font-family="FreeSans" font-size="14.00" fill="#000000">StrDistance</text>
</a>
</g>
</g>
<!-- StrDistance&#45;&gt;Cool -->
<g id="edge20" class="edge">
<title>StrDistance&#45;&gt;Cool</title>
<path fill="none" stroke="#000000" d="M672.1,-108.3C672.1,-116.02 672.1,-125.29 672.1,-133.89"/>
<polygon fill="#000000" stroke="#000000" points="668.6,-133.9 672.1,-143.9 675.6,-133.9 668.6,-133.9"/>
</g>
</g>
</svg>
