<?xml version="1.0" encoding="UTF-8" standalone="no"?>
<!DOCTYPE svg PUBLIC "-//W3C//DTD SVG 1.1//EN"
 "http://www.w3.org/Graphics/SVG/1.1/DTD/svg11.dtd">
<!-- Generated by graphviz version 2.43.0 (0)
 -->
<!-- Title: raku&#45;type&#45;graph Pages: 1 -->
<svg width="750pt" height="404pt"
 viewBox="0.00 0.00 750.05 404.00" xmlns="http://www.w3.org/2000/svg" xmlns:xlink="http://www.w3.org/1999/xlink">
<g id="graph0" class="graph" transform="scale(1 1) rotate(0) translate(4 400)">
<title>raku&#45;type&#45;graph</title>
<polygon fill="#ffffff" stroke="transparent" points="-4,4 -4,-400 746.05,-400 746.05,4 -4,4"/>
<!-- Int -->
<g id="node1" class="node">
<title>Int</title>
<g id="a_node1"><a xlink:href="/type/Int" xlink:title="Int">
<ellipse fill="none" stroke="#000000" cx="398" cy="-90" rx="27" ry="18"/>
<text text-anchor="middle" x="398" y="-86.3" font-family="FreeSans" font-size="14.00" fill="#000000">Int</text>
</a>
</g>
</g>
<!-- Cool -->
<g id="node4" class="node">
<title>Cool</title>
<g id="a_node4"><a xlink:href="/type/Cool" xlink:title="Cool">
<ellipse fill="none" stroke="#000000" cx="556" cy="-234" rx="28.7" ry="18"/>
<text text-anchor="middle" x="556" y="-230.3" font-family="FreeSans" font-size="14.00" fill="#000000">Cool</text>
</a>
</g>
</g>
<!-- Int&#45;&gt;Cool -->
<g id="edge1" class="edge">
<title>Int&#45;&gt;Cool</title>
<path fill="none" stroke="#000000" d="M413.44,-104.87C441.21,-129.84 499.76,-182.45 532.53,-211.9"/>
<polygon fill="#000000" stroke="#000000" points="530.49,-214.78 540.27,-218.86 535.17,-209.57 530.49,-214.78"/>
</g>
<!-- Real -->
<g id="node6" class="node">
<title>Real</title>
<g id="a_node6"><a xlink:href="/type/Real" xlink:title="Real">
<ellipse fill="none" stroke="#6666ff" cx="398" cy="-162" rx="28.7" ry="18"/>
<text text-anchor="middle" x="398" y="-158.3" font-family="FreeSans" font-size="14.00" fill="#6666ff">Real</text>
</a>
</g>
</g>
<!-- Int&#45;&gt;Real -->
<g id="edge15" class="edge">
<title>Int&#45;&gt;Real</title>
<path fill="none" stroke="#6666ff" d="M398,-108.3C398,-116.02 398,-125.29 398,-133.89"/>
<polygon fill="#6666ff" stroke="#6666ff" points="394.5,-133.9 398,-143.9 401.5,-133.9 394.5,-133.9"/>
</g>
<!-- Mu -->
<g id="node2" class="node">
<title>Mu</title>
<g id="a_node2"><a xlink:href="/type/Mu" xlink:title="Mu">
<ellipse fill="none" stroke="#000000" cx="556" cy="-378" rx="27" ry="18"/>
<text text-anchor="middle" x="556" y="-374.3" font-family="FreeSans" font-size="14.00" fill="#000000">Mu</text>
</a>
</g>
</g>
<!-- Any -->
<g id="node3" class="node">
<title>Any</title>
<g id="a_node3"><a xlink:href="/type/Any" xlink:title="Any">
<ellipse fill="none" stroke="#000000" cx="556" cy="-306" rx="27" ry="18"/>
<text text-anchor="middle" x="556" y="-302.3" font-family="FreeSans" font-size="14.00" fill="#000000">Any</text>
</a>
</g>
</g>
<!-- Any&#45;&gt;Mu -->
<g id="edge2" class="edge">
<title>Any&#45;&gt;Mu</title>
<path fill="none" stroke="#000000" d="M556,-324.3C556,-332.02 556,-341.29 556,-349.89"/>
<polygon fill="#000000" stroke="#000000" points="552.5,-349.9 556,-359.9 559.5,-349.9 552.5,-349.9"/>
</g>
<!-- Cool&#45;&gt;Any -->
<g id="edge3" class="edge">
<title>Cool&#45;&gt;Any</title>
<path fill="none" stroke="#000000" d="M556,-252.3C556,-260.02 556,-269.29 556,-277.89"/>
<polygon fill="#000000" stroke="#000000" points="552.5,-277.9 556,-287.9 559.5,-277.9 552.5,-277.9"/>
</g>
<!-- Numeric -->
<g id="node5" class="node">
<title>Numeric</title>
<g id="a_node5"><a xlink:href="/type/Numeric" xlink:title="Numeric">
<ellipse fill="none" stroke="#6666ff" cx="398" cy="-234" rx="44.39" ry="18"/>
<text text-anchor="middle" x="398" y="-230.3" font-family="FreeSans" font-size="14.00" fill="#6666ff">Numeric</text>
</a>
</g>
</g>
<!-- Real&#45;&gt;Numeric -->
<g id="edge16" class="edge">
<title>Real&#45;&gt;Numeric</title>
<path fill="none" stroke="#6666ff" d="M398,-180.3C398,-188.02 398,-197.29 398,-205.89"/>
<polygon fill="#6666ff" stroke="#6666ff" points="394.5,-205.9 398,-215.9 401.5,-205.9 394.5,-205.9"/>
</g>
<!-- int -->
<g id="node7" class="node">
<title>int</title>
<g id="a_node7"><a xlink:href="/type/int" xlink:title="int">
<ellipse fill="none" stroke="#000000" cx="27" cy="-18" rx="27" ry="18"/>
<text text-anchor="middle" x="27" y="-14.3" font-family="FreeSans" font-size="14.00" fill="#000000">int</text>
</a>
</g>
</g>
<!-- int&#45;&gt;Int -->
<g id="edge4" class="edge">
<title>int&#45;&gt;Int</title>
<path fill="none" stroke="#000000" d="M48.36,-29.09C56.11,-32.75 63,-36 63,-36 63,-36 275.64,-69.64 362.1,-83.32"/>
<polygon fill="#000000" stroke="#000000" points="361.57,-86.78 371.99,-84.89 362.66,-79.87 361.57,-86.78"/>
</g>
<!-- Stringy -->
<g id="node8" class="node">
<title>Stringy</title>
<g id="a_node8"><a xlink:href="/type/Stringy" xlink:title="Stringy">
<ellipse fill="none" stroke="#6666ff" cx="675" cy="-234" rx="38.19" ry="18"/>
<text text-anchor="middle" x="675" y="-230.3" font-family="FreeSans" font-size="14.00" fill="#6666ff">Stringy</text>
</a>
</g>
</g>
<!-- Str -->
<g id="node9" class="node">
<title>Str</title>
<g id="a_node9"><a xlink:href="/type/Str" xlink:title="Str">
<ellipse fill="none" stroke="#000000" cx="675" cy="-162" rx="27" ry="18"/>
<text text-anchor="middle" x="675" y="-158.3" font-family="FreeSans" font-size="14.00" fill="#000000">Str</text>
</a>
</g>
</g>
<!-- Str&#45;&gt;Cool -->
<g id="edge5" class="edge">
<title>Str&#45;&gt;Cool</title>
<path fill="none" stroke="#000000" d="M655.35,-174.56C636.29,-185.77 607.13,-202.92 585.32,-215.75"/>
<polygon fill="#000000" stroke="#000000" points="583.32,-212.87 576.48,-220.95 586.87,-218.9 583.32,-212.87"/>
</g>
<!-- Str&#45;&gt;Stringy -->
<g id="edge17" class="edge">
<title>Str&#45;&gt;Stringy</title>
<path fill="none" stroke="#6666ff" d="M675,-180.3C675,-188.02 675,-197.29 675,-205.89"/>
<polygon fill="#6666ff" stroke="#6666ff" points="671.5,-205.9 675,-215.9 678.5,-205.9 671.5,-205.9"/>
</g>
<!-- Allomorph -->
<g id="node10" class="node">
<title>Allomorph</title>
<g id="a_node10"><a xlink:href="/type/Allomorph" xlink:title="Allomorph">
<ellipse fill="none" stroke="#000000" cx="692" cy="-90" rx="50.09" ry="18"/>
<text text-anchor="middle" x="692" y="-86.3" font-family="FreeSans" font-size="14.00" fill="#000000">Allomorph</text>
</a>
</g>
</g>
<!-- Allomorph&#45;&gt;Str -->
<g id="edge6" class="edge">
<title>Allomorph&#45;&gt;Str</title>
<path fill="none" stroke="#000000" d="M687.88,-107.95C685.99,-115.74 683.7,-125.18 681.58,-133.92"/>
<polygon fill="#000000" stroke="#000000" points="678.15,-133.18 679.2,-143.72 684.96,-134.83 678.15,-133.18"/>
</g>
<!-- IntStr -->
<g id="node11" class="node">
<title>IntStr</title>
<g id="a_node11"><a xlink:href="/type/IntStr" xlink:title="IntStr">
<ellipse fill="none" stroke="#000000" cx="709" cy="-18" rx="31.7" ry="18"/>
<text text-anchor="middle" x="709" y="-14.3" font-family="FreeSans" font-size="14.00" fill="#000000">IntStr</text>
</a>
</g>
</g>
<!-- IntStr&#45;&gt;Int -->
<g id="edge8" class="edge">
<title>IntStr&#45;&gt;Int</title>
<path fill="none" stroke="#000000" d="M684.35,-29.48C676.12,-32.97 669,-36 669,-36 669,-36 507.26,-67.63 433.68,-82.02"/>
<polygon fill="#000000" stroke="#000000" points="432.64,-78.66 423.5,-84.01 433.98,-85.53 432.64,-78.66"/>
</g>
<!-- IntStr&#45;&gt;Allomorph -->
<g id="edge7" class="edge">
<title>IntStr&#45;&gt;Allomorph</title>
<path fill="none" stroke="#000000" d="M704.88,-35.95C702.99,-43.74 700.7,-53.18 698.58,-61.92"/>
<polygon fill="#000000" stroke="#000000" points="695.15,-61.18 696.2,-71.72 701.96,-62.83 695.15,-61.18"/>
</g>
<!-- atomicint -->
<g id="node12" class="node">
<title>atomicint</title>
<g id="a_node12"><a xlink:href="/type/atomicint" xlink:title="atomicint">
<ellipse fill="none" stroke="#000000" cx="118" cy="-18" rx="46.29" ry="18"/>
<text text-anchor="middle" x="118" y="-14.3" font-family="FreeSans" font-size="14.00" fill="#000000">atomicint</text>
</a>
</g>
</g>
<!-- atomicint&#45;&gt;Int -->
<g id="edge9" class="edge">
<title>atomicint&#45;&gt;Int</title>
<path fill="none" stroke="#000000" d="M153.14,-29.86C163.92,-33.19 173,-36 173,-36 173,-36 299.33,-65.76 362.67,-80.68"/>
<polygon fill="#000000" stroke="#000000" points="362.09,-84.14 372.63,-83.02 363.7,-77.32 362.09,-84.14"/>
</g>
<!-- Endian -->
<g id="node13" class="node">
<title>Endian</title>
<g id="a_node13"><a xlink:href="/type/Endian" xlink:title="Endian">
<ellipse fill="none" stroke="#33bb33" cx="220" cy="-18" rx="38.19" ry="18"/>
<text text-anchor="middle" x="220" y="-14.3" font-family="FreeSans" font-size="14.00" fill="#33bb33">Endian</text>
</a>
</g>
</g>
<!-- Endian&#45;&gt;Int -->
<g id="edge10" class="edge">
<title>Endian&#45;&gt;Int</title>
<path fill="none" stroke="#000000" d="M248.6,-30.25C280.71,-42.87 332.68,-63.31 366.09,-76.45"/>
<polygon fill="#000000" stroke="#000000" points="364.81,-79.71 375.4,-80.11 367.38,-73.2 364.81,-79.71"/>
</g>
<!-- Signal -->
<g id="node14" class="node">
<title>Signal</title>
<g id="a_node14"><a xlink:href="/type/Signal" xlink:title="Signal">
<ellipse fill="none" stroke="#33bb33" cx="311" cy="-18" rx="35.19" ry="18"/>
<text text-anchor="middle" x="311" y="-14.3" font-family="FreeSans" font-size="14.00" fill="#33bb33">Signal</text>
</a>
</g>
</g>
<!-- Signal&#45;&gt;Int -->
<g id="edge11" class="edge">
<title>Signal&#45;&gt;Int</title>
<path fill="none" stroke="#000000" d="M329.03,-33.5C341.92,-43.88 359.44,-57.97 373.59,-69.36"/>
<polygon fill="#000000" stroke="#000000" points="371.48,-72.16 381.47,-75.7 375.87,-66.7 371.48,-72.16"/>
</g>
<!-- Order -->
<g id="node15" class="node">
<title>Order</title>
<g id="a_node15"><a xlink:href="/type/Order" xlink:title="Order">
<ellipse fill="none" stroke="#33bb33" cx="398" cy="-18" rx="33.6" ry="18"/>
<text text-anchor="middle" x="398" y="-14.3" font-family="FreeSans" font-size="14.00" fill="#33bb33">Order</text>
</a>
</g>
</g>
<!-- Order&#45;&gt;Int -->
<g id="edge12" class="edge">
<title>Order&#45;&gt;Int</title>
<path fill="none" stroke="#000000" d="M398,-36.3C398,-44.02 398,-53.29 398,-61.89"/>
<polygon fill="#000000" stroke="#000000" points="394.5,-61.9 398,-71.9 401.5,-61.9 394.5,-61.9"/>
</g>
<!-- PromiseStatus -->
<g id="node16" class="node">
<title>PromiseStatus</title>
<g id="a_node16"><a xlink:href="/type/PromiseStatus" xlink:title="PromiseStatus">
<ellipse fill="none" stroke="#33bb33" cx="517" cy="-18" rx="67.69" ry="18"/>
<text text-anchor="middle" x="517" y="-14.3" font-family="FreeSans" font-size="14.00" fill="#33bb33">PromiseStatus</text>
</a>
</g>
</g>
<!-- PromiseStatus&#45;&gt;Int -->
<g id="edge13" class="edge">
<title>PromiseStatus&#45;&gt;Int</title>
<path fill="none" stroke="#000000" d="M490.29,-34.71C471.25,-45.91 445.68,-60.96 426.28,-72.36"/>
<polygon fill="#000000" stroke="#000000" points="424.43,-69.39 417.58,-77.48 427.97,-75.43 424.43,-69.39"/>
</g>
<!-- Bool -->
<g id="node17" class="node">
<title>Bool</title>
<g id="a_node17"><a xlink:href="/type/Bool" xlink:title="Bool">
<ellipse fill="none" stroke="#33bb33" cx="631" cy="-18" rx="28.7" ry="18"/>
<text text-anchor="middle" x="631" y="-14.3" font-family="FreeSans" font-size="14.00" fill="#33bb33">Bool</text>
</a>
</g>
</g>
<!-- Bool&#45;&gt;Int -->
<g id="edge14" class="edge">
<title>Bool&#45;&gt;Int</title>
<path fill="none" stroke="#000000" d="M608.62,-29.28C600.83,-32.86 594,-36 594,-36 594,-36 489.04,-64.38 432.73,-79.61"/>
<polygon fill="#000000" stroke="#000000" points="431.56,-76.3 422.82,-82.29 433.39,-83.06 431.56,-76.3"/>
</g>
</g>
</svg>
