<?xml version="1.0" encoding="UTF-8" standalone="no"?>
<!DOCTYPE svg PUBLIC "-//W3C//DTD SVG 1.1//EN"
 "http://www.w3.org/Graphics/SVG/1.1/DTD/svg11.dtd">
<!-- Generated by graphviz version 2.43.0 (0)
 -->
<!-- Title: raku&#45;type&#45;graph Pages: 1 -->
<svg width="760pt" height="404pt"
 viewBox="0.00 0.00 759.64 404.00" xmlns="http://www.w3.org/2000/svg" xmlns:xlink="http://www.w3.org/1999/xlink">
<g id="graph0" class="graph" transform="scale(1 1) rotate(0) translate(4 400)">
<title>raku&#45;type&#45;graph</title>
<polygon fill="#ffffff" stroke="transparent" points="-4,4 -4,-400 755.64,-400 755.64,4 -4,4"/>
<!-- Int -->
<g id="node1" class="node">
<title>Int</title>
<g id="a_node1"><a xlink:href="/type/Int" xlink:title="Int">
<ellipse fill="none" stroke="#000000" cx="461.59" cy="-90" rx="27" ry="18"/>
<text text-anchor="middle" x="461.59" y="-86.3" font-family="FreeSans" font-size="14.00" fill="#000000">Int</text>
</a>
</g>
</g>
<!-- Cool -->
<g id="node4" class="node">
<title>Cool</title>
<g id="a_node4"><a xlink:href="/type/Cool" xlink:title="Cool">
<ellipse fill="none" stroke="#000000" cx="589.59" cy="-234" rx="28.7" ry="18"/>
<text text-anchor="middle" x="589.59" y="-230.3" font-family="FreeSans" font-size="14.00" fill="#000000">Cool</text>
</a>
</g>
</g>
<!-- Int&#45;&gt;Cool -->
<g id="edge1" class="edge">
<title>Int&#45;&gt;Cool</title>
<path fill="none" stroke="#000000" d="M475.05,-105.93C497.46,-130.79 542.58,-180.84 569.01,-210.16"/>
<polygon fill="#000000" stroke="#000000" points="566.64,-212.76 575.93,-217.84 571.84,-208.07 566.64,-212.76"/>
</g>
<!-- Real -->
<g id="node6" class="node">
<title>Real</title>
<g id="a_node6"><a xlink:href="/type/Real" xlink:title="Real">
<ellipse fill="none" stroke="#6666ff" cx="461.59" cy="-162" rx="28.7" ry="18"/>
<text text-anchor="middle" x="461.59" y="-158.3" font-family="FreeSans" font-size="14.00" fill="#6666ff">Real</text>
</a>
</g>
</g>
<!-- Int&#45;&gt;Real -->
<g id="edge15" class="edge">
<title>Int&#45;&gt;Real</title>
<path fill="none" stroke="#6666ff" d="M461.59,-108.3C461.59,-116.02 461.59,-125.29 461.59,-133.89"/>
<polygon fill="#6666ff" stroke="#6666ff" points="458.09,-133.9 461.59,-143.9 465.09,-133.9 458.09,-133.9"/>
</g>
<!-- Mu -->
<g id="node2" class="node">
<title>Mu</title>
<g id="a_node2"><a xlink:href="/type/Mu" xlink:title="Mu">
<ellipse fill="none" stroke="#000000" cx="589.59" cy="-378" rx="27" ry="18"/>
<text text-anchor="middle" x="589.59" y="-374.3" font-family="FreeSans" font-size="14.00" fill="#000000">Mu</text>
</a>
</g>
</g>
<!-- Any -->
<g id="node3" class="node">
<title>Any</title>
<g id="a_node3"><a xlink:href="/type/Any" xlink:title="Any">
<ellipse fill="none" stroke="#000000" cx="589.59" cy="-306" rx="27" ry="18"/>
<text text-anchor="middle" x="589.59" y="-302.3" font-family="FreeSans" font-size="14.00" fill="#000000">Any</text>
</a>
</g>
</g>
<!-- Any&#45;&gt;Mu -->
<g id="edge2" class="edge">
<title>Any&#45;&gt;Mu</title>
<path fill="none" stroke="#000000" d="M589.59,-324.3C589.59,-332.02 589.59,-341.29 589.59,-349.89"/>
<polygon fill="#000000" stroke="#000000" points="586.09,-349.9 589.59,-359.9 593.09,-349.9 586.09,-349.9"/>
</g>
<!-- Cool&#45;&gt;Any -->
<g id="edge3" class="edge">
<title>Cool&#45;&gt;Any</title>
<path fill="none" stroke="#000000" d="M589.59,-252.3C589.59,-260.02 589.59,-269.29 589.59,-277.89"/>
<polygon fill="#000000" stroke="#000000" points="586.09,-277.9 589.59,-287.9 593.09,-277.9 586.09,-277.9"/>
</g>
<!-- Numeric -->
<g id="node5" class="node">
<title>Numeric</title>
<g id="a_node5"><a xlink:href="/type/Numeric" xlink:title="Numeric">
<ellipse fill="none" stroke="#6666ff" cx="461.59" cy="-234" rx="44.39" ry="18"/>
<text text-anchor="middle" x="461.59" y="-230.3" font-family="FreeSans" font-size="14.00" fill="#6666ff">Numeric</text>
</a>
</g>
</g>
<!-- Real&#45;&gt;Numeric -->
<g id="edge16" class="edge">
<title>Real&#45;&gt;Numeric</title>
<path fill="none" stroke="#6666ff" d="M461.59,-180.3C461.59,-188.02 461.59,-197.29 461.59,-205.89"/>
<polygon fill="#6666ff" stroke="#6666ff" points="458.09,-205.9 461.59,-215.9 465.09,-205.9 458.09,-205.9"/>
</g>
<!-- PromiseStatus -->
<g id="node7" class="node">
<title>PromiseStatus</title>
<g id="a_node7"><a xlink:href="/type/PromiseStatus" xlink:title="PromiseStatus">
<ellipse fill="none" stroke="#33bb33" cx="67.59" cy="-18" rx="67.69" ry="18"/>
<text text-anchor="middle" x="67.59" y="-14.3" font-family="FreeSans" font-size="14.00" fill="#33bb33">PromiseStatus</text>
</a>
</g>
</g>
<!-- PromiseStatus&#45;&gt;Int -->
<g id="edge4" class="edge">
<title>PromiseStatus&#45;&gt;Int</title>
<path fill="none" stroke="#000000" d="M118.09,-30.15C132.61,-33.35 144.59,-36 144.59,-36 144.59,-36 342.64,-69.11 425.66,-82.99"/>
<polygon fill="#000000" stroke="#000000" points="425.21,-86.47 435.65,-84.66 426.37,-79.56 425.21,-86.47"/>
</g>
<!-- Signal -->
<g id="node8" class="node">
<title>Signal</title>
<g id="a_node8"><a xlink:href="/type/Signal" xlink:title="Signal">
<ellipse fill="none" stroke="#33bb33" cx="188.59" cy="-18" rx="35.19" ry="18"/>
<text text-anchor="middle" x="188.59" y="-14.3" font-family="FreeSans" font-size="14.00" fill="#33bb33">Signal</text>
</a>
</g>
</g>
<!-- Signal&#45;&gt;Int -->
<g id="edge5" class="edge">
<title>Signal&#45;&gt;Int</title>
<path fill="none" stroke="#000000" d="M215.71,-29.48C224.76,-32.97 232.59,-36 232.59,-36 232.59,-36 361.8,-65.9 426.11,-80.79"/>
<polygon fill="#000000" stroke="#000000" points="425.68,-84.28 436.21,-83.13 427.26,-77.46 425.68,-84.28"/>
</g>
<!-- Bool -->
<g id="node9" class="node">
<title>Bool</title>
<g id="a_node9"><a xlink:href="/type/Bool" xlink:title="Bool">
<ellipse fill="none" stroke="#33bb33" cx="270.59" cy="-18" rx="28.7" ry="18"/>
<text text-anchor="middle" x="270.59" y="-14.3" font-family="FreeSans" font-size="14.00" fill="#33bb33">Bool</text>
</a>
</g>
</g>
<!-- Bool&#45;&gt;Int -->
<g id="edge6" class="edge">
<title>Bool&#45;&gt;Int</title>
<path fill="none" stroke="#000000" d="M293.14,-29.09C301.32,-32.75 308.59,-36 308.59,-36 308.59,-36 383.37,-61.9 428.37,-77.49"/>
<polygon fill="#000000" stroke="#000000" points="427.43,-80.87 438.02,-80.83 429.72,-74.25 427.43,-80.87"/>
</g>
<!-- atomicint -->
<g id="node10" class="node">
<title>atomicint</title>
<g id="a_node10"><a xlink:href="/type/atomicint" xlink:title="atomicint">
<ellipse fill="none" stroke="#000000" cx="363.59" cy="-18" rx="46.29" ry="18"/>
<text text-anchor="middle" x="363.59" y="-14.3" font-family="FreeSans" font-size="14.00" fill="#000000">atomicint</text>
</a>
</g>
</g>
<!-- atomicint&#45;&gt;Int -->
<g id="edge7" class="edge">
<title>atomicint&#45;&gt;Int</title>
<path fill="none" stroke="#000000" d="M384.86,-34.19C399.68,-44.77 419.54,-58.96 435.35,-70.25"/>
<polygon fill="#000000" stroke="#000000" points="433.48,-73.22 443.65,-76.19 437.55,-67.53 433.48,-73.22"/>
</g>
<!-- Stringy -->
<g id="node11" class="node">
<title>Stringy</title>
<g id="a_node11"><a xlink:href="/type/Stringy" xlink:title="Stringy">
<ellipse fill="none" stroke="#6666ff" cx="692.59" cy="-234" rx="38.19" ry="18"/>
<text text-anchor="middle" x="692.59" y="-230.3" font-family="FreeSans" font-size="14.00" fill="#6666ff">Stringy</text>
</a>
</g>
</g>
<!-- Str -->
<g id="node12" class="node">
<title>Str</title>
<g id="a_node12"><a xlink:href="/type/Str" xlink:title="Str">
<ellipse fill="none" stroke="#000000" cx="692.59" cy="-162" rx="27" ry="18"/>
<text text-anchor="middle" x="692.59" y="-158.3" font-family="FreeSans" font-size="14.00" fill="#000000">Str</text>
</a>
</g>
</g>
<!-- Str&#45;&gt;Cool -->
<g id="edge8" class="edge">
<title>Str&#45;&gt;Cool</title>
<path fill="none" stroke="#000000" d="M674.18,-175.51C658.27,-186.33 635.05,-202.11 616.96,-214.4"/>
<polygon fill="#000000" stroke="#000000" points="614.85,-211.6 608.55,-220.12 618.78,-217.39 614.85,-211.6"/>
</g>
<!-- Str&#45;&gt;Stringy -->
<g id="edge17" class="edge">
<title>Str&#45;&gt;Stringy</title>
<path fill="none" stroke="#6666ff" d="M692.59,-180.3C692.59,-188.02 692.59,-197.29 692.59,-205.89"/>
<polygon fill="#6666ff" stroke="#6666ff" points="689.09,-205.9 692.59,-215.9 696.09,-205.9 689.09,-205.9"/>
</g>
<!-- Allomorph -->
<g id="node13" class="node">
<title>Allomorph</title>
<g id="a_node13"><a xlink:href="/type/Allomorph" xlink:title="Allomorph">
<ellipse fill="none" stroke="#000000" cx="701.59" cy="-90" rx="50.09" ry="18"/>
<text text-anchor="middle" x="701.59" y="-86.3" font-family="FreeSans" font-size="14.00" fill="#000000">Allomorph</text>
</a>
</g>
</g>
<!-- Allomorph&#45;&gt;Str -->
<g id="edge9" class="edge">
<title>Allomorph&#45;&gt;Str</title>
<path fill="none" stroke="#000000" d="M699.37,-108.3C698.38,-116.02 697.19,-125.29 696.08,-133.89"/>
<polygon fill="#000000" stroke="#000000" points="692.6,-133.53 694.79,-143.9 699.54,-134.42 692.6,-133.53"/>
</g>
<!-- IntStr -->
<g id="node14" class="node">
<title>IntStr</title>
<g id="a_node14"><a xlink:href="/type/IntStr" xlink:title="IntStr">
<ellipse fill="none" stroke="#000000" cx="711.59" cy="-18" rx="31.7" ry="18"/>
<text text-anchor="middle" x="711.59" y="-14.3" font-family="FreeSans" font-size="14.00" fill="#000000">IntStr</text>
</a>
</g>
</g>
<!-- IntStr&#45;&gt;Int -->
<g id="edge11" class="edge">
<title>IntStr&#45;&gt;Int</title>
<path fill="none" stroke="#000000" d="M686.33,-29.48C677.89,-32.97 670.59,-36 670.59,-36 670.59,-36 555.46,-65.2 496.1,-80.25"/>
<polygon fill="#000000" stroke="#000000" points="495.22,-76.86 486.39,-82.71 496.94,-83.65 495.22,-76.86"/>
</g>
<!-- IntStr&#45;&gt;Allomorph -->
<g id="edge10" class="edge">
<title>IntStr&#45;&gt;Allomorph</title>
<path fill="none" stroke="#000000" d="M709.12,-36.3C708.02,-44.02 706.7,-53.29 705.47,-61.89"/>
<polygon fill="#000000" stroke="#000000" points="701.99,-61.5 704.04,-71.9 708.92,-62.49 701.99,-61.5"/>
</g>
<!-- Order -->
<g id="node15" class="node">
<title>Order</title>
<g id="a_node15"><a xlink:href="/type/Order" xlink:title="Order">
<ellipse fill="none" stroke="#33bb33" cx="461.59" cy="-18" rx="33.6" ry="18"/>
<text text-anchor="middle" x="461.59" y="-14.3" font-family="FreeSans" font-size="14.00" fill="#33bb33">Order</text>
</a>
</g>
</g>
<!-- Order&#45;&gt;Int -->
<g id="edge12" class="edge">
<title>Order&#45;&gt;Int</title>
<path fill="none" stroke="#000000" d="M461.59,-36.3C461.59,-44.02 461.59,-53.29 461.59,-61.89"/>
<polygon fill="#000000" stroke="#000000" points="458.09,-61.9 461.59,-71.9 465.09,-61.9 458.09,-61.9"/>
</g>
<!-- Endian -->
<g id="node16" class="node">
<title>Endian</title>
<g id="a_node16"><a xlink:href="/type/Endian" xlink:title="Endian">
<ellipse fill="none" stroke="#33bb33" cx="551.59" cy="-18" rx="38.19" ry="18"/>
<text text-anchor="middle" x="551.59" y="-14.3" font-family="FreeSans" font-size="14.00" fill="#33bb33">Endian</text>
</a>
</g>
</g>
<!-- Endian&#45;&gt;Int -->
<g id="edge13" class="edge">
<title>Endian&#45;&gt;Int</title>
<path fill="none" stroke="#000000" d="M532.51,-33.85C519.14,-44.25 501.13,-58.25 486.61,-69.54"/>
<polygon fill="#000000" stroke="#000000" points="484.27,-66.93 478.53,-75.83 488.57,-72.45 484.27,-66.93"/>
</g>
<!-- int -->
<g id="node17" class="node">
<title>int</title>
<g id="a_node17"><a xlink:href="/type/int" xlink:title="int">
<ellipse fill="none" stroke="#000000" cx="634.59" cy="-18" rx="27" ry="18"/>
<text text-anchor="middle" x="634.59" y="-14.3" font-family="FreeSans" font-size="14.00" fill="#000000">int</text>
</a>
</g>
</g>
<!-- int&#45;&gt;Int -->
<g id="edge14" class="edge">
<title>int&#45;&gt;Int</title>
<path fill="none" stroke="#000000" d="M613.24,-29.09C605.48,-32.75 598.59,-36 598.59,-36 598.59,-36 534.53,-60.79 494.02,-76.46"/>
<polygon fill="#000000" stroke="#000000" points="492.59,-73.26 484.52,-80.13 495.11,-79.79 492.59,-73.26"/>
</g>
</g>
</svg>
