<?xml version="1.0" encoding="UTF-8" standalone="no"?>
<!DOCTYPE svg PUBLIC "-//W3C//DTD SVG 1.1//EN"
 "http://www.w3.org/Graphics/SVG/1.1/DTD/svg11.dtd">
<!-- Generated by graphviz version 2.43.0 (0)
 -->
<!-- Title: raku&#45;type&#45;graph Pages: 1 -->
<svg width="632pt" height="332pt"
 viewBox="0.00 0.00 631.69 332.00" xmlns="http://www.w3.org/2000/svg" xmlns:xlink="http://www.w3.org/1999/xlink">
<g id="graph0" class="graph" transform="scale(1 1) rotate(0) translate(4 328)">
<title>raku&#45;type&#45;graph</title>
<polygon fill="#ffffff" stroke="transparent" points="-4,4 -4,-328 627.69,-328 627.69,4 -4,4"/>
<!-- IO -->
<g id="node1" class="node">
<title>IO</title>
<g id="a_node1"><a xlink:href="/type/IO" xlink:title="IO">
<ellipse fill="none" stroke="#6666ff" cx="242.24" cy="-162" rx="27" ry="18"/>
<text text-anchor="middle" x="242.24" y="-158.3" font-family="FreeSans" font-size="14.00" fill="#6666ff">IO</text>
</a>
</g>
</g>
<!-- Mu -->
<g id="node2" class="node">
<title>Mu</title>
<g id="a_node2"><a xlink:href="/type/Mu" xlink:title="Mu">
<ellipse fill="none" stroke="#000000" cx="251.24" cy="-306" rx="27" ry="18"/>
<text text-anchor="middle" x="251.24" y="-302.3" font-family="FreeSans" font-size="14.00" fill="#000000">Mu</text>
</a>
</g>
</g>
<!-- Any -->
<g id="node3" class="node">
<title>Any</title>
<g id="a_node3"><a xlink:href="/type/Any" xlink:title="Any">
<ellipse fill="none" stroke="#000000" cx="251.24" cy="-234" rx="27" ry="18"/>
<text text-anchor="middle" x="251.24" y="-230.3" font-family="FreeSans" font-size="14.00" fill="#000000">Any</text>
</a>
</g>
</g>
<!-- Any&#45;&gt;Mu -->
<g id="edge1" class="edge">
<title>Any&#45;&gt;Mu</title>
<path fill="none" stroke="#000000" d="M251.24,-252.3C251.24,-260.02 251.24,-269.29 251.24,-277.89"/>
<polygon fill="#000000" stroke="#000000" points="247.74,-277.9 251.24,-287.9 254.74,-277.9 247.74,-277.9"/>
</g>
<!-- Cool -->
<g id="node4" class="node">
<title>Cool</title>
<g id="a_node4"><a xlink:href="/type/Cool" xlink:title="Cool">
<ellipse fill="none" stroke="#000000" cx="316.24" cy="-162" rx="28.7" ry="18"/>
<text text-anchor="middle" x="316.24" y="-158.3" font-family="FreeSans" font-size="14.00" fill="#000000">Cool</text>
</a>
</g>
</g>
<!-- Cool&#45;&gt;Any -->
<g id="edge2" class="edge">
<title>Cool&#45;&gt;Any</title>
<path fill="none" stroke="#000000" d="M302.46,-177.85C293.58,-187.4 281.88,-200.01 271.9,-210.75"/>
<polygon fill="#000000" stroke="#000000" points="269.25,-208.47 265.01,-218.18 274.38,-213.23 269.25,-208.47"/>
</g>
<!-- IO::Path -->
<g id="node5" class="node">
<title>IO::Path</title>
<g id="a_node5"><a xlink:href="/type/IO::Path" xlink:title="IO::Path">
<ellipse fill="none" stroke="#000000" cx="312.24" cy="-90" rx="43.59" ry="18"/>
<text text-anchor="middle" x="312.24" y="-86.3" font-family="FreeSans" font-size="14.00" fill="#000000">IO::Path</text>
</a>
</g>
</g>
<!-- IO::Path&#45;&gt;IO -->
<g id="edge9" class="edge">
<title>IO::Path&#45;&gt;IO</title>
<path fill="none" stroke="#6666ff" d="M296.36,-106.88C286.75,-116.49 274.37,-128.87 263.88,-139.37"/>
<polygon fill="#6666ff" stroke="#6666ff" points="261.23,-137.06 256.64,-146.61 266.18,-142.01 261.23,-137.06"/>
</g>
<!-- IO::Path&#45;&gt;Cool -->
<g id="edge3" class="edge">
<title>IO::Path&#45;&gt;Cool</title>
<path fill="none" stroke="#000000" d="M313.23,-108.3C313.67,-116.02 314.2,-125.29 314.69,-133.89"/>
<polygon fill="#000000" stroke="#000000" points="311.2,-134.11 315.27,-143.9 318.19,-133.71 311.2,-134.11"/>
</g>
<!-- IO::Special -->
<g id="node6" class="node">
<title>IO::Special</title>
<g id="a_node6"><a xlink:href="/type/IO::Special" xlink:title="IO::Special">
<ellipse fill="none" stroke="#000000" cx="194.24" cy="-90" rx="53.89" ry="18"/>
<text text-anchor="middle" x="194.24" y="-86.3" font-family="FreeSans" font-size="14.00" fill="#000000">IO::Special</text>
</a>
</g>
</g>
<!-- IO::Special&#45;&gt;IO -->
<g id="edge10" class="edge">
<title>IO::Special&#45;&gt;IO</title>
<path fill="none" stroke="#6666ff" d="M205.86,-107.95C211.81,-116.62 219.16,-127.33 225.69,-136.85"/>
<polygon fill="#6666ff" stroke="#6666ff" points="222.85,-138.9 231.39,-145.17 228.62,-134.94 222.85,-138.9"/>
</g>
<!-- IO::Special&#45;&gt;Any -->
<g id="edge4" class="edge">
<title>IO::Special&#45;&gt;Any</title>
<path fill="none" stroke="#000000" d="M196.56,-108.16C200.04,-134.02 206.24,-180 206.24,-180 206.24,-180 219.71,-195.86 231.92,-210.23"/>
<polygon fill="#000000" stroke="#000000" points="229.33,-212.6 238.47,-217.95 234.66,-208.07 229.33,-212.6"/>
</g>
<!-- IO::Path::QNX -->
<g id="node7" class="node">
<title>IO::Path::QNX</title>
<g id="a_node7"><a xlink:href="/type/IO::Path::QNX" xlink:title="IO::Path::QNX">
<ellipse fill="none" stroke="#000000" cx="68.24" cy="-18" rx="68.49" ry="18"/>
<text text-anchor="middle" x="68.24" y="-14.3" font-family="FreeSans" font-size="14.00" fill="#000000">IO::Path::QNX</text>
</a>
</g>
</g>
<!-- IO::Path::QNX&#45;&gt;IO::Path -->
<g id="edge5" class="edge">
<title>IO::Path::QNX&#45;&gt;IO::Path</title>
<path fill="none" stroke="#000000" d="M113.51,-31.69C169.43,-47.37 257.24,-72 257.24,-72 257.24,-72 261.87,-73.43 268.44,-75.46"/>
<polygon fill="#000000" stroke="#000000" points="267.76,-78.91 278.35,-78.52 269.83,-72.23 267.76,-78.91"/>
</g>
<!-- IO::Path::Cygwin -->
<g id="node8" class="node">
<title>IO::Path::Cygwin</title>
<g id="a_node8"><a xlink:href="/type/IO::Path::Cygwin" xlink:title="IO::Path::Cygwin">
<ellipse fill="none" stroke="#000000" cx="232.24" cy="-18" rx="77.19" ry="18"/>
<text text-anchor="middle" x="232.24" y="-14.3" font-family="FreeSans" font-size="14.00" fill="#000000">IO::Path::Cygwin</text>
</a>
</g>
</g>
<!-- IO::Path::Cygwin&#45;&gt;IO::Path -->
<g id="edge6" class="edge">
<title>IO::Path::Cygwin&#45;&gt;IO::Path</title>
<path fill="none" stroke="#000000" d="M251.2,-35.59C261.86,-44.92 275.31,-56.69 286.87,-66.8"/>
<polygon fill="#000000" stroke="#000000" points="284.69,-69.54 294.52,-73.49 289.3,-64.27 284.69,-69.54"/>
</g>
<!-- IO::Path::Unix -->
<g id="node9" class="node">
<title>IO::Path::Unix</title>
<g id="a_node9"><a xlink:href="/type/IO::Path::Unix" xlink:title="IO::Path::Unix">
<ellipse fill="none" stroke="#000000" cx="393.24" cy="-18" rx="65.79" ry="18"/>
<text text-anchor="middle" x="393.24" y="-14.3" font-family="FreeSans" font-size="14.00" fill="#000000">IO::Path::Unix</text>
</a>
</g>
</g>
<!-- IO::Path::Unix&#45;&gt;IO::Path -->
<g id="edge7" class="edge">
<title>IO::Path::Unix&#45;&gt;IO::Path</title>
<path fill="none" stroke="#000000" d="M374.05,-35.59C363.25,-44.92 349.63,-56.69 337.93,-66.8"/>
<polygon fill="#000000" stroke="#000000" points="335.47,-64.3 330.19,-73.49 340.05,-69.6 335.47,-64.3"/>
</g>
<!-- IO::Path::Win32 -->
<g id="node10" class="node">
<title>IO::Path::Win32</title>
<g id="a_node10"><a xlink:href="/type/IO::Path::Win32" xlink:title="IO::Path::Win32">
<ellipse fill="none" stroke="#000000" cx="550.24" cy="-18" rx="73.39" ry="18"/>
<text text-anchor="middle" x="550.24" y="-14.3" font-family="FreeSans" font-size="14.00" fill="#000000">IO::Path::Win32</text>
</a>
</g>
</g>
<!-- IO::Path::Win32&#45;&gt;IO::Path -->
<g id="edge8" class="edge">
<title>IO::Path::Win32&#45;&gt;IO::Path</title>
<path fill="none" stroke="#000000" d="M505.2,-32.25C462.53,-44.8 398.85,-63.53 356.45,-76"/>
<polygon fill="#000000" stroke="#000000" points="355.3,-72.69 346.69,-78.87 357.27,-79.4 355.3,-72.69"/>
</g>
</g>
</svg>
