<?xml version="1.0" encoding="UTF-8" standalone="no"?>
<!DOCTYPE svg PUBLIC "-//W3C//DTD SVG 1.1//EN"
 "http://www.w3.org/Graphics/SVG/1.1/DTD/svg11.dtd">
<!-- Generated by graphviz version 2.43.0 (0)
 -->
<!-- Title: raku&#45;type&#45;graph Pages: 1 -->
<svg width="632pt" height="332pt"
 viewBox="0.00 0.00 632.09 332.00" xmlns="http://www.w3.org/2000/svg" xmlns:xlink="http://www.w3.org/1999/xlink">
<g id="graph0" class="graph" transform="scale(1 1) rotate(0) translate(4 328)">
<title>raku&#45;type&#45;graph</title>
<polygon fill="#ffffff" stroke="transparent" points="-4,4 -4,-328 628.09,-328 628.09,4 -4,4"/>
<!-- IO -->
<g id="node1" class="node">
<title>IO</title>
<g id="a_node1"><a xlink:href="/type/IO" xlink:title="IO">
<ellipse fill="none" stroke="#6666ff" cx="245.44" cy="-162" rx="27" ry="18"/>
<text text-anchor="middle" x="245.44" y="-158.3" font-family="FreeSans" font-size="14.00" fill="#6666ff">IO</text>
</a>
</g>
</g>
<!-- Mu -->
<g id="node2" class="node">
<title>Mu</title>
<g id="a_node2"><a xlink:href="/type/Mu" xlink:title="Mu">
<ellipse fill="none" stroke="#000000" cx="254.44" cy="-306" rx="27" ry="18"/>
<text text-anchor="middle" x="254.44" y="-302.3" font-family="FreeSans" font-size="14.00" fill="#000000">Mu</text>
</a>
</g>
</g>
<!-- Any -->
<g id="node3" class="node">
<title>Any</title>
<g id="a_node3"><a xlink:href="/type/Any" xlink:title="Any">
<ellipse fill="none" stroke="#000000" cx="254.44" cy="-234" rx="27" ry="18"/>
<text text-anchor="middle" x="254.44" y="-230.3" font-family="FreeSans" font-size="14.00" fill="#000000">Any</text>
</a>
</g>
</g>
<!-- Any&#45;&gt;Mu -->
<g id="edge1" class="edge">
<title>Any&#45;&gt;Mu</title>
<path fill="none" stroke="#000000" d="M254.44,-252.3C254.44,-260.02 254.44,-269.29 254.44,-277.89"/>
<polygon fill="#000000" stroke="#000000" points="250.94,-277.9 254.44,-287.9 257.94,-277.9 250.94,-277.9"/>
</g>
<!-- Cool -->
<g id="node4" class="node">
<title>Cool</title>
<g id="a_node4"><a xlink:href="/type/Cool" xlink:title="Cool">
<ellipse fill="none" stroke="#000000" cx="319.44" cy="-162" rx="28.7" ry="18"/>
<text text-anchor="middle" x="319.44" y="-158.3" font-family="FreeSans" font-size="14.00" fill="#000000">Cool</text>
</a>
</g>
</g>
<!-- Cool&#45;&gt;Any -->
<g id="edge2" class="edge">
<title>Cool&#45;&gt;Any</title>
<path fill="none" stroke="#000000" d="M305.66,-177.85C296.78,-187.4 285.08,-200.01 275.1,-210.75"/>
<polygon fill="#000000" stroke="#000000" points="272.45,-208.47 268.21,-218.18 277.58,-213.23 272.45,-208.47"/>
</g>
<!-- IO::Path -->
<g id="node5" class="node">
<title>IO::Path</title>
<g id="a_node5"><a xlink:href="/type/IO::Path" xlink:title="IO::Path">
<ellipse fill="none" stroke="#000000" cx="315.44" cy="-90" rx="43.59" ry="18"/>
<text text-anchor="middle" x="315.44" y="-86.3" font-family="FreeSans" font-size="14.00" fill="#000000">IO::Path</text>
</a>
</g>
</g>
<!-- IO::Path&#45;&gt;IO -->
<g id="edge9" class="edge">
<title>IO::Path&#45;&gt;IO</title>
<path fill="none" stroke="#6666ff" d="M299.56,-106.88C289.95,-116.49 277.57,-128.87 267.08,-139.37"/>
<polygon fill="#6666ff" stroke="#6666ff" points="264.43,-137.06 259.84,-146.61 269.38,-142.01 264.43,-137.06"/>
</g>
<!-- IO::Path&#45;&gt;Cool -->
<g id="edge3" class="edge">
<title>IO::Path&#45;&gt;Cool</title>
<path fill="none" stroke="#000000" d="M316.43,-108.3C316.87,-116.02 317.4,-125.29 317.89,-133.89"/>
<polygon fill="#000000" stroke="#000000" points="314.4,-134.11 318.47,-143.9 321.39,-133.71 314.4,-134.11"/>
</g>
<!-- IO::Special -->
<g id="node6" class="node">
<title>IO::Special</title>
<g id="a_node6"><a xlink:href="/type/IO::Special" xlink:title="IO::Special">
<ellipse fill="none" stroke="#000000" cx="197.44" cy="-90" rx="53.89" ry="18"/>
<text text-anchor="middle" x="197.44" y="-86.3" font-family="FreeSans" font-size="14.00" fill="#000000">IO::Special</text>
</a>
</g>
</g>
<!-- IO::Special&#45;&gt;IO -->
<g id="edge10" class="edge">
<title>IO::Special&#45;&gt;IO</title>
<path fill="none" stroke="#6666ff" d="M209.06,-107.95C215.01,-116.62 222.36,-127.33 228.89,-136.85"/>
<polygon fill="#6666ff" stroke="#6666ff" points="226.05,-138.9 234.59,-145.17 231.82,-134.94 226.05,-138.9"/>
</g>
<!-- IO::Special&#45;&gt;Any -->
<g id="edge4" class="edge">
<title>IO::Special&#45;&gt;Any</title>
<path fill="none" stroke="#000000" d="M199.76,-108.16C203.24,-134.02 209.44,-180 209.44,-180 209.44,-180 222.91,-195.86 235.11,-210.23"/>
<polygon fill="#000000" stroke="#000000" points="232.53,-212.6 241.67,-217.95 237.86,-208.07 232.53,-212.6"/>
</g>
<!-- IO::Path::Win32 -->
<g id="node7" class="node">
<title>IO::Path::Win32</title>
<g id="a_node7"><a xlink:href="/type/IO::Path::Win32" xlink:title="IO::Path::Win32">
<ellipse fill="none" stroke="#000000" cx="73.44" cy="-18" rx="73.39" ry="18"/>
<text text-anchor="middle" x="73.44" y="-14.3" font-family="FreeSans" font-size="14.00" fill="#000000">IO::Path::Win32</text>
</a>
</g>
</g>
<!-- IO::Path::Win32&#45;&gt;IO::Path -->
<g id="edge5" class="edge">
<title>IO::Path::Win32&#45;&gt;IO::Path</title>
<path fill="none" stroke="#000000" d="M119.67,-32.1C175.04,-47.8 260.44,-72 260.44,-72 260.44,-72 265.07,-73.43 271.64,-75.46"/>
<polygon fill="#000000" stroke="#000000" points="270.96,-78.91 281.55,-78.52 273.03,-72.23 270.96,-78.91"/>
</g>
<!-- IO::Path::QNX -->
<g id="node8" class="node">
<title>IO::Path::QNX</title>
<g id="a_node8"><a xlink:href="/type/IO::Path::QNX" xlink:title="IO::Path::QNX">
<ellipse fill="none" stroke="#000000" cx="233.44" cy="-18" rx="68.49" ry="18"/>
<text text-anchor="middle" x="233.44" y="-14.3" font-family="FreeSans" font-size="14.00" fill="#000000">IO::Path::QNX</text>
</a>
</g>
</g>
<!-- IO::Path::QNX&#45;&gt;IO::Path -->
<g id="edge6" class="edge">
<title>IO::Path::QNX&#45;&gt;IO::Path</title>
<path fill="none" stroke="#000000" d="M252.88,-35.59C263.8,-44.92 277.59,-56.69 289.44,-66.8"/>
<polygon fill="#000000" stroke="#000000" points="287.4,-69.66 297.27,-73.49 291.94,-64.33 287.4,-69.66"/>
</g>
<!-- IO::Path::Cygwin -->
<g id="node9" class="node">
<title>IO::Path::Cygwin</title>
<g id="a_node9"><a xlink:href="/type/IO::Path::Cygwin" xlink:title="IO::Path::Cygwin">
<ellipse fill="none" stroke="#000000" cx="397.44" cy="-18" rx="77.19" ry="18"/>
<text text-anchor="middle" x="397.44" y="-14.3" font-family="FreeSans" font-size="14.00" fill="#000000">IO::Path::Cygwin</text>
</a>
</g>
</g>
<!-- IO::Path::Cygwin&#45;&gt;IO::Path -->
<g id="edge7" class="edge">
<title>IO::Path::Cygwin&#45;&gt;IO::Path</title>
<path fill="none" stroke="#000000" d="M378.01,-35.59C367.08,-44.92 353.3,-56.69 341.45,-66.8"/>
<polygon fill="#000000" stroke="#000000" points="338.95,-64.33 333.61,-73.49 343.49,-69.66 338.95,-64.33"/>
</g>
<!-- IO::Path::Unix -->
<g id="node10" class="node">
<title>IO::Path::Unix</title>
<g id="a_node10"><a xlink:href="/type/IO::Path::Unix" xlink:title="IO::Path::Unix">
<ellipse fill="none" stroke="#000000" cx="558.44" cy="-18" rx="65.79" ry="18"/>
<text text-anchor="middle" x="558.44" y="-14.3" font-family="FreeSans" font-size="14.00" fill="#000000">IO::Path::Unix</text>
</a>
</g>
</g>
<!-- IO::Path::Unix&#45;&gt;IO::Path -->
<g id="edge8" class="edge">
<title>IO::Path::Unix&#45;&gt;IO::Path</title>
<path fill="none" stroke="#000000" d="M515,-31.51C471.31,-44.1 404.26,-63.42 360.13,-76.13"/>
<polygon fill="#000000" stroke="#000000" points="358.89,-72.84 350.25,-78.97 360.83,-79.57 358.89,-72.84"/>
</g>
</g>
</svg>
