<?xml version="1.0" encoding="UTF-8" standalone="no"?>
<!DOCTYPE svg PUBLIC "-//W3C//DTD SVG 1.1//EN"
 "http://www.w3.org/Graphics/SVG/1.1/DTD/svg11.dtd">
<!-- Generated by graphviz version 2.43.0 (0)
 -->
<!-- Title: raku&#45;type&#45;graph Pages: 1 -->
<svg width="632pt" height="332pt"
 viewBox="0.00 0.00 632.09 332.00" xmlns="http://www.w3.org/2000/svg" xmlns:xlink="http://www.w3.org/1999/xlink">
<g id="graph0" class="graph" transform="scale(1 1) rotate(0) translate(4 328)">
<title>raku&#45;type&#45;graph</title>
<polygon fill="#ffffff" stroke="transparent" points="-4,4 -4,-328 628.09,-328 628.09,4 -4,4"/>
<!-- IO::Path -->
<g id="node1" class="node">
<title>IO::Path</title>
<g id="a_node1"><a xlink:href="/type/IO::Path" xlink:title="IO::Path">
<ellipse fill="none" stroke="#000000" cx="315.44" cy="-90" rx="43.59" ry="18"/>
<text text-anchor="middle" x="315.44" y="-86.3" font-family="FreeSans" font-size="14.00" fill="#000000">IO::Path</text>
</a>
</g>
</g>
<!-- Cool -->
<g id="node4" class="node">
<title>Cool</title>
<g id="a_node4"><a xlink:href="/type/Cool" xlink:title="Cool">
<ellipse fill="none" stroke="#000000" cx="278.44" cy="-162" rx="28.7" ry="18"/>
<text text-anchor="middle" x="278.44" y="-158.3" font-family="FreeSans" font-size="14.00" fill="#000000">Cool</text>
</a>
</g>
</g>
<!-- IO::Path&#45;&gt;Cool -->
<g id="edge1" class="edge">
<title>IO::Path&#45;&gt;Cool</title>
<path fill="none" stroke="#000000" d="M306.49,-107.95C302.11,-116.23 296.74,-126.38 291.88,-135.58"/>
<polygon fill="#000000" stroke="#000000" points="288.64,-134.22 287.06,-144.69 294.83,-137.49 288.64,-134.22"/>
</g>
<!-- IO -->
<g id="node5" class="node">
<title>IO</title>
<g id="a_node5"><a xlink:href="/type/IO" xlink:title="IO">
<ellipse fill="none" stroke="#6666ff" cx="352.44" cy="-162" rx="27" ry="18"/>
<text text-anchor="middle" x="352.44" y="-158.3" font-family="FreeSans" font-size="14.00" fill="#6666ff">IO</text>
</a>
</g>
</g>
<!-- IO::Path&#45;&gt;IO -->
<g id="edge8" class="edge">
<title>IO::Path&#45;&gt;IO</title>
<path fill="none" stroke="#6666ff" d="M324.4,-107.95C328.78,-116.23 334.15,-126.38 339.01,-135.58"/>
<polygon fill="#6666ff" stroke="#6666ff" points="336.06,-137.49 343.82,-144.69 342.25,-134.22 336.06,-137.49"/>
</g>
<!-- Mu -->
<g id="node2" class="node">
<title>Mu</title>
<g id="a_node2"><a xlink:href="/type/Mu" xlink:title="Mu">
<ellipse fill="none" stroke="#000000" cx="278.44" cy="-306" rx="27" ry="18"/>
<text text-anchor="middle" x="278.44" y="-302.3" font-family="FreeSans" font-size="14.00" fill="#000000">Mu</text>
</a>
</g>
</g>
<!-- Any -->
<g id="node3" class="node">
<title>Any</title>
<g id="a_node3"><a xlink:href="/type/Any" xlink:title="Any">
<ellipse fill="none" stroke="#000000" cx="278.44" cy="-234" rx="27" ry="18"/>
<text text-anchor="middle" x="278.44" y="-230.3" font-family="FreeSans" font-size="14.00" fill="#000000">Any</text>
</a>
</g>
</g>
<!-- Any&#45;&gt;Mu -->
<g id="edge2" class="edge">
<title>Any&#45;&gt;Mu</title>
<path fill="none" stroke="#000000" d="M278.44,-252.3C278.44,-260.02 278.44,-269.29 278.44,-277.89"/>
<polygon fill="#000000" stroke="#000000" points="274.94,-277.9 278.44,-287.9 281.94,-277.9 274.94,-277.9"/>
</g>
<!-- Cool&#45;&gt;Any -->
<g id="edge3" class="edge">
<title>Cool&#45;&gt;Any</title>
<path fill="none" stroke="#000000" d="M278.44,-180.3C278.44,-188.02 278.44,-197.29 278.44,-205.89"/>
<polygon fill="#000000" stroke="#000000" points="274.94,-205.9 278.44,-215.9 281.94,-205.9 274.94,-205.9"/>
</g>
<!-- IO::Path::Win32 -->
<g id="node6" class="node">
<title>IO::Path::Win32</title>
<g id="a_node6"><a xlink:href="/type/IO::Path::Win32" xlink:title="IO::Path::Win32">
<ellipse fill="none" stroke="#000000" cx="73.44" cy="-18" rx="73.39" ry="18"/>
<text text-anchor="middle" x="73.44" y="-14.3" font-family="FreeSans" font-size="14.00" fill="#000000">IO::Path::Win32</text>
</a>
</g>
</g>
<!-- IO::Path::Win32&#45;&gt;IO::Path -->
<g id="edge4" class="edge">
<title>IO::Path::Win32&#45;&gt;IO::Path</title>
<path fill="none" stroke="#000000" d="M118.96,-32.17C162.53,-44.77 227.84,-63.66 271.03,-76.15"/>
<polygon fill="#000000" stroke="#000000" points="270.13,-79.53 280.7,-78.95 272.07,-72.81 270.13,-79.53"/>
</g>
<!-- IO::Path::QNX -->
<g id="node7" class="node">
<title>IO::Path::QNX</title>
<g id="a_node7"><a xlink:href="/type/IO::Path::QNX" xlink:title="IO::Path::QNX">
<ellipse fill="none" stroke="#000000" cx="233.44" cy="-18" rx="68.49" ry="18"/>
<text text-anchor="middle" x="233.44" y="-14.3" font-family="FreeSans" font-size="14.00" fill="#000000">IO::Path::QNX</text>
</a>
</g>
</g>
<!-- IO::Path::QNX&#45;&gt;IO::Path -->
<g id="edge5" class="edge">
<title>IO::Path::QNX&#45;&gt;IO::Path</title>
<path fill="none" stroke="#000000" d="M252.88,-35.59C263.8,-44.92 277.59,-56.69 289.44,-66.8"/>
<polygon fill="#000000" stroke="#000000" points="287.4,-69.66 297.27,-73.49 291.94,-64.33 287.4,-69.66"/>
</g>
<!-- IO::Path::Cygwin -->
<g id="node8" class="node">
<title>IO::Path::Cygwin</title>
<g id="a_node8"><a xlink:href="/type/IO::Path::Cygwin" xlink:title="IO::Path::Cygwin">
<ellipse fill="none" stroke="#000000" cx="397.44" cy="-18" rx="77.19" ry="18"/>
<text text-anchor="middle" x="397.44" y="-14.3" font-family="FreeSans" font-size="14.00" fill="#000000">IO::Path::Cygwin</text>
</a>
</g>
</g>
<!-- IO::Path::Cygwin&#45;&gt;IO::Path -->
<g id="edge6" class="edge">
<title>IO::Path::Cygwin&#45;&gt;IO::Path</title>
<path fill="none" stroke="#000000" d="M378.01,-35.59C367.08,-44.92 353.3,-56.69 341.45,-66.8"/>
<polygon fill="#000000" stroke="#000000" points="338.95,-64.33 333.61,-73.49 343.49,-69.66 338.95,-64.33"/>
</g>
<!-- IO::Path::Unix -->
<g id="node9" class="node">
<title>IO::Path::Unix</title>
<g id="a_node9"><a xlink:href="/type/IO::Path::Unix" xlink:title="IO::Path::Unix">
<ellipse fill="none" stroke="#000000" cx="558.44" cy="-18" rx="65.79" ry="18"/>
<text text-anchor="middle" x="558.44" y="-14.3" font-family="FreeSans" font-size="14.00" fill="#000000">IO::Path::Unix</text>
</a>
</g>
</g>
<!-- IO::Path::Unix&#45;&gt;IO::Path -->
<g id="edge7" class="edge">
<title>IO::Path::Unix&#45;&gt;IO::Path</title>
<path fill="none" stroke="#000000" d="M515,-31.51C471.31,-44.1 404.26,-63.42 360.13,-76.13"/>
<polygon fill="#000000" stroke="#000000" points="358.89,-72.84 350.25,-78.97 360.83,-79.57 358.89,-72.84"/>
</g>
</g>
</svg>
