<?xml version="1.0" encoding="UTF-8" standalone="no"?>
<!DOCTYPE svg PUBLIC "-//W3C//DTD SVG 1.1//EN"
 "http://www.w3.org/Graphics/SVG/1.1/DTD/svg11.dtd">
<!-- Generated by graphviz version 2.43.0 (0)
 -->
<!-- Title: raku&#45;type&#45;graph Pages: 1 -->
<svg width="632pt" height="332pt"
 viewBox="0.00 0.00 631.69 332.00" xmlns="http://www.w3.org/2000/svg" xmlns:xlink="http://www.w3.org/1999/xlink">
<g id="graph0" class="graph" transform="scale(1 1) rotate(0) translate(4 328)">
<title>raku&#45;type&#45;graph</title>
<polygon fill="#ffffff" stroke="transparent" points="-4,4 -4,-328 627.69,-328 627.69,4 -4,4"/>
<!-- IO::Path -->
<g id="node1" class="node">
<title>IO::Path</title>
<g id="a_node1"><a xlink:href="/type/IO::Path" xlink:title="IO::Path">
<ellipse fill="none" stroke="#000000" cx="312.24" cy="-90" rx="43.59" ry="18"/>
<text text-anchor="middle" x="312.24" y="-86.3" font-family="FreeSans" font-size="14.00" fill="#000000">IO::Path</text>
</a>
</g>
</g>
<!-- Cool -->
<g id="node4" class="node">
<title>Cool</title>
<g id="a_node4"><a xlink:href="/type/Cool" xlink:title="Cool">
<ellipse fill="none" stroke="#000000" cx="275.24" cy="-162" rx="28.7" ry="18"/>
<text text-anchor="middle" x="275.24" y="-158.3" font-family="FreeSans" font-size="14.00" fill="#000000">Cool</text>
</a>
</g>
</g>
<!-- IO::Path&#45;&gt;Cool -->
<g id="edge1" class="edge">
<title>IO::Path&#45;&gt;Cool</title>
<path fill="none" stroke="#000000" d="M303.29,-107.95C298.91,-116.23 293.54,-126.38 288.68,-135.58"/>
<polygon fill="#000000" stroke="#000000" points="285.44,-134.22 283.86,-144.69 291.63,-137.49 285.44,-134.22"/>
</g>
<!-- IO -->
<g id="node5" class="node">
<title>IO</title>
<g id="a_node5"><a xlink:href="/type/IO" xlink:title="IO">
<ellipse fill="none" stroke="#6666ff" cx="349.24" cy="-162" rx="27" ry="18"/>
<text text-anchor="middle" x="349.24" y="-158.3" font-family="FreeSans" font-size="14.00" fill="#6666ff">IO</text>
</a>
</g>
</g>
<!-- IO::Path&#45;&gt;IO -->
<g id="edge8" class="edge">
<title>IO::Path&#45;&gt;IO</title>
<path fill="none" stroke="#6666ff" d="M321.2,-107.95C325.58,-116.23 330.95,-126.38 335.81,-135.58"/>
<polygon fill="#6666ff" stroke="#6666ff" points="332.86,-137.49 340.62,-144.69 339.05,-134.22 332.86,-137.49"/>
</g>
<!-- Mu -->
<g id="node2" class="node">
<title>Mu</title>
<g id="a_node2"><a xlink:href="/type/Mu" xlink:title="Mu">
<ellipse fill="none" stroke="#000000" cx="275.24" cy="-306" rx="27" ry="18"/>
<text text-anchor="middle" x="275.24" y="-302.3" font-family="FreeSans" font-size="14.00" fill="#000000">Mu</text>
</a>
</g>
</g>
<!-- Any -->
<g id="node3" class="node">
<title>Any</title>
<g id="a_node3"><a xlink:href="/type/Any" xlink:title="Any">
<ellipse fill="none" stroke="#000000" cx="275.24" cy="-234" rx="27" ry="18"/>
<text text-anchor="middle" x="275.24" y="-230.3" font-family="FreeSans" font-size="14.00" fill="#000000">Any</text>
</a>
</g>
</g>
<!-- Any&#45;&gt;Mu -->
<g id="edge2" class="edge">
<title>Any&#45;&gt;Mu</title>
<path fill="none" stroke="#000000" d="M275.24,-252.3C275.24,-260.02 275.24,-269.29 275.24,-277.89"/>
<polygon fill="#000000" stroke="#000000" points="271.74,-277.9 275.24,-287.9 278.74,-277.9 271.74,-277.9"/>
</g>
<!-- Cool&#45;&gt;Any -->
<g id="edge3" class="edge">
<title>Cool&#45;&gt;Any</title>
<path fill="none" stroke="#000000" d="M275.24,-180.3C275.24,-188.02 275.24,-197.29 275.24,-205.89"/>
<polygon fill="#000000" stroke="#000000" points="271.74,-205.9 275.24,-215.9 278.74,-205.9 271.74,-205.9"/>
</g>
<!-- IO::Path::QNX -->
<g id="node6" class="node">
<title>IO::Path::QNX</title>
<g id="a_node6"><a xlink:href="/type/IO::Path::QNX" xlink:title="IO::Path::QNX">
<ellipse fill="none" stroke="#000000" cx="68.24" cy="-18" rx="68.49" ry="18"/>
<text text-anchor="middle" x="68.24" y="-14.3" font-family="FreeSans" font-size="14.00" fill="#000000">IO::Path::QNX</text>
</a>
</g>
</g>
<!-- IO::Path::QNX&#45;&gt;IO::Path -->
<g id="edge4" class="edge">
<title>IO::Path::QNX&#45;&gt;IO::Path</title>
<path fill="none" stroke="#000000" d="M112.71,-31.76C156.71,-44.38 223.67,-63.59 267.7,-76.22"/>
<polygon fill="#000000" stroke="#000000" points="266.97,-79.65 277.54,-79.05 268.9,-72.92 266.97,-79.65"/>
</g>
<!-- IO::Path::Cygwin -->
<g id="node7" class="node">
<title>IO::Path::Cygwin</title>
<g id="a_node7"><a xlink:href="/type/IO::Path::Cygwin" xlink:title="IO::Path::Cygwin">
<ellipse fill="none" stroke="#000000" cx="232.24" cy="-18" rx="77.19" ry="18"/>
<text text-anchor="middle" x="232.24" y="-14.3" font-family="FreeSans" font-size="14.00" fill="#000000">IO::Path::Cygwin</text>
</a>
</g>
</g>
<!-- IO::Path::Cygwin&#45;&gt;IO::Path -->
<g id="edge5" class="edge">
<title>IO::Path::Cygwin&#45;&gt;IO::Path</title>
<path fill="none" stroke="#000000" d="M251.2,-35.59C261.86,-44.92 275.31,-56.69 286.87,-66.8"/>
<polygon fill="#000000" stroke="#000000" points="284.69,-69.54 294.52,-73.49 289.3,-64.27 284.69,-69.54"/>
</g>
<!-- IO::Path::Unix -->
<g id="node8" class="node">
<title>IO::Path::Unix</title>
<g id="a_node8"><a xlink:href="/type/IO::Path::Unix" xlink:title="IO::Path::Unix">
<ellipse fill="none" stroke="#000000" cx="393.24" cy="-18" rx="65.79" ry="18"/>
<text text-anchor="middle" x="393.24" y="-14.3" font-family="FreeSans" font-size="14.00" fill="#000000">IO::Path::Unix</text>
</a>
</g>
</g>
<!-- IO::Path::Unix&#45;&gt;IO::Path -->
<g id="edge6" class="edge">
<title>IO::Path::Unix&#45;&gt;IO::Path</title>
<path fill="none" stroke="#000000" d="M374.05,-35.59C363.25,-44.92 349.63,-56.69 337.93,-66.8"/>
<polygon fill="#000000" stroke="#000000" points="335.47,-64.3 330.19,-73.49 340.05,-69.6 335.47,-64.3"/>
</g>
<!-- IO::Path::Win32 -->
<g id="node9" class="node">
<title>IO::Path::Win32</title>
<g id="a_node9"><a xlink:href="/type/IO::Path::Win32" xlink:title="IO::Path::Win32">
<ellipse fill="none" stroke="#000000" cx="550.24" cy="-18" rx="73.39" ry="18"/>
<text text-anchor="middle" x="550.24" y="-14.3" font-family="FreeSans" font-size="14.00" fill="#000000">IO::Path::Win32</text>
</a>
</g>
</g>
<!-- IO::Path::Win32&#45;&gt;IO::Path -->
<g id="edge7" class="edge">
<title>IO::Path::Win32&#45;&gt;IO::Path</title>
<path fill="none" stroke="#000000" d="M505.2,-32.25C462.53,-44.8 398.85,-63.53 356.45,-76"/>
<polygon fill="#000000" stroke="#000000" points="355.3,-72.69 346.69,-78.87 357.27,-79.4 355.3,-72.69"/>
</g>
</g>
</svg>
