<?xml version="1.0" encoding="UTF-8" standalone="no"?>
<!DOCTYPE svg PUBLIC "-//W3C//DTD SVG 1.1//EN"
 "http://www.w3.org/Graphics/SVG/1.1/DTD/svg11.dtd">
<!-- Generated by graphviz version 2.43.0 (0)
 -->
<!-- Title: raku&#45;type&#45;graph Pages: 1 -->
<svg width="685pt" height="404pt"
 viewBox="0.00 0.00 684.69 404.00" xmlns="http://www.w3.org/2000/svg" xmlns:xlink="http://www.w3.org/1999/xlink">
<g id="graph0" class="graph" transform="scale(1 1) rotate(0) translate(4 400)">
<title>raku&#45;type&#45;graph</title>
<polygon fill="#ffffff" stroke="transparent" points="-4,4 -4,-400 680.69,-400 680.69,4 -4,4"/>
<!-- Iterable -->
<g id="node1" class="node">
<title>Iterable</title>
<g id="a_node1"><a xlink:href="/type/Iterable" xlink:title="Iterable">
<ellipse fill="none" stroke="#6666ff" cx="263.8" cy="-234" rx="40.09" ry="18"/>
<text text-anchor="middle" x="263.8" y="-230.3" font-family="FreeSans" font-size="14.00" fill="#6666ff">Iterable</text>
</a>
</g>
</g>
<!-- Mu -->
<g id="node2" class="node">
<title>Mu</title>
<g id="a_node2"><a xlink:href="/type/Mu" xlink:title="Mu">
<ellipse fill="none" stroke="#000000" cx="304.8" cy="-378" rx="27" ry="18"/>
<text text-anchor="middle" x="304.8" y="-374.3" font-family="FreeSans" font-size="14.00" fill="#000000">Mu</text>
</a>
</g>
</g>
<!-- Any -->
<g id="node3" class="node">
<title>Any</title>
<g id="a_node3"><a xlink:href="/type/Any" xlink:title="Any">
<ellipse fill="none" stroke="#000000" cx="304.8" cy="-306" rx="27" ry="18"/>
<text text-anchor="middle" x="304.8" y="-302.3" font-family="FreeSans" font-size="14.00" fill="#000000">Any</text>
</a>
</g>
</g>
<!-- Any&#45;&gt;Mu -->
<g id="edge1" class="edge">
<title>Any&#45;&gt;Mu</title>
<path fill="none" stroke="#000000" d="M304.8,-324.3C304.8,-332.02 304.8,-341.29 304.8,-349.89"/>
<polygon fill="#000000" stroke="#000000" points="301.3,-349.9 304.8,-359.9 308.3,-349.9 301.3,-349.9"/>
</g>
<!-- Cool -->
<g id="node4" class="node">
<title>Cool</title>
<g id="a_node4"><a xlink:href="/type/Cool" xlink:title="Cool">
<ellipse fill="none" stroke="#000000" cx="350.8" cy="-234" rx="28.7" ry="18"/>
<text text-anchor="middle" x="350.8" y="-230.3" font-family="FreeSans" font-size="14.00" fill="#000000">Cool</text>
</a>
</g>
</g>
<!-- Cool&#45;&gt;Any -->
<g id="edge2" class="edge">
<title>Cool&#45;&gt;Any</title>
<path fill="none" stroke="#000000" d="M340.36,-250.88C334.59,-259.66 327.31,-270.74 320.84,-280.58"/>
<polygon fill="#000000" stroke="#000000" points="317.76,-278.9 315.19,-289.18 323.61,-282.74 317.76,-278.9"/>
</g>
<!-- Associative -->
<g id="node5" class="node">
<title>Associative</title>
<g id="a_node5"><a xlink:href="/type/Associative" xlink:title="Associative">
<ellipse fill="none" stroke="#6666ff" cx="567.8" cy="-234" rx="55.49" ry="18"/>
<text text-anchor="middle" x="567.8" y="-230.3" font-family="FreeSans" font-size="14.00" fill="#6666ff">Associative</text>
</a>
</g>
</g>
<!-- Map -->
<g id="node6" class="node">
<title>Map</title>
<g id="a_node6"><a xlink:href="/type/Map" xlink:title="Map">
<ellipse fill="none" stroke="#000000" cx="492.8" cy="-162" rx="28.7" ry="18"/>
<text text-anchor="middle" x="492.8" y="-158.3" font-family="FreeSans" font-size="14.00" fill="#000000">Map</text>
</a>
</g>
</g>
<!-- Map&#45;&gt;Iterable -->
<g id="edge15" class="edge">
<title>Map&#45;&gt;Iterable</title>
<path fill="none" stroke="#6666ff" d="M470.25,-173.09C462.07,-176.75 454.8,-180 454.8,-180 454.8,-180 312.8,-216 312.8,-216 312.8,-216 309.35,-217.2 304.28,-218.95"/>
<polygon fill="#6666ff" stroke="#6666ff" points="302.85,-215.75 294.55,-222.33 305.14,-222.36 302.85,-215.75"/>
</g>
<!-- Map&#45;&gt;Cool -->
<g id="edge3" class="edge">
<title>Map&#45;&gt;Cool</title>
<path fill="none" stroke="#000000" d="M470.92,-173.78C447.12,-185.52 408.87,-204.37 381.94,-217.65"/>
<polygon fill="#000000" stroke="#000000" points="380.35,-214.53 372.93,-222.09 383.45,-220.81 380.35,-214.53"/>
</g>
<!-- Map&#45;&gt;Associative -->
<g id="edge16" class="edge">
<title>Map&#45;&gt;Associative</title>
<path fill="none" stroke="#6666ff" d="M508.34,-177.5C518.31,-186.81 531.47,-199.1 542.88,-209.75"/>
<polygon fill="#6666ff" stroke="#6666ff" points="540.74,-212.54 550.44,-216.8 545.52,-207.42 540.74,-212.54"/>
</g>
<!-- Positional -->
<g id="node7" class="node">
<title>Positional</title>
<g id="a_node7"><a xlink:href="/type/Positional" xlink:title="Positional">
<ellipse fill="none" stroke="#6666ff" cx="445.8" cy="-234" rx="48.99" ry="18"/>
<text text-anchor="middle" x="445.8" y="-230.3" font-family="FreeSans" font-size="14.00" fill="#6666ff">Positional</text>
</a>
</g>
</g>
<!-- List -->
<g id="node8" class="node">
<title>List</title>
<g id="a_node8"><a xlink:href="/type/List" xlink:title="List">
<ellipse fill="none" stroke="#000000" cx="328.8" cy="-162" rx="27" ry="18"/>
<text text-anchor="middle" x="328.8" y="-158.3" font-family="FreeSans" font-size="14.00" fill="#000000">List</text>
</a>
</g>
</g>
<!-- List&#45;&gt;Iterable -->
<g id="edge18" class="edge">
<title>List&#45;&gt;Iterable</title>
<path fill="none" stroke="#6666ff" d="M315.01,-177.85C306.46,-187.06 295.28,-199.09 285.55,-209.57"/>
<polygon fill="#6666ff" stroke="#6666ff" points="282.7,-207.49 278.46,-217.2 287.83,-212.26 282.7,-207.49"/>
</g>
<!-- List&#45;&gt;Cool -->
<g id="edge4" class="edge">
<title>List&#45;&gt;Cool</title>
<path fill="none" stroke="#000000" d="M334.12,-179.95C336.63,-187.94 339.69,-197.67 342.5,-206.6"/>
<polygon fill="#000000" stroke="#000000" points="339.18,-207.72 345.52,-216.21 345.86,-205.62 339.18,-207.72"/>
</g>
<!-- List&#45;&gt;Positional -->
<g id="edge17" class="edge">
<title>List&#45;&gt;Positional</title>
<path fill="none" stroke="#6666ff" d="M348.38,-174.72C365.83,-185.16 391.74,-200.66 412.46,-213.05"/>
<polygon fill="#6666ff" stroke="#6666ff" points="410.89,-216.19 421.27,-218.32 414.48,-210.19 410.89,-216.19"/>
</g>
<!-- PositionalBindFailover -->
<g id="node9" class="node">
<title>PositionalBindFailover</title>
<g id="a_node9"><a xlink:href="/type/PositionalBindFailover" xlink:title="PositionalBindFailover">
<ellipse fill="none" stroke="#6666ff" cx="117.8" cy="-306" rx="97.48" ry="18"/>
<text text-anchor="middle" x="117.8" y="-302.3" font-family="FreeSans" font-size="14.00" fill="#6666ff">PositionalBindFailover</text>
</a>
</g>
</g>
<!-- Sequence -->
<g id="node10" class="node">
<title>Sequence</title>
<g id="a_node10"><a xlink:href="/type/Sequence" xlink:title="Sequence">
<ellipse fill="none" stroke="#6666ff" cx="117.8" cy="-234" rx="50.09" ry="18"/>
<text text-anchor="middle" x="117.8" y="-230.3" font-family="FreeSans" font-size="14.00" fill="#6666ff">Sequence</text>
</a>
</g>
</g>
<!-- Sequence&#45;&gt;PositionalBindFailover -->
<g id="edge19" class="edge">
<title>Sequence&#45;&gt;PositionalBindFailover</title>
<path fill="none" stroke="#6666ff" d="M117.8,-252.3C117.8,-260.02 117.8,-269.29 117.8,-277.89"/>
<polygon fill="#6666ff" stroke="#6666ff" points="114.3,-277.9 117.8,-287.9 121.3,-277.9 114.3,-277.9"/>
</g>
<!-- Seq -->
<g id="node11" class="node">
<title>Seq</title>
<g id="a_node11"><a xlink:href="/type/Seq" xlink:title="Seq">
<ellipse fill="none" stroke="#000000" cx="256.8" cy="-162" rx="27" ry="18"/>
<text text-anchor="middle" x="256.8" y="-158.3" font-family="FreeSans" font-size="14.00" fill="#000000">Seq</text>
</a>
</g>
</g>
<!-- Seq&#45;&gt;Iterable -->
<g id="edge20" class="edge">
<title>Seq&#45;&gt;Iterable</title>
<path fill="none" stroke="#6666ff" d="M258.53,-180.3C259.3,-188.02 260.22,-197.29 261.08,-205.89"/>
<polygon fill="#6666ff" stroke="#6666ff" points="257.61,-206.29 262.09,-215.9 264.57,-205.6 257.61,-206.29"/>
</g>
<!-- Seq&#45;&gt;Cool -->
<g id="edge5" class="edge">
<title>Seq&#45;&gt;Cool</title>
<path fill="none" stroke="#000000" d="M274.48,-176.17C288.57,-186.66 308.51,-201.51 324.48,-213.4"/>
<polygon fill="#000000" stroke="#000000" points="322.76,-216.49 332.87,-219.65 326.94,-210.87 322.76,-216.49"/>
</g>
<!-- Seq&#45;&gt;Sequence -->
<g id="edge21" class="edge">
<title>Seq&#45;&gt;Sequence</title>
<path fill="none" stroke="#6666ff" d="M235.99,-173.48C214.6,-184.25 180.87,-201.24 154.9,-214.31"/>
<polygon fill="#6666ff" stroke="#6666ff" points="153.08,-211.31 145.72,-218.94 156.23,-217.56 153.08,-211.31"/>
</g>
<!-- RaceSeq -->
<g id="node12" class="node">
<title>RaceSeq</title>
<g id="a_node12"><a xlink:href="/type/RaceSeq" xlink:title="RaceSeq">
<ellipse fill="none" stroke="#000000" cx="46.8" cy="-162" rx="46.59" ry="18"/>
<text text-anchor="middle" x="46.8" y="-158.3" font-family="FreeSans" font-size="14.00" fill="#000000">RaceSeq</text>
</a>
</g>
</g>
<!-- RaceSeq&#45;&gt;Iterable -->
<g id="edge22" class="edge">
<title>RaceSeq&#45;&gt;Iterable</title>
<path fill="none" stroke="#6666ff" d="M81.66,-174.25C120.07,-186.64 181.78,-206.54 222.56,-219.7"/>
<polygon fill="#6666ff" stroke="#6666ff" points="221.6,-223.07 232.19,-222.81 223.75,-216.4 221.6,-223.07"/>
</g>
<!-- RaceSeq&#45;&gt;Any -->
<g id="edge6" class="edge">
<title>RaceSeq&#45;&gt;Any</title>
<path fill="none" stroke="#000000" d="M49.11,-180.16C52.6,-206.02 58.8,-252 58.8,-252 58.8,-252 201.51,-282.75 269.54,-297.4"/>
<polygon fill="#000000" stroke="#000000" points="268.88,-300.84 279.4,-299.53 270.36,-294 268.88,-300.84"/>
</g>
<!-- RaceSeq&#45;&gt;Sequence -->
<g id="edge23" class="edge">
<title>RaceSeq&#45;&gt;Sequence</title>
<path fill="none" stroke="#6666ff" d="M63.26,-179.24C72.4,-188.25 83.93,-199.61 94.04,-209.57"/>
<polygon fill="#6666ff" stroke="#6666ff" points="91.84,-212.32 101.42,-216.85 96.75,-207.34 91.84,-212.32"/>
</g>
<!-- Range -->
<g id="node13" class="node">
<title>Range</title>
<g id="a_node13"><a xlink:href="/type/Range" xlink:title="Range">
<ellipse fill="none" stroke="#000000" cx="409.8" cy="-162" rx="36.29" ry="18"/>
<text text-anchor="middle" x="409.8" y="-158.3" font-family="FreeSans" font-size="14.00" fill="#000000">Range</text>
</a>
</g>
</g>
<!-- Range&#45;&gt;Iterable -->
<g id="edge25" class="edge">
<title>Range&#45;&gt;Iterable</title>
<path fill="none" stroke="#6666ff" d="M384.36,-175.19C360.93,-186.43 325.93,-203.21 299.66,-215.81"/>
<polygon fill="#6666ff" stroke="#6666ff" points="297.92,-212.76 290.42,-220.24 300.95,-219.07 297.92,-212.76"/>
</g>
<!-- Range&#45;&gt;Cool -->
<g id="edge7" class="edge">
<title>Range&#45;&gt;Cool</title>
<path fill="none" stroke="#000000" d="M396.41,-178.88C388.68,-188.05 378.83,-199.74 370.26,-209.91"/>
<polygon fill="#000000" stroke="#000000" points="367.49,-207.76 363.73,-217.66 372.85,-212.27 367.49,-207.76"/>
</g>
<!-- Range&#45;&gt;Positional -->
<g id="edge24" class="edge">
<title>Range&#45;&gt;Positional</title>
<path fill="none" stroke="#6666ff" d="M418.33,-179.59C422.52,-187.75 427.68,-197.78 432.39,-206.93"/>
<polygon fill="#6666ff" stroke="#6666ff" points="429.39,-208.75 437.08,-216.04 435.61,-205.55 429.39,-208.75"/>
</g>
<!-- HyperSeq -->
<g id="node14" class="node">
<title>HyperSeq</title>
<g id="a_node14"><a xlink:href="/type/HyperSeq" xlink:title="HyperSeq">
<ellipse fill="none" stroke="#000000" cx="161.8" cy="-162" rx="50.09" ry="18"/>
<text text-anchor="middle" x="161.8" y="-158.3" font-family="FreeSans" font-size="14.00" fill="#000000">HyperSeq</text>
</a>
</g>
</g>
<!-- HyperSeq&#45;&gt;Iterable -->
<g id="edge26" class="edge">
<title>HyperSeq&#45;&gt;Iterable</title>
<path fill="none" stroke="#6666ff" d="M183.93,-178.19C198.66,-188.3 218.18,-201.7 234.24,-212.72"/>
<polygon fill="#6666ff" stroke="#6666ff" points="232.53,-215.79 242.75,-218.56 236.49,-210.01 232.53,-215.79"/>
</g>
<!-- HyperSeq&#45;&gt;Any -->
<g id="edge8" class="edge">
<title>HyperSeq&#45;&gt;Any</title>
<path fill="none" stroke="#000000" d="M171.76,-179.74C187.12,-205.52 214.8,-252 214.8,-252 214.8,-252 250.01,-272.73 276.38,-288.27"/>
<polygon fill="#000000" stroke="#000000" points="274.87,-291.44 285.27,-293.5 278.43,-285.41 274.87,-291.44"/>
</g>
<!-- HyperSeq&#45;&gt;Sequence -->
<g id="edge27" class="edge">
<title>HyperSeq&#45;&gt;Sequence</title>
<path fill="none" stroke="#6666ff" d="M151.14,-179.95C145.96,-188.2 139.61,-198.3 133.85,-207.46"/>
<polygon fill="#6666ff" stroke="#6666ff" points="130.71,-205.88 128.35,-216.21 136.63,-209.61 130.71,-205.88"/>
</g>
<!-- IO::Path::Parts -->
<g id="node15" class="node">
<title>IO::Path::Parts</title>
<g id="a_node15"><a xlink:href="/type/IO::Path::Parts" xlink:title="IO::Path::Parts">
<ellipse fill="none" stroke="#000000" cx="607.8" cy="-162" rx="68.79" ry="18"/>
<text text-anchor="middle" x="607.8" y="-158.3" font-family="FreeSans" font-size="14.00" fill="#000000">IO::Path::Parts</text>
</a>
</g>
</g>
<!-- IO::Path::Parts&#45;&gt;Iterable -->
<g id="edge30" class="edge">
<title>IO::Path::Parts&#45;&gt;Iterable</title>
<path fill="none" stroke="#6666ff" d="M556.86,-174.24C542.55,-177.41 530.8,-180 530.8,-180 530.8,-180 312.8,-216 312.8,-216 312.8,-216 309.35,-217.2 304.28,-218.95"/>
<polygon fill="#6666ff" stroke="#6666ff" points="302.85,-215.75 294.55,-222.33 305.14,-222.36 302.85,-215.75"/>
</g>
<!-- IO::Path::Parts&#45;&gt;Any -->
<g id="edge9" class="edge">
<title>IO::Path::Parts&#45;&gt;Any</title>
<path fill="none" stroke="#000000" d="M615.52,-180.06C622.54,-195.55 631.8,-216 631.8,-216 631.8,-216 631.8,-252 631.8,-252 631.8,-252 425.63,-285.42 340.7,-299.18"/>
<polygon fill="#000000" stroke="#000000" points="340.04,-295.74 330.73,-300.8 341.16,-302.65 340.04,-295.74"/>
</g>
<!-- IO::Path::Parts&#45;&gt;Associative -->
<g id="edge29" class="edge">
<title>IO::Path::Parts&#45;&gt;Associative</title>
<path fill="none" stroke="#6666ff" d="M598.11,-179.95C593.4,-188.2 587.63,-198.3 582.39,-207.46"/>
<polygon fill="#6666ff" stroke="#6666ff" points="579.31,-205.79 577.39,-216.21 585.39,-209.27 579.31,-205.79"/>
</g>
<!-- IO::Path::Parts&#45;&gt;Positional -->
<g id="edge28" class="edge">
<title>IO::Path::Parts&#45;&gt;Positional</title>
<path fill="none" stroke="#6666ff" d="M573.84,-177.67C548.02,-188.83 512.46,-204.19 485.36,-215.9"/>
<polygon fill="#6666ff" stroke="#6666ff" points="483.95,-212.7 476.16,-219.88 486.73,-219.13 483.95,-212.7"/>
</g>
<!-- Hash -->
<g id="node16" class="node">
<title>Hash</title>
<g id="a_node16"><a xlink:href="/type/Hash" xlink:title="Hash">
<ellipse fill="none" stroke="#000000" cx="471.8" cy="-90" rx="31.4" ry="18"/>
<text text-anchor="middle" x="471.8" y="-86.3" font-family="FreeSans" font-size="14.00" fill="#000000">Hash</text>
</a>
</g>
</g>
<!-- Hash&#45;&gt;Map -->
<g id="edge10" class="edge">
<title>Hash&#45;&gt;Map</title>
<path fill="none" stroke="#000000" d="M476.88,-107.95C479.28,-115.94 482.2,-125.67 484.88,-134.6"/>
<polygon fill="#000000" stroke="#000000" points="481.53,-135.64 487.76,-144.21 488.24,-133.63 481.53,-135.64"/>
</g>
<!-- PseudoStash -->
<g id="node17" class="node">
<title>PseudoStash</title>
<g id="a_node17"><a xlink:href="/type/PseudoStash" xlink:title="PseudoStash">
<ellipse fill="none" stroke="#000000" cx="583.8" cy="-90" rx="63.09" ry="18"/>
<text text-anchor="middle" x="583.8" y="-86.3" font-family="FreeSans" font-size="14.00" fill="#000000">PseudoStash</text>
</a>
</g>
</g>
<!-- PseudoStash&#45;&gt;Map -->
<g id="edge11" class="edge">
<title>PseudoStash&#45;&gt;Map</title>
<path fill="none" stroke="#000000" d="M562.69,-107.24C549.47,-117.4 532.35,-130.57 518.37,-141.33"/>
<polygon fill="#000000" stroke="#000000" points="515.92,-138.8 510.13,-147.67 520.19,-144.35 515.92,-138.8"/>
</g>
<!-- Slip -->
<g id="node18" class="node">
<title>Slip</title>
<g id="a_node18"><a xlink:href="/type/Slip" xlink:title="Slip">
<ellipse fill="none" stroke="#000000" cx="272.8" cy="-90" rx="27" ry="18"/>
<text text-anchor="middle" x="272.8" y="-86.3" font-family="FreeSans" font-size="14.00" fill="#000000">Slip</text>
</a>
</g>
</g>
<!-- Slip&#45;&gt;List -->
<g id="edge12" class="edge">
<title>Slip&#45;&gt;List</title>
<path fill="none" stroke="#000000" d="M284.95,-106.19C292.36,-115.45 301.98,-127.48 310.32,-137.91"/>
<polygon fill="#000000" stroke="#000000" points="307.69,-140.22 316.67,-145.84 313.15,-135.85 307.69,-140.22"/>
</g>
<!-- Array -->
<g id="node19" class="node">
<title>Array</title>
<g id="a_node19"><a xlink:href="/type/Array" xlink:title="Array">
<ellipse fill="none" stroke="#000000" cx="349.8" cy="-90" rx="31.7" ry="18"/>
<text text-anchor="middle" x="349.8" y="-86.3" font-family="FreeSans" font-size="14.00" fill="#000000">Array</text>
</a>
</g>
</g>
<!-- Array&#45;&gt;List -->
<g id="edge13" class="edge">
<title>Array&#45;&gt;List</title>
<path fill="none" stroke="#000000" d="M344.71,-107.95C342.31,-115.94 339.4,-125.67 336.72,-134.6"/>
<polygon fill="#000000" stroke="#000000" points="333.35,-133.63 333.83,-144.21 340.06,-135.64 333.35,-133.63"/>
</g>
<!-- Stash -->
<g id="node20" class="node">
<title>Stash</title>
<g id="a_node20"><a xlink:href="/type/Stash" xlink:title="Stash">
<ellipse fill="none" stroke="#000000" cx="471.8" cy="-18" rx="33.29" ry="18"/>
<text text-anchor="middle" x="471.8" y="-14.3" font-family="FreeSans" font-size="14.00" fill="#000000">Stash</text>
</a>
</g>
</g>
<!-- Stash&#45;&gt;Hash -->
<g id="edge14" class="edge">
<title>Stash&#45;&gt;Hash</title>
<path fill="none" stroke="#000000" d="M471.8,-36.3C471.8,-44.02 471.8,-53.29 471.8,-61.89"/>
<polygon fill="#000000" stroke="#000000" points="468.3,-61.9 471.8,-71.9 475.3,-61.9 468.3,-61.9"/>
</g>
</g>
</svg>
