<?xml version="1.0" encoding="UTF-8" standalone="no"?>
<!DOCTYPE svg PUBLIC "-//W3C//DTD SVG 1.1//EN"
 "http://www.w3.org/Graphics/SVG/1.1/DTD/svg11.dtd">
<!-- Generated by graphviz version 2.43.0 (0)
 -->
<!-- Title: raku&#45;type&#45;graph Pages: 1 -->
<svg width="685pt" height="404pt"
 viewBox="0.00 0.00 684.69 404.00" xmlns="http://www.w3.org/2000/svg" xmlns:xlink="http://www.w3.org/1999/xlink">
<g id="graph0" class="graph" transform="scale(1 1) rotate(0) translate(4 400)">
<title>raku&#45;type&#45;graph</title>
<polygon fill="#ffffff" stroke="transparent" points="-4,4 -4,-400 680.69,-400 680.69,4 -4,4"/>
<!-- Iterable -->
<g id="node1" class="node">
<title>Iterable</title>
<g id="a_node1"><a xlink:href="/type/Iterable" xlink:title="Iterable">
<ellipse fill="none" stroke="#6666ff" cx="412.89" cy="-234" rx="40.09" ry="18"/>
<text text-anchor="middle" x="412.89" y="-230.3" font-family="FreeSans" font-size="14.00" fill="#6666ff">Iterable</text>
</a>
</g>
</g>
<!-- Mu -->
<g id="node2" class="node">
<title>Mu</title>
<g id="a_node2"><a xlink:href="/type/Mu" xlink:title="Mu">
<ellipse fill="none" stroke="#000000" cx="371.89" cy="-378" rx="27" ry="18"/>
<text text-anchor="middle" x="371.89" y="-374.3" font-family="FreeSans" font-size="14.00" fill="#000000">Mu</text>
</a>
</g>
</g>
<!-- Any -->
<g id="node3" class="node">
<title>Any</title>
<g id="a_node3"><a xlink:href="/type/Any" xlink:title="Any">
<ellipse fill="none" stroke="#000000" cx="371.89" cy="-306" rx="27" ry="18"/>
<text text-anchor="middle" x="371.89" y="-302.3" font-family="FreeSans" font-size="14.00" fill="#000000">Any</text>
</a>
</g>
</g>
<!-- Any&#45;&gt;Mu -->
<g id="edge1" class="edge">
<title>Any&#45;&gt;Mu</title>
<path fill="none" stroke="#000000" d="M371.89,-324.3C371.89,-332.02 371.89,-341.29 371.89,-349.89"/>
<polygon fill="#000000" stroke="#000000" points="368.39,-349.9 371.89,-359.9 375.39,-349.9 368.39,-349.9"/>
</g>
<!-- Cool -->
<g id="node4" class="node">
<title>Cool</title>
<g id="a_node4"><a xlink:href="/type/Cool" xlink:title="Cool">
<ellipse fill="none" stroke="#000000" cx="325.89" cy="-234" rx="28.7" ry="18"/>
<text text-anchor="middle" x="325.89" y="-230.3" font-family="FreeSans" font-size="14.00" fill="#000000">Cool</text>
</a>
</g>
</g>
<!-- Cool&#45;&gt;Any -->
<g id="edge2" class="edge">
<title>Cool&#45;&gt;Any</title>
<path fill="none" stroke="#000000" d="M336.33,-250.88C342.1,-259.66 349.38,-270.74 355.85,-280.58"/>
<polygon fill="#000000" stroke="#000000" points="353.08,-282.74 361.5,-289.18 358.93,-278.9 353.08,-282.74"/>
</g>
<!-- Associative -->
<g id="node5" class="node">
<title>Associative</title>
<g id="a_node5"><a xlink:href="/type/Associative" xlink:title="Associative">
<ellipse fill="none" stroke="#6666ff" cx="108.89" cy="-234" rx="55.49" ry="18"/>
<text text-anchor="middle" x="108.89" y="-230.3" font-family="FreeSans" font-size="14.00" fill="#6666ff">Associative</text>
</a>
</g>
</g>
<!-- Map -->
<g id="node6" class="node">
<title>Map</title>
<g id="a_node6"><a xlink:href="/type/Map" xlink:title="Map">
<ellipse fill="none" stroke="#000000" cx="183.89" cy="-162" rx="28.7" ry="18"/>
<text text-anchor="middle" x="183.89" y="-158.3" font-family="FreeSans" font-size="14.00" fill="#000000">Map</text>
</a>
</g>
</g>
<!-- Map&#45;&gt;Iterable -->
<g id="edge15" class="edge">
<title>Map&#45;&gt;Iterable</title>
<path fill="none" stroke="#6666ff" d="M206.44,-173.09C214.62,-176.75 221.89,-180 221.89,-180 221.89,-180 363.89,-216 363.89,-216 363.89,-216 367.34,-217.2 372.41,-218.95"/>
<polygon fill="#6666ff" stroke="#6666ff" points="371.54,-222.36 382.14,-222.33 373.84,-215.75 371.54,-222.36"/>
</g>
<!-- Map&#45;&gt;Cool -->
<g id="edge3" class="edge">
<title>Map&#45;&gt;Cool</title>
<path fill="none" stroke="#000000" d="M205.77,-173.78C229.57,-185.52 267.82,-204.37 294.75,-217.65"/>
<polygon fill="#000000" stroke="#000000" points="293.24,-220.81 303.76,-222.09 296.34,-214.53 293.24,-220.81"/>
</g>
<!-- Map&#45;&gt;Associative -->
<g id="edge16" class="edge">
<title>Map&#45;&gt;Associative</title>
<path fill="none" stroke="#6666ff" d="M168.35,-177.5C158.38,-186.81 145.22,-199.1 133.81,-209.75"/>
<polygon fill="#6666ff" stroke="#6666ff" points="131.17,-207.42 126.25,-216.8 135.95,-212.54 131.17,-207.42"/>
</g>
<!-- Positional -->
<g id="node7" class="node">
<title>Positional</title>
<g id="a_node7"><a xlink:href="/type/Positional" xlink:title="Positional">
<ellipse fill="none" stroke="#6666ff" cx="230.89" cy="-234" rx="48.99" ry="18"/>
<text text-anchor="middle" x="230.89" y="-230.3" font-family="FreeSans" font-size="14.00" fill="#6666ff">Positional</text>
</a>
</g>
</g>
<!-- Range -->
<g id="node8" class="node">
<title>Range</title>
<g id="a_node8"><a xlink:href="/type/Range" xlink:title="Range">
<ellipse fill="none" stroke="#000000" cx="338.89" cy="-162" rx="36.29" ry="18"/>
<text text-anchor="middle" x="338.89" y="-158.3" font-family="FreeSans" font-size="14.00" fill="#000000">Range</text>
</a>
</g>
</g>
<!-- Range&#45;&gt;Iterable -->
<g id="edge18" class="edge">
<title>Range&#45;&gt;Iterable</title>
<path fill="none" stroke="#6666ff" d="M354.95,-178.19C364.9,-187.6 377.86,-199.86 388.99,-210.39"/>
<polygon fill="#6666ff" stroke="#6666ff" points="386.69,-213.03 396.36,-217.36 391.5,-207.94 386.69,-213.03"/>
</g>
<!-- Range&#45;&gt;Cool -->
<g id="edge4" class="edge">
<title>Range&#45;&gt;Cool</title>
<path fill="none" stroke="#000000" d="M335.75,-179.95C334.32,-187.65 332.58,-196.97 330.98,-205.64"/>
<polygon fill="#000000" stroke="#000000" points="327.49,-205.25 329.1,-215.72 334.37,-206.53 327.49,-205.25"/>
</g>
<!-- Range&#45;&gt;Positional -->
<g id="edge17" class="edge">
<title>Range&#45;&gt;Positional</title>
<path fill="none" stroke="#6666ff" d="M317.56,-176.83C301.96,-186.94 280.53,-200.83 262.89,-212.26"/>
<polygon fill="#6666ff" stroke="#6666ff" points="260.54,-209.61 254.06,-217.99 264.35,-215.49 260.54,-209.61"/>
</g>
<!-- IO::Path::Parts -->
<g id="node9" class="node">
<title>IO::Path::Parts</title>
<g id="a_node9"><a xlink:href="/type/IO::Path::Parts" xlink:title="IO::Path::Parts">
<ellipse fill="none" stroke="#000000" cx="68.89" cy="-162" rx="68.79" ry="18"/>
<text text-anchor="middle" x="68.89" y="-158.3" font-family="FreeSans" font-size="14.00" fill="#000000">IO::Path::Parts</text>
</a>
</g>
</g>
<!-- IO::Path::Parts&#45;&gt;Iterable -->
<g id="edge21" class="edge">
<title>IO::Path::Parts&#45;&gt;Iterable</title>
<path fill="none" stroke="#6666ff" d="M119.83,-174.24C134.14,-177.41 145.89,-180 145.89,-180 145.89,-180 363.89,-216 363.89,-216 363.89,-216 367.34,-217.2 372.41,-218.95"/>
<polygon fill="#6666ff" stroke="#6666ff" points="371.54,-222.36 382.14,-222.33 373.84,-215.75 371.54,-222.36"/>
</g>
<!-- IO::Path::Parts&#45;&gt;Any -->
<g id="edge5" class="edge">
<title>IO::Path::Parts&#45;&gt;Any</title>
<path fill="none" stroke="#000000" d="M61.17,-180.06C54.15,-195.55 44.89,-216 44.89,-216 44.89,-216 44.89,-252 44.89,-252 44.89,-252 251.06,-285.42 335.99,-299.18"/>
<polygon fill="#000000" stroke="#000000" points="335.53,-302.65 345.96,-300.8 336.65,-295.74 335.53,-302.65"/>
</g>
<!-- IO::Path::Parts&#45;&gt;Associative -->
<g id="edge20" class="edge">
<title>IO::Path::Parts&#45;&gt;Associative</title>
<path fill="none" stroke="#6666ff" d="M78.58,-179.95C83.29,-188.2 89.06,-198.3 94.3,-207.46"/>
<polygon fill="#6666ff" stroke="#6666ff" points="91.3,-209.27 99.3,-216.21 97.38,-205.79 91.3,-209.27"/>
</g>
<!-- IO::Path::Parts&#45;&gt;Positional -->
<g id="edge19" class="edge">
<title>IO::Path::Parts&#45;&gt;Positional</title>
<path fill="none" stroke="#6666ff" d="M102.85,-177.67C128.67,-188.83 164.23,-204.19 191.33,-215.9"/>
<polygon fill="#6666ff" stroke="#6666ff" points="189.96,-219.13 200.53,-219.88 192.74,-212.7 189.96,-219.13"/>
</g>
<!-- PositionalBindFailover -->
<g id="node10" class="node">
<title>PositionalBindFailover</title>
<g id="a_node10"><a xlink:href="/type/PositionalBindFailover" xlink:title="PositionalBindFailover">
<ellipse fill="none" stroke="#6666ff" cx="558.89" cy="-306" rx="97.48" ry="18"/>
<text text-anchor="middle" x="558.89" y="-302.3" font-family="FreeSans" font-size="14.00" fill="#6666ff">PositionalBindFailover</text>
</a>
</g>
</g>
<!-- Sequence -->
<g id="node11" class="node">
<title>Sequence</title>
<g id="a_node11"><a xlink:href="/type/Sequence" xlink:title="Sequence">
<ellipse fill="none" stroke="#6666ff" cx="558.89" cy="-234" rx="50.09" ry="18"/>
<text text-anchor="middle" x="558.89" y="-230.3" font-family="FreeSans" font-size="14.00" fill="#6666ff">Sequence</text>
</a>
</g>
</g>
<!-- Sequence&#45;&gt;PositionalBindFailover -->
<g id="edge22" class="edge">
<title>Sequence&#45;&gt;PositionalBindFailover</title>
<path fill="none" stroke="#6666ff" d="M558.89,-252.3C558.89,-260.02 558.89,-269.29 558.89,-277.89"/>
<polygon fill="#6666ff" stroke="#6666ff" points="555.39,-277.9 558.89,-287.9 562.39,-277.9 555.39,-277.9"/>
</g>
<!-- RaceSeq -->
<g id="node12" class="node">
<title>RaceSeq</title>
<g id="a_node12"><a xlink:href="/type/RaceSeq" xlink:title="RaceSeq">
<ellipse fill="none" stroke="#000000" cx="629.89" cy="-162" rx="46.59" ry="18"/>
<text text-anchor="middle" x="629.89" y="-158.3" font-family="FreeSans" font-size="14.00" fill="#000000">RaceSeq</text>
</a>
</g>
</g>
<!-- RaceSeq&#45;&gt;Iterable -->
<g id="edge23" class="edge">
<title>RaceSeq&#45;&gt;Iterable</title>
<path fill="none" stroke="#6666ff" d="M595.03,-174.25C556.62,-186.64 494.91,-206.54 454.13,-219.7"/>
<polygon fill="#6666ff" stroke="#6666ff" points="452.94,-216.4 444.5,-222.81 455.09,-223.07 452.94,-216.4"/>
</g>
<!-- RaceSeq&#45;&gt;Any -->
<g id="edge6" class="edge">
<title>RaceSeq&#45;&gt;Any</title>
<path fill="none" stroke="#000000" d="M627.58,-180.16C624.09,-206.02 617.89,-252 617.89,-252 617.89,-252 475.18,-282.75 407.15,-297.4"/>
<polygon fill="#000000" stroke="#000000" points="406.33,-294 397.29,-299.53 407.81,-300.84 406.33,-294"/>
</g>
<!-- RaceSeq&#45;&gt;Sequence -->
<g id="edge24" class="edge">
<title>RaceSeq&#45;&gt;Sequence</title>
<path fill="none" stroke="#6666ff" d="M613.43,-179.24C604.29,-188.25 592.76,-199.61 582.65,-209.57"/>
<polygon fill="#6666ff" stroke="#6666ff" points="579.94,-207.34 575.27,-216.85 584.85,-212.32 579.94,-207.34"/>
</g>
<!-- List -->
<g id="node13" class="node">
<title>List</title>
<g id="a_node13"><a xlink:href="/type/List" xlink:title="List">
<ellipse fill="none" stroke="#000000" cx="257.89" cy="-162" rx="27" ry="18"/>
<text text-anchor="middle" x="257.89" y="-158.3" font-family="FreeSans" font-size="14.00" fill="#000000">List</text>
</a>
</g>
</g>
<!-- List&#45;&gt;Iterable -->
<g id="edge26" class="edge">
<title>List&#45;&gt;Iterable</title>
<path fill="none" stroke="#6666ff" d="M279.25,-173.09C287,-176.75 293.89,-180 293.89,-180 293.89,-180 340.89,-200.93 375.81,-216.48"/>
<polygon fill="#6666ff" stroke="#6666ff" points="374.73,-219.84 385.29,-220.71 377.58,-213.44 374.73,-219.84"/>
</g>
<!-- List&#45;&gt;Cool -->
<g id="edge7" class="edge">
<title>List&#45;&gt;Cool</title>
<path fill="none" stroke="#000000" d="M271.98,-177.5C281.25,-187.04 293.56,-199.72 304.08,-210.54"/>
<polygon fill="#000000" stroke="#000000" points="301.87,-213.3 311.35,-218.03 306.9,-208.42 301.87,-213.3"/>
</g>
<!-- List&#45;&gt;Positional -->
<g id="edge25" class="edge">
<title>List&#45;&gt;Positional</title>
<path fill="none" stroke="#6666ff" d="M251.5,-179.59C248.38,-187.66 244.56,-197.57 241.06,-206.65"/>
<polygon fill="#6666ff" stroke="#6666ff" points="237.77,-205.45 237.43,-216.04 244.3,-207.97 237.77,-205.45"/>
</g>
<!-- HyperSeq -->
<g id="node14" class="node">
<title>HyperSeq</title>
<g id="a_node14"><a xlink:href="/type/HyperSeq" xlink:title="HyperSeq">
<ellipse fill="none" stroke="#000000" cx="514.89" cy="-162" rx="50.09" ry="18"/>
<text text-anchor="middle" x="514.89" y="-158.3" font-family="FreeSans" font-size="14.00" fill="#000000">HyperSeq</text>
</a>
</g>
</g>
<!-- HyperSeq&#45;&gt;Iterable -->
<g id="edge27" class="edge">
<title>HyperSeq&#45;&gt;Iterable</title>
<path fill="none" stroke="#6666ff" d="M492.76,-178.19C478.03,-188.3 458.51,-201.7 442.45,-212.72"/>
<polygon fill="#6666ff" stroke="#6666ff" points="440.2,-210.01 433.94,-218.56 444.16,-215.79 440.2,-210.01"/>
</g>
<!-- HyperSeq&#45;&gt;Any -->
<g id="edge8" class="edge">
<title>HyperSeq&#45;&gt;Any</title>
<path fill="none" stroke="#000000" d="M504.92,-179.74C489.57,-205.52 461.89,-252 461.89,-252 461.89,-252 426.68,-272.73 400.31,-288.27"/>
<polygon fill="#000000" stroke="#000000" points="398.26,-285.41 391.42,-293.5 401.82,-291.44 398.26,-285.41"/>
</g>
<!-- HyperSeq&#45;&gt;Sequence -->
<g id="edge28" class="edge">
<title>HyperSeq&#45;&gt;Sequence</title>
<path fill="none" stroke="#6666ff" d="M525.55,-179.95C530.73,-188.2 537.08,-198.3 542.84,-207.46"/>
<polygon fill="#6666ff" stroke="#6666ff" points="540.06,-209.61 548.34,-216.21 545.98,-205.88 540.06,-209.61"/>
</g>
<!-- Seq -->
<g id="node15" class="node">
<title>Seq</title>
<g id="a_node15"><a xlink:href="/type/Seq" xlink:title="Seq">
<ellipse fill="none" stroke="#000000" cx="419.89" cy="-162" rx="27" ry="18"/>
<text text-anchor="middle" x="419.89" y="-158.3" font-family="FreeSans" font-size="14.00" fill="#000000">Seq</text>
</a>
</g>
</g>
<!-- Seq&#45;&gt;Iterable -->
<g id="edge29" class="edge">
<title>Seq&#45;&gt;Iterable</title>
<path fill="none" stroke="#6666ff" d="M418.16,-180.3C417.39,-188.02 416.47,-197.29 415.61,-205.89"/>
<polygon fill="#6666ff" stroke="#6666ff" points="412.12,-205.6 414.6,-215.9 419.08,-206.29 412.12,-205.6"/>
</g>
<!-- Seq&#45;&gt;Cool -->
<g id="edge9" class="edge">
<title>Seq&#45;&gt;Cool</title>
<path fill="none" stroke="#000000" d="M402.21,-176.17C388.12,-186.66 368.18,-201.51 352.21,-213.4"/>
<polygon fill="#000000" stroke="#000000" points="349.74,-210.87 343.81,-219.65 353.93,-216.49 349.74,-210.87"/>
</g>
<!-- Seq&#45;&gt;Sequence -->
<g id="edge30" class="edge">
<title>Seq&#45;&gt;Sequence</title>
<path fill="none" stroke="#6666ff" d="M440.7,-173.48C462.09,-184.25 495.82,-201.24 521.79,-214.31"/>
<polygon fill="#6666ff" stroke="#6666ff" points="520.46,-217.56 530.97,-218.94 523.61,-211.31 520.46,-217.56"/>
</g>
<!-- Hash -->
<g id="node16" class="node">
<title>Hash</title>
<g id="a_node16"><a xlink:href="/type/Hash" xlink:title="Hash">
<ellipse fill="none" stroke="#000000" cx="52.89" cy="-90" rx="31.4" ry="18"/>
<text text-anchor="middle" x="52.89" y="-86.3" font-family="FreeSans" font-size="14.00" fill="#000000">Hash</text>
</a>
</g>
</g>
<!-- Hash&#45;&gt;Map -->
<g id="edge10" class="edge">
<title>Hash&#45;&gt;Map</title>
<path fill="none" stroke="#000000" d="M75.12,-102.87C96.77,-114.44 129.84,-132.12 153.84,-144.94"/>
<polygon fill="#000000" stroke="#000000" points="152.4,-148.14 162.86,-149.76 155.69,-141.96 152.4,-148.14"/>
</g>
<!-- PseudoStash -->
<g id="node17" class="node">
<title>PseudoStash</title>
<g id="a_node17"><a xlink:href="/type/PseudoStash" xlink:title="PseudoStash">
<ellipse fill="none" stroke="#000000" cx="164.89" cy="-90" rx="63.09" ry="18"/>
<text text-anchor="middle" x="164.89" y="-86.3" font-family="FreeSans" font-size="14.00" fill="#000000">PseudoStash</text>
</a>
</g>
</g>
<!-- PseudoStash&#45;&gt;Map -->
<g id="edge11" class="edge">
<title>PseudoStash&#45;&gt;Map</title>
<path fill="none" stroke="#000000" d="M169.59,-108.3C171.71,-116.1 174.26,-125.49 176.61,-134.17"/>
<polygon fill="#000000" stroke="#000000" points="173.25,-135.16 179.25,-143.9 180.01,-133.33 173.25,-135.16"/>
</g>
<!-- Array -->
<g id="node18" class="node">
<title>Array</title>
<g id="a_node18"><a xlink:href="/type/Array" xlink:title="Array">
<ellipse fill="none" stroke="#000000" cx="277.89" cy="-90" rx="31.7" ry="18"/>
<text text-anchor="middle" x="277.89" y="-86.3" font-family="FreeSans" font-size="14.00" fill="#000000">Array</text>
</a>
</g>
</g>
<!-- Array&#45;&gt;List -->
<g id="edge12" class="edge">
<title>Array&#45;&gt;List</title>
<path fill="none" stroke="#000000" d="M273.05,-107.95C270.79,-115.86 268.05,-125.46 265.52,-134.31"/>
<polygon fill="#000000" stroke="#000000" points="262.07,-133.63 262.69,-144.21 268.8,-135.56 262.07,-133.63"/>
</g>
<!-- Slip -->
<g id="node19" class="node">
<title>Slip</title>
<g id="a_node19"><a xlink:href="/type/Slip" xlink:title="Slip">
<ellipse fill="none" stroke="#000000" cx="354.89" cy="-90" rx="27" ry="18"/>
<text text-anchor="middle" x="354.89" y="-86.3" font-family="FreeSans" font-size="14.00" fill="#000000">Slip</text>
</a>
</g>
</g>
<!-- Slip&#45;&gt;List -->
<g id="edge13" class="edge">
<title>Slip&#45;&gt;List</title>
<path fill="none" stroke="#000000" d="M337.1,-103.84C322.2,-114.59 300.72,-130.09 283.89,-142.24"/>
<polygon fill="#000000" stroke="#000000" points="281.63,-139.55 275.57,-148.24 285.73,-145.23 281.63,-139.55"/>
</g>
<!-- Stash -->
<g id="node20" class="node">
<title>Stash</title>
<g id="a_node20"><a xlink:href="/type/Stash" xlink:title="Stash">
<ellipse fill="none" stroke="#000000" cx="52.89" cy="-18" rx="33.29" ry="18"/>
<text text-anchor="middle" x="52.89" y="-14.3" font-family="FreeSans" font-size="14.00" fill="#000000">Stash</text>
</a>
</g>
</g>
<!-- Stash&#45;&gt;Hash -->
<g id="edge14" class="edge">
<title>Stash&#45;&gt;Hash</title>
<path fill="none" stroke="#000000" d="M52.89,-36.3C52.89,-44.02 52.89,-53.29 52.89,-61.89"/>
<polygon fill="#000000" stroke="#000000" points="49.39,-61.9 52.89,-71.9 56.39,-61.9 49.39,-61.9"/>
</g>
</g>
</svg>
