<?xml version="1.0" encoding="UTF-8" standalone="no"?>
<!DOCTYPE svg PUBLIC "-//W3C//DTD SVG 1.1//EN"
 "http://www.w3.org/Graphics/SVG/1.1/DTD/svg11.dtd">
<!-- Generated by graphviz version 2.43.0 (0)
 -->
<!-- Title: raku&#45;type&#45;graph Pages: 1 -->
<svg width="2191pt" height="2150pt"
 viewBox="0.00 0.00 2191.34 2149.53" xmlns="http://www.w3.org/2000/svg" xmlns:xlink="http://www.w3.org/1999/xlink">
<g id="graph0" class="graph" transform="scale(1 1) rotate(0) translate(4 2145.53)">
<title>raku&#45;type&#45;graph</title>
<polygon fill="#ffffff" stroke="transparent" points="-4,4 -4,-2145.53 2187.34,-2145.53 2187.34,4 -4,4"/>
<!-- Metamodel::Versioning -->
<g id="node1" class="node">
<title>Metamodel::Versioning</title>
<g id="a_node1"><a xlink:href="/type/Metamodel::Versioning" xlink:title="Metamodel::Versioning">
<ellipse fill="none" stroke="#6666ff" cx="927.91" cy="-1220.87" rx="100.98" ry="18"/>
<text text-anchor="middle" x="927.91" y="-1217.17" font-family="FreeSans" font-size="14.00" fill="#6666ff">Metamodel::Versioning</text>
</a>
</g>
</g>
<!-- Mu -->
<g id="node2" class="node">
<title>Mu</title>
<g id="a_node2"><a xlink:href="/type/Mu" xlink:title="Mu">
<ellipse fill="none" stroke="#000000" cx="2156.34" cy="-685.27" rx="27" ry="18"/>
<text text-anchor="middle" x="2156.34" y="-681.57" font-family="FreeSans" font-size="14.00" fill="#000000">Mu</text>
</a>
</g>
</g>
<!-- Any -->
<g id="node3" class="node">
<title>Any</title>
<g id="a_node3"><a xlink:href="/type/Any" xlink:title="Any">
<ellipse fill="none" stroke="#000000" cx="1575.85" cy="-921.67" rx="27" ry="18"/>
<text text-anchor="middle" x="1575.85" y="-917.97" font-family="FreeSans" font-size="14.00" fill="#000000">Any</text>
</a>
</g>
</g>
<!-- Any&#45;&gt;Mu -->
<g id="edge1" class="edge">
<title>Any&#45;&gt;Mu</title>
<path fill="none" stroke="#000000" d="M1598.96,-912.26C1689.25,-875.49 2018.36,-741.46 2123.69,-698.57"/>
<polygon fill="#000000" stroke="#000000" points="2125.22,-701.72 2133.16,-694.71 2122.58,-695.24 2125.22,-701.72"/>
</g>
<!-- Metamodel::Naming -->
<g id="node4" class="node">
<title>Metamodel::Naming</title>
<g id="a_node4"><a xlink:href="/type/Metamodel::Naming" xlink:title="Metamodel::Naming">
<ellipse fill="none" stroke="#6666ff" cx="1033.8" cy="-1329.57" rx="90.18" ry="18"/>
<text text-anchor="middle" x="1033.8" y="-1325.87" font-family="FreeSans" font-size="14.00" fill="#6666ff">Metamodel::Naming</text>
</a>
</g>
</g>
<!-- Metamodel::Documenting -->
<g id="node5" class="node">
<title>Metamodel::Documenting</title>
<g id="a_node5"><a xlink:href="/type/Metamodel::Documenting" xlink:title="Metamodel::Documenting">
<ellipse fill="none" stroke="#6666ff" cx="1427.87" cy="-1006.68" rx="111.28" ry="18"/>
<text text-anchor="middle" x="1427.87" y="-1002.98" font-family="FreeSans" font-size="14.00" fill="#6666ff">Metamodel::Documenting</text>
</a>
</g>
</g>
<!-- Metamodel::Stashing -->
<g id="node6" class="node">
<title>Metamodel::Stashing</title>
<g id="a_node6"><a xlink:href="/type/Metamodel::Stashing" xlink:title="Metamodel::Stashing">
<ellipse fill="none" stroke="#6666ff" cx="879.85" cy="-1411.25" rx="93.68" ry="18"/>
<text text-anchor="middle" x="879.85" y="-1407.55" font-family="FreeSans" font-size="14.00" fill="#6666ff">Metamodel::Stashing</text>
</a>
</g>
</g>
<!-- Metamodel::AttributeContainer -->
<g id="node7" class="node">
<title>Metamodel::AttributeContainer</title>
<g id="a_node7"><a xlink:href="/type/Metamodel::AttributeContainer" xlink:title="Metamodel::AttributeContainer">
<ellipse fill="none" stroke="#6666ff" cx="567.66" cy="-1184.66" rx="129.98" ry="18"/>
<text text-anchor="middle" x="567.66" y="-1180.96" font-family="FreeSans" font-size="14.00" fill="#6666ff">Metamodel::AttributeContainer</text>
</a>
</g>
</g>
<!-- Metamodel::Finalization -->
<g id="node8" class="node">
<title>Metamodel::Finalization</title>
<g id="a_node8"><a xlink:href="/type/Metamodel::Finalization" xlink:title="Metamodel::Finalization">
<ellipse fill="none" stroke="#6666ff" cx="619.51" cy="-18" rx="103.98" ry="18"/>
<text text-anchor="middle" x="619.51" y="-14.3" font-family="FreeSans" font-size="14.00" fill="#6666ff">Metamodel::Finalization</text>
</a>
</g>
</g>
<!-- Metamodel::MethodContainer -->
<g id="node9" class="node">
<title>Metamodel::MethodContainer</title>
<g id="a_node9"><a xlink:href="/type/Metamodel::MethodContainer" xlink:title="Metamodel::MethodContainer">
<ellipse fill="none" stroke="#6666ff" cx="665.29" cy="-1019.2" rx="127.28" ry="18"/>
<text text-anchor="middle" x="665.29" y="-1015.5" font-family="FreeSans" font-size="14.00" fill="#6666ff">Metamodel::MethodContainer</text>
</a>
</g>
</g>
<!-- Metamodel::PrivateMethodContainer -->
<g id="node10" class="node">
<title>Metamodel::PrivateMethodContainer</title>
<g id="a_node10"><a xlink:href="/type/Metamodel::PrivateMethodContainer" xlink:title="Metamodel::PrivateMethodContainer">
<ellipse fill="none" stroke="#6666ff" cx="1416.94" cy="-526.62" rx="154.87" ry="18"/>
<text text-anchor="middle" x="1416.94" y="-522.92" font-family="FreeSans" font-size="14.00" fill="#6666ff">Metamodel::PrivateMethodContainer</text>
</a>
</g>
</g>
<!-- Metamodel::MultiMethodContainer -->
<g id="node11" class="node">
<title>Metamodel::MultiMethodContainer</title>
<g id="a_node11"><a xlink:href="/type/Metamodel::MultiMethodContainer" xlink:title="Metamodel::MultiMethodContainer">
<ellipse fill="none" stroke="#6666ff" cx="1216.03" cy="-570.63" rx="146.47" ry="18"/>
<text text-anchor="middle" x="1216.03" y="-566.93" font-family="FreeSans" font-size="14.00" fill="#6666ff">Metamodel::MultiMethodContainer</text>
</a>
</g>
</g>
<!-- Metamodel::RoleContainer -->
<g id="node12" class="node">
<title>Metamodel::RoleContainer</title>
<g id="a_node12"><a xlink:href="/type/Metamodel::RoleContainer" xlink:title="Metamodel::RoleContainer">
<ellipse fill="none" stroke="#6666ff" cx="617.04" cy="-1352.01" rx="115.88" ry="18"/>
<text text-anchor="middle" x="617.04" y="-1348.31" font-family="FreeSans" font-size="14.00" fill="#6666ff">Metamodel::RoleContainer</text>
</a>
</g>
</g>
<!-- Metamodel::MultipleInheritance -->
<g id="node13" class="node">
<title>Metamodel::MultipleInheritance</title>
<g id="a_node13"><a xlink:href="/type/Metamodel::MultipleInheritance" xlink:title="Metamodel::MultipleInheritance">
<ellipse fill="none" stroke="#6666ff" cx="1475.69" cy="-670.05" rx="133.78" ry="18"/>
<text text-anchor="middle" x="1475.69" y="-666.35" font-family="FreeSans" font-size="14.00" fill="#6666ff">Metamodel::MultipleInheritance</text>
</a>
</g>
</g>
<!-- Metamodel::DefaultParent -->
<g id="node14" class="node">
<title>Metamodel::DefaultParent</title>
<g id="a_node14"><a xlink:href="/type/Metamodel::DefaultParent" xlink:title="Metamodel::DefaultParent">
<ellipse fill="none" stroke="#6666ff" cx="1202.01" cy="-28.91" rx="113.18" ry="18"/>
<text text-anchor="middle" x="1202.01" y="-25.21" font-family="FreeSans" font-size="14.00" fill="#6666ff">Metamodel::DefaultParent</text>
</a>
</g>
</g>
<!-- Metamodel::C3MRO -->
<g id="node15" class="node">
<title>Metamodel::C3MRO</title>
<g id="a_node15"><a xlink:href="/type/Metamodel::C3MRO" xlink:title="Metamodel::C3MRO">
<ellipse fill="none" stroke="#6666ff" cx="400.75" cy="-577" rx="92.08" ry="18"/>
<text text-anchor="middle" x="400.75" y="-573.3" font-family="FreeSans" font-size="14.00" fill="#6666ff">Metamodel::C3MRO</text>
</a>
</g>
</g>
<!-- Metamodel::MROBasedMethodDispatch -->
<g id="node16" class="node">
<title>Metamodel::MROBasedMethodDispatch</title>
<g id="a_node16"><a xlink:href="/type/Metamodel::MROBasedMethodDispatch" xlink:title="Metamodel::MROBasedMethodDispatch">
<ellipse fill="none" stroke="#6666ff" cx="1011.67" cy="-115.88" rx="169.77" ry="18"/>
<text text-anchor="middle" x="1011.67" y="-112.18" font-family="FreeSans" font-size="14.00" fill="#6666ff">Metamodel::MROBasedMethodDispatch</text>
</a>
</g>
</g>
<!-- Metamodel::MROBasedTypeChecking -->
<g id="node17" class="node">
<title>Metamodel::MROBasedTypeChecking</title>
<g id="a_node17"><a xlink:href="/type/Metamodel::MROBasedTypeChecking" xlink:title="Metamodel::MROBasedTypeChecking">
<ellipse fill="none" stroke="#6666ff" cx="791.05" cy="-178.63" rx="163.27" ry="18"/>
<text text-anchor="middle" x="791.05" y="-174.93" font-family="FreeSans" font-size="14.00" fill="#6666ff">Metamodel::MROBasedTypeChecking</text>
</a>
</g>
</g>
<!-- Metamodel::Trusting -->
<g id="node18" class="node">
<title>Metamodel::Trusting</title>
<g id="a_node18"><a xlink:href="/type/Metamodel::Trusting" xlink:title="Metamodel::Trusting">
<ellipse fill="none" stroke="#6666ff" cx="114.17" cy="-696.77" rx="91.78" ry="18"/>
<text text-anchor="middle" x="114.17" y="-693.07" font-family="FreeSans" font-size="14.00" fill="#6666ff">Metamodel::Trusting</text>
</a>
</g>
</g>
<!-- Metamodel::BUILDPLAN -->
<g id="node19" class="node">
<title>Metamodel::BUILDPLAN</title>
<g id="a_node19"><a xlink:href="/type/Metamodel::BUILDPLAN" xlink:title="Metamodel::BUILDPLAN">
<ellipse fill="none" stroke="#6666ff" cx="397.69" cy="-189.31" rx="109.68" ry="18"/>
<text text-anchor="middle" x="397.69" y="-185.61" font-family="FreeSans" font-size="14.00" fill="#6666ff">Metamodel::BUILDPLAN</text>
</a>
</g>
</g>
<!-- Metamodel::Mixins -->
<g id="node20" class="node">
<title>Metamodel::Mixins</title>
<g id="a_node20"><a xlink:href="/type/Metamodel::Mixins" xlink:title="Metamodel::Mixins">
<ellipse fill="none" stroke="#6666ff" cx="210.74" cy="-384.26" rx="85.29" ry="18"/>
<text text-anchor="middle" x="210.74" y="-380.56" font-family="FreeSans" font-size="14.00" fill="#6666ff">Metamodel::Mixins</text>
</a>
</g>
</g>
<!-- Metamodel::BoolificationProtocol -->
<g id="node21" class="node">
<title>Metamodel::BoolificationProtocol</title>
<g id="a_node21"><a xlink:href="/type/Metamodel::BoolificationProtocol" xlink:title="Metamodel::BoolificationProtocol">
<ellipse fill="none" stroke="#6666ff" cx="139.09" cy="-973.14" rx="139.18" ry="18"/>
<text text-anchor="middle" x="139.09" y="-969.44" font-family="FreeSans" font-size="14.00" fill="#6666ff">Metamodel::BoolificationProtocol</text>
</a>
</g>
</g>
<!-- Metamodel::ClassHOW -->
<g id="node22" class="node">
<title>Metamodel::ClassHOW</title>
<g id="a_node22"><a xlink:href="/type/Metamodel::ClassHOW" xlink:title="Metamodel::ClassHOW">
<ellipse fill="none" stroke="#000000" cx="812.63" cy="-682.32" rx="103.18" ry="18"/>
<text text-anchor="middle" x="812.63" y="-678.62" font-family="FreeSans" font-size="14.00" fill="#000000">Metamodel::ClassHOW</text>
</a>
</g>
</g>
<!-- Metamodel::ClassHOW&#45;&gt;Metamodel::Versioning -->
<g id="edge9" class="edge">
<title>Metamodel::ClassHOW&#45;&gt;Metamodel::Versioning</title>
<path fill="none" stroke="#6666ff" d="M816.53,-700.55C833.53,-779.98 901.22,-1096.21 921.88,-1192.74"/>
<polygon fill="#6666ff" stroke="#6666ff" points="918.49,-1193.6 924.01,-1202.65 925.33,-1192.13 918.49,-1193.6"/>
</g>
<!-- Metamodel::ClassHOW&#45;&gt;Any -->
<g id="edge2" class="edge">
<title>Metamodel::ClassHOW&#45;&gt;Any</title>
<path fill="none" stroke="#000000" d="M863,-698.12C1007.31,-743.38 1419.69,-872.7 1541.54,-910.91"/>
<polygon fill="#000000" stroke="#000000" points="1540.53,-914.26 1551.12,-913.92 1542.62,-907.59 1540.53,-914.26"/>
</g>
<!-- Metamodel::ClassHOW&#45;&gt;Metamodel::Naming -->
<g id="edge7" class="edge">
<title>Metamodel::ClassHOW&#45;&gt;Metamodel::Naming</title>
<path fill="none" stroke="#6666ff" d="M819.99,-700.56C858.01,-794.66 1030.24,-1221.05 1030.24,-1221.05 1030.24,-1221.05 1031.81,-1268.8 1032.86,-1300.95"/>
<polygon fill="#6666ff" stroke="#6666ff" points="1029.37,-1301.28 1033.2,-1311.16 1036.37,-1301.05 1029.37,-1301.28"/>
</g>
<!-- Metamodel::ClassHOW&#45;&gt;Metamodel::Documenting -->
<g id="edge8" class="edge">
<title>Metamodel::ClassHOW&#45;&gt;Metamodel::Documenting</title>
<path fill="none" stroke="#6666ff" d="M845.27,-699.53C948.92,-754.17 1270.48,-923.7 1386.01,-984.61"/>
<polygon fill="#6666ff" stroke="#6666ff" points="1384.46,-987.75 1394.93,-989.31 1387.72,-981.55 1384.46,-987.75"/>
</g>
<!-- Metamodel::ClassHOW&#45;&gt;Metamodel::Stashing -->
<g id="edge10" class="edge">
<title>Metamodel::ClassHOW&#45;&gt;Metamodel::Stashing</title>
<path fill="none" stroke="#6666ff" d="M813.07,-700.54C815.33,-794.58 825.57,-1220.68 825.57,-1220.68 825.57,-1220.68 856.76,-1330.19 871.86,-1383.18"/>
<polygon fill="#6666ff" stroke="#6666ff" points="868.54,-1384.32 874.65,-1392.98 875.27,-1382.4 868.54,-1384.32"/>
</g>
<!-- Metamodel::ClassHOW&#45;&gt;Metamodel::AttributeContainer -->
<g id="edge11" class="edge">
<title>Metamodel::ClassHOW&#45;&gt;Metamodel::AttributeContainer</title>
<path fill="none" stroke="#6666ff" d="M797.77,-700.43C740.38,-770.39 536.31,-1019.14 536.31,-1019.14 536.31,-1019.14 553.43,-1109.54 562.37,-1156.73"/>
<polygon fill="#6666ff" stroke="#6666ff" points="558.95,-1157.46 564.25,-1166.63 565.83,-1156.16 558.95,-1157.46"/>
</g>
<!-- Metamodel::ClassHOW&#45;&gt;Metamodel::Finalization -->
<g id="edge12" class="edge">
<title>Metamodel::ClassHOW&#45;&gt;Metamodel::Finalization</title>
<path fill="none" stroke="#6666ff" d="M805.89,-664.09C772.48,-573.77 626.31,-178.5 626.31,-178.5 626.31,-178.5 622.67,-92.43 620.71,-46.35"/>
<polygon fill="#6666ff" stroke="#6666ff" points="624.2,-45.94 620.28,-36.1 617.21,-46.24 624.2,-45.94"/>
</g>
<!-- Metamodel::ClassHOW&#45;&gt;Metamodel::MethodContainer -->
<g id="edge13" class="edge">
<title>Metamodel::ClassHOW&#45;&gt;Metamodel::MethodContainer</title>
<path fill="none" stroke="#6666ff" d="M804.71,-700.43C780.37,-756.07 706.6,-924.76 677.39,-991.55"/>
<polygon fill="#6666ff" stroke="#6666ff" points="674.05,-990.43 673.25,-1001 680.47,-993.24 674.05,-990.43"/>
</g>
<!-- Metamodel::ClassHOW&#45;&gt;Metamodel::PrivateMethodContainer -->
<g id="edge14" class="edge">
<title>Metamodel::ClassHOW&#45;&gt;Metamodel::PrivateMethodContainer</title>
<path fill="none" stroke="#6666ff" d="M850.89,-665.58C922.18,-634.38 1068.19,-570.48 1068.19,-570.48 1068.19,-570.48 1112.29,-556.66 1112.29,-556.66 1112.29,-556.66 1205.36,-547.48 1288.62,-539.27"/>
<polygon fill="#6666ff" stroke="#6666ff" points="1289.11,-542.74 1298.71,-538.28 1288.42,-535.78 1289.11,-542.74"/>
</g>
<!-- Metamodel::ClassHOW&#45;&gt;Metamodel::MultiMethodContainer -->
<g id="edge15" class="edge">
<title>Metamodel::ClassHOW&#45;&gt;Metamodel::MultiMethodContainer</title>
<path fill="none" stroke="#6666ff" d="M867.87,-667.03C940.4,-646.94 1067.75,-611.68 1146.68,-589.83"/>
<polygon fill="#6666ff" stroke="#6666ff" points="1147.83,-593.14 1156.54,-587.1 1145.96,-586.39 1147.83,-593.14"/>
</g>
<!-- Metamodel::ClassHOW&#45;&gt;Metamodel::RoleContainer -->
<g id="edge16" class="edge">
<title>Metamodel::ClassHOW&#45;&gt;Metamodel::RoleContainer</title>
<path fill="none" stroke="#6666ff" d="M811.64,-700.44C807.83,-770.42 794.28,-1019.25 794.28,-1019.25 794.28,-1019.25 673.96,-1245.15 631.59,-1324.69"/>
<polygon fill="#6666ff" stroke="#6666ff" points="628.44,-1323.17 626.83,-1333.64 634.62,-1326.46 628.44,-1323.17"/>
</g>
<!-- Metamodel::ClassHOW&#45;&gt;Metamodel::MultipleInheritance -->
<g id="edge17" class="edge">
<title>Metamodel::ClassHOW&#45;&gt;Metamodel::MultipleInheritance</title>
<path fill="none" stroke="#6666ff" d="M915.5,-680.42C1027.42,-678.35 1207.11,-675.02 1332.71,-672.69"/>
<polygon fill="#6666ff" stroke="#6666ff" points="1332.86,-676.19 1342.8,-672.51 1332.73,-669.19 1332.86,-676.19"/>
</g>
<!-- Metamodel::ClassHOW&#45;&gt;Metamodel::DefaultParent -->
<g id="edge18" class="edge">
<title>Metamodel::ClassHOW&#45;&gt;Metamodel::DefaultParent</title>
<path fill="none" stroke="#6666ff" d="M824.32,-664.44C887.26,-568.17 1182.9,-115.99 1182.9,-115.99 1182.9,-115.99 1190.28,-82.36 1195.87,-56.9"/>
<polygon fill="#6666ff" stroke="#6666ff" points="1199.33,-57.47 1198.05,-46.95 1192.49,-55.97 1199.33,-57.47"/>
</g>
<!-- Metamodel::ClassHOW&#45;&gt;Metamodel::C3MRO -->
<g id="edge19" class="edge">
<title>Metamodel::ClassHOW&#45;&gt;Metamodel::C3MRO</title>
<path fill="none" stroke="#6666ff" d="M754.05,-667.34C678.12,-647.93 546.07,-614.16 466.7,-593.87"/>
<polygon fill="#6666ff" stroke="#6666ff" points="467.36,-590.43 456.81,-591.34 465.63,-597.21 467.36,-590.43"/>
</g>
<!-- Metamodel::ClassHOW&#45;&gt;Metamodel::MROBasedMethodDispatch -->
<g id="edge20" class="edge">
<title>Metamodel::ClassHOW&#45;&gt;Metamodel::MROBasedMethodDispatch</title>
<path fill="none" stroke="#6666ff" d="M819.02,-664.12C847.98,-581.72 966.84,-243.44 1001.89,-143.69"/>
<polygon fill="#6666ff" stroke="#6666ff" points="1005.28,-144.61 1005.29,-134.02 998.68,-142.29 1005.28,-144.61"/>
</g>
<!-- Metamodel::ClassHOW&#45;&gt;Metamodel::MROBasedTypeChecking -->
<g id="edge21" class="edge">
<title>Metamodel::ClassHOW&#45;&gt;Metamodel::MROBasedTypeChecking</title>
<path fill="none" stroke="#6666ff" d="M811.85,-664.1C808.61,-588.51 796.22,-299.31 792.26,-207.08"/>
<polygon fill="#6666ff" stroke="#6666ff" points="795.75,-206.67 791.83,-196.83 788.76,-206.97 795.75,-206.67"/>
</g>
<!-- Metamodel::ClassHOW&#45;&gt;Metamodel::Trusting -->
<g id="edge22" class="edge">
<title>Metamodel::ClassHOW&#45;&gt;Metamodel::Trusting</title>
<path fill="none" stroke="#6666ff" d="M709.94,-684.45C577.27,-687.19 347.71,-691.94 215.63,-694.67"/>
<polygon fill="#6666ff" stroke="#6666ff" points="215.44,-691.18 205.51,-694.88 215.58,-698.17 215.44,-691.18"/>
</g>
<!-- Metamodel::ClassHOW&#45;&gt;Metamodel::BUILDPLAN -->
<g id="edge23" class="edge">
<title>Metamodel::ClassHOW&#45;&gt;Metamodel::BUILDPLAN</title>
<path fill="none" stroke="#6666ff" d="M797.61,-664.48C734.91,-589.98 493.76,-303.45 419.55,-215.28"/>
<polygon fill="#6666ff" stroke="#6666ff" points="422.02,-212.78 412.9,-207.38 416.66,-217.28 422.02,-212.78"/>
</g>
<!-- Metamodel::ClassHOW&#45;&gt;Metamodel::Mixins -->
<g id="edge24" class="edge">
<title>Metamodel::ClassHOW&#45;&gt;Metamodel::Mixins</title>
<path fill="none" stroke="#6666ff" d="M778.11,-665.23C674.6,-613.97 367.04,-461.66 253.49,-405.43"/>
<polygon fill="#6666ff" stroke="#6666ff" points="254.89,-402.22 244.38,-400.92 251.79,-408.49 254.89,-402.22"/>
</g>
<!-- Metamodel::ClassHOW&#45;&gt;Metamodel::BoolificationProtocol -->
<g id="edge25" class="edge">
<title>Metamodel::ClassHOW&#45;&gt;Metamodel::BoolificationProtocol</title>
<path fill="none" stroke="#6666ff" d="M773.5,-699.22C657.64,-749.24 316.41,-896.58 188.37,-951.86"/>
<polygon fill="#6666ff" stroke="#6666ff" points="186.96,-948.66 179.17,-955.83 189.73,-955.08 186.96,-948.66"/>
</g>
<!-- Metamodel::TypePretense -->
<g id="node23" class="node">
<title>Metamodel::TypePretense</title>
<g id="a_node23"><a xlink:href="/type/Metamodel::TypePretense" xlink:title="Metamodel::TypePretense">
<ellipse fill="none" stroke="#6666ff" cx="1275.27" cy="-1987.28" rx="114.28" ry="18"/>
<text text-anchor="middle" x="1275.27" y="-1983.58" font-family="FreeSans" font-size="14.00" fill="#6666ff">Metamodel::TypePretense</text>
</a>
</g>
</g>
<!-- Metamodel::RolePunning -->
<g id="node24" class="node">
<title>Metamodel::RolePunning</title>
<g id="a_node24"><a xlink:href="/type/Metamodel::RolePunning" xlink:title="Metamodel::RolePunning">
<ellipse fill="none" stroke="#6666ff" cx="1933.29" cy="-1557.79" rx="109.68" ry="18"/>
<text text-anchor="middle" x="1933.29" y="-1554.09" font-family="FreeSans" font-size="14.00" fill="#6666ff">Metamodel::RolePunning</text>
</a>
</g>
</g>
<!-- Metamodel::ParametricRoleHOW -->
<g id="node25" class="node">
<title>Metamodel::ParametricRoleHOW</title>
<g id="a_node25"><a xlink:href="/type/Metamodel::ParametricRoleHOW" xlink:title="Metamodel::ParametricRoleHOW">
<ellipse fill="none" stroke="#000000" cx="1324.85" cy="-1300.98" rx="141.88" ry="18"/>
<text text-anchor="middle" x="1324.85" y="-1297.28" font-family="FreeSans" font-size="14.00" fill="#000000">Metamodel::ParametricRoleHOW</text>
</a>
</g>
</g>
<!-- Metamodel::ParametricRoleHOW&#45;&gt;Metamodel::Versioning -->
<g id="edge28" class="edge">
<title>Metamodel::ParametricRoleHOW&#45;&gt;Metamodel::Versioning</title>
<path fill="none" stroke="#6666ff" d="M1249.25,-1285.72C1179.25,-1271.59 1075.63,-1250.68 1005.12,-1236.45"/>
<polygon fill="#6666ff" stroke="#6666ff" points="1005.46,-1232.95 994.96,-1234.4 1004.07,-1239.81 1005.46,-1232.95"/>
</g>
<!-- Metamodel::ParametricRoleHOW&#45;&gt;Any -->
<g id="edge3" class="edge">
<title>Metamodel::ParametricRoleHOW&#45;&gt;Any</title>
<path fill="none" stroke="#000000" d="M1338.02,-1283.02C1384.87,-1219.14 1540.61,-1006.79 1540.61,-1006.79 1540.61,-1006.79 1554.34,-973.63 1564.66,-948.7"/>
<polygon fill="#000000" stroke="#000000" points="1567.96,-949.89 1568.55,-939.31 1561.49,-947.21 1567.96,-949.89"/>
</g>
<!-- Metamodel::ParametricRoleHOW&#45;&gt;Metamodel::Naming -->
<g id="edge26" class="edge">
<title>Metamodel::ParametricRoleHOW&#45;&gt;Metamodel::Naming</title>
<path fill="none" stroke="#6666ff" d="M1212.74,-1311.99C1183.79,-1314.84 1152.97,-1317.86 1125.22,-1320.59"/>
<polygon fill="#6666ff" stroke="#6666ff" points="1124.75,-1317.12 1115.14,-1321.58 1125.43,-1324.09 1124.75,-1317.12"/>
</g>
<!-- Metamodel::ParametricRoleHOW&#45;&gt;Metamodel::Documenting -->
<g id="edge27" class="edge">
<title>Metamodel::ParametricRoleHOW&#45;&gt;Metamodel::Documenting</title>
<path fill="none" stroke="#6666ff" d="M1331.29,-1282.57C1348.83,-1232.49 1397.46,-1093.57 1418.25,-1034.18"/>
<polygon fill="#6666ff" stroke="#6666ff" points="1421.56,-1035.3 1421.56,-1024.71 1414.96,-1032.99 1421.56,-1035.3"/>
</g>
<!-- Metamodel::ParametricRoleHOW&#45;&gt;Metamodel::Stashing -->
<g id="edge35" class="edge">
<title>Metamodel::ParametricRoleHOW&#45;&gt;Metamodel::Stashing</title>
<path fill="none" stroke="#6666ff" d="M1260.14,-1317.01C1176.67,-1337.7 1032.15,-1373.51 947.34,-1394.53"/>
<polygon fill="#6666ff" stroke="#6666ff" points="946.42,-1391.15 937.56,-1396.95 948.1,-1397.94 946.42,-1391.15"/>
</g>
<!-- Metamodel::ParametricRoleHOW&#45;&gt;Metamodel::AttributeContainer -->
<g id="edge32" class="edge">
<title>Metamodel::ParametricRoleHOW&#45;&gt;Metamodel::AttributeContainer</title>
<path fill="none" stroke="#6666ff" d="M1230.02,-1287.58C1092.74,-1268.19 854.86,-1234.6 854.86,-1234.6 854.86,-1234.6 742.79,-1215.11 658.66,-1200.48"/>
<polygon fill="#6666ff" stroke="#6666ff" points="659.26,-1197.03 648.81,-1198.77 658.06,-1203.93 659.26,-1197.03"/>
</g>
<!-- Metamodel::ParametricRoleHOW&#45;&gt;Metamodel::MethodContainer -->
<g id="edge29" class="edge">
<title>Metamodel::ParametricRoleHOW&#45;&gt;Metamodel::MethodContainer</title>
<path fill="none" stroke="#6666ff" d="M1284.09,-1283.56C1168.71,-1234.27 840.13,-1093.89 714.74,-1040.32"/>
<polygon fill="#6666ff" stroke="#6666ff" points="715.93,-1037.03 705.36,-1036.32 713.18,-1043.46 715.93,-1037.03"/>
</g>
<!-- Metamodel::ParametricRoleHOW&#45;&gt;Metamodel::PrivateMethodContainer -->
<g id="edge30" class="edge">
<title>Metamodel::ParametricRoleHOW&#45;&gt;Metamodel::PrivateMethodContainer</title>
<path fill="none" stroke="#6666ff" d="M1324.24,-1282.56C1322.12,-1218.11 1315.13,-1006.57 1315.13,-1006.57 1315.13,-1006.57 1340.2,-669.93 1340.2,-669.93 1340.2,-669.93 1380.11,-595.4 1402.36,-553.83"/>
<polygon fill="#6666ff" stroke="#6666ff" points="1405.58,-555.24 1407.22,-544.77 1399.41,-551.93 1405.58,-555.24"/>
</g>
<!-- Metamodel::ParametricRoleHOW&#45;&gt;Metamodel::MultiMethodContainer -->
<g id="edge31" class="edge">
<title>Metamodel::ParametricRoleHOW&#45;&gt;Metamodel::MultiMethodContainer</title>
<path fill="none" stroke="#6666ff" d="M1323.8,-1282.75C1320.43,-1224.63 1310.19,-1047.5 1310.19,-1047.5 1310.19,-1047.5 1241.73,-700.82 1221.56,-598.64"/>
<polygon fill="#6666ff" stroke="#6666ff" points="1224.97,-597.87 1219.6,-588.74 1218.11,-599.23 1224.97,-597.87"/>
</g>
<!-- Metamodel::ParametricRoleHOW&#45;&gt;Metamodel::RoleContainer -->
<g id="edge33" class="edge">
<title>Metamodel::ParametricRoleHOW&#45;&gt;Metamodel::RoleContainer</title>
<path fill="none" stroke="#6666ff" d="M1186.85,-1305.25C1111.91,-1307.57 1034.4,-1309.97 1034.4,-1309.97 1034.4,-1309.97 969.21,-1315.62 969.21,-1315.62 969.21,-1315.62 827.59,-1330.25 723.96,-1340.96"/>
<polygon fill="#6666ff" stroke="#6666ff" points="723.33,-1337.51 713.74,-1342.02 724.05,-1344.47 723.33,-1337.51"/>
</g>
<!-- Metamodel::ParametricRoleHOW&#45;&gt;Metamodel::MultipleInheritance -->
<g id="edge34" class="edge">
<title>Metamodel::ParametricRoleHOW&#45;&gt;Metamodel::MultipleInheritance</title>
<path fill="none" stroke="#6666ff" d="M1324.24,-1282.56C1322.12,-1218.11 1315.13,-1006.57 1315.13,-1006.57 1315.13,-1006.57 1424.18,-778.01 1462.54,-697.61"/>
<polygon fill="#6666ff" stroke="#6666ff" points="1465.91,-698.67 1467.06,-688.14 1459.59,-695.66 1465.91,-698.67"/>
</g>
<!-- Metamodel::ParametricRoleHOW&#45;&gt;Metamodel::TypePretense -->
<g id="edge36" class="edge">
<title>Metamodel::ParametricRoleHOW&#45;&gt;Metamodel::TypePretense</title>
<path fill="none" stroke="#6666ff" d="M1323.55,-1318.98C1316.78,-1412.61 1285.62,-1843.99 1277.31,-1959.03"/>
<polygon fill="#6666ff" stroke="#6666ff" points="1273.81,-1958.92 1276.58,-1969.15 1280.79,-1959.43 1273.81,-1958.92"/>
</g>
<!-- Metamodel::ParametricRoleHOW&#45;&gt;Metamodel::RolePunning -->
<g id="edge37" class="edge">
<title>Metamodel::ParametricRoleHOW&#45;&gt;Metamodel::RolePunning</title>
<path fill="none" stroke="#6666ff" d="M1365.72,-1318.23C1473.79,-1363.84 1766.82,-1487.53 1883.95,-1536.96"/>
<polygon fill="#6666ff" stroke="#6666ff" points="1882.83,-1540.29 1893.4,-1540.95 1885.55,-1533.84 1882.83,-1540.29"/>
</g>
<!-- Metamodel::NativeHOW -->
<g id="node26" class="node">
<title>Metamodel::NativeHOW</title>
<g id="a_node26"><a xlink:href="/type/Metamodel::NativeHOW" xlink:title="Metamodel::NativeHOW">
<ellipse fill="none" stroke="#000000" cx="1054.21" cy="-714.88" rx="106.68" ry="18"/>
<text text-anchor="middle" x="1054.21" y="-711.18" font-family="FreeSans" font-size="14.00" fill="#000000">Metamodel::NativeHOW</text>
</a>
</g>
</g>
<!-- Metamodel::NativeHOW&#45;&gt;Metamodel::Versioning -->
<g id="edge40" class="edge">
<title>Metamodel::NativeHOW&#45;&gt;Metamodel::Versioning</title>
<path fill="none" stroke="#6666ff" d="M1049.71,-732.89C1030.82,-808.58 957.77,-1101.23 934.84,-1193.11"/>
<polygon fill="#6666ff" stroke="#6666ff" points="931.44,-1192.26 932.41,-1202.81 938.23,-1193.96 931.44,-1192.26"/>
</g>
<!-- Metamodel::NativeHOW&#45;&gt;Any -->
<g id="edge4" class="edge">
<title>Metamodel::NativeHOW&#45;&gt;Any</title>
<path fill="none" stroke="#000000" d="M1096.01,-731.46C1196.92,-771.46 1452.15,-872.64 1543.06,-908.68"/>
<polygon fill="#000000" stroke="#000000" points="1541.99,-912.02 1552.58,-912.45 1544.57,-905.51 1541.99,-912.02"/>
</g>
<!-- Metamodel::NativeHOW&#45;&gt;Metamodel::Naming -->
<g id="edge38" class="edge">
<title>Metamodel::NativeHOW&#45;&gt;Metamodel::Naming</title>
<path fill="none" stroke="#6666ff" d="M1053.24,-733.22C1049.55,-802.87 1036.62,-1047.13 1036.62,-1047.13 1036.62,-1047.13 1034.8,-1229.89 1034.08,-1301.38"/>
<polygon fill="#6666ff" stroke="#6666ff" points="1030.58,-1301.44 1033.98,-1311.47 1037.58,-1301.51 1030.58,-1301.44"/>
</g>
<!-- Metamodel::NativeHOW&#45;&gt;Metamodel::Documenting -->
<g id="edge39" class="edge">
<title>Metamodel::NativeHOW&#45;&gt;Metamodel::Documenting</title>
<path fill="none" stroke="#6666ff" d="M1076.74,-732.48C1140.7,-782.43 1323.5,-925.17 1396.85,-982.46"/>
<polygon fill="#6666ff" stroke="#6666ff" points="1394.8,-985.29 1404.84,-988.69 1399.11,-979.78 1394.8,-985.29"/>
</g>
<!-- Metamodel::NativeHOW&#45;&gt;Metamodel::Stashing -->
<g id="edge41" class="edge">
<title>Metamodel::NativeHOW&#45;&gt;Metamodel::Stashing</title>
<path fill="none" stroke="#6666ff" d="M1053.24,-733.22C1049.55,-802.87 1036.62,-1047.13 1036.62,-1047.13 1036.62,-1047.13 1030.24,-1221.05 1030.24,-1221.05 1030.24,-1221.05 941.86,-1329.44 941.86,-1329.44 941.86,-1329.44 917.87,-1361.09 899.74,-1385.02"/>
<polygon fill="#6666ff" stroke="#6666ff" points="896.87,-1383.01 893.61,-1393.09 902.44,-1387.24 896.87,-1383.01"/>
</g>
<!-- Metamodel::NativeHOW&#45;&gt;Metamodel::MultipleInheritance -->
<g id="edge42" class="edge">
<title>Metamodel::NativeHOW&#45;&gt;Metamodel::MultipleInheritance</title>
<path fill="none" stroke="#6666ff" d="M1144.63,-705.27C1207.67,-698.56 1292.31,-689.55 1360.23,-682.33"/>
<polygon fill="#6666ff" stroke="#6666ff" points="1360.98,-685.77 1370.55,-681.23 1360.23,-678.81 1360.98,-685.77"/>
</g>
<!-- Metamodel::NativeHOW&#45;&gt;Metamodel::C3MRO -->
<g id="edge43" class="edge">
<title>Metamodel::NativeHOW&#45;&gt;Metamodel::C3MRO</title>
<path fill="none" stroke="#6666ff" d="M998.61,-699.45C950.05,-685.97 887.25,-668.54 887.25,-668.54 887.25,-668.54 614.44,-617.21 477.4,-591.43"/>
<polygon fill="#6666ff" stroke="#6666ff" points="477.85,-587.95 467.37,-589.54 476.55,-594.83 477.85,-587.95"/>
</g>
<!-- Metamodel::NativeHOW&#45;&gt;Metamodel::MROBasedMethodDispatch -->
<g id="edge44" class="edge">
<title>Metamodel::NativeHOW&#45;&gt;Metamodel::MROBasedMethodDispatch</title>
<path fill="none" stroke="#6666ff" d="M1052.91,-696.63C1046.83,-610.94 1021.08,-248.4 1013.67,-144.07"/>
<polygon fill="#6666ff" stroke="#6666ff" points="1017.15,-143.72 1012.95,-133.99 1010.17,-144.21 1017.15,-143.72"/>
</g>
<!-- Metamodel::NativeHOW&#45;&gt;Metamodel::MROBasedTypeChecking -->
<g id="edge45" class="edge">
<title>Metamodel::NativeHOW&#45;&gt;Metamodel::MROBasedTypeChecking</title>
<path fill="none" stroke="#6666ff" d="M1045.3,-696.74C1006.37,-617.4 851.02,-300.85 804.36,-205.77"/>
<polygon fill="#6666ff" stroke="#6666ff" points="807.5,-204.21 799.95,-196.78 801.21,-207.3 807.5,-204.21"/>
</g>
<!-- Metamodel::MethodDelegation -->
<g id="node27" class="node">
<title>Metamodel::MethodDelegation</title>
<g id="a_node27"><a xlink:href="/type/Metamodel::MethodDelegation" xlink:title="Metamodel::MethodDelegation">
<ellipse fill="none" stroke="#6666ff" cx="1821.78" cy="-2123.53" rx="131.08" ry="18"/>
<text text-anchor="middle" x="1821.78" y="-2119.83" font-family="FreeSans" font-size="14.00" fill="#6666ff">Metamodel::MethodDelegation</text>
</a>
</g>
</g>
<!-- Metamodel::ModuleHOW -->
<g id="node28" class="node">
<title>Metamodel::ModuleHOW</title>
<g id="a_node28"><a xlink:href="/type/Metamodel::ModuleHOW" xlink:title="Metamodel::ModuleHOW">
<ellipse fill="none" stroke="#000000" cx="1480.69" cy="-1609.64" rx="110.48" ry="18"/>
<text text-anchor="middle" x="1480.69" y="-1605.94" font-family="FreeSans" font-size="14.00" fill="#000000">Metamodel::ModuleHOW</text>
</a>
</g>
</g>
<!-- Metamodel::ModuleHOW&#45;&gt;Metamodel::Versioning -->
<g id="edge48" class="edge">
<title>Metamodel::ModuleHOW&#45;&gt;Metamodel::Versioning</title>
<path fill="none" stroke="#6666ff" d="M1458.22,-1591.92C1380.19,-1530.38 1125.74,-1329.7 1125.74,-1329.7 1125.74,-1329.7 1026,-1274.83 968.16,-1243.01"/>
<polygon fill="#6666ff" stroke="#6666ff" points="969.7,-1239.87 959.25,-1238.11 966.33,-1246 969.7,-1239.87"/>
</g>
<!-- Metamodel::ModuleHOW&#45;&gt;Any -->
<g id="edge5" class="edge">
<title>Metamodel::ModuleHOW&#45;&gt;Any</title>
<path fill="none" stroke="#000000" d="M1483.19,-1591.6C1496.17,-1497.74 1555.98,-1065.31 1571.93,-950"/>
<polygon fill="#000000" stroke="#000000" points="1575.43,-950.23 1573.33,-939.85 1568.5,-949.28 1575.43,-950.23"/>
</g>
<!-- Metamodel::ModuleHOW&#45;&gt;Metamodel::Naming -->
<g id="edge46" class="edge">
<title>Metamodel::ModuleHOW&#45;&gt;Metamodel::Naming</title>
<path fill="none" stroke="#6666ff" d="M1452.74,-1592.12C1375.04,-1543.43 1156.53,-1406.49 1069.87,-1352.17"/>
<polygon fill="#6666ff" stroke="#6666ff" points="1071.51,-1349.07 1061.18,-1346.73 1067.79,-1355 1071.51,-1349.07"/>
</g>
<!-- Metamodel::ModuleHOW&#45;&gt;Metamodel::Documenting -->
<g id="edge47" class="edge">
<title>Metamodel::ModuleHOW&#45;&gt;Metamodel::Documenting</title>
<path fill="none" stroke="#6666ff" d="M1479.94,-1591.26C1477.24,-1524.82 1468.14,-1301.02 1468.14,-1301.02 1468.14,-1301.02 1441.86,-1108.89 1431.76,-1035.09"/>
<polygon fill="#6666ff" stroke="#6666ff" points="1435.22,-1034.52 1430.39,-1025.09 1428.28,-1035.47 1435.22,-1034.52"/>
</g>
<!-- Metamodel::ModuleHOW&#45;&gt;Metamodel::Stashing -->
<g id="edge49" class="edge">
<title>Metamodel::ModuleHOW&#45;&gt;Metamodel::Stashing</title>
<path fill="none" stroke="#6666ff" d="M1431.78,-1593.49C1321.55,-1557.1 1054.22,-1468.83 936.78,-1430.05"/>
<polygon fill="#6666ff" stroke="#6666ff" points="937.84,-1426.71 927.24,-1426.9 935.64,-1433.36 937.84,-1426.71"/>
</g>
<!-- Metamodel::ModuleHOW&#45;&gt;Metamodel::TypePretense -->
<g id="edge50" class="edge">
<title>Metamodel::ModuleHOW&#45;&gt;Metamodel::TypePretense</title>
<path fill="none" stroke="#6666ff" d="M1470.92,-1627.6C1437.8,-1688.49 1329.66,-1887.29 1290.01,-1960.18"/>
<polygon fill="#6666ff" stroke="#6666ff" points="1286.8,-1958.75 1285.1,-1969.21 1292.95,-1962.1 1286.8,-1958.75"/>
</g>
<!-- Metamodel::ModuleHOW&#45;&gt;Metamodel::MethodDelegation -->
<g id="edge51" class="edge">
<title>Metamodel::ModuleHOW&#45;&gt;Metamodel::MethodDelegation</title>
<path fill="none" stroke="#6666ff" d="M1492.63,-1627.63C1543.64,-1704.48 1743.42,-2005.47 1804.16,-2096.99"/>
<polygon fill="#6666ff" stroke="#6666ff" points="1801.31,-2099.02 1809.76,-2105.42 1807.14,-2095.15 1801.31,-2099.02"/>
</g>
<!-- Metamodel::ConcreteRoleHOW -->
<g id="node29" class="node">
<title>Metamodel::ConcreteRoleHOW</title>
<g id="a_node29"><a xlink:href="/type/Metamodel::ConcreteRoleHOW" xlink:title="Metamodel::ConcreteRoleHOW">
<ellipse fill="none" stroke="#000000" cx="1173.4" cy="-1047.32" rx="135.38" ry="18"/>
<text text-anchor="middle" x="1173.4" y="-1043.62" font-family="FreeSans" font-size="14.00" fill="#000000">Metamodel::ConcreteRoleHOW</text>
</a>
</g>
</g>
<!-- Metamodel::ConcreteRoleHOW&#45;&gt;Metamodel::Versioning -->
<g id="edge53" class="edge">
<title>Metamodel::ConcreteRoleHOW&#45;&gt;Metamodel::Versioning</title>
<path fill="none" stroke="#6666ff" d="M1148.06,-1065.24C1103.45,-1096.77 1010.94,-1162.17 961.22,-1197.32"/>
<polygon fill="#6666ff" stroke="#6666ff" points="958.9,-1194.67 952.75,-1203.3 962.94,-1200.39 958.9,-1194.67"/>
</g>
<!-- Metamodel::ConcreteRoleHOW&#45;&gt;Any -->
<g id="edge6" class="edge">
<title>Metamodel::ConcreteRoleHOW&#45;&gt;Any</title>
<path fill="none" stroke="#000000" d="M1226.85,-1030.63C1310.81,-1004.42 1471.27,-954.32 1541.5,-932.4"/>
<polygon fill="#000000" stroke="#000000" points="1542.69,-935.69 1551.19,-929.37 1540.6,-929.01 1542.69,-935.69"/>
</g>
<!-- Metamodel::ConcreteRoleHOW&#45;&gt;Metamodel::Naming -->
<g id="edge52" class="edge">
<title>Metamodel::ConcreteRoleHOW&#45;&gt;Metamodel::Naming</title>
<path fill="none" stroke="#6666ff" d="M1164.46,-1065.4C1140.62,-1113.6 1075.47,-1245.32 1047.2,-1302.49"/>
<polygon fill="#6666ff" stroke="#6666ff" points="1043.97,-1301.12 1042.67,-1311.64 1050.24,-1304.22 1043.97,-1301.12"/>
</g>
<!-- Metamodel::ConcreteRoleHOW&#45;&gt;Metamodel::AttributeContainer -->
<g id="edge57" class="edge">
<title>Metamodel::ConcreteRoleHOW&#45;&gt;Metamodel::AttributeContainer</title>
<path fill="none" stroke="#6666ff" d="M1104.8,-1062.87C991.22,-1088.63 764.82,-1139.96 645.45,-1167.02"/>
<polygon fill="#6666ff" stroke="#6666ff" points="644.62,-1163.62 635.65,-1169.25 646.17,-1170.45 644.62,-1163.62"/>
</g>
<!-- Metamodel::ConcreteRoleHOW&#45;&gt;Metamodel::MethodContainer -->
<g id="edge55" class="edge">
<title>Metamodel::ConcreteRoleHOW&#45;&gt;Metamodel::MethodContainer</title>
<path fill="none" stroke="#6666ff" d="M1048.46,-1040.4C971.26,-1036.13 872.41,-1030.66 794.45,-1026.35"/>
<polygon fill="#6666ff" stroke="#6666ff" points="794.26,-1022.83 784.08,-1025.77 793.87,-1029.82 794.26,-1022.83"/>
</g>
<!-- Metamodel::ConcreteRoleHOW&#45;&gt;Metamodel::PrivateMethodContainer -->
<g id="edge54" class="edge">
<title>Metamodel::ConcreteRoleHOW&#45;&gt;Metamodel::PrivateMethodContainer</title>
<path fill="none" stroke="#6666ff" d="M1181.45,-1029.12C1214.77,-953.73 1340.2,-669.93 1340.2,-669.93 1340.2,-669.93 1380.11,-595.4 1402.36,-553.83"/>
<polygon fill="#6666ff" stroke="#6666ff" points="1405.58,-555.24 1407.22,-544.77 1399.41,-551.93 1405.58,-555.24"/>
</g>
<!-- Metamodel::ConcreteRoleHOW&#45;&gt;Metamodel::MultiMethodContainer -->
<g id="edge56" class="edge">
<title>Metamodel::ConcreteRoleHOW&#45;&gt;Metamodel::MultiMethodContainer</title>
<path fill="none" stroke="#6666ff" d="M1175.02,-1029.21C1181.5,-956.73 1205.61,-687.13 1213.51,-598.82"/>
<polygon fill="#6666ff" stroke="#6666ff" points="1217,-599.02 1214.41,-588.75 1210.03,-598.4 1217,-599.02"/>
</g>
<!-- Metamodel::ConcreteRoleHOW&#45;&gt;Metamodel::RoleContainer -->
<g id="edge58" class="edge">
<title>Metamodel::ConcreteRoleHOW&#45;&gt;Metamodel::RoleContainer</title>
<path fill="none" stroke="#6666ff" d="M1138.46,-1064.74C1050.25,-1108.7 825.57,-1220.68 825.57,-1220.68 825.57,-1220.68 713.85,-1291.04 653.96,-1328.76"/>
<polygon fill="#6666ff" stroke="#6666ff" points="651.76,-1326.01 645.17,-1334.3 655.49,-1331.93 651.76,-1326.01"/>
</g>
<!-- Metamodel::ConcreteRoleHOW&#45;&gt;Metamodel::MultipleInheritance -->
<g id="edge59" class="edge">
<title>Metamodel::ConcreteRoleHOW&#45;&gt;Metamodel::MultipleInheritance</title>
<path fill="none" stroke="#6666ff" d="M1187.98,-1029.12C1237.17,-967.74 1397.11,-768.11 1454.75,-696.18"/>
<polygon fill="#6666ff" stroke="#6666ff" points="1457.73,-698.05 1461.25,-688.06 1452.27,-693.68 1457.73,-698.05"/>
</g>
</g>
</svg>
