<?xml version="1.0" encoding="UTF-8" standalone="no"?>
<!DOCTYPE svg PUBLIC "-//W3C//DTD SVG 1.1//EN"
 "http://www.w3.org/Graphics/SVG/1.1/DTD/svg11.dtd">
<!-- Generated by graphviz version 2.43.0 (0)
 -->
<!-- Title: raku&#45;type&#45;graph Pages: 1 -->
<svg width="1513pt" height="2123pt"
 viewBox="0.00 0.00 1512.88 2122.64" xmlns="http://www.w3.org/2000/svg" xmlns:xlink="http://www.w3.org/1999/xlink">
<g id="graph0" class="graph" transform="scale(1 1) rotate(0) translate(4 2118.64)">
<title>raku&#45;type&#45;graph</title>
<polygon fill="#ffffff" stroke="transparent" points="-4,4 -4,-2118.64 1508.88,-2118.64 1508.88,4 -4,4"/>
<!-- Metamodel::BoolificationProtocol -->
<g id="node1" class="node">
<title>Metamodel::BoolificationProtocol</title>
<g id="a_node1"><a xlink:href="/type/Metamodel::BoolificationProtocol" xlink:title="Metamodel::BoolificationProtocol">
<ellipse fill="none" stroke="#6666ff" cx="637.21" cy="-1179.42" rx="139.18" ry="18"/>
<text text-anchor="middle" x="637.21" y="-1175.72" font-family="FreeSans" font-size="14.00" fill="#6666ff">Metamodel::BoolificationProtocol</text>
</a>
</g>
</g>
<!-- Mu -->
<g id="node2" class="node">
<title>Mu</title>
<g id="a_node2"><a xlink:href="/type/Mu" xlink:title="Mu">
<ellipse fill="none" stroke="#000000" cx="1477.88" cy="-1463.28" rx="27" ry="18"/>
<text text-anchor="middle" x="1477.88" y="-1459.58" font-family="FreeSans" font-size="14.00" fill="#000000">Mu</text>
</a>
</g>
</g>
<!-- Any -->
<g id="node3" class="node">
<title>Any</title>
<g id="a_node3"><a xlink:href="/type/Any" xlink:title="Any">
<ellipse fill="none" stroke="#000000" cx="1006.26" cy="-1204.89" rx="27" ry="18"/>
<text text-anchor="middle" x="1006.26" y="-1201.19" font-family="FreeSans" font-size="14.00" fill="#000000">Any</text>
</a>
</g>
</g>
<!-- Any&#45;&gt;Mu -->
<g id="edge1" class="edge">
<title>Any&#45;&gt;Mu</title>
<path fill="none" stroke="#000000" d="M1027.14,-1216.33C1102.39,-1257.56 1359.94,-1398.66 1448.05,-1446.93"/>
<polygon fill="#000000" stroke="#000000" points="1446.53,-1450.09 1456.99,-1451.83 1449.9,-1443.96 1446.53,-1450.09"/>
</g>
<!-- Metamodel::Naming -->
<g id="node4" class="node">
<title>Metamodel::Naming</title>
<g id="a_node4"><a xlink:href="/type/Metamodel::Naming" xlink:title="Metamodel::Naming">
<ellipse fill="none" stroke="#6666ff" cx="874.67" cy="-1176.94" rx="90.18" ry="18"/>
<text text-anchor="middle" x="874.67" y="-1173.24" font-family="FreeSans" font-size="14.00" fill="#6666ff">Metamodel::Naming</text>
</a>
</g>
</g>
<!-- Metamodel::Documenting -->
<g id="node5" class="node">
<title>Metamodel::Documenting</title>
<g id="a_node5"><a xlink:href="/type/Metamodel::Documenting" xlink:title="Metamodel::Documenting">
<ellipse fill="none" stroke="#6666ff" cx="1374.64" cy="-520.95" rx="111.28" ry="18"/>
<text text-anchor="middle" x="1374.64" y="-517.25" font-family="FreeSans" font-size="14.00" fill="#6666ff">Metamodel::Documenting</text>
</a>
</g>
</g>
<!-- Metamodel::Versioning -->
<g id="node6" class="node">
<title>Metamodel::Versioning</title>
<g id="a_node6"><a xlink:href="/type/Metamodel::Versioning" xlink:title="Metamodel::Versioning">
<ellipse fill="none" stroke="#6666ff" cx="170.07" cy="-1003.24" rx="100.98" ry="18"/>
<text text-anchor="middle" x="170.07" y="-999.54" font-family="FreeSans" font-size="14.00" fill="#6666ff">Metamodel::Versioning</text>
</a>
</g>
</g>
<!-- Metamodel::Stashing -->
<g id="node7" class="node">
<title>Metamodel::Stashing</title>
<g id="a_node7"><a xlink:href="/type/Metamodel::Stashing" xlink:title="Metamodel::Stashing">
<ellipse fill="none" stroke="#6666ff" cx="396.47" cy="-1164.14" rx="93.68" ry="18"/>
<text text-anchor="middle" x="396.47" y="-1160.44" font-family="FreeSans" font-size="14.00" fill="#6666ff">Metamodel::Stashing</text>
</a>
</g>
</g>
<!-- Metamodel::AttributeContainer -->
<g id="node8" class="node">
<title>Metamodel::AttributeContainer</title>
<g id="a_node8"><a xlink:href="/type/Metamodel::AttributeContainer" xlink:title="Metamodel::AttributeContainer">
<ellipse fill="none" stroke="#6666ff" cx="1129.91" cy="-295.35" rx="129.98" ry="18"/>
<text text-anchor="middle" x="1129.91" y="-291.65" font-family="FreeSans" font-size="14.00" fill="#6666ff">Metamodel::AttributeContainer</text>
</a>
</g>
</g>
<!-- Metamodel::Finalization -->
<g id="node9" class="node">
<title>Metamodel::Finalization</title>
<g id="a_node9"><a xlink:href="/type/Metamodel::Finalization" xlink:title="Metamodel::Finalization">
<ellipse fill="none" stroke="#6666ff" cx="174.23" cy="-395.24" rx="103.98" ry="18"/>
<text text-anchor="middle" x="174.23" y="-391.54" font-family="FreeSans" font-size="14.00" fill="#6666ff">Metamodel::Finalization</text>
</a>
</g>
</g>
<!-- Metamodel::MethodContainer -->
<g id="node10" class="node">
<title>Metamodel::MethodContainer</title>
<g id="a_node10"><a xlink:href="/type/Metamodel::MethodContainer" xlink:title="Metamodel::MethodContainer">
<ellipse fill="none" stroke="#6666ff" cx="749.74" cy="-297.55" rx="127.28" ry="18"/>
<text text-anchor="middle" x="749.74" y="-293.85" font-family="FreeSans" font-size="14.00" fill="#6666ff">Metamodel::MethodContainer</text>
</a>
</g>
</g>
<!-- Metamodel::PrivateMethodContainer -->
<g id="node11" class="node">
<title>Metamodel::PrivateMethodContainer</title>
<g id="a_node11"><a xlink:href="/type/Metamodel::PrivateMethodContainer" xlink:title="Metamodel::PrivateMethodContainer">
<ellipse fill="none" stroke="#6666ff" cx="399.88" cy="-187.74" rx="154.87" ry="18"/>
<text text-anchor="middle" x="399.88" y="-184.04" font-family="FreeSans" font-size="14.00" fill="#6666ff">Metamodel::PrivateMethodContainer</text>
</a>
</g>
</g>
<!-- Metamodel::MultiMethodContainer -->
<g id="node12" class="node">
<title>Metamodel::MultiMethodContainer</title>
<g id="a_node12"><a xlink:href="/type/Metamodel::MultiMethodContainer" xlink:title="Metamodel::MultiMethodContainer">
<ellipse fill="none" stroke="#6666ff" cx="453.07" cy="-424.49" rx="146.47" ry="18"/>
<text text-anchor="middle" x="453.07" y="-420.79" font-family="FreeSans" font-size="14.00" fill="#6666ff">Metamodel::MultiMethodContainer</text>
</a>
</g>
</g>
<!-- Metamodel::RoleContainer -->
<g id="node13" class="node">
<title>Metamodel::RoleContainer</title>
<g id="a_node13"><a xlink:href="/type/Metamodel::RoleContainer" xlink:title="Metamodel::RoleContainer">
<ellipse fill="none" stroke="#6666ff" cx="1138.94" cy="-471.37" rx="115.88" ry="18"/>
<text text-anchor="middle" x="1138.94" y="-467.67" font-family="FreeSans" font-size="14.00" fill="#6666ff">Metamodel::RoleContainer</text>
</a>
</g>
</g>
<!-- Metamodel::MultipleInheritance -->
<g id="node14" class="node">
<title>Metamodel::MultipleInheritance</title>
<g id="a_node14"><a xlink:href="/type/Metamodel::MultipleInheritance" xlink:title="Metamodel::MultipleInheritance">
<ellipse fill="none" stroke="#6666ff" cx="1344.85" cy="-846.36" rx="133.78" ry="18"/>
<text text-anchor="middle" x="1344.85" y="-842.66" font-family="FreeSans" font-size="14.00" fill="#6666ff">Metamodel::MultipleInheritance</text>
</a>
</g>
</g>
<!-- Metamodel::DefaultParent -->
<g id="node15" class="node">
<title>Metamodel::DefaultParent</title>
<g id="a_node15"><a xlink:href="/type/Metamodel::DefaultParent" xlink:title="Metamodel::DefaultParent">
<ellipse fill="none" stroke="#6666ff" cx="1175.61" cy="-1011.61" rx="113.18" ry="18"/>
<text text-anchor="middle" x="1175.61" y="-1007.91" font-family="FreeSans" font-size="14.00" fill="#6666ff">Metamodel::DefaultParent</text>
</a>
</g>
</g>
<!-- Metamodel::C3MRO -->
<g id="node16" class="node">
<title>Metamodel::C3MRO</title>
<g id="a_node16"><a xlink:href="/type/Metamodel::C3MRO" xlink:title="Metamodel::C3MRO">
<ellipse fill="none" stroke="#6666ff" cx="781.65" cy="-57.18" rx="92.08" ry="18"/>
<text text-anchor="middle" x="781.65" y="-53.48" font-family="FreeSans" font-size="14.00" fill="#6666ff">Metamodel::C3MRO</text>
</a>
</g>
</g>
<!-- Metamodel::MROBasedMethodDispatch -->
<g id="node17" class="node">
<title>Metamodel::MROBasedMethodDispatch</title>
<g id="a_node17"><a xlink:href="/type/Metamodel::MROBasedMethodDispatch" xlink:title="Metamodel::MROBasedMethodDispatch">
<ellipse fill="none" stroke="#6666ff" cx="967.64" cy="-234.86" rx="169.77" ry="18"/>
<text text-anchor="middle" x="967.64" y="-231.16" font-family="FreeSans" font-size="14.00" fill="#6666ff">Metamodel::MROBasedMethodDispatch</text>
</a>
</g>
</g>
<!-- Metamodel::MROBasedTypeChecking -->
<g id="node18" class="node">
<title>Metamodel::MROBasedTypeChecking</title>
<g id="a_node18"><a xlink:href="/type/Metamodel::MROBasedTypeChecking" xlink:title="Metamodel::MROBasedTypeChecking">
<ellipse fill="none" stroke="#6666ff" cx="320.21" cy="-634.36" rx="163.27" ry="18"/>
<text text-anchor="middle" x="320.21" y="-630.66" font-family="FreeSans" font-size="14.00" fill="#6666ff">Metamodel::MROBasedTypeChecking</text>
</a>
</g>
</g>
<!-- Metamodel::Trusting -->
<g id="node19" class="node">
<title>Metamodel::Trusting</title>
<g id="a_node19"><a xlink:href="/type/Metamodel::Trusting" xlink:title="Metamodel::Trusting">
<ellipse fill="none" stroke="#6666ff" cx="91.64" cy="-710.15" rx="91.78" ry="18"/>
<text text-anchor="middle" x="91.64" y="-706.45" font-family="FreeSans" font-size="14.00" fill="#6666ff">Metamodel::Trusting</text>
</a>
</g>
</g>
<!-- Metamodel::BUILDPLAN -->
<g id="node20" class="node">
<title>Metamodel::BUILDPLAN</title>
<g id="a_node20"><a xlink:href="/type/Metamodel::BUILDPLAN" xlink:title="Metamodel::BUILDPLAN">
<ellipse fill="none" stroke="#6666ff" cx="365.35" cy="-866.2" rx="109.68" ry="18"/>
<text text-anchor="middle" x="365.35" y="-862.5" font-family="FreeSans" font-size="14.00" fill="#6666ff">Metamodel::BUILDPLAN</text>
</a>
</g>
</g>
<!-- Metamodel::Mixins -->
<g id="node21" class="node">
<title>Metamodel::Mixins</title>
<g id="a_node21"><a xlink:href="/type/Metamodel::Mixins" xlink:title="Metamodel::Mixins">
<ellipse fill="none" stroke="#6666ff" cx="1163.5" cy="-702.33" rx="85.29" ry="18"/>
<text text-anchor="middle" x="1163.5" y="-698.63" font-family="FreeSans" font-size="14.00" fill="#6666ff">Metamodel::Mixins</text>
</a>
</g>
</g>
<!-- Metamodel::ClassHOW -->
<g id="node22" class="node">
<title>Metamodel::ClassHOW</title>
<g id="a_node22"><a xlink:href="/type/Metamodel::ClassHOW" xlink:title="Metamodel::ClassHOW">
<ellipse fill="none" stroke="#000000" cx="716.98" cy="-683.72" rx="103.18" ry="18"/>
<text text-anchor="middle" x="716.98" y="-680.02" font-family="FreeSans" font-size="14.00" fill="#000000">Metamodel::ClassHOW</text>
</a>
</g>
</g>
<!-- Metamodel::ClassHOW&#45;&gt;Metamodel::BoolificationProtocol -->
<g id="edge23" class="edge">
<title>Metamodel::ClassHOW&#45;&gt;Metamodel::BoolificationProtocol</title>
<path fill="none" stroke="#6666ff" d="M709.71,-701.85C704.85,-713.96 699.36,-727.68 699.36,-727.68 699.36,-727.68 654.76,-1051.88 641.13,-1150.98"/>
<polygon fill="#6666ff" stroke="#6666ff" points="637.62,-1150.77 639.73,-1161.15 644.56,-1151.72 637.62,-1150.77"/>
</g>
<!-- Metamodel::ClassHOW&#45;&gt;Any -->
<g id="edge2" class="edge">
<title>Metamodel::ClassHOW&#45;&gt;Any</title>
<path fill="none" stroke="#000000" d="M709.71,-701.85C704.85,-713.96 699.36,-727.68 699.36,-727.68 699.36,-727.68 926.78,-1081.3 990.08,-1179.73"/>
<polygon fill="#000000" stroke="#000000" points="987.17,-1181.67 995.52,-1188.19 993.06,-1177.88 987.17,-1181.67"/>
</g>
<!-- Metamodel::ClassHOW&#45;&gt;Metamodel::Naming -->
<g id="edge5" class="edge">
<title>Metamodel::ClassHOW&#45;&gt;Metamodel::Naming</title>
<path fill="none" stroke="#6666ff" d="M709.71,-701.85C704.85,-713.96 699.36,-727.68 699.36,-727.68 699.36,-727.68 825.68,-1051.4 863.87,-1149.26"/>
<polygon fill="#6666ff" stroke="#6666ff" points="860.69,-1150.73 867.58,-1158.77 867.21,-1148.18 860.69,-1150.73"/>
</g>
<!-- Metamodel::ClassHOW&#45;&gt;Metamodel::Documenting -->
<g id="edge6" class="edge">
<title>Metamodel::ClassHOW&#45;&gt;Metamodel::Documenting</title>
<path fill="none" stroke="#6666ff" d="M776.5,-668.99C897.76,-638.98 1172.96,-570.87 1303.44,-538.57"/>
<polygon fill="#6666ff" stroke="#6666ff" points="1304.48,-541.92 1313.34,-536.12 1302.8,-535.13 1304.48,-541.92"/>
</g>
<!-- Metamodel::ClassHOW&#45;&gt;Metamodel::Versioning -->
<g id="edge7" class="edge">
<title>Metamodel::ClassHOW&#45;&gt;Metamodel::Versioning</title>
<path fill="none" stroke="#6666ff" d="M693.51,-701.56C633.07,-747.51 476.79,-866.31 476.79,-866.31 476.79,-866.31 302.87,-943.95 216.95,-982.31"/>
<polygon fill="#6666ff" stroke="#6666ff" points="215.38,-979.17 207.68,-986.45 218.24,-985.57 215.38,-979.17"/>
</g>
<!-- Metamodel::ClassHOW&#45;&gt;Metamodel::Stashing -->
<g id="edge8" class="edge">
<title>Metamodel::ClassHOW&#45;&gt;Metamodel::Stashing</title>
<path fill="none" stroke="#6666ff" d="M705,-701.68C656.21,-774.81 472.32,-1050.44 414.2,-1137.57"/>
<polygon fill="#6666ff" stroke="#6666ff" points="411.15,-1135.83 408.51,-1146.09 416.97,-1139.72 411.15,-1135.83"/>
</g>
<!-- Metamodel::ClassHOW&#45;&gt;Metamodel::AttributeContainer -->
<g id="edge9" class="edge">
<title>Metamodel::ClassHOW&#45;&gt;Metamodel::AttributeContainer</title>
<path fill="none" stroke="#6666ff" d="M736.06,-665.77C802.77,-603.03 1025.62,-393.44 1103.09,-320.57"/>
<polygon fill="#6666ff" stroke="#6666ff" points="1105.66,-322.96 1110.55,-313.56 1100.87,-317.86 1105.66,-322.96"/>
</g>
<!-- Metamodel::ClassHOW&#45;&gt;Metamodel::Finalization -->
<g id="edge10" class="edge">
<title>Metamodel::ClassHOW&#45;&gt;Metamodel::Finalization</title>
<path fill="none" stroke="#6666ff" d="M684.65,-666.54C591.06,-616.79 319.9,-472.67 215.7,-417.28"/>
<polygon fill="#6666ff" stroke="#6666ff" points="217.2,-414.12 206.73,-412.51 213.92,-420.3 217.2,-414.12"/>
</g>
<!-- Metamodel::ClassHOW&#45;&gt;Metamodel::MethodContainer -->
<g id="edge11" class="edge">
<title>Metamodel::ClassHOW&#45;&gt;Metamodel::MethodContainer</title>
<path fill="none" stroke="#6666ff" d="M718.51,-665.62C723.76,-603.79 740.99,-400.74 747.35,-325.73"/>
<polygon fill="#6666ff" stroke="#6666ff" points="750.85,-325.88 748.21,-315.62 743.88,-325.29 750.85,-325.88"/>
</g>
<!-- Metamodel::ClassHOW&#45;&gt;Metamodel::PrivateMethodContainer -->
<g id="edge12" class="edge">
<title>Metamodel::ClassHOW&#45;&gt;Metamodel::PrivateMethodContainer</title>
<path fill="none" stroke="#6666ff" d="M708.81,-665.5C682.39,-606.49 600.91,-424.51 600.91,-424.51 600.91,-424.51 474.04,-275.09 421.88,-213.65"/>
<polygon fill="#6666ff" stroke="#6666ff" points="424.46,-211.28 415.32,-205.93 419.12,-215.82 424.46,-211.28"/>
</g>
<!-- Metamodel::ClassHOW&#45;&gt;Metamodel::MultiMethodContainer -->
<g id="edge13" class="edge">
<title>Metamodel::ClassHOW&#45;&gt;Metamodel::MultiMethodContainer</title>
<path fill="none" stroke="#6666ff" d="M698.84,-665.91C652.88,-620.77 531.78,-501.81 478.66,-449.63"/>
<polygon fill="#6666ff" stroke="#6666ff" points="480.92,-446.95 471.33,-442.43 476.02,-451.94 480.92,-446.95"/>
</g>
<!-- Metamodel::ClassHOW&#45;&gt;Metamodel::RoleContainer -->
<g id="edge14" class="edge">
<title>Metamodel::ClassHOW&#45;&gt;Metamodel::RoleContainer</title>
<path fill="none" stroke="#6666ff" d="M750.79,-666.71C826.85,-628.43 1011.33,-535.59 1095.62,-493.17"/>
<polygon fill="#6666ff" stroke="#6666ff" points="1097.31,-496.24 1104.67,-488.62 1094.16,-489.99 1097.31,-496.24"/>
</g>
<!-- Metamodel::ClassHOW&#45;&gt;Metamodel::MultipleInheritance -->
<g id="edge15" class="edge">
<title>Metamodel::ClassHOW&#45;&gt;Metamodel::MultipleInheritance</title>
<path fill="none" stroke="#6666ff" d="M788.41,-696.87C832.59,-705.01 880.92,-713.91 880.92,-713.91 880.92,-713.91 1149.21,-790.51 1277.74,-827.2"/>
<polygon fill="#6666ff" stroke="#6666ff" points="1276.92,-830.61 1287.5,-829.99 1278.84,-823.88 1276.92,-830.61"/>
</g>
<!-- Metamodel::ClassHOW&#45;&gt;Metamodel::DefaultParent -->
<g id="edge16" class="edge">
<title>Metamodel::ClassHOW&#45;&gt;Metamodel::DefaultParent</title>
<path fill="none" stroke="#6666ff" d="M788.41,-696.87C832.59,-705.01 880.92,-713.91 880.92,-713.91 880.92,-713.91 911.84,-727.78 911.84,-727.78 911.84,-727.78 1086.75,-915.99 1151.7,-985.89"/>
<polygon fill="#6666ff" stroke="#6666ff" points="1149.33,-988.48 1158.71,-993.42 1154.46,-983.72 1149.33,-988.48"/>
</g>
<!-- Metamodel::ClassHOW&#45;&gt;Metamodel::C3MRO -->
<g id="edge17" class="edge">
<title>Metamodel::ClassHOW&#45;&gt;Metamodel::C3MRO</title>
<path fill="none" stroke="#6666ff" d="M712.46,-665.61C693.44,-589.24 620.76,-297.45 620.76,-297.45 620.76,-297.45 721.94,-146.34 763.83,-83.79"/>
<polygon fill="#6666ff" stroke="#6666ff" points="766.9,-85.49 769.56,-75.24 761.08,-81.6 766.9,-85.49"/>
</g>
<!-- Metamodel::ClassHOW&#45;&gt;Metamodel::MROBasedMethodDispatch -->
<g id="edge18" class="edge">
<title>Metamodel::ClassHOW&#45;&gt;Metamodel::MROBasedMethodDispatch</title>
<path fill="none" stroke="#6666ff" d="M727.11,-665.57C766.01,-595.93 905.84,-345.54 952.42,-262.12"/>
<polygon fill="#6666ff" stroke="#6666ff" points="955.56,-263.68 957.38,-253.24 949.45,-260.26 955.56,-263.68"/>
</g>
<!-- Metamodel::ClassHOW&#45;&gt;Metamodel::MROBasedTypeChecking -->
<g id="edge19" class="edge">
<title>Metamodel::ClassHOW&#45;&gt;Metamodel::MROBasedTypeChecking</title>
<path fill="none" stroke="#6666ff" d="M632.83,-673.26C576.48,-666.25 501.48,-656.92 439.07,-649.15"/>
<polygon fill="#6666ff" stroke="#6666ff" points="439.12,-645.63 428.77,-647.87 438.26,-652.58 439.12,-645.63"/>
</g>
<!-- Metamodel::ClassHOW&#45;&gt;Metamodel::Trusting -->
<g id="edge20" class="edge">
<title>Metamodel::ClassHOW&#45;&gt;Metamodel::Trusting</title>
<path fill="none" stroke="#6666ff" d="M616.5,-687.97C499.76,-692.9 308.29,-701 191.71,-705.92"/>
<polygon fill="#6666ff" stroke="#6666ff" points="191.56,-702.43 181.72,-706.35 191.85,-709.42 191.56,-702.43"/>
</g>
<!-- Metamodel::ClassHOW&#45;&gt;Metamodel::BUILDPLAN -->
<g id="edge21" class="edge">
<title>Metamodel::ClassHOW&#45;&gt;Metamodel::BUILDPLAN</title>
<path fill="none" stroke="#6666ff" d="M683.9,-700.89C619.76,-734.18 478.59,-807.44 407.71,-844.22"/>
<polygon fill="#6666ff" stroke="#6666ff" points="405.86,-841.23 398.6,-848.95 409.09,-847.45 405.86,-841.23"/>
</g>
<!-- Metamodel::ClassHOW&#45;&gt;Metamodel::Mixins -->
<g id="edge22" class="edge">
<title>Metamodel::ClassHOW&#45;&gt;Metamodel::Mixins</title>
<path fill="none" stroke="#6666ff" d="M817.74,-687.92C893.28,-691.07 995.92,-695.35 1069.72,-698.42"/>
<polygon fill="#6666ff" stroke="#6666ff" points="1069.8,-701.93 1079.94,-698.85 1070.09,-694.93 1069.8,-701.93"/>
</g>
<!-- Metamodel::TypePretense -->
<g id="node23" class="node">
<title>Metamodel::TypePretense</title>
<g id="a_node23"><a xlink:href="/type/Metamodel::TypePretense" xlink:title="Metamodel::TypePretense">
<ellipse fill="none" stroke="#6666ff" cx="358.48" cy="-2040.26" rx="114.28" ry="18"/>
<text text-anchor="middle" x="358.48" y="-2036.56" font-family="FreeSans" font-size="14.00" fill="#6666ff">Metamodel::TypePretense</text>
</a>
</g>
</g>
<!-- Metamodel::RolePunning -->
<g id="node24" class="node">
<title>Metamodel::RolePunning</title>
<g id="a_node24"><a xlink:href="/type/Metamodel::RolePunning" xlink:title="Metamodel::RolePunning">
<ellipse fill="none" stroke="#6666ff" cx="919.59" cy="-2096.64" rx="109.68" ry="18"/>
<text text-anchor="middle" x="919.59" y="-2092.94" font-family="FreeSans" font-size="14.00" fill="#6666ff">Metamodel::RolePunning</text>
</a>
</g>
</g>
<!-- Metamodel::ParametricRoleGroupHOW -->
<g id="node25" class="node">
<title>Metamodel::ParametricRoleGroupHOW</title>
<g id="a_node25"><a xlink:href="/type/Metamodel::ParametricRoleGroupHOW" xlink:title="Metamodel::ParametricRoleGroupHOW">
<ellipse fill="none" stroke="#000000" cx="693.19" cy="-1646.94" rx="166.27" ry="18"/>
<text text-anchor="middle" x="693.19" y="-1643.24" font-family="FreeSans" font-size="14.00" fill="#000000">Metamodel::ParametricRoleGroupHOW</text>
</a>
</g>
</g>
<!-- Metamodel::ParametricRoleGroupHOW&#45;&gt;Metamodel::BoolificationProtocol -->
<g id="edge28" class="edge">
<title>Metamodel::ParametricRoleGroupHOW&#45;&gt;Metamodel::BoolificationProtocol</title>
<path fill="none" stroke="#6666ff" d="M691.03,-1628.9C682.49,-1557.53 651.01,-1294.63 640.59,-1207.6"/>
<polygon fill="#6666ff" stroke="#6666ff" points="644.06,-1207.17 639.4,-1197.66 637.11,-1208.01 644.06,-1207.17"/>
</g>
<!-- Metamodel::ParametricRoleGroupHOW&#45;&gt;Any -->
<g id="edge3" class="edge">
<title>Metamodel::ParametricRoleGroupHOW&#45;&gt;Any</title>
<path fill="none" stroke="#000000" d="M706.05,-1628.78C755.24,-1559.33 931.6,-1310.31 988.46,-1230.03"/>
<polygon fill="#000000" stroke="#000000" points="991.56,-1231.7 994.49,-1221.52 985.85,-1227.66 991.56,-1231.7"/>
</g>
<!-- Metamodel::ParametricRoleGroupHOW&#45;&gt;Metamodel::Naming -->
<g id="edge24" class="edge">
<title>Metamodel::ParametricRoleGroupHOW&#45;&gt;Metamodel::Naming</title>
<path fill="none" stroke="#6666ff" d="M700.2,-1628.8C727.99,-1556.83 830.6,-1291.09 864.05,-1204.45"/>
<polygon fill="#6666ff" stroke="#6666ff" points="867.35,-1205.61 867.69,-1195.02 860.82,-1203.09 867.35,-1205.61"/>
</g>
<!-- Metamodel::ParametricRoleGroupHOW&#45;&gt;Metamodel::Stashing -->
<g id="edge25" class="edge">
<title>Metamodel::ParametricRoleGroupHOW&#45;&gt;Metamodel::Stashing</title>
<path fill="none" stroke="#6666ff" d="M682.1,-1628.89C636.89,-1555.32 466.31,-1277.78 412.7,-1190.55"/>
<polygon fill="#6666ff" stroke="#6666ff" points="415.68,-1188.7 407.46,-1182.02 409.71,-1192.37 415.68,-1188.7"/>
</g>
<!-- Metamodel::ParametricRoleGroupHOW&#45;&gt;Metamodel::TypePretense -->
<g id="edge26" class="edge">
<title>Metamodel::ParametricRoleGroupHOW&#45;&gt;Metamodel::TypePretense</title>
<path fill="none" stroke="#6666ff" d="M677.72,-1665.12C623.75,-1728.55 443.65,-1940.18 380.55,-2014.32"/>
<polygon fill="#6666ff" stroke="#6666ff" points="377.6,-2012.38 373.79,-2022.27 382.93,-2016.92 377.6,-2012.38"/>
</g>
<!-- Metamodel::ParametricRoleGroupHOW&#45;&gt;Metamodel::RolePunning -->
<g id="edge27" class="edge">
<title>Metamodel::ParametricRoleGroupHOW&#45;&gt;Metamodel::RolePunning</title>
<path fill="none" stroke="#6666ff" d="M702.35,-1665.12C737.44,-1734.83 863.51,-1985.24 905.71,-2069.07"/>
<polygon fill="#6666ff" stroke="#6666ff" points="902.7,-2070.87 910.32,-2078.23 908.95,-2067.72 902.7,-2070.87"/>
</g>
<!-- Metamodel::BaseType -->
<g id="node26" class="node">
<title>Metamodel::BaseType</title>
<g id="a_node26"><a xlink:href="/type/Metamodel::BaseType" xlink:title="Metamodel::BaseType">
<ellipse fill="none" stroke="#6666ff" cx="485.13" cy="-18" rx="99.38" ry="18"/>
<text text-anchor="middle" x="485.13" y="-14.3" font-family="FreeSans" font-size="14.00" fill="#6666ff">Metamodel::BaseType</text>
</a>
</g>
</g>
<!-- Metamodel::EnumHOW -->
<g id="node27" class="node">
<title>Metamodel::EnumHOW</title>
<g id="a_node27"><a xlink:href="/type/Metamodel::EnumHOW" xlink:title="Metamodel::EnumHOW">
<ellipse fill="none" stroke="#000000" cx="805.6" cy="-727.73" rx="104.78" ry="18"/>
<text text-anchor="middle" x="805.6" y="-724.03" font-family="FreeSans" font-size="14.00" fill="#000000">Metamodel::EnumHOW</text>
</a>
</g>
</g>
<!-- Metamodel::EnumHOW&#45;&gt;Metamodel::BoolificationProtocol -->
<g id="edge39" class="edge">
<title>Metamodel::EnumHOW&#45;&gt;Metamodel::BoolificationProtocol</title>
<path fill="none" stroke="#6666ff" d="M798.89,-745.71C772.91,-815.4 678.77,-1067.93 647.44,-1151.99"/>
<polygon fill="#6666ff" stroke="#6666ff" points="644.15,-1150.79 643.94,-1161.38 650.71,-1153.24 644.15,-1150.79"/>
</g>
<!-- Metamodel::EnumHOW&#45;&gt;Any -->
<g id="edge4" class="edge">
<title>Metamodel::EnumHOW&#45;&gt;Any</title>
<path fill="none" stroke="#000000" d="M813.22,-745.85C843.9,-818.8 958.46,-1091.21 994.99,-1178.09"/>
<polygon fill="#000000" stroke="#000000" points="991.85,-1179.65 998.95,-1187.51 998.3,-1176.94 991.85,-1179.65"/>
</g>
<!-- Metamodel::EnumHOW&#45;&gt;Metamodel::Naming -->
<g id="edge29" class="edge">
<title>Metamodel::EnumHOW&#45;&gt;Metamodel::Naming</title>
<path fill="none" stroke="#6666ff" d="M808.39,-745.89C819.06,-815.31 857.33,-1064.14 870.32,-1148.64"/>
<polygon fill="#6666ff" stroke="#6666ff" points="866.87,-1149.2 871.85,-1158.55 873.78,-1148.13 866.87,-1149.2"/>
</g>
<!-- Metamodel::EnumHOW&#45;&gt;Metamodel::Stashing -->
<g id="edge30" class="edge">
<title>Metamodel::EnumHOW&#45;&gt;Metamodel::Stashing</title>
<path fill="none" stroke="#6666ff" d="M788.79,-745.65C724.69,-814.03 495.3,-1058.72 420.35,-1138.67"/>
<polygon fill="#6666ff" stroke="#6666ff" points="417.47,-1136.62 413.19,-1146.31 422.58,-1141.41 417.47,-1136.62"/>
</g>
<!-- Metamodel::EnumHOW&#45;&gt;Metamodel::AttributeContainer -->
<g id="edge31" class="edge">
<title>Metamodel::EnumHOW&#45;&gt;Metamodel::AttributeContainer</title>
<path fill="none" stroke="#6666ff" d="M819.12,-709.7C870.01,-641.85 1050.18,-401.65 1110.26,-321.56"/>
<polygon fill="#6666ff" stroke="#6666ff" points="1113.13,-323.56 1116.33,-313.46 1107.53,-319.36 1113.13,-323.56"/>
</g>
<!-- Metamodel::EnumHOW&#45;&gt;Metamodel::MethodContainer -->
<g id="edge32" class="edge">
<title>Metamodel::EnumHOW&#45;&gt;Metamodel::MethodContainer</title>
<path fill="none" stroke="#6666ff" d="M812.33,-709.65C816.82,-697.58 821.91,-683.91 821.91,-683.91 821.91,-683.91 771.57,-414.41 754.98,-325.58"/>
<polygon fill="#6666ff" stroke="#6666ff" points="758.41,-324.86 753.13,-315.67 751.52,-326.14 758.41,-324.86"/>
</g>
<!-- Metamodel::EnumHOW&#45;&gt;Metamodel::MultiMethodContainer -->
<g id="edge33" class="edge">
<title>Metamodel::EnumHOW&#45;&gt;Metamodel::MultiMethodContainer</title>
<path fill="none" stroke="#6666ff" d="M812.33,-709.65C816.82,-697.58 821.91,-683.91 821.91,-683.91 821.91,-683.91 577.76,-512.19 486.74,-448.17"/>
<polygon fill="#6666ff" stroke="#6666ff" points="488.61,-445.21 478.42,-442.32 484.59,-450.94 488.61,-445.21"/>
</g>
<!-- Metamodel::EnumHOW&#45;&gt;Metamodel::RoleContainer -->
<g id="edge34" class="edge">
<title>Metamodel::EnumHOW&#45;&gt;Metamodel::RoleContainer</title>
<path fill="none" stroke="#6666ff" d="M828.51,-710.11C886.91,-665.2 1041.4,-546.39 1107.84,-495.29"/>
<polygon fill="#6666ff" stroke="#6666ff" points="1110.08,-497.98 1115.87,-489.11 1105.81,-492.44 1110.08,-497.98"/>
</g>
<!-- Metamodel::EnumHOW&#45;&gt;Metamodel::MROBasedMethodDispatch -->
<g id="edge36" class="edge">
<title>Metamodel::EnumHOW&#45;&gt;Metamodel::MROBasedMethodDispatch</title>
<path fill="none" stroke="#6666ff" d="M812.33,-709.65C816.82,-697.58 821.91,-683.91 821.91,-683.91 821.91,-683.91 926.71,-360.99 958.57,-262.83"/>
<polygon fill="#6666ff" stroke="#6666ff" points="961.99,-263.61 961.75,-253.02 955.34,-261.45 961.99,-263.61"/>
</g>
<!-- Metamodel::EnumHOW&#45;&gt;Metamodel::MROBasedTypeChecking -->
<g id="edge37" class="edge">
<title>Metamodel::EnumHOW&#45;&gt;Metamodel::MROBasedTypeChecking</title>
<path fill="none" stroke="#6666ff" d="M734.35,-714.54C690.29,-706.38 642.08,-697.45 642.08,-697.45 642.08,-697.45 505.76,-670.73 410.55,-652.07"/>
<polygon fill="#6666ff" stroke="#6666ff" points="411.09,-648.61 400.6,-650.12 409.74,-655.48 411.09,-648.61"/>
</g>
<!-- Metamodel::EnumHOW&#45;&gt;Metamodel::BUILDPLAN -->
<g id="edge38" class="edge">
<title>Metamodel::EnumHOW&#45;&gt;Metamodel::BUILDPLAN</title>
<path fill="none" stroke="#6666ff" d="M755.09,-743.61C673.65,-769.23 513.6,-819.57 426.07,-847.1"/>
<polygon fill="#6666ff" stroke="#6666ff" points="424.77,-843.84 416.28,-850.18 426.87,-850.52 424.77,-843.84"/>
</g>
<!-- Metamodel::EnumHOW&#45;&gt;Metamodel::Mixins -->
<g id="edge40" class="edge">
<title>Metamodel::EnumHOW&#45;&gt;Metamodel::Mixins</title>
<path fill="none" stroke="#6666ff" d="M902.45,-720.86C955.34,-717.1 1020.44,-712.48 1072.4,-708.79"/>
<polygon fill="#6666ff" stroke="#6666ff" points="1072.88,-712.27 1082.61,-708.07 1072.38,-705.29 1072.88,-712.27"/>
</g>
<!-- Metamodel::EnumHOW&#45;&gt;Metamodel::BaseType -->
<g id="edge35" class="edge">
<title>Metamodel::EnumHOW&#45;&gt;Metamodel::BaseType</title>
<path fill="none" stroke="#6666ff" d="M812.33,-709.65C816.82,-697.58 821.91,-683.91 821.91,-683.91 821.91,-683.91 620.76,-297.45 620.76,-297.45 620.76,-297.45 532.68,-115.98 498.48,-45.51"/>
<polygon fill="#6666ff" stroke="#6666ff" points="501.54,-43.8 494.03,-36.34 495.24,-46.86 501.54,-43.8"/>
</g>
</g>
</svg>
