<?xml version="1.0" encoding="UTF-8" standalone="no"?>
<!DOCTYPE svg PUBLIC "-//W3C//DTD SVG 1.1//EN"
 "http://www.w3.org/Graphics/SVG/1.1/DTD/svg11.dtd">
<!-- Generated by graphviz version 2.43.0 (0)
 -->
<!-- Title: raku&#45;type&#45;graph Pages: 1 -->
<svg width="747pt" height="749pt"
 viewBox="0.00 0.00 746.64 749.23" xmlns="http://www.w3.org/2000/svg" xmlns:xlink="http://www.w3.org/1999/xlink">
<g id="graph0" class="graph" transform="scale(1 1) rotate(0) translate(4 745.23)">
<title>raku&#45;type&#45;graph</title>
<polygon fill="#ffffff" stroke="transparent" points="-4,4 -4,-745.23 742.64,-745.23 742.64,4 -4,4"/>
<!-- Metamodel::BaseDispatcher -->
<g id="node1" class="node">
<title>Metamodel::BaseDispatcher</title>
<g id="a_node1"><a xlink:href="/type/Metamodel::BaseDispatcher" xlink:title="Metamodel::BaseDispatcher">
<ellipse fill="none" stroke="#000000" cx="370.04" cy="-482.33" rx="121.58" ry="18"/>
<text text-anchor="middle" x="370.04" y="-478.63" font-family="FreeSans" font-size="14.00" fill="#000000">Metamodel::BaseDispatcher</text>
</a>
</g>
</g>
<!-- Any -->
<g id="node3" class="node">
<title>Any</title>
<g id="a_node3"><a xlink:href="/type/Any" xlink:title="Any">
<ellipse fill="none" stroke="#000000" cx="411.17" cy="-240.88" rx="27" ry="18"/>
<text text-anchor="middle" x="411.17" y="-237.18" font-family="FreeSans" font-size="14.00" fill="#000000">Any</text>
</a>
</g>
</g>
<!-- Metamodel::BaseDispatcher&#45;&gt;Any -->
<g id="edge1" class="edge">
<title>Metamodel::BaseDispatcher&#45;&gt;Any</title>
<path fill="none" stroke="#000000" d="M373.13,-464.18C380.25,-422.39 397.84,-319.12 406.37,-269.03"/>
<polygon fill="#000000" stroke="#000000" points="409.87,-269.35 408.1,-258.91 402.97,-268.18 409.87,-269.35"/>
</g>
<!-- Mu -->
<g id="node2" class="node">
<title>Mu</title>
<g id="a_node2"><a xlink:href="/type/Mu" xlink:title="Mu">
<ellipse fill="none" stroke="#000000" cx="465.99" cy="-18" rx="27" ry="18"/>
<text text-anchor="middle" x="465.99" y="-14.3" font-family="FreeSans" font-size="14.00" fill="#000000">Mu</text>
</a>
</g>
</g>
<!-- Any&#45;&gt;Mu -->
<g id="edge2" class="edge">
<title>Any&#45;&gt;Mu</title>
<path fill="none" stroke="#000000" d="M415.56,-223.02C425.09,-184.3 447.69,-92.4 459.12,-45.93"/>
<polygon fill="#000000" stroke="#000000" points="462.59,-46.49 461.58,-35.95 455.79,-44.82 462.59,-46.49"/>
</g>
<!-- Metamodel::MultiDispatcher -->
<g id="node4" class="node">
<title>Metamodel::MultiDispatcher</title>
<g id="a_node4"><a xlink:href="/type/Metamodel::MultiDispatcher" xlink:title="Metamodel::MultiDispatcher">
<ellipse fill="none" stroke="#000000" cx="120.24" cy="-473.78" rx="120.48" ry="18"/>
<text text-anchor="middle" x="120.24" y="-470.08" font-family="FreeSans" font-size="14.00" fill="#000000">Metamodel::MultiDispatcher</text>
</a>
</g>
</g>
<!-- Metamodel::MultiDispatcher&#45;&gt;Metamodel::BaseDispatcher -->
<g id="edge3" class="edge">
<title>Metamodel::MultiDispatcher&#45;&gt;Metamodel::BaseDispatcher</title>
<path fill="none" stroke="#000000" d="M237.46,-477.79C238.78,-477.84 240.1,-477.88 241.42,-477.93"/>
<polygon fill="#000000" stroke="#000000" points="241.43,-481.43 251.55,-478.27 241.67,-474.43 241.43,-481.43"/>
</g>
<!-- Metamodel::MethodDispatcher -->
<g id="node5" class="node">
<title>Metamodel::MethodDispatcher</title>
<g id="a_node5"><a xlink:href="/type/Metamodel::MethodDispatcher" xlink:title="Metamodel::MethodDispatcher">
<ellipse fill="none" stroke="#000000" cx="607.35" cy="-560.39" rx="131.08" ry="18"/>
<text text-anchor="middle" x="607.35" y="-556.69" font-family="FreeSans" font-size="14.00" fill="#000000">Metamodel::MethodDispatcher</text>
</a>
</g>
</g>
<!-- Metamodel::MethodDispatcher&#45;&gt;Metamodel::BaseDispatcher -->
<g id="edge4" class="edge">
<title>Metamodel::MethodDispatcher&#45;&gt;Metamodel::BaseDispatcher</title>
<path fill="none" stroke="#000000" d="M556.73,-543.74C519.59,-531.52 469.01,-514.88 429.86,-502"/>
<polygon fill="#000000" stroke="#000000" points="430.77,-498.62 420.17,-498.82 428.58,-505.27 430.77,-498.62"/>
</g>
<!-- Metamodel::WrapDispatcher -->
<g id="node6" class="node">
<title>Metamodel::WrapDispatcher</title>
<g id="a_node6"><a xlink:href="/type/Metamodel::WrapDispatcher" xlink:title="Metamodel::WrapDispatcher">
<ellipse fill="none" stroke="#000000" cx="328.1" cy="-723.23" rx="122.38" ry="18"/>
<text text-anchor="middle" x="328.1" y="-719.53" font-family="FreeSans" font-size="14.00" fill="#000000">Metamodel::WrapDispatcher</text>
</a>
</g>
</g>
<!-- Metamodel::WrapDispatcher&#45;&gt;Metamodel::BaseDispatcher -->
<g id="edge5" class="edge">
<title>Metamodel::WrapDispatcher&#45;&gt;Metamodel::BaseDispatcher</title>
<path fill="none" stroke="#000000" d="M331.26,-705.12C338.5,-663.53 356.36,-560.9 365.09,-510.78"/>
<polygon fill="#000000" stroke="#000000" points="368.59,-511.09 366.85,-500.64 361.69,-509.89 368.59,-511.09"/>
</g>
</g>
</svg>
