<?xml version="1.0" encoding="UTF-8" standalone="no"?>
<!DOCTYPE svg PUBLIC "-//W3C//DTD SVG 1.1//EN"
 "http://www.w3.org/Graphics/SVG/1.1/DTD/svg11.dtd">
<!-- Generated by graphviz version 2.43.0 (0)
 -->
<!-- Title: raku&#45;type&#45;graph Pages: 1 -->
<svg width="1727pt" height="1967pt"
 viewBox="0.00 0.00 1726.62 1966.85" xmlns="http://www.w3.org/2000/svg" xmlns:xlink="http://www.w3.org/1999/xlink">
<g id="graph0" class="graph" transform="scale(1 1) rotate(0) translate(4 1962.85)">
<title>raku&#45;type&#45;graph</title>
<polygon fill="#ffffff" stroke="transparent" points="-4,4 -4,-1962.85 1722.62,-1962.85 1722.62,4 -4,4"/>
<!-- Metamodel::Versioning -->
<g id="node1" class="node">
<title>Metamodel::Versioning</title>
<g id="a_node1"><a xlink:href="/type/Metamodel::Versioning" xlink:title="Metamodel::Versioning">
<ellipse fill="none" stroke="#6666ff" cx="824.78" cy="-1075.36" rx="100.98" ry="18"/>
<text text-anchor="middle" x="824.78" y="-1071.66" font-family="FreeSans" font-size="14.00" fill="#6666ff">Metamodel::Versioning</text>
</a>
</g>
</g>
<!-- Mu -->
<g id="node2" class="node">
<title>Mu</title>
<g id="a_node2"><a xlink:href="/type/Mu" xlink:title="Mu">
<ellipse fill="none" stroke="#000000" cx="1601.13" cy="-1316.44" rx="27" ry="18"/>
<text text-anchor="middle" x="1601.13" y="-1312.74" font-family="FreeSans" font-size="14.00" fill="#000000">Mu</text>
</a>
</g>
</g>
<!-- Any -->
<g id="node3" class="node">
<title>Any</title>
<g id="a_node3"><a xlink:href="/type/Any" xlink:title="Any">
<ellipse fill="none" stroke="#000000" cx="1087.1" cy="-1002.16" rx="27" ry="18"/>
<text text-anchor="middle" x="1087.1" y="-998.46" font-family="FreeSans" font-size="14.00" fill="#000000">Any</text>
</a>
</g>
</g>
<!-- Any&#45;&gt;Mu -->
<g id="edge1" class="edge">
<title>Any&#45;&gt;Mu</title>
<path fill="none" stroke="#000000" d="M1111.61,-1009.76C1156.22,-1023.59 1246.16,-1051.48 1246.16,-1051.48 1246.16,-1051.48 1278.72,-1065.37 1278.72,-1065.37 1278.72,-1065.37 1498.48,-1236.5 1575.13,-1296.19"/>
<polygon fill="#000000" stroke="#000000" points="1573.3,-1299.2 1583.34,-1302.58 1577.6,-1293.68 1573.3,-1299.2"/>
</g>
<!-- Metamodel::Naming -->
<g id="node4" class="node">
<title>Metamodel::Naming</title>
<g id="a_node4"><a xlink:href="/type/Metamodel::Naming" xlink:title="Metamodel::Naming">
<ellipse fill="none" stroke="#6666ff" cx="894.86" cy="-948.93" rx="90.18" ry="18"/>
<text text-anchor="middle" x="894.86" y="-945.23" font-family="FreeSans" font-size="14.00" fill="#6666ff">Metamodel::Naming</text>
</a>
</g>
</g>
<!-- Metamodel::Documenting -->
<g id="node5" class="node">
<title>Metamodel::Documenting</title>
<g id="a_node5"><a xlink:href="/type/Metamodel::Documenting" xlink:title="Metamodel::Documenting">
<ellipse fill="none" stroke="#6666ff" cx="1165.98" cy="-1065.26" rx="111.28" ry="18"/>
<text text-anchor="middle" x="1165.98" y="-1061.56" font-family="FreeSans" font-size="14.00" fill="#6666ff">Metamodel::Documenting</text>
</a>
</g>
</g>
<!-- Metamodel::Stashing -->
<g id="node6" class="node">
<title>Metamodel::Stashing</title>
<g id="a_node6"><a xlink:href="/type/Metamodel::Stashing" xlink:title="Metamodel::Stashing">
<ellipse fill="none" stroke="#6666ff" cx="1023.07" cy="-1119.39" rx="93.68" ry="18"/>
<text text-anchor="middle" x="1023.07" y="-1115.69" font-family="FreeSans" font-size="14.00" fill="#6666ff">Metamodel::Stashing</text>
</a>
</g>
</g>
<!-- Metamodel::AttributeContainer -->
<g id="node7" class="node">
<title>Metamodel::AttributeContainer</title>
<g id="a_node7"><a xlink:href="/type/Metamodel::AttributeContainer" xlink:title="Metamodel::AttributeContainer">
<ellipse fill="none" stroke="#6666ff" cx="287.31" cy="-668.64" rx="129.98" ry="18"/>
<text text-anchor="middle" x="287.31" y="-664.94" font-family="FreeSans" font-size="14.00" fill="#6666ff">Metamodel::AttributeContainer</text>
</a>
</g>
</g>
<!-- Metamodel::Finalization -->
<g id="node8" class="node">
<title>Metamodel::Finalization</title>
<g id="a_node8"><a xlink:href="/type/Metamodel::Finalization" xlink:title="Metamodel::Finalization">
<ellipse fill="none" stroke="#6666ff" cx="1013.12" cy="-18" rx="103.98" ry="18"/>
<text text-anchor="middle" x="1013.12" y="-14.3" font-family="FreeSans" font-size="14.00" fill="#6666ff">Metamodel::Finalization</text>
</a>
</g>
</g>
<!-- Metamodel::MethodContainer -->
<g id="node9" class="node">
<title>Metamodel::MethodContainer</title>
<g id="a_node9"><a xlink:href="/type/Metamodel::MethodContainer" xlink:title="Metamodel::MethodContainer">
<ellipse fill="none" stroke="#6666ff" cx="293.68" cy="-557.63" rx="127.28" ry="18"/>
<text text-anchor="middle" x="293.68" y="-553.93" font-family="FreeSans" font-size="14.00" fill="#6666ff">Metamodel::MethodContainer</text>
</a>
</g>
</g>
<!-- Metamodel::PrivateMethodContainer -->
<g id="node10" class="node">
<title>Metamodel::PrivateMethodContainer</title>
<g id="a_node10"><a xlink:href="/type/Metamodel::PrivateMethodContainer" xlink:title="Metamodel::PrivateMethodContainer">
<ellipse fill="none" stroke="#6666ff" cx="580.96" cy="-674.59" rx="154.87" ry="18"/>
<text text-anchor="middle" x="580.96" y="-670.89" font-family="FreeSans" font-size="14.00" fill="#6666ff">Metamodel::PrivateMethodContainer</text>
</a>
</g>
</g>
<!-- Metamodel::MultiMethodContainer -->
<g id="node11" class="node">
<title>Metamodel::MultiMethodContainer</title>
<g id="a_node11"><a xlink:href="/type/Metamodel::MultiMethodContainer" xlink:title="Metamodel::MultiMethodContainer">
<ellipse fill="none" stroke="#6666ff" cx="575.46" cy="-521.54" rx="146.47" ry="18"/>
<text text-anchor="middle" x="575.46" y="-517.84" font-family="FreeSans" font-size="14.00" fill="#6666ff">Metamodel::MultiMethodContainer</text>
</a>
</g>
</g>
<!-- Metamodel::RoleContainer -->
<g id="node12" class="node">
<title>Metamodel::RoleContainer</title>
<g id="a_node12"><a xlink:href="/type/Metamodel::RoleContainer" xlink:title="Metamodel::RoleContainer">
<ellipse fill="none" stroke="#6666ff" cx="300.46" cy="-791.2" rx="115.88" ry="18"/>
<text text-anchor="middle" x="300.46" y="-787.5" font-family="FreeSans" font-size="14.00" fill="#6666ff">Metamodel::RoleContainer</text>
</a>
</g>
</g>
<!-- Metamodel::MultipleInheritance -->
<g id="node13" class="node">
<title>Metamodel::MultipleInheritance</title>
<g id="a_node13"><a xlink:href="/type/Metamodel::MultipleInheritance" xlink:title="Metamodel::MultipleInheritance">
<ellipse fill="none" stroke="#6666ff" cx="903.27" cy="-748.64" rx="133.78" ry="18"/>
<text text-anchor="middle" x="903.27" y="-744.94" font-family="FreeSans" font-size="14.00" fill="#6666ff">Metamodel::MultipleInheritance</text>
</a>
</g>
</g>
<!-- Metamodel::DefaultParent -->
<g id="node14" class="node">
<title>Metamodel::DefaultParent</title>
<g id="a_node14"><a xlink:href="/type/Metamodel::DefaultParent" xlink:title="Metamodel::DefaultParent">
<ellipse fill="none" stroke="#6666ff" cx="1136.63" cy="-72.92" rx="113.18" ry="18"/>
<text text-anchor="middle" x="1136.63" y="-69.22" font-family="FreeSans" font-size="14.00" fill="#6666ff">Metamodel::DefaultParent</text>
</a>
</g>
</g>
<!-- Metamodel::C3MRO -->
<g id="node15" class="node">
<title>Metamodel::C3MRO</title>
<g id="a_node15"><a xlink:href="/type/Metamodel::C3MRO" xlink:title="Metamodel::C3MRO">
<ellipse fill="none" stroke="#6666ff" cx="1503.53" cy="-572.66" rx="92.08" ry="18"/>
<text text-anchor="middle" x="1503.53" y="-568.96" font-family="FreeSans" font-size="14.00" fill="#6666ff">Metamodel::C3MRO</text>
</a>
</g>
</g>
<!-- Metamodel::MROBasedMethodDispatch -->
<g id="node16" class="node">
<title>Metamodel::MROBasedMethodDispatch</title>
<g id="a_node16"><a xlink:href="/type/Metamodel::MROBasedMethodDispatch" xlink:title="Metamodel::MROBasedMethodDispatch">
<ellipse fill="none" stroke="#6666ff" cx="1548.98" cy="-424.28" rx="169.77" ry="18"/>
<text text-anchor="middle" x="1548.98" y="-420.58" font-family="FreeSans" font-size="14.00" fill="#6666ff">Metamodel::MROBasedMethodDispatch</text>
</a>
</g>
</g>
<!-- Metamodel::MROBasedTypeChecking -->
<g id="node17" class="node">
<title>Metamodel::MROBasedTypeChecking</title>
<g id="a_node17"><a xlink:href="/type/Metamodel::MROBasedTypeChecking" xlink:title="Metamodel::MROBasedTypeChecking">
<ellipse fill="none" stroke="#6666ff" cx="1208.04" cy="-409.37" rx="163.27" ry="18"/>
<text text-anchor="middle" x="1208.04" y="-405.67" font-family="FreeSans" font-size="14.00" fill="#6666ff">Metamodel::MROBasedTypeChecking</text>
</a>
</g>
</g>
<!-- Metamodel::Trusting -->
<g id="node18" class="node">
<title>Metamodel::Trusting</title>
<g id="a_node18"><a xlink:href="/type/Metamodel::Trusting" xlink:title="Metamodel::Trusting">
<ellipse fill="none" stroke="#6666ff" cx="449.02" cy="-147.17" rx="91.78" ry="18"/>
<text text-anchor="middle" x="449.02" y="-143.47" font-family="FreeSans" font-size="14.00" fill="#6666ff">Metamodel::Trusting</text>
</a>
</g>
</g>
<!-- Metamodel::BUILDPLAN -->
<g id="node19" class="node">
<title>Metamodel::BUILDPLAN</title>
<g id="a_node19"><a xlink:href="/type/Metamodel::BUILDPLAN" xlink:title="Metamodel::BUILDPLAN">
<ellipse fill="none" stroke="#6666ff" cx="791.27" cy="-22.61" rx="109.68" ry="18"/>
<text text-anchor="middle" x="791.27" y="-18.91" font-family="FreeSans" font-size="14.00" fill="#6666ff">Metamodel::BUILDPLAN</text>
</a>
</g>
</g>
<!-- Metamodel::Mixins -->
<g id="node20" class="node">
<title>Metamodel::Mixins</title>
<g id="a_node20"><a xlink:href="/type/Metamodel::Mixins" xlink:title="Metamodel::Mixins">
<ellipse fill="none" stroke="#6666ff" cx="601.16" cy="-66.64" rx="85.29" ry="18"/>
<text text-anchor="middle" x="601.16" y="-62.94" font-family="FreeSans" font-size="14.00" fill="#6666ff">Metamodel::Mixins</text>
</a>
</g>
</g>
<!-- Metamodel::BoolificationProtocol -->
<g id="node21" class="node">
<title>Metamodel::BoolificationProtocol</title>
<g id="a_node21"><a xlink:href="/type/Metamodel::BoolificationProtocol" xlink:title="Metamodel::BoolificationProtocol">
<ellipse fill="none" stroke="#6666ff" cx="1281.64" cy="-148.16" rx="139.18" ry="18"/>
<text text-anchor="middle" x="1281.64" y="-144.46" font-family="FreeSans" font-size="14.00" fill="#6666ff">Metamodel::BoolificationProtocol</text>
</a>
</g>
</g>
<!-- Metamodel::ClassHOW -->
<g id="node22" class="node">
<title>Metamodel::ClassHOW</title>
<g id="a_node22"><a xlink:href="/type/Metamodel::ClassHOW" xlink:title="Metamodel::ClassHOW">
<ellipse fill="none" stroke="#000000" cx="896.88" cy="-514.08" rx="103.18" ry="18"/>
<text text-anchor="middle" x="896.88" y="-510.38" font-family="FreeSans" font-size="14.00" fill="#000000">Metamodel::ClassHOW</text>
</a>
</g>
</g>
<!-- Metamodel::ClassHOW&#45;&gt;Metamodel::Versioning -->
<g id="edge9" class="edge">
<title>Metamodel::ClassHOW&#45;&gt;Metamodel::Versioning</title>
<path fill="none" stroke="#6666ff" d="M886.97,-532.09C856.74,-586.98 767.78,-748.52 767.78,-748.52 767.78,-748.52 806.01,-967.7 819.85,-1047.09"/>
<polygon fill="#6666ff" stroke="#6666ff" points="816.47,-1048.08 821.64,-1057.33 823.37,-1046.87 816.47,-1048.08"/>
</g>
<!-- Metamodel::ClassHOW&#45;&gt;Any -->
<g id="edge2" class="edge">
<title>Metamodel::ClassHOW&#45;&gt;Any</title>
<path fill="none" stroke="#000000" d="M907.78,-532.1C941,-587.06 1038.75,-748.75 1038.75,-748.75 1038.75,-748.75 1069.07,-907.65 1081.69,-973.8"/>
<polygon fill="#000000" stroke="#000000" points="1078.31,-974.77 1083.63,-983.94 1085.19,-973.46 1078.31,-974.77"/>
</g>
<!-- Metamodel::ClassHOW&#45;&gt;Metamodel::Naming -->
<g id="edge7" class="edge">
<title>Metamodel::ClassHOW&#45;&gt;Metamodel::Naming</title>
<path fill="none" stroke="#6666ff" d="M886.97,-532.09C856.74,-586.98 767.78,-748.52 767.78,-748.52 767.78,-748.52 843.42,-867.81 877.98,-922.32"/>
<polygon fill="#6666ff" stroke="#6666ff" points="875.04,-924.22 883.35,-930.79 880.96,-920.47 875.04,-924.22"/>
</g>
<!-- Metamodel::ClassHOW&#45;&gt;Metamodel::Documenting -->
<g id="edge8" class="edge">
<title>Metamodel::ClassHOW&#45;&gt;Metamodel::Documenting</title>
<path fill="none" stroke="#6666ff" d="M907.78,-532.1C941,-587.06 1038.75,-748.75 1038.75,-748.75 1038.75,-748.75 1123.64,-959.93 1154.74,-1037.29"/>
<polygon fill="#6666ff" stroke="#6666ff" points="1151.62,-1038.9 1158.59,-1046.87 1158.11,-1036.29 1151.62,-1038.9"/>
</g>
<!-- Metamodel::ClassHOW&#45;&gt;Metamodel::Stashing -->
<g id="edge10" class="edge">
<title>Metamodel::ClassHOW&#45;&gt;Metamodel::Stashing</title>
<path fill="none" stroke="#6666ff" d="M907.78,-532.1C941,-587.06 1038.75,-748.75 1038.75,-748.75 1038.75,-748.75 1027.93,-1004.51 1024.26,-1091.11"/>
<polygon fill="#6666ff" stroke="#6666ff" points="1020.76,-1091.13 1023.83,-1101.26 1027.75,-1091.42 1020.76,-1091.13"/>
</g>
<!-- Metamodel::ClassHOW&#45;&gt;Metamodel::AttributeContainer -->
<g id="edge11" class="edge">
<title>Metamodel::ClassHOW&#45;&gt;Metamodel::AttributeContainer</title>
<path fill="none" stroke="#6666ff" d="M838.16,-528.97C726.13,-557.38 482.2,-619.23 360.05,-650.2"/>
<polygon fill="#6666ff" stroke="#6666ff" points="358.88,-646.88 350.05,-652.74 360.6,-653.67 358.88,-646.88"/>
</g>
<!-- Metamodel::ClassHOW&#45;&gt;Metamodel::Finalization -->
<g id="edge12" class="edge">
<title>Metamodel::ClassHOW&#45;&gt;Metamodel::Finalization</title>
<path fill="none" stroke="#6666ff" d="M901.16,-495.84C918.71,-420.93 985.32,-136.67 1006.57,-45.98"/>
<polygon fill="#6666ff" stroke="#6666ff" points="1010,-46.68 1008.87,-36.15 1003.18,-45.09 1010,-46.68"/>
</g>
<!-- Metamodel::ClassHOW&#45;&gt;Metamodel::MethodContainer -->
<g id="edge13" class="edge">
<title>Metamodel::ClassHOW&#45;&gt;Metamodel::MethodContainer</title>
<path fill="none" stroke="#6666ff" d="M806.77,-522.95C746.88,-528.84 679.2,-535.5 679.2,-535.5 679.2,-535.5 533.95,-543.84 421.77,-550.28"/>
<polygon fill="#6666ff" stroke="#6666ff" points="421.49,-546.79 411.71,-550.85 421.89,-553.77 421.49,-546.79"/>
</g>
<!-- Metamodel::ClassHOW&#45;&gt;Metamodel::PrivateMethodContainer -->
<g id="edge14" class="edge">
<title>Metamodel::ClassHOW&#45;&gt;Metamodel::PrivateMethodContainer</title>
<path fill="none" stroke="#6666ff" d="M863.07,-531.26C805.57,-560.47 688.78,-619.81 624.98,-652.22"/>
<polygon fill="#6666ff" stroke="#6666ff" points="623.3,-649.15 615.97,-656.8 626.47,-655.39 623.3,-649.15"/>
</g>
<!-- Metamodel::ClassHOW&#45;&gt;Metamodel::MultiMethodContainer -->
<g id="edge15" class="edge">
<title>Metamodel::ClassHOW&#45;&gt;Metamodel::MultiMethodContainer</title>
<path fill="none" stroke="#6666ff" d="M794.3,-516.46C773.59,-516.94 751.39,-517.45 729.36,-517.97"/>
<polygon fill="#6666ff" stroke="#6666ff" points="729.17,-514.47 719.25,-518.2 729.33,-521.47 729.17,-514.47"/>
</g>
<!-- Metamodel::ClassHOW&#45;&gt;Metamodel::RoleContainer -->
<g id="edge16" class="edge">
<title>Metamodel::ClassHOW&#45;&gt;Metamodel::RoleContainer</title>
<path fill="none" stroke="#6666ff" d="M849.44,-530.19C729.7,-570.86 424.68,-674.45 424.68,-674.45 424.68,-674.45 363.46,-731.99 326.98,-766.28"/>
<polygon fill="#6666ff" stroke="#6666ff" points="324.49,-763.81 319.6,-773.21 329.28,-768.91 324.49,-763.81"/>
</g>
<!-- Metamodel::ClassHOW&#45;&gt;Metamodel::MultipleInheritance -->
<g id="edge17" class="edge">
<title>Metamodel::ClassHOW&#45;&gt;Metamodel::MultipleInheritance</title>
<path fill="none" stroke="#6666ff" d="M897.37,-532.1C898.48,-572.69 901.17,-671.55 902.5,-720.38"/>
<polygon fill="#6666ff" stroke="#6666ff" points="899,-720.66 902.77,-730.56 906,-720.47 899,-720.66"/>
</g>
<!-- Metamodel::ClassHOW&#45;&gt;Metamodel::DefaultParent -->
<g id="edge18" class="edge">
<title>Metamodel::ClassHOW&#45;&gt;Metamodel::DefaultParent</title>
<path fill="none" stroke="#6666ff" d="M906.73,-495.96C944.07,-427.25 1077.09,-182.48 1121.83,-100.16"/>
<polygon fill="#6666ff" stroke="#6666ff" points="1125.13,-101.41 1126.83,-90.95 1118.98,-98.06 1125.13,-101.41"/>
</g>
<!-- Metamodel::ClassHOW&#45;&gt;Metamodel::C3MRO -->
<g id="edge19" class="edge">
<title>Metamodel::ClassHOW&#45;&gt;Metamodel::C3MRO</title>
<path fill="none" stroke="#6666ff" d="M987.38,-522.82C1101.2,-533.81 1295.62,-552.58 1410.59,-563.68"/>
<polygon fill="#6666ff" stroke="#6666ff" points="1410.48,-567.19 1420.77,-564.67 1411.16,-560.22 1410.48,-567.19"/>
</g>
<!-- Metamodel::ClassHOW&#45;&gt;Metamodel::MROBasedMethodDispatch -->
<g id="edge20" class="edge">
<title>Metamodel::ClassHOW&#45;&gt;Metamodel::MROBasedMethodDispatch</title>
<path fill="none" stroke="#6666ff" d="M978.15,-502.89C1093.37,-487.02 1304.68,-457.92 1435.36,-439.93"/>
<polygon fill="#6666ff" stroke="#6666ff" points="1435.98,-443.37 1445.41,-438.54 1435.03,-436.44 1435.98,-443.37"/>
</g>
<!-- Metamodel::ClassHOW&#45;&gt;Metamodel::MROBasedTypeChecking -->
<g id="edge21" class="edge">
<title>Metamodel::ClassHOW&#45;&gt;Metamodel::MROBasedTypeChecking</title>
<path fill="none" stroke="#6666ff" d="M944.48,-498.06C998.91,-479.75 1088.13,-449.72 1147.47,-429.75"/>
<polygon fill="#6666ff" stroke="#6666ff" points="1148.73,-433.02 1157.09,-426.51 1146.5,-426.39 1148.73,-433.02"/>
</g>
<!-- Metamodel::ClassHOW&#45;&gt;Metamodel::Trusting -->
<g id="edge22" class="edge">
<title>Metamodel::ClassHOW&#45;&gt;Metamodel::Trusting</title>
<path fill="none" stroke="#6666ff" d="M875.28,-496.38C801.89,-436.26 562.06,-239.78 478.25,-171.12"/>
<polygon fill="#6666ff" stroke="#6666ff" points="480.36,-168.32 470.41,-164.69 475.93,-173.74 480.36,-168.32"/>
</g>
<!-- Metamodel::ClassHOW&#45;&gt;Metamodel::BUILDPLAN -->
<g id="edge23" class="edge">
<title>Metamodel::ClassHOW&#45;&gt;Metamodel::BUILDPLAN</title>
<path fill="none" stroke="#6666ff" d="M893,-496.01C877.07,-421.88 816.67,-140.82 797.29,-50.64"/>
<polygon fill="#6666ff" stroke="#6666ff" points="800.71,-49.89 795.19,-40.85 793.87,-51.37 800.71,-49.89"/>
</g>
<!-- Metamodel::ClassHOW&#45;&gt;Metamodel::Mixins -->
<g id="edge24" class="edge">
<title>Metamodel::ClassHOW&#45;&gt;Metamodel::Mixins</title>
<path fill="none" stroke="#6666ff" d="M884.92,-495.99C838.89,-426.33 673,-175.33 618.58,-93"/>
<polygon fill="#6666ff" stroke="#6666ff" points="621.38,-90.88 612.95,-84.47 615.54,-94.74 621.38,-90.88"/>
</g>
<!-- Metamodel::ClassHOW&#45;&gt;Metamodel::BoolificationProtocol -->
<g id="edge25" class="edge">
<title>Metamodel::ClassHOW&#45;&gt;Metamodel::BoolificationProtocol</title>
<path fill="none" stroke="#6666ff" d="M915.7,-496.18C978.73,-436.24 1182.55,-242.4 1255.43,-173.09"/>
<polygon fill="#6666ff" stroke="#6666ff" points="1258.03,-175.45 1262.86,-166.02 1253.2,-170.38 1258.03,-175.45"/>
</g>
<!-- Metamodel::NativeHOW -->
<g id="node23" class="node">
<title>Metamodel::NativeHOW</title>
<g id="a_node23"><a xlink:href="/type/Metamodel::NativeHOW" xlink:title="Metamodel::NativeHOW">
<ellipse fill="none" stroke="#000000" cx="1408.91" cy="-899.47" rx="106.68" ry="18"/>
<text text-anchor="middle" x="1408.91" y="-895.77" font-family="FreeSans" font-size="14.00" fill="#000000">Metamodel::NativeHOW</text>
</a>
</g>
</g>
<!-- Metamodel::NativeHOW&#45;&gt;Metamodel::Versioning -->
<g id="edge28" class="edge">
<title>Metamodel::NativeHOW&#45;&gt;Metamodel::Versioning</title>
<path fill="none" stroke="#6666ff" d="M1350.29,-914.61C1257.51,-938.58 1087.26,-982.56 1087.26,-982.56 1087.26,-982.56 1066.99,-988.23 1066.99,-988.23 1066.99,-988.23 950.99,-1029.96 879.54,-1055.66"/>
<polygon fill="#6666ff" stroke="#6666ff" points="878,-1052.5 869.77,-1059.18 880.37,-1059.09 878,-1052.5"/>
</g>
<!-- Metamodel::NativeHOW&#45;&gt;Any -->
<g id="edge3" class="edge">
<title>Metamodel::NativeHOW&#45;&gt;Any</title>
<path fill="none" stroke="#000000" d="M1358.98,-915.4C1292.86,-936.5 1178,-973.15 1121.09,-991.32"/>
<polygon fill="#000000" stroke="#000000" points="1119.95,-988.01 1111.48,-994.38 1122.07,-994.68 1119.95,-988.01"/>
</g>
<!-- Metamodel::NativeHOW&#45;&gt;Metamodel::Naming -->
<g id="edge26" class="edge">
<title>Metamodel::NativeHOW&#45;&gt;Metamodel::Naming</title>
<path fill="none" stroke="#6666ff" d="M1316.12,-908.4C1222.64,-917.39 1079.3,-931.18 986.31,-940.13"/>
<polygon fill="#6666ff" stroke="#6666ff" points="985.97,-936.65 976.35,-941.09 986.64,-943.62 985.97,-936.65"/>
</g>
<!-- Metamodel::NativeHOW&#45;&gt;Metamodel::Documenting -->
<g id="edge27" class="edge">
<title>Metamodel::NativeHOW&#45;&gt;Metamodel::Documenting</title>
<path fill="none" stroke="#6666ff" d="M1382.91,-917.21C1338.8,-947.31 1249.32,-1008.38 1200.19,-1041.91"/>
<polygon fill="#6666ff" stroke="#6666ff" points="1198.08,-1039.11 1191.79,-1047.64 1202.03,-1044.9 1198.08,-1039.11"/>
</g>
<!-- Metamodel::NativeHOW&#45;&gt;Metamodel::Stashing -->
<g id="edge29" class="edge">
<title>Metamodel::NativeHOW&#45;&gt;Metamodel::Stashing</title>
<path fill="none" stroke="#6666ff" d="M1372.52,-916.42C1281.87,-958.65 1053.25,-1065.15 1053.25,-1065.15 1053.25,-1065.15 1045.61,-1078.87 1038.02,-1092.52"/>
<polygon fill="#6666ff" stroke="#6666ff" points="1034.92,-1090.89 1033.11,-1101.33 1041.03,-1094.29 1034.92,-1090.89"/>
</g>
<!-- Metamodel::NativeHOW&#45;&gt;Metamodel::MultipleInheritance -->
<g id="edge30" class="edge">
<title>Metamodel::NativeHOW&#45;&gt;Metamodel::MultipleInheritance</title>
<path fill="none" stroke="#6666ff" d="M1356.23,-883.75C1263.08,-855.97 1069.62,-798.26 968.32,-768.04"/>
<polygon fill="#6666ff" stroke="#6666ff" points="969.09,-764.62 958.51,-765.12 967.09,-771.33 969.09,-764.62"/>
</g>
<!-- Metamodel::NativeHOW&#45;&gt;Metamodel::C3MRO -->
<g id="edge31" class="edge">
<title>Metamodel::NativeHOW&#45;&gt;Metamodel::C3MRO</title>
<path fill="none" stroke="#6666ff" d="M1414.13,-881.43C1429.8,-827.31 1476.51,-665.99 1495.43,-600.63"/>
<polygon fill="#6666ff" stroke="#6666ff" points="1498.91,-601.22 1498.33,-590.64 1492.18,-599.27 1498.91,-601.22"/>
</g>
<!-- Metamodel::NativeHOW&#45;&gt;Metamodel::MROBasedMethodDispatch -->
<g id="edge32" class="edge">
<title>Metamodel::NativeHOW&#45;&gt;Metamodel::MROBasedMethodDispatch</title>
<path fill="none" stroke="#6666ff" d="M1408.95,-881.43C1409.1,-812.89 1409.64,-572.56 1409.64,-572.56 1409.64,-572.56 1485.01,-492.35 1524.89,-449.92"/>
<polygon fill="#6666ff" stroke="#6666ff" points="1527.6,-452.14 1531.89,-442.46 1522.5,-447.35 1527.6,-452.14"/>
</g>
<!-- Metamodel::NativeHOW&#45;&gt;Metamodel::MROBasedTypeChecking -->
<g id="edge33" class="edge">
<title>Metamodel::NativeHOW&#45;&gt;Metamodel::MROBasedTypeChecking</title>
<path fill="none" stroke="#6666ff" d="M1401.52,-881.44C1371.19,-807.45 1256.12,-526.67 1219.39,-437.04"/>
<polygon fill="#6666ff" stroke="#6666ff" points="1222.53,-435.48 1215.5,-427.56 1216.05,-438.14 1222.53,-435.48"/>
</g>
<!-- Metamodel::TypePretense -->
<g id="node24" class="node">
<title>Metamodel::TypePretense</title>
<g id="a_node24"><a xlink:href="/type/Metamodel::TypePretense" xlink:title="Metamodel::TypePretense">
<ellipse fill="none" stroke="#6666ff" cx="519.7" cy="-1613.4" rx="114.28" ry="18"/>
<text text-anchor="middle" x="519.7" y="-1609.7" font-family="FreeSans" font-size="14.00" fill="#6666ff">Metamodel::TypePretense</text>
</a>
</g>
</g>
<!-- Metamodel::RolePunning -->
<g id="node25" class="node">
<title>Metamodel::RolePunning</title>
<g id="a_node25"><a xlink:href="/type/Metamodel::RolePunning" xlink:title="Metamodel::RolePunning">
<ellipse fill="none" stroke="#6666ff" cx="109.84" cy="-1378.64" rx="109.68" ry="18"/>
<text text-anchor="middle" x="109.84" y="-1374.94" font-family="FreeSans" font-size="14.00" fill="#6666ff">Metamodel::RolePunning</text>
</a>
</g>
</g>
<!-- Metamodel::ParametricRoleHOW -->
<g id="node26" class="node">
<title>Metamodel::ParametricRoleHOW</title>
<g id="a_node26"><a xlink:href="/type/Metamodel::ParametricRoleHOW" xlink:title="Metamodel::ParametricRoleHOW">
<ellipse fill="none" stroke="#000000" cx="553.59" cy="-1103.08" rx="141.88" ry="18"/>
<text text-anchor="middle" x="553.59" y="-1099.38" font-family="FreeSans" font-size="14.00" fill="#000000">Metamodel::ParametricRoleHOW</text>
</a>
</g>
</g>
<!-- Metamodel::ParametricRoleHOW&#45;&gt;Metamodel::Versioning -->
<g id="edge36" class="edge">
<title>Metamodel::ParametricRoleHOW&#45;&gt;Metamodel::Versioning</title>
<path fill="none" stroke="#6666ff" d="M664.28,-1091.76C685.08,-1089.64 706.69,-1087.43 727.06,-1085.35"/>
<polygon fill="#6666ff" stroke="#6666ff" points="727.68,-1088.81 737.27,-1084.31 726.96,-1081.84 727.68,-1088.81"/>
</g>
<!-- Metamodel::ParametricRoleHOW&#45;&gt;Any -->
<g id="edge4" class="edge">
<title>Metamodel::ParametricRoleHOW&#45;&gt;Any</title>
<path fill="none" stroke="#000000" d="M627.31,-1087.67C684.15,-1075.79 753.1,-1061.38 753.1,-1061.38 753.1,-1061.38 964.61,-1023.88 1051,-1008.56"/>
<polygon fill="#000000" stroke="#000000" points="1051.66,-1012 1060.9,-1006.81 1050.44,-1005.11 1051.66,-1012"/>
</g>
<!-- Metamodel::ParametricRoleHOW&#45;&gt;Metamodel::Naming -->
<g id="edge34" class="edge">
<title>Metamodel::ParametricRoleHOW&#45;&gt;Metamodel::Naming</title>
<path fill="none" stroke="#6666ff" d="M592.07,-1085.69C655.42,-1057.08 781.38,-1000.19 849.16,-969.57"/>
<polygon fill="#6666ff" stroke="#6666ff" points="850.65,-972.74 858.32,-965.43 847.77,-966.36 850.65,-972.74"/>
</g>
<!-- Metamodel::ParametricRoleHOW&#45;&gt;Metamodel::Documenting -->
<g id="edge35" class="edge">
<title>Metamodel::ParametricRoleHOW&#45;&gt;Metamodel::Documenting</title>
<path fill="none" stroke="#6666ff" d="M691.87,-1098.92C758.36,-1096.93 823.82,-1094.96 823.82,-1094.96 823.82,-1094.96 896.47,-1089.35 896.47,-1089.35 896.47,-1089.35 983.49,-1081.57 1058.64,-1074.85"/>
<polygon fill="#6666ff" stroke="#6666ff" points="1059.03,-1078.33 1068.68,-1073.96 1058.41,-1071.36 1059.03,-1078.33"/>
</g>
<!-- Metamodel::ParametricRoleHOW&#45;&gt;Metamodel::Stashing -->
<g id="edge43" class="edge">
<title>Metamodel::ParametricRoleHOW&#45;&gt;Metamodel::Stashing</title>
<path fill="none" stroke="#6666ff" d="M690.32,-1107.83C763.83,-1110.38 852.97,-1113.48 920.48,-1115.83"/>
<polygon fill="#6666ff" stroke="#6666ff" points="920.58,-1119.33 930.7,-1116.18 920.83,-1112.34 920.58,-1119.33"/>
</g>
<!-- Metamodel::ParametricRoleHOW&#45;&gt;Metamodel::AttributeContainer -->
<g id="edge40" class="edge">
<title>Metamodel::ParametricRoleHOW&#45;&gt;Metamodel::AttributeContainer</title>
<path fill="none" stroke="#6666ff" d="M565.99,-1084.82C586.4,-1054.79 624.81,-998.27 624.81,-998.27 624.81,-998.27 417.75,-791.33 417.75,-791.33 417.75,-791.33 352.12,-729.6 313.97,-693.72"/>
<polygon fill="#6666ff" stroke="#6666ff" points="315.96,-690.78 306.28,-686.48 311.16,-695.88 315.96,-690.78"/>
</g>
<!-- Metamodel::ParametricRoleHOW&#45;&gt;Metamodel::MethodContainer -->
<g id="edge37" class="edge">
<title>Metamodel::ParametricRoleHOW&#45;&gt;Metamodel::MethodContainer</title>
<path fill="none" stroke="#6666ff" d="M565.99,-1084.82C586.4,-1054.79 624.81,-998.27 624.81,-998.27 624.81,-998.27 418.9,-668.68 418.9,-668.68 418.9,-668.68 358.65,-615.25 321.74,-582.51"/>
<polygon fill="#6666ff" stroke="#6666ff" points="323.6,-579.49 313.8,-575.47 318.96,-584.72 323.6,-579.49"/>
</g>
<!-- Metamodel::ParametricRoleHOW&#45;&gt;Metamodel::PrivateMethodContainer -->
<g id="edge38" class="edge">
<title>Metamodel::ParametricRoleHOW&#45;&gt;Metamodel::PrivateMethodContainer</title>
<path fill="none" stroke="#6666ff" d="M565.99,-1084.82C586.4,-1054.79 624.81,-998.27 624.81,-998.27 624.81,-998.27 595.54,-782.2 584.83,-703.13"/>
<polygon fill="#6666ff" stroke="#6666ff" points="588.26,-702.36 583.44,-692.92 581.32,-703.3 588.26,-702.36"/>
</g>
<!-- Metamodel::ParametricRoleHOW&#45;&gt;Metamodel::MultiMethodContainer -->
<g id="edge39" class="edge">
<title>Metamodel::ParametricRoleHOW&#45;&gt;Metamodel::MultiMethodContainer</title>
<path fill="none" stroke="#6666ff" d="M565.99,-1084.82C586.4,-1054.79 624.81,-998.27 624.81,-998.27 624.81,-998.27 737.24,-674.73 737.24,-674.73 737.24,-674.73 647.67,-589.92 601.82,-546.5"/>
<polygon fill="#6666ff" stroke="#6666ff" points="604,-543.74 594.33,-539.41 599.19,-548.83 604,-543.74"/>
</g>
<!-- Metamodel::ParametricRoleHOW&#45;&gt;Metamodel::RoleContainer -->
<g id="edge41" class="edge">
<title>Metamodel::ParametricRoleHOW&#45;&gt;Metamodel::RoleContainer</title>
<path fill="none" stroke="#6666ff" d="M519.72,-1085.47C462.12,-1055.53 351.25,-997.9 351.25,-997.9 351.25,-997.9 321.25,-875.8 307.36,-819.29"/>
<polygon fill="#6666ff" stroke="#6666ff" points="310.75,-818.42 304.97,-809.54 303.96,-820.09 310.75,-818.42"/>
</g>
<!-- Metamodel::ParametricRoleHOW&#45;&gt;Metamodel::MultipleInheritance -->
<g id="edge42" class="edge">
<title>Metamodel::ParametricRoleHOW&#45;&gt;Metamodel::MultipleInheritance</title>
<path fill="none" stroke="#6666ff" d="M571.41,-1085.01C629.17,-1026.47 811.32,-841.83 878.27,-773.97"/>
<polygon fill="#6666ff" stroke="#6666ff" points="880.95,-776.24 885.48,-766.66 875.97,-771.32 880.95,-776.24"/>
</g>
<!-- Metamodel::ParametricRoleHOW&#45;&gt;Metamodel::TypePretense -->
<g id="edge44" class="edge">
<title>Metamodel::ParametricRoleHOW&#45;&gt;Metamodel::TypePretense</title>
<path fill="none" stroke="#6666ff" d="M552.38,-1121.24C547.32,-1197.5 527.75,-1492.14 521.58,-1585.12"/>
<polygon fill="#6666ff" stroke="#6666ff" points="518.08,-1584.98 520.91,-1595.19 525.07,-1585.44 518.08,-1584.98"/>
</g>
<!-- Metamodel::ParametricRoleHOW&#45;&gt;Metamodel::RolePunning -->
<g id="edge45" class="edge">
<title>Metamodel::ParametricRoleHOW&#45;&gt;Metamodel::RolePunning</title>
<path fill="none" stroke="#6666ff" d="M525.15,-1120.73C447.74,-1168.81 233.25,-1302.01 146.73,-1355.74"/>
<polygon fill="#6666ff" stroke="#6666ff" points="144.69,-1352.89 138.04,-1361.13 148.38,-1358.83 144.69,-1352.89"/>
</g>
<!-- Metamodel::MethodDelegation -->
<g id="node27" class="node">
<title>Metamodel::MethodDelegation</title>
<g id="a_node27"><a xlink:href="/type/Metamodel::MethodDelegation" xlink:title="Metamodel::MethodDelegation">
<ellipse fill="none" stroke="#6666ff" cx="1184.23" cy="-1940.85" rx="131.08" ry="18"/>
<text text-anchor="middle" x="1184.23" y="-1937.15" font-family="FreeSans" font-size="14.00" fill="#6666ff">Metamodel::MethodDelegation</text>
</a>
</g>
</g>
<!-- Metamodel::ModuleHOW -->
<g id="node28" class="node">
<title>Metamodel::ModuleHOW</title>
<g id="a_node28"><a xlink:href="/type/Metamodel::ModuleHOW" xlink:title="Metamodel::ModuleHOW">
<ellipse fill="none" stroke="#000000" cx="1011.04" cy="-1498.81" rx="110.48" ry="18"/>
<text text-anchor="middle" x="1011.04" y="-1495.11" font-family="FreeSans" font-size="14.00" fill="#000000">Metamodel::ModuleHOW</text>
</a>
</g>
</g>
<!-- Metamodel::ModuleHOW&#45;&gt;Metamodel::Versioning -->
<g id="edge48" class="edge">
<title>Metamodel::ModuleHOW&#45;&gt;Metamodel::Versioning</title>
<path fill="none" stroke="#6666ff" d="M1003.04,-1480.62C973.73,-1413.97 872.1,-1182.93 836.9,-1102.91"/>
<polygon fill="#6666ff" stroke="#6666ff" points="839.99,-1101.24 832.76,-1093.49 833.58,-1104.05 839.99,-1101.24"/>
</g>
<!-- Metamodel::ModuleHOW&#45;&gt;Any -->
<g id="edge5" class="edge">
<title>Metamodel::ModuleHOW&#45;&gt;Any</title>
<path fill="none" stroke="#000000" d="M1016.14,-1480.77C1037.45,-1405.39 1118.26,-1119.49 1118.26,-1119.49 1118.26,-1119.49 1053.25,-1065.15 1053.25,-1065.15 1053.25,-1065.15 1063.63,-1045.83 1072.89,-1028.6"/>
<polygon fill="#000000" stroke="#000000" points="1076.2,-1029.84 1077.85,-1019.37 1070.03,-1026.52 1076.2,-1029.84"/>
</g>
<!-- Metamodel::ModuleHOW&#45;&gt;Metamodel::Naming -->
<g id="edge46" class="edge">
<title>Metamodel::ModuleHOW&#45;&gt;Metamodel::Naming</title>
<path fill="none" stroke="#6666ff" d="M1007.09,-1480.76C990.56,-1405.34 927.87,-1119.29 927.87,-1119.29 927.87,-1119.29 927.12,-1075.55 927.12,-1075.55 927.12,-1075.55 911.48,-1014.17 901.98,-976.88"/>
<polygon fill="#6666ff" stroke="#6666ff" points="905.34,-975.9 899.48,-967.07 898.56,-977.63 905.34,-975.9"/>
</g>
<!-- Metamodel::ModuleHOW&#45;&gt;Metamodel::Documenting -->
<g id="edge47" class="edge">
<title>Metamodel::ModuleHOW&#45;&gt;Metamodel::Documenting</title>
<path fill="none" stroke="#6666ff" d="M1017.5,-1480.74C1041.67,-1413.11 1126.85,-1174.76 1156.06,-1093.02"/>
<polygon fill="#6666ff" stroke="#6666ff" points="1159.43,-1094.01 1159.5,-1083.41 1152.83,-1091.65 1159.43,-1094.01"/>
</g>
<!-- Metamodel::ModuleHOW&#45;&gt;Metamodel::Stashing -->
<g id="edge49" class="edge">
<title>Metamodel::ModuleHOW&#45;&gt;Metamodel::Stashing</title>
<path fill="none" stroke="#6666ff" d="M1011.62,-1480.77C1013.54,-1419.97 1019.8,-1222.29 1022.16,-1147.98"/>
<polygon fill="#6666ff" stroke="#6666ff" points="1025.67,-1147.65 1022.49,-1137.55 1018.67,-1147.43 1025.67,-1147.65"/>
</g>
<!-- Metamodel::ModuleHOW&#45;&gt;Metamodel::TypePretense -->
<g id="edge50" class="edge">
<title>Metamodel::ModuleHOW&#45;&gt;Metamodel::TypePretense</title>
<path fill="none" stroke="#6666ff" d="M947.56,-1513.62C856.74,-1534.8 690.06,-1573.67 593.74,-1596.13"/>
<polygon fill="#6666ff" stroke="#6666ff" points="592.73,-1592.78 583.78,-1598.46 594.32,-1599.59 592.73,-1592.78"/>
</g>
<!-- Metamodel::ModuleHOW&#45;&gt;Metamodel::MethodDelegation -->
<g id="edge51" class="edge">
<title>Metamodel::ModuleHOW&#45;&gt;Metamodel::MethodDelegation</title>
<path fill="none" stroke="#6666ff" d="M1018.16,-1516.97C1045.1,-1585.74 1141.03,-1830.58 1173.44,-1913.31"/>
<polygon fill="#6666ff" stroke="#6666ff" points="1170.25,-1914.76 1177.16,-1922.79 1176.77,-1912.2 1170.25,-1914.76"/>
</g>
<!-- Metamodel::ConcreteRoleHOW -->
<g id="node29" class="node">
<title>Metamodel::ConcreteRoleHOW</title>
<g id="a_node29"><a xlink:href="/type/Metamodel::ConcreteRoleHOW" xlink:title="Metamodel::ConcreteRoleHOW">
<ellipse fill="none" stroke="#000000" cx="488.03" cy="-998.09" rx="135.38" ry="18"/>
<text text-anchor="middle" x="488.03" y="-994.39" font-family="FreeSans" font-size="14.00" fill="#000000">Metamodel::ConcreteRoleHOW</text>
</a>
</g>
</g>
<!-- Metamodel::ConcreteRoleHOW&#45;&gt;Metamodel::Versioning -->
<g id="edge53" class="edge">
<title>Metamodel::ConcreteRoleHOW&#45;&gt;Metamodel::Versioning</title>
<path fill="none" stroke="#6666ff" d="M556.18,-1013.73C613.32,-1026.84 694.67,-1045.51 752.84,-1058.86"/>
<polygon fill="#6666ff" stroke="#6666ff" points="752.17,-1062.29 762.7,-1061.12 753.73,-1055.47 752.17,-1062.29"/>
</g>
<!-- Metamodel::ConcreteRoleHOW&#45;&gt;Any -->
<g id="edge6" class="edge">
<title>Metamodel::ConcreteRoleHOW&#45;&gt;Any</title>
<path fill="none" stroke="#000000" d="M623.22,-999.01C761.23,-999.95 966.64,-1001.34 1049.97,-1001.91"/>
<polygon fill="#000000" stroke="#000000" points="1049.96,-1005.41 1059.98,-1001.98 1050.01,-998.41 1049.96,-1005.41"/>
</g>
<!-- Metamodel::ConcreteRoleHOW&#45;&gt;Metamodel::Naming -->
<g id="edge52" class="edge">
<title>Metamodel::ConcreteRoleHOW&#45;&gt;Metamodel::Naming</title>
<path fill="none" stroke="#6666ff" d="M588.33,-985.97C655.45,-977.86 742.92,-967.29 807.23,-959.52"/>
<polygon fill="#6666ff" stroke="#6666ff" points="807.84,-962.97 817.35,-958.3 807,-956.02 807.84,-962.97"/>
</g>
<!-- Metamodel::ConcreteRoleHOW&#45;&gt;Metamodel::AttributeContainer -->
<g id="edge57" class="edge">
<title>Metamodel::ConcreteRoleHOW&#45;&gt;Metamodel::AttributeContainer</title>
<path fill="none" stroke="#6666ff" d="M481.92,-980.1C464.82,-929.8 417.75,-791.33 417.75,-791.33 417.75,-791.33 352.12,-729.6 313.97,-693.72"/>
<polygon fill="#6666ff" stroke="#6666ff" points="315.96,-690.78 306.28,-686.48 311.16,-695.88 315.96,-690.78"/>
</g>
<!-- Metamodel::ConcreteRoleHOW&#45;&gt;Metamodel::MethodContainer -->
<g id="edge55" class="edge">
<title>Metamodel::ConcreteRoleHOW&#45;&gt;Metamodel::MethodContainer</title>
<path fill="none" stroke="#6666ff" d="M484.22,-979.91C469.72,-910.85 418.9,-668.68 418.9,-668.68 418.9,-668.68 358.65,-615.25 321.74,-582.51"/>
<polygon fill="#6666ff" stroke="#6666ff" points="323.6,-579.49 313.8,-575.47 318.96,-584.72 323.6,-579.49"/>
</g>
<!-- Metamodel::ConcreteRoleHOW&#45;&gt;Metamodel::PrivateMethodContainer -->
<g id="edge54" class="edge">
<title>Metamodel::ConcreteRoleHOW&#45;&gt;Metamodel::PrivateMethodContainer</title>
<path fill="none" stroke="#6666ff" d="M493.3,-979.77C508.79,-925.83 554.32,-767.34 572.91,-702.61"/>
<polygon fill="#6666ff" stroke="#6666ff" points="576.36,-703.29 575.76,-692.71 569.63,-701.35 576.36,-703.29"/>
</g>
<!-- Metamodel::ConcreteRoleHOW&#45;&gt;Metamodel::MultiMethodContainer -->
<g id="edge56" class="edge">
<title>Metamodel::ConcreteRoleHOW&#45;&gt;Metamodel::MultiMethodContainer</title>
<path fill="none" stroke="#6666ff" d="M484.45,-979.76C471.04,-911.3 424.68,-674.45 424.68,-674.45 424.68,-674.45 507.4,-590.56 550.3,-547.05"/>
<polygon fill="#6666ff" stroke="#6666ff" points="553.04,-549.26 557.57,-539.68 548.06,-544.34 553.04,-549.26"/>
</g>
<!-- Metamodel::ConcreteRoleHOW&#45;&gt;Metamodel::RoleContainer -->
<g id="edge58" class="edge">
<title>Metamodel::ConcreteRoleHOW&#45;&gt;Metamodel::RoleContainer</title>
<path fill="none" stroke="#6666ff" d="M471.72,-980.09C438.32,-943.26 362.09,-859.18 323.6,-816.72"/>
<polygon fill="#6666ff" stroke="#6666ff" points="326.18,-814.36 316.88,-809.3 321,-819.06 326.18,-814.36"/>
</g>
<!-- Metamodel::ConcreteRoleHOW&#45;&gt;Metamodel::MultipleInheritance -->
<g id="edge59" class="edge">
<title>Metamodel::ConcreteRoleHOW&#45;&gt;Metamodel::MultipleInheritance</title>
<path fill="none" stroke="#6666ff" d="M517.56,-980.35C591.15,-936.14 782.69,-821.07 864.88,-771.69"/>
<polygon fill="#6666ff" stroke="#6666ff" points="867.12,-774.44 873.89,-766.29 863.51,-768.44 867.12,-774.44"/>
</g>
</g>
</svg>
