<?xml version="1.0" encoding="UTF-8" standalone="no"?>
<!DOCTYPE svg PUBLIC "-//W3C//DTD SVG 1.1//EN"
 "http://www.w3.org/Graphics/SVG/1.1/DTD/svg11.dtd">
<!-- Generated by graphviz version 2.43.0 (0)
 -->
<!-- Title: raku&#45;type&#45;graph Pages: 1 -->
<svg width="2045pt" height="1969pt"
 viewBox="0.00 0.00 2045.46 1969.20" xmlns="http://www.w3.org/2000/svg" xmlns:xlink="http://www.w3.org/1999/xlink">
<g id="graph0" class="graph" transform="scale(1 1) rotate(0) translate(4 1965.2)">
<title>raku&#45;type&#45;graph</title>
<polygon fill="#ffffff" stroke="transparent" points="-4,4 -4,-1965.2 2041.46,-1965.2 2041.46,4 -4,4"/>
<!-- Metamodel::TypePretense -->
<g id="node1" class="node">
<title>Metamodel::TypePretense</title>
<g id="a_node1"><a xlink:href="/type/Metamodel::TypePretense" xlink:title="Metamodel::TypePretense">
<ellipse fill="none" stroke="#6666ff" cx="1088.79" cy="-1028.59" rx="114.28" ry="18"/>
<text text-anchor="middle" x="1088.79" y="-1024.89" font-family="FreeSans" font-size="14.00" fill="#6666ff">Metamodel::TypePretense</text>
</a>
</g>
</g>
<!-- Mu -->
<g id="node2" class="node">
<title>Mu</title>
<g id="a_node2"><a xlink:href="/type/Mu" xlink:title="Mu">
<ellipse fill="none" stroke="#000000" cx="1896.16" cy="-474.12" rx="27" ry="18"/>
<text text-anchor="middle" x="1896.16" y="-470.42" font-family="FreeSans" font-size="14.00" fill="#000000">Mu</text>
</a>
</g>
</g>
<!-- Any -->
<g id="node3" class="node">
<title>Any</title>
<g id="a_node3"><a xlink:href="/type/Any" xlink:title="Any">
<ellipse fill="none" stroke="#000000" cx="1400.33" cy="-826.55" rx="27" ry="18"/>
<text text-anchor="middle" x="1400.33" y="-822.85" font-family="FreeSans" font-size="14.00" fill="#000000">Any</text>
</a>
</g>
</g>
<!-- Any&#45;&gt;Mu -->
<g id="edge1" class="edge">
<title>Any&#45;&gt;Mu</title>
<path fill="none" stroke="#000000" d="M1418.86,-813.38C1494.49,-759.62 1779.97,-556.71 1869.28,-493.22"/>
<polygon fill="#000000" stroke="#000000" points="1871.41,-496 1877.54,-487.36 1867.36,-490.3 1871.41,-496"/>
</g>
<!-- Metamodel::RolePunning -->
<g id="node4" class="node">
<title>Metamodel::RolePunning</title>
<g id="a_node4"><a xlink:href="/type/Metamodel::RolePunning" xlink:title="Metamodel::RolePunning">
<ellipse fill="none" stroke="#6666ff" cx="812.84" cy="-1432.02" rx="109.68" ry="18"/>
<text text-anchor="middle" x="812.84" y="-1428.32" font-family="FreeSans" font-size="14.00" fill="#6666ff">Metamodel::RolePunning</text>
</a>
</g>
</g>
<!-- Metamodel::CurriedRoleHOW -->
<g id="node5" class="node">
<title>Metamodel::CurriedRoleHOW</title>
<g id="a_node5"><a xlink:href="/type/Metamodel::CurriedRoleHOW" xlink:title="Metamodel::CurriedRoleHOW">
<ellipse fill="none" stroke="#000000" cx="1477.07" cy="-1203.81" rx="128.08" ry="18"/>
<text text-anchor="middle" x="1477.07" y="-1200.11" font-family="FreeSans" font-size="14.00" fill="#000000">Metamodel::CurriedRoleHOW</text>
</a>
</g>
</g>
<!-- Metamodel::CurriedRoleHOW&#45;&gt;Metamodel::TypePretense -->
<g id="edge8" class="edge">
<title>Metamodel::CurriedRoleHOW&#45;&gt;Metamodel::TypePretense</title>
<path fill="none" stroke="#6666ff" d="M1438.78,-1186.53C1367.31,-1154.28 1213.85,-1085.03 1136.07,-1049.93"/>
<polygon fill="#6666ff" stroke="#6666ff" points="1137.07,-1046.54 1126.51,-1045.61 1134.19,-1052.92 1137.07,-1046.54"/>
</g>
<!-- Metamodel::CurriedRoleHOW&#45;&gt;Any -->
<g id="edge2" class="edge">
<title>Metamodel::CurriedRoleHOW&#45;&gt;Any</title>
<path fill="none" stroke="#000000" d="M1473.37,-1185.61C1460.98,-1124.73 1420.94,-927.85 1406.01,-854.47"/>
<polygon fill="#000000" stroke="#000000" points="1409.42,-853.67 1404,-844.57 1402.56,-855.06 1409.42,-853.67"/>
</g>
<!-- Metamodel::CurriedRoleHOW&#45;&gt;Metamodel::RolePunning -->
<g id="edge7" class="edge">
<title>Metamodel::CurriedRoleHOW&#45;&gt;Metamodel::RolePunning</title>
<path fill="none" stroke="#6666ff" d="M1428.5,-1220.5C1308.55,-1261.7 998.77,-1368.14 870.14,-1412.33"/>
<polygon fill="#6666ff" stroke="#6666ff" points="868.79,-1409.1 860.47,-1415.66 871.06,-1415.72 868.79,-1409.1"/>
</g>
<!-- Metamodel::Naming -->
<g id="node6" class="node">
<title>Metamodel::Naming</title>
<g id="a_node6"><a xlink:href="/type/Metamodel::Naming" xlink:title="Metamodel::Naming">
<ellipse fill="none" stroke="#6666ff" cx="859.63" cy="-1068.32" rx="90.18" ry="18"/>
<text text-anchor="middle" x="859.63" y="-1064.62" font-family="FreeSans" font-size="14.00" fill="#6666ff">Metamodel::Naming</text>
</a>
</g>
</g>
<!-- Metamodel::Documenting -->
<g id="node7" class="node">
<title>Metamodel::Documenting</title>
<g id="a_node7"><a xlink:href="/type/Metamodel::Documenting" xlink:title="Metamodel::Documenting">
<ellipse fill="none" stroke="#6666ff" cx="921.65" cy="-874.75" rx="111.28" ry="18"/>
<text text-anchor="middle" x="921.65" y="-871.05" font-family="FreeSans" font-size="14.00" fill="#6666ff">Metamodel::Documenting</text>
</a>
</g>
</g>
<!-- Metamodel::Stashing -->
<g id="node8" class="node">
<title>Metamodel::Stashing</title>
<g id="a_node8"><a xlink:href="/type/Metamodel::Stashing" xlink:title="Metamodel::Stashing">
<ellipse fill="none" stroke="#6666ff" cx="1152.8" cy="-875.15" rx="93.68" ry="18"/>
<text text-anchor="middle" x="1152.8" y="-871.45" font-family="FreeSans" font-size="14.00" fill="#6666ff">Metamodel::Stashing</text>
</a>
</g>
</g>
<!-- Metamodel::MethodDelegation -->
<g id="node9" class="node">
<title>Metamodel::MethodDelegation</title>
<g id="a_node9"><a xlink:href="/type/Metamodel::MethodDelegation" xlink:title="Metamodel::MethodDelegation">
<ellipse fill="none" stroke="#6666ff" cx="1200.01" cy="-18" rx="131.08" ry="18"/>
<text text-anchor="middle" x="1200.01" y="-14.3" font-family="FreeSans" font-size="14.00" fill="#6666ff">Metamodel::MethodDelegation</text>
</a>
</g>
</g>
<!-- Metamodel::PackageHOW -->
<g id="node10" class="node">
<title>Metamodel::PackageHOW</title>
<g id="a_node10"><a xlink:href="/type/Metamodel::PackageHOW" xlink:title="Metamodel::PackageHOW">
<ellipse fill="none" stroke="#000000" cx="990.3" cy="-473.9" rx="116.18" ry="18"/>
<text text-anchor="middle" x="990.3" y="-470.2" font-family="FreeSans" font-size="14.00" fill="#000000">Metamodel::PackageHOW</text>
</a>
</g>
</g>
<!-- Metamodel::PackageHOW&#45;&gt;Metamodel::TypePretense -->
<g id="edge12" class="edge">
<title>Metamodel::PackageHOW&#45;&gt;Metamodel::TypePretense</title>
<path fill="none" stroke="#6666ff" d="M993.32,-491.91C1006.42,-569.95 1057.61,-874.96 1057.61,-874.96 1057.61,-874.96 1074.09,-956.13 1083.09,-1000.47"/>
<polygon fill="#6666ff" stroke="#6666ff" points="1079.68,-1001.26 1085.09,-1010.37 1086.54,-999.87 1079.68,-1001.26"/>
</g>
<!-- Metamodel::PackageHOW&#45;&gt;Any -->
<g id="edge3" class="edge">
<title>Metamodel::PackageHOW&#45;&gt;Any</title>
<path fill="none" stroke="#000000" d="M1010.92,-491.63C1079.72,-550.8 1301.3,-741.38 1375.7,-805.37"/>
<polygon fill="#000000" stroke="#000000" points="1373.77,-808.32 1383.63,-812.19 1378.33,-803.02 1373.77,-808.32"/>
</g>
<!-- Metamodel::PackageHOW&#45;&gt;Metamodel::Naming -->
<g id="edge9" class="edge">
<title>Metamodel::PackageHOW&#45;&gt;Metamodel::Naming</title>
<path fill="none" stroke="#6666ff" d="M982.16,-491.9C946.86,-569.88 808.91,-874.69 808.91,-874.69 808.91,-874.69 838.2,-986.5 852.26,-1040.19"/>
<polygon fill="#6666ff" stroke="#6666ff" points="848.94,-1041.31 854.86,-1050.1 855.71,-1039.54 848.94,-1041.31"/>
</g>
<!-- Metamodel::PackageHOW&#45;&gt;Metamodel::Documenting -->
<g id="edge10" class="edge">
<title>Metamodel::PackageHOW&#45;&gt;Metamodel::Documenting</title>
<path fill="none" stroke="#6666ff" d="M987.22,-491.9C976.35,-555.34 939.79,-768.83 926.51,-846.33"/>
<polygon fill="#6666ff" stroke="#6666ff" points="923.04,-845.89 924.8,-856.34 929.94,-847.07 923.04,-845.89"/>
</g>
<!-- Metamodel::PackageHOW&#45;&gt;Metamodel::Stashing -->
<g id="edge11" class="edge">
<title>Metamodel::PackageHOW&#45;&gt;Metamodel::Stashing</title>
<path fill="none" stroke="#6666ff" d="M997.6,-491.92C1023.43,-555.69 1110.61,-770.99 1141.69,-847.71"/>
<polygon fill="#6666ff" stroke="#6666ff" points="1138.52,-849.23 1145.52,-857.18 1145.01,-846.6 1138.52,-849.23"/>
</g>
<!-- Metamodel::PackageHOW&#45;&gt;Metamodel::MethodDelegation -->
<g id="edge13" class="edge">
<title>Metamodel::PackageHOW&#45;&gt;Metamodel::MethodDelegation</title>
<path fill="none" stroke="#6666ff" d="M998.65,-455.74C1031.04,-385.33 1148.49,-130.01 1187.39,-45.43"/>
<polygon fill="#6666ff" stroke="#6666ff" points="1190.63,-46.75 1191.63,-36.2 1184.28,-43.83 1190.63,-46.75"/>
</g>
<!-- Metamodel::BoolificationProtocol -->
<g id="node11" class="node">
<title>Metamodel::BoolificationProtocol</title>
<g id="a_node11"><a xlink:href="/type/Metamodel::BoolificationProtocol" xlink:title="Metamodel::BoolificationProtocol">
<ellipse fill="none" stroke="#6666ff" cx="139.09" cy="-687.94" rx="139.18" ry="18"/>
<text text-anchor="middle" x="139.09" y="-684.24" font-family="FreeSans" font-size="14.00" fill="#6666ff">Metamodel::BoolificationProtocol</text>
</a>
</g>
</g>
<!-- Metamodel::ParametricRoleGroupHOW -->
<g id="node12" class="node">
<title>Metamodel::ParametricRoleGroupHOW</title>
<g id="a_node12"><a xlink:href="/type/Metamodel::ParametricRoleGroupHOW" xlink:title="Metamodel::ParametricRoleGroupHOW">
<ellipse fill="none" stroke="#000000" cx="636.08" cy="-855.34" rx="166.27" ry="18"/>
<text text-anchor="middle" x="636.08" y="-851.64" font-family="FreeSans" font-size="14.00" fill="#000000">Metamodel::ParametricRoleGroupHOW</text>
</a>
</g>
</g>
<!-- Metamodel::ParametricRoleGroupHOW&#45;&gt;Metamodel::TypePretense -->
<g id="edge16" class="edge">
<title>Metamodel::ParametricRoleGroupHOW&#45;&gt;Metamodel::TypePretense</title>
<path fill="none" stroke="#6666ff" d="M681.56,-872.74C765.83,-904.99 945.79,-973.86 1035.57,-1008.22"/>
<polygon fill="#6666ff" stroke="#6666ff" points="1034.42,-1011.53 1045.01,-1011.84 1036.92,-1004.99 1034.42,-1011.53"/>
</g>
<!-- Metamodel::ParametricRoleGroupHOW&#45;&gt;Any -->
<g id="edge4" class="edge">
<title>Metamodel::ParametricRoleGroupHOW&#45;&gt;Any</title>
<path fill="none" stroke="#000000" d="M793.51,-849.41C974.98,-842.57 1261.31,-831.79 1362.99,-827.96"/>
<polygon fill="#000000" stroke="#000000" points="1363.22,-831.45 1373.08,-827.58 1362.96,-824.46 1363.22,-831.45"/>
</g>
<!-- Metamodel::ParametricRoleGroupHOW&#45;&gt;Metamodel::RolePunning -->
<g id="edge17" class="edge">
<title>Metamodel::ParametricRoleGroupHOW&#45;&gt;Metamodel::RolePunning</title>
<path fill="none" stroke="#6666ff" d="M641.66,-873.55C667.23,-956.94 773.19,-1302.65 804.25,-1403.99"/>
<polygon fill="#6666ff" stroke="#6666ff" points="800.98,-1405.27 807.26,-1413.8 807.67,-1403.22 800.98,-1405.27"/>
</g>
<!-- Metamodel::ParametricRoleGroupHOW&#45;&gt;Metamodel::Naming -->
<g id="edge14" class="edge">
<title>Metamodel::ParametricRoleGroupHOW&#45;&gt;Metamodel::Naming</title>
<path fill="none" stroke="#6666ff" d="M655.14,-873.49C695.17,-911.63 788.02,-1000.09 833.53,-1043.45"/>
<polygon fill="#6666ff" stroke="#6666ff" points="831.28,-1046.14 840.94,-1050.51 836.11,-1041.07 831.28,-1046.14"/>
</g>
<!-- Metamodel::ParametricRoleGroupHOW&#45;&gt;Metamodel::Stashing -->
<g id="edge15" class="edge">
<title>Metamodel::ParametricRoleGroupHOW&#45;&gt;Metamodel::Stashing</title>
<path fill="none" stroke="#6666ff" d="M802.82,-855.23C865.56,-855.19 922.01,-855.15 922.01,-855.15 922.01,-855.15 1001.62,-860.94 1001.62,-860.94 1001.62,-860.94 1027.77,-863.4 1058.32,-866.27"/>
<polygon fill="#6666ff" stroke="#6666ff" points="1058.09,-869.76 1068.37,-867.21 1058.74,-862.79 1058.09,-869.76"/>
</g>
<!-- Metamodel::ParametricRoleGroupHOW&#45;&gt;Metamodel::BoolificationProtocol -->
<g id="edge18" class="edge">
<title>Metamodel::ParametricRoleGroupHOW&#45;&gt;Metamodel::BoolificationProtocol</title>
<path fill="none" stroke="#6666ff" d="M584.77,-838.05C492,-806.81 296.91,-741.1 198.52,-707.96"/>
<polygon fill="#6666ff" stroke="#6666ff" points="199.61,-704.63 189.02,-704.76 197.37,-711.27 199.61,-704.63"/>
</g>
<!-- Metamodel::Versioning -->
<g id="node13" class="node">
<title>Metamodel::Versioning</title>
<g id="a_node13"><a xlink:href="/type/Metamodel::Versioning" xlink:title="Metamodel::Versioning">
<ellipse fill="none" stroke="#6666ff" cx="1759.1" cy="-996.72" rx="100.98" ry="18"/>
<text text-anchor="middle" x="1759.1" y="-993.02" font-family="FreeSans" font-size="14.00" fill="#6666ff">Metamodel::Versioning</text>
</a>
</g>
</g>
<!-- Metamodel::MethodContainer -->
<g id="node14" class="node">
<title>Metamodel::MethodContainer</title>
<g id="a_node14"><a xlink:href="/type/Metamodel::MethodContainer" xlink:title="Metamodel::MethodContainer">
<ellipse fill="none" stroke="#6666ff" cx="1594.13" cy="-1856.2" rx="127.28" ry="18"/>
<text text-anchor="middle" x="1594.13" y="-1852.5" font-family="FreeSans" font-size="14.00" fill="#6666ff">Metamodel::MethodContainer</text>
</a>
</g>
</g>
<!-- Metamodel::PrivateMethodContainer -->
<g id="node15" class="node">
<title>Metamodel::PrivateMethodContainer</title>
<g id="a_node15"><a xlink:href="/type/Metamodel::PrivateMethodContainer" xlink:title="Metamodel::PrivateMethodContainer">
<ellipse fill="none" stroke="#6666ff" cx="1339.01" cy="-1943.2" rx="154.87" ry="18"/>
<text text-anchor="middle" x="1339.01" y="-1939.5" font-family="FreeSans" font-size="14.00" fill="#6666ff">Metamodel::PrivateMethodContainer</text>
</a>
</g>
</g>
<!-- Metamodel::MultiMethodContainer -->
<g id="node16" class="node">
<title>Metamodel::MultiMethodContainer</title>
<g id="a_node16"><a xlink:href="/type/Metamodel::MultiMethodContainer" xlink:title="Metamodel::MultiMethodContainer">
<ellipse fill="none" stroke="#6666ff" cx="1793.77" cy="-1674.32" rx="146.47" ry="18"/>
<text text-anchor="middle" x="1793.77" y="-1670.62" font-family="FreeSans" font-size="14.00" fill="#6666ff">Metamodel::MultiMethodContainer</text>
</a>
</g>
</g>
<!-- Metamodel::AttributeContainer -->
<g id="node17" class="node">
<title>Metamodel::AttributeContainer</title>
<g id="a_node17"><a xlink:href="/type/Metamodel::AttributeContainer" xlink:title="Metamodel::AttributeContainer">
<ellipse fill="none" stroke="#6666ff" cx="1907.47" cy="-1429.99" rx="129.98" ry="18"/>
<text text-anchor="middle" x="1907.47" y="-1426.29" font-family="FreeSans" font-size="14.00" fill="#6666ff">Metamodel::AttributeContainer</text>
</a>
</g>
</g>
<!-- Metamodel::RoleContainer -->
<g id="node18" class="node">
<title>Metamodel::RoleContainer</title>
<g id="a_node18"><a xlink:href="/type/Metamodel::RoleContainer" xlink:title="Metamodel::RoleContainer">
<ellipse fill="none" stroke="#6666ff" cx="1060.6" cy="-1917.93" rx="115.88" ry="18"/>
<text text-anchor="middle" x="1060.6" y="-1914.23" font-family="FreeSans" font-size="14.00" fill="#6666ff">Metamodel::RoleContainer</text>
</a>
</g>
</g>
<!-- Metamodel::MultipleInheritance -->
<g id="node19" class="node">
<title>Metamodel::MultipleInheritance</title>
<g id="a_node19"><a xlink:href="/type/Metamodel::MultipleInheritance" xlink:title="Metamodel::MultipleInheritance">
<ellipse fill="none" stroke="#6666ff" cx="811.65" cy="-1795.59" rx="133.78" ry="18"/>
<text text-anchor="middle" x="811.65" y="-1791.89" font-family="FreeSans" font-size="14.00" fill="#6666ff">Metamodel::MultipleInheritance</text>
</a>
</g>
</g>
<!-- Metamodel::ParametricRoleHOW -->
<g id="node20" class="node">
<title>Metamodel::ParametricRoleHOW</title>
<g id="a_node20"><a xlink:href="/type/Metamodel::ParametricRoleHOW" xlink:title="Metamodel::ParametricRoleHOW">
<ellipse fill="none" stroke="#000000" cx="1293.13" cy="-1406.08" rx="141.88" ry="18"/>
<text text-anchor="middle" x="1293.13" y="-1402.38" font-family="FreeSans" font-size="14.00" fill="#000000">Metamodel::ParametricRoleHOW</text>
</a>
</g>
</g>
<!-- Metamodel::ParametricRoleHOW&#45;&gt;Metamodel::TypePretense -->
<g id="edge29" class="edge">
<title>Metamodel::ParametricRoleHOW&#45;&gt;Metamodel::TypePretense</title>
<path fill="none" stroke="#6666ff" d="M1283.28,-1387.88C1250.16,-1326.7 1142.79,-1128.34 1103.43,-1055.63"/>
<polygon fill="#6666ff" stroke="#6666ff" points="1106.39,-1053.75 1098.55,-1046.62 1100.23,-1057.08 1106.39,-1053.75"/>
</g>
<!-- Metamodel::ParametricRoleHOW&#45;&gt;Any -->
<g id="edge5" class="edge">
<title>Metamodel::ParametricRoleHOW&#45;&gt;Any</title>
<path fill="none" stroke="#000000" d="M1296.52,-1387.78C1312.02,-1303.97 1376.3,-956.49 1395.13,-854.69"/>
<polygon fill="#000000" stroke="#000000" points="1398.62,-855.04 1397,-844.57 1391.74,-853.77 1398.62,-855.04"/>
</g>
<!-- Metamodel::ParametricRoleHOW&#45;&gt;Metamodel::RolePunning -->
<g id="edge30" class="edge">
<title>Metamodel::ParametricRoleHOW&#45;&gt;Metamodel::RolePunning</title>
<path fill="none" stroke="#6666ff" d="M1162.53,-1413.14C1089.05,-1417.1 998.17,-1422.01 927.48,-1425.83"/>
<polygon fill="#6666ff" stroke="#6666ff" points="927,-1422.35 917.2,-1426.38 927.37,-1429.34 927,-1422.35"/>
</g>
<!-- Metamodel::ParametricRoleHOW&#45;&gt;Metamodel::Naming -->
<g id="edge19" class="edge">
<title>Metamodel::ParametricRoleHOW&#45;&gt;Metamodel::Naming</title>
<path fill="none" stroke="#6666ff" d="M1270.13,-1388.16C1197.36,-1331.46 972.13,-1155.97 890,-1091.98"/>
<polygon fill="#6666ff" stroke="#6666ff" points="892.09,-1089.17 882.05,-1085.79 887.79,-1094.7 892.09,-1089.17"/>
</g>
<!-- Metamodel::ParametricRoleHOW&#45;&gt;Metamodel::Documenting -->
<g id="edge20" class="edge">
<title>Metamodel::ParametricRoleHOW&#45;&gt;Metamodel::Documenting</title>
<path fill="none" stroke="#6666ff" d="M1277.9,-1388.13C1214.24,-1313.09 972.81,-1028.53 972.81,-1028.53 972.81,-1028.53 945.66,-946.94 930.92,-902.62"/>
<polygon fill="#6666ff" stroke="#6666ff" points="934.19,-901.38 927.72,-892.99 927.55,-903.59 934.19,-901.38"/>
</g>
<!-- Metamodel::ParametricRoleHOW&#45;&gt;Metamodel::Stashing -->
<g id="edge28" class="edge">
<title>Metamodel::ParametricRoleHOW&#45;&gt;Metamodel::Stashing</title>
<path fill="none" stroke="#6666ff" d="M1288.87,-1387.88C1271.22,-1312.49 1204.78,-1028.65 1204.78,-1028.65 1204.78,-1028.65 1177.2,-947.21 1162.22,-902.97"/>
<polygon fill="#6666ff" stroke="#6666ff" points="1165.49,-901.71 1158.97,-893.37 1158.86,-903.96 1165.49,-901.71"/>
</g>
<!-- Metamodel::ParametricRoleHOW&#45;&gt;Metamodel::Versioning -->
<g id="edge21" class="edge">
<title>Metamodel::ParametricRoleHOW&#45;&gt;Metamodel::Versioning</title>
<path fill="none" stroke="#6666ff" d="M1320.69,-1388.32C1397.2,-1339 1606.7,-1203.96 1606.7,-1203.96 1606.7,-1203.96 1698.66,-1078.91 1739.72,-1023.08"/>
<polygon fill="#6666ff" stroke="#6666ff" points="1742.74,-1024.88 1745.84,-1014.75 1737.1,-1020.73 1742.74,-1024.88"/>
</g>
<!-- Metamodel::ParametricRoleHOW&#45;&gt;Metamodel::MethodContainer -->
<g id="edge22" class="edge">
<title>Metamodel::ParametricRoleHOW&#45;&gt;Metamodel::MethodContainer</title>
<path fill="none" stroke="#6666ff" d="M1305.3,-1424.28C1352.21,-1494.43 1521.36,-1747.37 1576.57,-1829.94"/>
<polygon fill="#6666ff" stroke="#6666ff" points="1573.67,-1831.9 1582.14,-1838.27 1579.49,-1828.01 1573.67,-1831.9"/>
</g>
<!-- Metamodel::ParametricRoleHOW&#45;&gt;Metamodel::PrivateMethodContainer -->
<g id="edge23" class="edge">
<title>Metamodel::ParametricRoleHOW&#45;&gt;Metamodel::PrivateMethodContainer</title>
<path fill="none" stroke="#6666ff" d="M1294.69,-1424.26C1301.44,-1503.4 1328.33,-1818.23 1336.59,-1914.85"/>
<polygon fill="#6666ff" stroke="#6666ff" points="1333.12,-1915.36 1337.45,-1925.03 1340.09,-1914.76 1333.12,-1915.36"/>
</g>
<!-- Metamodel::ParametricRoleHOW&#45;&gt;Metamodel::MultiMethodContainer -->
<g id="edge24" class="edge">
<title>Metamodel::ParametricRoleHOW&#45;&gt;Metamodel::MultiMethodContainer</title>
<path fill="none" stroke="#6666ff" d="M1325.98,-1423.68C1413.86,-1470.77 1654.27,-1599.58 1751.81,-1651.84"/>
<polygon fill="#6666ff" stroke="#6666ff" points="1750.33,-1655.02 1760.8,-1656.66 1753.64,-1648.85 1750.33,-1655.02"/>
</g>
<!-- Metamodel::ParametricRoleHOW&#45;&gt;Metamodel::AttributeContainer -->
<g id="edge25" class="edge">
<title>Metamodel::ParametricRoleHOW&#45;&gt;Metamodel::AttributeContainer</title>
<path fill="none" stroke="#6666ff" d="M1428.71,-1411.36C1530.79,-1415.33 1670.09,-1420.75 1772.11,-1424.72"/>
<polygon fill="#6666ff" stroke="#6666ff" points="1772.05,-1428.22 1782.18,-1425.11 1772.32,-1421.23 1772.05,-1428.22"/>
</g>
<!-- Metamodel::ParametricRoleHOW&#45;&gt;Metamodel::RoleContainer -->
<g id="edge26" class="edge">
<title>Metamodel::ParametricRoleHOW&#45;&gt;Metamodel::RoleContainer</title>
<path fill="none" stroke="#6666ff" d="M1284.86,-1424.3C1249.96,-1501.1 1114.73,-1798.78 1072.96,-1890.72"/>
<polygon fill="#6666ff" stroke="#6666ff" points="1069.73,-1889.38 1068.78,-1899.93 1076.1,-1892.27 1069.73,-1889.38"/>
</g>
<!-- Metamodel::ParametricRoleHOW&#45;&gt;Metamodel::MultipleInheritance -->
<g id="edge27" class="edge">
<title>Metamodel::ParametricRoleHOW&#45;&gt;Metamodel::MultipleInheritance</title>
<path fill="none" stroke="#6666ff" d="M1270.88,-1424.09C1192.68,-1487.35 930.47,-1699.47 841.48,-1771.46"/>
<polygon fill="#6666ff" stroke="#6666ff" points="839.24,-1768.77 833.67,-1777.78 843.64,-1774.21 839.24,-1768.77"/>
</g>
<!-- Metamodel::ModuleHOW -->
<g id="node21" class="node">
<title>Metamodel::ModuleHOW</title>
<g id="a_node21"><a xlink:href="/type/Metamodel::ModuleHOW" xlink:title="Metamodel::ModuleHOW">
<ellipse fill="none" stroke="#000000" cx="1304.54" cy="-529.19" rx="110.48" ry="18"/>
<text text-anchor="middle" x="1304.54" y="-525.49" font-family="FreeSans" font-size="14.00" fill="#000000">Metamodel::ModuleHOW</text>
</a>
</g>
</g>
<!-- Metamodel::ModuleHOW&#45;&gt;Metamodel::TypePretense -->
<g id="edge35" class="edge">
<title>Metamodel::ModuleHOW&#45;&gt;Metamodel::TypePretense</title>
<path fill="none" stroke="#6666ff" d="M1301.57,-547.32C1289.94,-618.54 1247.99,-875.35 1247.99,-875.35 1247.99,-875.35 1159.85,-960.19 1114.74,-1003.62"/>
<polygon fill="#6666ff" stroke="#6666ff" points="1112.14,-1001.26 1107.37,-1010.71 1117,-1006.3 1112.14,-1001.26"/>
</g>
<!-- Metamodel::ModuleHOW&#45;&gt;Any -->
<g id="edge6" class="edge">
<title>Metamodel::ModuleHOW&#45;&gt;Any</title>
<path fill="none" stroke="#000000" d="M1310.38,-547.35C1326.59,-597.65 1372.15,-739.06 1391.48,-799.07"/>
<polygon fill="#000000" stroke="#000000" points="1388.16,-800.19 1394.56,-808.64 1394.82,-798.04 1388.16,-800.19"/>
</g>
<!-- Metamodel::ModuleHOW&#45;&gt;Metamodel::Naming -->
<g id="edge31" class="edge">
<title>Metamodel::ModuleHOW&#45;&gt;Metamodel::Naming</title>
<path fill="none" stroke="#6666ff" d="M1290.39,-547.29C1234.81,-618.4 1034.39,-874.81 1034.39,-874.81 1034.39,-874.81 930.01,-990.39 882.59,-1042.9"/>
<polygon fill="#6666ff" stroke="#6666ff" points="879.86,-1040.69 875.76,-1050.46 885.06,-1045.38 879.86,-1040.69"/>
</g>
<!-- Metamodel::ModuleHOW&#45;&gt;Metamodel::Documenting -->
<g id="edge32" class="edge">
<title>Metamodel::ModuleHOW&#45;&gt;Metamodel::Documenting</title>
<path fill="none" stroke="#6666ff" d="M1284.76,-547.04C1221.22,-604.38 1022.23,-783.97 949.03,-850.04"/>
<polygon fill="#6666ff" stroke="#6666ff" points="946.62,-847.5 941.54,-856.8 951.31,-852.7 946.62,-847.5"/>
</g>
<!-- Metamodel::ModuleHOW&#45;&gt;Metamodel::Stashing -->
<g id="edge34" class="edge">
<title>Metamodel::ModuleHOW&#45;&gt;Metamodel::Stashing</title>
<path fill="none" stroke="#6666ff" d="M1296.59,-547.31C1271.66,-604.15 1194.84,-779.3 1164.91,-847.54"/>
<polygon fill="#6666ff" stroke="#6666ff" points="1161.66,-846.24 1160.85,-856.8 1168.07,-849.05 1161.66,-846.24"/>
</g>
<!-- Metamodel::ModuleHOW&#45;&gt;Metamodel::MethodDelegation -->
<g id="edge36" class="edge">
<title>Metamodel::ModuleHOW&#45;&gt;Metamodel::MethodDelegation</title>
<path fill="none" stroke="#6666ff" d="M1300.81,-511C1285.18,-434.53 1224.72,-138.87 1205.74,-46.05"/>
<polygon fill="#6666ff" stroke="#6666ff" points="1209.17,-45.34 1203.74,-36.24 1202.31,-46.74 1209.17,-45.34"/>
</g>
<!-- Metamodel::ModuleHOW&#45;&gt;Metamodel::Versioning -->
<g id="edge33" class="edge">
<title>Metamodel::ModuleHOW&#45;&gt;Metamodel::Versioning</title>
<path fill="none" stroke="#6666ff" d="M1322.08,-547.23C1392.33,-619.49 1653.48,-888.08 1734.78,-971.7"/>
<polygon fill="#6666ff" stroke="#6666ff" points="1732.38,-974.25 1741.86,-978.98 1737.4,-969.37 1732.38,-974.25"/>
</g>
</g>
</svg>
