<?xml version="1.0" encoding="UTF-8" standalone="no"?>
<!DOCTYPE svg PUBLIC "-//W3C//DTD SVG 1.1//EN"
 "http://www.w3.org/Graphics/SVG/1.1/DTD/svg11.dtd">
<!-- Generated by graphviz version 2.43.0 (0)
 -->
<!-- Title: raku&#45;type&#45;graph Pages: 1 -->
<svg width="1771pt" height="2104pt"
 viewBox="0.00 0.00 1771.47 2104.20" xmlns="http://www.w3.org/2000/svg" xmlns:xlink="http://www.w3.org/1999/xlink">
<g id="graph0" class="graph" transform="scale(1 1) rotate(0) translate(4 2100.2)">
<title>raku&#45;type&#45;graph</title>
<polygon fill="#ffffff" stroke="transparent" points="-4,4 -4,-2100.2 1767.47,-2100.2 1767.47,4 -4,4"/>
<!-- Metamodel::Stashing -->
<g id="node1" class="node">
<title>Metamodel::Stashing</title>
<g id="a_node1"><a xlink:href="/type/Metamodel::Stashing" xlink:title="Metamodel::Stashing">
<ellipse fill="none" stroke="#6666ff" cx="887.36" cy="-958.78" rx="93.68" ry="18"/>
<text text-anchor="middle" x="887.36" y="-955.08" font-family="FreeSans" font-size="14.00" fill="#6666ff">Metamodel::Stashing</text>
</a>
</g>
</g>
<!-- Mu -->
<g id="node2" class="node">
<title>Mu</title>
<g id="a_node2"><a xlink:href="/type/Mu" xlink:title="Mu">
<ellipse fill="none" stroke="#000000" cx="1470.88" cy="-587.97" rx="27" ry="18"/>
<text text-anchor="middle" x="1470.88" y="-584.27" font-family="FreeSans" font-size="14.00" fill="#000000">Mu</text>
</a>
</g>
</g>
<!-- Any -->
<g id="node3" class="node">
<title>Any</title>
<g id="a_node3"><a xlink:href="/type/Any" xlink:title="Any">
<ellipse fill="none" stroke="#000000" cx="980.14" cy="-885.43" rx="27" ry="18"/>
<text text-anchor="middle" x="980.14" y="-881.73" font-family="FreeSans" font-size="14.00" fill="#000000">Any</text>
</a>
</g>
</g>
<!-- Any&#45;&gt;Mu -->
<g id="edge1" class="edge">
<title>Any&#45;&gt;Mu</title>
<path fill="none" stroke="#000000" d="M1000.29,-873.21C1077.19,-826.6 1352.34,-659.82 1442.24,-605.33"/>
<polygon fill="#000000" stroke="#000000" points="1444.09,-608.3 1450.83,-600.13 1440.47,-602.32 1444.09,-608.3"/>
</g>
<!-- Metamodel::Naming -->
<g id="node4" class="node">
<title>Metamodel::Naming</title>
<g id="a_node4"><a xlink:href="/type/Metamodel::Naming" xlink:title="Metamodel::Naming">
<ellipse fill="none" stroke="#6666ff" cx="791.36" cy="-914.78" rx="90.18" ry="18"/>
<text text-anchor="middle" x="791.36" y="-911.08" font-family="FreeSans" font-size="14.00" fill="#6666ff">Metamodel::Naming</text>
</a>
</g>
</g>
<!-- Metamodel::Documenting -->
<g id="node5" class="node">
<title>Metamodel::Documenting</title>
<g id="a_node5"><a xlink:href="/type/Metamodel::Documenting" xlink:title="Metamodel::Documenting">
<ellipse fill="none" stroke="#6666ff" cx="698.42" cy="-764.82" rx="111.28" ry="18"/>
<text text-anchor="middle" x="698.42" y="-761.12" font-family="FreeSans" font-size="14.00" fill="#6666ff">Metamodel::Documenting</text>
</a>
</g>
</g>
<!-- Metamodel::TypePretense -->
<g id="node6" class="node">
<title>Metamodel::TypePretense</title>
<g id="a_node6"><a xlink:href="/type/Metamodel::TypePretense" xlink:title="Metamodel::TypePretense">
<ellipse fill="none" stroke="#6666ff" cx="1289.25" cy="-593.59" rx="114.28" ry="18"/>
<text text-anchor="middle" x="1289.25" y="-589.89" font-family="FreeSans" font-size="14.00" fill="#6666ff">Metamodel::TypePretense</text>
</a>
</g>
</g>
<!-- Metamodel::MethodDelegation -->
<g id="node7" class="node">
<title>Metamodel::MethodDelegation</title>
<g id="a_node7"><a xlink:href="/type/Metamodel::MethodDelegation" xlink:title="Metamodel::MethodDelegation">
<ellipse fill="none" stroke="#6666ff" cx="802.8" cy="-18" rx="131.08" ry="18"/>
<text text-anchor="middle" x="802.8" y="-14.3" font-family="FreeSans" font-size="14.00" fill="#6666ff">Metamodel::MethodDelegation</text>
</a>
</g>
</g>
<!-- Metamodel::PackageHOW -->
<g id="node8" class="node">
<title>Metamodel::PackageHOW</title>
<g id="a_node8"><a xlink:href="/type/Metamodel::PackageHOW" xlink:title="Metamodel::PackageHOW">
<ellipse fill="none" stroke="#000000" cx="813.09" cy="-432.84" rx="116.18" ry="18"/>
<text text-anchor="middle" x="813.09" y="-429.14" font-family="FreeSans" font-size="14.00" fill="#000000">Metamodel::PackageHOW</text>
</a>
</g>
</g>
<!-- Metamodel::PackageHOW&#45;&gt;Metamodel::Stashing -->
<g id="edge11" class="edge">
<title>Metamodel::PackageHOW&#45;&gt;Metamodel::Stashing</title>
<path fill="none" stroke="#6666ff" d="M815.71,-450.86C828.46,-538.38 883.3,-914.92 883.3,-914.92 883.3,-914.92 883.97,-922.14 884.76,-930.73"/>
<polygon fill="#6666ff" stroke="#6666ff" points="881.28,-931.05 885.68,-940.69 888.25,-930.41 881.28,-931.05"/>
</g>
<!-- Metamodel::PackageHOW&#45;&gt;Any -->
<g id="edge2" class="edge">
<title>Metamodel::PackageHOW&#45;&gt;Any</title>
<path fill="none" stroke="#000000" d="M817.22,-450.96C819.98,-463.07 823.11,-476.78 823.11,-476.78 823.11,-476.78 934.81,-767.45 969.79,-858.5"/>
<polygon fill="#000000" stroke="#000000" points="966.54,-859.79 973.39,-867.87 973.07,-857.28 966.54,-859.79"/>
</g>
<!-- Metamodel::PackageHOW&#45;&gt;Metamodel::Naming -->
<g id="edge9" class="edge">
<title>Metamodel::PackageHOW&#45;&gt;Metamodel::Naming</title>
<path fill="none" stroke="#6666ff" d="M812.98,-451.17C812.58,-520.8 811.16,-764.97 811.16,-764.97 811.16,-764.97 800.79,-843.4 795.06,-886.76"/>
<polygon fill="#6666ff" stroke="#6666ff" points="791.59,-886.34 793.75,-896.71 798.53,-887.26 791.59,-886.34"/>
</g>
<!-- Metamodel::PackageHOW&#45;&gt;Metamodel::Documenting -->
<g id="edge10" class="edge">
<title>Metamodel::PackageHOW&#45;&gt;Metamodel::Documenting</title>
<path fill="none" stroke="#6666ff" d="M806.76,-451.16C787.73,-506.25 730.94,-670.68 708.09,-736.81"/>
<polygon fill="#6666ff" stroke="#6666ff" points="704.69,-735.96 704.73,-746.55 711.3,-738.24 704.69,-735.96"/>
</g>
<!-- Metamodel::PackageHOW&#45;&gt;Metamodel::TypePretense -->
<g id="edge12" class="edge">
<title>Metamodel::PackageHOW&#45;&gt;Metamodel::TypePretense</title>
<path fill="none" stroke="#6666ff" d="M896.85,-445.38C952.24,-453.67 1014.72,-463.03 1014.72,-463.03 1014.72,-463.03 1047.29,-476.91 1047.29,-476.91 1047.29,-476.91 1174.56,-538.28 1244.49,-572.01"/>
<polygon fill="#6666ff" stroke="#6666ff" points="1243.02,-575.18 1253.55,-576.37 1246.06,-568.88 1243.02,-575.18"/>
</g>
<!-- Metamodel::PackageHOW&#45;&gt;Metamodel::MethodDelegation -->
<g id="edge13" class="edge">
<title>Metamodel::PackageHOW&#45;&gt;Metamodel::MethodDelegation</title>
<path fill="none" stroke="#6666ff" d="M812.64,-414.75C811.02,-349.51 805.48,-126.03 803.5,-46.43"/>
<polygon fill="#6666ff" stroke="#6666ff" points="806.99,-46.1 803.25,-36.19 800,-46.27 806.99,-46.1"/>
</g>
<!-- Metamodel::Versioning -->
<g id="node9" class="node">
<title>Metamodel::Versioning</title>
<g id="a_node9"><a xlink:href="/type/Metamodel::Versioning" xlink:title="Metamodel::Versioning">
<ellipse fill="none" stroke="#6666ff" cx="576.59" cy="-808.83" rx="100.98" ry="18"/>
<text text-anchor="middle" x="576.59" y="-805.13" font-family="FreeSans" font-size="14.00" fill="#6666ff">Metamodel::Versioning</text>
</a>
</g>
</g>
<!-- Metamodel::AttributeContainer -->
<g id="node10" class="node">
<title>Metamodel::AttributeContainer</title>
<g id="a_node10"><a xlink:href="/type/Metamodel::AttributeContainer" xlink:title="Metamodel::AttributeContainer">
<ellipse fill="none" stroke="#6666ff" cx="1046.98" cy="-1476.64" rx="129.98" ry="18"/>
<text text-anchor="middle" x="1046.98" y="-1472.94" font-family="FreeSans" font-size="14.00" fill="#6666ff">Metamodel::AttributeContainer</text>
</a>
</g>
</g>
<!-- Metamodel::Finalization -->
<g id="node11" class="node">
<title>Metamodel::Finalization</title>
<g id="a_node11"><a xlink:href="/type/Metamodel::Finalization" xlink:title="Metamodel::Finalization">
<ellipse fill="none" stroke="#6666ff" cx="155.97" cy="-1003.23" rx="103.98" ry="18"/>
<text text-anchor="middle" x="155.97" y="-999.53" font-family="FreeSans" font-size="14.00" fill="#6666ff">Metamodel::Finalization</text>
</a>
</g>
</g>
<!-- Metamodel::MethodContainer -->
<g id="node12" class="node">
<title>Metamodel::MethodContainer</title>
<g id="a_node12"><a xlink:href="/type/Metamodel::MethodContainer" xlink:title="Metamodel::MethodContainer">
<ellipse fill="none" stroke="#6666ff" cx="653.24" cy="-1676.53" rx="127.28" ry="18"/>
<text text-anchor="middle" x="653.24" y="-1672.83" font-family="FreeSans" font-size="14.00" fill="#6666ff">Metamodel::MethodContainer</text>
</a>
</g>
</g>
<!-- Metamodel::PrivateMethodContainer -->
<g id="node13" class="node">
<title>Metamodel::PrivateMethodContainer</title>
<g id="a_node13"><a xlink:href="/type/Metamodel::PrivateMethodContainer" xlink:title="Metamodel::PrivateMethodContainer">
<ellipse fill="none" stroke="#6666ff" cx="1201.47" cy="-1583.07" rx="154.87" ry="18"/>
<text text-anchor="middle" x="1201.47" y="-1579.37" font-family="FreeSans" font-size="14.00" fill="#6666ff">Metamodel::PrivateMethodContainer</text>
</a>
</g>
</g>
<!-- Metamodel::MultiMethodContainer -->
<g id="node14" class="node">
<title>Metamodel::MultiMethodContainer</title>
<g id="a_node14"><a xlink:href="/type/Metamodel::MultiMethodContainer" xlink:title="Metamodel::MultiMethodContainer">
<ellipse fill="none" stroke="#6666ff" cx="1078.25" cy="-1649.17" rx="146.47" ry="18"/>
<text text-anchor="middle" x="1078.25" y="-1645.47" font-family="FreeSans" font-size="14.00" fill="#6666ff">Metamodel::MultiMethodContainer</text>
</a>
</g>
</g>
<!-- Metamodel::RoleContainer -->
<g id="node15" class="node">
<title>Metamodel::RoleContainer</title>
<g id="a_node15"><a xlink:href="/type/Metamodel::RoleContainer" xlink:title="Metamodel::RoleContainer">
<ellipse fill="none" stroke="#6666ff" cx="904.55" cy="-1693.2" rx="115.88" ry="18"/>
<text text-anchor="middle" x="904.55" y="-1689.5" font-family="FreeSans" font-size="14.00" fill="#6666ff">Metamodel::RoleContainer</text>
</a>
</g>
</g>
<!-- Metamodel::MultipleInheritance -->
<g id="node16" class="node">
<title>Metamodel::MultipleInheritance</title>
<g id="a_node16"><a xlink:href="/type/Metamodel::MultipleInheritance" xlink:title="Metamodel::MultipleInheritance">
<ellipse fill="none" stroke="#6666ff" cx="534.82" cy="-1107.78" rx="133.78" ry="18"/>
<text text-anchor="middle" x="534.82" y="-1104.08" font-family="FreeSans" font-size="14.00" fill="#6666ff">Metamodel::MultipleInheritance</text>
</a>
</g>
</g>
<!-- Metamodel::DefaultParent -->
<g id="node17" class="node">
<title>Metamodel::DefaultParent</title>
<g id="a_node17"><a xlink:href="/type/Metamodel::DefaultParent" xlink:title="Metamodel::DefaultParent">
<ellipse fill="none" stroke="#6666ff" cx="1302.1" cy="-1495.25" rx="113.18" ry="18"/>
<text text-anchor="middle" x="1302.1" y="-1491.55" font-family="FreeSans" font-size="14.00" fill="#6666ff">Metamodel::DefaultParent</text>
</a>
</g>
</g>
<!-- Metamodel::C3MRO -->
<g id="node18" class="node">
<title>Metamodel::C3MRO</title>
<g id="a_node18"><a xlink:href="/type/Metamodel::C3MRO" xlink:title="Metamodel::C3MRO">
<ellipse fill="none" stroke="#6666ff" cx="121.48" cy="-1337.86" rx="92.08" ry="18"/>
<text text-anchor="middle" x="121.48" y="-1334.16" font-family="FreeSans" font-size="14.00" fill="#6666ff">Metamodel::C3MRO</text>
</a>
</g>
</g>
<!-- Metamodel::MROBasedMethodDispatch -->
<g id="node19" class="node">
<title>Metamodel::MROBasedMethodDispatch</title>
<g id="a_node19"><a xlink:href="/type/Metamodel::MROBasedMethodDispatch" xlink:title="Metamodel::MROBasedMethodDispatch">
<ellipse fill="none" stroke="#6666ff" cx="294.47" cy="-1398.38" rx="169.77" ry="18"/>
<text text-anchor="middle" x="294.47" y="-1394.68" font-family="FreeSans" font-size="14.00" fill="#6666ff">Metamodel::MROBasedMethodDispatch</text>
</a>
</g>
</g>
<!-- Metamodel::MROBasedTypeChecking -->
<g id="node20" class="node">
<title>Metamodel::MROBasedTypeChecking</title>
<g id="a_node20"><a xlink:href="/type/Metamodel::MROBasedTypeChecking" xlink:title="Metamodel::MROBasedTypeChecking">
<ellipse fill="none" stroke="#6666ff" cx="324.3" cy="-1522.33" rx="163.27" ry="18"/>
<text text-anchor="middle" x="324.3" y="-1518.63" font-family="FreeSans" font-size="14.00" fill="#6666ff">Metamodel::MROBasedTypeChecking</text>
</a>
</g>
</g>
<!-- Metamodel::Trusting -->
<g id="node21" class="node">
<title>Metamodel::Trusting</title>
<g id="a_node21"><a xlink:href="/type/Metamodel::Trusting" xlink:title="Metamodel::Trusting">
<ellipse fill="none" stroke="#6666ff" cx="91.64" cy="-1198.05" rx="91.78" ry="18"/>
<text text-anchor="middle" x="91.64" y="-1194.35" font-family="FreeSans" font-size="14.00" fill="#6666ff">Metamodel::Trusting</text>
</a>
</g>
</g>
<!-- Metamodel::BUILDPLAN -->
<g id="node22" class="node">
<title>Metamodel::BUILDPLAN</title>
<g id="a_node22"><a xlink:href="/type/Metamodel::BUILDPLAN" xlink:title="Metamodel::BUILDPLAN">
<ellipse fill="none" stroke="#6666ff" cx="350.95" cy="-1736.71" rx="109.68" ry="18"/>
<text text-anchor="middle" x="350.95" y="-1733.01" font-family="FreeSans" font-size="14.00" fill="#6666ff">Metamodel::BUILDPLAN</text>
</a>
</g>
</g>
<!-- Metamodel::Mixins -->
<g id="node23" class="node">
<title>Metamodel::Mixins</title>
<g id="a_node23"><a xlink:href="/type/Metamodel::Mixins" xlink:title="Metamodel::Mixins">
<ellipse fill="none" stroke="#6666ff" cx="492.57" cy="-1824.76" rx="85.29" ry="18"/>
<text text-anchor="middle" x="492.57" y="-1821.06" font-family="FreeSans" font-size="14.00" fill="#6666ff">Metamodel::Mixins</text>
</a>
</g>
</g>
<!-- Metamodel::BoolificationProtocol -->
<g id="node24" class="node">
<title>Metamodel::BoolificationProtocol</title>
<g id="a_node24"><a xlink:href="/type/Metamodel::BoolificationProtocol" xlink:title="Metamodel::BoolificationProtocol">
<ellipse fill="none" stroke="#6666ff" cx="1173.36" cy="-1274.22" rx="139.18" ry="18"/>
<text text-anchor="middle" x="1173.36" y="-1270.52" font-family="FreeSans" font-size="14.00" fill="#6666ff">Metamodel::BoolificationProtocol</text>
</a>
</g>
</g>
<!-- Metamodel::ClassHOW -->
<g id="node25" class="node">
<title>Metamodel::ClassHOW</title>
<g id="a_node25"><a xlink:href="/type/Metamodel::ClassHOW" xlink:title="Metamodel::ClassHOW">
<ellipse fill="none" stroke="#000000" cx="671.37" cy="-1305.85" rx="103.18" ry="18"/>
<text text-anchor="middle" x="671.37" y="-1302.15" font-family="FreeSans" font-size="14.00" fill="#000000">Metamodel::ClassHOW</text>
</a>
</g>
</g>
<!-- Metamodel::ClassHOW&#45;&gt;Metamodel::Stashing -->
<g id="edge17" class="edge">
<title>Metamodel::ClassHOW&#45;&gt;Metamodel::Stashing</title>
<path fill="none" stroke="#6666ff" d="M682.68,-1287.67C718.32,-1230.39 828.47,-1053.4 870.67,-985.59"/>
<polygon fill="#6666ff" stroke="#6666ff" points="873.85,-987.11 876.16,-976.77 867.9,-983.41 873.85,-987.11"/>
</g>
<!-- Metamodel::ClassHOW&#45;&gt;Any -->
<g id="edge3" class="edge">
<title>Metamodel::ClassHOW&#45;&gt;Any</title>
<path fill="none" stroke="#000000" d="M687.66,-1287.68C751.69,-1216.27 982.55,-958.82 982.55,-958.82 982.55,-958.82 981.74,-934.29 981.07,-913.59"/>
<polygon fill="#000000" stroke="#000000" points="984.56,-913.45 980.74,-903.57 977.57,-913.68 984.56,-913.45"/>
</g>
<!-- Metamodel::ClassHOW&#45;&gt;Metamodel::Naming -->
<g id="edge14" class="edge">
<title>Metamodel::ClassHOW&#45;&gt;Metamodel::Naming</title>
<path fill="none" stroke="#6666ff" d="M676.92,-1287.77C696.06,-1225.36 759.49,-1018.64 782.73,-942.91"/>
<polygon fill="#6666ff" stroke="#6666ff" points="786.14,-943.71 785.73,-933.12 779.45,-941.65 786.14,-943.71"/>
</g>
<!-- Metamodel::ClassHOW&#45;&gt;Metamodel::Documenting -->
<g id="edge15" class="edge">
<title>Metamodel::ClassHOW&#45;&gt;Metamodel::Documenting</title>
<path fill="none" stroke="#6666ff" d="M672.27,-1287.84C676.23,-1208.57 692.15,-890.24 697.01,-793.1"/>
<polygon fill="#6666ff" stroke="#6666ff" points="700.51,-793.05 697.52,-782.88 693.52,-792.7 700.51,-793.05"/>
</g>
<!-- Metamodel::ClassHOW&#45;&gt;Metamodel::Versioning -->
<g id="edge16" class="edge">
<title>Metamodel::ClassHOW&#45;&gt;Metamodel::Versioning</title>
<path fill="none" stroke="#6666ff" d="M671.27,-1287.58C671.01,-1238.57 670.31,-1107.9 670.31,-1107.9 670.31,-1107.9 608.6,-910.98 585.33,-836.72"/>
<polygon fill="#6666ff" stroke="#6666ff" points="588.64,-835.58 582.31,-827.09 581.96,-837.68 588.64,-835.58"/>
</g>
<!-- Metamodel::ClassHOW&#45;&gt;Metamodel::AttributeContainer -->
<g id="edge18" class="edge">
<title>Metamodel::ClassHOW&#45;&gt;Metamodel::AttributeContainer</title>
<path fill="none" stroke="#6666ff" d="M708.41,-1322.69C777.1,-1353.92 924.1,-1420.76 999.8,-1455.18"/>
<polygon fill="#6666ff" stroke="#6666ff" points="998.55,-1458.46 1009.11,-1459.42 1001.45,-1452.09 998.55,-1458.46"/>
</g>
<!-- Metamodel::ClassHOW&#45;&gt;Metamodel::Finalization -->
<g id="edge19" class="edge">
<title>Metamodel::ClassHOW&#45;&gt;Metamodel::Finalization</title>
<path fill="none" stroke="#6666ff" d="M641.81,-1288.49C553.65,-1236.73 292.62,-1083.47 194.15,-1025.65"/>
<polygon fill="#6666ff" stroke="#6666ff" points="195.81,-1022.57 185.41,-1020.52 192.26,-1028.6 195.81,-1022.57"/>
</g>
<!-- Metamodel::ClassHOW&#45;&gt;Metamodel::MethodContainer -->
<g id="edge20" class="edge">
<title>Metamodel::ClassHOW&#45;&gt;Metamodel::MethodContainer</title>
<path fill="none" stroke="#6666ff" d="M665.91,-1323.94C655.39,-1358.87 633.3,-1432.16 633.3,-1432.16 633.3,-1432.16 645.63,-1583.34 650.9,-1647.88"/>
<polygon fill="#6666ff" stroke="#6666ff" points="647.44,-1648.48 651.74,-1658.17 654.41,-1647.91 647.44,-1648.48"/>
</g>
<!-- Metamodel::ClassHOW&#45;&gt;Metamodel::PrivateMethodContainer -->
<g id="edge21" class="edge">
<title>Metamodel::ClassHOW&#45;&gt;Metamodel::PrivateMethodContainer</title>
<path fill="none" stroke="#6666ff" d="M696.56,-1323.47C758.91,-1367.08 915.4,-1476.53 915.4,-1476.53 915.4,-1476.53 1062.36,-1531.26 1145.62,-1562.27"/>
<polygon fill="#6666ff" stroke="#6666ff" points="1144.6,-1565.63 1155.19,-1565.84 1147.04,-1559.07 1144.6,-1565.63"/>
</g>
<!-- Metamodel::ClassHOW&#45;&gt;Metamodel::MultiMethodContainer -->
<g id="edge22" class="edge">
<title>Metamodel::ClassHOW&#45;&gt;Metamodel::MultiMethodContainer</title>
<path fill="none" stroke="#6666ff" d="M695.62,-1323.43C743.54,-1358.17 845.78,-1432.28 845.78,-1432.28 845.78,-1432.28 990.33,-1567.14 1051.46,-1624.18"/>
<polygon fill="#6666ff" stroke="#6666ff" points="1049.13,-1626.79 1058.83,-1631.05 1053.91,-1621.67 1049.13,-1626.79"/>
</g>
<!-- Metamodel::ClassHOW&#45;&gt;Metamodel::RoleContainer -->
<g id="edge23" class="edge">
<title>Metamodel::ClassHOW&#45;&gt;Metamodel::RoleContainer</title>
<path fill="none" stroke="#6666ff" d="M695.62,-1323.43C743.54,-1358.17 845.78,-1432.28 845.78,-1432.28 845.78,-1432.28 882.96,-1597.33 898.18,-1664.89"/>
<polygon fill="#6666ff" stroke="#6666ff" points="894.81,-1665.87 900.42,-1674.85 901.64,-1664.33 894.81,-1665.87"/>
</g>
<!-- Metamodel::ClassHOW&#45;&gt;Metamodel::MultipleInheritance -->
<g id="edge24" class="edge">
<title>Metamodel::ClassHOW&#45;&gt;Metamodel::MultipleInheritance</title>
<path fill="none" stroke="#6666ff" d="M659.01,-1287.92C634.85,-1252.88 581.27,-1175.15 553.04,-1134.2"/>
<polygon fill="#6666ff" stroke="#6666ff" points="555.81,-1132.06 547.25,-1125.81 550.05,-1136.03 555.81,-1132.06"/>
</g>
<!-- Metamodel::ClassHOW&#45;&gt;Metamodel::DefaultParent -->
<g id="edge25" class="edge">
<title>Metamodel::ClassHOW&#45;&gt;Metamodel::DefaultParent</title>
<path fill="none" stroke="#6666ff" d="M723.25,-1321.43C838.3,-1355.98 1114.48,-1438.91 1239.15,-1476.35"/>
<polygon fill="#6666ff" stroke="#6666ff" points="1238.35,-1479.76 1248.94,-1479.29 1240.37,-1473.06 1238.35,-1479.76"/>
</g>
<!-- Metamodel::ClassHOW&#45;&gt;Metamodel::C3MRO -->
<g id="edge26" class="edge">
<title>Metamodel::ClassHOW&#45;&gt;Metamodel::C3MRO</title>
<path fill="none" stroke="#6666ff" d="M573.06,-1311.57C473.46,-1317.37 320.22,-1326.29 220.4,-1332.1"/>
<polygon fill="#6666ff" stroke="#6666ff" points="220.08,-1328.61 210.3,-1332.69 220.49,-1335.6 220.08,-1328.61"/>
</g>
<!-- Metamodel::ClassHOW&#45;&gt;Metamodel::MROBasedMethodDispatch -->
<g id="edge27" class="edge">
<title>Metamodel::ClassHOW&#45;&gt;Metamodel::MROBasedMethodDispatch</title>
<path fill="none" stroke="#6666ff" d="M611.23,-1320.61C546.32,-1336.55 442.74,-1361.98 371.81,-1379.39"/>
<polygon fill="#6666ff" stroke="#6666ff" points="370.91,-1376.01 362.03,-1381.79 372.58,-1382.81 370.91,-1376.01"/>
</g>
<!-- Metamodel::ClassHOW&#45;&gt;Metamodel::MROBasedTypeChecking -->
<g id="edge28" class="edge">
<title>Metamodel::ClassHOW&#45;&gt;Metamodel::MROBasedTypeChecking</title>
<path fill="none" stroke="#6666ff" d="M643.55,-1323.2C581.39,-1361.97 431.17,-1455.67 361.25,-1499.29"/>
<polygon fill="#6666ff" stroke="#6666ff" points="359.36,-1496.34 352.73,-1504.6 363.07,-1502.28 359.36,-1496.34"/>
</g>
<!-- Metamodel::ClassHOW&#45;&gt;Metamodel::Trusting -->
<g id="edge29" class="edge">
<title>Metamodel::ClassHOW&#45;&gt;Metamodel::Trusting</title>
<path fill="none" stroke="#6666ff" d="M600.57,-1292.68C491.06,-1272.32 281.45,-1233.34 168.42,-1212.32"/>
<polygon fill="#6666ff" stroke="#6666ff" points="168.92,-1208.86 158.45,-1210.47 167.64,-1215.74 168.92,-1208.86"/>
</g>
<!-- Metamodel::ClassHOW&#45;&gt;Metamodel::BUILDPLAN -->
<g id="edge30" class="edge">
<title>Metamodel::ClassHOW&#45;&gt;Metamodel::BUILDPLAN</title>
<path fill="none" stroke="#6666ff" d="M658.01,-1323.81C607.73,-1391.42 429.72,-1630.79 370.37,-1710.6"/>
<polygon fill="#6666ff" stroke="#6666ff" points="367.53,-1708.56 364.37,-1718.67 373.15,-1712.73 367.53,-1708.56"/>
</g>
<!-- Metamodel::ClassHOW&#45;&gt;Metamodel::Mixins -->
<g id="edge31" class="edge">
<title>Metamodel::ClassHOW&#45;&gt;Metamodel::Mixins</title>
<path fill="none" stroke="#6666ff" d="M664.17,-1323.97C634.64,-1398.35 524.26,-1676.35 524.26,-1676.35 524.26,-1676.35 507.75,-1753.66 498.56,-1796.68"/>
<polygon fill="#6666ff" stroke="#6666ff" points="495.12,-1796.05 496.45,-1806.56 501.96,-1797.51 495.12,-1796.05"/>
</g>
<!-- Metamodel::ClassHOW&#45;&gt;Metamodel::BoolificationProtocol -->
<g id="edge32" class="edge">
<title>Metamodel::ClassHOW&#45;&gt;Metamodel::BoolificationProtocol</title>
<path fill="none" stroke="#6666ff" d="M768.75,-1299.71C845.41,-1294.88 953.13,-1288.1 1038.15,-1282.74"/>
<polygon fill="#6666ff" stroke="#6666ff" points="1038.37,-1286.23 1048.13,-1282.11 1037.93,-1279.25 1038.37,-1286.23"/>
</g>
<!-- Metamodel::NativeHOW -->
<g id="node26" class="node">
<title>Metamodel::NativeHOW</title>
<g id="a_node26"><a xlink:href="/type/Metamodel::NativeHOW" xlink:title="Metamodel::NativeHOW">
<ellipse fill="none" stroke="#000000" cx="357.95" cy="-910.34" rx="106.68" ry="18"/>
<text text-anchor="middle" x="357.95" y="-906.64" font-family="FreeSans" font-size="14.00" fill="#000000">Metamodel::NativeHOW</text>
</a>
</g>
</g>
<!-- Metamodel::NativeHOW&#45;&gt;Metamodel::Stashing -->
<g id="edge36" class="edge">
<title>Metamodel::NativeHOW&#45;&gt;Metamodel::Stashing</title>
<path fill="none" stroke="#6666ff" d="M451.68,-918.91C547.77,-927.71 696.4,-941.31 792.79,-950.13"/>
<polygon fill="#6666ff" stroke="#6666ff" points="792.55,-953.62 802.82,-951.05 793.18,-946.65 792.55,-953.62"/>
</g>
<!-- Metamodel::NativeHOW&#45;&gt;Any -->
<g id="edge4" class="edge">
<title>Metamodel::NativeHOW&#45;&gt;Any</title>
<path fill="none" stroke="#000000" d="M461.74,-906.18C603.23,-900.52 849.72,-890.65 942.97,-886.91"/>
<polygon fill="#000000" stroke="#000000" points="943.2,-890.41 953.05,-886.51 942.92,-883.41 943.2,-890.41"/>
</g>
<!-- Metamodel::NativeHOW&#45;&gt;Metamodel::Naming -->
<g id="edge33" class="edge">
<title>Metamodel::NativeHOW&#45;&gt;Metamodel::Naming</title>
<path fill="none" stroke="#6666ff" d="M464.53,-911.43C533.54,-912.14 622.86,-913.05 690.68,-913.75"/>
<polygon fill="#6666ff" stroke="#6666ff" points="690.91,-917.25 700.95,-913.85 690.98,-910.25 690.91,-917.25"/>
</g>
<!-- Metamodel::NativeHOW&#45;&gt;Metamodel::Documenting -->
<g id="edge34" class="edge">
<title>Metamodel::NativeHOW&#45;&gt;Metamodel::Documenting</title>
<path fill="none" stroke="#6666ff" d="M378.2,-892.64C411.53,-863.53 474.25,-808.73 474.25,-808.73 474.25,-808.73 504.59,-794.9 504.59,-794.9 504.59,-794.9 557.38,-786.71 607.86,-778.87"/>
<polygon fill="#6666ff" stroke="#6666ff" points="608.56,-782.31 617.91,-777.31 607.49,-775.39 608.56,-782.31"/>
</g>
<!-- Metamodel::NativeHOW&#45;&gt;Metamodel::Versioning -->
<g id="edge35" class="edge">
<title>Metamodel::NativeHOW&#45;&gt;Metamodel::Versioning</title>
<path fill="none" stroke="#6666ff" d="M394.54,-893.35C432.1,-875.91 490.61,-848.75 531.12,-829.94"/>
<polygon fill="#6666ff" stroke="#6666ff" points="532.64,-833.09 540.24,-825.71 529.69,-826.74 532.64,-833.09"/>
</g>
<!-- Metamodel::NativeHOW&#45;&gt;Metamodel::MultipleInheritance -->
<g id="edge37" class="edge">
<title>Metamodel::NativeHOW&#45;&gt;Metamodel::MultipleInheritance</title>
<path fill="none" stroke="#6666ff" d="M373.95,-928.21C405.45,-963.36 475.54,-1041.6 511.92,-1082.22"/>
<polygon fill="#6666ff" stroke="#6666ff" points="509.44,-1084.7 518.72,-1089.81 514.66,-1080.03 509.44,-1084.7"/>
</g>
<!-- Metamodel::NativeHOW&#45;&gt;Metamodel::C3MRO -->
<g id="edge38" class="edge">
<title>Metamodel::NativeHOW&#45;&gt;Metamodel::C3MRO</title>
<path fill="none" stroke="#6666ff" d="M347.94,-928.43C310.85,-995.48 181.15,-1229.99 136.62,-1310.49"/>
<polygon fill="#6666ff" stroke="#6666ff" points="133.4,-1309.08 131.63,-1319.52 139.53,-1312.46 133.4,-1309.08"/>
</g>
<!-- Metamodel::NativeHOW&#45;&gt;Metamodel::MROBasedMethodDispatch -->
<g id="edge39" class="edge">
<title>Metamodel::NativeHOW&#45;&gt;Metamodel::MROBasedMethodDispatch</title>
<path fill="none" stroke="#6666ff" d="M355.57,-928.58C345.95,-1002.58 309.78,-1280.68 298.11,-1370.33"/>
<polygon fill="#6666ff" stroke="#6666ff" points="294.64,-1369.94 296.82,-1380.31 301.58,-1370.84 294.64,-1369.94"/>
</g>
<!-- Metamodel::NativeHOW&#45;&gt;Metamodel::MROBasedTypeChecking -->
<g id="edge40" class="edge">
<title>Metamodel::NativeHOW&#45;&gt;Metamodel::MROBasedTypeChecking</title>
<path fill="none" stroke="#6666ff" d="M361.77,-928.55C372.01,-977.4 399.34,-1107.67 399.34,-1107.67 399.34,-1107.67 465.7,-1398.43 465.7,-1398.43 465.7,-1398.43 393.66,-1461.55 352.42,-1497.69"/>
<polygon fill="#6666ff" stroke="#6666ff" points="350.07,-1495.09 344.86,-1504.32 354.69,-1500.36 350.07,-1495.09"/>
</g>
<!-- Metamodel::RolePunning -->
<g id="node27" class="node">
<title>Metamodel::RolePunning</title>
<g id="a_node27"><a xlink:href="/type/Metamodel::RolePunning" xlink:title="Metamodel::RolePunning">
<ellipse fill="none" stroke="#6666ff" cx="1653.63" cy="-1135.44" rx="109.68" ry="18"/>
<text text-anchor="middle" x="1653.63" y="-1131.74" font-family="FreeSans" font-size="14.00" fill="#6666ff">Metamodel::RolePunning</text>
</a>
</g>
</g>
<!-- Metamodel::ParametricRoleGroupHOW -->
<g id="node28" class="node">
<title>Metamodel::ParametricRoleGroupHOW</title>
<g id="a_node28"><a xlink:href="/type/Metamodel::ParametricRoleGroupHOW" xlink:title="Metamodel::ParametricRoleGroupHOW">
<ellipse fill="none" stroke="#000000" cx="1375.51" cy="-889.74" rx="166.27" ry="18"/>
<text text-anchor="middle" x="1375.51" y="-886.04" font-family="FreeSans" font-size="14.00" fill="#000000">Metamodel::ParametricRoleGroupHOW</text>
</a>
</g>
</g>
<!-- Metamodel::ParametricRoleGroupHOW&#45;&gt;Metamodel::Stashing -->
<g id="edge42" class="edge">
<title>Metamodel::ParametricRoleGroupHOW&#45;&gt;Metamodel::Stashing</title>
<path fill="none" stroke="#6666ff" d="M1274.37,-904.05C1185.27,-916.65 1056.95,-934.8 972.87,-946.69"/>
<polygon fill="#6666ff" stroke="#6666ff" points="972.26,-943.24 962.84,-948.11 973.24,-950.17 972.26,-943.24"/>
</g>
<!-- Metamodel::ParametricRoleGroupHOW&#45;&gt;Any -->
<g id="edge5" class="edge">
<title>Metamodel::ParametricRoleGroupHOW&#45;&gt;Any</title>
<path fill="none" stroke="#000000" d="M1209.85,-887.93C1138.58,-887.16 1061.62,-886.32 1017.33,-885.83"/>
<polygon fill="#000000" stroke="#000000" points="1017.37,-882.33 1007.33,-885.72 1017.29,-889.33 1017.37,-882.33"/>
</g>
<!-- Metamodel::ParametricRoleGroupHOW&#45;&gt;Metamodel::Naming -->
<g id="edge41" class="edge">
<title>Metamodel::ParametricRoleGroupHOW&#45;&gt;Metamodel::Naming</title>
<path fill="none" stroke="#6666ff" d="M1220.5,-896.39C1115.71,-900.88 980.46,-906.68 890.07,-910.55"/>
<polygon fill="#6666ff" stroke="#6666ff" points="889.67,-907.06 879.83,-910.99 889.97,-914.06 889.67,-907.06"/>
</g>
<!-- Metamodel::ParametricRoleGroupHOW&#45;&gt;Metamodel::TypePretense -->
<g id="edge43" class="edge">
<title>Metamodel::ParametricRoleGroupHOW&#45;&gt;Metamodel::TypePretense</title>
<path fill="none" stroke="#6666ff" d="M1370.25,-871.66C1355.72,-821.79 1315,-681.97 1297.46,-621.76"/>
<polygon fill="#6666ff" stroke="#6666ff" points="1300.72,-620.43 1294.56,-611.81 1294,-622.39 1300.72,-620.43"/>
</g>
<!-- Metamodel::ParametricRoleGroupHOW&#45;&gt;Metamodel::BoolificationProtocol -->
<g id="edge45" class="edge">
<title>Metamodel::ParametricRoleGroupHOW&#45;&gt;Metamodel::BoolificationProtocol</title>
<path fill="none" stroke="#6666ff" d="M1366.03,-907.77C1333.54,-969.58 1226.5,-1173.15 1187.63,-1247.08"/>
<polygon fill="#6666ff" stroke="#6666ff" points="1184.38,-1245.76 1182.82,-1256.24 1190.57,-1249.01 1184.38,-1245.76"/>
</g>
<!-- Metamodel::ParametricRoleGroupHOW&#45;&gt;Metamodel::RolePunning -->
<g id="edge44" class="edge">
<title>Metamodel::ParametricRoleGroupHOW&#45;&gt;Metamodel::RolePunning</title>
<path fill="none" stroke="#6666ff" d="M1395.96,-907.81C1445.11,-951.22 1569.89,-1061.45 1625.8,-1110.84"/>
<polygon fill="#6666ff" stroke="#6666ff" points="1623.72,-1113.68 1633.53,-1117.67 1628.35,-1108.43 1623.72,-1113.68"/>
</g>
<!-- Metamodel::ParametricRoleHOW -->
<g id="node29" class="node">
<title>Metamodel::ParametricRoleHOW</title>
<g id="a_node29"><a xlink:href="/type/Metamodel::ParametricRoleHOW" xlink:title="Metamodel::ParametricRoleHOW">
<ellipse fill="none" stroke="#000000" cx="1088.23" cy="-1149.44" rx="141.88" ry="18"/>
<text text-anchor="middle" x="1088.23" y="-1145.74" font-family="FreeSans" font-size="14.00" fill="#000000">Metamodel::ParametricRoleHOW</text>
</a>
</g>
</g>
<!-- Metamodel::ParametricRoleHOW&#45;&gt;Metamodel::Stashing -->
<g id="edge55" class="edge">
<title>Metamodel::ParametricRoleHOW&#45;&gt;Metamodel::Stashing</title>
<path fill="none" stroke="#6666ff" d="M1069.33,-1131.51C1033.27,-1097.28 954.59,-1022.6 913.51,-983.61"/>
<polygon fill="#6666ff" stroke="#6666ff" points="915.72,-980.88 906.06,-976.53 910.9,-985.96 915.72,-980.88"/>
</g>
<!-- Metamodel::ParametricRoleHOW&#45;&gt;Any -->
<g id="edge6" class="edge">
<title>Metamodel::ParametricRoleHOW&#45;&gt;Any</title>
<path fill="none" stroke="#000000" d="M1080.8,-1131.3C1062.16,-1085.77 1013.33,-966.49 991.26,-912.58"/>
<polygon fill="#000000" stroke="#000000" points="994.37,-910.93 987.34,-903 987.89,-913.59 994.37,-910.93"/>
</g>
<!-- Metamodel::ParametricRoleHOW&#45;&gt;Metamodel::Naming -->
<g id="edge46" class="edge">
<title>Metamodel::ParametricRoleHOW&#45;&gt;Metamodel::Naming</title>
<path fill="none" stroke="#6666ff" d="M1060.64,-1131.67C987.14,-1084.33 792.16,-958.74 792.16,-958.74 792.16,-958.74 792.03,-951.66 791.88,-943.17"/>
<polygon fill="#6666ff" stroke="#6666ff" points="795.37,-942.85 791.69,-932.92 788.37,-942.98 795.37,-942.85"/>
</g>
<!-- Metamodel::ParametricRoleHOW&#45;&gt;Metamodel::Documenting -->
<g id="edge47" class="edge">
<title>Metamodel::ParametricRoleHOW&#45;&gt;Metamodel::Documenting</title>
<path fill="none" stroke="#6666ff" d="M1078.1,-1131.17C1051.65,-1083.46 982.55,-958.82 982.55,-958.82 982.55,-958.82 807.81,-839.51 732.4,-788.02"/>
<polygon fill="#6666ff" stroke="#6666ff" points="734.37,-785.12 724.14,-782.38 730.42,-790.9 734.37,-785.12"/>
</g>
<!-- Metamodel::ParametricRoleHOW&#45;&gt;Metamodel::TypePretense -->
<g id="edge56" class="edge">
<title>Metamodel::ParametricRoleHOW&#45;&gt;Metamodel::TypePretense</title>
<path fill="none" stroke="#6666ff" d="M1094.8,-1131.27C1124.21,-1049.95 1243.81,-719.25 1279.29,-621.15"/>
<polygon fill="#6666ff" stroke="#6666ff" points="1282.62,-622.23 1282.73,-611.63 1276.04,-619.84 1282.62,-622.23"/>
</g>
<!-- Metamodel::ParametricRoleHOW&#45;&gt;Metamodel::Versioning -->
<g id="edge48" class="edge">
<title>Metamodel::ParametricRoleHOW&#45;&gt;Metamodel::Versioning</title>
<path fill="none" stroke="#6666ff" d="M1059.01,-1131.8C968.58,-1077.19 699.42,-914.64 699.42,-914.64 699.42,-914.64 641.25,-864.53 604.97,-833.28"/>
<polygon fill="#6666ff" stroke="#6666ff" points="607.01,-830.42 597.15,-826.54 602.44,-835.72 607.01,-830.42"/>
</g>
<!-- Metamodel::ParametricRoleHOW&#45;&gt;Metamodel::AttributeContainer -->
<g id="edge52" class="edge">
<title>Metamodel::ParametricRoleHOW&#45;&gt;Metamodel::AttributeContainer</title>
<path fill="none" stroke="#6666ff" d="M1080.15,-1167.57C1064.74,-1202.14 1032.68,-1274.1 1032.68,-1274.1 1032.68,-1274.1 1041.02,-1392.18 1044.96,-1448.02"/>
<polygon fill="#6666ff" stroke="#6666ff" points="1041.49,-1448.58 1045.69,-1458.31 1048.48,-1448.09 1041.49,-1448.58"/>
</g>
<!-- Metamodel::ParametricRoleHOW&#45;&gt;Metamodel::MethodContainer -->
<g id="edge49" class="edge">
<title>Metamodel::ParametricRoleHOW&#45;&gt;Metamodel::MethodContainer</title>
<path fill="none" stroke="#6666ff" d="M1073.26,-1167.59C1008.29,-1246.31 750.67,-1558.47 674.54,-1650.73"/>
<polygon fill="#6666ff" stroke="#6666ff" points="671.81,-1648.53 668.15,-1658.47 677.21,-1652.98 671.81,-1648.53"/>
</g>
<!-- Metamodel::ParametricRoleHOW&#45;&gt;Metamodel::PrivateMethodContainer -->
<g id="edge50" class="edge">
<title>Metamodel::ParametricRoleHOW&#45;&gt;Metamodel::PrivateMethodContainer</title>
<path fill="none" stroke="#6666ff" d="M1080.15,-1167.57C1064.74,-1202.14 1032.68,-1274.1 1032.68,-1274.1 1032.68,-1274.1 1178.57,-1476.75 1178.57,-1476.75 1178.57,-1476.75 1188.65,-1523.53 1195.43,-1555.03"/>
<polygon fill="#6666ff" stroke="#6666ff" points="1192.06,-1556 1197.59,-1565.03 1198.91,-1554.52 1192.06,-1556"/>
</g>
<!-- Metamodel::ParametricRoleHOW&#45;&gt;Metamodel::MultiMethodContainer -->
<g id="edge51" class="edge">
<title>Metamodel::ParametricRoleHOW&#45;&gt;Metamodel::MultiMethodContainer</title>
<path fill="none" stroke="#6666ff" d="M1078.69,-1167.5C1042.46,-1236.07 915.4,-1476.53 915.4,-1476.53 915.4,-1476.53 1008.65,-1575.38 1054.02,-1623.49"/>
<polygon fill="#6666ff" stroke="#6666ff" points="1051.72,-1626.15 1061.13,-1631.02 1056.82,-1621.35 1051.72,-1626.15"/>
</g>
<!-- Metamodel::ParametricRoleHOW&#45;&gt;Metamodel::RoleContainer -->
<g id="edge53" class="edge">
<title>Metamodel::ParametricRoleHOW&#45;&gt;Metamodel::RoleContainer</title>
<path fill="none" stroke="#6666ff" d="M1078.69,-1167.5C1042.46,-1236.07 915.4,-1476.53 915.4,-1476.53 915.4,-1476.53 908.9,-1606.36 905.96,-1665.02"/>
<polygon fill="#6666ff" stroke="#6666ff" points="902.46,-1664.94 905.46,-1675.1 909.46,-1665.29 902.46,-1664.94"/>
</g>
<!-- Metamodel::ParametricRoleHOW&#45;&gt;Metamodel::MultipleInheritance -->
<g id="edge54" class="edge">
<title>Metamodel::ParametricRoleHOW&#45;&gt;Metamodel::MultipleInheritance</title>
<path fill="none" stroke="#6666ff" d="M966.1,-1140.25C875.9,-1133.46 753.43,-1124.24 662.05,-1117.36"/>
<polygon fill="#6666ff" stroke="#6666ff" points="662.14,-1113.86 651.9,-1116.6 661.61,-1120.84 662.14,-1113.86"/>
</g>
<!-- Metamodel::ParametricRoleHOW&#45;&gt;Metamodel::RolePunning -->
<g id="edge57" class="edge">
<title>Metamodel::ParametricRoleHOW&#45;&gt;Metamodel::RolePunning</title>
<path fill="none" stroke="#6666ff" d="M1227.63,-1145.99C1321.93,-1143.65 1445.15,-1140.6 1534.8,-1138.38"/>
<polygon fill="#6666ff" stroke="#6666ff" points="1535.1,-1141.87 1545.01,-1138.13 1534.93,-1134.88 1535.1,-1141.87"/>
</g>
<!-- Metamodel::ModuleHOW -->
<g id="node30" class="node">
<title>Metamodel::ModuleHOW</title>
<g id="a_node30"><a xlink:href="/type/Metamodel::ModuleHOW" xlink:title="Metamodel::ModuleHOW">
<ellipse fill="none" stroke="#000000" cx="935.2" cy="-476.84" rx="110.48" ry="18"/>
<text text-anchor="middle" x="935.2" y="-473.14" font-family="FreeSans" font-size="14.00" fill="#000000">Metamodel::ModuleHOW</text>
</a>
</g>
</g>
<!-- Metamodel::ModuleHOW&#45;&gt;Metamodel::Stashing -->
<g id="edge61" class="edge">
<title>Metamodel::ModuleHOW&#45;&gt;Metamodel::Stashing</title>
<path fill="none" stroke="#6666ff" d="M933.41,-494.86C926.17,-567.77 899.01,-841.38 890.16,-930.52"/>
<polygon fill="#6666ff" stroke="#6666ff" points="886.66,-930.38 889.15,-940.68 893.62,-931.07 886.66,-930.38"/>
</g>
<!-- Metamodel::ModuleHOW&#45;&gt;Any -->
<g id="edge7" class="edge">
<title>Metamodel::ModuleHOW&#45;&gt;Any</title>
<path fill="none" stroke="#000000" d="M937.19,-494.93C944.28,-559.38 968.35,-778.24 977.01,-856.94"/>
<polygon fill="#000000" stroke="#000000" points="973.55,-857.53 978.13,-867.09 980.51,-856.77 973.55,-857.53"/>
</g>
<!-- Metamodel::ModuleHOW&#45;&gt;Metamodel::Naming -->
<g id="edge58" class="edge">
<title>Metamodel::ModuleHOW&#45;&gt;Metamodel::Naming</title>
<path fill="none" stroke="#6666ff" d="M929.29,-494.83C906.99,-562.74 827.76,-803.94 800.59,-886.68"/>
<polygon fill="#6666ff" stroke="#6666ff" points="797.19,-885.81 797.39,-896.4 803.84,-888 797.19,-885.81"/>
</g>
<!-- Metamodel::ModuleHOW&#45;&gt;Metamodel::Documenting -->
<g id="edge59" class="edge">
<title>Metamodel::ModuleHOW&#45;&gt;Metamodel::Documenting</title>
<path fill="none" stroke="#6666ff" d="M920.39,-494.86C879.86,-544.15 767.02,-681.39 719.71,-738.92"/>
<polygon fill="#6666ff" stroke="#6666ff" points="716.88,-736.86 713.23,-746.81 722.28,-741.31 716.88,-736.86"/>
</g>
<!-- Metamodel::ModuleHOW&#45;&gt;Metamodel::TypePretense -->
<g id="edge62" class="edge">
<title>Metamodel::ModuleHOW&#45;&gt;Metamodel::TypePretense</title>
<path fill="none" stroke="#6666ff" d="M984.43,-493.08C1048.72,-514.28 1161.16,-551.35 1230.04,-574.07"/>
<polygon fill="#6666ff" stroke="#6666ff" points="1229.28,-577.5 1239.87,-577.31 1231.47,-570.85 1229.28,-577.5"/>
</g>
<!-- Metamodel::ModuleHOW&#45;&gt;Metamodel::MethodDelegation -->
<g id="edge63" class="edge">
<title>Metamodel::ModuleHOW&#45;&gt;Metamodel::MethodDelegation</title>
<path fill="none" stroke="#6666ff" d="M933.48,-458.72C932.33,-446.62 931.03,-432.91 931.03,-432.91 931.03,-432.91 840.02,-138.45 811.34,-45.65"/>
<polygon fill="#6666ff" stroke="#6666ff" points="814.69,-44.62 808.39,-36.1 808,-46.68 814.69,-44.62"/>
</g>
<!-- Metamodel::ModuleHOW&#45;&gt;Metamodel::Versioning -->
<g id="edge60" class="edge">
<title>Metamodel::ModuleHOW&#45;&gt;Metamodel::Versioning</title>
<path fill="none" stroke="#6666ff" d="M913.6,-494.63C837.4,-557.38 585.68,-764.67 585.68,-764.67 585.68,-764.67 584.19,-771.94 582.41,-780.59"/>
<polygon fill="#6666ff" stroke="#6666ff" points="578.93,-780.11 580.34,-790.61 585.79,-781.52 578.93,-780.11"/>
</g>
<!-- Metamodel::BaseType -->
<g id="node31" class="node">
<title>Metamodel::BaseType</title>
<g id="a_node31"><a xlink:href="/type/Metamodel::BaseType" xlink:title="Metamodel::BaseType">
<ellipse fill="none" stroke="#6666ff" cx="953.64" cy="-2078.2" rx="99.38" ry="18"/>
<text text-anchor="middle" x="953.64" y="-2074.5" font-family="FreeSans" font-size="14.00" fill="#6666ff">Metamodel::BaseType</text>
</a>
</g>
</g>
<!-- Metamodel::EnumHOW -->
<g id="node32" class="node">
<title>Metamodel::EnumHOW</title>
<g id="a_node32"><a xlink:href="/type/Metamodel::EnumHOW" xlink:title="Metamodel::EnumHOW">
<ellipse fill="none" stroke="#000000" cx="739.54" cy="-1432.22" rx="104.78" ry="18"/>
<text text-anchor="middle" x="739.54" y="-1428.52" font-family="FreeSans" font-size="14.00" fill="#000000">Metamodel::EnumHOW</text>
</a>
</g>
</g>
<!-- Metamodel::EnumHOW&#45;&gt;Metamodel::Stashing -->
<g id="edge65" class="edge">
<title>Metamodel::EnumHOW&#45;&gt;Metamodel::Stashing</title>
<path fill="none" stroke="#6666ff" d="M745.15,-1414.24C767.65,-1342.18 851.4,-1073.94 878.7,-986.52"/>
<polygon fill="#6666ff" stroke="#6666ff" points="882.1,-987.37 881.74,-976.78 875.41,-985.28 882.1,-987.37"/>
</g>
<!-- Metamodel::EnumHOW&#45;&gt;Any -->
<g id="edge8" class="edge">
<title>Metamodel::EnumHOW&#45;&gt;Any</title>
<path fill="none" stroke="#000000" d="M748.77,-1414.24C793.16,-1327.77 982.55,-958.82 982.55,-958.82 982.55,-958.82 981.74,-934.29 981.07,-913.59"/>
<polygon fill="#000000" stroke="#000000" points="984.56,-913.45 980.74,-903.57 977.57,-913.68 984.56,-913.45"/>
</g>
<!-- Metamodel::EnumHOW&#45;&gt;Metamodel::Naming -->
<g id="edge64" class="edge">
<title>Metamodel::EnumHOW&#45;&gt;Metamodel::Naming</title>
<path fill="none" stroke="#6666ff" d="M744.81,-1414.14C754.97,-1379.25 776.31,-1306.02 776.31,-1306.02 776.31,-1306.02 786.81,-1033.06 790.27,-943.13"/>
<polygon fill="#6666ff" stroke="#6666ff" points="793.78,-942.99 790.66,-932.87 786.78,-942.73 793.78,-942.99"/>
</g>
<!-- Metamodel::EnumHOW&#45;&gt;Metamodel::AttributeContainer -->
<g id="edge66" class="edge">
<title>Metamodel::EnumHOW&#45;&gt;Metamodel::AttributeContainer</title>
<path fill="none" stroke="#6666ff" d="M819.91,-1443.83C858.7,-1449.44 905.63,-1456.22 946.74,-1462.16"/>
<polygon fill="#6666ff" stroke="#6666ff" points="946.38,-1465.64 956.78,-1463.61 947.38,-1458.71 946.38,-1465.64"/>
</g>
<!-- Metamodel::EnumHOW&#45;&gt;Metamodel::MethodContainer -->
<g id="edge67" class="edge">
<title>Metamodel::EnumHOW&#45;&gt;Metamodel::MethodContainer</title>
<path fill="none" stroke="#6666ff" d="M733.05,-1450.58C718.05,-1493.05 680.89,-1598.24 663.08,-1648.68"/>
<polygon fill="#6666ff" stroke="#6666ff" points="659.71,-1647.7 659.68,-1658.29 666.31,-1650.03 659.71,-1647.7"/>
</g>
<!-- Metamodel::EnumHOW&#45;&gt;Metamodel::MultiMethodContainer -->
<g id="edge68" class="edge">
<title>Metamodel::EnumHOW&#45;&gt;Metamodel::MultiMethodContainer</title>
<path fill="none" stroke="#6666ff" d="M766.68,-1449.61C827.23,-1488.39 973.36,-1581.98 1041.77,-1625.81"/>
<polygon fill="#6666ff" stroke="#6666ff" points="1040.2,-1628.95 1050.5,-1631.4 1043.97,-1623.06 1040.2,-1628.95"/>
</g>
<!-- Metamodel::EnumHOW&#45;&gt;Metamodel::RoleContainer -->
<g id="edge69" class="edge">
<title>Metamodel::EnumHOW&#45;&gt;Metamodel::RoleContainer</title>
<path fill="none" stroke="#6666ff" d="M750.88,-1450.16C779.38,-1495.23 854.1,-1613.4 887.73,-1666.59"/>
<polygon fill="#6666ff" stroke="#6666ff" points="884.83,-1668.56 893.13,-1675.14 890.75,-1664.81 884.83,-1668.56"/>
</g>
<!-- Metamodel::EnumHOW&#45;&gt;Metamodel::MROBasedMethodDispatch -->
<g id="edge71" class="edge">
<title>Metamodel::EnumHOW&#45;&gt;Metamodel::MROBasedMethodDispatch</title>
<path fill="none" stroke="#6666ff" d="M643.78,-1424.94C585.22,-1420.49 509.07,-1414.7 442.83,-1409.66"/>
<polygon fill="#6666ff" stroke="#6666ff" points="442.95,-1406.16 432.71,-1408.89 442.42,-1413.14 442.95,-1406.16"/>
</g>
<!-- Metamodel::EnumHOW&#45;&gt;Metamodel::MROBasedTypeChecking -->
<g id="edge72" class="edge">
<title>Metamodel::EnumHOW&#45;&gt;Metamodel::MROBasedTypeChecking</title>
<path fill="none" stroke="#6666ff" d="M674.2,-1446.4C602.36,-1461.99 486.73,-1487.08 408.23,-1504.12"/>
<polygon fill="#6666ff" stroke="#6666ff" points="407.39,-1500.72 398.36,-1506.26 408.88,-1507.56 407.39,-1500.72"/>
</g>
<!-- Metamodel::EnumHOW&#45;&gt;Metamodel::BUILDPLAN -->
<g id="edge73" class="edge">
<title>Metamodel::EnumHOW&#45;&gt;Metamodel::BUILDPLAN</title>
<path fill="none" stroke="#6666ff" d="M716.97,-1449.91C650.83,-1501.73 457.44,-1653.27 381.79,-1712.54"/>
<polygon fill="#6666ff" stroke="#6666ff" points="379.3,-1710.05 373.59,-1718.98 383.62,-1715.56 379.3,-1710.05"/>
</g>
<!-- Metamodel::EnumHOW&#45;&gt;Metamodel::Mixins -->
<g id="edge75" class="edge">
<title>Metamodel::EnumHOW&#45;&gt;Metamodel::Mixins</title>
<path fill="none" stroke="#6666ff" d="M723.71,-1450.17C673.99,-1506.55 524.26,-1676.35 524.26,-1676.35 524.26,-1676.35 507.75,-1753.66 498.56,-1796.68"/>
<polygon fill="#6666ff" stroke="#6666ff" points="495.12,-1796.05 496.45,-1806.56 501.96,-1797.51 495.12,-1796.05"/>
</g>
<!-- Metamodel::EnumHOW&#45;&gt;Metamodel::BoolificationProtocol -->
<g id="edge74" class="edge">
<title>Metamodel::EnumHOW&#45;&gt;Metamodel::BoolificationProtocol</title>
<path fill="none" stroke="#6666ff" d="M784.33,-1415.91C863.94,-1386.92 1029.86,-1326.49 1117.06,-1294.73"/>
<polygon fill="#6666ff" stroke="#6666ff" points="1118.32,-1297.99 1126.52,-1291.28 1115.93,-1291.42 1118.32,-1297.99"/>
</g>
<!-- Metamodel::EnumHOW&#45;&gt;Metamodel::BaseType -->
<g id="edge70" class="edge">
<title>Metamodel::EnumHOW&#45;&gt;Metamodel::BaseType</title>
<path fill="none" stroke="#6666ff" d="M742.89,-1450.57C753.76,-1509.97 787.26,-1693.18 787.26,-1693.18 787.26,-1693.18 903.79,-1962.85 941.81,-2050.82"/>
<polygon fill="#6666ff" stroke="#6666ff" points="938.66,-2052.36 945.84,-2060.15 945.09,-2049.58 938.66,-2052.36"/>
</g>
</g>
</svg>
