<?xml version="1.0" encoding="UTF-8" standalone="no"?>
<!DOCTYPE svg PUBLIC "-//W3C//DTD SVG 1.1//EN"
 "http://www.w3.org/Graphics/SVG/1.1/DTD/svg11.dtd">
<!-- Generated by graphviz version 2.43.0 (0)
 -->
<!-- Title: raku&#45;type&#45;graph Pages: 1 -->
<svg width="2028pt" height="1371pt"
 viewBox="0.00 0.00 2028.10 1371.19" xmlns="http://www.w3.org/2000/svg" xmlns:xlink="http://www.w3.org/1999/xlink">
<g id="graph0" class="graph" transform="scale(1 1) rotate(0) translate(4 1367.19)">
<title>raku&#45;type&#45;graph</title>
<polygon fill="#ffffff" stroke="transparent" points="-4,4 -4,-1367.19 2024.1,-1367.19 2024.1,4 -4,4"/>
<!-- Metamodel::MultipleInheritance -->
<g id="node1" class="node">
<title>Metamodel::MultipleInheritance</title>
<g id="a_node1"><a xlink:href="/type/Metamodel::MultipleInheritance" xlink:title="Metamodel::MultipleInheritance">
<ellipse fill="none" stroke="#6666ff" cx="933.25" cy="-827.97" rx="133.78" ry="18"/>
<text text-anchor="middle" x="933.25" y="-824.27" font-family="FreeSans" font-size="14.00" fill="#6666ff">Metamodel::MultipleInheritance</text>
</a>
</g>
</g>
<!-- Mu -->
<g id="node2" class="node">
<title>Mu</title>
<g id="a_node2"><a xlink:href="/type/Mu" xlink:title="Mu">
<ellipse fill="none" stroke="#000000" cx="1604.49" cy="-18" rx="27" ry="18"/>
<text text-anchor="middle" x="1604.49" y="-14.3" font-family="FreeSans" font-size="14.00" fill="#000000">Mu</text>
</a>
</g>
</g>
<!-- Any -->
<g id="node3" class="node">
<title>Any</title>
<g id="a_node3"><a xlink:href="/type/Any" xlink:title="Any">
<ellipse fill="none" stroke="#000000" cx="1280.27" cy="-456.87" rx="27" ry="18"/>
<text text-anchor="middle" x="1280.27" y="-453.17" font-family="FreeSans" font-size="14.00" fill="#000000">Any</text>
</a>
</g>
</g>
<!-- Any&#45;&gt;Mu -->
<g id="edge1" class="edge">
<title>Any&#45;&gt;Mu</title>
<path fill="none" stroke="#000000" d="M1292.39,-440.47C1341.65,-373.79 1527.05,-122.83 1586.22,-42.73"/>
<polygon fill="#000000" stroke="#000000" points="1589.36,-44.38 1592.49,-34.25 1583.73,-40.22 1589.36,-44.38"/>
</g>
<!-- Metamodel::Naming -->
<g id="node4" class="node">
<title>Metamodel::Naming</title>
<g id="a_node4"><a xlink:href="/type/Metamodel::Naming" xlink:title="Metamodel::Naming">
<ellipse fill="none" stroke="#6666ff" cx="977.98" cy="-670.26" rx="90.18" ry="18"/>
<text text-anchor="middle" x="977.98" y="-666.56" font-family="FreeSans" font-size="14.00" fill="#6666ff">Metamodel::Naming</text>
</a>
</g>
</g>
<!-- Metamodel::Documenting -->
<g id="node5" class="node">
<title>Metamodel::Documenting</title>
<g id="a_node5"><a xlink:href="/type/Metamodel::Documenting" xlink:title="Metamodel::Documenting">
<ellipse fill="none" stroke="#6666ff" cx="831.99" cy="-455.49" rx="111.28" ry="18"/>
<text text-anchor="middle" x="831.99" y="-451.79" font-family="FreeSans" font-size="14.00" fill="#6666ff">Metamodel::Documenting</text>
</a>
</g>
</g>
<!-- Metamodel::Versioning -->
<g id="node6" class="node">
<title>Metamodel::Versioning</title>
<g id="a_node6"><a xlink:href="/type/Metamodel::Versioning" xlink:title="Metamodel::Versioning">
<ellipse fill="none" stroke="#6666ff" cx="1122.01" cy="-563.7" rx="100.98" ry="18"/>
<text text-anchor="middle" x="1122.01" y="-560" font-family="FreeSans" font-size="14.00" fill="#6666ff">Metamodel::Versioning</text>
</a>
</g>
</g>
<!-- Metamodel::Stashing -->
<g id="node7" class="node">
<title>Metamodel::Stashing</title>
<g id="a_node7"><a xlink:href="/type/Metamodel::Stashing" xlink:title="Metamodel::Stashing">
<ellipse fill="none" stroke="#6666ff" cx="1068.9" cy="-352.15" rx="93.68" ry="18"/>
<text text-anchor="middle" x="1068.9" y="-348.45" font-family="FreeSans" font-size="14.00" fill="#6666ff">Metamodel::Stashing</text>
</a>
</g>
</g>
<!-- Metamodel::AttributeContainer -->
<g id="node8" class="node">
<title>Metamodel::AttributeContainer</title>
<g id="a_node8"><a xlink:href="/type/Metamodel::AttributeContainer" xlink:title="Metamodel::AttributeContainer">
<ellipse fill="none" stroke="#6666ff" cx="1098.72" cy="-1279.33" rx="129.98" ry="18"/>
<text text-anchor="middle" x="1098.72" y="-1275.63" font-family="FreeSans" font-size="14.00" fill="#6666ff">Metamodel::AttributeContainer</text>
</a>
</g>
</g>
<!-- Metamodel::Finalization -->
<g id="node9" class="node">
<title>Metamodel::Finalization</title>
<g id="a_node9"><a xlink:href="/type/Metamodel::Finalization" xlink:title="Metamodel::Finalization">
<ellipse fill="none" stroke="#6666ff" cx="135.93" cy="-502.44" rx="103.98" ry="18"/>
<text text-anchor="middle" x="135.93" y="-498.74" font-family="FreeSans" font-size="14.00" fill="#6666ff">Metamodel::Finalization</text>
</a>
</g>
</g>
<!-- Metamodel::MethodContainer -->
<g id="node10" class="node">
<title>Metamodel::MethodContainer</title>
<g id="a_node10"><a xlink:href="/type/Metamodel::MethodContainer" xlink:title="Metamodel::MethodContainer">
<ellipse fill="none" stroke="#6666ff" cx="1216.91" cy="-751.51" rx="127.28" ry="18"/>
<text text-anchor="middle" x="1216.91" y="-747.81" font-family="FreeSans" font-size="14.00" fill="#6666ff">Metamodel::MethodContainer</text>
</a>
</g>
</g>
<!-- Metamodel::PrivateMethodContainer -->
<g id="node11" class="node">
<title>Metamodel::PrivateMethodContainer</title>
<g id="a_node11"><a xlink:href="/type/Metamodel::PrivateMethodContainer" xlink:title="Metamodel::PrivateMethodContainer">
<ellipse fill="none" stroke="#6666ff" cx="940.54" cy="-1132.16" rx="154.87" ry="18"/>
<text text-anchor="middle" x="940.54" y="-1128.46" font-family="FreeSans" font-size="14.00" fill="#6666ff">Metamodel::PrivateMethodContainer</text>
</a>
</g>
</g>
<!-- Metamodel::MultiMethodContainer -->
<g id="node12" class="node">
<title>Metamodel::MultiMethodContainer</title>
<g id="a_node12"><a xlink:href="/type/Metamodel::MultiMethodContainer" xlink:title="Metamodel::MultiMethodContainer">
<ellipse fill="none" stroke="#6666ff" cx="814.47" cy="-1237.03" rx="146.47" ry="18"/>
<text text-anchor="middle" x="814.47" y="-1233.33" font-family="FreeSans" font-size="14.00" fill="#6666ff">Metamodel::MultiMethodContainer</text>
</a>
</g>
</g>
<!-- Metamodel::RoleContainer -->
<g id="node13" class="node">
<title>Metamodel::RoleContainer</title>
<g id="a_node13"><a xlink:href="/type/Metamodel::RoleContainer" xlink:title="Metamodel::RoleContainer">
<ellipse fill="none" stroke="#6666ff" cx="959.06" cy="-1345.19" rx="115.88" ry="18"/>
<text text-anchor="middle" x="959.06" y="-1341.49" font-family="FreeSans" font-size="14.00" fill="#6666ff">Metamodel::RoleContainer</text>
</a>
</g>
</g>
<!-- Metamodel::DefaultParent -->
<g id="node14" class="node">
<title>Metamodel::DefaultParent</title>
<g id="a_node14"><a xlink:href="/type/Metamodel::DefaultParent" xlink:title="Metamodel::DefaultParent">
<ellipse fill="none" stroke="#6666ff" cx="430.3" cy="-1343.37" rx="113.18" ry="18"/>
<text text-anchor="middle" x="430.3" y="-1339.67" font-family="FreeSans" font-size="14.00" fill="#6666ff">Metamodel::DefaultParent</text>
</a>
</g>
</g>
<!-- Metamodel::C3MRO -->
<g id="node15" class="node">
<title>Metamodel::C3MRO</title>
<g id="a_node15"><a xlink:href="/type/Metamodel::C3MRO" xlink:title="Metamodel::C3MRO">
<ellipse fill="none" stroke="#6666ff" cx="391.32" cy="-375.42" rx="92.08" ry="18"/>
<text text-anchor="middle" x="391.32" y="-371.72" font-family="FreeSans" font-size="14.00" fill="#6666ff">Metamodel::C3MRO</text>
</a>
</g>
</g>
<!-- Metamodel::MROBasedMethodDispatch -->
<g id="node16" class="node">
<title>Metamodel::MROBasedMethodDispatch</title>
<g id="a_node16"><a xlink:href="/type/Metamodel::MROBasedMethodDispatch" xlink:title="Metamodel::MROBasedMethodDispatch">
<ellipse fill="none" stroke="#6666ff" cx="545.11" cy="-146.74" rx="169.77" ry="18"/>
<text text-anchor="middle" x="545.11" y="-143.04" font-family="FreeSans" font-size="14.00" fill="#6666ff">Metamodel::MROBasedMethodDispatch</text>
</a>
</g>
</g>
<!-- Metamodel::MROBasedTypeChecking -->
<g id="node17" class="node">
<title>Metamodel::MROBasedTypeChecking</title>
<g id="a_node17"><a xlink:href="/type/Metamodel::MROBasedTypeChecking" xlink:title="Metamodel::MROBasedTypeChecking">
<ellipse fill="none" stroke="#6666ff" cx="392.72" cy="-216.58" rx="163.27" ry="18"/>
<text text-anchor="middle" x="392.72" y="-212.88" font-family="FreeSans" font-size="14.00" fill="#6666ff">Metamodel::MROBasedTypeChecking</text>
</a>
</g>
</g>
<!-- Metamodel::Trusting -->
<g id="node18" class="node">
<title>Metamodel::Trusting</title>
<g id="a_node18"><a xlink:href="/type/Metamodel::Trusting" xlink:title="Metamodel::Trusting">
<ellipse fill="none" stroke="#6666ff" cx="177.66" cy="-1061.78" rx="91.78" ry="18"/>
<text text-anchor="middle" x="177.66" y="-1058.08" font-family="FreeSans" font-size="14.00" fill="#6666ff">Metamodel::Trusting</text>
</a>
</g>
</g>
<!-- Metamodel::BUILDPLAN -->
<g id="node19" class="node">
<title>Metamodel::BUILDPLAN</title>
<g id="a_node19"><a xlink:href="/type/Metamodel::BUILDPLAN" xlink:title="Metamodel::BUILDPLAN">
<ellipse fill="none" stroke="#6666ff" cx="109.84" cy="-698.09" rx="109.68" ry="18"/>
<text text-anchor="middle" x="109.84" y="-694.39" font-family="FreeSans" font-size="14.00" fill="#6666ff">Metamodel::BUILDPLAN</text>
</a>
</g>
</g>
<!-- Metamodel::Mixins -->
<g id="node20" class="node">
<title>Metamodel::Mixins</title>
<g id="a_node20"><a xlink:href="/type/Metamodel::Mixins" xlink:title="Metamodel::Mixins">
<ellipse fill="none" stroke="#6666ff" cx="113.39" cy="-885.97" rx="85.29" ry="18"/>
<text text-anchor="middle" x="113.39" y="-882.27" font-family="FreeSans" font-size="14.00" fill="#6666ff">Metamodel::Mixins</text>
</a>
</g>
</g>
<!-- Metamodel::BoolificationProtocol -->
<g id="node21" class="node">
<title>Metamodel::BoolificationProtocol</title>
<g id="a_node21"><a xlink:href="/type/Metamodel::BoolificationProtocol" xlink:title="Metamodel::BoolificationProtocol">
<ellipse fill="none" stroke="#6666ff" cx="286.33" cy="-1213.75" rx="139.18" ry="18"/>
<text text-anchor="middle" x="286.33" y="-1210.05" font-family="FreeSans" font-size="14.00" fill="#6666ff">Metamodel::BoolificationProtocol</text>
</a>
</g>
</g>
<!-- Metamodel::ClassHOW -->
<g id="node22" class="node">
<title>Metamodel::ClassHOW</title>
<g id="a_node22"><a xlink:href="/type/Metamodel::ClassHOW" xlink:title="Metamodel::ClassHOW">
<ellipse fill="none" stroke="#000000" cx="632.11" cy="-780.89" rx="103.18" ry="18"/>
<text text-anchor="middle" x="632.11" y="-777.19" font-family="FreeSans" font-size="14.00" fill="#000000">Metamodel::ClassHOW</text>
</a>
</g>
</g>
<!-- Metamodel::ClassHOW&#45;&gt;Metamodel::MultipleInheritance -->
<g id="edge16" class="edge">
<title>Metamodel::ClassHOW&#45;&gt;Metamodel::MultipleInheritance</title>
<path fill="none" stroke="#6666ff" d="M709.27,-792.96C747.82,-798.98 794.88,-806.34 835.9,-812.75"/>
<polygon fill="#6666ff" stroke="#6666ff" points="835.49,-816.23 845.91,-814.32 836.57,-809.32 835.49,-816.23"/>
</g>
<!-- Metamodel::ClassHOW&#45;&gt;Any -->
<g id="edge2" class="edge">
<title>Metamodel::ClassHOW&#45;&gt;Any</title>
<path fill="none" stroke="#000000" d="M662.84,-763.66C754.51,-712.28 1019.67,-563.65 1019.67,-563.65 1019.67,-563.65 1049.83,-549.81 1049.83,-549.81 1049.83,-549.81 1183.62,-495.85 1247.32,-470.16"/>
<polygon fill="#000000" stroke="#000000" points="1248.94,-473.28 1256.91,-466.3 1246.32,-466.79 1248.94,-473.28"/>
</g>
<!-- Metamodel::ClassHOW&#45;&gt;Metamodel::Naming -->
<g id="edge6" class="edge">
<title>Metamodel::ClassHOW&#45;&gt;Metamodel::Naming</title>
<path fill="none" stroke="#6666ff" d="M681.66,-765.04C744.87,-744.82 853.95,-709.93 920.66,-688.59"/>
<polygon fill="#6666ff" stroke="#6666ff" points="921.73,-691.93 930.19,-685.55 919.6,-685.26 921.73,-691.93"/>
</g>
<!-- Metamodel::ClassHOW&#45;&gt;Metamodel::Documenting -->
<g id="edge7" class="edge">
<title>Metamodel::ClassHOW&#45;&gt;Metamodel::Documenting</title>
<path fill="none" stroke="#6666ff" d="M643.14,-762.93C676.37,-708.83 775.66,-547.19 815.34,-482.6"/>
<polygon fill="#6666ff" stroke="#6666ff" points="818.5,-484.15 820.75,-473.79 812.53,-480.48 818.5,-484.15"/>
</g>
<!-- Metamodel::ClassHOW&#45;&gt;Metamodel::Versioning -->
<g id="edge8" class="edge">
<title>Metamodel::ClassHOW&#45;&gt;Metamodel::Versioning</title>
<path fill="none" stroke="#6666ff" d="M670.14,-764.03C758.69,-724.77 978.43,-627.36 1075.1,-584.5"/>
<polygon fill="#6666ff" stroke="#6666ff" points="1076.61,-587.66 1084.34,-580.4 1073.78,-581.26 1076.61,-587.66"/>
</g>
<!-- Metamodel::ClassHOW&#45;&gt;Metamodel::Stashing -->
<g id="edge9" class="edge">
<title>Metamodel::ClassHOW&#45;&gt;Metamodel::Stashing</title>
<path fill="none" stroke="#6666ff" d="M650.32,-763.01C719.14,-695.46 963.48,-455.62 1043.4,-377.18"/>
<polygon fill="#6666ff" stroke="#6666ff" points="1045.92,-379.6 1050.61,-370.1 1041.02,-374.61 1045.92,-379.6"/>
</g>
<!-- Metamodel::ClassHOW&#45;&gt;Metamodel::AttributeContainer -->
<g id="edge10" class="edge">
<title>Metamodel::ClassHOW&#45;&gt;Metamodel::AttributeContainer</title>
<path fill="none" stroke="#6666ff" d="M655.47,-798.55C749.71,-869.79 1096.82,-1132.2 1096.82,-1132.2 1096.82,-1132.2 1097.81,-1208.52 1098.36,-1251.22"/>
<polygon fill="#6666ff" stroke="#6666ff" points="1094.86,-1251.34 1098.49,-1261.29 1101.86,-1251.25 1094.86,-1251.34"/>
</g>
<!-- Metamodel::ClassHOW&#45;&gt;Metamodel::Finalization -->
<g id="edge11" class="edge">
<title>Metamodel::ClassHOW&#45;&gt;Metamodel::Finalization</title>
<path fill="none" stroke="#6666ff" d="M601.44,-763.68C515.38,-715.38 271.59,-578.57 175.53,-524.66"/>
<polygon fill="#6666ff" stroke="#6666ff" points="177.14,-521.55 166.71,-519.71 173.72,-527.65 177.14,-521.55"/>
</g>
<!-- Metamodel::ClassHOW&#45;&gt;Metamodel::MethodContainer -->
<g id="edge12" class="edge">
<title>Metamodel::ClassHOW&#45;&gt;Metamodel::MethodContainer</title>
<path fill="none" stroke="#6666ff" d="M731.64,-775.89C829.48,-770.98 979.32,-763.45 1086.6,-758.06"/>
<polygon fill="#6666ff" stroke="#6666ff" points="1087.04,-761.54 1096.85,-757.55 1086.69,-754.55 1087.04,-761.54"/>
</g>
<!-- Metamodel::ClassHOW&#45;&gt;Metamodel::PrivateMethodContainer -->
<g id="edge13" class="edge">
<title>Metamodel::ClassHOW&#45;&gt;Metamodel::PrivateMethodContainer</title>
<path fill="none" stroke="#6666ff" d="M647.83,-798.79C698.55,-856.56 858.05,-1038.21 917.71,-1106.17"/>
<polygon fill="#6666ff" stroke="#6666ff" points="915.25,-1108.67 924.48,-1113.87 920.51,-1104.05 915.25,-1108.67"/>
</g>
<!-- Metamodel::ClassHOW&#45;&gt;Metamodel::MultiMethodContainer -->
<g id="edge14" class="edge">
<title>Metamodel::ClassHOW&#45;&gt;Metamodel::MultiMethodContainer</title>
<path fill="none" stroke="#6666ff" d="M639.37,-799.05C667.51,-869.43 769.46,-1124.44 803.4,-1209.33"/>
<polygon fill="#6666ff" stroke="#6666ff" points="800.23,-1210.83 807.19,-1218.81 806.72,-1208.23 800.23,-1210.83"/>
</g>
<!-- Metamodel::ClassHOW&#45;&gt;Metamodel::RoleContainer -->
<g id="edge15" class="edge">
<title>Metamodel::ClassHOW&#45;&gt;Metamodel::RoleContainer</title>
<path fill="none" stroke="#6666ff" d="M640.07,-799.28C671.38,-871.55 784.25,-1132.12 784.25,-1132.12 784.25,-1132.12 962.31,-1237.04 962.31,-1237.04 962.31,-1237.04 960.88,-1284.63 959.91,-1316.67"/>
<polygon fill="#6666ff" stroke="#6666ff" points="956.41,-1316.75 959.61,-1326.85 963.41,-1316.96 956.41,-1316.75"/>
</g>
<!-- Metamodel::ClassHOW&#45;&gt;Metamodel::DefaultParent -->
<g id="edge17" class="edge">
<title>Metamodel::ClassHOW&#45;&gt;Metamodel::DefaultParent</title>
<path fill="none" stroke="#6666ff" d="M625.62,-798.97C596.27,-880.79 475.75,-1216.7 440.21,-1315.75"/>
<polygon fill="#6666ff" stroke="#6666ff" points="436.85,-1314.76 436.76,-1325.36 443.44,-1317.13 436.85,-1314.76"/>
</g>
<!-- Metamodel::ClassHOW&#45;&gt;Metamodel::C3MRO -->
<g id="edge18" class="edge">
<title>Metamodel::ClassHOW&#45;&gt;Metamodel::C3MRO</title>
<path fill="none" stroke="#6666ff" d="M621.45,-762.95C583.23,-698.59 452.9,-479.12 407.26,-402.27"/>
<polygon fill="#6666ff" stroke="#6666ff" points="410.24,-400.43 402.13,-393.62 404.22,-404.01 410.24,-400.43"/>
</g>
<!-- Metamodel::ClassHOW&#45;&gt;Metamodel::MROBasedMethodDispatch -->
<g id="edge19" class="edge">
<title>Metamodel::ClassHOW&#45;&gt;Metamodel::MROBasedMethodDispatch</title>
<path fill="none" stroke="#6666ff" d="M629.71,-762.76C616.93,-666.19 557.45,-216.7 557.45,-216.7 557.45,-216.7 553.49,-194.27 550.06,-174.82"/>
<polygon fill="#6666ff" stroke="#6666ff" points="553.47,-174 548.29,-164.76 546.58,-175.22 553.47,-174"/>
</g>
<!-- Metamodel::ClassHOW&#45;&gt;Metamodel::MROBasedTypeChecking -->
<g id="edge20" class="edge">
<title>Metamodel::ClassHOW&#45;&gt;Metamodel::MROBasedTypeChecking</title>
<path fill="none" stroke="#6666ff" d="M625.51,-762.69C596.93,-683.82 485.21,-375.57 485.21,-375.57 485.21,-375.57 434.81,-288.93 408.41,-243.57"/>
<polygon fill="#6666ff" stroke="#6666ff" points="411.38,-241.71 403.33,-234.82 405.33,-245.23 411.38,-241.71"/>
</g>
<!-- Metamodel::ClassHOW&#45;&gt;Metamodel::Trusting -->
<g id="edge21" class="edge">
<title>Metamodel::ClassHOW&#45;&gt;Metamodel::Trusting</title>
<path fill="none" stroke="#6666ff" d="M604.02,-798.25C525.26,-846.93 302.28,-984.76 214.15,-1039.23"/>
<polygon fill="#6666ff" stroke="#6666ff" points="212.22,-1036.3 205.56,-1044.54 215.9,-1042.26 212.22,-1036.3"/>
</g>
<!-- Metamodel::ClassHOW&#45;&gt;Metamodel::BUILDPLAN -->
<g id="edge22" class="edge">
<title>Metamodel::ClassHOW&#45;&gt;Metamodel::BUILDPLAN</title>
<path fill="none" stroke="#6666ff" d="M555.61,-768.76C460.83,-753.74 299.62,-728.18 199.24,-712.26"/>
<polygon fill="#6666ff" stroke="#6666ff" points="199.54,-708.77 189.12,-710.66 198.44,-715.68 199.54,-708.77"/>
</g>
<!-- Metamodel::ClassHOW&#45;&gt;Metamodel::Mixins -->
<g id="edge23" class="edge">
<title>Metamodel::ClassHOW&#45;&gt;Metamodel::Mixins</title>
<path fill="none" stroke="#6666ff" d="M564.56,-794.57C466.55,-814.43 285.67,-851.07 185.28,-871.41"/>
<polygon fill="#6666ff" stroke="#6666ff" points="184.33,-868.03 175.23,-873.44 185.72,-874.89 184.33,-868.03"/>
</g>
<!-- Metamodel::ClassHOW&#45;&gt;Metamodel::BoolificationProtocol -->
<g id="edge24" class="edge">
<title>Metamodel::ClassHOW&#45;&gt;Metamodel::BoolificationProtocol</title>
<path fill="none" stroke="#6666ff" d="M617.69,-798.94C563.43,-866.87 371.34,-1107.34 307.29,-1187.52"/>
<polygon fill="#6666ff" stroke="#6666ff" points="304.31,-1185.63 300.81,-1195.63 309.78,-1190 304.31,-1185.63"/>
</g>
<!-- Metamodel::TypePretense -->
<g id="node23" class="node">
<title>Metamodel::TypePretense</title>
<g id="a_node23"><a xlink:href="/type/Metamodel::TypePretense" xlink:title="Metamodel::TypePretense">
<ellipse fill="none" stroke="#6666ff" cx="1802.4" cy="-1239.89" rx="114.28" ry="18"/>
<text text-anchor="middle" x="1802.4" y="-1236.19" font-family="FreeSans" font-size="14.00" fill="#6666ff">Metamodel::TypePretense</text>
</a>
</g>
</g>
<!-- Metamodel::RolePunning -->
<g id="node24" class="node">
<title>Metamodel::RolePunning</title>
<g id="a_node24"><a xlink:href="/type/Metamodel::RolePunning" xlink:title="Metamodel::RolePunning">
<ellipse fill="none" stroke="#6666ff" cx="1910.26" cy="-824.11" rx="109.68" ry="18"/>
<text text-anchor="middle" x="1910.26" y="-820.41" font-family="FreeSans" font-size="14.00" fill="#6666ff">Metamodel::RolePunning</text>
</a>
</g>
</g>
<!-- Metamodel::ParametricRoleHOW -->
<g id="node25" class="node">
<title>Metamodel::ParametricRoleHOW</title>
<g id="a_node25"><a xlink:href="/type/Metamodel::ParametricRoleHOW" xlink:title="Metamodel::ParametricRoleHOW">
<ellipse fill="none" stroke="#000000" cx="1370.31" cy="-905.03" rx="141.88" ry="18"/>
<text text-anchor="middle" x="1370.31" y="-901.33" font-family="FreeSans" font-size="14.00" fill="#000000">Metamodel::ParametricRoleHOW</text>
</a>
</g>
</g>
<!-- Metamodel::ParametricRoleHOW&#45;&gt;Metamodel::MultipleInheritance -->
<g id="edge33" class="edge">
<title>Metamodel::ParametricRoleHOW&#45;&gt;Metamodel::MultipleInheritance</title>
<path fill="none" stroke="#6666ff" d="M1287.33,-890.4C1212.46,-877.2 1102.5,-857.81 1025.03,-844.15"/>
<polygon fill="#6666ff" stroke="#6666ff" points="1025.25,-840.64 1014.79,-842.35 1024.03,-847.53 1025.25,-840.64"/>
</g>
<!-- Metamodel::ParametricRoleHOW&#45;&gt;Any -->
<g id="edge3" class="edge">
<title>Metamodel::ParametricRoleHOW&#45;&gt;Any</title>
<path fill="none" stroke="#000000" d="M1367.42,-886.83C1360.95,-846.19 1345.9,-751.61 1345.9,-751.61 1345.9,-751.61 1302.86,-558.34 1286.49,-484.81"/>
<polygon fill="#000000" stroke="#000000" points="1289.87,-483.87 1284.28,-474.87 1283.03,-485.39 1289.87,-483.87"/>
</g>
<!-- Metamodel::ParametricRoleHOW&#45;&gt;Metamodel::Naming -->
<g id="edge25" class="edge">
<title>Metamodel::ParametricRoleHOW&#45;&gt;Metamodel::Naming</title>
<path fill="none" stroke="#6666ff" d="M1337.92,-887.41C1263.75,-847.06 1087.93,-751.41 1087.93,-751.41 1087.93,-751.41 1042.38,-717.79 1009.92,-693.83"/>
<polygon fill="#6666ff" stroke="#6666ff" points="1011.69,-690.79 1001.57,-687.67 1007.54,-696.42 1011.69,-690.79"/>
</g>
<!-- Metamodel::ParametricRoleHOW&#45;&gt;Metamodel::Documenting -->
<g id="edge26" class="edge">
<title>Metamodel::ParametricRoleHOW&#45;&gt;Metamodel::Documenting</title>
<path fill="none" stroke="#6666ff" d="M1337.92,-887.41C1263.75,-847.06 1087.93,-751.41 1087.93,-751.41 1087.93,-751.41 1069.93,-670.31 1069.93,-670.31 1069.93,-670.31 921.98,-536.74 859.41,-480.25"/>
<polygon fill="#6666ff" stroke="#6666ff" points="861.64,-477.54 851.87,-473.44 856.94,-482.74 861.64,-477.54"/>
</g>
<!-- Metamodel::ParametricRoleHOW&#45;&gt;Metamodel::Versioning -->
<g id="edge27" class="edge">
<title>Metamodel::ParametricRoleHOW&#45;&gt;Metamodel::Versioning</title>
<path fill="none" stroke="#6666ff" d="M1367.42,-886.83C1360.95,-846.19 1345.9,-751.61 1345.9,-751.61 1345.9,-751.61 1211.18,-638.54 1150.74,-587.82"/>
<polygon fill="#6666ff" stroke="#6666ff" points="1152.98,-585.13 1143.07,-581.38 1148.48,-590.49 1152.98,-585.13"/>
</g>
<!-- Metamodel::ParametricRoleHOW&#45;&gt;Metamodel::Stashing -->
<g id="edge34" class="edge">
<title>Metamodel::ParametricRoleHOW&#45;&gt;Metamodel::Stashing</title>
<path fill="none" stroke="#6666ff" d="M1367.42,-886.83C1360.95,-846.19 1345.9,-751.61 1345.9,-751.61 1345.9,-751.61 1224.35,-563.75 1224.35,-563.75 1224.35,-563.75 1129.71,-434.93 1088.12,-378.31"/>
<polygon fill="#6666ff" stroke="#6666ff" points="1090.89,-376.17 1082.15,-370.19 1085.25,-380.32 1090.89,-376.17"/>
</g>
<!-- Metamodel::ParametricRoleHOW&#45;&gt;Metamodel::AttributeContainer -->
<g id="edge31" class="edge">
<title>Metamodel::ParametricRoleHOW&#45;&gt;Metamodel::AttributeContainer</title>
<path fill="none" stroke="#6666ff" d="M1351.48,-922.99C1307.79,-964.66 1203.28,-1064.34 1203.28,-1064.34 1203.28,-1064.34 1140.11,-1194.23 1111.97,-1252.09"/>
<polygon fill="#6666ff" stroke="#6666ff" points="1108.68,-1250.85 1107.45,-1261.37 1114.98,-1253.91 1108.68,-1250.85"/>
</g>
<!-- Metamodel::ParametricRoleHOW&#45;&gt;Metamodel::MethodContainer -->
<g id="edge28" class="edge">
<title>Metamodel::ParametricRoleHOW&#45;&gt;Metamodel::MethodContainer</title>
<path fill="none" stroke="#6666ff" d="M1352.42,-887.12C1325.31,-859.99 1273.73,-808.37 1242.61,-777.23"/>
<polygon fill="#6666ff" stroke="#6666ff" points="1244.72,-774.39 1235.17,-769.79 1239.76,-779.33 1244.72,-774.39"/>
</g>
<!-- Metamodel::ParametricRoleHOW&#45;&gt;Metamodel::PrivateMethodContainer -->
<g id="edge29" class="edge">
<title>Metamodel::ParametricRoleHOW&#45;&gt;Metamodel::PrivateMethodContainer</title>
<path fill="none" stroke="#6666ff" d="M1336.95,-922.66C1259.59,-963.54 1068.14,-1064.73 982.78,-1109.84"/>
<polygon fill="#6666ff" stroke="#6666ff" points="981.09,-1106.77 973.88,-1114.54 984.36,-1112.96 981.09,-1106.77"/>
</g>
<!-- Metamodel::ParametricRoleHOW&#45;&gt;Metamodel::MultiMethodContainer -->
<g id="edge30" class="edge">
<title>Metamodel::ParametricRoleHOW&#45;&gt;Metamodel::MultiMethodContainer</title>
<path fill="none" stroke="#6666ff" d="M1348.85,-922.85C1284.38,-976.41 1096.82,-1132.2 1096.82,-1132.2 1096.82,-1132.2 952.83,-1185.66 870.5,-1216.23"/>
<polygon fill="#6666ff" stroke="#6666ff" points="868.93,-1213.07 860.78,-1219.83 871.37,-1219.63 868.93,-1213.07"/>
</g>
<!-- Metamodel::ParametricRoleHOW&#45;&gt;Metamodel::RoleContainer -->
<g id="edge32" class="edge">
<title>Metamodel::ParametricRoleHOW&#45;&gt;Metamodel::RoleContainer</title>
<path fill="none" stroke="#6666ff" d="M1350.87,-923.08C1270.33,-997.82 967.13,-1279.21 967.13,-1279.21 967.13,-1279.21 964.7,-1299.06 962.51,-1316.99"/>
<polygon fill="#6666ff" stroke="#6666ff" points="959.01,-1316.81 961.27,-1327.16 965.95,-1317.66 959.01,-1316.81"/>
</g>
<!-- Metamodel::ParametricRoleHOW&#45;&gt;Metamodel::TypePretense -->
<g id="edge35" class="edge">
<title>Metamodel::ParametricRoleHOW&#45;&gt;Metamodel::TypePretense</title>
<path fill="none" stroke="#6666ff" d="M1393.24,-922.79C1465.6,-978.87 1689.22,-1152.18 1771.56,-1215.98"/>
<polygon fill="#6666ff" stroke="#6666ff" points="1769.48,-1218.8 1779.53,-1222.16 1773.77,-1213.27 1769.48,-1218.8"/>
</g>
<!-- Metamodel::ParametricRoleHOW&#45;&gt;Metamodel::RolePunning -->
<g id="edge36" class="edge">
<title>Metamodel::ParametricRoleHOW&#45;&gt;Metamodel::RolePunning</title>
<path fill="none" stroke="#6666ff" d="M1462.21,-891.26C1561.75,-876.34 1719.58,-852.68 1818.91,-837.8"/>
<polygon fill="#6666ff" stroke="#6666ff" points="1819.56,-841.24 1828.93,-836.3 1818.52,-834.32 1819.56,-841.24"/>
</g>
<!-- Metamodel::NativeHOW -->
<g id="node26" class="node">
<title>Metamodel::NativeHOW</title>
<g id="a_node26"><a xlink:href="/type/Metamodel::NativeHOW" xlink:title="Metamodel::NativeHOW">
<ellipse fill="none" stroke="#000000" cx="901.98" cy="-116.77" rx="106.68" ry="18"/>
<text text-anchor="middle" x="901.98" y="-113.07" font-family="FreeSans" font-size="14.00" fill="#000000">Metamodel::NativeHOW</text>
</a>
</g>
</g>
<!-- Metamodel::NativeHOW&#45;&gt;Metamodel::MultipleInheritance -->
<g id="edge41" class="edge">
<title>Metamodel::NativeHOW&#45;&gt;Metamodel::MultipleInheritance</title>
<path fill="none" stroke="#6666ff" d="M904.28,-134.99C913.16,-205.39 944.73,-455.67 944.73,-455.67 944.73,-455.67 886.04,-670.21 886.04,-670.21 886.04,-670.21 911.34,-754.75 924.89,-800.06"/>
<polygon fill="#6666ff" stroke="#6666ff" points="921.61,-801.3 927.83,-809.88 928.32,-799.29 921.61,-801.3"/>
</g>
<!-- Metamodel::NativeHOW&#45;&gt;Any -->
<g id="edge4" class="edge">
<title>Metamodel::NativeHOW&#45;&gt;Any</title>
<path fill="none" stroke="#000000" d="M921.68,-134.47C982.64,-189.23 1164.09,-352.25 1164.09,-352.25 1164.09,-352.25 1222.46,-404.81 1256.45,-435.43"/>
<polygon fill="#000000" stroke="#000000" points="1254.34,-438.24 1264.11,-442.33 1259.03,-433.03 1254.34,-438.24"/>
</g>
<!-- Metamodel::NativeHOW&#45;&gt;Metamodel::Naming -->
<g id="edge37" class="edge">
<title>Metamodel::NativeHOW&#45;&gt;Metamodel::Naming</title>
<path fill="none" stroke="#6666ff" d="M904.47,-134.87C915.55,-215.59 960.52,-543.07 974.09,-641.89"/>
<polygon fill="#6666ff" stroke="#6666ff" points="970.65,-642.59 975.48,-652.02 977.59,-641.63 970.65,-642.59"/>
</g>
<!-- Metamodel::NativeHOW&#45;&gt;Metamodel::Documenting -->
<g id="edge38" class="edge">
<title>Metamodel::NativeHOW&#45;&gt;Metamodel::Documenting</title>
<path fill="none" stroke="#6666ff" d="M898.22,-134.98C886.68,-190.81 851.76,-359.84 837.82,-427.27"/>
<polygon fill="#6666ff" stroke="#6666ff" points="834.37,-426.69 835.77,-437.19 841.22,-428.1 834.37,-426.69"/>
</g>
<!-- Metamodel::NativeHOW&#45;&gt;Metamodel::Versioning -->
<g id="edge39" class="edge">
<title>Metamodel::NativeHOW&#45;&gt;Metamodel::Versioning</title>
<path fill="none" stroke="#6666ff" d="M907.49,-134.84C924.29,-189.93 973.71,-352.04 973.71,-352.04 973.71,-352.04 1063.62,-480.37 1103.43,-537.18"/>
<polygon fill="#6666ff" stroke="#6666ff" points="1100.76,-539.47 1109.37,-545.66 1106.49,-535.46 1100.76,-539.47"/>
</g>
<!-- Metamodel::NativeHOW&#45;&gt;Metamodel::Stashing -->
<g id="edge40" class="edge">
<title>Metamodel::NativeHOW&#45;&gt;Metamodel::Stashing</title>
<path fill="none" stroke="#6666ff" d="M914.8,-134.85C944.05,-176.1 1015.82,-277.3 1050.09,-325.62"/>
<polygon fill="#6666ff" stroke="#6666ff" points="1047.39,-327.87 1056.03,-334.01 1053.1,-323.82 1047.39,-327.87"/>
</g>
<!-- Metamodel::NativeHOW&#45;&gt;Metamodel::C3MRO -->
<g id="edge42" class="edge">
<title>Metamodel::NativeHOW&#45;&gt;Metamodel::C3MRO</title>
<path fill="none" stroke="#6666ff" d="M868.08,-133.94C777.98,-179.58 532.72,-303.8 433.66,-353.98"/>
<polygon fill="#6666ff" stroke="#6666ff" points="431.88,-350.96 424.54,-358.6 435.05,-357.2 431.88,-350.96"/>
</g>
<!-- Metamodel::NativeHOW&#45;&gt;Metamodel::MROBasedMethodDispatch -->
<g id="edge43" class="edge">
<title>Metamodel::NativeHOW&#45;&gt;Metamodel::MROBasedMethodDispatch</title>
<path fill="none" stroke="#6666ff" d="M806.35,-124.8C770.09,-127.85 727.97,-131.39 688.28,-134.72"/>
<polygon fill="#6666ff" stroke="#6666ff" points="687.91,-131.24 678.24,-135.56 688.5,-138.21 687.91,-131.24"/>
</g>
<!-- Metamodel::NativeHOW&#45;&gt;Metamodel::MROBasedTypeChecking -->
<g id="edge44" class="edge">
<title>Metamodel::NativeHOW&#45;&gt;Metamodel::MROBasedTypeChecking</title>
<path fill="none" stroke="#6666ff" d="M832.24,-130.44C741.51,-148.22 582.83,-179.32 483,-198.89"/>
<polygon fill="#6666ff" stroke="#6666ff" points="482.07,-195.5 472.93,-200.86 483.41,-202.37 482.07,-195.5"/>
</g>
<!-- Metamodel::ConcreteRoleHOW -->
<g id="node27" class="node">
<title>Metamodel::ConcreteRoleHOW</title>
<g id="a_node27"><a xlink:href="/type/Metamodel::ConcreteRoleHOW" xlink:title="Metamodel::ConcreteRoleHOW">
<ellipse fill="none" stroke="#000000" cx="1340.07" cy="-1064.39" rx="135.38" ry="18"/>
<text text-anchor="middle" x="1340.07" y="-1060.69" font-family="FreeSans" font-size="14.00" fill="#000000">Metamodel::ConcreteRoleHOW</text>
</a>
</g>
</g>
<!-- Metamodel::ConcreteRoleHOW&#45;&gt;Metamodel::MultipleInheritance -->
<g id="edge52" class="edge">
<title>Metamodel::ConcreteRoleHOW&#45;&gt;Metamodel::MultipleInheritance</title>
<path fill="none" stroke="#6666ff" d="M1309.82,-1046.81C1237.3,-1004.67 1053.55,-897.88 972.58,-850.83"/>
<polygon fill="#6666ff" stroke="#6666ff" points="974.1,-847.66 963.69,-845.67 970.58,-853.72 974.1,-847.66"/>
</g>
<!-- Metamodel::ConcreteRoleHOW&#45;&gt;Any -->
<g id="edge5" class="edge">
<title>Metamodel::ConcreteRoleHOW&#45;&gt;Any</title>
<path fill="none" stroke="#000000" d="M1327.32,-1046.41C1297.76,-1004.73 1227.03,-905.01 1227.03,-905.01 1227.03,-905.01 1345.9,-751.61 1345.9,-751.61 1345.9,-751.61 1302.86,-558.34 1286.49,-484.81"/>
<polygon fill="#000000" stroke="#000000" points="1289.87,-483.87 1284.28,-474.87 1283.03,-485.39 1289.87,-483.87"/>
</g>
<!-- Metamodel::ConcreteRoleHOW&#45;&gt;Metamodel::Naming -->
<g id="edge45" class="edge">
<title>Metamodel::ConcreteRoleHOW&#45;&gt;Metamodel::Naming</title>
<path fill="none" stroke="#6666ff" d="M1323.57,-1046.43C1265.37,-983.08 1069.51,-769.89 1001.49,-695.85"/>
<polygon fill="#6666ff" stroke="#6666ff" points="1003.92,-693.32 994.58,-688.32 998.77,-698.06 1003.92,-693.32"/>
</g>
<!-- Metamodel::ConcreteRoleHOW&#45;&gt;Metamodel::Versioning -->
<g id="edge46" class="edge">
<title>Metamodel::ConcreteRoleHOW&#45;&gt;Metamodel::Versioning</title>
<path fill="none" stroke="#6666ff" d="M1325.42,-1046.21C1271.61,-979.41 1087.93,-751.41 1087.93,-751.41 1087.93,-751.41 1107.43,-643.99 1116.93,-591.68"/>
<polygon fill="#6666ff" stroke="#6666ff" points="1120.4,-592.17 1118.74,-581.7 1113.51,-590.91 1120.4,-592.17"/>
</g>
<!-- Metamodel::ConcreteRoleHOW&#45;&gt;Metamodel::AttributeContainer -->
<g id="edge50" class="edge">
<title>Metamodel::ConcreteRoleHOW&#45;&gt;Metamodel::AttributeContainer</title>
<path fill="none" stroke="#6666ff" d="M1319.9,-1082.34C1276.87,-1120.67 1175.95,-1210.55 1126.72,-1254.4"/>
<polygon fill="#6666ff" stroke="#6666ff" points="1124.13,-1252.01 1118.99,-1261.28 1128.79,-1257.24 1124.13,-1252.01"/>
</g>
<!-- Metamodel::ConcreteRoleHOW&#45;&gt;Metamodel::MethodContainer -->
<g id="edge48" class="edge">
<title>Metamodel::ConcreteRoleHOW&#45;&gt;Metamodel::MethodContainer</title>
<path fill="none" stroke="#6666ff" d="M1327.32,-1046.41C1297.76,-1004.73 1227.03,-905.01 1227.03,-905.01 1227.03,-905.01 1221.71,-824.25 1218.78,-779.89"/>
<polygon fill="#6666ff" stroke="#6666ff" points="1222.26,-779.47 1218.11,-769.72 1215.28,-779.93 1222.26,-779.47"/>
</g>
<!-- Metamodel::ConcreteRoleHOW&#45;&gt;Metamodel::PrivateMethodContainer -->
<g id="edge47" class="edge">
<title>Metamodel::ConcreteRoleHOW&#45;&gt;Metamodel::PrivateMethodContainer</title>
<path fill="none" stroke="#6666ff" d="M1256.31,-1078.6C1192.76,-1089.38 1105.23,-1104.22 1038.45,-1115.55"/>
<polygon fill="#6666ff" stroke="#6666ff" points="1037.61,-1112.14 1028.33,-1117.27 1038.78,-1119.05 1037.61,-1112.14"/>
</g>
<!-- Metamodel::ConcreteRoleHOW&#45;&gt;Metamodel::MultiMethodContainer -->
<g id="edge49" class="edge">
<title>Metamodel::ConcreteRoleHOW&#45;&gt;Metamodel::MultiMethodContainer</title>
<path fill="none" stroke="#6666ff" d="M1289.19,-1081.1C1192.11,-1112.99 980.76,-1182.41 875.95,-1216.83"/>
<polygon fill="#6666ff" stroke="#6666ff" points="874.56,-1213.61 866.15,-1220.05 876.74,-1220.26 874.56,-1213.61"/>
</g>
<!-- Metamodel::ConcreteRoleHOW&#45;&gt;Metamodel::RoleContainer -->
<g id="edge51" class="edge">
<title>Metamodel::ConcreteRoleHOW&#45;&gt;Metamodel::RoleContainer</title>
<path fill="none" stroke="#6666ff" d="M1309.55,-1081.97C1220.48,-1133.27 967.13,-1279.21 967.13,-1279.21 967.13,-1279.21 964.7,-1299.06 962.51,-1316.99"/>
<polygon fill="#6666ff" stroke="#6666ff" points="959.01,-1316.81 961.27,-1327.16 965.95,-1317.66 959.01,-1316.81"/>
</g>
</g>
</svg>
