<?xml version="1.0" encoding="UTF-8" standalone="no"?>
<!DOCTYPE svg PUBLIC "-//W3C//DTD SVG 1.1//EN"
 "http://www.w3.org/Graphics/SVG/1.1/DTD/svg11.dtd">
<!-- Generated by graphviz version 2.43.0 (0)
 -->
<!-- Title: raku&#45;type&#45;graph Pages: 1 -->
<svg width="1610pt" height="1852pt"
 viewBox="0.00 0.00 1609.66 1852.00" xmlns="http://www.w3.org/2000/svg" xmlns:xlink="http://www.w3.org/1999/xlink">
<g id="graph0" class="graph" transform="scale(1 1) rotate(0) translate(4 1848)">
<title>raku&#45;type&#45;graph</title>
<polygon fill="#ffffff" stroke="transparent" points="-4,4 -4,-1848 1605.66,-1848 1605.66,4 -4,4"/>
<!-- Metamodel::Documenting -->
<g id="node1" class="node">
<title>Metamodel::Documenting</title>
<g id="a_node1"><a xlink:href="/type/Metamodel::Documenting" xlink:title="Metamodel::Documenting">
<ellipse fill="none" stroke="#6666ff" cx="965.35" cy="-901.88" rx="111.28" ry="18"/>
<text text-anchor="middle" x="965.35" y="-898.18" font-family="FreeSans" font-size="14.00" fill="#6666ff">Metamodel::Documenting</text>
</a>
</g>
</g>
<!-- Mu -->
<g id="node2" class="node">
<title>Mu</title>
<g id="a_node2"><a xlink:href="/type/Mu" xlink:title="Mu">
<ellipse fill="none" stroke="#000000" cx="1482.99" cy="-607.33" rx="27" ry="18"/>
<text text-anchor="middle" x="1482.99" y="-603.63" font-family="FreeSans" font-size="14.00" fill="#000000">Mu</text>
</a>
</g>
</g>
<!-- Any -->
<g id="node3" class="node">
<title>Any</title>
<g id="a_node3"><a xlink:href="/type/Any" xlink:title="Any">
<ellipse fill="none" stroke="#000000" cx="1057.15" cy="-857.87" rx="27" ry="18"/>
<text text-anchor="middle" x="1057.15" y="-854.17" font-family="FreeSans" font-size="14.00" fill="#000000">Any</text>
</a>
</g>
</g>
<!-- Any&#45;&gt;Mu -->
<g id="edge1" class="edge">
<title>Any&#45;&gt;Mu</title>
<path fill="none" stroke="#000000" d="M1077.4,-845.96C1146.48,-805.32 1372.99,-672.05 1453.92,-624.44"/>
<polygon fill="#000000" stroke="#000000" points="1455.77,-627.41 1462.61,-619.32 1452.22,-621.38 1455.77,-627.41"/>
</g>
<!-- Metamodel::Naming -->
<g id="node4" class="node">
<title>Metamodel::Naming</title>
<g id="a_node4"><a xlink:href="/type/Metamodel::Naming" xlink:title="Metamodel::Naming">
<ellipse fill="none" stroke="#6666ff" cx="849.01" cy="-810.63" rx="90.18" ry="18"/>
<text text-anchor="middle" x="849.01" y="-806.93" font-family="FreeSans" font-size="14.00" fill="#6666ff">Metamodel::Naming</text>
</a>
</g>
</g>
<!-- Metamodel::Stashing -->
<g id="node5" class="node">
<title>Metamodel::Stashing</title>
<g id="a_node5"><a xlink:href="/type/Metamodel::Stashing" xlink:title="Metamodel::Stashing">
<ellipse fill="none" stroke="#6666ff" cx="596.09" cy="-728.61" rx="93.68" ry="18"/>
<text text-anchor="middle" x="596.09" y="-724.91" font-family="FreeSans" font-size="14.00" fill="#6666ff">Metamodel::Stashing</text>
</a>
</g>
</g>
<!-- Metamodel::TypePretense -->
<g id="node6" class="node">
<title>Metamodel::TypePretense</title>
<g id="a_node6"><a xlink:href="/type/Metamodel::TypePretense" xlink:title="Metamodel::TypePretense">
<ellipse fill="none" stroke="#6666ff" cx="555.74" cy="-295.85" rx="114.28" ry="18"/>
<text text-anchor="middle" x="555.74" y="-292.15" font-family="FreeSans" font-size="14.00" fill="#6666ff">Metamodel::TypePretense</text>
</a>
</g>
</g>
<!-- Metamodel::MethodDelegation -->
<g id="node7" class="node">
<title>Metamodel::MethodDelegation</title>
<g id="a_node7"><a xlink:href="/type/Metamodel::MethodDelegation" xlink:title="Metamodel::MethodDelegation">
<ellipse fill="none" stroke="#6666ff" cx="988.4" cy="-18" rx="131.08" ry="18"/>
<text text-anchor="middle" x="988.4" y="-14.3" font-family="FreeSans" font-size="14.00" fill="#6666ff">Metamodel::MethodDelegation</text>
</a>
</g>
</g>
<!-- Metamodel::PackageHOW -->
<g id="node8" class="node">
<title>Metamodel::PackageHOW</title>
<g id="a_node8"><a xlink:href="/type/Metamodel::PackageHOW" xlink:title="Metamodel::PackageHOW">
<ellipse fill="none" stroke="#000000" cx="1021.86" cy="-423.53" rx="116.18" ry="18"/>
<text text-anchor="middle" x="1021.86" y="-419.83" font-family="FreeSans" font-size="14.00" fill="#000000">Metamodel::PackageHOW</text>
</a>
</g>
</g>
<!-- Metamodel::PackageHOW&#45;&gt;Metamodel::Documenting -->
<g id="edge10" class="edge">
<title>Metamodel::PackageHOW&#45;&gt;Metamodel::Documenting</title>
<path fill="none" stroke="#6666ff" d="M1019.71,-441.7C1011.12,-514.44 979.16,-784.98 968.69,-873.58"/>
<polygon fill="#6666ff" stroke="#6666ff" points="965.19,-873.35 967.5,-883.69 972.14,-874.17 965.19,-873.35"/>
</g>
<!-- Metamodel::PackageHOW&#45;&gt;Any -->
<g id="edge2" class="edge">
<title>Metamodel::PackageHOW&#45;&gt;Any</title>
<path fill="none" stroke="#000000" d="M1023.33,-441.64C1028.82,-509.25 1048.16,-747.2 1054.85,-829.56"/>
<polygon fill="#000000" stroke="#000000" points="1051.37,-830 1055.67,-839.69 1058.35,-829.44 1051.37,-830"/>
</g>
<!-- Metamodel::PackageHOW&#45;&gt;Metamodel::Naming -->
<g id="edge9" class="edge">
<title>Metamodel::PackageHOW&#45;&gt;Metamodel::Naming</title>
<path fill="none" stroke="#6666ff" d="M1013.75,-441.68C985.97,-503.91 894.45,-708.87 861.21,-783.3"/>
<polygon fill="#6666ff" stroke="#6666ff" points="857.98,-781.96 857.09,-792.51 864.37,-784.81 857.98,-781.96"/>
</g>
<!-- Metamodel::PackageHOW&#45;&gt;Metamodel::Stashing -->
<g id="edge11" class="edge">
<title>Metamodel::PackageHOW&#45;&gt;Metamodel::Stashing</title>
<path fill="none" stroke="#6666ff" d="M997.13,-441.25C924.35,-493.4 710.91,-646.34 628.8,-705.17"/>
<polygon fill="#6666ff" stroke="#6666ff" points="626.45,-702.55 620.36,-711.22 630.53,-708.24 626.45,-702.55"/>
</g>
<!-- Metamodel::PackageHOW&#45;&gt;Metamodel::TypePretense -->
<g id="edge12" class="edge">
<title>Metamodel::PackageHOW&#45;&gt;Metamodel::TypePretense</title>
<path fill="none" stroke="#6666ff" d="M964.24,-407.75C877.63,-384.03 714.32,-339.29 622.6,-314.17"/>
<polygon fill="#6666ff" stroke="#6666ff" points="623.43,-310.77 612.86,-311.5 621.58,-317.52 623.43,-310.77"/>
</g>
<!-- Metamodel::PackageHOW&#45;&gt;Metamodel::MethodDelegation -->
<g id="edge13" class="edge">
<title>Metamodel::PackageHOW&#45;&gt;Metamodel::MethodDelegation</title>
<path fill="none" stroke="#6666ff" d="M1020.36,-405.32C1015.05,-341 997.16,-124.16 990.73,-46.21"/>
<polygon fill="#6666ff" stroke="#6666ff" points="994.21,-45.84 989.9,-36.16 987.23,-46.42 994.21,-45.84"/>
</g>
<!-- Metamodel::Versioning -->
<g id="node9" class="node">
<title>Metamodel::Versioning</title>
<g id="a_node9"><a xlink:href="/type/Metamodel::Versioning" xlink:title="Metamodel::Versioning">
<ellipse fill="none" stroke="#6666ff" cx="378.59" cy="-842.92" rx="100.98" ry="18"/>
<text text-anchor="middle" x="378.59" y="-839.22" font-family="FreeSans" font-size="14.00" fill="#6666ff">Metamodel::Versioning</text>
</a>
</g>
</g>
<!-- Metamodel::AttributeContainer -->
<g id="node10" class="node">
<title>Metamodel::AttributeContainer</title>
<g id="a_node10"><a xlink:href="/type/Metamodel::AttributeContainer" xlink:title="Metamodel::AttributeContainer">
<ellipse fill="none" stroke="#6666ff" cx="200.45" cy="-961.91" rx="129.98" ry="18"/>
<text text-anchor="middle" x="200.45" y="-958.21" font-family="FreeSans" font-size="14.00" fill="#6666ff">Metamodel::AttributeContainer</text>
</a>
</g>
</g>
<!-- Metamodel::Finalization -->
<g id="node11" class="node">
<title>Metamodel::Finalization</title>
<g id="a_node11"><a xlink:href="/type/Metamodel::Finalization" xlink:title="Metamodel::Finalization">
<ellipse fill="none" stroke="#6666ff" cx="103.99" cy="-1404.34" rx="103.98" ry="18"/>
<text text-anchor="middle" x="103.99" y="-1400.64" font-family="FreeSans" font-size="14.00" fill="#6666ff">Metamodel::Finalization</text>
</a>
</g>
</g>
<!-- Metamodel::MethodContainer -->
<g id="node12" class="node">
<title>Metamodel::MethodContainer</title>
<g id="a_node12"><a xlink:href="/type/Metamodel::MethodContainer" xlink:title="Metamodel::MethodContainer">
<ellipse fill="none" stroke="#6666ff" cx="156.56" cy="-1090.54" rx="127.28" ry="18"/>
<text text-anchor="middle" x="156.56" y="-1086.84" font-family="FreeSans" font-size="14.00" fill="#6666ff">Metamodel::MethodContainer</text>
</a>
</g>
</g>
<!-- Metamodel::PrivateMethodContainer -->
<g id="node13" class="node">
<title>Metamodel::PrivateMethodContainer</title>
<g id="a_node13"><a xlink:href="/type/Metamodel::PrivateMethodContainer" xlink:title="Metamodel::PrivateMethodContainer">
<ellipse fill="none" stroke="#6666ff" cx="964.16" cy="-1293.47" rx="154.87" ry="18"/>
<text text-anchor="middle" x="964.16" y="-1289.77" font-family="FreeSans" font-size="14.00" fill="#6666ff">Metamodel::PrivateMethodContainer</text>
</a>
</g>
</g>
<!-- Metamodel::MultiMethodContainer -->
<g id="node14" class="node">
<title>Metamodel::MultiMethodContainer</title>
<g id="a_node14"><a xlink:href="/type/Metamodel::MultiMethodContainer" xlink:title="Metamodel::MultiMethodContainer">
<ellipse fill="none" stroke="#6666ff" cx="762.48" cy="-1340.39" rx="146.47" ry="18"/>
<text text-anchor="middle" x="762.48" y="-1336.69" font-family="FreeSans" font-size="14.00" fill="#6666ff">Metamodel::MultiMethodContainer</text>
</a>
</g>
</g>
<!-- Metamodel::RoleContainer -->
<g id="node15" class="node">
<title>Metamodel::RoleContainer</title>
<g id="a_node15"><a xlink:href="/type/Metamodel::RoleContainer" xlink:title="Metamodel::RoleContainer">
<ellipse fill="none" stroke="#6666ff" cx="266.15" cy="-1167.03" rx="115.88" ry="18"/>
<text text-anchor="middle" x="266.15" y="-1163.33" font-family="FreeSans" font-size="14.00" fill="#6666ff">Metamodel::RoleContainer</text>
</a>
</g>
</g>
<!-- Metamodel::MultipleInheritance -->
<g id="node16" class="node">
<title>Metamodel::MultipleInheritance</title>
<g id="a_node16"><a xlink:href="/type/Metamodel::MultipleInheritance" xlink:title="Metamodel::MultipleInheritance">
<ellipse fill="none" stroke="#6666ff" cx="1013.44" cy="-1171.24" rx="133.78" ry="18"/>
<text text-anchor="middle" x="1013.44" y="-1167.54" font-family="FreeSans" font-size="14.00" fill="#6666ff">Metamodel::MultipleInheritance</text>
</a>
</g>
</g>
<!-- Metamodel::DefaultParent -->
<g id="node17" class="node">
<title>Metamodel::DefaultParent</title>
<g id="a_node17"><a xlink:href="/type/Metamodel::DefaultParent" xlink:title="Metamodel::DefaultParent">
<ellipse fill="none" stroke="#6666ff" cx="1142.87" cy="-1563.11" rx="113.18" ry="18"/>
<text text-anchor="middle" x="1142.87" y="-1559.41" font-family="FreeSans" font-size="14.00" fill="#6666ff">Metamodel::DefaultParent</text>
</a>
</g>
</g>
<!-- Metamodel::C3MRO -->
<g id="node18" class="node">
<title>Metamodel::C3MRO</title>
<g id="a_node18"><a xlink:href="/type/Metamodel::C3MRO" xlink:title="Metamodel::C3MRO">
<ellipse fill="none" stroke="#6666ff" cx="850.33" cy="-1623.15" rx="92.08" ry="18"/>
<text text-anchor="middle" x="850.33" y="-1619.45" font-family="FreeSans" font-size="14.00" fill="#6666ff">Metamodel::C3MRO</text>
</a>
</g>
</g>
<!-- Metamodel::MROBasedMethodDispatch -->
<g id="node19" class="node">
<title>Metamodel::MROBasedMethodDispatch</title>
<g id="a_node19"><a xlink:href="/type/Metamodel::MROBasedMethodDispatch" xlink:title="Metamodel::MROBasedMethodDispatch">
<ellipse fill="none" stroke="#6666ff" cx="378.49" cy="-1491.05" rx="169.77" ry="18"/>
<text text-anchor="middle" x="378.49" y="-1487.35" font-family="FreeSans" font-size="14.00" fill="#6666ff">Metamodel::MROBasedMethodDispatch</text>
</a>
</g>
</g>
<!-- Metamodel::MROBasedTypeChecking -->
<g id="node20" class="node">
<title>Metamodel::MROBasedTypeChecking</title>
<g id="a_node20"><a xlink:href="/type/Metamodel::MROBasedTypeChecking" xlink:title="Metamodel::MROBasedTypeChecking">
<ellipse fill="none" stroke="#6666ff" cx="586.83" cy="-1633.03" rx="163.27" ry="18"/>
<text text-anchor="middle" x="586.83" y="-1629.33" font-family="FreeSans" font-size="14.00" fill="#6666ff">Metamodel::MROBasedTypeChecking</text>
</a>
</g>
</g>
<!-- Metamodel::Trusting -->
<g id="node21" class="node">
<title>Metamodel::Trusting</title>
<g id="a_node21"><a xlink:href="/type/Metamodel::Trusting" xlink:title="Metamodel::Trusting">
<ellipse fill="none" stroke="#6666ff" cx="413.56" cy="-1767.25" rx="91.78" ry="18"/>
<text text-anchor="middle" x="413.56" y="-1763.55" font-family="FreeSans" font-size="14.00" fill="#6666ff">Metamodel::Trusting</text>
</a>
</g>
</g>
<!-- Metamodel::BUILDPLAN -->
<g id="node22" class="node">
<title>Metamodel::BUILDPLAN</title>
<g id="a_node22"><a xlink:href="/type/Metamodel::BUILDPLAN" xlink:title="Metamodel::BUILDPLAN">
<ellipse fill="none" stroke="#6666ff" cx="206.56" cy="-1602.44" rx="109.68" ry="18"/>
<text text-anchor="middle" x="206.56" y="-1598.74" font-family="FreeSans" font-size="14.00" fill="#6666ff">Metamodel::BUILDPLAN</text>
</a>
</g>
</g>
<!-- Metamodel::Mixins -->
<g id="node23" class="node">
<title>Metamodel::Mixins</title>
<g id="a_node23"><a xlink:href="/type/Metamodel::Mixins" xlink:title="Metamodel::Mixins">
<ellipse fill="none" stroke="#6666ff" cx="710.01" cy="-1826" rx="85.29" ry="18"/>
<text text-anchor="middle" x="710.01" y="-1822.3" font-family="FreeSans" font-size="14.00" fill="#6666ff">Metamodel::Mixins</text>
</a>
</g>
</g>
<!-- Metamodel::BoolificationProtocol -->
<g id="node24" class="node">
<title>Metamodel::BoolificationProtocol</title>
<g id="a_node24"><a xlink:href="/type/Metamodel::BoolificationProtocol" xlink:title="Metamodel::BoolificationProtocol">
<ellipse fill="none" stroke="#6666ff" cx="995.14" cy="-1727.52" rx="139.18" ry="18"/>
<text text-anchor="middle" x="995.14" y="-1723.82" font-family="FreeSans" font-size="14.00" fill="#6666ff">Metamodel::BoolificationProtocol</text>
</a>
</g>
</g>
<!-- Metamodel::ClassHOW -->
<g id="node25" class="node">
<title>Metamodel::ClassHOW</title>
<g id="a_node25"><a xlink:href="/type/Metamodel::ClassHOW" xlink:title="Metamodel::ClassHOW">
<ellipse fill="none" stroke="#000000" cx="617.73" cy="-1268.43" rx="103.18" ry="18"/>
<text text-anchor="middle" x="617.73" y="-1264.73" font-family="FreeSans" font-size="14.00" fill="#000000">Metamodel::ClassHOW</text>
</a>
</g>
</g>
<!-- Metamodel::ClassHOW&#45;&gt;Metamodel::Documenting -->
<g id="edge15" class="edge">
<title>Metamodel::ClassHOW&#45;&gt;Metamodel::Documenting</title>
<path fill="none" stroke="#6666ff" d="M648.78,-1251.16C713.94,-1214.9 858.99,-1134.2 858.99,-1134.2 858.99,-1134.2 924.71,-990.64 952.83,-929.23"/>
<polygon fill="#6666ff" stroke="#6666ff" points="956.02,-930.66 957,-920.11 949.66,-927.74 956.02,-930.66"/>
</g>
<!-- Metamodel::ClassHOW&#45;&gt;Any -->
<g id="edge3" class="edge">
<title>Metamodel::ClassHOW&#45;&gt;Any</title>
<path fill="none" stroke="#000000" d="M648.78,-1251.16C713.94,-1214.9 858.99,-1134.2 858.99,-1134.2 858.99,-1134.2 1078.09,-901.99 1078.09,-901.99 1078.09,-901.99 1074.12,-893.64 1069.64,-884.2"/>
<polygon fill="#000000" stroke="#000000" points="1072.75,-882.59 1065.3,-875.06 1066.43,-885.59 1072.75,-882.59"/>
</g>
<!-- Metamodel::ClassHOW&#45;&gt;Metamodel::Naming -->
<g id="edge14" class="edge">
<title>Metamodel::ClassHOW&#45;&gt;Metamodel::Naming</title>
<path fill="none" stroke="#6666ff" d="M621.09,-1250.29C627.88,-1213.58 642.61,-1133.94 642.61,-1133.94 642.61,-1133.94 782.09,-915.46 831.73,-837.7"/>
<polygon fill="#6666ff" stroke="#6666ff" points="834.89,-839.25 837.32,-828.94 828.99,-835.48 834.89,-839.25"/>
</g>
<!-- Metamodel::ClassHOW&#45;&gt;Metamodel::Stashing -->
<g id="edge17" class="edge">
<title>Metamodel::ClassHOW&#45;&gt;Metamodel::Stashing</title>
<path fill="none" stroke="#6666ff" d="M611.8,-1250.44C586.13,-1172.52 485.77,-867.95 485.77,-867.95 485.77,-867.95 543.58,-794.93 575.51,-754.61"/>
<polygon fill="#6666ff" stroke="#6666ff" points="578.43,-756.55 581.9,-746.54 572.94,-752.21 578.43,-756.55"/>
</g>
<!-- Metamodel::ClassHOW&#45;&gt;Metamodel::Versioning -->
<g id="edge16" class="edge">
<title>Metamodel::ClassHOW&#45;&gt;Metamodel::Versioning</title>
<path fill="none" stroke="#6666ff" d="M607.61,-1250.42C570.11,-1183.69 438.93,-950.29 393.91,-870.17"/>
<polygon fill="#6666ff" stroke="#6666ff" points="396.8,-868.18 388.85,-861.18 390.7,-871.61 396.8,-868.18"/>
</g>
<!-- Metamodel::ClassHOW&#45;&gt;Metamodel::AttributeContainer -->
<g id="edge18" class="edge">
<title>Metamodel::ClassHOW&#45;&gt;Metamodel::AttributeContainer</title>
<path fill="none" stroke="#6666ff" d="M593.8,-1250.85C522.87,-1198.75 313.7,-1045.1 232.86,-985.71"/>
<polygon fill="#6666ff" stroke="#6666ff" points="234.68,-982.71 224.55,-979.61 230.53,-988.35 234.68,-982.71"/>
</g>
<!-- Metamodel::ClassHOW&#45;&gt;Metamodel::Finalization -->
<g id="edge19" class="edge">
<title>Metamodel::ClassHOW&#45;&gt;Metamodel::Finalization</title>
<path fill="none" stroke="#6666ff" d="M560.79,-1283.49C465.22,-1308.78 273.02,-1359.62 171.07,-1386.59"/>
<polygon fill="#6666ff" stroke="#6666ff" points="169.96,-1383.27 161.19,-1389.21 171.75,-1390.03 169.96,-1383.27"/>
</g>
<!-- Metamodel::ClassHOW&#45;&gt;Metamodel::MethodContainer -->
<g id="edge20" class="edge">
<title>Metamodel::ClassHOW&#45;&gt;Metamodel::MethodContainer</title>
<path fill="none" stroke="#6666ff" d="M579.04,-1251.69C512.5,-1222.9 383.44,-1167.07 383.44,-1167.07 383.44,-1167.07 349.25,-1153.2 349.25,-1153.2 349.25,-1153.2 273.54,-1128.58 217.03,-1110.2"/>
<polygon fill="#6666ff" stroke="#6666ff" points="218.03,-1106.85 207.44,-1107.08 215.87,-1113.5 218.03,-1106.85"/>
</g>
<!-- Metamodel::ClassHOW&#45;&gt;Metamodel::PrivateMethodContainer -->
<g id="edge21" class="edge">
<title>Metamodel::ClassHOW&#45;&gt;Metamodel::PrivateMethodContainer</title>
<path fill="none" stroke="#6666ff" d="M713.31,-1275.34C746.99,-1277.77 785.62,-1280.57 822.3,-1283.22"/>
<polygon fill="#6666ff" stroke="#6666ff" points="822.36,-1286.73 832.59,-1283.96 822.86,-1279.75 822.36,-1286.73"/>
</g>
<!-- Metamodel::ClassHOW&#45;&gt;Metamodel::MultiMethodContainer -->
<g id="edge22" class="edge">
<title>Metamodel::ClassHOW&#45;&gt;Metamodel::MultiMethodContainer</title>
<path fill="none" stroke="#6666ff" d="M652.03,-1285.48C671.77,-1295.3 696.78,-1307.73 718.01,-1318.29"/>
<polygon fill="#6666ff" stroke="#6666ff" points="716.65,-1321.52 727.16,-1322.83 719.77,-1315.25 716.65,-1321.52"/>
</g>
<!-- Metamodel::ClassHOW&#45;&gt;Metamodel::RoleContainer -->
<g id="edge23" class="edge">
<title>Metamodel::ClassHOW&#45;&gt;Metamodel::RoleContainer</title>
<path fill="none" stroke="#6666ff" d="M563.95,-1252.92C501.25,-1234.84 397.68,-1204.97 330.69,-1185.65"/>
<polygon fill="#6666ff" stroke="#6666ff" points="331.66,-1182.29 321.08,-1182.88 329.72,-1189.01 331.66,-1182.29"/>
</g>
<!-- Metamodel::ClassHOW&#45;&gt;Metamodel::MultipleInheritance -->
<g id="edge24" class="edge">
<title>Metamodel::ClassHOW&#45;&gt;Metamodel::MultipleInheritance</title>
<path fill="none" stroke="#6666ff" d="M677.83,-1253.67C747.77,-1236.49 863.29,-1208.12 938.89,-1189.55"/>
<polygon fill="#6666ff" stroke="#6666ff" points="939.94,-1192.9 948.82,-1187.11 938.27,-1186.1 939.94,-1192.9"/>
</g>
<!-- Metamodel::ClassHOW&#45;&gt;Metamodel::DefaultParent -->
<g id="edge25" class="edge">
<title>Metamodel::ClassHOW&#45;&gt;Metamodel::DefaultParent</title>
<path fill="none" stroke="#6666ff" d="M679.91,-1282.9C754.03,-1300.15 867.99,-1326.66 867.99,-1326.66 867.99,-1326.66 910.31,-1340.57 910.31,-1340.57 910.31,-1340.57 1056.29,-1480.26 1116.94,-1538.29"/>
<polygon fill="#6666ff" stroke="#6666ff" points="1114.59,-1540.89 1124.23,-1545.27 1119.43,-1535.83 1114.59,-1540.89"/>
</g>
<!-- Metamodel::ClassHOW&#45;&gt;Metamodel::C3MRO -->
<g id="edge26" class="edge">
<title>Metamodel::ClassHOW&#45;&gt;Metamodel::C3MRO</title>
<path fill="none" stroke="#6666ff" d="M616.95,-1286.54C616.04,-1307.81 614.65,-1340.21 614.65,-1340.21 614.65,-1340.21 770.3,-1527.07 828.61,-1597.08"/>
<polygon fill="#6666ff" stroke="#6666ff" points="826.14,-1599.58 835.23,-1605.02 831.52,-1595.1 826.14,-1599.58"/>
</g>
<!-- Metamodel::ClassHOW&#45;&gt;Metamodel::MROBasedMethodDispatch -->
<g id="edge27" class="edge">
<title>Metamodel::ClassHOW&#45;&gt;Metamodel::MROBasedMethodDispatch</title>
<path fill="none" stroke="#6666ff" d="M598.56,-1286.27C556.04,-1325.84 453.75,-1421.01 405.09,-1466.3"/>
<polygon fill="#6666ff" stroke="#6666ff" points="402.69,-1463.74 397.75,-1473.12 407.46,-1468.87 402.69,-1463.74"/>
</g>
<!-- Metamodel::ClassHOW&#45;&gt;Metamodel::MROBasedTypeChecking -->
<g id="edge28" class="edge">
<title>Metamodel::ClassHOW&#45;&gt;Metamodel::MROBasedTypeChecking</title>
<path fill="none" stroke="#6666ff" d="M616.2,-1286.51C611.19,-1345.55 595.31,-1533.01 589.23,-1604.74"/>
<polygon fill="#6666ff" stroke="#6666ff" points="585.73,-1604.58 588.37,-1614.84 592.71,-1605.17 585.73,-1604.58"/>
</g>
<!-- Metamodel::ClassHOW&#45;&gt;Metamodel::Trusting -->
<g id="edge29" class="edge">
<title>Metamodel::ClassHOW&#45;&gt;Metamodel::Trusting</title>
<path fill="none" stroke="#6666ff" d="M612.17,-1286.65C595.92,-1339.83 549.72,-1491.1 549.72,-1491.1 549.72,-1491.1 422.1,-1632.84 422.1,-1632.84 422.1,-1632.84 417.86,-1699.63 415.36,-1739.04"/>
<polygon fill="#6666ff" stroke="#6666ff" points="411.86,-1738.92 414.71,-1749.12 418.84,-1739.37 411.86,-1738.92"/>
</g>
<!-- Metamodel::ClassHOW&#45;&gt;Metamodel::BUILDPLAN -->
<g id="edge30" class="edge">
<title>Metamodel::ClassHOW&#45;&gt;Metamodel::BUILDPLAN</title>
<path fill="none" stroke="#6666ff" d="M585.86,-1285.71C489.42,-1338 207.25,-1490.99 207.25,-1490.99 207.25,-1490.99 206.94,-1540.98 206.74,-1574"/>
<polygon fill="#6666ff" stroke="#6666ff" points="203.24,-1574.01 206.67,-1584.04 210.24,-1574.06 203.24,-1574.01"/>
</g>
<!-- Metamodel::ClassHOW&#45;&gt;Metamodel::Mixins -->
<g id="edge31" class="edge">
<title>Metamodel::ClassHOW&#45;&gt;Metamodel::Mixins</title>
<path fill="none" stroke="#6666ff" d="M616.95,-1286.54C616.04,-1307.81 614.65,-1340.21 614.65,-1340.21 614.65,-1340.21 751.56,-1633.21 751.56,-1633.21 751.56,-1633.21 727.57,-1744.54 716.05,-1798"/>
<polygon fill="#6666ff" stroke="#6666ff" points="712.61,-1797.35 713.92,-1807.87 719.45,-1798.83 712.61,-1797.35"/>
</g>
<!-- Metamodel::ClassHOW&#45;&gt;Metamodel::BoolificationProtocol -->
<g id="edge32" class="edge">
<title>Metamodel::ClassHOW&#45;&gt;Metamodel::BoolificationProtocol</title>
<path fill="none" stroke="#6666ff" d="M616.95,-1286.54C616.04,-1307.81 614.65,-1340.21 614.65,-1340.21 614.65,-1340.21 944.22,-1623.26 944.22,-1623.26 944.22,-1623.26 966.77,-1669.44 981.86,-1700.33"/>
<polygon fill="#6666ff" stroke="#6666ff" points="978.73,-1701.91 986.27,-1709.36 985.02,-1698.84 978.73,-1701.91"/>
</g>
<!-- Metamodel::NativeHOW -->
<g id="node26" class="node">
<title>Metamodel::NativeHOW</title>
<g id="a_node26"><a xlink:href="/type/Metamodel::NativeHOW" xlink:title="Metamodel::NativeHOW">
<ellipse fill="none" stroke="#000000" cx="750.8" cy="-1134.07" rx="106.68" ry="18"/>
<text text-anchor="middle" x="750.8" y="-1130.37" font-family="FreeSans" font-size="14.00" fill="#000000">Metamodel::NativeHOW</text>
</a>
</g>
</g>
<!-- Metamodel::NativeHOW&#45;&gt;Metamodel::Documenting -->
<g id="edge34" class="edge">
<title>Metamodel::NativeHOW&#45;&gt;Metamodel::Documenting</title>
<path fill="none" stroke="#6666ff" d="M767.28,-1116.24C805.11,-1075.29 898.27,-974.47 941.99,-927.16"/>
<polygon fill="#6666ff" stroke="#6666ff" points="944.6,-929.49 948.81,-919.77 939.46,-924.74 944.6,-929.49"/>
</g>
<!-- Metamodel::NativeHOW&#45;&gt;Any -->
<g id="edge4" class="edge">
<title>Metamodel::NativeHOW&#45;&gt;Any</title>
<path fill="none" stroke="#000000" d="M775.67,-1116.44C852.05,-1062.28 1078.09,-901.99 1078.09,-901.99 1078.09,-901.99 1074.12,-893.64 1069.64,-884.2"/>
<polygon fill="#000000" stroke="#000000" points="1072.75,-882.59 1065.3,-875.06 1066.43,-885.59 1072.75,-882.59"/>
</g>
<!-- Metamodel::NativeHOW&#45;&gt;Metamodel::Naming -->
<g id="edge33" class="edge">
<title>Metamodel::NativeHOW&#45;&gt;Metamodel::Naming</title>
<path fill="none" stroke="#6666ff" d="M756.36,-1115.75C772.74,-1061.83 820.85,-903.36 840.5,-838.64"/>
<polygon fill="#6666ff" stroke="#6666ff" points="843.95,-839.33 843.51,-828.74 837.25,-837.29 843.95,-839.33"/>
</g>
<!-- Metamodel::NativeHOW&#45;&gt;Metamodel::Stashing -->
<g id="edge36" class="edge">
<title>Metamodel::NativeHOW&#45;&gt;Metamodel::Stashing</title>
<path fill="none" stroke="#6666ff" d="M752.28,-1115.78C757.15,-1055.68 772.35,-868.04 772.35,-868.04 772.35,-868.04 676.78,-792.44 626.39,-752.57"/>
<polygon fill="#6666ff" stroke="#6666ff" points="628.43,-749.73 618.42,-746.27 624.09,-755.22 628.43,-749.73"/>
</g>
<!-- Metamodel::NativeHOW&#45;&gt;Metamodel::Versioning -->
<g id="edge35" class="edge">
<title>Metamodel::NativeHOW&#45;&gt;Metamodel::Versioning</title>
<path fill="none" stroke="#6666ff" d="M728.08,-1116.29C664.1,-1066.25 482.35,-924.08 409.43,-867.04"/>
<polygon fill="#6666ff" stroke="#6666ff" points="411.53,-864.24 401.49,-860.83 407.21,-869.75 411.53,-864.24"/>
</g>
<!-- Metamodel::NativeHOW&#45;&gt;Metamodel::MultipleInheritance -->
<g id="edge37" class="edge">
<title>Metamodel::NativeHOW&#45;&gt;Metamodel::MultipleInheritance</title>
<path fill="none" stroke="#6666ff" d="M832.82,-1145.68C857.54,-1149.18 884.97,-1153.06 910.85,-1156.72"/>
<polygon fill="#6666ff" stroke="#6666ff" points="910.67,-1160.23 921.06,-1158.17 911.65,-1153.3 910.67,-1160.23"/>
</g>
<!-- Metamodel::NativeHOW&#45;&gt;Metamodel::C3MRO -->
<g id="edge38" class="edge">
<title>Metamodel::NativeHOW&#45;&gt;Metamodel::C3MRO</title>
<path fill="none" stroke="#6666ff" d="M757.35,-1152.34C772.34,-1194.18 807.87,-1293.34 807.87,-1293.34 807.87,-1293.34 910.31,-1340.57 910.31,-1340.57 910.31,-1340.57 871.5,-1523.42 856.31,-1594.95"/>
<polygon fill="#6666ff" stroke="#6666ff" points="852.82,-1594.54 854.17,-1605.04 859.67,-1595.99 852.82,-1594.54"/>
</g>
<!-- Metamodel::NativeHOW&#45;&gt;Metamodel::MROBasedMethodDispatch -->
<g id="edge39" class="edge">
<title>Metamodel::NativeHOW&#45;&gt;Metamodel::MROBasedMethodDispatch</title>
<path fill="none" stroke="#6666ff" d="M720.17,-1151.34C655.89,-1187.57 512.79,-1268.24 512.79,-1268.24 512.79,-1268.24 430.59,-1404.62 394.8,-1463.98"/>
<polygon fill="#6666ff" stroke="#6666ff" points="391.65,-1462.44 389.48,-1472.81 397.64,-1466.05 391.65,-1462.44"/>
</g>
<!-- Metamodel::NativeHOW&#45;&gt;Metamodel::MROBasedTypeChecking -->
<g id="edge40" class="edge">
<title>Metamodel::NativeHOW&#45;&gt;Metamodel::MROBasedTypeChecking</title>
<path fill="none" stroke="#6666ff" d="M747.01,-1152.21C739.33,-1188.94 722.67,-1268.62 722.67,-1268.62 722.67,-1268.62 614.65,-1340.21 614.65,-1340.21 614.65,-1340.21 596.57,-1530.56 589.56,-1604.31"/>
<polygon fill="#6666ff" stroke="#6666ff" points="586.03,-1604.42 588.57,-1614.71 593,-1605.09 586.03,-1604.42"/>
</g>
<!-- Metamodel::DefiniteHOW -->
<g id="node27" class="node">
<title>Metamodel::DefiniteHOW</title>
<g id="a_node27"><a xlink:href="/type/Metamodel::DefiniteHOW" xlink:title="Metamodel::DefiniteHOW">
<ellipse fill="none" stroke="#000000" cx="1490.52" cy="-1021.83" rx="111.28" ry="18"/>
<text text-anchor="middle" x="1490.52" y="-1018.13" font-family="FreeSans" font-size="14.00" fill="#000000">Metamodel::DefiniteHOW</text>
</a>
</g>
</g>
<!-- Metamodel::DefiniteHOW&#45;&gt;Metamodel::Documenting -->
<g id="edge41" class="edge">
<title>Metamodel::DefiniteHOW&#45;&gt;Metamodel::Documenting</title>
<path fill="none" stroke="#6666ff" d="M1426.12,-1007.12C1328.44,-984.81 1143.29,-942.52 1039.91,-918.91"/>
<polygon fill="#6666ff" stroke="#6666ff" points="1040.39,-915.43 1029.86,-916.61 1038.83,-922.25 1040.39,-915.43"/>
</g>
<!-- Metamodel::DefiniteHOW&#45;&gt;Any -->
<g id="edge5" class="edge">
<title>Metamodel::DefiniteHOW&#45;&gt;Any</title>
<path fill="none" stroke="#000000" d="M1446.58,-1005.21C1359.88,-972.4 1168.47,-899.99 1090.85,-870.62"/>
<polygon fill="#000000" stroke="#000000" points="1091.69,-867.2 1081.1,-866.93 1089.21,-873.75 1091.69,-867.2"/>
</g>
<!-- Metamodel::RolePunning -->
<g id="node28" class="node">
<title>Metamodel::RolePunning</title>
<g id="a_node28"><a xlink:href="/type/Metamodel::RolePunning" xlink:title="Metamodel::RolePunning">
<ellipse fill="none" stroke="#6666ff" cx="197.34" cy="-435.42" rx="109.68" ry="18"/>
<text text-anchor="middle" x="197.34" y="-431.72" font-family="FreeSans" font-size="14.00" fill="#6666ff">Metamodel::RolePunning</text>
</a>
</g>
</g>
<!-- Metamodel::ParametricRoleHOW -->
<g id="node29" class="node">
<title>Metamodel::ParametricRoleHOW</title>
<g id="a_node29"><a xlink:href="/type/Metamodel::ParametricRoleHOW" xlink:title="Metamodel::ParametricRoleHOW">
<ellipse fill="none" stroke="#000000" cx="629.06" cy="-867.99" rx="141.88" ry="18"/>
<text text-anchor="middle" x="629.06" y="-864.29" font-family="FreeSans" font-size="14.00" fill="#000000">Metamodel::ParametricRoleHOW</text>
</a>
</g>
</g>
<!-- Metamodel::ParametricRoleHOW&#45;&gt;Metamodel::Documenting -->
<g id="edge43" class="edge">
<title>Metamodel::ParametricRoleHOW&#45;&gt;Metamodel::Documenting</title>
<path fill="none" stroke="#6666ff" d="M740.11,-879.18C778.92,-883.09 822.34,-887.47 860.62,-891.33"/>
<polygon fill="#6666ff" stroke="#6666ff" points="860.45,-894.83 870.75,-892.35 861.15,-887.86 860.45,-894.83"/>
</g>
<!-- Metamodel::ParametricRoleHOW&#45;&gt;Any -->
<g id="edge6" class="edge">
<title>Metamodel::ParametricRoleHOW&#45;&gt;Any</title>
<path fill="none" stroke="#000000" d="M768.64,-864.69C856.89,-862.61 964.43,-860.07 1019.97,-858.75"/>
<polygon fill="#000000" stroke="#000000" points="1020.13,-862.25 1030.04,-858.51 1019.96,-855.25 1020.13,-862.25"/>
</g>
<!-- Metamodel::ParametricRoleHOW&#45;&gt;Metamodel::Naming -->
<g id="edge42" class="edge">
<title>Metamodel::ParametricRoleHOW&#45;&gt;Metamodel::Naming</title>
<path fill="none" stroke="#6666ff" d="M691.21,-851.78C720.31,-844.19 754.96,-835.16 784.37,-827.48"/>
<polygon fill="#6666ff" stroke="#6666ff" points="785.34,-830.85 794.13,-824.94 783.57,-824.08 785.34,-830.85"/>
</g>
<!-- Metamodel::ParametricRoleHOW&#45;&gt;Metamodel::Stashing -->
<g id="edge51" class="edge">
<title>Metamodel::ParametricRoleHOW&#45;&gt;Metamodel::Stashing</title>
<path fill="none" stroke="#6666ff" d="M624.75,-849.77C619.15,-826.08 609.31,-784.47 602.74,-756.72"/>
<polygon fill="#6666ff" stroke="#6666ff" points="606.11,-755.76 600.4,-746.83 599.3,-757.37 606.11,-755.76"/>
</g>
<!-- Metamodel::ParametricRoleHOW&#45;&gt;Metamodel::TypePretense -->
<g id="edge52" class="edge">
<title>Metamodel::ParametricRoleHOW&#45;&gt;Metamodel::TypePretense</title>
<path fill="none" stroke="#6666ff" d="M637.2,-849.78C654.06,-812.01 691.28,-728.66 691.28,-728.66 691.28,-728.66 594.24,-418.8 564.38,-323.44"/>
<polygon fill="#6666ff" stroke="#6666ff" points="567.72,-322.39 561.39,-313.9 561.04,-324.49 567.72,-322.39"/>
</g>
<!-- Metamodel::ParametricRoleHOW&#45;&gt;Metamodel::Versioning -->
<g id="edge44" class="edge">
<title>Metamodel::ParametricRoleHOW&#45;&gt;Metamodel::Versioning</title>
<path fill="none" stroke="#6666ff" d="M517.74,-856.85C504.11,-855.49 490.24,-854.1 476.82,-852.75"/>
<polygon fill="#6666ff" stroke="#6666ff" points="476.94,-849.25 466.64,-851.74 476.25,-856.21 476.94,-849.25"/>
</g>
<!-- Metamodel::ParametricRoleHOW&#45;&gt;Metamodel::AttributeContainer -->
<g id="edge48" class="edge">
<title>Metamodel::ParametricRoleHOW&#45;&gt;Metamodel::AttributeContainer</title>
<path fill="none" stroke="#6666ff" d="M557.8,-883.61C481.22,-900.39 359.77,-927 280.09,-944.46"/>
<polygon fill="#6666ff" stroke="#6666ff" points="279.12,-941.09 270.1,-946.65 280.62,-947.92 279.12,-941.09"/>
</g>
<!-- Metamodel::ParametricRoleHOW&#45;&gt;Metamodel::MethodContainer -->
<g id="edge45" class="edge">
<title>Metamodel::ParametricRoleHOW&#45;&gt;Metamodel::MethodContainer</title>
<path fill="none" stroke="#6666ff" d="M591.98,-885.46C506.59,-925.68 296.21,-1024.76 202.68,-1068.82"/>
<polygon fill="#6666ff" stroke="#6666ff" points="201.02,-1065.73 193.46,-1073.16 204,-1072.06 201.02,-1065.73"/>
</g>
<!-- Metamodel::ParametricRoleHOW&#45;&gt;Metamodel::PrivateMethodContainer -->
<g id="edge46" class="edge">
<title>Metamodel::ParametricRoleHOW&#45;&gt;Metamodel::PrivateMethodContainer</title>
<path fill="none" stroke="#6666ff" d="M644.86,-886.29C696.81,-946.43 858.99,-1134.2 858.99,-1134.2 858.99,-1134.2 877.95,-1171.13 877.95,-1171.13 877.95,-1171.13 920.02,-1230.84 945.39,-1266.83"/>
<polygon fill="#6666ff" stroke="#6666ff" points="942.82,-1269.26 951.44,-1275.42 948.54,-1265.23 942.82,-1269.26"/>
</g>
<!-- Metamodel::ParametricRoleHOW&#45;&gt;Metamodel::MultiMethodContainer -->
<g id="edge47" class="edge">
<title>Metamodel::ParametricRoleHOW&#45;&gt;Metamodel::MultiMethodContainer</title>
<path fill="none" stroke="#6666ff" d="M629.99,-886.27C633.05,-946.36 642.61,-1133.94 642.61,-1133.94 642.61,-1133.94 722.67,-1268.62 722.67,-1268.62 722.67,-1268.62 736.18,-1292.98 747.46,-1313.32"/>
<polygon fill="#6666ff" stroke="#6666ff" points="744.52,-1315.23 752.43,-1322.28 750.64,-1311.84 744.52,-1315.23"/>
</g>
<!-- Metamodel::ParametricRoleHOW&#45;&gt;Metamodel::RoleContainer -->
<g id="edge49" class="edge">
<title>Metamodel::ParametricRoleHOW&#45;&gt;Metamodel::RoleContainer</title>
<path fill="none" stroke="#6666ff" d="M607.45,-885.81C545.42,-936.91 366.77,-1084.12 295.76,-1142.63"/>
<polygon fill="#6666ff" stroke="#6666ff" points="293.14,-1140.26 287.65,-1149.32 297.59,-1145.66 293.14,-1140.26"/>
</g>
<!-- Metamodel::ParametricRoleHOW&#45;&gt;Metamodel::MultipleInheritance -->
<g id="edge50" class="edge">
<title>Metamodel::ParametricRoleHOW&#45;&gt;Metamodel::MultipleInheritance</title>
<path fill="none" stroke="#6666ff" d="M651.67,-885.83C717.22,-937.54 907.42,-1087.6 982.46,-1146.81"/>
<polygon fill="#6666ff" stroke="#6666ff" points="980.6,-1149.79 990.61,-1153.24 984.93,-1144.3 980.6,-1149.79"/>
</g>
<!-- Metamodel::ParametricRoleHOW&#45;&gt;Metamodel::RolePunning -->
<g id="edge53" class="edge">
<title>Metamodel::ParametricRoleHOW&#45;&gt;Metamodel::RolePunning</title>
<path fill="none" stroke="#6666ff" d="M611.06,-849.96C543.04,-781.8 301.53,-539.82 222.55,-460.68"/>
<polygon fill="#6666ff" stroke="#6666ff" points="224.96,-458.14 215.42,-453.54 220.01,-463.09 224.96,-458.14"/>
</g>
<!-- Metamodel::SubsetHOW -->
<g id="node30" class="node">
<title>Metamodel::SubsetHOW</title>
<g id="a_node30"><a xlink:href="/type/Metamodel::SubsetHOW" xlink:title="Metamodel::SubsetHOW">
<ellipse fill="none" stroke="#000000" cx="1365.91" cy="-755.35" rx="108.58" ry="18"/>
<text text-anchor="middle" x="1365.91" y="-751.65" font-family="FreeSans" font-size="14.00" fill="#000000">Metamodel::SubsetHOW</text>
</a>
</g>
</g>
<!-- Metamodel::SubsetHOW&#45;&gt;Metamodel::Documenting -->
<g id="edge55" class="edge">
<title>Metamodel::SubsetHOW&#45;&gt;Metamodel::Documenting</title>
<path fill="none" stroke="#6666ff" d="M1324.57,-772.03C1244.77,-804.22 1077.33,-871.76 1077.33,-871.76 1077.33,-871.76 1057.09,-877.47 1057.09,-877.47 1057.09,-877.47 1046.81,-880.21 1033.12,-883.85"/>
<polygon fill="#6666ff" stroke="#6666ff" points="1031.95,-880.54 1023.19,-886.49 1033.75,-887.3 1031.95,-880.54"/>
</g>
<!-- Metamodel::SubsetHOW&#45;&gt;Any -->
<g id="edge7" class="edge">
<title>Metamodel::SubsetHOW&#45;&gt;Any</title>
<path fill="none" stroke="#000000" d="M1317.33,-771.48C1254.34,-792.4 1146.07,-828.35 1091.18,-846.57"/>
<polygon fill="#000000" stroke="#000000" points="1089.96,-843.29 1081.58,-849.76 1092.17,-849.93 1089.96,-843.29"/>
</g>
<!-- Metamodel::SubsetHOW&#45;&gt;Metamodel::Naming -->
<g id="edge54" class="edge">
<title>Metamodel::SubsetHOW&#45;&gt;Metamodel::Naming</title>
<path fill="none" stroke="#6666ff" d="M1274.69,-765.11C1180.03,-775.23 1032.92,-790.96 938.8,-801.02"/>
<polygon fill="#6666ff" stroke="#6666ff" points="938.3,-797.56 928.73,-802.1 939.04,-804.52 938.3,-797.56"/>
</g>
<!-- Metamodel::ModuleHOW -->
<g id="node31" class="node">
<title>Metamodel::ModuleHOW</title>
<g id="a_node31"><a xlink:href="/type/Metamodel::ModuleHOW" xlink:title="Metamodel::ModuleHOW">
<ellipse fill="none" stroke="#000000" cx="786.97" cy="-454.91" rx="110.48" ry="18"/>
<text text-anchor="middle" x="786.97" y="-451.21" font-family="FreeSans" font-size="14.00" fill="#000000">Metamodel::ModuleHOW</text>
</a>
</g>
</g>
<!-- Metamodel::ModuleHOW&#45;&gt;Metamodel::Documenting -->
<g id="edge57" class="edge">
<title>Metamodel::ModuleHOW&#45;&gt;Metamodel::Documenting</title>
<path fill="none" stroke="#6666ff" d="M794.82,-473.04C826.19,-545.53 940.95,-810.64 940.95,-810.64 940.95,-810.64 950.75,-847.3 957.93,-874.14"/>
<polygon fill="#6666ff" stroke="#6666ff" points="954.56,-875.1 960.53,-883.85 961.32,-873.29 954.56,-875.1"/>
</g>
<!-- Metamodel::ModuleHOW&#45;&gt;Any -->
<g id="edge8" class="edge">
<title>Metamodel::ModuleHOW&#45;&gt;Any</title>
<path fill="none" stroke="#000000" d="M799.1,-473.01C842.52,-537.76 990.2,-758.03 1040.34,-832.8"/>
<polygon fill="#000000" stroke="#000000" points="1037.48,-834.82 1045.96,-841.18 1043.29,-830.92 1037.48,-834.82"/>
</g>
<!-- Metamodel::ModuleHOW&#45;&gt;Metamodel::Naming -->
<g id="edge56" class="edge">
<title>Metamodel::ModuleHOW&#45;&gt;Metamodel::Naming</title>
<path fill="none" stroke="#6666ff" d="M790.13,-473.04C800.25,-531.08 831.91,-712.61 844.13,-782.66"/>
<polygon fill="#6666ff" stroke="#6666ff" points="840.69,-783.28 845.85,-792.53 847.58,-782.08 840.69,-783.28"/>
</g>
<!-- Metamodel::ModuleHOW&#45;&gt;Metamodel::Stashing -->
<g id="edge59" class="edge">
<title>Metamodel::ModuleHOW&#45;&gt;Metamodel::Stashing</title>
<path fill="none" stroke="#6666ff" d="M774.44,-472.87C741.62,-519.94 652.95,-647.08 614.4,-702.35"/>
<polygon fill="#6666ff" stroke="#6666ff" points="611.51,-700.38 608.66,-710.58 617.25,-704.38 611.51,-700.38"/>
</g>
<!-- Metamodel::ModuleHOW&#45;&gt;Metamodel::TypePretense -->
<g id="edge60" class="edge">
<title>Metamodel::ModuleHOW&#45;&gt;Metamodel::TypePretense</title>
<path fill="none" stroke="#6666ff" d="M761.34,-437.28C719.5,-408.5 636.5,-351.41 589.77,-319.26"/>
<polygon fill="#6666ff" stroke="#6666ff" points="591.7,-316.34 581.48,-313.56 587.74,-322.11 591.7,-316.34"/>
</g>
<!-- Metamodel::ModuleHOW&#45;&gt;Metamodel::MethodDelegation -->
<g id="edge61" class="edge">
<title>Metamodel::ModuleHOW&#45;&gt;Metamodel::MethodDelegation</title>
<path fill="none" stroke="#6666ff" d="M795.37,-436.69C826.85,-368.41 937.97,-127.37 975.73,-45.47"/>
<polygon fill="#6666ff" stroke="#6666ff" points="978.96,-46.84 979.97,-36.29 972.6,-43.91 978.96,-46.84"/>
</g>
<!-- Metamodel::ModuleHOW&#45;&gt;Metamodel::Versioning -->
<g id="edge58" class="edge">
<title>Metamodel::ModuleHOW&#45;&gt;Metamodel::Versioning</title>
<path fill="none" stroke="#6666ff" d="M768.09,-472.84C701.97,-535.67 480.72,-745.89 404.59,-818.22"/>
<polygon fill="#6666ff" stroke="#6666ff" points="402.11,-815.75 397.27,-825.18 406.93,-820.82 402.11,-815.75"/>
</g>
</g>
</svg>
