<?xml version="1.0" encoding="UTF-8" standalone="no"?>
<!DOCTYPE svg PUBLIC "-//W3C//DTD SVG 1.1//EN"
 "http://www.w3.org/Graphics/SVG/1.1/DTD/svg11.dtd">
<!-- Generated by graphviz version 2.43.0 (0)
 -->
<!-- Title: raku&#45;type&#45;graph Pages: 1 -->
<svg width="2169pt" height="1560pt"
 viewBox="0.00 0.00 2168.59 1560.35" xmlns="http://www.w3.org/2000/svg" xmlns:xlink="http://www.w3.org/1999/xlink">
<g id="graph0" class="graph" transform="scale(1 1) rotate(0) translate(4 1556.35)">
<title>raku&#45;type&#45;graph</title>
<polygon fill="#ffffff" stroke="transparent" points="-4,4 -4,-1556.35 2164.59,-1556.35 2164.59,4 -4,4"/>
<!-- Metamodel::MultipleInheritance -->
<g id="node1" class="node">
<title>Metamodel::MultipleInheritance</title>
<g id="a_node1"><a xlink:href="/type/Metamodel::MultipleInheritance" xlink:title="Metamodel::MultipleInheritance">
<ellipse fill="none" stroke="#6666ff" cx="799.5" cy="-1272.63" rx="133.78" ry="18"/>
<text text-anchor="middle" x="799.5" y="-1268.93" font-family="FreeSans" font-size="14.00" fill="#6666ff">Metamodel::MultipleInheritance</text>
</a>
</g>
</g>
<!-- Mu -->
<g id="node2" class="node">
<title>Mu</title>
<g id="a_node2"><a xlink:href="/type/Mu" xlink:title="Mu">
<ellipse fill="none" stroke="#000000" cx="1572.89" cy="-18" rx="27" ry="18"/>
<text text-anchor="middle" x="1572.89" y="-14.3" font-family="FreeSans" font-size="14.00" fill="#000000">Mu</text>
</a>
</g>
</g>
<!-- Any -->
<g id="node3" class="node">
<title>Any</title>
<g id="a_node3"><a xlink:href="/type/Any" xlink:title="Any">
<ellipse fill="none" stroke="#000000" cx="1239.8" cy="-520.95" rx="27" ry="18"/>
<text text-anchor="middle" x="1239.8" y="-517.25" font-family="FreeSans" font-size="14.00" fill="#000000">Any</text>
</a>
</g>
</g>
<!-- Any&#45;&gt;Mu -->
<g id="edge1" class="edge">
<title>Any&#45;&gt;Mu</title>
<path fill="none" stroke="#000000" d="M1250.88,-504.22C1299.94,-430.15 1497.7,-131.53 1556.39,-42.91"/>
<polygon fill="#000000" stroke="#000000" points="1559.33,-44.81 1561.93,-34.54 1553.49,-40.95 1559.33,-44.81"/>
</g>
<!-- Metamodel::Naming -->
<g id="node4" class="node">
<title>Metamodel::Naming</title>
<g id="a_node4"><a xlink:href="/type/Metamodel::Naming" xlink:title="Metamodel::Naming">
<ellipse fill="none" stroke="#6666ff" cx="892.95" cy="-1393.27" rx="90.18" ry="18"/>
<text text-anchor="middle" x="892.95" y="-1389.57" font-family="FreeSans" font-size="14.00" fill="#6666ff">Metamodel::Naming</text>
</a>
</g>
</g>
<!-- Metamodel::Documenting -->
<g id="node5" class="node">
<title>Metamodel::Documenting</title>
<g id="a_node5"><a xlink:href="/type/Metamodel::Documenting" xlink:title="Metamodel::Documenting">
<ellipse fill="none" stroke="#6666ff" cx="1068.93" cy="-1297.25" rx="111.28" ry="18"/>
<text text-anchor="middle" x="1068.93" y="-1293.55" font-family="FreeSans" font-size="14.00" fill="#6666ff">Metamodel::Documenting</text>
</a>
</g>
</g>
<!-- Metamodel::Versioning -->
<g id="node6" class="node">
<title>Metamodel::Versioning</title>
<g id="a_node6"><a xlink:href="/type/Metamodel::Versioning" xlink:title="Metamodel::Versioning">
<ellipse fill="none" stroke="#6666ff" cx="955.9" cy="-1149.69" rx="100.98" ry="18"/>
<text text-anchor="middle" x="955.9" y="-1145.99" font-family="FreeSans" font-size="14.00" fill="#6666ff">Metamodel::Versioning</text>
</a>
</g>
</g>
<!-- Metamodel::Stashing -->
<g id="node7" class="node">
<title>Metamodel::Stashing</title>
<g id="a_node7"><a xlink:href="/type/Metamodel::Stashing" xlink:title="Metamodel::Stashing">
<ellipse fill="none" stroke="#6666ff" cx="1042.3" cy="-434.58" rx="93.68" ry="18"/>
<text text-anchor="middle" x="1042.3" y="-430.88" font-family="FreeSans" font-size="14.00" fill="#6666ff">Metamodel::Stashing</text>
</a>
</g>
</g>
<!-- Metamodel::AttributeContainer -->
<g id="node8" class="node">
<title>Metamodel::AttributeContainer</title>
<g id="a_node8"><a xlink:href="/type/Metamodel::AttributeContainer" xlink:title="Metamodel::AttributeContainer">
<ellipse fill="none" stroke="#6666ff" cx="1353.68" cy="-648.15" rx="129.98" ry="18"/>
<text text-anchor="middle" x="1353.68" y="-644.45" font-family="FreeSans" font-size="14.00" fill="#6666ff">Metamodel::AttributeContainer</text>
</a>
</g>
</g>
<!-- Metamodel::Finalization -->
<g id="node9" class="node">
<title>Metamodel::Finalization</title>
<g id="a_node9"><a xlink:href="/type/Metamodel::Finalization" xlink:title="Metamodel::Finalization">
<ellipse fill="none" stroke="#6666ff" cx="293.49" cy="-325.21" rx="103.98" ry="18"/>
<text text-anchor="middle" x="293.49" y="-321.51" font-family="FreeSans" font-size="14.00" fill="#6666ff">Metamodel::Finalization</text>
</a>
</g>
</g>
<!-- Metamodel::MethodContainer -->
<g id="node10" class="node">
<title>Metamodel::MethodContainer</title>
<g id="a_node10"><a xlink:href="/type/Metamodel::MethodContainer" xlink:title="Metamodel::MethodContainer">
<ellipse fill="none" stroke="#6666ff" cx="1180.89" cy="-794.3" rx="127.28" ry="18"/>
<text text-anchor="middle" x="1180.89" y="-790.6" font-family="FreeSans" font-size="14.00" fill="#6666ff">Metamodel::MethodContainer</text>
</a>
</g>
</g>
<!-- Metamodel::PrivateMethodContainer -->
<g id="node11" class="node">
<title>Metamodel::PrivateMethodContainer</title>
<g id="a_node11"><a xlink:href="/type/Metamodel::PrivateMethodContainer" xlink:title="Metamodel::PrivateMethodContainer">
<ellipse fill="none" stroke="#6666ff" cx="1074.09" cy="-961.69" rx="154.87" ry="18"/>
<text text-anchor="middle" x="1074.09" y="-957.99" font-family="FreeSans" font-size="14.00" fill="#6666ff">Metamodel::PrivateMethodContainer</text>
</a>
</g>
</g>
<!-- Metamodel::MultiMethodContainer -->
<g id="node12" class="node">
<title>Metamodel::MultiMethodContainer</title>
<g id="a_node12"><a xlink:href="/type/Metamodel::MultiMethodContainer" xlink:title="Metamodel::MultiMethodContainer">
<ellipse fill="none" stroke="#6666ff" cx="1068.64" cy="-1534.35" rx="146.47" ry="18"/>
<text text-anchor="middle" x="1068.64" y="-1530.65" font-family="FreeSans" font-size="14.00" fill="#6666ff">Metamodel::MultiMethodContainer</text>
</a>
</g>
</g>
<!-- Metamodel::RoleContainer -->
<g id="node13" class="node">
<title>Metamodel::RoleContainer</title>
<g id="a_node13"><a xlink:href="/type/Metamodel::RoleContainer" xlink:title="Metamodel::RoleContainer">
<ellipse fill="none" stroke="#6666ff" cx="1431.99" cy="-782.95" rx="115.88" ry="18"/>
<text text-anchor="middle" x="1431.99" y="-779.25" font-family="FreeSans" font-size="14.00" fill="#6666ff">Metamodel::RoleContainer</text>
</a>
</g>
</g>
<!-- Metamodel::DefaultParent -->
<g id="node14" class="node">
<title>Metamodel::DefaultParent</title>
<g id="a_node14"><a xlink:href="/type/Metamodel::DefaultParent" xlink:title="Metamodel::DefaultParent">
<ellipse fill="none" stroke="#6666ff" cx="375.24" cy="-1459.23" rx="113.18" ry="18"/>
<text text-anchor="middle" x="375.24" y="-1455.53" font-family="FreeSans" font-size="14.00" fill="#6666ff">Metamodel::DefaultParent</text>
</a>
</g>
</g>
<!-- Metamodel::C3MRO -->
<g id="node15" class="node">
<title>Metamodel::C3MRO</title>
<g id="a_node15"><a xlink:href="/type/Metamodel::C3MRO" xlink:title="Metamodel::C3MRO">
<ellipse fill="none" stroke="#6666ff" cx="280.94" cy="-876.57" rx="92.08" ry="18"/>
<text text-anchor="middle" x="280.94" y="-872.87" font-family="FreeSans" font-size="14.00" fill="#6666ff">Metamodel::C3MRO</text>
</a>
</g>
</g>
<!-- Metamodel::MROBasedMethodDispatch -->
<g id="node16" class="node">
<title>Metamodel::MROBasedMethodDispatch</title>
<g id="a_node16"><a xlink:href="/type/Metamodel::MROBasedMethodDispatch" xlink:title="Metamodel::MROBasedMethodDispatch">
<ellipse fill="none" stroke="#6666ff" cx="575.34" cy="-317.04" rx="169.77" ry="18"/>
<text text-anchor="middle" x="575.34" y="-313.34" font-family="FreeSans" font-size="14.00" fill="#6666ff">Metamodel::MROBasedMethodDispatch</text>
</a>
</g>
</g>
<!-- Metamodel::MROBasedTypeChecking -->
<g id="node17" class="node">
<title>Metamodel::MROBasedTypeChecking</title>
<g id="a_node17"><a xlink:href="/type/Metamodel::MROBasedTypeChecking" xlink:title="Metamodel::MROBasedTypeChecking">
<ellipse fill="none" stroke="#6666ff" cx="715.76" cy="-219.89" rx="163.27" ry="18"/>
<text text-anchor="middle" x="715.76" y="-216.19" font-family="FreeSans" font-size="14.00" fill="#6666ff">Metamodel::MROBasedTypeChecking</text>
</a>
</g>
</g>
<!-- Metamodel::Trusting -->
<g id="node18" class="node">
<title>Metamodel::Trusting</title>
<g id="a_node18"><a xlink:href="/type/Metamodel::Trusting" xlink:title="Metamodel::Trusting">
<ellipse fill="none" stroke="#6666ff" cx="99.24" cy="-1068.08" rx="91.78" ry="18"/>
<text text-anchor="middle" x="99.24" y="-1064.38" font-family="FreeSans" font-size="14.00" fill="#6666ff">Metamodel::Trusting</text>
</a>
</g>
</g>
<!-- Metamodel::BUILDPLAN -->
<g id="node19" class="node">
<title>Metamodel::BUILDPLAN</title>
<g id="a_node19"><a xlink:href="/type/Metamodel::BUILDPLAN" xlink:title="Metamodel::BUILDPLAN">
<ellipse fill="none" stroke="#6666ff" cx="201.73" cy="-520.64" rx="109.68" ry="18"/>
<text text-anchor="middle" x="201.73" y="-516.94" font-family="FreeSans" font-size="14.00" fill="#6666ff">Metamodel::BUILDPLAN</text>
</a>
</g>
</g>
<!-- Metamodel::Mixins -->
<g id="node20" class="node">
<title>Metamodel::Mixins</title>
<g id="a_node20"><a xlink:href="/type/Metamodel::Mixins" xlink:title="Metamodel::Mixins">
<ellipse fill="none" stroke="#6666ff" cx="85.14" cy="-740.58" rx="85.29" ry="18"/>
<text text-anchor="middle" x="85.14" y="-736.88" font-family="FreeSans" font-size="14.00" fill="#6666ff">Metamodel::Mixins</text>
</a>
</g>
</g>
<!-- Metamodel::BoolificationProtocol -->
<g id="node21" class="node">
<title>Metamodel::BoolificationProtocol</title>
<g id="a_node21"><a xlink:href="/type/Metamodel::BoolificationProtocol" xlink:title="Metamodel::BoolificationProtocol">
<ellipse fill="none" stroke="#6666ff" cx="223.8" cy="-1283.52" rx="139.18" ry="18"/>
<text text-anchor="middle" x="223.8" y="-1279.82" font-family="FreeSans" font-size="14.00" fill="#6666ff">Metamodel::BoolificationProtocol</text>
</a>
</g>
</g>
<!-- Metamodel::ClassHOW -->
<g id="node22" class="node">
<title>Metamodel::ClassHOW</title>
<g id="a_node22"><a xlink:href="/type/Metamodel::ClassHOW" xlink:title="Metamodel::ClassHOW">
<ellipse fill="none" stroke="#000000" cx="688.95" cy="-857.22" rx="103.18" ry="18"/>
<text text-anchor="middle" x="688.95" y="-853.52" font-family="FreeSans" font-size="14.00" fill="#000000">Metamodel::ClassHOW</text>
</a>
</g>
</g>
<!-- Metamodel::ClassHOW&#45;&gt;Metamodel::MultipleInheritance -->
<g id="edge16" class="edge">
<title>Metamodel::ClassHOW&#45;&gt;Metamodel::MultipleInheritance</title>
<path fill="none" stroke="#6666ff" d="M693.77,-875.33C711.19,-940.79 770.96,-1165.37 792.06,-1244.64"/>
<polygon fill="#6666ff" stroke="#6666ff" points="788.7,-1245.65 794.66,-1254.42 795.47,-1243.85 788.7,-1245.65"/>
</g>
<!-- Metamodel::ClassHOW&#45;&gt;Any -->
<g id="edge2" class="edge">
<title>Metamodel::ClassHOW&#45;&gt;Any</title>
<path fill="none" stroke="#000000" d="M717.4,-839.85C812.07,-782.06 1115.78,-596.66 1210.98,-538.55"/>
<polygon fill="#000000" stroke="#000000" points="1213.07,-541.37 1219.78,-533.17 1209.42,-535.4 1213.07,-541.37"/>
</g>
<!-- Metamodel::ClassHOW&#45;&gt;Metamodel::Naming -->
<g id="edge6" class="edge">
<title>Metamodel::ClassHOW&#45;&gt;Metamodel::Naming</title>
<path fill="none" stroke="#6666ff" d="M699.24,-875.51C735.28,-939.53 853.55,-1149.64 853.55,-1149.64 853.55,-1149.64 934.99,-1272.7 934.99,-1272.7 934.99,-1272.7 915.09,-1329.76 902.68,-1365.38"/>
<polygon fill="#6666ff" stroke="#6666ff" points="899.23,-1364.63 899.24,-1375.22 905.84,-1366.93 899.23,-1364.63"/>
</g>
<!-- Metamodel::ClassHOW&#45;&gt;Metamodel::Documenting -->
<g id="edge7" class="edge">
<title>Metamodel::ClassHOW&#45;&gt;Metamodel::Documenting</title>
<path fill="none" stroke="#6666ff" d="M699.24,-875.51C735.28,-939.53 853.55,-1149.64 853.55,-1149.64 853.55,-1149.64 973.57,-1231.89 1034.42,-1273.6"/>
<polygon fill="#6666ff" stroke="#6666ff" points="1032.72,-1276.67 1042.95,-1279.44 1036.68,-1270.9 1032.72,-1276.67"/>
</g>
<!-- Metamodel::ClassHOW&#45;&gt;Metamodel::Versioning -->
<g id="edge8" class="edge">
<title>Metamodel::ClassHOW&#45;&gt;Metamodel::Versioning</title>
<path fill="none" stroke="#6666ff" d="M705.24,-875.07C750.76,-924.94 879.37,-1065.85 932.49,-1124.05"/>
<polygon fill="#6666ff" stroke="#6666ff" points="930.15,-1126.67 939.47,-1131.7 935.32,-1121.95 930.15,-1126.67"/>
</g>
<!-- Metamodel::ClassHOW&#45;&gt;Metamodel::Stashing -->
<g id="edge9" class="edge">
<title>Metamodel::ClassHOW&#45;&gt;Metamodel::Stashing</title>
<path fill="none" stroke="#6666ff" d="M715.63,-839.77C771.62,-803.14 896.27,-721.62 896.27,-721.62 896.27,-721.62 991.98,-533.49 1028.43,-461.84"/>
<polygon fill="#6666ff" stroke="#6666ff" points="1031.75,-463.04 1033.17,-452.54 1025.52,-459.86 1031.75,-463.04"/>
</g>
<!-- Metamodel::ClassHOW&#45;&gt;Metamodel::AttributeContainer -->
<g id="edge10" class="edge">
<title>Metamodel::ClassHOW&#45;&gt;Metamodel::AttributeContainer</title>
<path fill="none" stroke="#6666ff" d="M739.18,-841.42C858.72,-803.82 1159.84,-709.12 1291,-667.87"/>
<polygon fill="#6666ff" stroke="#6666ff" points="1292.41,-671.09 1300.9,-664.75 1290.31,-664.41 1292.41,-671.09"/>
</g>
<!-- Metamodel::ClassHOW&#45;&gt;Metamodel::Finalization -->
<g id="edge11" class="edge">
<title>Metamodel::ClassHOW&#45;&gt;Metamodel::Finalization</title>
<path fill="none" stroke="#6666ff" d="M675.56,-839.21C616.88,-760.27 382.2,-444.55 312.87,-351.28"/>
<polygon fill="#6666ff" stroke="#6666ff" points="315.64,-349.15 306.87,-343.21 310.02,-353.32 315.64,-349.15"/>
</g>
<!-- Metamodel::ClassHOW&#45;&gt;Metamodel::MethodContainer -->
<g id="edge12" class="edge">
<title>Metamodel::ClassHOW&#45;&gt;Metamodel::MethodContainer</title>
<path fill="none" stroke="#6666ff" d="M772.4,-846.54C856.16,-835.83 985.42,-819.3 1076.05,-807.71"/>
<polygon fill="#6666ff" stroke="#6666ff" points="1076.6,-811.17 1086.08,-806.43 1075.71,-804.22 1076.6,-811.17"/>
</g>
<!-- Metamodel::ClassHOW&#45;&gt;Metamodel::PrivateMethodContainer -->
<g id="edge13" class="edge">
<title>Metamodel::ClassHOW&#45;&gt;Metamodel::PrivateMethodContainer</title>
<path fill="none" stroke="#6666ff" d="M744.95,-872.41C813.24,-890.93 928.72,-922.26 1003.16,-942.45"/>
<polygon fill="#6666ff" stroke="#6666ff" points="1002.36,-945.86 1012.93,-945.1 1004.19,-939.1 1002.36,-945.86"/>
</g>
<!-- Metamodel::ClassHOW&#45;&gt;Metamodel::MultiMethodContainer -->
<g id="edge14" class="edge">
<title>Metamodel::ClassHOW&#45;&gt;Metamodel::MultiMethodContainer</title>
<path fill="none" stroke="#6666ff" d="M699.24,-875.51C735.28,-939.53 853.55,-1149.64 853.55,-1149.64 853.55,-1149.64 934.99,-1272.7 934.99,-1272.7 934.99,-1272.7 1020.63,-1440.36 1054.8,-1507.26"/>
<polygon fill="#6666ff" stroke="#6666ff" points="1051.79,-1509.05 1059.45,-1516.37 1058.02,-1505.87 1051.79,-1509.05"/>
</g>
<!-- Metamodel::ClassHOW&#45;&gt;Metamodel::RoleContainer -->
<g id="edge15" class="edge">
<title>Metamodel::ClassHOW&#45;&gt;Metamodel::RoleContainer</title>
<path fill="none" stroke="#6666ff" d="M782.24,-849.37C946.85,-835.53 1271.63,-808.23 1271.63,-808.23 1271.63,-808.23 1304.34,-803.07 1340.22,-797.42"/>
<polygon fill="#6666ff" stroke="#6666ff" points="1341.07,-800.83 1350.4,-795.81 1339.98,-793.91 1341.07,-800.83"/>
</g>
<!-- Metamodel::ClassHOW&#45;&gt;Metamodel::DefaultParent -->
<g id="edge17" class="edge">
<title>Metamodel::ClassHOW&#45;&gt;Metamodel::DefaultParent</title>
<path fill="none" stroke="#6666ff" d="M679.56,-875.23C634.82,-961.09 443.21,-1328.8 389.36,-1432.13"/>
<polygon fill="#6666ff" stroke="#6666ff" points="386.11,-1430.8 384.59,-1441.29 392.32,-1434.04 386.11,-1430.8"/>
</g>
<!-- Metamodel::ClassHOW&#45;&gt;Metamodel::C3MRO -->
<g id="edge18" class="edge">
<title>Metamodel::ClassHOW&#45;&gt;Metamodel::C3MRO</title>
<path fill="none" stroke="#6666ff" d="M589.14,-861.95C525.76,-864.96 444.05,-868.83 380.69,-871.84"/>
<polygon fill="#6666ff" stroke="#6666ff" points="380.51,-868.34 370.68,-872.31 380.84,-875.33 380.51,-868.34"/>
</g>
<!-- Metamodel::ClassHOW&#45;&gt;Metamodel::MROBasedMethodDispatch -->
<g id="edge19" class="edge">
<title>Metamodel::ClassHOW&#45;&gt;Metamodel::MROBasedMethodDispatch</title>
<path fill="none" stroke="#6666ff" d="M685.1,-838.93C668.33,-759.18 601.49,-441.37 581.2,-344.93"/>
<polygon fill="#6666ff" stroke="#6666ff" points="584.61,-344.11 579.12,-335.04 577.76,-345.55 584.61,-344.11"/>
</g>
<!-- Metamodel::ClassHOW&#45;&gt;Metamodel::MROBasedTypeChecking -->
<g id="edge20" class="edge">
<title>Metamodel::ClassHOW&#45;&gt;Metamodel::MROBasedTypeChecking</title>
<path fill="none" stroke="#6666ff" d="M687.74,-839.2C685.28,-802.29 679.89,-721.54 679.89,-721.54 679.89,-721.54 746.57,-317.17 746.57,-317.17 746.57,-317.17 733.69,-276.52 724.59,-247.78"/>
<polygon fill="#6666ff" stroke="#6666ff" points="727.91,-246.67 721.55,-238.19 721.24,-248.78 727.91,-246.67"/>
</g>
<!-- Metamodel::ClassHOW&#45;&gt;Metamodel::Trusting -->
<g id="edge21" class="edge">
<title>Metamodel::ClassHOW&#45;&gt;Metamodel::Trusting</title>
<path fill="none" stroke="#6666ff" d="M643.65,-873.41C536.6,-911.69 268.33,-1007.62 153.15,-1048.8"/>
<polygon fill="#6666ff" stroke="#6666ff" points="151.72,-1045.6 143.48,-1052.26 154.07,-1052.19 151.72,-1045.6"/>
</g>
<!-- Metamodel::ClassHOW&#45;&gt;Metamodel::BUILDPLAN -->
<g id="edge22" class="edge">
<title>Metamodel::ClassHOW&#45;&gt;Metamodel::BUILDPLAN</title>
<path fill="none" stroke="#6666ff" d="M663.44,-839.59C581.97,-783.32 328,-607.87 235.7,-544.11"/>
<polygon fill="#6666ff" stroke="#6666ff" points="237.5,-541.1 227.28,-538.29 233.52,-546.86 237.5,-541.1"/>
</g>
<!-- Metamodel::ClassHOW&#45;&gt;Metamodel::Mixins -->
<g id="edge23" class="edge">
<title>Metamodel::ClassHOW&#45;&gt;Metamodel::Mixins</title>
<path fill="none" stroke="#6666ff" d="M619.68,-843.84C504.7,-821.63 275.5,-777.35 158.11,-754.67"/>
<polygon fill="#6666ff" stroke="#6666ff" points="158.62,-751.21 148.14,-752.75 157.29,-758.08 158.62,-751.21"/>
</g>
<!-- Metamodel::ClassHOW&#45;&gt;Metamodel::BoolificationProtocol -->
<g id="edge24" class="edge">
<title>Metamodel::ClassHOW&#45;&gt;Metamodel::BoolificationProtocol</title>
<path fill="none" stroke="#6666ff" d="M669.55,-874.99C596.19,-942.23 335.53,-1181.11 250.7,-1258.86"/>
<polygon fill="#6666ff" stroke="#6666ff" points="248.29,-1256.33 243.28,-1265.66 253.02,-1261.49 248.29,-1256.33"/>
</g>
<!-- Metamodel::NativeHOW -->
<g id="node23" class="node">
<title>Metamodel::NativeHOW</title>
<g id="a_node23"><a xlink:href="/type/Metamodel::NativeHOW" xlink:title="Metamodel::NativeHOW">
<ellipse fill="none" stroke="#000000" cx="788.08" cy="-721.58" rx="106.68" ry="18"/>
<text text-anchor="middle" x="788.08" y="-717.88" font-family="FreeSans" font-size="14.00" fill="#000000">Metamodel::NativeHOW</text>
</a>
</g>
</g>
<!-- Metamodel::NativeHOW&#45;&gt;Metamodel::MultipleInheritance -->
<g id="edge29" class="edge">
<title>Metamodel::NativeHOW&#45;&gt;Metamodel::MultipleInheritance</title>
<path fill="none" stroke="#6666ff" d="M788.85,-739.62C790.43,-776.56 793.88,-857.4 793.88,-857.4 793.88,-857.4 797.86,-1150.9 799.12,-1244.39"/>
<polygon fill="#6666ff" stroke="#6666ff" points="795.62,-1244.57 799.26,-1254.52 802.62,-1244.47 795.62,-1244.57"/>
</g>
<!-- Metamodel::NativeHOW&#45;&gt;Any -->
<g id="edge3" class="edge">
<title>Metamodel::NativeHOW&#45;&gt;Any</title>
<path fill="none" stroke="#000000" d="M826.2,-704.65C913.58,-665.84 1127,-571.05 1207.96,-535.1"/>
<polygon fill="#000000" stroke="#000000" points="1209.44,-538.27 1217.15,-531.01 1206.59,-531.87 1209.44,-538.27"/>
</g>
<!-- Metamodel::NativeHOW&#45;&gt;Metamodel::Naming -->
<g id="edge25" class="edge">
<title>Metamodel::NativeHOW&#45;&gt;Metamodel::Naming</title>
<path fill="none" stroke="#6666ff" d="M790.85,-739.7C803.31,-821.17 853.55,-1149.64 853.55,-1149.64 853.55,-1149.64 934.99,-1272.7 934.99,-1272.7 934.99,-1272.7 915.09,-1329.76 902.68,-1365.38"/>
<polygon fill="#6666ff" stroke="#6666ff" points="899.23,-1364.63 899.24,-1375.22 905.84,-1366.93 899.23,-1364.63"/>
</g>
<!-- Metamodel::NativeHOW&#45;&gt;Metamodel::Documenting -->
<g id="edge26" class="edge">
<title>Metamodel::NativeHOW&#45;&gt;Metamodel::Documenting</title>
<path fill="none" stroke="#6666ff" d="M797.83,-739.62C828,-795.45 917.8,-961.65 917.8,-961.65 917.8,-961.65 1058.24,-1149.74 1058.24,-1149.74 1058.24,-1149.74 1063.78,-1226.25 1066.88,-1269.07"/>
<polygon fill="#6666ff" stroke="#6666ff" points="1063.4,-1269.44 1067.62,-1279.16 1070.38,-1268.93 1063.4,-1269.44"/>
</g>
<!-- Metamodel::NativeHOW&#45;&gt;Metamodel::Versioning -->
<g id="edge27" class="edge">
<title>Metamodel::NativeHOW&#45;&gt;Metamodel::Versioning</title>
<path fill="none" stroke="#6666ff" d="M795.18,-739.7C821.45,-806.7 913.18,-1040.71 944.96,-1121.78"/>
<polygon fill="#6666ff" stroke="#6666ff" points="941.79,-1123.29 948.7,-1131.32 948.31,-1120.73 941.79,-1123.29"/>
</g>
<!-- Metamodel::NativeHOW&#45;&gt;Metamodel::Stashing -->
<g id="edge28" class="edge">
<title>Metamodel::NativeHOW&#45;&gt;Metamodel::Stashing</title>
<path fill="none" stroke="#6666ff" d="M803.98,-703.63C847.59,-654.4 969.15,-517.16 1019.75,-460.04"/>
<polygon fill="#6666ff" stroke="#6666ff" points="1022.4,-462.33 1026.41,-452.53 1017.16,-457.69 1022.4,-462.33"/>
</g>
<!-- Metamodel::NativeHOW&#45;&gt;Metamodel::C3MRO -->
<g id="edge30" class="edge">
<title>Metamodel::NativeHOW&#45;&gt;Metamodel::C3MRO</title>
<path fill="none" stroke="#6666ff" d="M736.19,-737.44C641.4,-766.41 440.78,-827.72 340.55,-858.35"/>
<polygon fill="#6666ff" stroke="#6666ff" points="339.42,-855.04 330.88,-861.31 341.46,-861.73 339.42,-855.04"/>
</g>
<!-- Metamodel::NativeHOW&#45;&gt;Metamodel::MROBasedMethodDispatch -->
<g id="edge31" class="edge">
<title>Metamodel::NativeHOW&#45;&gt;Metamodel::MROBasedMethodDispatch</title>
<path fill="none" stroke="#6666ff" d="M778.52,-703.41C744.64,-638.98 630.1,-421.17 589.64,-344.23"/>
<polygon fill="#6666ff" stroke="#6666ff" points="592.62,-342.38 584.86,-335.16 586.42,-345.64 592.62,-342.38"/>
</g>
<!-- Metamodel::NativeHOW&#45;&gt;Metamodel::MROBasedTypeChecking -->
<g id="edge32" class="edge">
<title>Metamodel::NativeHOW&#45;&gt;Metamodel::MROBasedTypeChecking</title>
<path fill="none" stroke="#6666ff" d="M786.21,-703.42C778.14,-624.73 746.57,-317.17 746.57,-317.17 746.57,-317.17 733.69,-276.52 724.59,-247.78"/>
<polygon fill="#6666ff" stroke="#6666ff" points="727.91,-246.67 721.55,-238.19 721.24,-248.78 727.91,-246.67"/>
</g>
<!-- Metamodel::TypePretense -->
<g id="node24" class="node">
<title>Metamodel::TypePretense</title>
<g id="a_node24"><a xlink:href="/type/Metamodel::TypePretense" xlink:title="Metamodel::TypePretense">
<ellipse fill="none" stroke="#6666ff" cx="2046.2" cy="-1060.09" rx="114.28" ry="18"/>
<text text-anchor="middle" x="2046.2" y="-1056.39" font-family="FreeSans" font-size="14.00" fill="#6666ff">Metamodel::TypePretense</text>
</a>
</g>
</g>
<!-- Metamodel::RolePunning -->
<g id="node25" class="node">
<title>Metamodel::RolePunning</title>
<g id="a_node25"><a xlink:href="/type/Metamodel::RolePunning" xlink:title="Metamodel::RolePunning">
<ellipse fill="none" stroke="#6666ff" cx="1875.63" cy="-1515.25" rx="109.68" ry="18"/>
<text text-anchor="middle" x="1875.63" y="-1511.55" font-family="FreeSans" font-size="14.00" fill="#6666ff">Metamodel::RolePunning</text>
</a>
</g>
</g>
<!-- Metamodel::ParametricRoleHOW -->
<g id="node26" class="node">
<title>Metamodel::ParametricRoleHOW</title>
<g id="a_node26"><a xlink:href="/type/Metamodel::ParametricRoleHOW" xlink:title="Metamodel::ParametricRoleHOW">
<ellipse fill="none" stroke="#000000" cx="1466.75" cy="-1097.71" rx="141.88" ry="18"/>
<text text-anchor="middle" x="1466.75" y="-1094.01" font-family="FreeSans" font-size="14.00" fill="#000000">Metamodel::ParametricRoleHOW</text>
</a>
</g>
</g>
<!-- Metamodel::ParametricRoleHOW&#45;&gt;Metamodel::MultipleInheritance -->
<g id="edge41" class="edge">
<title>Metamodel::ParametricRoleHOW&#45;&gt;Metamodel::MultipleInheritance</title>
<path fill="none" stroke="#6666ff" d="M1404.88,-1113.93C1280.82,-1146.45 1002.33,-1219.46 870.84,-1253.93"/>
<polygon fill="#6666ff" stroke="#6666ff" points="869.65,-1250.62 860.86,-1256.54 871.42,-1257.39 869.65,-1250.62"/>
</g>
<!-- Metamodel::ParametricRoleHOW&#45;&gt;Any -->
<g id="edge4" class="edge">
<title>Metamodel::ParametricRoleHOW&#45;&gt;Any</title>
<path fill="none" stroke="#000000" d="M1457.41,-1079.65C1423.64,-1014.35 1309.87,-794.4 1309.87,-794.4 1309.87,-794.4 1222.1,-648.02 1222.1,-648.02 1222.1,-648.02 1230.65,-586.63 1235.87,-549.19"/>
<polygon fill="#000000" stroke="#000000" points="1239.39,-549.28 1237.3,-538.89 1232.46,-548.31 1239.39,-549.28"/>
</g>
<!-- Metamodel::ParametricRoleHOW&#45;&gt;Metamodel::Naming -->
<g id="edge33" class="edge">
<title>Metamodel::ParametricRoleHOW&#45;&gt;Metamodel::Naming</title>
<path fill="none" stroke="#6666ff" d="M1437.5,-1115.35C1381.04,-1149.4 1262.57,-1220.84 1262.57,-1220.84 1262.57,-1220.84 1181.66,-1297.43 1181.66,-1297.43 1181.66,-1297.43 1147.89,-1311.23 1147.89,-1311.23 1147.89,-1311.23 1025.62,-1350.58 950.43,-1374.77"/>
<polygon fill="#6666ff" stroke="#6666ff" points="949.05,-1371.54 940.6,-1377.94 951.2,-1378.21 949.05,-1371.54"/>
</g>
<!-- Metamodel::ParametricRoleHOW&#45;&gt;Metamodel::Documenting -->
<g id="edge34" class="edge">
<title>Metamodel::ParametricRoleHOW&#45;&gt;Metamodel::Documenting</title>
<path fill="none" stroke="#6666ff" d="M1431.8,-1115.24C1359.1,-1151.71 1191.79,-1235.62 1112.34,-1275.47"/>
<polygon fill="#6666ff" stroke="#6666ff" points="1110.46,-1272.5 1103.1,-1280.11 1113.6,-1278.75 1110.46,-1272.5"/>
</g>
<!-- Metamodel::ParametricRoleHOW&#45;&gt;Metamodel::Versioning -->
<g id="edge35" class="edge">
<title>Metamodel::ParametricRoleHOW&#45;&gt;Metamodel::Versioning</title>
<path fill="none" stroke="#6666ff" d="M1355.9,-1108.99C1265.86,-1118.15 1140.07,-1130.95 1053.72,-1139.73"/>
<polygon fill="#6666ff" stroke="#6666ff" points="1053.25,-1136.26 1043.66,-1140.76 1053.96,-1143.23 1053.25,-1136.26"/>
</g>
<!-- Metamodel::ParametricRoleHOW&#45;&gt;Metamodel::Stashing -->
<g id="edge42" class="edge">
<title>Metamodel::ParametricRoleHOW&#45;&gt;Metamodel::Stashing</title>
<path fill="none" stroke="#6666ff" d="M1457.41,-1079.65C1423.64,-1014.35 1309.87,-794.4 1309.87,-794.4 1309.87,-794.4 1123.02,-543.13 1061.61,-460.54"/>
<polygon fill="#6666ff" stroke="#6666ff" points="1064.35,-458.36 1055.57,-452.42 1058.73,-462.54 1064.35,-458.36"/>
</g>
<!-- Metamodel::ParametricRoleHOW&#45;&gt;Metamodel::AttributeContainer -->
<g id="edge39" class="edge">
<title>Metamodel::ParametricRoleHOW&#45;&gt;Metamodel::AttributeContainer</title>
<path fill="none" stroke="#6666ff" d="M1457.92,-1079.43C1425.47,-1012.24 1314.7,-782.9 1314.7,-782.9 1314.7,-782.9 1334.15,-715.66 1345.57,-676.18"/>
<polygon fill="#6666ff" stroke="#6666ff" points="1349.01,-676.9 1348.42,-666.32 1342.28,-674.96 1349.01,-676.9"/>
</g>
<!-- Metamodel::ParametricRoleHOW&#45;&gt;Metamodel::MethodContainer -->
<g id="edge36" class="edge">
<title>Metamodel::ParametricRoleHOW&#45;&gt;Metamodel::MethodContainer</title>
<path fill="none" stroke="#6666ff" d="M1449.73,-1079.64C1401.07,-1027.99 1261.29,-879.64 1204.9,-819.79"/>
<polygon fill="#6666ff" stroke="#6666ff" points="1207.23,-817.16 1197.82,-812.28 1202.13,-821.96 1207.23,-817.16"/>
</g>
<!-- Metamodel::ParametricRoleHOW&#45;&gt;Metamodel::PrivateMethodContainer -->
<g id="edge37" class="edge">
<title>Metamodel::ParametricRoleHOW&#45;&gt;Metamodel::PrivateMethodContainer</title>
<path fill="none" stroke="#6666ff" d="M1417.82,-1080.76C1345.66,-1055.76 1210.9,-1009.08 1133.28,-982.19"/>
<polygon fill="#6666ff" stroke="#6666ff" points="1134.24,-978.82 1123.64,-978.85 1131.95,-985.43 1134.24,-978.82"/>
</g>
<!-- Metamodel::ParametricRoleHOW&#45;&gt;Metamodel::MultiMethodContainer -->
<g id="edge38" class="edge">
<title>Metamodel::ParametricRoleHOW&#45;&gt;Metamodel::MultiMethodContainer</title>
<path fill="none" stroke="#6666ff" d="M1437.5,-1115.35C1381.04,-1149.4 1262.57,-1220.84 1262.57,-1220.84 1262.57,-1220.84 1132.12,-1431.73 1085.2,-1507.58"/>
<polygon fill="#6666ff" stroke="#6666ff" points="1082.19,-1505.79 1079.9,-1516.14 1088.14,-1509.48 1082.19,-1505.79"/>
</g>
<!-- Metamodel::ParametricRoleHOW&#45;&gt;Metamodel::RoleContainer -->
<g id="edge40" class="edge">
<title>Metamodel::ParametricRoleHOW&#45;&gt;Metamodel::RoleContainer</title>
<path fill="none" stroke="#6666ff" d="M1464.73,-1079.43C1458.92,-1026.84 1442.14,-874.9 1435.13,-811.38"/>
<polygon fill="#6666ff" stroke="#6666ff" points="1438.59,-810.84 1434.01,-801.29 1431.63,-811.61 1438.59,-810.84"/>
</g>
<!-- Metamodel::ParametricRoleHOW&#45;&gt;Metamodel::TypePretense -->
<g id="edge43" class="edge">
<title>Metamodel::ParametricRoleHOW&#45;&gt;Metamodel::TypePretense</title>
<path fill="none" stroke="#6666ff" d="M1593.2,-1089.5C1693.54,-1082.99 1832.69,-1073.95 1930.2,-1067.62"/>
<polygon fill="#6666ff" stroke="#6666ff" points="1930.64,-1071.1 1940.39,-1066.96 1930.19,-1064.12 1930.64,-1071.1"/>
</g>
<!-- Metamodel::ParametricRoleHOW&#45;&gt;Metamodel::RolePunning -->
<g id="edge44" class="edge">
<title>Metamodel::ParametricRoleHOW&#45;&gt;Metamodel::RolePunning</title>
<path fill="none" stroke="#6666ff" d="M1484.32,-1115.65C1549.2,-1181.9 1775.41,-1412.91 1850.89,-1489.99"/>
<polygon fill="#6666ff" stroke="#6666ff" points="1848.63,-1492.68 1858.13,-1497.38 1853.63,-1487.79 1848.63,-1492.68"/>
</g>
<!-- Metamodel::ConcreteRoleHOW -->
<g id="node27" class="node">
<title>Metamodel::ConcreteRoleHOW</title>
<g id="a_node27"><a xlink:href="/type/Metamodel::ConcreteRoleHOW" xlink:title="Metamodel::ConcreteRoleHOW">
<ellipse fill="none" stroke="#000000" cx="1399.36" cy="-1220.89" rx="135.38" ry="18"/>
<text text-anchor="middle" x="1399.36" y="-1217.19" font-family="FreeSans" font-size="14.00" fill="#000000">Metamodel::ConcreteRoleHOW</text>
</a>
</g>
</g>
<!-- Metamodel::ConcreteRoleHOW&#45;&gt;Metamodel::MultipleInheritance -->
<g id="edge52" class="edge">
<title>Metamodel::ConcreteRoleHOW&#45;&gt;Metamodel::MultipleInheritance</title>
<path fill="none" stroke="#6666ff" d="M1285.83,-1230.69C1182.1,-1239.63 1029.08,-1252.83 922.49,-1262.02"/>
<polygon fill="#6666ff" stroke="#6666ff" points="921.98,-1258.55 912.32,-1262.9 922.58,-1265.53 921.98,-1258.55"/>
</g>
<!-- Metamodel::ConcreteRoleHOW&#45;&gt;Any -->
<g id="edge5" class="edge">
<title>Metamodel::ConcreteRoleHOW&#45;&gt;Any</title>
<path fill="none" stroke="#000000" d="M1388.16,-1202.7C1367.05,-1168.41 1323.47,-1097.6 1323.47,-1097.6 1323.47,-1097.6 1309.87,-794.4 1309.87,-794.4 1309.87,-794.4 1222.1,-648.02 1222.1,-648.02 1222.1,-648.02 1230.65,-586.63 1235.87,-549.19"/>
<polygon fill="#000000" stroke="#000000" points="1239.39,-549.28 1237.3,-538.89 1232.46,-548.31 1239.39,-549.28"/>
</g>
<!-- Metamodel::ConcreteRoleHOW&#45;&gt;Metamodel::Naming -->
<g id="edge45" class="edge">
<title>Metamodel::ConcreteRoleHOW&#45;&gt;Metamodel::Naming</title>
<path fill="none" stroke="#6666ff" d="M1352.36,-1237.78C1279.57,-1263.93 1147.89,-1311.23 1147.89,-1311.23 1147.89,-1311.23 1025.62,-1350.58 950.43,-1374.77"/>
<polygon fill="#6666ff" stroke="#6666ff" points="949.05,-1371.54 940.6,-1377.94 951.2,-1378.21 949.05,-1371.54"/>
</g>
<!-- Metamodel::ConcreteRoleHOW&#45;&gt;Metamodel::Versioning -->
<g id="edge46" class="edge">
<title>Metamodel::ConcreteRoleHOW&#45;&gt;Metamodel::Versioning</title>
<path fill="none" stroke="#6666ff" d="M1313.07,-1207.04C1234.58,-1194.44 1119.38,-1175.94 1041.2,-1163.38"/>
<polygon fill="#6666ff" stroke="#6666ff" points="1041.32,-1159.86 1030.9,-1161.73 1040.22,-1166.77 1041.32,-1159.86"/>
</g>
<!-- Metamodel::ConcreteRoleHOW&#45;&gt;Metamodel::AttributeContainer -->
<g id="edge50" class="edge">
<title>Metamodel::ConcreteRoleHOW&#45;&gt;Metamodel::AttributeContainer</title>
<path fill="none" stroke="#6666ff" d="M1388.16,-1202.7C1367.05,-1168.41 1323.47,-1097.6 1323.47,-1097.6 1323.47,-1097.6 1314.7,-782.9 1314.7,-782.9 1314.7,-782.9 1334.15,-715.66 1345.57,-676.18"/>
<polygon fill="#6666ff" stroke="#6666ff" points="1349.01,-676.9 1348.42,-666.32 1342.28,-674.96 1349.01,-676.9"/>
</g>
<!-- Metamodel::ConcreteRoleHOW&#45;&gt;Metamodel::MethodContainer -->
<g id="edge48" class="edge">
<title>Metamodel::ConcreteRoleHOW&#45;&gt;Metamodel::MethodContainer</title>
<path fill="none" stroke="#6666ff" d="M1388.16,-1202.7C1367.05,-1168.41 1323.47,-1097.6 1323.47,-1097.6 1323.47,-1097.6 1228.77,-896.16 1193.72,-821.61"/>
<polygon fill="#6666ff" stroke="#6666ff" points="1196.8,-819.93 1189.38,-812.37 1190.46,-822.9 1196.8,-819.93"/>
</g>
<!-- Metamodel::ConcreteRoleHOW&#45;&gt;Metamodel::PrivateMethodContainer -->
<g id="edge47" class="edge">
<title>Metamodel::ConcreteRoleHOW&#45;&gt;Metamodel::PrivateMethodContainer</title>
<path fill="none" stroke="#6666ff" d="M1377.01,-1203.08C1320.02,-1157.67 1169.27,-1037.54 1104.44,-985.87"/>
<polygon fill="#6666ff" stroke="#6666ff" points="1106.6,-983.12 1096.6,-979.63 1102.24,-988.6 1106.6,-983.12"/>
</g>
<!-- Metamodel::ConcreteRoleHOW&#45;&gt;Metamodel::MultiMethodContainer -->
<g id="edge49" class="edge">
<title>Metamodel::ConcreteRoleHOW&#45;&gt;Metamodel::MultiMethodContainer</title>
<path fill="none" stroke="#6666ff" d="M1380.15,-1239.1C1323.85,-1292.46 1159.17,-1448.55 1094.83,-1509.53"/>
<polygon fill="#6666ff" stroke="#6666ff" points="1092.34,-1507.06 1087.49,-1516.48 1097.16,-1512.14 1092.34,-1507.06"/>
</g>
<!-- Metamodel::ConcreteRoleHOW&#45;&gt;Metamodel::RoleContainer -->
<g id="edge51" class="edge">
<title>Metamodel::ConcreteRoleHOW&#45;&gt;Metamodel::RoleContainer</title>
<path fill="none" stroke="#6666ff" d="M1388.16,-1202.7C1367.05,-1168.41 1323.47,-1097.6 1323.47,-1097.6 1323.47,-1097.6 1395.88,-887.66 1422.4,-810.75"/>
<polygon fill="#6666ff" stroke="#6666ff" points="1425.73,-811.82 1425.69,-801.23 1419.12,-809.54 1425.73,-811.82"/>
</g>
</g>
</svg>
