<?xml version="1.0" encoding="UTF-8" standalone="no"?>
<!DOCTYPE svg PUBLIC "-//W3C//DTD SVG 1.1//EN"
 "http://www.w3.org/Graphics/SVG/1.1/DTD/svg11.dtd">
<!-- Generated by graphviz version 2.43.0 (0)
 -->
<!-- Title: raku&#45;type&#45;graph Pages: 1 -->
<svg width="1994pt" height="1535pt"
 viewBox="0.00 0.00 1993.81 1534.67" xmlns="http://www.w3.org/2000/svg" xmlns:xlink="http://www.w3.org/1999/xlink">
<g id="graph0" class="graph" transform="scale(1 1) rotate(0) translate(4 1530.67)">
<title>raku&#45;type&#45;graph</title>
<polygon fill="#ffffff" stroke="transparent" points="-4,4 -4,-1530.67 1989.81,-1530.67 1989.81,4 -4,4"/>
<!-- Metamodel::TypePretense -->
<g id="node1" class="node">
<title>Metamodel::TypePretense</title>
<g id="a_node1"><a xlink:href="/type/Metamodel::TypePretense" xlink:title="Metamodel::TypePretense">
<ellipse fill="none" stroke="#6666ff" cx="798.75" cy="-884.42" rx="114.28" ry="18"/>
<text text-anchor="middle" x="798.75" y="-880.72" font-family="FreeSans" font-size="14.00" fill="#6666ff">Metamodel::TypePretense</text>
</a>
</g>
</g>
<!-- Mu -->
<g id="node2" class="node">
<title>Mu</title>
<g id="a_node2"><a xlink:href="/type/Mu" xlink:title="Mu">
<ellipse fill="none" stroke="#000000" cx="801.86" cy="-49.22" rx="27" ry="18"/>
<text text-anchor="middle" x="801.86" y="-45.52" font-family="FreeSans" font-size="14.00" fill="#000000">Mu</text>
</a>
</g>
</g>
<!-- Any -->
<g id="node3" class="node">
<title>Any</title>
<g id="a_node3"><a xlink:href="/type/Any" xlink:title="Any">
<ellipse fill="none" stroke="#000000" cx="809.05" cy="-693.16" rx="27" ry="18"/>
<text text-anchor="middle" x="809.05" y="-689.46" font-family="FreeSans" font-size="14.00" fill="#000000">Any</text>
</a>
</g>
</g>
<!-- Any&#45;&gt;Mu -->
<g id="edge1" class="edge">
<title>Any&#45;&gt;Mu</title>
<path fill="none" stroke="#000000" d="M808.85,-674.93C807.84,-584.89 803.4,-187.7 802.17,-77.6"/>
<polygon fill="#000000" stroke="#000000" points="805.67,-77.26 802.06,-67.3 798.67,-77.34 805.67,-77.26"/>
</g>
<!-- Metamodel::Naming -->
<g id="node4" class="node">
<title>Metamodel::Naming</title>
<g id="a_node4"><a xlink:href="/type/Metamodel::Naming" xlink:title="Metamodel::Naming">
<ellipse fill="none" stroke="#6666ff" cx="1036.6" cy="-771.74" rx="90.18" ry="18"/>
<text text-anchor="middle" x="1036.6" y="-768.04" font-family="FreeSans" font-size="14.00" fill="#6666ff">Metamodel::Naming</text>
</a>
</g>
</g>
<!-- Metamodel::Documenting -->
<g id="node5" class="node">
<title>Metamodel::Documenting</title>
<g id="a_node5"><a xlink:href="/type/Metamodel::Documenting" xlink:title="Metamodel::Documenting">
<ellipse fill="none" stroke="#6666ff" cx="1281.11" cy="-428.36" rx="111.28" ry="18"/>
<text text-anchor="middle" x="1281.11" y="-424.66" font-family="FreeSans" font-size="14.00" fill="#6666ff">Metamodel::Documenting</text>
</a>
</g>
</g>
<!-- Metamodel::Stashing -->
<g id="node6" class="node">
<title>Metamodel::Stashing</title>
<g id="a_node6"><a xlink:href="/type/Metamodel::Stashing" xlink:title="Metamodel::Stashing">
<ellipse fill="none" stroke="#6666ff" cx="968.59" cy="-942.1" rx="93.68" ry="18"/>
<text text-anchor="middle" x="968.59" y="-938.4" font-family="FreeSans" font-size="14.00" fill="#6666ff">Metamodel::Stashing</text>
</a>
</g>
</g>
<!-- Metamodel::MethodDelegation -->
<g id="node7" class="node">
<title>Metamodel::MethodDelegation</title>
<g id="a_node7"><a xlink:href="/type/Metamodel::MethodDelegation" xlink:title="Metamodel::MethodDelegation">
<ellipse fill="none" stroke="#6666ff" cx="524.53" cy="-18" rx="131.08" ry="18"/>
<text text-anchor="middle" x="524.53" y="-14.3" font-family="FreeSans" font-size="14.00" fill="#6666ff">Metamodel::MethodDelegation</text>
</a>
</g>
</g>
<!-- Metamodel::PackageHOW -->
<g id="node8" class="node">
<title>Metamodel::PackageHOW</title>
<g id="a_node8"><a xlink:href="/type/Metamodel::PackageHOW" xlink:title="Metamodel::PackageHOW">
<ellipse fill="none" stroke="#000000" cx="664.75" cy="-450.74" rx="116.18" ry="18"/>
<text text-anchor="middle" x="664.75" y="-447.04" font-family="FreeSans" font-size="14.00" fill="#000000">Metamodel::PackageHOW</text>
</a>
</g>
</g>
<!-- Metamodel::PackageHOW&#45;&gt;Metamodel::TypePretense -->
<g id="edge10" class="edge">
<title>Metamodel::PackageHOW&#45;&gt;Metamodel::TypePretense</title>
<path fill="none" stroke="#6666ff" d="M670.34,-468.82C691.24,-536.47 764.91,-774.88 790.17,-856.65"/>
<polygon fill="#6666ff" stroke="#6666ff" points="786.85,-857.74 793.14,-866.26 793.53,-855.67 786.85,-857.74"/>
</g>
<!-- Metamodel::PackageHOW&#45;&gt;Any -->
<g id="edge2" class="edge">
<title>Metamodel::PackageHOW&#45;&gt;Any</title>
<path fill="none" stroke="#000000" d="M675.6,-468.96C701.03,-511.69 764.55,-618.41 793.83,-667.6"/>
<polygon fill="#000000" stroke="#000000" points="790.92,-669.56 799.05,-676.36 796.94,-665.98 790.92,-669.56"/>
</g>
<!-- Metamodel::PackageHOW&#45;&gt;Metamodel::Naming -->
<g id="edge7" class="edge">
<title>Metamodel::PackageHOW&#45;&gt;Metamodel::Naming</title>
<path fill="none" stroke="#6666ff" d="M685.54,-468.69C748.43,-522.97 936.7,-685.5 1008.42,-747.42"/>
<polygon fill="#6666ff" stroke="#6666ff" points="1006.32,-750.23 1016.18,-754.12 1010.9,-744.93 1006.32,-750.23"/>
</g>
<!-- Metamodel::PackageHOW&#45;&gt;Metamodel::Documenting -->
<g id="edge8" class="edge">
<title>Metamodel::PackageHOW&#45;&gt;Metamodel::Documenting</title>
<path fill="none" stroke="#6666ff" d="M778.16,-446.62C887.23,-442.66 1051.46,-436.7 1162.31,-432.67"/>
<polygon fill="#6666ff" stroke="#6666ff" points="1162.66,-436.16 1172.53,-432.3 1162.41,-429.17 1162.66,-436.16"/>
</g>
<!-- Metamodel::PackageHOW&#45;&gt;Metamodel::Stashing -->
<g id="edge9" class="edge">
<title>Metamodel::PackageHOW&#45;&gt;Metamodel::Stashing</title>
<path fill="none" stroke="#6666ff" d="M677.67,-468.68C716.49,-522.59 829.41,-679.4 829.41,-679.4 829.41,-679.4 837.65,-693.29 837.65,-693.29 837.65,-693.29 920.05,-849.86 954.12,-914.59"/>
<polygon fill="#6666ff" stroke="#6666ff" points="951.21,-916.58 958.96,-923.8 957.4,-913.32 951.21,-916.58"/>
</g>
<!-- Metamodel::PackageHOW&#45;&gt;Metamodel::MethodDelegation -->
<g id="edge11" class="edge">
<title>Metamodel::PackageHOW&#45;&gt;Metamodel::MethodDelegation</title>
<path fill="none" stroke="#6666ff" d="M658.91,-432.7C637.04,-365.2 559.95,-127.3 533.51,-45.71"/>
<polygon fill="#6666ff" stroke="#6666ff" points="536.81,-44.55 530.4,-36.12 530.15,-46.71 536.81,-44.55"/>
</g>
<!-- Metamodel::Versioning -->
<g id="node9" class="node">
<title>Metamodel::Versioning</title>
<g id="a_node9"><a xlink:href="/type/Metamodel::Versioning" xlink:title="Metamodel::Versioning">
<ellipse fill="none" stroke="#6666ff" cx="1501.02" cy="-423.67" rx="100.98" ry="18"/>
<text text-anchor="middle" x="1501.02" y="-419.97" font-family="FreeSans" font-size="14.00" fill="#6666ff">Metamodel::Versioning</text>
</a>
</g>
</g>
<!-- Metamodel::MethodContainer -->
<g id="node10" class="node">
<title>Metamodel::MethodContainer</title>
<g id="a_node10"><a xlink:href="/type/Metamodel::MethodContainer" xlink:title="Metamodel::MethodContainer">
<ellipse fill="none" stroke="#6666ff" cx="1858.42" cy="-847.48" rx="127.28" ry="18"/>
<text text-anchor="middle" x="1858.42" y="-843.78" font-family="FreeSans" font-size="14.00" fill="#6666ff">Metamodel::MethodContainer</text>
</a>
</g>
</g>
<!-- Metamodel::PrivateMethodContainer -->
<g id="node11" class="node">
<title>Metamodel::PrivateMethodContainer</title>
<g id="a_node11"><a xlink:href="/type/Metamodel::PrivateMethodContainer" xlink:title="Metamodel::PrivateMethodContainer">
<ellipse fill="none" stroke="#6666ff" cx="1795.15" cy="-617.55" rx="154.87" ry="18"/>
<text text-anchor="middle" x="1795.15" y="-613.85" font-family="FreeSans" font-size="14.00" fill="#6666ff">Metamodel::PrivateMethodContainer</text>
</a>
</g>
</g>
<!-- Metamodel::MultiMethodContainer -->
<g id="node12" class="node">
<title>Metamodel::MultiMethodContainer</title>
<g id="a_node12"><a xlink:href="/type/Metamodel::MultiMethodContainer" xlink:title="Metamodel::MultiMethodContainer">
<ellipse fill="none" stroke="#6666ff" cx="1308.17" cy="-1508.67" rx="146.47" ry="18"/>
<text text-anchor="middle" x="1308.17" y="-1504.97" font-family="FreeSans" font-size="14.00" fill="#6666ff">Metamodel::MultiMethodContainer</text>
</a>
</g>
</g>
<!-- Metamodel::AttributeContainer -->
<g id="node13" class="node">
<title>Metamodel::AttributeContainer</title>
<g id="a_node13"><a xlink:href="/type/Metamodel::AttributeContainer" xlink:title="Metamodel::AttributeContainer">
<ellipse fill="none" stroke="#6666ff" cx="1837.33" cy="-1087.4" rx="129.98" ry="18"/>
<text text-anchor="middle" x="1837.33" y="-1083.7" font-family="FreeSans" font-size="14.00" fill="#6666ff">Metamodel::AttributeContainer</text>
</a>
</g>
</g>
<!-- Metamodel::RoleContainer -->
<g id="node14" class="node">
<title>Metamodel::RoleContainer</title>
<g id="a_node14"><a xlink:href="/type/Metamodel::RoleContainer" xlink:title="Metamodel::RoleContainer">
<ellipse fill="none" stroke="#6666ff" cx="1720.74" cy="-1300.47" rx="115.88" ry="18"/>
<text text-anchor="middle" x="1720.74" y="-1296.77" font-family="FreeSans" font-size="14.00" fill="#6666ff">Metamodel::RoleContainer</text>
</a>
</g>
</g>
<!-- Metamodel::MultipleInheritance -->
<g id="node15" class="node">
<title>Metamodel::MultipleInheritance</title>
<g id="a_node15"><a xlink:href="/type/Metamodel::MultipleInheritance" xlink:title="Metamodel::MultipleInheritance">
<ellipse fill="none" stroke="#6666ff" cx="1532.45" cy="-1447.18" rx="133.78" ry="18"/>
<text text-anchor="middle" x="1532.45" y="-1443.48" font-family="FreeSans" font-size="14.00" fill="#6666ff">Metamodel::MultipleInheritance</text>
</a>
</g>
</g>
<!-- Metamodel::RolePunning -->
<g id="node16" class="node">
<title>Metamodel::RolePunning</title>
<g id="a_node16"><a xlink:href="/type/Metamodel::RolePunning" xlink:title="Metamodel::RolePunning">
<ellipse fill="none" stroke="#6666ff" cx="914.09" cy="-1356.64" rx="109.68" ry="18"/>
<text text-anchor="middle" x="914.09" y="-1352.94" font-family="FreeSans" font-size="14.00" fill="#6666ff">Metamodel::RolePunning</text>
</a>
</g>
</g>
<!-- Metamodel::ParametricRoleHOW -->
<g id="node17" class="node">
<title>Metamodel::ParametricRoleHOW</title>
<g id="a_node17"><a xlink:href="/type/Metamodel::ParametricRoleHOW" xlink:title="Metamodel::ParametricRoleHOW">
<ellipse fill="none" stroke="#000000" cx="1357.84" cy="-957.41" rx="141.88" ry="18"/>
<text text-anchor="middle" x="1357.84" y="-953.71" font-family="FreeSans" font-size="14.00" fill="#000000">Metamodel::ParametricRoleHOW</text>
</a>
</g>
</g>
<!-- Metamodel::ParametricRoleHOW&#45;&gt;Metamodel::TypePretense -->
<g id="edge22" class="edge">
<title>Metamodel::ParametricRoleHOW&#45;&gt;Metamodel::TypePretense</title>
<path fill="none" stroke="#6666ff" d="M1258.85,-944.49C1156.87,-931.17 998.84,-910.54 897.09,-897.26"/>
<polygon fill="#6666ff" stroke="#6666ff" points="897.49,-893.78 887.12,-895.96 896.58,-900.72 897.49,-893.78"/>
</g>
<!-- Metamodel::ParametricRoleHOW&#45;&gt;Any -->
<g id="edge3" class="edge">
<title>Metamodel::ParametricRoleHOW&#45;&gt;Any</title>
<path fill="none" stroke="#000000" d="M1318.63,-939.98C1220.32,-896.28 971.13,-785.5 971.13,-785.5 971.13,-785.5 944.66,-771.6 944.66,-771.6 944.66,-771.6 878.32,-733.23 838.44,-710.16"/>
<polygon fill="#000000" stroke="#000000" points="840.05,-707.05 829.65,-705.08 836.55,-713.11 840.05,-707.05"/>
</g>
<!-- Metamodel::ParametricRoleHOW&#45;&gt;Metamodel::Naming -->
<g id="edge12" class="edge">
<title>Metamodel::ParametricRoleHOW&#45;&gt;Metamodel::Naming</title>
<path fill="none" stroke="#6666ff" d="M1327.33,-939.78C1268.54,-905.8 1139.7,-831.33 1075.11,-794"/>
<polygon fill="#6666ff" stroke="#6666ff" points="1076.85,-790.96 1066.44,-788.99 1073.34,-797.02 1076.85,-790.96"/>
</g>
<!-- Metamodel::ParametricRoleHOW&#45;&gt;Metamodel::Documenting -->
<g id="edge13" class="edge">
<title>Metamodel::ParametricRoleHOW&#45;&gt;Metamodel::Documenting</title>
<path fill="none" stroke="#6666ff" d="M1355.2,-939.2C1343.83,-860.82 1299.03,-551.89 1285.2,-456.54"/>
<polygon fill="#6666ff" stroke="#6666ff" points="1288.64,-455.89 1283.74,-446.49 1281.71,-456.89 1288.64,-455.89"/>
</g>
<!-- Metamodel::ParametricRoleHOW&#45;&gt;Metamodel::Stashing -->
<g id="edge21" class="edge">
<title>Metamodel::ParametricRoleHOW&#45;&gt;Metamodel::Stashing</title>
<path fill="none" stroke="#6666ff" d="M1222.25,-952.08C1172.37,-950.11 1116.78,-947.93 1070.39,-946.1"/>
<polygon fill="#6666ff" stroke="#6666ff" points="1070.46,-942.6 1060.33,-945.71 1070.18,-949.6 1070.46,-942.6"/>
</g>
<!-- Metamodel::ParametricRoleHOW&#45;&gt;Metamodel::Versioning -->
<g id="edge14" class="edge">
<title>Metamodel::ParametricRoleHOW&#45;&gt;Metamodel::Versioning</title>
<path fill="none" stroke="#6666ff" d="M1362.68,-939.35C1383.8,-860.63 1467.87,-547.22 1493.54,-451.54"/>
<polygon fill="#6666ff" stroke="#6666ff" points="1496.96,-452.29 1496.17,-441.73 1490.2,-450.48 1496.96,-452.29"/>
</g>
<!-- Metamodel::ParametricRoleHOW&#45;&gt;Metamodel::MethodContainer -->
<g id="edge15" class="edge">
<title>Metamodel::ParametricRoleHOW&#45;&gt;Metamodel::MethodContainer</title>
<path fill="none" stroke="#6666ff" d="M1429.03,-941.78C1521.71,-921.42 1683.19,-885.96 1779.51,-864.81"/>
<polygon fill="#6666ff" stroke="#6666ff" points="1780.47,-868.18 1789.49,-862.62 1778.97,-861.34 1780.47,-868.18"/>
</g>
<!-- Metamodel::ParametricRoleHOW&#45;&gt;Metamodel::PrivateMethodContainer -->
<g id="edge16" class="edge">
<title>Metamodel::ParametricRoleHOW&#45;&gt;Metamodel::PrivateMethodContainer</title>
<path fill="none" stroke="#6666ff" d="M1380.73,-939.62C1453.71,-882.9 1680.9,-706.35 1764.16,-641.64"/>
<polygon fill="#6666ff" stroke="#6666ff" points="1766.47,-644.27 1772.22,-635.37 1762.17,-638.75 1766.47,-644.27"/>
</g>
<!-- Metamodel::ParametricRoleHOW&#45;&gt;Metamodel::MultiMethodContainer -->
<g id="edge17" class="edge">
<title>Metamodel::ParametricRoleHOW&#45;&gt;Metamodel::MultiMethodContainer</title>
<path fill="none" stroke="#6666ff" d="M1356.21,-975.44C1348.97,-1055.83 1319.58,-1382 1310.72,-1480.42"/>
<polygon fill="#6666ff" stroke="#6666ff" points="1307.22,-1480.23 1309.81,-1490.5 1314.19,-1480.86 1307.22,-1480.23"/>
</g>
<!-- Metamodel::ParametricRoleHOW&#45;&gt;Metamodel::AttributeContainer -->
<g id="edge18" class="edge">
<title>Metamodel::ParametricRoleHOW&#45;&gt;Metamodel::AttributeContainer</title>
<path fill="none" stroke="#6666ff" d="M1418.08,-973.74C1507.36,-997.94 1674.34,-1043.21 1768.38,-1068.71"/>
<polygon fill="#6666ff" stroke="#6666ff" points="1767.52,-1072.1 1778.09,-1071.34 1769.35,-1065.34 1767.52,-1072.1"/>
</g>
<!-- Metamodel::ParametricRoleHOW&#45;&gt;Metamodel::RoleContainer -->
<g id="edge19" class="edge">
<title>Metamodel::ParametricRoleHOW&#45;&gt;Metamodel::RoleContainer</title>
<path fill="none" stroke="#6666ff" d="M1376.84,-975.37C1437.22,-1032.45 1624.84,-1209.81 1694.42,-1275.59"/>
<polygon fill="#6666ff" stroke="#6666ff" points="1692.25,-1278.36 1701.92,-1282.68 1697.06,-1273.27 1692.25,-1278.36"/>
</g>
<!-- Metamodel::ParametricRoleHOW&#45;&gt;Metamodel::MultipleInheritance -->
<g id="edge20" class="edge">
<title>Metamodel::ParametricRoleHOW&#45;&gt;Metamodel::MultipleInheritance</title>
<path fill="none" stroke="#6666ff" d="M1364.26,-975.42C1390.62,-1049.37 1490.66,-1329.95 1522.59,-1419.52"/>
<polygon fill="#6666ff" stroke="#6666ff" points="1519.31,-1420.76 1525.97,-1429 1525.91,-1418.41 1519.31,-1420.76"/>
</g>
<!-- Metamodel::ParametricRoleHOW&#45;&gt;Metamodel::RolePunning -->
<g id="edge23" class="edge">
<title>Metamodel::ParametricRoleHOW&#45;&gt;Metamodel::RolePunning</title>
<path fill="none" stroke="#6666ff" d="M1337.91,-975.34C1266.59,-1039.51 1023.92,-1257.83 941.64,-1331.86"/>
<polygon fill="#6666ff" stroke="#6666ff" points="939.06,-1329.47 933.96,-1338.76 943.74,-1334.68 939.06,-1329.47"/>
</g>
<!-- Metamodel::CurriedRoleHOW -->
<g id="node18" class="node">
<title>Metamodel::CurriedRoleHOW</title>
<g id="a_node18"><a xlink:href="/type/Metamodel::CurriedRoleHOW" xlink:title="Metamodel::CurriedRoleHOW">
<ellipse fill="none" stroke="#000000" cx="386.17" cy="-975.32" rx="128.08" ry="18"/>
<text text-anchor="middle" x="386.17" y="-971.62" font-family="FreeSans" font-size="14.00" fill="#000000">Metamodel::CurriedRoleHOW</text>
</a>
</g>
</g>
<!-- Metamodel::CurriedRoleHOW&#45;&gt;Metamodel::TypePretense -->
<g id="edge25" class="edge">
<title>Metamodel::CurriedRoleHOW&#45;&gt;Metamodel::TypePretense</title>
<path fill="none" stroke="#6666ff" d="M455.23,-960.1C528.99,-943.85 645.61,-918.16 722.15,-901.3"/>
<polygon fill="#6666ff" stroke="#6666ff" points="723.19,-904.65 732.21,-899.08 721.69,-897.81 723.19,-904.65"/>
</g>
<!-- Metamodel::CurriedRoleHOW&#45;&gt;Any -->
<g id="edge4" class="edge">
<title>Metamodel::CurriedRoleHOW&#45;&gt;Any</title>
<path fill="none" stroke="#000000" d="M412.62,-957.67C488.03,-907.35 703.62,-763.51 780.98,-711.89"/>
<polygon fill="#000000" stroke="#000000" points="783.34,-714.53 789.72,-706.06 779.45,-708.7 783.34,-714.53"/>
</g>
<!-- Metamodel::CurriedRoleHOW&#45;&gt;Metamodel::RolePunning -->
<g id="edge24" class="edge">
<title>Metamodel::CurriedRoleHOW&#45;&gt;Metamodel::RolePunning</title>
<path fill="none" stroke="#6666ff" d="M420.8,-992.75C509.97,-1037.66 740.55,-1153.78 740.55,-1153.78 740.55,-1153.78 845.2,-1276.11 891.97,-1330.78"/>
<polygon fill="#6666ff" stroke="#6666ff" points="889.53,-1333.32 898.69,-1338.64 894.85,-1328.77 889.53,-1333.32"/>
</g>
<!-- Metamodel::BoolificationProtocol -->
<g id="node19" class="node">
<title>Metamodel::BoolificationProtocol</title>
<g id="a_node19"><a xlink:href="/type/Metamodel::BoolificationProtocol" xlink:title="Metamodel::BoolificationProtocol">
<ellipse fill="none" stroke="#6666ff" cx="139.09" cy="-1418.31" rx="139.18" ry="18"/>
<text text-anchor="middle" x="139.09" y="-1414.61" font-family="FreeSans" font-size="14.00" fill="#6666ff">Metamodel::BoolificationProtocol</text>
</a>
</g>
</g>
<!-- Metamodel::ParametricRoleGroupHOW -->
<g id="node20" class="node">
<title>Metamodel::ParametricRoleGroupHOW</title>
<g id="a_node20"><a xlink:href="/type/Metamodel::ParametricRoleGroupHOW" xlink:title="Metamodel::ParametricRoleGroupHOW">
<ellipse fill="none" stroke="#000000" cx="572.57" cy="-1153.65" rx="166.27" ry="18"/>
<text text-anchor="middle" x="572.57" y="-1149.95" font-family="FreeSans" font-size="14.00" fill="#000000">Metamodel::ParametricRoleGroupHOW</text>
</a>
</g>
</g>
<!-- Metamodel::ParametricRoleGroupHOW&#45;&gt;Metamodel::TypePretense -->
<g id="edge28" class="edge">
<title>Metamodel::ParametricRoleGroupHOW&#45;&gt;Metamodel::TypePretense</title>
<path fill="none" stroke="#6666ff" d="M587.76,-1135.57C626.95,-1088.92 731.59,-964.37 777.1,-910.19"/>
<polygon fill="#6666ff" stroke="#6666ff" points="779.88,-912.33 783.63,-902.42 774.52,-907.83 779.88,-912.33"/>
</g>
<!-- Metamodel::ParametricRoleGroupHOW&#45;&gt;Any -->
<g id="edge5" class="edge">
<title>Metamodel::ParametricRoleGroupHOW&#45;&gt;Any</title>
<path fill="none" stroke="#000000" d="M579.97,-1135.56C604.68,-1075.18 682.76,-884.36 682.76,-884.36 682.76,-884.36 758.03,-770.41 792.35,-718.45"/>
<polygon fill="#000000" stroke="#000000" points="795.47,-720.07 798.06,-709.8 789.63,-716.21 795.47,-720.07"/>
</g>
<!-- Metamodel::ParametricRoleGroupHOW&#45;&gt;Metamodel::Naming -->
<g id="edge26" class="edge">
<title>Metamodel::ParametricRoleGroupHOW&#45;&gt;Metamodel::Naming</title>
<path fill="none" stroke="#6666ff" d="M595.28,-1135.78C671.71,-1075.66 914.74,-884.48 914.74,-884.48 914.74,-884.48 973.99,-829.67 1009.85,-796.48"/>
<polygon fill="#6666ff" stroke="#6666ff" points="1012.59,-798.72 1017.56,-789.35 1007.84,-793.58 1012.59,-798.72"/>
</g>
<!-- Metamodel::ParametricRoleGroupHOW&#45;&gt;Metamodel::Stashing -->
<g id="edge27" class="edge">
<title>Metamodel::ParametricRoleGroupHOW&#45;&gt;Metamodel::Stashing</title>
<path fill="none" stroke="#6666ff" d="M605.65,-1135.98C677.73,-1097.47 848.79,-1006.1 927.57,-964.01"/>
<polygon fill="#6666ff" stroke="#6666ff" points="929.54,-966.93 936.71,-959.13 926.24,-960.75 929.54,-966.93"/>
</g>
<!-- Metamodel::ParametricRoleGroupHOW&#45;&gt;Metamodel::RolePunning -->
<g id="edge29" class="edge">
<title>Metamodel::ParametricRoleGroupHOW&#45;&gt;Metamodel::RolePunning</title>
<path fill="none" stroke="#6666ff" d="M602.57,-1171.49C664.73,-1208.43 807.45,-1293.26 875.99,-1334"/>
<polygon fill="#6666ff" stroke="#6666ff" points="874.37,-1337.11 884.76,-1339.21 877.95,-1331.09 874.37,-1337.11"/>
</g>
<!-- Metamodel::ParametricRoleGroupHOW&#45;&gt;Metamodel::BoolificationProtocol -->
<g id="edge30" class="edge">
<title>Metamodel::ParametricRoleGroupHOW&#45;&gt;Metamodel::BoolificationProtocol</title>
<path fill="none" stroke="#6666ff" d="M543.45,-1171.43C467.18,-1217.99 261.61,-1343.51 176.63,-1395.39"/>
<polygon fill="#6666ff" stroke="#6666ff" points="174.79,-1392.42 168.08,-1400.61 178.43,-1398.39 174.79,-1392.42"/>
</g>
<!-- Metamodel::ModuleHOW -->
<g id="node21" class="node">
<title>Metamodel::ModuleHOW</title>
<g id="a_node21"><a xlink:href="/type/Metamodel::ModuleHOW" xlink:title="Metamodel::ModuleHOW">
<ellipse fill="none" stroke="#000000" cx="950.93" cy="-367.68" rx="110.48" ry="18"/>
<text text-anchor="middle" x="950.93" y="-363.98" font-family="FreeSans" font-size="14.00" fill="#000000">Metamodel::ModuleHOW</text>
</a>
</g>
</g>
<!-- Metamodel::ModuleHOW&#45;&gt;Metamodel::TypePretense -->
<g id="edge35" class="edge">
<title>Metamodel::ModuleHOW&#45;&gt;Metamodel::TypePretense</title>
<path fill="none" stroke="#6666ff" d="M945.61,-385.77C922.94,-462.73 834.43,-763.27 806.94,-856.61"/>
<polygon fill="#6666ff" stroke="#6666ff" points="803.58,-855.63 804.12,-866.21 810.3,-857.61 803.58,-855.63"/>
</g>
<!-- Metamodel::ModuleHOW&#45;&gt;Any -->
<g id="edge6" class="edge">
<title>Metamodel::ModuleHOW&#45;&gt;Any</title>
<path fill="none" stroke="#000000" d="M943.1,-385.64C919.5,-439.79 848.95,-601.63 820.82,-666.16"/>
<polygon fill="#000000" stroke="#000000" points="817.47,-665.09 816.68,-675.65 823.89,-667.88 817.47,-665.09"/>
</g>
<!-- Metamodel::ModuleHOW&#45;&gt;Metamodel::Naming -->
<g id="edge31" class="edge">
<title>Metamodel::ModuleHOW&#45;&gt;Metamodel::Naming</title>
<path fill="none" stroke="#6666ff" d="M954.78,-385.83C968.37,-449.92 1014.17,-665.96 1030.64,-743.63"/>
<polygon fill="#6666ff" stroke="#6666ff" points="1027.26,-744.59 1032.76,-753.64 1034.11,-743.13 1027.26,-744.59"/>
</g>
<!-- Metamodel::ModuleHOW&#45;&gt;Metamodel::Documenting -->
<g id="edge32" class="edge">
<title>Metamodel::ModuleHOW&#45;&gt;Metamodel::Documenting</title>
<path fill="none" stroke="#6666ff" d="M1024.62,-381.22C1075.78,-390.62 1144.03,-403.17 1197.27,-412.95"/>
<polygon fill="#6666ff" stroke="#6666ff" points="1196.9,-416.44 1207.37,-414.81 1198.16,-409.56 1196.9,-416.44"/>
</g>
<!-- Metamodel::ModuleHOW&#45;&gt;Metamodel::Stashing -->
<g id="edge34" class="edge">
<title>Metamodel::ModuleHOW&#45;&gt;Metamodel::Stashing</title>
<path fill="none" stroke="#6666ff" d="M950.65,-385.82C949.43,-464.42 944.66,-771.6 944.66,-771.6 944.66,-771.6 957.79,-865.18 964.6,-913.68"/>
<polygon fill="#6666ff" stroke="#6666ff" points="961.17,-914.43 966.03,-923.85 968.11,-913.46 961.17,-914.43"/>
</g>
<!-- Metamodel::ModuleHOW&#45;&gt;Metamodel::MethodDelegation -->
<g id="edge36" class="edge">
<title>Metamodel::ModuleHOW&#45;&gt;Metamodel::MethodDelegation</title>
<path fill="none" stroke="#6666ff" d="M929.2,-349.86C858.48,-291.87 634.84,-108.46 554.03,-42.19"/>
<polygon fill="#6666ff" stroke="#6666ff" points="556.17,-39.42 546.22,-35.79 551.73,-44.83 556.17,-39.42"/>
</g>
<!-- Metamodel::ModuleHOW&#45;&gt;Metamodel::Versioning -->
<g id="edge33" class="edge">
<title>Metamodel::ModuleHOW&#45;&gt;Metamodel::Versioning</title>
<path fill="none" stroke="#6666ff" d="M1044.87,-377.24C1144.7,-387.4 1301.83,-403.39 1403.14,-413.7"/>
<polygon fill="#6666ff" stroke="#6666ff" points="1403.07,-417.22 1413.37,-414.75 1403.78,-410.25 1403.07,-417.22"/>
</g>
</g>
</svg>
