<?xml version="1.0" encoding="UTF-8" standalone="no"?>
<!DOCTYPE svg PUBLIC "-//W3C//DTD SVG 1.1//EN"
 "http://www.w3.org/Graphics/SVG/1.1/DTD/svg11.dtd">
<!-- Generated by graphviz version 2.43.0 (0)
 -->
<!-- Title: raku&#45;type&#45;graph Pages: 1 -->
<svg width="2084pt" height="1852pt"
 viewBox="0.00 0.00 2083.50 1852.03" xmlns="http://www.w3.org/2000/svg" xmlns:xlink="http://www.w3.org/1999/xlink">
<g id="graph0" class="graph" transform="scale(1 1) rotate(0) translate(4 1848.03)">
<title>raku&#45;type&#45;graph</title>
<polygon fill="#ffffff" stroke="transparent" points="-4,4 -4,-1848.03 2079.5,-1848.03 2079.5,4 -4,4"/>
<!-- Metamodel::MultiMethodContainer -->
<g id="node1" class="node">
<title>Metamodel::MultiMethodContainer</title>
<g id="a_node1"><a xlink:href="/type/Metamodel::MultiMethodContainer" xlink:title="Metamodel::MultiMethodContainer">
<ellipse fill="none" stroke="#6666ff" cx="1063.36" cy="-984.03" rx="146.47" ry="18"/>
<text text-anchor="middle" x="1063.36" y="-980.33" font-family="FreeSans" font-size="14.00" fill="#6666ff">Metamodel::MultiMethodContainer</text>
</a>
</g>
</g>
<!-- Mu -->
<g id="node2" class="node">
<title>Mu</title>
<g id="a_node2"><a xlink:href="/type/Mu" xlink:title="Mu">
<ellipse fill="none" stroke="#000000" cx="1760.34" cy="-372.24" rx="27" ry="18"/>
<text text-anchor="middle" x="1760.34" y="-368.54" font-family="FreeSans" font-size="14.00" fill="#000000">Mu</text>
</a>
</g>
</g>
<!-- Any -->
<g id="node3" class="node">
<title>Any</title>
<g id="a_node3"><a xlink:href="/type/Any" xlink:title="Any">
<ellipse fill="none" stroke="#000000" cx="1348.91" cy="-733.11" rx="27" ry="18"/>
<text text-anchor="middle" x="1348.91" y="-729.41" font-family="FreeSans" font-size="14.00" fill="#000000">Any</text>
</a>
</g>
</g>
<!-- Any&#45;&gt;Mu -->
<g id="edge1" class="edge">
<title>Any&#45;&gt;Mu</title>
<path fill="none" stroke="#000000" d="M1365.29,-718.74C1429.03,-662.84 1660.66,-459.67 1736.28,-393.34"/>
<polygon fill="#000000" stroke="#000000" points="1738.7,-395.88 1743.91,-386.65 1734.08,-390.61 1738.7,-395.88"/>
</g>
<!-- Metamodel::Naming -->
<g id="node4" class="node">
<title>Metamodel::Naming</title>
<g id="a_node4"><a xlink:href="/type/Metamodel::Naming" xlink:title="Metamodel::Naming">
<ellipse fill="none" stroke="#6666ff" cx="1086.67" cy="-1152.62" rx="90.18" ry="18"/>
<text text-anchor="middle" x="1086.67" y="-1148.92" font-family="FreeSans" font-size="14.00" fill="#6666ff">Metamodel::Naming</text>
</a>
</g>
</g>
<!-- Metamodel::Documenting -->
<g id="node5" class="node">
<title>Metamodel::Documenting</title>
<g id="a_node5"><a xlink:href="/type/Metamodel::Documenting" xlink:title="Metamodel::Documenting">
<ellipse fill="none" stroke="#6666ff" cx="792.52" cy="-1689.01" rx="111.28" ry="18"/>
<text text-anchor="middle" x="792.52" y="-1685.31" font-family="FreeSans" font-size="14.00" fill="#6666ff">Metamodel::Documenting</text>
</a>
</g>
</g>
<!-- Metamodel::Versioning -->
<g id="node6" class="node">
<title>Metamodel::Versioning</title>
<g id="a_node6"><a xlink:href="/type/Metamodel::Versioning" xlink:title="Metamodel::Versioning">
<ellipse fill="none" stroke="#6666ff" cx="942.33" cy="-1624.02" rx="100.98" ry="18"/>
<text text-anchor="middle" x="942.33" y="-1620.32" font-family="FreeSans" font-size="14.00" fill="#6666ff">Metamodel::Versioning</text>
</a>
</g>
</g>
<!-- Metamodel::Stashing -->
<g id="node7" class="node">
<title>Metamodel::Stashing</title>
<g id="a_node7"><a xlink:href="/type/Metamodel::Stashing" xlink:title="Metamodel::Stashing">
<ellipse fill="none" stroke="#6666ff" cx="755.02" cy="-1325.09" rx="93.68" ry="18"/>
<text text-anchor="middle" x="755.02" y="-1321.39" font-family="FreeSans" font-size="14.00" fill="#6666ff">Metamodel::Stashing</text>
</a>
</g>
</g>
<!-- Metamodel::AttributeContainer -->
<g id="node8" class="node">
<title>Metamodel::AttributeContainer</title>
<g id="a_node8"><a xlink:href="/type/Metamodel::AttributeContainer" xlink:title="Metamodel::AttributeContainer">
<ellipse fill="none" stroke="#6666ff" cx="1225.67" cy="-912.05" rx="129.98" ry="18"/>
<text text-anchor="middle" x="1225.67" y="-908.35" font-family="FreeSans" font-size="14.00" fill="#6666ff">Metamodel::AttributeContainer</text>
</a>
</g>
</g>
<!-- Metamodel::Finalization -->
<g id="node9" class="node">
<title>Metamodel::Finalization</title>
<g id="a_node9"><a xlink:href="/type/Metamodel::Finalization" xlink:title="Metamodel::Finalization">
<ellipse fill="none" stroke="#6666ff" cx="103.99" cy="-1036.69" rx="103.98" ry="18"/>
<text text-anchor="middle" x="103.99" y="-1032.99" font-family="FreeSans" font-size="14.00" fill="#6666ff">Metamodel::Finalization</text>
</a>
</g>
</g>
<!-- Metamodel::MethodContainer -->
<g id="node10" class="node">
<title>Metamodel::MethodContainer</title>
<g id="a_node10"><a xlink:href="/type/Metamodel::MethodContainer" xlink:title="Metamodel::MethodContainer">
<ellipse fill="none" stroke="#6666ff" cx="1177.04" cy="-765.04" rx="127.28" ry="18"/>
<text text-anchor="middle" x="1177.04" y="-761.34" font-family="FreeSans" font-size="14.00" fill="#6666ff">Metamodel::MethodContainer</text>
</a>
</g>
</g>
<!-- Metamodel::PrivateMethodContainer -->
<g id="node11" class="node">
<title>Metamodel::PrivateMethodContainer</title>
<g id="a_node11"><a xlink:href="/type/Metamodel::PrivateMethodContainer" xlink:title="Metamodel::PrivateMethodContainer">
<ellipse fill="none" stroke="#6666ff" cx="1205.78" cy="-1611.91" rx="154.87" ry="18"/>
<text text-anchor="middle" x="1205.78" y="-1608.21" font-family="FreeSans" font-size="14.00" fill="#6666ff">Metamodel::PrivateMethodContainer</text>
</a>
</g>
</g>
<!-- Metamodel::RoleContainer -->
<g id="node12" class="node">
<title>Metamodel::RoleContainer</title>
<g id="a_node12"><a xlink:href="/type/Metamodel::RoleContainer" xlink:title="Metamodel::RoleContainer">
<ellipse fill="none" stroke="#6666ff" cx="996.65" cy="-1285.18" rx="115.88" ry="18"/>
<text text-anchor="middle" x="996.65" y="-1281.48" font-family="FreeSans" font-size="14.00" fill="#6666ff">Metamodel::RoleContainer</text>
</a>
</g>
</g>
<!-- Metamodel::MultipleInheritance -->
<g id="node13" class="node">
<title>Metamodel::MultipleInheritance</title>
<g id="a_node13"><a xlink:href="/type/Metamodel::MultipleInheritance" xlink:title="Metamodel::MultipleInheritance">
<ellipse fill="none" stroke="#6666ff" cx="1415.69" cy="-989.24" rx="133.78" ry="18"/>
<text text-anchor="middle" x="1415.69" y="-985.54" font-family="FreeSans" font-size="14.00" fill="#6666ff">Metamodel::MultipleInheritance</text>
</a>
</g>
</g>
<!-- Metamodel::DefaultParent -->
<g id="node14" class="node">
<title>Metamodel::DefaultParent</title>
<g id="a_node14"><a xlink:href="/type/Metamodel::DefaultParent" xlink:title="Metamodel::DefaultParent">
<ellipse fill="none" stroke="#6666ff" cx="397.86" cy="-1617.47" rx="113.18" ry="18"/>
<text text-anchor="middle" x="397.86" y="-1613.77" font-family="FreeSans" font-size="14.00" fill="#6666ff">Metamodel::DefaultParent</text>
</a>
</g>
</g>
<!-- Metamodel::C3MRO -->
<g id="node15" class="node">
<title>Metamodel::C3MRO</title>
<g id="a_node15"><a xlink:href="/type/Metamodel::C3MRO" xlink:title="Metamodel::C3MRO">
<ellipse fill="none" stroke="#6666ff" cx="257.08" cy="-1454.24" rx="92.08" ry="18"/>
<text text-anchor="middle" x="257.08" y="-1450.54" font-family="FreeSans" font-size="14.00" fill="#6666ff">Metamodel::C3MRO</text>
</a>
</g>
</g>
<!-- Metamodel::MROBasedMethodDispatch -->
<g id="node16" class="node">
<title>Metamodel::MROBasedMethodDispatch</title>
<g id="a_node16"><a xlink:href="/type/Metamodel::MROBasedMethodDispatch" xlink:title="Metamodel::MROBasedMethodDispatch">
<ellipse fill="none" stroke="#6666ff" cx="527.12" cy="-474.48" rx="169.77" ry="18"/>
<text text-anchor="middle" x="527.12" y="-470.78" font-family="FreeSans" font-size="14.00" fill="#6666ff">Metamodel::MROBasedMethodDispatch</text>
</a>
</g>
</g>
<!-- Metamodel::MROBasedTypeChecking -->
<g id="node17" class="node">
<title>Metamodel::MROBasedTypeChecking</title>
<g id="a_node17"><a xlink:href="/type/Metamodel::MROBasedTypeChecking" xlink:title="Metamodel::MROBasedTypeChecking">
<ellipse fill="none" stroke="#6666ff" cx="712.51" cy="-403.44" rx="163.27" ry="18"/>
<text text-anchor="middle" x="712.51" y="-399.74" font-family="FreeSans" font-size="14.00" fill="#6666ff">Metamodel::MROBasedTypeChecking</text>
</a>
</g>
</g>
<!-- Metamodel::Trusting -->
<g id="node18" class="node">
<title>Metamodel::Trusting</title>
<g id="a_node18"><a xlink:href="/type/Metamodel::Trusting" xlink:title="Metamodel::Trusting">
<ellipse fill="none" stroke="#6666ff" cx="162.12" cy="-1266.91" rx="91.78" ry="18"/>
<text text-anchor="middle" x="162.12" y="-1263.21" font-family="FreeSans" font-size="14.00" fill="#6666ff">Metamodel::Trusting</text>
</a>
</g>
</g>
<!-- Metamodel::BUILDPLAN -->
<g id="node19" class="node">
<title>Metamodel::BUILDPLAN</title>
<g id="a_node19"><a xlink:href="/type/Metamodel::BUILDPLAN" xlink:title="Metamodel::BUILDPLAN">
<ellipse fill="none" stroke="#6666ff" cx="387.84" cy="-569.49" rx="109.68" ry="18"/>
<text text-anchor="middle" x="387.84" y="-565.79" font-family="FreeSans" font-size="14.00" fill="#6666ff">Metamodel::BUILDPLAN</text>
</a>
</g>
</g>
<!-- Metamodel::Mixins -->
<g id="node20" class="node">
<title>Metamodel::Mixins</title>
<g id="a_node20"><a xlink:href="/type/Metamodel::Mixins" xlink:title="Metamodel::Mixins">
<ellipse fill="none" stroke="#6666ff" cx="343.34" cy="-884.62" rx="85.29" ry="18"/>
<text text-anchor="middle" x="343.34" y="-880.92" font-family="FreeSans" font-size="14.00" fill="#6666ff">Metamodel::Mixins</text>
</a>
</g>
</g>
<!-- Metamodel::BoolificationProtocol -->
<g id="node21" class="node">
<title>Metamodel::BoolificationProtocol</title>
<g id="a_node21"><a xlink:href="/type/Metamodel::BoolificationProtocol" xlink:title="Metamodel::BoolificationProtocol">
<ellipse fill="none" stroke="#6666ff" cx="315.81" cy="-713" rx="139.18" ry="18"/>
<text text-anchor="middle" x="315.81" y="-709.3" font-family="FreeSans" font-size="14.00" fill="#6666ff">Metamodel::BoolificationProtocol</text>
</a>
</g>
</g>
<!-- Metamodel::ClassHOW -->
<g id="node22" class="node">
<title>Metamodel::ClassHOW</title>
<g id="a_node22"><a xlink:href="/type/Metamodel::ClassHOW" xlink:title="Metamodel::ClassHOW">
<ellipse fill="none" stroke="#000000" cx="707.14" cy="-1055.29" rx="103.18" ry="18"/>
<text text-anchor="middle" x="707.14" y="-1051.59" font-family="FreeSans" font-size="14.00" fill="#000000">Metamodel::ClassHOW</text>
</a>
</g>
</g>
<!-- Metamodel::ClassHOW&#45;&gt;Metamodel::MultiMethodContainer -->
<g id="edge14" class="edge">
<title>Metamodel::ClassHOW&#45;&gt;Metamodel::MultiMethodContainer</title>
<path fill="none" stroke="#6666ff" d="M775.4,-1041.64C832.62,-1030.19 914.65,-1013.78 976.54,-1001.4"/>
<polygon fill="#6666ff" stroke="#6666ff" points="977.56,-1004.76 986.68,-999.37 976.19,-997.9 977.56,-1004.76"/>
</g>
<!-- Metamodel::ClassHOW&#45;&gt;Any -->
<g id="edge2" class="edge">
<title>Metamodel::ClassHOW&#45;&gt;Any</title>
<path fill="none" stroke="#000000" d="M742.37,-1038.22C870.74,-976.01 1306.03,-765.06 1306.03,-765.06 1306.03,-765.06 1313.55,-759.46 1322.29,-752.95"/>
<polygon fill="#000000" stroke="#000000" points="1324.55,-755.63 1330.48,-746.85 1320.37,-750.01 1324.55,-755.63"/>
</g>
<!-- Metamodel::ClassHOW&#45;&gt;Metamodel::Naming -->
<g id="edge6" class="edge">
<title>Metamodel::ClassHOW&#45;&gt;Metamodel::Naming</title>
<path fill="none" stroke="#6666ff" d="M765.61,-1070.29C834.72,-1088.01 949.4,-1117.42 1021.36,-1135.88"/>
<polygon fill="#6666ff" stroke="#6666ff" points="1020.67,-1139.31 1031.22,-1138.4 1022.41,-1132.53 1020.67,-1139.31"/>
</g>
<!-- Metamodel::ClassHOW&#45;&gt;Metamodel::Documenting -->
<g id="edge7" class="edge">
<title>Metamodel::ClassHOW&#45;&gt;Metamodel::Documenting</title>
<path fill="none" stroke="#6666ff" d="M703.96,-1073.41C693.35,-1133.87 659.83,-1324.98 659.83,-1324.98 659.83,-1324.98 751.56,-1576.62 782.48,-1661.46"/>
<polygon fill="#6666ff" stroke="#6666ff" points="779.23,-1662.76 785.94,-1670.95 785.81,-1660.36 779.23,-1662.76"/>
</g>
<!-- Metamodel::ClassHOW&#45;&gt;Metamodel::Versioning -->
<g id="edge8" class="edge">
<title>Metamodel::ClassHOW&#45;&gt;Metamodel::Versioning</title>
<path fill="none" stroke="#6666ff" d="M716.75,-1073.42C748.83,-1133.94 850.21,-1325.2 850.21,-1325.2 850.21,-1325.2 910.86,-1521.95 933.74,-1596.15"/>
<polygon fill="#6666ff" stroke="#6666ff" points="930.41,-1597.25 936.7,-1605.78 937.1,-1595.19 930.41,-1597.25"/>
</g>
<!-- Metamodel::ClassHOW&#45;&gt;Metamodel::Stashing -->
<g id="edge9" class="edge">
<title>Metamodel::ClassHOW&#45;&gt;Metamodel::Stashing</title>
<path fill="none" stroke="#6666ff" d="M710.35,-1073.41C718.53,-1119.49 740.17,-1241.4 750.01,-1296.88"/>
<polygon fill="#6666ff" stroke="#6666ff" points="746.62,-1297.81 751.82,-1307.05 753.52,-1296.59 746.62,-1297.81"/>
</g>
<!-- Metamodel::ClassHOW&#45;&gt;Metamodel::AttributeContainer -->
<g id="edge10" class="edge">
<title>Metamodel::ClassHOW&#45;&gt;Metamodel::AttributeContainer</title>
<path fill="none" stroke="#6666ff" d="M754.16,-1039.19C815.63,-1018.14 915.53,-983.93 915.53,-983.93 915.53,-983.93 959.32,-970.1 959.32,-970.1 959.32,-970.1 1067.34,-946.56 1145.8,-929.46"/>
<polygon fill="#6666ff" stroke="#6666ff" points="1146.66,-932.85 1155.69,-927.3 1145.17,-926.01 1146.66,-932.85"/>
</g>
<!-- Metamodel::ClassHOW&#45;&gt;Metamodel::Finalization -->
<g id="edge11" class="edge">
<title>Metamodel::ClassHOW&#45;&gt;Metamodel::Finalization</title>
<path fill="none" stroke="#6666ff" d="M605.16,-1052.15C497.51,-1048.83 328.25,-1043.61 216.7,-1040.16"/>
<polygon fill="#6666ff" stroke="#6666ff" points="216.53,-1036.66 206.42,-1039.85 216.31,-1043.65 216.53,-1036.66"/>
</g>
<!-- Metamodel::ClassHOW&#45;&gt;Metamodel::MethodContainer -->
<g id="edge12" class="edge">
<title>Metamodel::ClassHOW&#45;&gt;Metamodel::MethodContainer</title>
<path fill="none" stroke="#6666ff" d="M735.47,-1037.79C816.42,-987.8 1048.67,-844.34 1139.75,-788.08"/>
<polygon fill="#6666ff" stroke="#6666ff" points="1141.7,-790.99 1148.37,-782.75 1138.02,-785.03 1141.7,-790.99"/>
</g>
<!-- Metamodel::ClassHOW&#45;&gt;Metamodel::PrivateMethodContainer -->
<g id="edge13" class="edge">
<title>Metamodel::ClassHOW&#45;&gt;Metamodel::PrivateMethodContainer</title>
<path fill="none" stroke="#6666ff" d="M720.65,-1073.32C761.25,-1127.48 879.37,-1285.05 879.37,-1285.05 879.37,-1285.05 1103.67,-1509.65 1180.4,-1586.49"/>
<polygon fill="#6666ff" stroke="#6666ff" points="1178.22,-1589.27 1187.76,-1593.87 1183.18,-1584.32 1178.22,-1589.27"/>
</g>
<!-- Metamodel::ClassHOW&#45;&gt;Metamodel::RoleContainer -->
<g id="edge15" class="edge">
<title>Metamodel::ClassHOW&#45;&gt;Metamodel::RoleContainer</title>
<path fill="none" stroke="#6666ff" d="M729.38,-1072.95C780.74,-1113.74 907.7,-1214.55 966.22,-1261.02"/>
<polygon fill="#6666ff" stroke="#6666ff" points="964.33,-1263.99 974.34,-1267.47 968.69,-1258.51 964.33,-1263.99"/>
</g>
<!-- Metamodel::ClassHOW&#45;&gt;Metamodel::MultipleInheritance -->
<g id="edge16" class="edge">
<title>Metamodel::ClassHOW&#45;&gt;Metamodel::MultipleInheritance</title>
<path fill="none" stroke="#6666ff" d="M798.32,-1046.79C925.07,-1034.98 1154.74,-1013.57 1295.4,-1000.45"/>
<polygon fill="#6666ff" stroke="#6666ff" points="1295.74,-1003.94 1305.37,-999.52 1295.09,-996.97 1295.74,-1003.94"/>
</g>
<!-- Metamodel::ClassHOW&#45;&gt;Metamodel::DefaultParent -->
<g id="edge17" class="edge">
<title>Metamodel::ClassHOW&#45;&gt;Metamodel::DefaultParent</title>
<path fill="none" stroke="#6666ff" d="M697.2,-1073.36C652.12,-1155.3 466.76,-1492.23 412.71,-1590.47"/>
<polygon fill="#6666ff" stroke="#6666ff" points="409.51,-1589.02 407.76,-1599.47 415.65,-1592.4 409.51,-1589.02"/>
</g>
<!-- Metamodel::ClassHOW&#45;&gt;Metamodel::C3MRO -->
<g id="edge18" class="edge">
<title>Metamodel::ClassHOW&#45;&gt;Metamodel::C3MRO</title>
<path fill="none" stroke="#6666ff" d="M686.93,-1073.21C614.43,-1137.47 367.41,-1356.44 284.48,-1429.95"/>
<polygon fill="#6666ff" stroke="#6666ff" points="282.14,-1427.35 276.98,-1436.6 286.78,-1432.58 282.14,-1427.35"/>
</g>
<!-- Metamodel::ClassHOW&#45;&gt;Metamodel::MROBasedMethodDispatch -->
<g id="edge19" class="edge">
<title>Metamodel::ClassHOW&#45;&gt;Metamodel::MROBasedMethodDispatch</title>
<path fill="none" stroke="#6666ff" d="M701.55,-1037.27C675.67,-953.78 567.34,-604.26 535.78,-502.43"/>
<polygon fill="#6666ff" stroke="#6666ff" points="539.03,-501.09 532.73,-492.57 532.34,-503.16 539.03,-501.09"/>
</g>
<!-- Metamodel::ClassHOW&#45;&gt;Metamodel::MROBasedTypeChecking -->
<g id="edge20" class="edge">
<title>Metamodel::ClassHOW&#45;&gt;Metamodel::MROBasedTypeChecking</title>
<path fill="none" stroke="#6666ff" d="M707.29,-1037.18C708.03,-946.54 711.37,-542.2 712.28,-431.52"/>
<polygon fill="#6666ff" stroke="#6666ff" points="715.78,-431.49 712.36,-421.47 708.78,-431.44 715.78,-431.49"/>
</g>
<!-- Metamodel::ClassHOW&#45;&gt;Metamodel::Trusting -->
<g id="edge21" class="edge">
<title>Metamodel::ClassHOW&#45;&gt;Metamodel::Trusting</title>
<path fill="none" stroke="#6666ff" d="M664.82,-1071.72C565.99,-1110.1 320.27,-1205.51 213.27,-1247.05"/>
<polygon fill="#6666ff" stroke="#6666ff" points="211.71,-1243.9 203.66,-1250.78 214.25,-1250.43 211.71,-1243.9"/>
</g>
<!-- Metamodel::ClassHOW&#45;&gt;Metamodel::BUILDPLAN -->
<g id="edge22" class="edge">
<title>Metamodel::ClassHOW&#45;&gt;Metamodel::BUILDPLAN</title>
<path fill="none" stroke="#6666ff" d="M695.2,-1037.14C646.55,-963.1 463,-683.84 405.31,-596.06"/>
<polygon fill="#6666ff" stroke="#6666ff" points="408.08,-593.92 399.67,-587.48 402.23,-597.76 408.08,-593.92"/>
</g>
<!-- Metamodel::ClassHOW&#45;&gt;Metamodel::Mixins -->
<g id="edge23" class="edge">
<title>Metamodel::ClassHOW&#45;&gt;Metamodel::Mixins</title>
<path fill="none" stroke="#6666ff" d="M670.93,-1038.3C603.85,-1006.83 460.48,-939.58 387.7,-905.43"/>
<polygon fill="#6666ff" stroke="#6666ff" points="388.88,-902.12 378.34,-901.04 385.9,-908.45 388.88,-902.12"/>
</g>
<!-- Metamodel::ClassHOW&#45;&gt;Metamodel::BoolificationProtocol -->
<g id="edge24" class="edge">
<title>Metamodel::ClassHOW&#45;&gt;Metamodel::BoolificationProtocol</title>
<path fill="none" stroke="#6666ff" d="M686.92,-1037.61C622.14,-980.95 419.56,-803.75 344.32,-737.94"/>
<polygon fill="#6666ff" stroke="#6666ff" points="346.45,-735.15 336.62,-731.2 341.84,-740.42 346.45,-735.15"/>
</g>
<!-- Metamodel::TypePretense -->
<g id="node23" class="node">
<title>Metamodel::TypePretense</title>
<g id="a_node23"><a xlink:href="/type/Metamodel::TypePretense" xlink:title="Metamodel::TypePretense">
<ellipse fill="none" stroke="#6666ff" cx="1729.67" cy="-1826.03" rx="114.28" ry="18"/>
<text text-anchor="middle" x="1729.67" y="-1822.33" font-family="FreeSans" font-size="14.00" fill="#6666ff">Metamodel::TypePretense</text>
</a>
</g>
</g>
<!-- Metamodel::RolePunning -->
<g id="node24" class="node">
<title>Metamodel::RolePunning</title>
<g id="a_node24"><a xlink:href="/type/Metamodel::RolePunning" xlink:title="Metamodel::RolePunning">
<ellipse fill="none" stroke="#6666ff" cx="1965.66" cy="-1447.98" rx="109.68" ry="18"/>
<text text-anchor="middle" x="1965.66" y="-1444.28" font-family="FreeSans" font-size="14.00" fill="#6666ff">Metamodel::RolePunning</text>
</a>
</g>
</g>
<!-- Metamodel::ParametricRoleHOW -->
<g id="node25" class="node">
<title>Metamodel::ParametricRoleHOW</title>
<g id="a_node25"><a xlink:href="/type/Metamodel::ParametricRoleHOW" xlink:title="Metamodel::ParametricRoleHOW">
<ellipse fill="none" stroke="#000000" cx="1395.61" cy="-1375.54" rx="141.88" ry="18"/>
<text text-anchor="middle" x="1395.61" y="-1371.84" font-family="FreeSans" font-size="14.00" fill="#000000">Metamodel::ParametricRoleHOW</text>
</a>
</g>
</g>
<!-- Metamodel::ParametricRoleHOW&#45;&gt;Metamodel::MultiMethodContainer -->
<g id="edge30" class="edge">
<title>Metamodel::ParametricRoleHOW&#45;&gt;Metamodel::MultiMethodContainer</title>
<path fill="none" stroke="#6666ff" d="M1380.25,-1357.44C1326.67,-1294.31 1147.9,-1083.65 1085.27,-1009.84"/>
<polygon fill="#6666ff" stroke="#6666ff" points="1087.7,-1007.29 1078.56,-1001.93 1082.36,-1011.82 1087.7,-1007.29"/>
</g>
<!-- Metamodel::ParametricRoleHOW&#45;&gt;Any -->
<g id="edge3" class="edge">
<title>Metamodel::ParametricRoleHOW&#45;&gt;Any</title>
<path fill="none" stroke="#000000" d="M1390.2,-1357.42C1367.38,-1281.02 1280.21,-989.09 1280.21,-989.09 1280.21,-989.09 1357.25,-912.15 1357.25,-912.15 1357.25,-912.15 1352.59,-812.01 1350.23,-761.52"/>
<polygon fill="#000000" stroke="#000000" points="1353.72,-761.09 1349.76,-751.26 1346.72,-761.42 1353.72,-761.09"/>
</g>
<!-- Metamodel::ParametricRoleHOW&#45;&gt;Metamodel::Naming -->
<g id="edge25" class="edge">
<title>Metamodel::ParametricRoleHOW&#45;&gt;Metamodel::Naming</title>
<path fill="none" stroke="#6666ff" d="M1370.85,-1357.68C1315.47,-1317.71 1181.57,-1221.1 1119.4,-1176.24"/>
<polygon fill="#6666ff" stroke="#6666ff" points="1121.28,-1173.28 1111.12,-1170.26 1117.18,-1178.95 1121.28,-1173.28"/>
</g>
<!-- Metamodel::ParametricRoleHOW&#45;&gt;Metamodel::Documenting -->
<g id="edge26" class="edge">
<title>Metamodel::ParametricRoleHOW&#45;&gt;Metamodel::Documenting</title>
<path fill="none" stroke="#6666ff" d="M1356.57,-1392.98C1234.85,-1447.33 870.43,-1610.07 870.43,-1610.07 870.43,-1610.07 839.99,-1623.89 839.99,-1623.89 839.99,-1623.89 825.07,-1644.36 811.96,-1662.34"/>
<polygon fill="#6666ff" stroke="#6666ff" points="808.81,-1660.73 805.75,-1670.87 814.46,-1664.85 808.81,-1660.73"/>
</g>
<!-- Metamodel::ParametricRoleHOW&#45;&gt;Metamodel::Versioning -->
<g id="edge27" class="edge">
<title>Metamodel::ParametricRoleHOW&#45;&gt;Metamodel::Versioning</title>
<path fill="none" stroke="#6666ff" d="M1363.37,-1393.21C1282.6,-1437.49 1071.66,-1553.12 982.76,-1601.85"/>
<polygon fill="#6666ff" stroke="#6666ff" points="980.88,-1598.89 973.79,-1606.77 984.25,-1605.03 980.88,-1598.89"/>
</g>
<!-- Metamodel::ParametricRoleHOW&#45;&gt;Metamodel::Stashing -->
<g id="edge34" class="edge">
<title>Metamodel::ParametricRoleHOW&#45;&gt;Metamodel::Stashing</title>
<path fill="none" stroke="#6666ff" d="M1275.12,-1366.05C1152.69,-1356.41 965.41,-1341.66 852.15,-1332.74"/>
<polygon fill="#6666ff" stroke="#6666ff" points="852.34,-1329.24 842.1,-1331.95 851.79,-1336.22 852.34,-1329.24"/>
</g>
<!-- Metamodel::ParametricRoleHOW&#45;&gt;Metamodel::AttributeContainer -->
<g id="edge31" class="edge">
<title>Metamodel::ParametricRoleHOW&#45;&gt;Metamodel::AttributeContainer</title>
<path fill="none" stroke="#6666ff" d="M1388.95,-1357.37C1362.82,-1286.13 1267.27,-1025.51 1235.79,-939.67"/>
<polygon fill="#6666ff" stroke="#6666ff" points="1239.01,-938.28 1232.28,-930.1 1232.44,-940.69 1239.01,-938.28"/>
</g>
<!-- Metamodel::ParametricRoleHOW&#45;&gt;Metamodel::MethodContainer -->
<g id="edge28" class="edge">
<title>Metamodel::ParametricRoleHOW&#45;&gt;Metamodel::MethodContainer</title>
<path fill="none" stroke="#6666ff" d="M1387.09,-1357.45C1350.82,-1280.47 1211.2,-984.12 1211.2,-984.12 1211.2,-984.12 1094.08,-911.95 1094.08,-911.95 1094.08,-911.95 1137.85,-834.45 1161.8,-792.03"/>
<polygon fill="#6666ff" stroke="#6666ff" points="1165,-793.49 1166.87,-783.06 1158.91,-790.04 1165,-793.49"/>
</g>
<!-- Metamodel::ParametricRoleHOW&#45;&gt;Metamodel::PrivateMethodContainer -->
<g id="edge29" class="edge">
<title>Metamodel::ParametricRoleHOW&#45;&gt;Metamodel::PrivateMethodContainer</title>
<path fill="none" stroke="#6666ff" d="M1381.03,-1393.7C1347.63,-1435.29 1265.47,-1537.59 1226.69,-1585.88"/>
<polygon fill="#6666ff" stroke="#6666ff" points="1223.94,-1583.7 1220.41,-1593.69 1229.4,-1588.09 1223.94,-1583.7"/>
</g>
<!-- Metamodel::ParametricRoleHOW&#45;&gt;Metamodel::RoleContainer -->
<g id="edge32" class="edge">
<title>Metamodel::ParametricRoleHOW&#45;&gt;Metamodel::RoleContainer</title>
<path fill="none" stroke="#6666ff" d="M1326.12,-1359.8C1255.22,-1343.75 1145.53,-1318.9 1072.44,-1302.35"/>
<polygon fill="#6666ff" stroke="#6666ff" points="1072.9,-1298.86 1062.37,-1300.07 1071.35,-1305.69 1072.9,-1298.86"/>
</g>
<!-- Metamodel::ParametricRoleHOW&#45;&gt;Metamodel::MultipleInheritance -->
<g id="edge33" class="edge">
<title>Metamodel::ParametricRoleHOW&#45;&gt;Metamodel::MultipleInheritance</title>
<path fill="none" stroke="#6666ff" d="M1394.48,-1357.32C1391.96,-1316.62 1386.1,-1221.91 1386.1,-1221.91 1386.1,-1221.91 1404.16,-1079.91 1412.06,-1017.78"/>
<polygon fill="#6666ff" stroke="#6666ff" points="1415.58,-1017.86 1413.37,-1007.5 1408.63,-1016.98 1415.58,-1017.86"/>
</g>
<!-- Metamodel::ParametricRoleHOW&#45;&gt;Metamodel::TypePretense -->
<g id="edge35" class="edge">
<title>Metamodel::ParametricRoleHOW&#45;&gt;Metamodel::TypePretense</title>
<path fill="none" stroke="#6666ff" d="M1408.91,-1393.48C1460.71,-1463.34 1649.12,-1717.41 1710.32,-1799.94"/>
<polygon fill="#6666ff" stroke="#6666ff" points="1707.56,-1802.09 1716.33,-1808.04 1713.18,-1797.92 1707.56,-1802.09"/>
</g>
<!-- Metamodel::ParametricRoleHOW&#45;&gt;Metamodel::RolePunning -->
<g id="edge36" class="edge">
<title>Metamodel::ParametricRoleHOW&#45;&gt;Metamodel::RolePunning</title>
<path fill="none" stroke="#6666ff" d="M1495.88,-1388.29C1600.85,-1401.62 1764.55,-1422.43 1868.39,-1435.62"/>
<polygon fill="#6666ff" stroke="#6666ff" points="1868.19,-1439.12 1878.55,-1436.91 1869.08,-1432.18 1868.19,-1439.12"/>
</g>
<!-- Metamodel::BaseType -->
<g id="node26" class="node">
<title>Metamodel::BaseType</title>
<g id="a_node26"><a xlink:href="/type/Metamodel::BaseType" xlink:title="Metamodel::BaseType">
<ellipse fill="none" stroke="#6666ff" cx="994.55" cy="-18" rx="99.38" ry="18"/>
<text text-anchor="middle" x="994.55" y="-14.3" font-family="FreeSans" font-size="14.00" fill="#6666ff">Metamodel::BaseType</text>
</a>
</g>
</g>
<!-- Metamodel::EnumHOW -->
<g id="node27" class="node">
<title>Metamodel::EnumHOW</title>
<g id="a_node27"><a xlink:href="/type/Metamodel::EnumHOW" xlink:title="Metamodel::EnumHOW">
<ellipse fill="none" stroke="#000000" cx="858.31" cy="-651.66" rx="104.78" ry="18"/>
<text text-anchor="middle" x="858.31" y="-647.96" font-family="FreeSans" font-size="14.00" fill="#000000">Metamodel::EnumHOW</text>
</a>
</g>
</g>
<!-- Metamodel::EnumHOW&#45;&gt;Metamodel::MultiMethodContainer -->
<g id="edge41" class="edge">
<title>Metamodel::EnumHOW&#45;&gt;Metamodel::MultiMethodContainer</title>
<path fill="none" stroke="#6666ff" d="M869.63,-670C903.87,-725.5 1006.48,-891.82 1046.82,-957.21"/>
<polygon fill="#6666ff" stroke="#6666ff" points="1043.85,-959.07 1052.08,-965.74 1049.81,-955.39 1043.85,-959.07"/>
</g>
<!-- Metamodel::EnumHOW&#45;&gt;Any -->
<g id="edge4" class="edge">
<title>Metamodel::EnumHOW&#45;&gt;Any</title>
<path fill="none" stroke="#000000" d="M933.62,-664.16C1040.69,-681.94 1232.75,-713.83 1312.58,-727.08"/>
<polygon fill="#000000" stroke="#000000" points="1312.19,-730.56 1322.63,-728.75 1313.34,-723.66 1312.19,-730.56"/>
</g>
<!-- Metamodel::EnumHOW&#45;&gt;Metamodel::Naming -->
<g id="edge37" class="edge">
<title>Metamodel::EnumHOW&#45;&gt;Metamodel::Naming</title>
<path fill="none" stroke="#6666ff" d="M861.47,-670C873.46,-739.66 915.53,-983.93 915.53,-983.93 915.53,-983.93 1013.93,-1080.92 1061.5,-1127.82"/>
<polygon fill="#6666ff" stroke="#6666ff" points="1059.1,-1130.36 1068.68,-1134.89 1064.02,-1125.38 1059.1,-1130.36"/>
</g>
<!-- Metamodel::EnumHOW&#45;&gt;Metamodel::Stashing -->
<g id="edge38" class="edge">
<title>Metamodel::EnumHOW&#45;&gt;Metamodel::Stashing</title>
<path fill="none" stroke="#6666ff" d="M856.24,-669.79C847.24,-748.36 812.08,-1055.41 812.08,-1055.41 812.08,-1055.41 775.65,-1227.59 761.01,-1296.79"/>
<polygon fill="#6666ff" stroke="#6666ff" points="757.5,-1296.47 758.85,-1306.97 764.35,-1297.92 757.5,-1296.47"/>
</g>
<!-- Metamodel::EnumHOW&#45;&gt;Metamodel::AttributeContainer -->
<g id="edge39" class="edge">
<title>Metamodel::EnumHOW&#45;&gt;Metamodel::AttributeContainer</title>
<path fill="none" stroke="#6666ff" d="M883.27,-669.35C947.67,-715 1119.47,-836.78 1192.3,-888.4"/>
<polygon fill="#6666ff" stroke="#6666ff" points="1190.49,-891.41 1200.67,-894.33 1194.54,-885.7 1190.49,-891.41"/>
</g>
<!-- Metamodel::EnumHOW&#45;&gt;Metamodel::MethodContainer -->
<g id="edge40" class="edge">
<title>Metamodel::EnumHOW&#45;&gt;Metamodel::MethodContainer</title>
<path fill="none" stroke="#6666ff" d="M903.98,-667.91C961,-688.19 1058.55,-722.89 1120.31,-744.86"/>
<polygon fill="#6666ff" stroke="#6666ff" points="1119.31,-748.22 1129.9,-748.27 1121.66,-741.62 1119.31,-748.22"/>
</g>
<!-- Metamodel::EnumHOW&#45;&gt;Metamodel::RoleContainer -->
<g id="edge42" class="edge">
<title>Metamodel::EnumHOW&#45;&gt;Metamodel::RoleContainer</title>
<path fill="none" stroke="#6666ff" d="M861.47,-670C873.46,-739.66 915.53,-983.93 915.53,-983.93 915.53,-983.93 968.94,-1182.29 989.09,-1257.09"/>
<polygon fill="#6666ff" stroke="#6666ff" points="985.72,-1258.05 991.7,-1266.79 992.48,-1256.23 985.72,-1258.05"/>
</g>
<!-- Metamodel::EnumHOW&#45;&gt;Metamodel::MROBasedMethodDispatch -->
<g id="edge44" class="edge">
<title>Metamodel::EnumHOW&#45;&gt;Metamodel::MROBasedMethodDispatch</title>
<path fill="none" stroke="#6666ff" d="M826.25,-634.51C766.1,-602.33 636.32,-532.9 569.21,-497"/>
<polygon fill="#6666ff" stroke="#6666ff" points="570.64,-493.79 560.17,-492.16 567.34,-499.96 570.64,-493.79"/>
</g>
<!-- Metamodel::EnumHOW&#45;&gt;Metamodel::MROBasedTypeChecking -->
<g id="edge45" class="edge">
<title>Metamodel::EnumHOW&#45;&gt;Metamodel::MROBasedTypeChecking</title>
<path fill="none" stroke="#6666ff" d="M847.59,-633.41C822.21,-590.19 758.33,-481.44 728.42,-430.52"/>
<polygon fill="#6666ff" stroke="#6666ff" points="731.33,-428.57 723.25,-421.72 725.3,-432.11 731.33,-428.57"/>
</g>
<!-- Metamodel::EnumHOW&#45;&gt;Metamodel::BUILDPLAN -->
<g id="edge46" class="edge">
<title>Metamodel::EnumHOW&#45;&gt;Metamodel::BUILDPLAN</title>
<path fill="none" stroke="#6666ff" d="M784.8,-638.82C700.44,-624.09 562.3,-599.96 473.24,-584.41"/>
<polygon fill="#6666ff" stroke="#6666ff" points="473.62,-580.92 463.17,-582.65 472.42,-587.82 473.62,-580.92"/>
</g>
<!-- Metamodel::EnumHOW&#45;&gt;Metamodel::Mixins -->
<g id="edge48" class="edge">
<title>Metamodel::EnumHOW&#45;&gt;Metamodel::Mixins</title>
<path fill="none" stroke="#6666ff" d="M820.86,-668.6C728.37,-710.44 489.37,-818.56 388.9,-864.01"/>
<polygon fill="#6666ff" stroke="#6666ff" points="387.29,-860.9 379.62,-868.21 390.17,-867.28 387.29,-860.9"/>
</g>
<!-- Metamodel::EnumHOW&#45;&gt;Metamodel::BoolificationProtocol -->
<g id="edge47" class="edge">
<title>Metamodel::EnumHOW&#45;&gt;Metamodel::BoolificationProtocol</title>
<path fill="none" stroke="#6666ff" d="M770.85,-661.55C678.47,-672 532.4,-688.51 430.77,-700"/>
<polygon fill="#6666ff" stroke="#6666ff" points="430.31,-696.53 420.77,-701.13 431.1,-703.49 430.31,-696.53"/>
</g>
<!-- Metamodel::EnumHOW&#45;&gt;Metamodel::BaseType -->
<g id="edge43" class="edge">
<title>Metamodel::EnumHOW&#45;&gt;Metamodel::BaseType</title>
<path fill="none" stroke="#6666ff" d="M862.24,-633.38C881.43,-544.12 965.3,-154.06 988.55,-45.9"/>
<polygon fill="#6666ff" stroke="#6666ff" points="991.99,-46.56 990.67,-36.05 985.14,-45.09 991.99,-46.56"/>
</g>
<!-- Metamodel::ConcreteRoleHOW -->
<g id="node28" class="node">
<title>Metamodel::ConcreteRoleHOW</title>
<g id="a_node28"><a xlink:href="/type/Metamodel::ConcreteRoleHOW" xlink:title="Metamodel::ConcreteRoleHOW">
<ellipse fill="none" stroke="#000000" cx="1522.89" cy="-1222.06" rx="135.38" ry="18"/>
<text text-anchor="middle" x="1522.89" y="-1218.36" font-family="FreeSans" font-size="14.00" fill="#000000">Metamodel::ConcreteRoleHOW</text>
</a>
</g>
</g>
<!-- Metamodel::ConcreteRoleHOW&#45;&gt;Metamodel::MultiMethodContainer -->
<g id="edge53" class="edge">
<title>Metamodel::ConcreteRoleHOW&#45;&gt;Metamodel::MultiMethodContainer</title>
<path fill="none" stroke="#6666ff" d="M1489.1,-1204.56C1406.94,-1162 1196.82,-1053.16 1106.12,-1006.17"/>
<polygon fill="#6666ff" stroke="#6666ff" points="1107.69,-1003.05 1097.2,-1001.56 1104.47,-1009.26 1107.69,-1003.05"/>
</g>
<!-- Metamodel::ConcreteRoleHOW&#45;&gt;Any -->
<g id="edge5" class="edge">
<title>Metamodel::ConcreteRoleHOW&#45;&gt;Any</title>
<path fill="none" stroke="#000000" d="M1525.11,-1203.81C1531.78,-1148.96 1551.17,-989.39 1551.17,-989.39 1551.17,-989.39 1418.06,-820.73 1367.81,-757.06"/>
<polygon fill="#000000" stroke="#000000" points="1370.5,-754.82 1361.56,-749.14 1365.01,-759.16 1370.5,-754.82"/>
</g>
<!-- Metamodel::ConcreteRoleHOW&#45;&gt;Metamodel::Naming -->
<g id="edge49" class="edge">
<title>Metamodel::ConcreteRoleHOW&#45;&gt;Metamodel::Naming</title>
<path fill="none" stroke="#6666ff" d="M1435.92,-1208.22C1357.66,-1195.76 1243.58,-1177.6 1167.33,-1165.46"/>
<polygon fill="#6666ff" stroke="#6666ff" points="1167.72,-1161.98 1157.29,-1163.87 1166.62,-1168.89 1167.72,-1161.98"/>
</g>
<!-- Metamodel::ConcreteRoleHOW&#45;&gt;Metamodel::Versioning -->
<g id="edge50" class="edge">
<title>Metamodel::ConcreteRoleHOW&#45;&gt;Metamodel::Versioning</title>
<path fill="none" stroke="#6666ff" d="M1491.85,-1239.66C1420.78,-1279.96 1252.32,-1375.49 1252.32,-1375.49 1252.32,-1375.49 1050.66,-1537.16 972.64,-1599.72"/>
<polygon fill="#6666ff" stroke="#6666ff" points="970.23,-1597.16 964.62,-1606.15 974.61,-1602.62 970.23,-1597.16"/>
</g>
<!-- Metamodel::ConcreteRoleHOW&#45;&gt;Metamodel::AttributeContainer -->
<g id="edge54" class="edge">
<title>Metamodel::ConcreteRoleHOW&#45;&gt;Metamodel::AttributeContainer</title>
<path fill="none" stroke="#6666ff" d="M1504.25,-1204.17C1447.42,-1149.62 1280.21,-989.09 1280.21,-989.09 1280.21,-989.09 1260.17,-960.78 1244.38,-938.49"/>
<polygon fill="#6666ff" stroke="#6666ff" points="1247.23,-936.45 1238.59,-930.31 1241.51,-940.49 1247.23,-936.45"/>
</g>
<!-- Metamodel::ConcreteRoleHOW&#45;&gt;Metamodel::MethodContainer -->
<g id="edge52" class="edge">
<title>Metamodel::ConcreteRoleHOW&#45;&gt;Metamodel::MethodContainer</title>
<path fill="none" stroke="#6666ff" d="M1525.11,-1203.81C1531.78,-1148.96 1551.17,-989.39 1551.17,-989.39 1551.17,-989.39 1310.38,-845 1215.15,-787.89"/>
<polygon fill="#6666ff" stroke="#6666ff" points="1216.78,-784.79 1206.4,-782.65 1213.18,-790.79 1216.78,-784.79"/>
</g>
<!-- Metamodel::ConcreteRoleHOW&#45;&gt;Metamodel::PrivateMethodContainer -->
<g id="edge51" class="edge">
<title>Metamodel::ConcreteRoleHOW&#45;&gt;Metamodel::PrivateMethodContainer</title>
<path fill="none" stroke="#6666ff" d="M1491.85,-1239.66C1420.78,-1279.96 1252.32,-1375.49 1252.32,-1375.49 1252.32,-1375.49 1223.66,-1521.06 1211.32,-1583.75"/>
<polygon fill="#6666ff" stroke="#6666ff" points="1207.85,-1583.26 1209.35,-1593.75 1214.72,-1584.61 1207.85,-1583.26"/>
</g>
<!-- Metamodel::ConcreteRoleHOW&#45;&gt;Metamodel::RoleContainer -->
<g id="edge55" class="edge">
<title>Metamodel::ConcreteRoleHOW&#45;&gt;Metamodel::RoleContainer</title>
<path fill="none" stroke="#6666ff" d="M1422.36,-1234.12C1329.39,-1245.27 1191.88,-1261.77 1098.49,-1272.97"/>
<polygon fill="#6666ff" stroke="#6666ff" points="1097.97,-1269.51 1088.46,-1274.17 1098.81,-1276.46 1097.97,-1269.51"/>
</g>
<!-- Metamodel::ConcreteRoleHOW&#45;&gt;Metamodel::MultipleInheritance -->
<g id="edge56" class="edge">
<title>Metamodel::ConcreteRoleHOW&#45;&gt;Metamodel::MultipleInheritance</title>
<path fill="none" stroke="#6666ff" d="M1514.48,-1203.8C1495.73,-1163.08 1450.43,-1064.69 1428.29,-1016.61"/>
<polygon fill="#6666ff" stroke="#6666ff" points="1431.42,-1015.04 1424.06,-1007.42 1425.07,-1017.97 1431.42,-1015.04"/>
</g>
</g>
</svg>
