<?xml version="1.0" encoding="UTF-8" standalone="no"?>
<!DOCTYPE svg PUBLIC "-//W3C//DTD SVG 1.1//EN"
 "http://www.w3.org/Graphics/SVG/1.1/DTD/svg11.dtd">
<!-- Generated by graphviz version 2.43.0 (0)
 -->
<!-- Title: raku&#45;type&#45;graph Pages: 1 -->
<svg width="1654pt" height="1916pt"
 viewBox="0.00 0.00 1654.23 1915.85" xmlns="http://www.w3.org/2000/svg" xmlns:xlink="http://www.w3.org/1999/xlink">
<g id="graph0" class="graph" transform="scale(1 1) rotate(0) translate(4 1911.85)">
<title>raku&#45;type&#45;graph</title>
<polygon fill="#ffffff" stroke="transparent" points="-4,4 -4,-1911.85 1650.23,-1911.85 1650.23,4 -4,4"/>
<!-- Metamodel::Stashing -->
<g id="node1" class="node">
<title>Metamodel::Stashing</title>
<g id="a_node1"><a xlink:href="/type/Metamodel::Stashing" xlink:title="Metamodel::Stashing">
<ellipse fill="none" stroke="#6666ff" cx="615.26" cy="-860.88" rx="93.68" ry="18"/>
<text text-anchor="middle" x="615.26" y="-857.18" font-family="FreeSans" font-size="14.00" fill="#6666ff">Metamodel::Stashing</text>
</a>
</g>
</g>
<!-- Mu -->
<g id="node2" class="node">
<title>Mu</title>
<g id="a_node2"><a xlink:href="/type/Mu" xlink:title="Mu">
<ellipse fill="none" stroke="#000000" cx="1556.56" cy="-755.36" rx="27" ry="18"/>
<text text-anchor="middle" x="1556.56" y="-751.66" font-family="FreeSans" font-size="14.00" fill="#000000">Mu</text>
</a>
</g>
</g>
<!-- Any -->
<g id="node3" class="node">
<title>Any</title>
<g id="a_node3"><a xlink:href="/type/Any" xlink:title="Any">
<ellipse fill="none" stroke="#000000" cx="932.59" cy="-843.36" rx="27" ry="18"/>
<text text-anchor="middle" x="932.59" y="-839.66" font-family="FreeSans" font-size="14.00" fill="#000000">Any</text>
</a>
</g>
</g>
<!-- Any&#45;&gt;Mu -->
<g id="edge1" class="edge">
<title>Any&#45;&gt;Mu</title>
<path fill="none" stroke="#000000" d="M959.4,-839.58C1058.71,-825.58 1405.71,-776.63 1519.85,-760.53"/>
<polygon fill="#000000" stroke="#000000" points="1520.43,-763.99 1529.85,-759.12 1519.46,-757.05 1520.43,-763.99"/>
</g>
<!-- Metamodel::Naming -->
<g id="node4" class="node">
<title>Metamodel::Naming</title>
<g id="a_node4"><a xlink:href="/type/Metamodel::Naming" xlink:title="Metamodel::Naming">
<ellipse fill="none" stroke="#6666ff" cx="807.22" cy="-882.52" rx="90.18" ry="18"/>
<text text-anchor="middle" x="807.22" y="-878.82" font-family="FreeSans" font-size="14.00" fill="#6666ff">Metamodel::Naming</text>
</a>
</g>
</g>
<!-- Metamodel::Documenting -->
<g id="node5" class="node">
<title>Metamodel::Documenting</title>
<g id="a_node5"><a xlink:href="/type/Metamodel::Documenting" xlink:title="Metamodel::Documenting">
<ellipse fill="none" stroke="#6666ff" cx="508.27" cy="-784.63" rx="111.28" ry="18"/>
<text text-anchor="middle" x="508.27" y="-780.93" font-family="FreeSans" font-size="14.00" fill="#6666ff">Metamodel::Documenting</text>
</a>
</g>
</g>
<!-- Metamodel::TypePretense -->
<g id="node6" class="node">
<title>Metamodel::TypePretense</title>
<g id="a_node6"><a xlink:href="/type/Metamodel::TypePretense" xlink:title="Metamodel::TypePretense">
<ellipse fill="none" stroke="#6666ff" cx="1060.57" cy="-310.59" rx="114.28" ry="18"/>
<text text-anchor="middle" x="1060.57" y="-306.89" font-family="FreeSans" font-size="14.00" fill="#6666ff">Metamodel::TypePretense</text>
</a>
</g>
</g>
<!-- Metamodel::MethodDelegation -->
<g id="node7" class="node">
<title>Metamodel::MethodDelegation</title>
<g id="a_node7"><a xlink:href="/type/Metamodel::MethodDelegation" xlink:title="Metamodel::MethodDelegation">
<ellipse fill="none" stroke="#6666ff" cx="400.78" cy="-18" rx="131.08" ry="18"/>
<text text-anchor="middle" x="400.78" y="-14.3" font-family="FreeSans" font-size="14.00" fill="#6666ff">Metamodel::MethodDelegation</text>
</a>
</g>
</g>
<!-- Metamodel::PackageHOW -->
<g id="node8" class="node">
<title>Metamodel::PackageHOW</title>
<g id="a_node8"><a xlink:href="/type/Metamodel::PackageHOW" xlink:title="Metamodel::PackageHOW">
<ellipse fill="none" stroke="#000000" cx="706.19" cy="-382.73" rx="116.18" ry="18"/>
<text text-anchor="middle" x="706.19" y="-379.03" font-family="FreeSans" font-size="14.00" fill="#000000">Metamodel::PackageHOW</text>
</a>
</g>
</g>
<!-- Metamodel::PackageHOW&#45;&gt;Metamodel::Stashing -->
<g id="edge11" class="edge">
<title>Metamodel::PackageHOW&#45;&gt;Metamodel::Stashing</title>
<path fill="none" stroke="#6666ff" d="M702.74,-400.89C688.9,-473.67 637.38,-744.58 620.58,-832.87"/>
<polygon fill="#6666ff" stroke="#6666ff" points="617.14,-832.23 618.71,-842.7 624.02,-833.53 617.14,-832.23"/>
</g>
<!-- Metamodel::PackageHOW&#45;&gt;Any -->
<g id="edge2" class="edge">
<title>Metamodel::PackageHOW&#45;&gt;Any</title>
<path fill="none" stroke="#000000" d="M715.07,-400.79C749.98,-471.83 878.01,-732.31 919.51,-816.75"/>
<polygon fill="#000000" stroke="#000000" points="916.47,-818.49 924.02,-825.93 922.75,-815.41 916.47,-818.49"/>
</g>
<!-- Metamodel::PackageHOW&#45;&gt;Metamodel::Naming -->
<g id="edge9" class="edge">
<title>Metamodel::PackageHOW&#45;&gt;Metamodel::Naming</title>
<path fill="none" stroke="#6666ff" d="M709.85,-400.82C725.03,-475.89 783.14,-763.36 801.58,-854.58"/>
<polygon fill="#6666ff" stroke="#6666ff" points="798.16,-855.35 803.57,-864.46 805.02,-853.97 798.16,-855.35"/>
</g>
<!-- Metamodel::PackageHOW&#45;&gt;Metamodel::Documenting -->
<g id="edge10" class="edge">
<title>Metamodel::PackageHOW&#45;&gt;Metamodel::Documenting</title>
<path fill="none" stroke="#6666ff" d="M697.3,-400.78C665.78,-464.79 559.22,-681.18 521.58,-757.62"/>
<polygon fill="#6666ff" stroke="#6666ff" points="518.41,-756.12 517.14,-766.63 524.69,-759.21 518.41,-756.12"/>
</g>
<!-- Metamodel::PackageHOW&#45;&gt;Metamodel::TypePretense -->
<g id="edge12" class="edge">
<title>Metamodel::PackageHOW&#45;&gt;Metamodel::TypePretense</title>
<path fill="none" stroke="#6666ff" d="M776.63,-368.39C835.42,-356.42 919.22,-339.36 980.54,-326.88"/>
<polygon fill="#6666ff" stroke="#6666ff" points="981.46,-330.26 990.56,-324.84 980.07,-323.4 981.46,-330.26"/>
</g>
<!-- Metamodel::PackageHOW&#45;&gt;Metamodel::MethodDelegation -->
<g id="edge13" class="edge">
<title>Metamodel::PackageHOW&#45;&gt;Metamodel::MethodDelegation</title>
<path fill="none" stroke="#6666ff" d="M691.05,-364.65C641.08,-304.97 481.32,-114.19 422.66,-44.12"/>
<polygon fill="#6666ff" stroke="#6666ff" points="425.12,-41.62 416.02,-36.2 419.76,-46.11 425.12,-41.62"/>
</g>
<!-- Metamodel::Versioning -->
<g id="node9" class="node">
<title>Metamodel::Versioning</title>
<g id="a_node9"><a xlink:href="/type/Metamodel::Versioning" xlink:title="Metamodel::Versioning">
<ellipse fill="none" stroke="#6666ff" cx="398.04" cy="-859.5" rx="100.98" ry="18"/>
<text text-anchor="middle" x="398.04" y="-855.8" font-family="FreeSans" font-size="14.00" fill="#6666ff">Metamodel::Versioning</text>
</a>
</g>
</g>
<!-- Metamodel::AttributeContainer -->
<g id="node10" class="node">
<title>Metamodel::AttributeContainer</title>
<g id="a_node10"><a xlink:href="/type/Metamodel::AttributeContainer" xlink:title="Metamodel::AttributeContainer">
<ellipse fill="none" stroke="#6666ff" cx="1225.86" cy="-1337.3" rx="129.98" ry="18"/>
<text text-anchor="middle" x="1225.86" y="-1333.6" font-family="FreeSans" font-size="14.00" fill="#6666ff">Metamodel::AttributeContainer</text>
</a>
</g>
</g>
<!-- Metamodel::Finalization -->
<g id="node11" class="node">
<title>Metamodel::Finalization</title>
<g id="a_node11"><a xlink:href="/type/Metamodel::Finalization" xlink:title="Metamodel::Finalization">
<ellipse fill="none" stroke="#6666ff" cx="103.99" cy="-1227.33" rx="103.98" ry="18"/>
<text text-anchor="middle" x="103.99" y="-1223.63" font-family="FreeSans" font-size="14.00" fill="#6666ff">Metamodel::Finalization</text>
</a>
</g>
</g>
<!-- Metamodel::MethodContainer -->
<g id="node12" class="node">
<title>Metamodel::MethodContainer</title>
<g id="a_node12"><a xlink:href="/type/Metamodel::MethodContainer" xlink:title="Metamodel::MethodContainer">
<ellipse fill="none" stroke="#6666ff" cx="583.92" cy="-1174.05" rx="127.28" ry="18"/>
<text text-anchor="middle" x="583.92" y="-1170.35" font-family="FreeSans" font-size="14.00" fill="#6666ff">Metamodel::MethodContainer</text>
</a>
</g>
</g>
<!-- Metamodel::PrivateMethodContainer -->
<g id="node13" class="node">
<title>Metamodel::PrivateMethodContainer</title>
<g id="a_node13"><a xlink:href="/type/Metamodel::PrivateMethodContainer" xlink:title="Metamodel::PrivateMethodContainer">
<ellipse fill="none" stroke="#6666ff" cx="1367.75" cy="-1252.59" rx="154.87" ry="18"/>
<text text-anchor="middle" x="1367.75" y="-1248.89" font-family="FreeSans" font-size="14.00" fill="#6666ff">Metamodel::PrivateMethodContainer</text>
</a>
</g>
</g>
<!-- Metamodel::MultiMethodContainer -->
<g id="node14" class="node">
<title>Metamodel::MultiMethodContainer</title>
<g id="a_node14"><a xlink:href="/type/Metamodel::MultiMethodContainer" xlink:title="Metamodel::MultiMethodContainer">
<ellipse fill="none" stroke="#6666ff" cx="1246.11" cy="-1467.78" rx="146.47" ry="18"/>
<text text-anchor="middle" x="1246.11" y="-1464.08" font-family="FreeSans" font-size="14.00" fill="#6666ff">Metamodel::MultiMethodContainer</text>
</a>
</g>
</g>
<!-- Metamodel::RoleContainer -->
<g id="node15" class="node">
<title>Metamodel::RoleContainer</title>
<g id="a_node15"><a xlink:href="/type/Metamodel::RoleContainer" xlink:title="Metamodel::RoleContainer">
<ellipse fill="none" stroke="#6666ff" cx="1119.89" cy="-1547.56" rx="115.88" ry="18"/>
<text text-anchor="middle" x="1119.89" y="-1543.86" font-family="FreeSans" font-size="14.00" fill="#6666ff">Metamodel::RoleContainer</text>
</a>
</g>
</g>
<!-- Metamodel::MultipleInheritance -->
<g id="node16" class="node">
<title>Metamodel::MultipleInheritance</title>
<g id="a_node16"><a xlink:href="/type/Metamodel::MultipleInheritance" xlink:title="Metamodel::MultipleInheritance">
<ellipse fill="none" stroke="#6666ff" cx="883.31" cy="-1201.82" rx="133.78" ry="18"/>
<text text-anchor="middle" x="883.31" y="-1198.12" font-family="FreeSans" font-size="14.00" fill="#6666ff">Metamodel::MultipleInheritance</text>
</a>
</g>
</g>
<!-- Metamodel::DefaultParent -->
<g id="node17" class="node">
<title>Metamodel::DefaultParent</title>
<g id="a_node17"><a xlink:href="/type/Metamodel::DefaultParent" xlink:title="Metamodel::DefaultParent">
<ellipse fill="none" stroke="#6666ff" cx="980.32" cy="-1889.85" rx="113.18" ry="18"/>
<text text-anchor="middle" x="980.32" y="-1886.15" font-family="FreeSans" font-size="14.00" fill="#6666ff">Metamodel::DefaultParent</text>
</a>
</g>
</g>
<!-- Metamodel::C3MRO -->
<g id="node18" class="node">
<title>Metamodel::C3MRO</title>
<g id="a_node18"><a xlink:href="/type/Metamodel::C3MRO" xlink:title="Metamodel::C3MRO">
<ellipse fill="none" stroke="#6666ff" cx="175.7" cy="-1589.05" rx="92.08" ry="18"/>
<text text-anchor="middle" x="175.7" y="-1585.35" font-family="FreeSans" font-size="14.00" fill="#6666ff">Metamodel::C3MRO</text>
</a>
</g>
</g>
<!-- Metamodel::MROBasedMethodDispatch -->
<g id="node19" class="node">
<title>Metamodel::MROBasedMethodDispatch</title>
<g id="a_node19"><a xlink:href="/type/Metamodel::MROBasedMethodDispatch" xlink:title="Metamodel::MROBasedMethodDispatch">
<ellipse fill="none" stroke="#6666ff" cx="445.66" cy="-1576.27" rx="169.77" ry="18"/>
<text text-anchor="middle" x="445.66" y="-1572.57" font-family="FreeSans" font-size="14.00" fill="#6666ff">Metamodel::MROBasedMethodDispatch</text>
</a>
</g>
</g>
<!-- Metamodel::MROBasedTypeChecking -->
<g id="node20" class="node">
<title>Metamodel::MROBasedTypeChecking</title>
<g id="a_node20"><a xlink:href="/type/Metamodel::MROBasedTypeChecking" xlink:title="Metamodel::MROBasedTypeChecking">
<ellipse fill="none" stroke="#6666ff" cx="526.54" cy="-1674.04" rx="163.27" ry="18"/>
<text text-anchor="middle" x="526.54" y="-1670.34" font-family="FreeSans" font-size="14.00" fill="#6666ff">Metamodel::MROBasedTypeChecking</text>
</a>
</g>
</g>
<!-- Metamodel::Trusting -->
<g id="node21" class="node">
<title>Metamodel::Trusting</title>
<g id="a_node21"><a xlink:href="/type/Metamodel::Trusting" xlink:title="Metamodel::Trusting">
<ellipse fill="none" stroke="#6666ff" cx="107.62" cy="-1442.71" rx="91.78" ry="18"/>
<text text-anchor="middle" x="107.62" y="-1439.01" font-family="FreeSans" font-size="14.00" fill="#6666ff">Metamodel::Trusting</text>
</a>
</g>
</g>
<!-- Metamodel::BUILDPLAN -->
<g id="node22" class="node">
<title>Metamodel::BUILDPLAN</title>
<g id="a_node22"><a xlink:href="/type/Metamodel::BUILDPLAN" xlink:title="Metamodel::BUILDPLAN">
<ellipse fill="none" stroke="#6666ff" cx="571.03" cy="-1853.13" rx="109.68" ry="18"/>
<text text-anchor="middle" x="571.03" y="-1849.43" font-family="FreeSans" font-size="14.00" fill="#6666ff">Metamodel::BUILDPLAN</text>
</a>
</g>
</g>
<!-- Metamodel::Mixins -->
<g id="node23" class="node">
<title>Metamodel::Mixins</title>
<g id="a_node23"><a xlink:href="/type/Metamodel::Mixins" xlink:title="Metamodel::Mixins">
<ellipse fill="none" stroke="#6666ff" cx="774.05" cy="-1853.31" rx="85.29" ry="18"/>
<text text-anchor="middle" x="774.05" y="-1849.61" font-family="FreeSans" font-size="14.00" fill="#6666ff">Metamodel::Mixins</text>
</a>
</g>
</g>
<!-- Metamodel::BoolificationProtocol -->
<g id="node24" class="node">
<title>Metamodel::BoolificationProtocol</title>
<g id="a_node24"><a xlink:href="/type/Metamodel::BoolificationProtocol" xlink:title="Metamodel::BoolificationProtocol">
<ellipse fill="none" stroke="#6666ff" cx="1201.79" cy="-1100.18" rx="139.18" ry="18"/>
<text text-anchor="middle" x="1201.79" y="-1096.48" font-family="FreeSans" font-size="14.00" fill="#6666ff">Metamodel::BoolificationProtocol</text>
</a>
</g>
</g>
<!-- Metamodel::ClassHOW -->
<g id="node25" class="node">
<title>Metamodel::ClassHOW</title>
<g id="a_node25"><a xlink:href="/type/Metamodel::ClassHOW" xlink:title="Metamodel::ClassHOW">
<ellipse fill="none" stroke="#000000" cx="713.14" cy="-1346.17" rx="103.18" ry="18"/>
<text text-anchor="middle" x="713.14" y="-1342.47" font-family="FreeSans" font-size="14.00" fill="#000000">Metamodel::ClassHOW</text>
</a>
</g>
</g>
<!-- Metamodel::ClassHOW&#45;&gt;Metamodel::Stashing -->
<g id="edge17" class="edge">
<title>Metamodel::ClassHOW&#45;&gt;Metamodel::Stashing</title>
<path fill="none" stroke="#6666ff" d="M713.11,-1328.1C713.05,-1283.95 712.91,-1174.24 712.91,-1174.24 712.91,-1174.24 648.02,-966.01 624.03,-889.04"/>
<polygon fill="#6666ff" stroke="#6666ff" points="627.25,-887.59 620.93,-879.08 620.56,-889.67 627.25,-887.59"/>
</g>
<!-- Metamodel::ClassHOW&#45;&gt;Any -->
<g id="edge3" class="edge">
<title>Metamodel::ClassHOW&#45;&gt;Any</title>
<path fill="none" stroke="#000000" d="M717.46,-1328.17C726.76,-1289.44 747.83,-1201.7 747.83,-1201.7 747.83,-1201.7 876.13,-952.87 918.9,-869.91"/>
<polygon fill="#000000" stroke="#000000" points="922.21,-871.14 923.68,-860.65 915.99,-867.93 922.21,-871.14"/>
</g>
<!-- Metamodel::ClassHOW&#45;&gt;Metamodel::Naming -->
<g id="edge14" class="edge">
<title>Metamodel::ClassHOW&#45;&gt;Metamodel::Naming</title>
<path fill="none" stroke="#6666ff" d="M716.83,-1328C731.27,-1256.8 784.09,-996.55 801.56,-910.41"/>
<polygon fill="#6666ff" stroke="#6666ff" points="805,-911.07 803.56,-900.57 798.14,-909.67 805,-911.07"/>
</g>
<!-- Metamodel::ClassHOW&#45;&gt;Metamodel::Documenting -->
<g id="edge15" class="edge">
<title>Metamodel::ClassHOW&#45;&gt;Metamodel::Documenting</title>
<path fill="none" stroke="#6666ff" d="M713.11,-1328.1C713.05,-1283.95 712.91,-1174.24 712.91,-1174.24 712.91,-1174.24 520.07,-860.84 520.07,-860.84 520.07,-860.84 516,-834.54 512.64,-812.84"/>
<polygon fill="#6666ff" stroke="#6666ff" points="516.06,-812.04 511.07,-802.69 509.14,-813.11 516.06,-812.04"/>
</g>
<!-- Metamodel::ClassHOW&#45;&gt;Metamodel::Versioning -->
<g id="edge16" class="edge">
<title>Metamodel::ClassHOW&#45;&gt;Metamodel::Versioning</title>
<path fill="none" stroke="#6666ff" d="M713.11,-1328.1C713.05,-1283.95 712.91,-1174.24 712.91,-1174.24 712.91,-1174.24 497.52,-958.95 423.03,-884.48"/>
<polygon fill="#6666ff" stroke="#6666ff" points="425.41,-881.92 415.87,-877.32 420.47,-886.87 425.41,-881.92"/>
</g>
<!-- Metamodel::ClassHOW&#45;&gt;Metamodel::AttributeContainer -->
<g id="edge18" class="edge">
<title>Metamodel::ClassHOW&#45;&gt;Metamodel::AttributeContainer</title>
<path fill="none" stroke="#6666ff" d="M816.28,-1344.39C893.91,-1343.04 1001.16,-1341.19 1086.44,-1339.71"/>
<polygon fill="#6666ff" stroke="#6666ff" points="1086.52,-1343.21 1096.46,-1339.54 1086.4,-1336.21 1086.52,-1343.21"/>
</g>
<!-- Metamodel::ClassHOW&#45;&gt;Metamodel::Finalization -->
<g id="edge19" class="edge">
<title>Metamodel::ClassHOW&#45;&gt;Metamodel::Finalization</title>
<path fill="none" stroke="#6666ff" d="M644.15,-1332.71C530.23,-1310.49 303.46,-1266.25 183.18,-1242.78"/>
<polygon fill="#6666ff" stroke="#6666ff" points="183.77,-1239.33 173.29,-1240.85 182.43,-1246.2 183.77,-1239.33"/>
</g>
<!-- Metamodel::ClassHOW&#45;&gt;Metamodel::MethodContainer -->
<g id="edge20" class="edge">
<title>Metamodel::ClassHOW&#45;&gt;Metamodel::MethodContainer</title>
<path fill="none" stroke="#6666ff" d="M699.55,-1328.08C676.68,-1297.6 630.36,-1235.91 603.82,-1200.55"/>
<polygon fill="#6666ff" stroke="#6666ff" points="606.32,-1198.06 597.52,-1192.16 600.72,-1202.26 606.32,-1198.06"/>
</g>
<!-- Metamodel::ClassHOW&#45;&gt;Metamodel::PrivateMethodContainer -->
<g id="edge21" class="edge">
<title>Metamodel::ClassHOW&#45;&gt;Metamodel::PrivateMethodContainer</title>
<path fill="none" stroke="#6666ff" d="M793.08,-1334.74C910.17,-1318.01 1128.61,-1286.78 1259.84,-1268.02"/>
<polygon fill="#6666ff" stroke="#6666ff" points="1260.51,-1271.46 1269.92,-1266.58 1259.52,-1264.53 1260.51,-1271.46"/>
</g>
<!-- Metamodel::ClassHOW&#45;&gt;Metamodel::MultiMethodContainer -->
<g id="edge22" class="edge">
<title>Metamodel::ClassHOW&#45;&gt;Metamodel::MultiMethodContainer</title>
<path fill="none" stroke="#6666ff" d="M775.84,-1360.48C873.01,-1382.65 1059.83,-1425.28 1166.43,-1449.6"/>
<polygon fill="#6666ff" stroke="#6666ff" points="1165.96,-1453.08 1176.48,-1451.9 1167.51,-1446.26 1165.96,-1453.08"/>
</g>
<!-- Metamodel::ClassHOW&#45;&gt;Metamodel::RoleContainer -->
<g id="edge23" class="edge">
<title>Metamodel::ClassHOW&#45;&gt;Metamodel::RoleContainer</title>
<path fill="none" stroke="#6666ff" d="M730.03,-1364.15C750.68,-1386.13 782.92,-1420.44 782.92,-1420.44 782.92,-1420.44 813.8,-1434.32 813.8,-1434.32 813.8,-1434.32 977.11,-1494.74 1065.15,-1527.31"/>
<polygon fill="#6666ff" stroke="#6666ff" points="1064.13,-1530.66 1074.73,-1530.85 1066.56,-1524.1 1064.13,-1530.66"/>
</g>
<!-- Metamodel::ClassHOW&#45;&gt;Metamodel::MultipleInheritance -->
<g id="edge24" class="edge">
<title>Metamodel::ClassHOW&#45;&gt;Metamodel::MultipleInheritance</title>
<path fill="none" stroke="#6666ff" d="M734,-1328.47C764.24,-1302.82 820.35,-1255.23 854.51,-1226.25"/>
<polygon fill="#6666ff" stroke="#6666ff" points="856.91,-1228.8 862.28,-1219.66 852.39,-1223.46 856.91,-1228.8"/>
</g>
<!-- Metamodel::ClassHOW&#45;&gt;Metamodel::DefaultParent -->
<g id="edge25" class="edge">
<title>Metamodel::ClassHOW&#45;&gt;Metamodel::DefaultParent</title>
<path fill="none" stroke="#6666ff" d="M722.03,-1364.26C761.33,-1444.24 919.66,-1766.41 966.93,-1862.6"/>
<polygon fill="#6666ff" stroke="#6666ff" points="963.85,-1864.26 971.4,-1871.69 970.13,-1861.17 963.85,-1864.26"/>
</g>
<!-- Metamodel::ClassHOW&#45;&gt;Metamodel::C3MRO -->
<g id="edge26" class="edge">
<title>Metamodel::ClassHOW&#45;&gt;Metamodel::C3MRO</title>
<path fill="none" stroke="#6666ff" d="M675.77,-1363.06C580.09,-1406.3 326.44,-1520.93 221.82,-1568.21"/>
<polygon fill="#6666ff" stroke="#6666ff" points="220.13,-1565.13 212.46,-1572.43 223.02,-1571.5 220.13,-1565.13"/>
</g>
<!-- Metamodel::ClassHOW&#45;&gt;Metamodel::MROBasedMethodDispatch -->
<g id="edge27" class="edge">
<title>Metamodel::ClassHOW&#45;&gt;Metamodel::MROBasedMethodDispatch</title>
<path fill="none" stroke="#6666ff" d="M692.59,-1363.85C645.35,-1404.48 528.89,-1504.67 474.51,-1551.45"/>
<polygon fill="#6666ff" stroke="#6666ff" points="471.94,-1549.05 466.64,-1558.22 476.5,-1554.35 471.94,-1549.05"/>
</g>
<!-- Metamodel::ClassHOW&#45;&gt;Metamodel::MROBasedTypeChecking -->
<g id="edge28" class="edge">
<title>Metamodel::ClassHOW&#45;&gt;Metamodel::MROBasedTypeChecking</title>
<path fill="none" stroke="#6666ff" d="M705.58,-1364.23C682.9,-1418.49 616.89,-1576.32 616.89,-1576.32 616.89,-1576.32 576.7,-1619.79 549.93,-1648.74"/>
<polygon fill="#6666ff" stroke="#6666ff" points="547.33,-1646.4 543.11,-1656.12 552.47,-1651.15 547.33,-1646.4"/>
</g>
<!-- Metamodel::ClassHOW&#45;&gt;Metamodel::Trusting -->
<g id="edge29" class="edge">
<title>Metamodel::ClassHOW&#45;&gt;Metamodel::Trusting</title>
<path fill="none" stroke="#6666ff" d="M636.76,-1358.35C522.14,-1376.62 306.61,-1410.98 189.09,-1429.72"/>
<polygon fill="#6666ff" stroke="#6666ff" points="188.39,-1426.29 179.07,-1431.32 189.5,-1433.2 188.39,-1426.29"/>
</g>
<!-- Metamodel::ClassHOW&#45;&gt;Metamodel::BUILDPLAN -->
<g id="edge30" class="edge">
<title>Metamodel::ClassHOW&#45;&gt;Metamodel::BUILDPLAN</title>
<path fill="none" stroke="#6666ff" d="M711.93,-1364.28C707.35,-1433.04 691.27,-1674.2 691.27,-1674.2 691.27,-1674.2 622.32,-1776.81 588.84,-1826.62"/>
<polygon fill="#6666ff" stroke="#6666ff" points="585.89,-1824.73 583.22,-1834.99 591.7,-1828.64 585.89,-1824.73"/>
</g>
<!-- Metamodel::ClassHOW&#45;&gt;Metamodel::Mixins -->
<g id="edge31" class="edge">
<title>Metamodel::ClassHOW&#45;&gt;Metamodel::Mixins</title>
<path fill="none" stroke="#6666ff" d="M715.31,-1364.22C724.41,-1440 759.58,-1732.81 770.68,-1825.21"/>
<polygon fill="#6666ff" stroke="#6666ff" points="767.21,-1825.7 771.88,-1835.21 774.16,-1824.87 767.21,-1825.7"/>
</g>
<!-- Metamodel::ClassHOW&#45;&gt;Metamodel::BoolificationProtocol -->
<g id="edge32" class="edge">
<title>Metamodel::ClassHOW&#45;&gt;Metamodel::BoolificationProtocol</title>
<path fill="none" stroke="#6666ff" d="M749.1,-1329.2C829.9,-1291.07 1018.8,-1201.93 1018.8,-1201.93 1018.8,-1201.93 1106.99,-1152.89 1160.92,-1122.9"/>
<polygon fill="#6666ff" stroke="#6666ff" points="1162.87,-1125.82 1169.91,-1117.9 1159.47,-1119.7 1162.87,-1125.82"/>
</g>
<!-- Metamodel::RolePunning -->
<g id="node26" class="node">
<title>Metamodel::RolePunning</title>
<g id="a_node26"><a xlink:href="/type/Metamodel::RolePunning" xlink:title="Metamodel::RolePunning">
<ellipse fill="none" stroke="#6666ff" cx="1536.39" cy="-562.08" rx="109.68" ry="18"/>
<text text-anchor="middle" x="1536.39" y="-558.38" font-family="FreeSans" font-size="14.00" fill="#6666ff">Metamodel::RolePunning</text>
</a>
</g>
</g>
<!-- Metamodel::ParametricRoleHOW -->
<g id="node27" class="node">
<title>Metamodel::ParametricRoleHOW</title>
<g id="a_node27"><a xlink:href="/type/Metamodel::ParametricRoleHOW" xlink:title="Metamodel::ParametricRoleHOW">
<ellipse fill="none" stroke="#000000" cx="1106.71" cy="-907.54" rx="141.88" ry="18"/>
<text text-anchor="middle" x="1106.71" y="-903.84" font-family="FreeSans" font-size="14.00" fill="#000000">Metamodel::ParametricRoleHOW</text>
</a>
</g>
</g>
<!-- Metamodel::ParametricRoleHOW&#45;&gt;Metamodel::Stashing -->
<g id="edge42" class="edge">
<title>Metamodel::ParametricRoleHOW&#45;&gt;Metamodel::Stashing</title>
<path fill="none" stroke="#6666ff" d="M1020.23,-893.21C953.57,-882.16 872.69,-868.76 872.69,-868.76 872.69,-868.76 807.87,-862.92 807.87,-862.92 807.87,-862.92 764.43,-862.46 718.81,-861.98"/>
<polygon fill="#6666ff" stroke="#6666ff" points="718.78,-858.48 708.74,-861.87 718.71,-865.48 718.78,-858.48"/>
</g>
<!-- Metamodel::ParametricRoleHOW&#45;&gt;Any -->
<g id="edge4" class="edge">
<title>Metamodel::ParametricRoleHOW&#45;&gt;Any</title>
<path fill="none" stroke="#000000" d="M1060.5,-890.51C1030.84,-879.58 993,-865.63 966.2,-855.75"/>
<polygon fill="#000000" stroke="#000000" points="967.1,-852.35 956.5,-852.18 964.67,-858.92 967.1,-852.35"/>
</g>
<!-- Metamodel::ParametricRoleHOW&#45;&gt;Metamodel::Naming -->
<g id="edge33" class="edge">
<title>Metamodel::ParametricRoleHOW&#45;&gt;Metamodel::Naming</title>
<path fill="none" stroke="#6666ff" d="M987.91,-897.61C958.97,-895.2 928.41,-892.64 900.83,-890.34"/>
<polygon fill="#6666ff" stroke="#6666ff" points="901.06,-886.85 890.81,-889.5 900.48,-893.82 901.06,-886.85"/>
</g>
<!-- Metamodel::ParametricRoleHOW&#45;&gt;Metamodel::Documenting -->
<g id="edge34" class="edge">
<title>Metamodel::ParametricRoleHOW&#45;&gt;Metamodel::Documenting</title>
<path fill="none" stroke="#6666ff" d="M1032.12,-892.22C918.56,-868.9 703.28,-824.68 587.19,-800.84"/>
<polygon fill="#6666ff" stroke="#6666ff" points="587.8,-797.39 577.3,-798.81 586.39,-804.25 587.8,-797.39"/>
</g>
<!-- Metamodel::ParametricRoleHOW&#45;&gt;Metamodel::TypePretense -->
<g id="edge43" class="edge">
<title>Metamodel::ParametricRoleHOW&#45;&gt;Metamodel::TypePretense</title>
<path fill="none" stroke="#6666ff" d="M1101.47,-889.16C1081.56,-819.35 1011.76,-574.56 1011.76,-574.56 1011.76,-574.56 1042.78,-406.8 1055.36,-338.75"/>
<polygon fill="#6666ff" stroke="#6666ff" points="1058.83,-339.2 1057.21,-328.73 1051.95,-337.93 1058.83,-339.2"/>
</g>
<!-- Metamodel::ParametricRoleHOW&#45;&gt;Metamodel::Versioning -->
<g id="edge35" class="edge">
<title>Metamodel::ParametricRoleHOW&#45;&gt;Metamodel::Versioning</title>
<path fill="none" stroke="#6666ff" d="M966.31,-905C888.2,-903.59 806.58,-902.12 806.58,-902.12 806.58,-902.12 741.76,-896.28 741.76,-896.28 741.76,-896.28 596.43,-880.73 494.77,-869.85"/>
<polygon fill="#6666ff" stroke="#6666ff" points="495.09,-866.37 484.77,-868.78 494.34,-873.33 495.09,-866.37"/>
</g>
<!-- Metamodel::ParametricRoleHOW&#45;&gt;Metamodel::AttributeContainer -->
<g id="edge39" class="edge">
<title>Metamodel::ParametricRoleHOW&#45;&gt;Metamodel::AttributeContainer</title>
<path fill="none" stroke="#6666ff" d="M1102.42,-925.65C1091.06,-973.57 1061.1,-1100.05 1061.1,-1100.05 1061.1,-1100.05 1164.23,-1248.56 1207.3,-1310.58"/>
<polygon fill="#6666ff" stroke="#6666ff" points="1204.62,-1312.86 1213.2,-1319.08 1210.37,-1308.87 1204.62,-1312.86"/>
</g>
<!-- Metamodel::ParametricRoleHOW&#45;&gt;Metamodel::MethodContainer -->
<g id="edge36" class="edge">
<title>Metamodel::ParametricRoleHOW&#45;&gt;Metamodel::MethodContainer</title>
<path fill="none" stroke="#6666ff" d="M1072.4,-925.02C980.44,-971.91 728.48,-1100.36 627.06,-1152.06"/>
<polygon fill="#6666ff" stroke="#6666ff" points="625.33,-1149.02 618.01,-1156.68 628.51,-1155.25 625.33,-1149.02"/>
</g>
<!-- Metamodel::ParametricRoleHOW&#45;&gt;Metamodel::PrivateMethodContainer -->
<g id="edge37" class="edge">
<title>Metamodel::ParametricRoleHOW&#45;&gt;Metamodel::PrivateMethodContainer</title>
<path fill="none" stroke="#6666ff" d="M1128.46,-925.33C1186.83,-973.05 1342.47,-1100.3 1342.47,-1100.3 1342.47,-1100.3 1355.77,-1180.43 1363.08,-1224.44"/>
<polygon fill="#6666ff" stroke="#6666ff" points="1359.66,-1225.23 1364.75,-1234.53 1366.57,-1224.09 1359.66,-1225.23"/>
</g>
<!-- Metamodel::ParametricRoleHOW&#45;&gt;Metamodel::MultiMethodContainer -->
<g id="edge38" class="edge">
<title>Metamodel::ParametricRoleHOW&#45;&gt;Metamodel::MultiMethodContainer</title>
<path fill="none" stroke="#6666ff" d="M1102.42,-925.65C1091.06,-973.57 1061.1,-1100.05 1061.1,-1100.05 1061.1,-1100.05 1094.27,-1337.19 1094.27,-1337.19 1094.27,-1337.19 1173.56,-1405.38 1217.54,-1443.21"/>
<polygon fill="#6666ff" stroke="#6666ff" points="1215.45,-1446.03 1225.32,-1449.9 1220.02,-1440.72 1215.45,-1446.03"/>
</g>
<!-- Metamodel::ParametricRoleHOW&#45;&gt;Metamodel::RoleContainer -->
<g id="edge40" class="edge">
<title>Metamodel::ParametricRoleHOW&#45;&gt;Metamodel::RoleContainer</title>
<path fill="none" stroke="#6666ff" d="M1102.42,-925.65C1091.06,-973.57 1061.1,-1100.05 1061.1,-1100.05 1061.1,-1100.05 1098.28,-1467.67 1098.28,-1467.67 1098.28,-1467.67 1106.12,-1496.65 1112.35,-1519.7"/>
<polygon fill="#6666ff" stroke="#6666ff" points="1109,-1520.69 1114.99,-1529.43 1115.75,-1518.86 1109,-1520.69"/>
</g>
<!-- Metamodel::ParametricRoleHOW&#45;&gt;Metamodel::MultipleInheritance -->
<g id="edge41" class="edge">
<title>Metamodel::ParametricRoleHOW&#45;&gt;Metamodel::MultipleInheritance</title>
<path fill="none" stroke="#6666ff" d="M1093.07,-925.5C1055.06,-975.58 947.79,-1116.88 903.17,-1175.66"/>
<polygon fill="#6666ff" stroke="#6666ff" points="900.32,-1173.63 897.06,-1183.71 905.89,-1177.86 900.32,-1173.63"/>
</g>
<!-- Metamodel::ParametricRoleHOW&#45;&gt;Metamodel::RolePunning -->
<g id="edge44" class="edge">
<title>Metamodel::ParametricRoleHOW&#45;&gt;Metamodel::RolePunning</title>
<path fill="none" stroke="#6666ff" d="M1128.9,-889.69C1200.43,-832.19 1424.94,-651.68 1506.44,-586.15"/>
<polygon fill="#6666ff" stroke="#6666ff" points="1508.72,-588.81 1514.32,-579.82 1504.34,-583.35 1508.72,-588.81"/>
</g>
<!-- Metamodel::NativeHOW -->
<g id="node28" class="node">
<title>Metamodel::NativeHOW</title>
<g id="a_node28"><a xlink:href="/type/Metamodel::NativeHOW" xlink:title="Metamodel::NativeHOW">
<ellipse fill="none" stroke="#000000" cx="374.12" cy="-1121.06" rx="106.68" ry="18"/>
<text text-anchor="middle" x="374.12" y="-1117.36" font-family="FreeSans" font-size="14.00" fill="#000000">Metamodel::NativeHOW</text>
</a>
</g>
</g>
<!-- Metamodel::NativeHOW&#45;&gt;Metamodel::Stashing -->
<g id="edge48" class="edge">
<title>Metamodel::NativeHOW&#45;&gt;Metamodel::Stashing</title>
<path fill="none" stroke="#6666ff" d="M390.7,-1103.18C432.6,-1057.97 542.88,-938.98 591.57,-886.44"/>
<polygon fill="#6666ff" stroke="#6666ff" points="594.34,-888.6 598.57,-878.89 589.2,-883.85 594.34,-888.6"/>
</g>
<!-- Metamodel::NativeHOW&#45;&gt;Any -->
<g id="edge5" class="edge">
<title>Metamodel::NativeHOW&#45;&gt;Any</title>
<path fill="none" stroke="#000000" d="M411.53,-1104.18C527.26,-1051.95 871.78,-896.48 871.78,-896.48 871.78,-896.48 899.16,-882.66 899.16,-882.66 899.16,-882.66 905.36,-875.37 912.42,-867.07"/>
<polygon fill="#000000" stroke="#000000" points="915.18,-869.23 919,-859.35 909.85,-864.7 915.18,-869.23"/>
</g>
<!-- Metamodel::NativeHOW&#45;&gt;Metamodel::Naming -->
<g id="edge45" class="edge">
<title>Metamodel::NativeHOW&#45;&gt;Metamodel::Naming</title>
<path fill="none" stroke="#6666ff" d="M405.62,-1103.71C483,-1061.1 682.31,-951.32 767.57,-904.36"/>
<polygon fill="#6666ff" stroke="#6666ff" points="769.36,-907.37 776.43,-899.48 765.98,-901.24 769.36,-907.37"/>
</g>
<!-- Metamodel::NativeHOW&#45;&gt;Metamodel::Documenting -->
<g id="edge46" class="edge">
<title>Metamodel::NativeHOW&#45;&gt;Metamodel::Documenting</title>
<path fill="none" stroke="#6666ff" d="M382.8,-1103.09C411.32,-1044.02 500.38,-859.6 500.38,-859.6 500.38,-859.6 503.07,-834.02 505.31,-812.75"/>
<polygon fill="#6666ff" stroke="#6666ff" points="508.79,-813.09 506.36,-802.78 501.83,-812.36 508.79,-813.09"/>
</g>
<!-- Metamodel::NativeHOW&#45;&gt;Metamodel::Versioning -->
<g id="edge47" class="edge">
<title>Metamodel::NativeHOW&#45;&gt;Metamodel::Versioning</title>
<path fill="none" stroke="#6666ff" d="M375.8,-1102.67C379.92,-1057.63 390.53,-941.58 395.46,-887.73"/>
<polygon fill="#6666ff" stroke="#6666ff" points="398.96,-887.8 396.39,-877.53 391.99,-887.17 398.96,-887.8"/>
</g>
<!-- Metamodel::NativeHOW&#45;&gt;Metamodel::MultipleInheritance -->
<g id="edge49" class="edge">
<title>Metamodel::NativeHOW&#45;&gt;Metamodel::MultipleInheritance</title>
<path fill="none" stroke="#6666ff" d="M458.61,-1132.05C547.91,-1143.67 675.98,-1160.32 675.98,-1160.32 675.98,-1160.32 741.3,-1173.4 798.61,-1184.86"/>
<polygon fill="#6666ff" stroke="#6666ff" points="797.97,-1188.31 808.46,-1186.84 799.34,-1181.44 797.97,-1188.31"/>
</g>
<!-- Metamodel::NativeHOW&#45;&gt;Metamodel::C3MRO -->
<g id="edge50" class="edge">
<title>Metamodel::NativeHOW&#45;&gt;Metamodel::C3MRO</title>
<path fill="none" stroke="#6666ff" d="M366.46,-1139.12C336.08,-1210.78 223.89,-1475.39 187.31,-1561.66"/>
<polygon fill="#6666ff" stroke="#6666ff" points="184.02,-1560.47 183.34,-1571.04 190.46,-1563.2 184.02,-1560.47"/>
</g>
<!-- Metamodel::NativeHOW&#45;&gt;Metamodel::MROBasedMethodDispatch -->
<g id="edge51" class="edge">
<title>Metamodel::NativeHOW&#45;&gt;Metamodel::MROBasedMethodDispatch</title>
<path fill="none" stroke="#6666ff" d="M376.97,-1139.19C387.98,-1209.28 427.84,-1462.88 441.23,-1548.11"/>
<polygon fill="#6666ff" stroke="#6666ff" points="437.79,-1548.76 442.8,-1558.09 444.7,-1547.67 437.79,-1548.76"/>
</g>
<!-- Metamodel::NativeHOW&#45;&gt;Metamodel::MROBasedTypeChecking -->
<g id="edge52" class="edge">
<title>Metamodel::NativeHOW&#45;&gt;Metamodel::MROBasedTypeChecking</title>
<path fill="none" stroke="#6666ff" d="M383.79,-1139.19C428.94,-1223.86 616.89,-1576.32 616.89,-1576.32 616.89,-1576.32 576.7,-1619.79 549.93,-1648.74"/>
<polygon fill="#6666ff" stroke="#6666ff" points="547.33,-1646.4 543.11,-1656.12 552.47,-1651.15 547.33,-1646.4"/>
</g>
<!-- Metamodel::ParametricRoleGroupHOW -->
<g id="node29" class="node">
<title>Metamodel::ParametricRoleGroupHOW</title>
<g id="a_node29"><a xlink:href="/type/Metamodel::ParametricRoleGroupHOW" xlink:title="Metamodel::ParametricRoleGroupHOW">
<ellipse fill="none" stroke="#000000" cx="1179.74" cy="-574.74" rx="166.27" ry="18"/>
<text text-anchor="middle" x="1179.74" y="-571.04" font-family="FreeSans" font-size="14.00" fill="#000000">Metamodel::ParametricRoleGroupHOW</text>
</a>
</g>
</g>
<!-- Metamodel::ParametricRoleGroupHOW&#45;&gt;Metamodel::Stashing -->
<g id="edge54" class="edge">
<title>Metamodel::ParametricRoleGroupHOW&#45;&gt;Metamodel::Stashing</title>
<path fill="none" stroke="#6666ff" d="M1144.86,-592.42C1046.16,-642.45 765.15,-784.9 657.73,-839.35"/>
<polygon fill="#6666ff" stroke="#6666ff" points="655.82,-836.4 648.48,-844.04 658.99,-842.64 655.82,-836.4"/>
</g>
<!-- Metamodel::ParametricRoleGroupHOW&#45;&gt;Any -->
<g id="edge6" class="edge">
<title>Metamodel::ParametricRoleGroupHOW&#45;&gt;Any</title>
<path fill="none" stroke="#000000" d="M1163.14,-592.78C1119.6,-640.11 1002.12,-767.8 953.79,-820.32"/>
<polygon fill="#000000" stroke="#000000" points="951.11,-818.06 946.92,-827.79 956.27,-822.8 951.11,-818.06"/>
</g>
<!-- Metamodel::ParametricRoleGroupHOW&#45;&gt;Metamodel::Naming -->
<g id="edge53" class="edge">
<title>Metamodel::ParametricRoleGroupHOW&#45;&gt;Metamodel::Naming</title>
<path fill="none" stroke="#6666ff" d="M1158.1,-592.61C1094.56,-645.12 908.44,-798.89 836.28,-858.51"/>
<polygon fill="#6666ff" stroke="#6666ff" points="833.94,-855.91 828.46,-864.98 838.4,-861.3 833.94,-855.91"/>
</g>
<!-- Metamodel::ParametricRoleGroupHOW&#45;&gt;Metamodel::TypePretense -->
<g id="edge55" class="edge">
<title>Metamodel::ParametricRoleGroupHOW&#45;&gt;Metamodel::TypePretense</title>
<path fill="none" stroke="#6666ff" d="M1171.55,-556.58C1151.05,-511.15 1097.45,-392.34 1073.02,-338.2"/>
<polygon fill="#6666ff" stroke="#6666ff" points="1076.12,-336.55 1068.81,-328.87 1069.74,-339.42 1076.12,-336.55"/>
</g>
<!-- Metamodel::ParametricRoleGroupHOW&#45;&gt;Metamodel::BoolificationProtocol -->
<g id="edge57" class="edge">
<title>Metamodel::ParametricRoleGroupHOW&#45;&gt;Metamodel::BoolificationProtocol</title>
<path fill="none" stroke="#6666ff" d="M1183.62,-593.1C1198.35,-662.88 1249.99,-907.58 1249.99,-907.58 1249.99,-907.58 1222.16,-1018.79 1208.79,-1072.2"/>
<polygon fill="#6666ff" stroke="#6666ff" points="1205.35,-1071.51 1206.32,-1082.06 1212.14,-1073.21 1205.35,-1071.51"/>
</g>
<!-- Metamodel::ParametricRoleGroupHOW&#45;&gt;Metamodel::RolePunning -->
<g id="edge56" class="edge">
<title>Metamodel::ParametricRoleGroupHOW&#45;&gt;Metamodel::RolePunning</title>
<path fill="none" stroke="#6666ff" d="M1337.99,-569.12C1365.11,-568.16 1392.86,-567.17 1418.68,-566.25"/>
<polygon fill="#6666ff" stroke="#6666ff" points="1418.98,-569.75 1428.85,-565.89 1418.74,-562.75 1418.98,-569.75"/>
</g>
<!-- Metamodel::ModuleHOW -->
<g id="node30" class="node">
<title>Metamodel::ModuleHOW</title>
<g id="a_node30"><a xlink:href="/type/Metamodel::ModuleHOW" xlink:title="Metamodel::ModuleHOW">
<ellipse fill="none" stroke="#000000" cx="552.44" cy="-441.35" rx="110.48" ry="18"/>
<text text-anchor="middle" x="552.44" y="-437.65" font-family="FreeSans" font-size="14.00" fill="#000000">Metamodel::ModuleHOW</text>
</a>
</g>
</g>
<!-- Metamodel::ModuleHOW&#45;&gt;Metamodel::Stashing -->
<g id="edge61" class="edge">
<title>Metamodel::ModuleHOW&#45;&gt;Metamodel::Stashing</title>
<path fill="none" stroke="#6666ff" d="M556.13,-459.81C570.37,-531.15 621.01,-784.78 621.01,-784.78 621.01,-784.78 619.02,-811.05 617.39,-832.72"/>
<polygon fill="#6666ff" stroke="#6666ff" points="613.88,-832.61 616.62,-842.85 620.86,-833.14 613.88,-832.61"/>
</g>
<!-- Metamodel::ModuleHOW&#45;&gt;Any -->
<g id="edge7" class="edge">
<title>Metamodel::ModuleHOW&#45;&gt;Any</title>
<path fill="none" stroke="#000000" d="M569.27,-459.14C630.68,-524.09 842.76,-748.37 911.15,-820.69"/>
<polygon fill="#000000" stroke="#000000" points="908.63,-823.12 918.04,-827.98 913.72,-818.31 908.63,-823.12"/>
</g>
<!-- Metamodel::ModuleHOW&#45;&gt;Metamodel::Naming -->
<g id="edge58" class="edge">
<title>Metamodel::ModuleHOW&#45;&gt;Metamodel::Naming</title>
<path fill="none" stroke="#6666ff" d="M562.9,-459.47C602.67,-528.32 744.53,-773.96 791.78,-855.78"/>
<polygon fill="#6666ff" stroke="#6666ff" points="788.78,-857.59 796.81,-864.5 794.84,-854.09 788.78,-857.59"/>
</g>
<!-- Metamodel::ModuleHOW&#45;&gt;Metamodel::Documenting -->
<g id="edge59" class="edge">
<title>Metamodel::ModuleHOW&#45;&gt;Metamodel::Documenting</title>
<path fill="none" stroke="#6666ff" d="M550.07,-459.81C542.77,-516.52 520.64,-688.49 511.89,-756.51"/>
<polygon fill="#6666ff" stroke="#6666ff" points="508.41,-756.14 510.61,-766.5 515.35,-757.03 508.41,-756.14"/>
</g>
<!-- Metamodel::ModuleHOW&#45;&gt;Metamodel::TypePretense -->
<g id="edge62" class="edge">
<title>Metamodel::ModuleHOW&#45;&gt;Metamodel::TypePretense</title>
<path fill="none" stroke="#6666ff" d="M624.79,-427.69C694.43,-414.55 789.27,-396.64 789.27,-396.64 789.27,-396.64 919.57,-355.31 999.56,-329.94"/>
<polygon fill="#6666ff" stroke="#6666ff" points="1001.06,-333.13 1009.54,-326.77 998.95,-326.46 1001.06,-333.13"/>
</g>
<!-- Metamodel::ModuleHOW&#45;&gt;Metamodel::MethodDelegation -->
<g id="edge63" class="edge">
<title>Metamodel::ModuleHOW&#45;&gt;Metamodel::MethodDelegation</title>
<path fill="none" stroke="#6666ff" d="M545.92,-423.16C522.1,-356.67 439.65,-126.48 410.82,-46.03"/>
<polygon fill="#6666ff" stroke="#6666ff" points="413.94,-44.36 407.27,-36.12 407.35,-46.72 413.94,-44.36"/>
</g>
<!-- Metamodel::ModuleHOW&#45;&gt;Metamodel::Versioning -->
<g id="edge60" class="edge">
<title>Metamodel::ModuleHOW&#45;&gt;Metamodel::Versioning</title>
<path fill="none" stroke="#6666ff" d="M544.23,-459.31C511.94,-529.92 395.54,-784.49 395.54,-784.49 395.54,-784.49 396.38,-809.85 397.09,-831.08"/>
<polygon fill="#6666ff" stroke="#6666ff" points="393.6,-831.46 397.43,-841.34 400.6,-831.23 393.6,-831.46"/>
</g>
<!-- Metamodel::BaseType -->
<g id="node31" class="node">
<title>Metamodel::BaseType</title>
<g id="a_node31"><a xlink:href="/type/Metamodel::BaseType" xlink:title="Metamodel::BaseType">
<ellipse fill="none" stroke="#6666ff" cx="1370.01" cy="-1880.25" rx="99.38" ry="18"/>
<text text-anchor="middle" x="1370.01" y="-1876.55" font-family="FreeSans" font-size="14.00" fill="#6666ff">Metamodel::BaseType</text>
</a>
</g>
</g>
<!-- Metamodel::EnumHOW -->
<g id="node32" class="node">
<title>Metamodel::EnumHOW</title>
<g id="a_node32"><a xlink:href="/type/Metamodel::EnumHOW" xlink:title="Metamodel::EnumHOW">
<ellipse fill="none" stroke="#000000" cx="889.16" cy="-1420.5" rx="104.78" ry="18"/>
<text text-anchor="middle" x="889.16" y="-1416.8" font-family="FreeSans" font-size="14.00" fill="#000000">Metamodel::EnumHOW</text>
</a>
</g>
</g>
<!-- Metamodel::EnumHOW&#45;&gt;Metamodel::Stashing -->
<g id="edge65" class="edge">
<title>Metamodel::EnumHOW&#45;&gt;Metamodel::Stashing</title>
<path fill="none" stroke="#6666ff" d="M877.6,-1402.6C843.84,-1350.34 747.83,-1201.7 747.83,-1201.7 747.83,-1201.7 657.79,-970.22 626.12,-888.8"/>
<polygon fill="#6666ff" stroke="#6666ff" points="629.27,-887.26 622.38,-879.21 622.75,-889.8 629.27,-887.26"/>
</g>
<!-- Metamodel::EnumHOW&#45;&gt;Any -->
<g id="edge8" class="edge">
<title>Metamodel::EnumHOW&#45;&gt;Any</title>
<path fill="none" stroke="#000000" d="M899.99,-1402.24C931.15,-1349.71 1018.8,-1201.93 1018.8,-1201.93 1018.8,-1201.93 959.45,-955.06 939.24,-871"/>
<polygon fill="#000000" stroke="#000000" points="942.61,-870.05 936.87,-861.14 935.8,-871.69 942.61,-870.05"/>
</g>
<!-- Metamodel::EnumHOW&#45;&gt;Metamodel::Naming -->
<g id="edge64" class="edge">
<title>Metamodel::EnumHOW&#45;&gt;Metamodel::Naming</title>
<path fill="none" stroke="#6666ff" d="M877.6,-1402.6C843.84,-1350.34 747.83,-1201.7 747.83,-1201.7 747.83,-1201.7 787.48,-988.63 801.99,-910.66"/>
<polygon fill="#6666ff" stroke="#6666ff" points="805.47,-911.07 803.86,-900.6 798.59,-909.79 805.47,-911.07"/>
</g>
<!-- Metamodel::EnumHOW&#45;&gt;Metamodel::AttributeContainer -->
<g id="edge66" class="edge">
<title>Metamodel::EnumHOW&#45;&gt;Metamodel::AttributeContainer</title>
<path fill="none" stroke="#6666ff" d="M948.97,-1405.72C1005.71,-1391.7 1091.14,-1370.59 1152.09,-1355.53"/>
<polygon fill="#6666ff" stroke="#6666ff" points="1153.16,-1358.87 1162.03,-1353.07 1151.48,-1352.08 1153.16,-1358.87"/>
</g>
<!-- Metamodel::EnumHOW&#45;&gt;Metamodel::MethodContainer -->
<g id="edge67" class="edge">
<title>Metamodel::EnumHOW&#45;&gt;Metamodel::MethodContainer</title>
<path fill="none" stroke="#6666ff" d="M871.95,-1402.55C850.91,-1380.61 818.07,-1346.35 818.07,-1346.35 818.07,-1346.35 680.55,-1245.16 616.29,-1197.87"/>
<polygon fill="#6666ff" stroke="#6666ff" points="618.23,-1194.95 608.1,-1191.84 614.08,-1200.59 618.23,-1194.95"/>
</g>
<!-- Metamodel::EnumHOW&#45;&gt;Metamodel::MultiMethodContainer -->
<g id="edge68" class="edge">
<title>Metamodel::EnumHOW&#45;&gt;Metamodel::MultiMethodContainer</title>
<path fill="none" stroke="#6666ff" d="M972.4,-1431.53C1021.27,-1438 1083.61,-1446.26 1136.44,-1453.26"/>
<polygon fill="#6666ff" stroke="#6666ff" points="1136.16,-1456.75 1146.54,-1454.59 1137.08,-1449.81 1136.16,-1456.75"/>
</g>
<!-- Metamodel::EnumHOW&#45;&gt;Metamodel::RoleContainer -->
<g id="edge69" class="edge">
<title>Metamodel::EnumHOW&#45;&gt;Metamodel::RoleContainer</title>
<path fill="none" stroke="#6666ff" d="M920.76,-1437.9C961.98,-1460.6 1034.16,-1500.35 1079.36,-1525.24"/>
<polygon fill="#6666ff" stroke="#6666ff" points="1077.86,-1528.41 1088.3,-1530.17 1081.23,-1522.28 1077.86,-1528.41"/>
</g>
<!-- Metamodel::EnumHOW&#45;&gt;Metamodel::MROBasedMethodDispatch -->
<g id="edge71" class="edge">
<title>Metamodel::EnumHOW&#45;&gt;Metamodel::MROBasedMethodDispatch</title>
<path fill="none" stroke="#6666ff" d="M842.95,-1436.73C761.8,-1465.24 593.82,-1524.23 504.5,-1555.61"/>
<polygon fill="#6666ff" stroke="#6666ff" points="503.07,-1552.4 494.79,-1559.01 505.39,-1559 503.07,-1552.4"/>
</g>
<!-- Metamodel::EnumHOW&#45;&gt;Metamodel::MROBasedTypeChecking -->
<g id="edge72" class="edge">
<title>Metamodel::EnumHOW&#45;&gt;Metamodel::MROBasedTypeChecking</title>
<path fill="none" stroke="#6666ff" d="M863.95,-1438.13C800.21,-1482.7 632.56,-1599.92 560.38,-1650.38"/>
<polygon fill="#6666ff" stroke="#6666ff" points="558.26,-1647.6 552.07,-1656.19 562.27,-1653.33 558.26,-1647.6"/>
</g>
<!-- Metamodel::EnumHOW&#45;&gt;Metamodel::BUILDPLAN -->
<g id="edge73" class="edge">
<title>Metamodel::EnumHOW&#45;&gt;Metamodel::BUILDPLAN</title>
<path fill="none" stroke="#6666ff" d="M875.9,-1438.54C825.97,-1506.43 649.24,-1746.77 590.31,-1826.91"/>
<polygon fill="#6666ff" stroke="#6666ff" points="587.46,-1824.88 584.35,-1835.01 593.1,-1829.03 587.46,-1824.88"/>
</g>
<!-- Metamodel::EnumHOW&#45;&gt;Metamodel::Mixins -->
<g id="edge75" class="edge">
<title>Metamodel::EnumHOW&#45;&gt;Metamodel::Mixins</title>
<path fill="none" stroke="#6666ff" d="M884.36,-1438.55C866.43,-1505.99 803.25,-1743.51 781.49,-1825.35"/>
<polygon fill="#6666ff" stroke="#6666ff" points="778.06,-1824.62 778.87,-1835.19 784.82,-1826.42 778.06,-1824.62"/>
</g>
<!-- Metamodel::EnumHOW&#45;&gt;Metamodel::BoolificationProtocol -->
<g id="edge74" class="edge">
<title>Metamodel::EnumHOW&#45;&gt;Metamodel::BoolificationProtocol</title>
<path fill="none" stroke="#6666ff" d="M906.87,-1402.36C959.63,-1348.29 1115.96,-1188.12 1176.98,-1125.59"/>
<polygon fill="#6666ff" stroke="#6666ff" points="1179.8,-1127.72 1184.28,-1118.12 1174.79,-1122.83 1179.8,-1127.72"/>
</g>
<!-- Metamodel::EnumHOW&#45;&gt;Metamodel::BaseType -->
<g id="edge70" class="edge">
<title>Metamodel::EnumHOW&#45;&gt;Metamodel::BaseType</title>
<path fill="none" stroke="#6666ff" d="M905.17,-1438.44C936.44,-1473.45 1002.6,-1547.54 1002.6,-1547.54 1002.6,-1547.54 1258.34,-1779.13 1343.09,-1855.88"/>
<polygon fill="#6666ff" stroke="#6666ff" points="1340.75,-1858.48 1350.51,-1862.6 1345.45,-1853.29 1340.75,-1858.48"/>
</g>
</g>
</svg>
