<?xml version="1.0" encoding="UTF-8" standalone="no"?>
<!DOCTYPE svg PUBLIC "-//W3C//DTD SVG 1.1//EN"
 "http://www.w3.org/Graphics/SVG/1.1/DTD/svg11.dtd">
<!-- Generated by graphviz version 2.43.0 (0)
 -->
<!-- Title: raku&#45;type&#45;graph Pages: 1 -->
<svg width="2085pt" height="1853pt"
 viewBox="0.00 0.00 2084.61 1853.10" xmlns="http://www.w3.org/2000/svg" xmlns:xlink="http://www.w3.org/1999/xlink">
<g id="graph0" class="graph" transform="scale(1 1) rotate(0) translate(4 1849.1)">
<title>raku&#45;type&#45;graph</title>
<polygon fill="#ffffff" stroke="transparent" points="-4,4 -4,-1849.1 2080.61,-1849.1 2080.61,4 -4,4"/>
<!-- Metamodel::RoleContainer -->
<g id="node1" class="node">
<title>Metamodel::RoleContainer</title>
<g id="a_node1"><a xlink:href="/type/Metamodel::RoleContainer" xlink:title="Metamodel::RoleContainer">
<ellipse fill="none" stroke="#6666ff" cx="1063.93" cy="-984.6" rx="115.88" ry="18"/>
<text text-anchor="middle" x="1063.93" y="-980.9" font-family="FreeSans" font-size="14.00" fill="#6666ff">Metamodel::RoleContainer</text>
</a>
</g>
</g>
<!-- Mu -->
<g id="node2" class="node">
<title>Mu</title>
<g id="a_node2"><a xlink:href="/type/Mu" xlink:title="Mu">
<ellipse fill="none" stroke="#000000" cx="1761.32" cy="-372.45" rx="27" ry="18"/>
<text text-anchor="middle" x="1761.32" y="-368.75" font-family="FreeSans" font-size="14.00" fill="#000000">Mu</text>
</a>
</g>
</g>
<!-- Any -->
<g id="node3" class="node">
<title>Any</title>
<g id="a_node3"><a xlink:href="/type/Any" xlink:title="Any">
<ellipse fill="none" stroke="#000000" cx="1349.65" cy="-733.54" rx="27" ry="18"/>
<text text-anchor="middle" x="1349.65" y="-729.84" font-family="FreeSans" font-size="14.00" fill="#000000">Any</text>
</a>
</g>
</g>
<!-- Any&#45;&gt;Mu -->
<g id="edge1" class="edge">
<title>Any&#45;&gt;Mu</title>
<path fill="none" stroke="#000000" d="M1366.04,-719.16C1429.82,-663.22 1661.59,-459.93 1737.25,-393.57"/>
<polygon fill="#000000" stroke="#000000" points="1739.67,-396.1 1744.88,-386.87 1735.06,-390.83 1739.67,-396.1"/>
</g>
<!-- Metamodel::Naming -->
<g id="node4" class="node">
<title>Metamodel::Naming</title>
<g id="a_node4"><a xlink:href="/type/Metamodel::Naming" xlink:title="Metamodel::Naming">
<ellipse fill="none" stroke="#6666ff" cx="1087.26" cy="-1153.3" rx="90.18" ry="18"/>
<text text-anchor="middle" x="1087.26" y="-1149.6" font-family="FreeSans" font-size="14.00" fill="#6666ff">Metamodel::Naming</text>
</a>
</g>
</g>
<!-- Metamodel::Documenting -->
<g id="node5" class="node">
<title>Metamodel::Documenting</title>
<g id="a_node5"><a xlink:href="/type/Metamodel::Documenting" xlink:title="Metamodel::Documenting">
<ellipse fill="none" stroke="#6666ff" cx="792.93" cy="-1690" rx="111.28" ry="18"/>
<text text-anchor="middle" x="792.93" y="-1686.3" font-family="FreeSans" font-size="14.00" fill="#6666ff">Metamodel::Documenting</text>
</a>
</g>
</g>
<!-- Metamodel::Versioning -->
<g id="node6" class="node">
<title>Metamodel::Versioning</title>
<g id="a_node6"><a xlink:href="/type/Metamodel::Versioning" xlink:title="Metamodel::Versioning">
<ellipse fill="none" stroke="#6666ff" cx="942.82" cy="-1624.98" rx="100.98" ry="18"/>
<text text-anchor="middle" x="942.82" y="-1621.28" font-family="FreeSans" font-size="14.00" fill="#6666ff">Metamodel::Versioning</text>
</a>
</g>
</g>
<!-- Metamodel::Stashing -->
<g id="node7" class="node">
<title>Metamodel::Stashing</title>
<g id="a_node7"><a xlink:href="/type/Metamodel::Stashing" xlink:title="Metamodel::Stashing">
<ellipse fill="none" stroke="#6666ff" cx="752.34" cy="-1326.37" rx="93.68" ry="18"/>
<text text-anchor="middle" x="752.34" y="-1322.67" font-family="FreeSans" font-size="14.00" fill="#6666ff">Metamodel::Stashing</text>
</a>
</g>
</g>
<!-- Metamodel::AttributeContainer -->
<g id="node8" class="node">
<title>Metamodel::AttributeContainer</title>
<g id="a_node8"><a xlink:href="/type/Metamodel::AttributeContainer" xlink:title="Metamodel::AttributeContainer">
<ellipse fill="none" stroke="#6666ff" cx="1226.33" cy="-912.58" rx="129.98" ry="18"/>
<text text-anchor="middle" x="1226.33" y="-908.88" font-family="FreeSans" font-size="14.00" fill="#6666ff">Metamodel::AttributeContainer</text>
</a>
</g>
</g>
<!-- Metamodel::Finalization -->
<g id="node9" class="node">
<title>Metamodel::Finalization</title>
<g id="a_node9"><a xlink:href="/type/Metamodel::Finalization" xlink:title="Metamodel::Finalization">
<ellipse fill="none" stroke="#6666ff" cx="103.99" cy="-1037.29" rx="103.98" ry="18"/>
<text text-anchor="middle" x="103.99" y="-1033.59" font-family="FreeSans" font-size="14.00" fill="#6666ff">Metamodel::Finalization</text>
</a>
</g>
</g>
<!-- Metamodel::MethodContainer -->
<g id="node10" class="node">
<title>Metamodel::MethodContainer</title>
<g id="a_node10"><a xlink:href="/type/Metamodel::MethodContainer" xlink:title="Metamodel::MethodContainer">
<ellipse fill="none" stroke="#6666ff" cx="1177.68" cy="-765.49" rx="127.28" ry="18"/>
<text text-anchor="middle" x="1177.68" y="-761.79" font-family="FreeSans" font-size="14.00" fill="#6666ff">Metamodel::MethodContainer</text>
</a>
</g>
</g>
<!-- Metamodel::PrivateMethodContainer -->
<g id="node11" class="node">
<title>Metamodel::PrivateMethodContainer</title>
<g id="a_node11"><a xlink:href="/type/Metamodel::PrivateMethodContainer" xlink:title="Metamodel::PrivateMethodContainer">
<ellipse fill="none" stroke="#6666ff" cx="1206.43" cy="-1612.85" rx="154.87" ry="18"/>
<text text-anchor="middle" x="1206.43" y="-1609.15" font-family="FreeSans" font-size="14.00" fill="#6666ff">Metamodel::PrivateMethodContainer</text>
</a>
</g>
</g>
<!-- Metamodel::MultiMethodContainer -->
<g id="node12" class="node">
<title>Metamodel::MultiMethodContainer</title>
<g id="a_node12"><a xlink:href="/type/Metamodel::MultiMethodContainer" xlink:title="Metamodel::MultiMethodContainer">
<ellipse fill="none" stroke="#6666ff" cx="1000.19" cy="-1285.44" rx="146.47" ry="18"/>
<text text-anchor="middle" x="1000.19" y="-1281.74" font-family="FreeSans" font-size="14.00" fill="#6666ff">Metamodel::MultiMethodContainer</text>
</a>
</g>
</g>
<!-- Metamodel::MultipleInheritance -->
<g id="node13" class="node">
<title>Metamodel::MultipleInheritance</title>
<g id="a_node13"><a xlink:href="/type/Metamodel::MultipleInheritance" xlink:title="Metamodel::MultipleInheritance">
<ellipse fill="none" stroke="#6666ff" cx="1416.47" cy="-989.82" rx="133.78" ry="18"/>
<text text-anchor="middle" x="1416.47" y="-986.12" font-family="FreeSans" font-size="14.00" fill="#6666ff">Metamodel::MultipleInheritance</text>
</a>
</g>
</g>
<!-- Metamodel::DefaultParent -->
<g id="node14" class="node">
<title>Metamodel::DefaultParent</title>
<g id="a_node14"><a xlink:href="/type/Metamodel::DefaultParent" xlink:title="Metamodel::DefaultParent">
<ellipse fill="none" stroke="#6666ff" cx="398.03" cy="-1618.42" rx="113.18" ry="18"/>
<text text-anchor="middle" x="398.03" y="-1614.72" font-family="FreeSans" font-size="14.00" fill="#6666ff">Metamodel::DefaultParent</text>
</a>
</g>
</g>
<!-- Metamodel::C3MRO -->
<g id="node15" class="node">
<title>Metamodel::C3MRO</title>
<g id="a_node15"><a xlink:href="/type/Metamodel::C3MRO" xlink:title="Metamodel::C3MRO">
<ellipse fill="none" stroke="#6666ff" cx="257.17" cy="-1455.09" rx="92.08" ry="18"/>
<text text-anchor="middle" x="257.17" y="-1451.39" font-family="FreeSans" font-size="14.00" fill="#6666ff">Metamodel::C3MRO</text>
</a>
</g>
</g>
<!-- Metamodel::MROBasedMethodDispatch -->
<g id="node16" class="node">
<title>Metamodel::MROBasedMethodDispatch</title>
<g id="a_node16"><a xlink:href="/type/Metamodel::MROBasedMethodDispatch" xlink:title="Metamodel::MROBasedMethodDispatch">
<ellipse fill="none" stroke="#6666ff" cx="527.37" cy="-474.75" rx="169.77" ry="18"/>
<text text-anchor="middle" x="527.37" y="-471.05" font-family="FreeSans" font-size="14.00" fill="#6666ff">Metamodel::MROBasedMethodDispatch</text>
</a>
</g>
</g>
<!-- Metamodel::MROBasedTypeChecking -->
<g id="node17" class="node">
<title>Metamodel::MROBasedTypeChecking</title>
<g id="a_node17"><a xlink:href="/type/Metamodel::MROBasedTypeChecking" xlink:title="Metamodel::MROBasedTypeChecking">
<ellipse fill="none" stroke="#6666ff" cx="712.87" cy="-403.67" rx="163.27" ry="18"/>
<text text-anchor="middle" x="712.87" y="-399.97" font-family="FreeSans" font-size="14.00" fill="#6666ff">Metamodel::MROBasedTypeChecking</text>
</a>
</g>
</g>
<!-- Metamodel::Trusting -->
<g id="node18" class="node">
<title>Metamodel::Trusting</title>
<g id="a_node18"><a xlink:href="/type/Metamodel::Trusting" xlink:title="Metamodel::Trusting">
<ellipse fill="none" stroke="#6666ff" cx="162.15" cy="-1267.65" rx="91.78" ry="18"/>
<text text-anchor="middle" x="162.15" y="-1263.95" font-family="FreeSans" font-size="14.00" fill="#6666ff">Metamodel::Trusting</text>
</a>
</g>
</g>
<!-- Metamodel::BUILDPLAN -->
<g id="node19" class="node">
<title>Metamodel::BUILDPLAN</title>
<g id="a_node19"><a xlink:href="/type/Metamodel::BUILDPLAN" xlink:title="Metamodel::BUILDPLAN">
<ellipse fill="none" stroke="#6666ff" cx="388.01" cy="-569.82" rx="109.68" ry="18"/>
<text text-anchor="middle" x="388.01" y="-566.12" font-family="FreeSans" font-size="14.00" fill="#6666ff">Metamodel::BUILDPLAN</text>
</a>
</g>
</g>
<!-- Metamodel::Mixins -->
<g id="node20" class="node">
<title>Metamodel::Mixins</title>
<g id="a_node20"><a xlink:href="/type/Metamodel::Mixins" xlink:title="Metamodel::Mixins">
<ellipse fill="none" stroke="#6666ff" cx="343.48" cy="-885.14" rx="85.29" ry="18"/>
<text text-anchor="middle" x="343.48" y="-881.44" font-family="FreeSans" font-size="14.00" fill="#6666ff">Metamodel::Mixins</text>
</a>
</g>
</g>
<!-- Metamodel::BoolificationProtocol -->
<g id="node21" class="node">
<title>Metamodel::BoolificationProtocol</title>
<g id="a_node21"><a xlink:href="/type/Metamodel::BoolificationProtocol" xlink:title="Metamodel::BoolificationProtocol">
<ellipse fill="none" stroke="#6666ff" cx="315.94" cy="-713.41" rx="139.18" ry="18"/>
<text text-anchor="middle" x="315.94" y="-709.71" font-family="FreeSans" font-size="14.00" fill="#6666ff">Metamodel::BoolificationProtocol</text>
</a>
</g>
</g>
<!-- Metamodel::ClassHOW -->
<g id="node22" class="node">
<title>Metamodel::ClassHOW</title>
<g id="a_node22"><a xlink:href="/type/Metamodel::ClassHOW" xlink:title="Metamodel::ClassHOW">
<ellipse fill="none" stroke="#000000" cx="707.5" cy="-1055.91" rx="103.18" ry="18"/>
<text text-anchor="middle" x="707.5" y="-1052.21" font-family="FreeSans" font-size="14.00" fill="#000000">Metamodel::ClassHOW</text>
</a>
</g>
</g>
<!-- Metamodel::ClassHOW&#45;&gt;Metamodel::RoleContainer -->
<g id="edge15" class="edge">
<title>Metamodel::ClassHOW&#45;&gt;Metamodel::RoleContainer</title>
<path fill="none" stroke="#6666ff" d="M775.38,-1042.33C834.43,-1030.52 920.13,-1013.37 982.79,-1000.83"/>
<polygon fill="#6666ff" stroke="#6666ff" points="983.52,-1004.26 992.64,-998.86 982.15,-997.39 983.52,-1004.26"/>
</g>
<!-- Metamodel::ClassHOW&#45;&gt;Any -->
<g id="edge2" class="edge">
<title>Metamodel::ClassHOW&#45;&gt;Any</title>
<path fill="none" stroke="#000000" d="M742.74,-1038.83C871.18,-976.58 1306.67,-765.5 1306.67,-765.5 1306.67,-765.5 1314.2,-759.9 1322.96,-753.38"/>
<polygon fill="#000000" stroke="#000000" points="1325.24,-756.06 1331.17,-747.28 1321.06,-750.44 1325.24,-756.06"/>
</g>
<!-- Metamodel::ClassHOW&#45;&gt;Metamodel::Naming -->
<g id="edge6" class="edge">
<title>Metamodel::ClassHOW&#45;&gt;Metamodel::Naming</title>
<path fill="none" stroke="#6666ff" d="M765.59,-1070.81C834.65,-1088.52 949.6,-1118 1021.76,-1136.5"/>
<polygon fill="#6666ff" stroke="#6666ff" points="1021.09,-1139.94 1031.65,-1139.04 1022.83,-1133.16 1021.09,-1139.94"/>
</g>
<!-- Metamodel::ClassHOW&#45;&gt;Metamodel::Documenting -->
<g id="edge7" class="edge">
<title>Metamodel::ClassHOW&#45;&gt;Metamodel::Documenting</title>
<path fill="none" stroke="#6666ff" d="M704.11,-1074.07C692.83,-1134.68 657.15,-1326.26 657.15,-1326.26 657.15,-1326.26 751.01,-1577.71 782.66,-1662.48"/>
<polygon fill="#6666ff" stroke="#6666ff" points="779.42,-1663.82 786.2,-1671.96 785.98,-1661.37 779.42,-1663.82"/>
</g>
<!-- Metamodel::ClassHOW&#45;&gt;Metamodel::Versioning -->
<g id="edge8" class="edge">
<title>Metamodel::ClassHOW&#45;&gt;Metamodel::Versioning</title>
<path fill="none" stroke="#6666ff" d="M716.9,-1074.08C748.3,-1134.75 847.53,-1326.48 847.53,-1326.48 847.53,-1326.48 910.27,-1523.02 933.94,-1597.14"/>
<polygon fill="#6666ff" stroke="#6666ff" points="930.63,-1598.29 937,-1606.75 937.3,-1596.16 930.63,-1598.29"/>
</g>
<!-- Metamodel::ClassHOW&#45;&gt;Metamodel::Stashing -->
<g id="edge9" class="edge">
<title>Metamodel::ClassHOW&#45;&gt;Metamodel::Stashing</title>
<path fill="none" stroke="#6666ff" d="M710.51,-1074.08C718.17,-1120.27 738.43,-1242.47 747.65,-1298.09"/>
<polygon fill="#6666ff" stroke="#6666ff" points="744.25,-1298.99 749.34,-1308.28 751.16,-1297.85 744.25,-1298.99"/>
</g>
<!-- Metamodel::ClassHOW&#45;&gt;Metamodel::AttributeContainer -->
<g id="edge10" class="edge">
<title>Metamodel::ClassHOW&#45;&gt;Metamodel::AttributeContainer</title>
<path fill="none" stroke="#6666ff" d="M758.05,-1040.18C837.19,-1015.55 981.39,-970.68 981.39,-970.68 981.39,-970.68 1078.76,-947.58 1150.72,-930.52"/>
<polygon fill="#6666ff" stroke="#6666ff" points="1151.77,-933.86 1160.69,-928.15 1150.16,-927.05 1151.77,-933.86"/>
</g>
<!-- Metamodel::ClassHOW&#45;&gt;Metamodel::Finalization -->
<g id="edge11" class="edge">
<title>Metamodel::ClassHOW&#45;&gt;Metamodel::Finalization</title>
<path fill="none" stroke="#6666ff" d="M605.46,-1052.76C497.74,-1049.44 328.39,-1044.21 216.77,-1040.77"/>
<polygon fill="#6666ff" stroke="#6666ff" points="216.59,-1037.26 206.49,-1040.45 216.37,-1044.26 216.59,-1037.26"/>
</g>
<!-- Metamodel::ClassHOW&#45;&gt;Metamodel::MethodContainer -->
<g id="edge12" class="edge">
<title>Metamodel::ClassHOW&#45;&gt;Metamodel::MethodContainer</title>
<path fill="none" stroke="#6666ff" d="M735.85,-1038.4C816.84,-988.37 1049.23,-844.83 1140.37,-788.53"/>
<polygon fill="#6666ff" stroke="#6666ff" points="1142.32,-791.44 1148.99,-783.21 1138.65,-785.48 1142.32,-791.44"/>
</g>
<!-- Metamodel::ClassHOW&#45;&gt;Metamodel::PrivateMethodContainer -->
<g id="edge13" class="edge">
<title>Metamodel::ClassHOW&#45;&gt;Metamodel::PrivateMethodContainer</title>
<path fill="none" stroke="#6666ff" d="M718.86,-1073.91C753.01,-1127.99 852.36,-1285.3 852.36,-1285.3 852.36,-1285.3 1096.65,-1511.29 1179.4,-1587.85"/>
<polygon fill="#6666ff" stroke="#6666ff" points="1177.17,-1590.56 1186.89,-1594.78 1181.93,-1585.42 1177.17,-1590.56"/>
</g>
<!-- Metamodel::ClassHOW&#45;&gt;Metamodel::MultiMethodContainer -->
<g id="edge14" class="edge">
<title>Metamodel::ClassHOW&#45;&gt;Metamodel::MultiMethodContainer</title>
<path fill="none" stroke="#6666ff" d="M729.98,-1073.54C781.88,-1114.24 910.16,-1214.83 969.35,-1261.25"/>
<polygon fill="#6666ff" stroke="#6666ff" points="967.2,-1264.02 977.23,-1267.43 971.52,-1258.51 967.2,-1264.02"/>
</g>
<!-- Metamodel::ClassHOW&#45;&gt;Metamodel::MultipleInheritance -->
<g id="edge16" class="edge">
<title>Metamodel::ClassHOW&#45;&gt;Metamodel::MultipleInheritance</title>
<path fill="none" stroke="#6666ff" d="M798.73,-1047.4C925.65,-1035.57 1155.7,-1014.13 1296.42,-1001.01"/>
<polygon fill="#6666ff" stroke="#6666ff" points="1296.76,-1004.49 1306.39,-1000.08 1296.11,-997.52 1296.76,-1004.49"/>
</g>
<!-- Metamodel::ClassHOW&#45;&gt;Metamodel::DefaultParent -->
<g id="edge17" class="edge">
<title>Metamodel::ClassHOW&#45;&gt;Metamodel::DefaultParent</title>
<path fill="none" stroke="#6666ff" d="M697.55,-1073.99C652.45,-1155.98 466.98,-1493.1 412.9,-1591.4"/>
<polygon fill="#6666ff" stroke="#6666ff" points="409.69,-1589.96 407.94,-1600.41 415.83,-1593.34 409.69,-1589.96"/>
</g>
<!-- Metamodel::ClassHOW&#45;&gt;Metamodel::C3MRO -->
<g id="edge18" class="edge">
<title>Metamodel::ClassHOW&#45;&gt;Metamodel::C3MRO</title>
<path fill="none" stroke="#6666ff" d="M687.57,-1073.58C615.42,-1137.53 367.79,-1357.03 284.65,-1430.74"/>
<polygon fill="#6666ff" stroke="#6666ff" points="282.29,-1428.15 277.12,-1437.4 286.93,-1433.39 282.29,-1428.15"/>
</g>
<!-- Metamodel::ClassHOW&#45;&gt;Metamodel::MROBasedMethodDispatch -->
<g id="edge19" class="edge">
<title>Metamodel::ClassHOW&#45;&gt;Metamodel::MROBasedMethodDispatch</title>
<path fill="none" stroke="#6666ff" d="M701.91,-1037.88C675.99,-954.25 567.4,-603.9 535.94,-502.41"/>
<polygon fill="#6666ff" stroke="#6666ff" points="539.28,-501.37 532.98,-492.85 532.6,-503.44 539.28,-501.37"/>
</g>
<!-- Metamodel::ClassHOW&#45;&gt;Metamodel::MROBasedTypeChecking -->
<g id="edge20" class="edge">
<title>Metamodel::ClassHOW&#45;&gt;Metamodel::MROBasedTypeChecking</title>
<path fill="none" stroke="#6666ff" d="M707.65,-1037.78C708.39,-947.09 711.73,-542.51 712.64,-431.77"/>
<polygon fill="#6666ff" stroke="#6666ff" points="716.14,-431.73 712.72,-421.71 709.14,-431.68 716.14,-431.73"/>
</g>
<!-- Metamodel::ClassHOW&#45;&gt;Metamodel::Trusting -->
<g id="edge21" class="edge">
<title>Metamodel::ClassHOW&#45;&gt;Metamodel::Trusting</title>
<path fill="none" stroke="#6666ff" d="M665.16,-1072.35C566.27,-1110.75 320.39,-1206.21 213.33,-1247.78"/>
<polygon fill="#6666ff" stroke="#6666ff" points="211.77,-1244.63 203.72,-1251.51 214.31,-1251.16 211.77,-1244.63"/>
</g>
<!-- Metamodel::ClassHOW&#45;&gt;Metamodel::BUILDPLAN -->
<g id="edge22" class="edge">
<title>Metamodel::ClassHOW&#45;&gt;Metamodel::BUILDPLAN</title>
<path fill="none" stroke="#6666ff" d="M695.56,-1037.74C646.87,-963.67 463.21,-684.23 405.49,-596.41"/>
<polygon fill="#6666ff" stroke="#6666ff" points="408.26,-594.25 399.84,-587.82 402.41,-598.1 408.26,-594.25"/>
</g>
<!-- Metamodel::ClassHOW&#45;&gt;Metamodel::Mixins -->
<g id="edge23" class="edge">
<title>Metamodel::ClassHOW&#45;&gt;Metamodel::Mixins</title>
<path fill="none" stroke="#6666ff" d="M671.26,-1038.91C604.14,-1007.42 460.69,-940.12 387.87,-905.96"/>
<polygon fill="#6666ff" stroke="#6666ff" points="389.04,-902.64 378.5,-901.56 386.07,-908.98 389.04,-902.64"/>
</g>
<!-- Metamodel::ClassHOW&#45;&gt;Metamodel::BoolificationProtocol -->
<g id="edge24" class="edge">
<title>Metamodel::ClassHOW&#45;&gt;Metamodel::BoolificationProtocol</title>
<path fill="none" stroke="#6666ff" d="M687.27,-1038.22C622.45,-981.52 419.75,-804.21 344.46,-738.36"/>
<polygon fill="#6666ff" stroke="#6666ff" points="346.59,-735.57 336.75,-731.62 341.98,-740.84 346.59,-735.57"/>
</g>
<!-- Metamodel::TypePretense -->
<g id="node23" class="node">
<title>Metamodel::TypePretense</title>
<g id="a_node23"><a xlink:href="/type/Metamodel::TypePretense" xlink:title="Metamodel::TypePretense">
<ellipse fill="none" stroke="#6666ff" cx="1730.63" cy="-1827.1" rx="114.28" ry="18"/>
<text text-anchor="middle" x="1730.63" y="-1823.4" font-family="FreeSans" font-size="14.00" fill="#6666ff">Metamodel::TypePretense</text>
</a>
</g>
</g>
<!-- Metamodel::RolePunning -->
<g id="node24" class="node">
<title>Metamodel::RolePunning</title>
<g id="a_node24"><a xlink:href="/type/Metamodel::RolePunning" xlink:title="Metamodel::RolePunning">
<ellipse fill="none" stroke="#6666ff" cx="1966.77" cy="-1448.83" rx="109.68" ry="18"/>
<text text-anchor="middle" x="1966.77" y="-1445.13" font-family="FreeSans" font-size="14.00" fill="#6666ff">Metamodel::RolePunning</text>
</a>
</g>
</g>
<!-- Metamodel::ParametricRoleHOW -->
<g id="node25" class="node">
<title>Metamodel::ParametricRoleHOW</title>
<g id="a_node25"><a xlink:href="/type/Metamodel::ParametricRoleHOW" xlink:title="Metamodel::ParametricRoleHOW">
<ellipse fill="none" stroke="#000000" cx="1396.38" cy="-1376.35" rx="141.88" ry="18"/>
<text text-anchor="middle" x="1396.38" y="-1372.65" font-family="FreeSans" font-size="14.00" fill="#000000">Metamodel::ParametricRoleHOW</text>
</a>
</g>
</g>
<!-- Metamodel::ParametricRoleHOW&#45;&gt;Metamodel::RoleContainer -->
<g id="edge32" class="edge">
<title>Metamodel::ParametricRoleHOW&#45;&gt;Metamodel::RoleContainer</title>
<path fill="none" stroke="#6666ff" d="M1381.01,-1358.24C1327.4,-1295.07 1148.52,-1084.28 1085.85,-1010.43"/>
<polygon fill="#6666ff" stroke="#6666ff" points="1088.28,-1007.88 1079.14,-1002.52 1082.94,-1012.41 1088.28,-1007.88"/>
</g>
<!-- Metamodel::ParametricRoleHOW&#45;&gt;Any -->
<g id="edge3" class="edge">
<title>Metamodel::ParametricRoleHOW&#45;&gt;Any</title>
<path fill="none" stroke="#000000" d="M1390.97,-1358.22C1368.15,-1281.77 1280.98,-989.67 1280.98,-989.67 1280.98,-989.67 1357.92,-912.68 1357.92,-912.68 1357.92,-912.68 1353.29,-812.49 1350.96,-761.96"/>
<polygon fill="#000000" stroke="#000000" points="1354.45,-761.53 1350.49,-751.7 1347.45,-761.85 1354.45,-761.53"/>
</g>
<!-- Metamodel::ParametricRoleHOW&#45;&gt;Metamodel::Naming -->
<g id="edge25" class="edge">
<title>Metamodel::ParametricRoleHOW&#45;&gt;Metamodel::Naming</title>
<path fill="none" stroke="#6666ff" d="M1371.6,-1358.47C1316.19,-1318.49 1182.21,-1221.81 1120,-1176.93"/>
<polygon fill="#6666ff" stroke="#6666ff" points="1121.88,-1173.96 1111.72,-1170.95 1117.78,-1179.64 1121.88,-1173.96"/>
</g>
<!-- Metamodel::ParametricRoleHOW&#45;&gt;Metamodel::Documenting -->
<g id="edge26" class="edge">
<title>Metamodel::ParametricRoleHOW&#45;&gt;Metamodel::Documenting</title>
<path fill="none" stroke="#6666ff" d="M1357.31,-1393.8C1235.54,-1448.18 870.93,-1611.03 870.93,-1611.03 870.93,-1611.03 840.48,-1624.85 840.48,-1624.85 840.48,-1624.85 825.54,-1645.32 812.41,-1663.32"/>
<polygon fill="#6666ff" stroke="#6666ff" points="809.25,-1661.71 806.18,-1671.85 814.9,-1665.84 809.25,-1661.71"/>
</g>
<!-- Metamodel::ParametricRoleHOW&#45;&gt;Metamodel::Versioning -->
<g id="edge27" class="edge">
<title>Metamodel::ParametricRoleHOW&#45;&gt;Metamodel::Versioning</title>
<path fill="none" stroke="#6666ff" d="M1364.12,-1394.03C1283.3,-1438.34 1072.23,-1554.04 983.28,-1602.8"/>
<polygon fill="#6666ff" stroke="#6666ff" points="981.4,-1599.84 974.31,-1607.72 984.76,-1605.98 981.4,-1599.84"/>
</g>
<!-- Metamodel::ParametricRoleHOW&#45;&gt;Metamodel::Stashing -->
<g id="edge34" class="edge">
<title>Metamodel::ParametricRoleHOW&#45;&gt;Metamodel::Stashing</title>
<path fill="none" stroke="#6666ff" d="M1275.24,-1366.95C1151.97,-1357.38 963.32,-1342.74 849.5,-1333.91"/>
<polygon fill="#6666ff" stroke="#6666ff" points="849.64,-1330.41 839.4,-1333.13 849.1,-1337.39 849.64,-1330.41"/>
</g>
<!-- Metamodel::ParametricRoleHOW&#45;&gt;Metamodel::AttributeContainer -->
<g id="edge31" class="edge">
<title>Metamodel::ParametricRoleHOW&#45;&gt;Metamodel::AttributeContainer</title>
<path fill="none" stroke="#6666ff" d="M1389.71,-1358.17C1363.57,-1286.88 1267.96,-1026.11 1236.47,-940.22"/>
<polygon fill="#6666ff" stroke="#6666ff" points="1239.68,-938.82 1232.95,-930.64 1233.11,-941.23 1239.68,-938.82"/>
</g>
<!-- Metamodel::ParametricRoleHOW&#45;&gt;Metamodel::MethodContainer -->
<g id="edge28" class="edge">
<title>Metamodel::ParametricRoleHOW&#45;&gt;Metamodel::MethodContainer</title>
<path fill="none" stroke="#6666ff" d="M1386.43,-1358.24C1344.12,-1281.22 1181.22,-984.69 1181.22,-984.69 1181.22,-984.69 1094.75,-912.48 1094.75,-912.48 1094.75,-912.48 1138.68,-834.61 1162.6,-792.22"/>
<polygon fill="#6666ff" stroke="#6666ff" points="1165.65,-793.94 1167.51,-783.51 1159.55,-790.5 1165.65,-793.94"/>
</g>
<!-- Metamodel::ParametricRoleHOW&#45;&gt;Metamodel::PrivateMethodContainer -->
<g id="edge29" class="edge">
<title>Metamodel::ParametricRoleHOW&#45;&gt;Metamodel::PrivateMethodContainer</title>
<path fill="none" stroke="#6666ff" d="M1381.79,-1394.51C1348.36,-1436.13 1266.15,-1538.49 1227.35,-1586.81"/>
<polygon fill="#6666ff" stroke="#6666ff" points="1224.6,-1584.64 1221.07,-1594.63 1230.06,-1589.02 1224.6,-1584.64"/>
</g>
<!-- Metamodel::ParametricRoleHOW&#45;&gt;Metamodel::MultiMethodContainer -->
<g id="edge30" class="edge">
<title>Metamodel::ParametricRoleHOW&#45;&gt;Metamodel::MultiMethodContainer</title>
<path fill="none" stroke="#6666ff" d="M1327.37,-1360.51C1258.23,-1344.65 1151.95,-1320.26 1079.41,-1303.62"/>
<polygon fill="#6666ff" stroke="#6666ff" points="1079.94,-1300.15 1069.41,-1301.32 1078.37,-1306.97 1079.94,-1300.15"/>
</g>
<!-- Metamodel::ParametricRoleHOW&#45;&gt;Metamodel::MultipleInheritance -->
<g id="edge33" class="edge">
<title>Metamodel::ParametricRoleHOW&#45;&gt;Metamodel::MultipleInheritance</title>
<path fill="none" stroke="#6666ff" d="M1395.26,-1358.11C1392.76,-1317.39 1386.95,-1222.62 1386.95,-1222.62 1386.95,-1222.62 1404.96,-1080.54 1412.85,-1018.37"/>
<polygon fill="#6666ff" stroke="#6666ff" points="1416.37,-1018.45 1414.15,-1008.08 1409.42,-1017.56 1416.37,-1018.45"/>
</g>
<!-- Metamodel::ParametricRoleHOW&#45;&gt;Metamodel::TypePretense -->
<g id="edge35" class="edge">
<title>Metamodel::ParametricRoleHOW&#45;&gt;Metamodel::TypePretense</title>
<path fill="none" stroke="#6666ff" d="M1409.69,-1394.3C1461.52,-1464.2 1650.04,-1718.41 1711.27,-1801"/>
<polygon fill="#6666ff" stroke="#6666ff" points="1708.52,-1803.16 1717.29,-1809.11 1714.14,-1798.99 1708.52,-1803.16"/>
</g>
<!-- Metamodel::ParametricRoleHOW&#45;&gt;Metamodel::RolePunning -->
<g id="edge36" class="edge">
<title>Metamodel::ParametricRoleHOW&#45;&gt;Metamodel::RolePunning</title>
<path fill="none" stroke="#6666ff" d="M1496.71,-1389.1C1601.74,-1402.45 1765.54,-1423.26 1869.43,-1436.46"/>
<polygon fill="#6666ff" stroke="#6666ff" points="1869.25,-1439.97 1879.61,-1437.76 1870.13,-1433.02 1869.25,-1439.97"/>
</g>
<!-- Metamodel::BaseType -->
<g id="node26" class="node">
<title>Metamodel::BaseType</title>
<g id="a_node26"><a xlink:href="/type/Metamodel::BaseType" xlink:title="Metamodel::BaseType">
<ellipse fill="none" stroke="#6666ff" cx="995.08" cy="-18" rx="99.38" ry="18"/>
<text text-anchor="middle" x="995.08" y="-14.3" font-family="FreeSans" font-size="14.00" fill="#6666ff">Metamodel::BaseType</text>
</a>
</g>
</g>
<!-- Metamodel::EnumHOW -->
<g id="node27" class="node">
<title>Metamodel::EnumHOW</title>
<g id="a_node27"><a xlink:href="/type/Metamodel::EnumHOW" xlink:title="Metamodel::EnumHOW">
<ellipse fill="none" stroke="#000000" cx="858.76" cy="-652.04" rx="104.78" ry="18"/>
<text text-anchor="middle" x="858.76" y="-648.34" font-family="FreeSans" font-size="14.00" fill="#000000">Metamodel::EnumHOW</text>
</a>
</g>
</g>
<!-- Metamodel::EnumHOW&#45;&gt;Metamodel::RoleContainer -->
<g id="edge42" class="edge">
<title>Metamodel::EnumHOW&#45;&gt;Metamodel::RoleContainer</title>
<path fill="none" stroke="#6666ff" d="M870.08,-670.39C904.34,-725.92 1007.01,-892.34 1047.38,-957.76"/>
<polygon fill="#6666ff" stroke="#6666ff" points="1044.42,-959.63 1052.65,-966.3 1050.37,-955.95 1044.42,-959.63"/>
</g>
<!-- Metamodel::EnumHOW&#45;&gt;Any -->
<g id="edge4" class="edge">
<title>Metamodel::EnumHOW&#45;&gt;Any</title>
<path fill="none" stroke="#000000" d="M934.12,-664.55C1041.25,-682.33 1233.42,-714.24 1313.29,-727.5"/>
<polygon fill="#000000" stroke="#000000" points="1312.92,-730.98 1323.36,-729.17 1314.06,-724.08 1312.92,-730.98"/>
</g>
<!-- Metamodel::EnumHOW&#45;&gt;Metamodel::Naming -->
<g id="edge37" class="edge">
<title>Metamodel::EnumHOW&#45;&gt;Metamodel::Naming</title>
<path fill="none" stroke="#6666ff" d="M863.61,-670.39C882.03,-740.08 946.64,-984.51 946.64,-984.51 946.64,-984.51 1026.44,-1080.29 1065.8,-1127.55"/>
<polygon fill="#6666ff" stroke="#6666ff" points="1063.12,-1129.79 1072.21,-1135.23 1068.5,-1125.31 1063.12,-1129.79"/>
</g>
<!-- Metamodel::EnumHOW&#45;&gt;Metamodel::Stashing -->
<g id="edge38" class="edge">
<title>Metamodel::EnumHOW&#45;&gt;Metamodel::Stashing</title>
<path fill="none" stroke="#6666ff" d="M856.68,-670.18C847.67,-748.79 812.44,-1056.03 812.44,-1056.03 812.44,-1056.03 773.91,-1229.35 758.55,-1298.43"/>
<polygon fill="#6666ff" stroke="#6666ff" points="755.13,-1297.69 756.37,-1308.21 761.96,-1299.21 755.13,-1297.69"/>
</g>
<!-- Metamodel::EnumHOW&#45;&gt;Metamodel::AttributeContainer -->
<g id="edge39" class="edge">
<title>Metamodel::EnumHOW&#45;&gt;Metamodel::AttributeContainer</title>
<path fill="none" stroke="#6666ff" d="M883.45,-669.54C947.64,-715.04 1119.85,-837.11 1192.87,-888.86"/>
<polygon fill="#6666ff" stroke="#6666ff" points="1191.09,-891.89 1201.27,-894.82 1195.13,-886.18 1191.09,-891.89"/>
</g>
<!-- Metamodel::EnumHOW&#45;&gt;Metamodel::MethodContainer -->
<g id="edge40" class="edge">
<title>Metamodel::EnumHOW&#45;&gt;Metamodel::MethodContainer</title>
<path fill="none" stroke="#6666ff" d="M904.45,-668.29C961.51,-688.59 1059.12,-723.31 1120.91,-745.29"/>
<polygon fill="#6666ff" stroke="#6666ff" points="1119.92,-748.65 1130.51,-748.71 1122.26,-742.06 1119.92,-748.65"/>
</g>
<!-- Metamodel::EnumHOW&#45;&gt;Metamodel::MultiMethodContainer -->
<g id="edge41" class="edge">
<title>Metamodel::EnumHOW&#45;&gt;Metamodel::MultiMethodContainer</title>
<path fill="none" stroke="#6666ff" d="M862.84,-670.31C882.76,-759.53 969.82,-1149.44 993.97,-1257.55"/>
<polygon fill="#6666ff" stroke="#6666ff" points="990.57,-1258.4 996.16,-1267.4 997.4,-1256.87 990.57,-1258.4"/>
</g>
<!-- Metamodel::EnumHOW&#45;&gt;Metamodel::MROBasedMethodDispatch -->
<g id="edge44" class="edge">
<title>Metamodel::EnumHOW&#45;&gt;Metamodel::MROBasedMethodDispatch</title>
<path fill="none" stroke="#6666ff" d="M826.68,-634.88C766.49,-602.67 636.63,-533.2 569.49,-497.28"/>
<polygon fill="#6666ff" stroke="#6666ff" points="570.91,-494.07 560.44,-492.44 567.61,-500.25 570.91,-494.07"/>
</g>
<!-- Metamodel::EnumHOW&#45;&gt;Metamodel::MROBasedTypeChecking -->
<g id="edge45" class="edge">
<title>Metamodel::EnumHOW&#45;&gt;Metamodel::MROBasedTypeChecking</title>
<path fill="none" stroke="#6666ff" d="M848.03,-633.77C822.63,-590.53 758.72,-481.72 728.79,-430.77"/>
<polygon fill="#6666ff" stroke="#6666ff" points="731.7,-428.81 723.62,-421.96 725.66,-432.35 731.7,-428.81"/>
</g>
<!-- Metamodel::EnumHOW&#45;&gt;Metamodel::BUILDPLAN -->
<g id="edge46" class="edge">
<title>Metamodel::EnumHOW&#45;&gt;Metamodel::BUILDPLAN</title>
<path fill="none" stroke="#6666ff" d="M785.21,-639.19C700.8,-624.45 562.57,-600.31 473.46,-584.74"/>
<polygon fill="#6666ff" stroke="#6666ff" points="473.84,-581.26 463.38,-582.98 472.63,-588.15 473.84,-581.26"/>
</g>
<!-- Metamodel::EnumHOW&#45;&gt;Metamodel::Mixins -->
<g id="edge48" class="edge">
<title>Metamodel::EnumHOW&#45;&gt;Metamodel::Mixins</title>
<path fill="none" stroke="#6666ff" d="M821.29,-668.99C728.74,-710.85 489.6,-819.04 389.07,-864.51"/>
<polygon fill="#6666ff" stroke="#6666ff" points="387.45,-861.4 379.78,-868.72 390.34,-867.78 387.45,-861.4"/>
</g>
<!-- Metamodel::EnumHOW&#45;&gt;Metamodel::BoolificationProtocol -->
<g id="edge47" class="edge">
<title>Metamodel::EnumHOW&#45;&gt;Metamodel::BoolificationProtocol</title>
<path fill="none" stroke="#6666ff" d="M771.24,-661.93C678.81,-672.38 532.66,-688.91 430.96,-700.41"/>
<polygon fill="#6666ff" stroke="#6666ff" points="430.5,-696.94 420.95,-701.54 431.28,-703.89 430.5,-696.94"/>
</g>
<!-- Metamodel::EnumHOW&#45;&gt;Metamodel::BaseType -->
<g id="edge43" class="edge">
<title>Metamodel::EnumHOW&#45;&gt;Metamodel::BaseType</title>
<path fill="none" stroke="#6666ff" d="M862.69,-633.75C881.89,-544.44 965.81,-154.14 989.08,-45.91"/>
<polygon fill="#6666ff" stroke="#6666ff" points="992.51,-46.57 991.19,-36.06 985.67,-45.1 992.51,-46.57"/>
</g>
<!-- Metamodel::ConcreteRoleHOW -->
<g id="node28" class="node">
<title>Metamodel::ConcreteRoleHOW</title>
<g id="a_node28"><a xlink:href="/type/Metamodel::ConcreteRoleHOW" xlink:title="Metamodel::ConcreteRoleHOW">
<ellipse fill="none" stroke="#000000" cx="1523.73" cy="-1222.78" rx="135.38" ry="18"/>
<text text-anchor="middle" x="1523.73" y="-1219.08" font-family="FreeSans" font-size="14.00" fill="#000000">Metamodel::ConcreteRoleHOW</text>
</a>
</g>
</g>
<!-- Metamodel::ConcreteRoleHOW&#45;&gt;Metamodel::RoleContainer -->
<g id="edge55" class="edge">
<title>Metamodel::ConcreteRoleHOW&#45;&gt;Metamodel::RoleContainer</title>
<path fill="none" stroke="#6666ff" d="M1489.92,-1205.27C1407.61,-1162.63 1196.96,-1053.51 1106.38,-1006.59"/>
<polygon fill="#6666ff" stroke="#6666ff" points="1107.97,-1003.47 1097.48,-1001.98 1104.75,-1009.69 1107.97,-1003.47"/>
</g>
<!-- Metamodel::ConcreteRoleHOW&#45;&gt;Any -->
<g id="edge5" class="edge">
<title>Metamodel::ConcreteRoleHOW&#45;&gt;Any</title>
<path fill="none" stroke="#000000" d="M1525.95,-1204.51C1532.6,-1149.63 1551.95,-989.97 1551.95,-989.97 1551.95,-989.97 1418.82,-821.21 1368.55,-757.5"/>
<polygon fill="#000000" stroke="#000000" points="1371.25,-755.26 1362.3,-749.58 1365.75,-759.59 1371.25,-755.26"/>
</g>
<!-- Metamodel::ConcreteRoleHOW&#45;&gt;Metamodel::Naming -->
<g id="edge49" class="edge">
<title>Metamodel::ConcreteRoleHOW&#45;&gt;Metamodel::Naming</title>
<path fill="none" stroke="#6666ff" d="M1436.98,-1208.97C1358.7,-1196.51 1244.44,-1178.32 1168.06,-1166.16"/>
<polygon fill="#6666ff" stroke="#6666ff" points="1168.43,-1162.68 1158,-1164.56 1167.33,-1169.59 1168.43,-1162.68"/>
</g>
<!-- Metamodel::ConcreteRoleHOW&#45;&gt;Metamodel::Versioning -->
<g id="edge50" class="edge">
<title>Metamodel::ConcreteRoleHOW&#45;&gt;Metamodel::Versioning</title>
<path fill="none" stroke="#6666ff" d="M1492.69,-1240.39C1421.6,-1280.71 1253.09,-1376.3 1253.09,-1376.3 1253.09,-1376.3 1051.25,-1538.07 973.16,-1600.66"/>
<polygon fill="#6666ff" stroke="#6666ff" points="970.75,-1598.11 965.14,-1607.09 975.13,-1603.57 970.75,-1598.11"/>
</g>
<!-- Metamodel::ConcreteRoleHOW&#45;&gt;Metamodel::AttributeContainer -->
<g id="edge54" class="edge">
<title>Metamodel::ConcreteRoleHOW&#45;&gt;Metamodel::AttributeContainer</title>
<path fill="none" stroke="#6666ff" d="M1505.09,-1204.88C1448.24,-1150.29 1280.98,-989.67 1280.98,-989.67 1280.98,-989.67 1260.9,-961.34 1245.09,-939.04"/>
<polygon fill="#6666ff" stroke="#6666ff" points="1247.92,-936.98 1239.29,-930.85 1242.21,-941.03 1247.92,-936.98"/>
</g>
<!-- Metamodel::ConcreteRoleHOW&#45;&gt;Metamodel::MethodContainer -->
<g id="edge52" class="edge">
<title>Metamodel::ConcreteRoleHOW&#45;&gt;Metamodel::MethodContainer</title>
<path fill="none" stroke="#6666ff" d="M1525.95,-1204.51C1532.6,-1149.63 1551.95,-989.97 1551.95,-989.97 1551.95,-989.97 1311.07,-845.49 1215.8,-788.35"/>
<polygon fill="#6666ff" stroke="#6666ff" points="1217.43,-785.24 1207.05,-783.1 1213.83,-791.25 1217.43,-785.24"/>
</g>
<!-- Metamodel::ConcreteRoleHOW&#45;&gt;Metamodel::PrivateMethodContainer -->
<g id="edge51" class="edge">
<title>Metamodel::ConcreteRoleHOW&#45;&gt;Metamodel::PrivateMethodContainer</title>
<path fill="none" stroke="#6666ff" d="M1492.69,-1240.39C1421.6,-1280.71 1253.09,-1376.3 1253.09,-1376.3 1253.09,-1376.3 1224.36,-1521.95 1211.99,-1584.68"/>
<polygon fill="#6666ff" stroke="#6666ff" points="1208.52,-1584.2 1210.02,-1594.68 1215.39,-1585.55 1208.52,-1584.2"/>
</g>
<!-- Metamodel::ConcreteRoleHOW&#45;&gt;Metamodel::MultiMethodContainer -->
<g id="edge53" class="edge">
<title>Metamodel::ConcreteRoleHOW&#45;&gt;Metamodel::MultiMethodContainer</title>
<path fill="none" stroke="#6666ff" d="M1423.1,-1234.82C1335.21,-1245.34 1207.65,-1260.61 1115.63,-1271.62"/>
<polygon fill="#6666ff" stroke="#6666ff" points="1114.95,-1268.18 1105.44,-1272.84 1115.78,-1275.13 1114.95,-1268.18"/>
</g>
<!-- Metamodel::ConcreteRoleHOW&#45;&gt;Metamodel::MultipleInheritance -->
<g id="edge56" class="edge">
<title>Metamodel::ConcreteRoleHOW&#45;&gt;Metamodel::MultipleInheritance</title>
<path fill="none" stroke="#6666ff" d="M1515.31,-1204.5C1496.56,-1163.76 1451.23,-1065.31 1429.08,-1017.2"/>
<polygon fill="#6666ff" stroke="#6666ff" points="1432.21,-1015.63 1424.85,-1008.01 1425.85,-1018.56 1432.21,-1015.63"/>
</g>
</g>
</svg>
