<?xml version="1.0" encoding="UTF-8" standalone="no"?>
<!DOCTYPE svg PUBLIC "-//W3C//DTD SVG 1.1//EN"
 "http://www.w3.org/Graphics/SVG/1.1/DTD/svg11.dtd">
<!-- Generated by graphviz version 2.43.0 (0)
 -->
<!-- Title: raku&#45;type&#45;graph Pages: 1 -->
<svg width="1517pt" height="1039pt"
 viewBox="0.00 0.00 1517.44 1039.36" xmlns="http://www.w3.org/2000/svg" xmlns:xlink="http://www.w3.org/1999/xlink">
<g id="graph0" class="graph" transform="scale(1 1) rotate(0) translate(4 1035.36)">
<title>raku&#45;type&#45;graph</title>
<polygon fill="#ffffff" stroke="transparent" points="-4,4 -4,-1035.36 1513.44,-1035.36 1513.44,4 -4,4"/>
<!-- Metamodel::RolePunning -->
<g id="node1" class="node">
<title>Metamodel::RolePunning</title>
<g id="a_node1"><a xlink:href="/type/Metamodel::RolePunning" xlink:title="Metamodel::RolePunning">
<ellipse fill="none" stroke="#6666ff" cx="883.13" cy="-504.91" rx="109.68" ry="18"/>
<text text-anchor="middle" x="883.13" y="-501.21" font-family="FreeSans" font-size="14.00" fill="#6666ff">Metamodel::RolePunning</text>
</a>
</g>
</g>
<!-- Mu -->
<g id="node2" class="node">
<title>Mu</title>
<g id="a_node2"><a xlink:href="/type/Mu" xlink:title="Mu">
<ellipse fill="none" stroke="#000000" cx="1154.47" cy="-18" rx="27" ry="18"/>
<text text-anchor="middle" x="1154.47" y="-14.3" font-family="FreeSans" font-size="14.00" fill="#000000">Mu</text>
</a>
</g>
</g>
<!-- Any -->
<g id="node3" class="node">
<title>Any</title>
<g id="a_node3"><a xlink:href="/type/Any" xlink:title="Any">
<ellipse fill="none" stroke="#000000" cx="931.2" cy="-353.62" rx="27" ry="18"/>
<text text-anchor="middle" x="931.2" y="-349.92" font-family="FreeSans" font-size="14.00" fill="#000000">Any</text>
</a>
</g>
</g>
<!-- Any&#45;&gt;Mu -->
<g id="edge1" class="edge">
<title>Any&#45;&gt;Mu</title>
<path fill="none" stroke="#000000" d="M942.27,-336.98C978.58,-282.41 1094.17,-108.65 1137.68,-43.23"/>
<polygon fill="#000000" stroke="#000000" points="1140.7,-45.01 1143.33,-34.74 1134.88,-41.13 1140.7,-45.01"/>
</g>
<!-- Metamodel::Naming -->
<g id="node4" class="node">
<title>Metamodel::Naming</title>
<g id="a_node4"><a xlink:href="/type/Metamodel::Naming" xlink:title="Metamodel::Naming">
<ellipse fill="none" stroke="#6666ff" cx="697.54" cy="-935.01" rx="90.18" ry="18"/>
<text text-anchor="middle" x="697.54" y="-931.31" font-family="FreeSans" font-size="14.00" fill="#6666ff">Metamodel::Naming</text>
</a>
</g>
</g>
<!-- Metamodel::Documenting -->
<g id="node5" class="node">
<title>Metamodel::Documenting</title>
<g id="a_node5"><a xlink:href="/type/Metamodel::Documenting" xlink:title="Metamodel::Documenting">
<ellipse fill="none" stroke="#6666ff" cx="381" cy="-912.91" rx="111.28" ry="18"/>
<text text-anchor="middle" x="381" y="-909.21" font-family="FreeSans" font-size="14.00" fill="#6666ff">Metamodel::Documenting</text>
</a>
</g>
</g>
<!-- Metamodel::Versioning -->
<g id="node6" class="node">
<title>Metamodel::Versioning</title>
<g id="a_node6"><a xlink:href="/type/Metamodel::Versioning" xlink:title="Metamodel::Versioning">
<ellipse fill="none" stroke="#6666ff" cx="237.8" cy="-806.58" rx="100.98" ry="18"/>
<text text-anchor="middle" x="237.8" y="-802.88" font-family="FreeSans" font-size="14.00" fill="#6666ff">Metamodel::Versioning</text>
</a>
</g>
</g>
<!-- Metamodel::MethodContainer -->
<g id="node7" class="node">
<title>Metamodel::MethodContainer</title>
<g id="a_node7"><a xlink:href="/type/Metamodel::MethodContainer" xlink:title="Metamodel::MethodContainer">
<ellipse fill="none" stroke="#6666ff" cx="127.39" cy="-472.48" rx="127.28" ry="18"/>
<text text-anchor="middle" x="127.39" y="-468.78" font-family="FreeSans" font-size="14.00" fill="#6666ff">Metamodel::MethodContainer</text>
</a>
</g>
</g>
<!-- Metamodel::PrivateMethodContainer -->
<g id="node8" class="node">
<title>Metamodel::PrivateMethodContainer</title>
<g id="a_node8"><a xlink:href="/type/Metamodel::PrivateMethodContainer" xlink:title="Metamodel::PrivateMethodContainer">
<ellipse fill="none" stroke="#6666ff" cx="638.33" cy="-141.84" rx="154.87" ry="18"/>
<text text-anchor="middle" x="638.33" y="-138.14" font-family="FreeSans" font-size="14.00" fill="#6666ff">Metamodel::PrivateMethodContainer</text>
</a>
</g>
</g>
<!-- Metamodel::MultiMethodContainer -->
<g id="node9" class="node">
<title>Metamodel::MultiMethodContainer</title>
<g id="a_node9"><a xlink:href="/type/Metamodel::MultiMethodContainer" xlink:title="Metamodel::MultiMethodContainer">
<ellipse fill="none" stroke="#6666ff" cx="184.44" cy="-300.35" rx="146.47" ry="18"/>
<text text-anchor="middle" x="184.44" y="-296.65" font-family="FreeSans" font-size="14.00" fill="#6666ff">Metamodel::MultiMethodContainer</text>
</a>
</g>
</g>
<!-- Metamodel::AttributeContainer -->
<g id="node10" class="node">
<title>Metamodel::AttributeContainer</title>
<g id="a_node10"><a xlink:href="/type/Metamodel::AttributeContainer" xlink:title="Metamodel::AttributeContainer">
<ellipse fill="none" stroke="#6666ff" cx="470.95" cy="-97.83" rx="129.98" ry="18"/>
<text text-anchor="middle" x="470.95" y="-94.13" font-family="FreeSans" font-size="14.00" fill="#6666ff">Metamodel::AttributeContainer</text>
</a>
</g>
</g>
<!-- Metamodel::RoleContainer -->
<g id="node11" class="node">
<title>Metamodel::RoleContainer</title>
<g id="a_node11"><a xlink:href="/type/Metamodel::RoleContainer" xlink:title="Metamodel::RoleContainer">
<ellipse fill="none" stroke="#6666ff" cx="308.91" cy="-172.56" rx="115.88" ry="18"/>
<text text-anchor="middle" x="308.91" y="-168.86" font-family="FreeSans" font-size="14.00" fill="#6666ff">Metamodel::RoleContainer</text>
</a>
</g>
</g>
<!-- Metamodel::MultipleInheritance -->
<g id="node12" class="node">
<title>Metamodel::MultipleInheritance</title>
<g id="a_node12"><a xlink:href="/type/Metamodel::MultipleInheritance" xlink:title="Metamodel::MultipleInheritance">
<ellipse fill="none" stroke="#6666ff" cx="146.49" cy="-652.61" rx="133.78" ry="18"/>
<text text-anchor="middle" x="146.49" y="-648.91" font-family="FreeSans" font-size="14.00" fill="#6666ff">Metamodel::MultipleInheritance</text>
</a>
</g>
</g>
<!-- Metamodel::Stashing -->
<g id="node13" class="node">
<title>Metamodel::Stashing</title>
<g id="a_node13"><a xlink:href="/type/Metamodel::Stashing" xlink:title="Metamodel::Stashing">
<ellipse fill="none" stroke="#6666ff" cx="695.67" cy="-804.88" rx="93.68" ry="18"/>
<text text-anchor="middle" x="695.67" y="-801.18" font-family="FreeSans" font-size="14.00" fill="#6666ff">Metamodel::Stashing</text>
</a>
</g>
</g>
<!-- Metamodel::TypePretense -->
<g id="node14" class="node">
<title>Metamodel::TypePretense</title>
<g id="a_node14"><a xlink:href="/type/Metamodel::TypePretense" xlink:title="Metamodel::TypePretense">
<ellipse fill="none" stroke="#6666ff" cx="871.65" cy="-636.16" rx="114.28" ry="18"/>
<text text-anchor="middle" x="871.65" y="-632.46" font-family="FreeSans" font-size="14.00" fill="#6666ff">Metamodel::TypePretense</text>
</a>
</g>
</g>
<!-- Metamodel::ParametricRoleHOW -->
<g id="node15" class="node">
<title>Metamodel::ParametricRoleHOW</title>
<g id="a_node15"><a xlink:href="/type/Metamodel::ParametricRoleHOW" xlink:title="Metamodel::ParametricRoleHOW">
<ellipse fill="none" stroke="#000000" cx="515.62" cy="-511.98" rx="141.88" ry="18"/>
<text text-anchor="middle" x="515.62" y="-508.28" font-family="FreeSans" font-size="14.00" fill="#000000">Metamodel::ParametricRoleHOW</text>
</a>
</g>
</g>
<!-- Metamodel::ParametricRoleHOW&#45;&gt;Metamodel::RolePunning -->
<g id="edge16" class="edge">
<title>Metamodel::ParametricRoleHOW&#45;&gt;Metamodel::RolePunning</title>
<path fill="none" stroke="#6666ff" d="M655.87,-509.28C691.48,-508.6 729.41,-507.87 763.87,-507.2"/>
<polygon fill="#6666ff" stroke="#6666ff" points="764.04,-510.7 773.97,-507.01 763.9,-503.7 764.04,-510.7"/>
</g>
<!-- Metamodel::ParametricRoleHOW&#45;&gt;Any -->
<g id="edge2" class="edge">
<title>Metamodel::ParametricRoleHOW&#45;&gt;Any</title>
<path fill="none" stroke="#000000" d="M560.49,-494.88C644.48,-462.88 823.64,-394.61 897.89,-366.31"/>
<polygon fill="#000000" stroke="#000000" points="899.56,-369.43 907.65,-362.6 897.06,-362.89 899.56,-369.43"/>
</g>
<!-- Metamodel::ParametricRoleHOW&#45;&gt;Metamodel::Naming -->
<g id="edge5" class="edge">
<title>Metamodel::ParametricRoleHOW&#45;&gt;Metamodel::Naming</title>
<path fill="none" stroke="#6666ff" d="M520.93,-530.3C539.5,-594.41 600.48,-804.82 600.48,-804.82 600.48,-804.82 649.91,-871.12 678.22,-909.09"/>
<polygon fill="#6666ff" stroke="#6666ff" points="675.46,-911.26 684.25,-917.18 681.08,-907.07 675.46,-911.26"/>
</g>
<!-- Metamodel::ParametricRoleHOW&#45;&gt;Metamodel::Documenting -->
<g id="edge6" class="edge">
<title>Metamodel::ParametricRoleHOW&#45;&gt;Metamodel::Documenting</title>
<path fill="none" stroke="#6666ff" d="M509.57,-529.98C488.23,-593.56 416.28,-807.84 390.39,-884.96"/>
<polygon fill="#6666ff" stroke="#6666ff" points="387.05,-883.9 387.19,-894.49 393.69,-886.12 387.05,-883.9"/>
</g>
<!-- Metamodel::ParametricRoleHOW&#45;&gt;Metamodel::Versioning -->
<g id="edge7" class="edge">
<title>Metamodel::ParametricRoleHOW&#45;&gt;Metamodel::Versioning</title>
<path fill="none" stroke="#6666ff" d="M498.66,-529.96C451.08,-580.42 316.26,-723.39 261.43,-781.53"/>
<polygon fill="#6666ff" stroke="#6666ff" points="258.86,-779.16 254.54,-788.83 263.95,-783.96 258.86,-779.16"/>
</g>
<!-- Metamodel::ParametricRoleHOW&#45;&gt;Metamodel::MethodContainer -->
<g id="edge8" class="edge">
<title>Metamodel::ParametricRoleHOW&#45;&gt;Metamodel::MethodContainer</title>
<path fill="none" stroke="#6666ff" d="M404.89,-500.71C353.62,-495.5 292.77,-489.31 241.14,-484.05"/>
<polygon fill="#6666ff" stroke="#6666ff" points="241.24,-480.55 230.94,-483.02 240.53,-487.51 241.24,-480.55"/>
</g>
<!-- Metamodel::ParametricRoleHOW&#45;&gt;Metamodel::PrivateMethodContainer -->
<g id="edge9" class="edge">
<title>Metamodel::ParametricRoleHOW&#45;&gt;Metamodel::PrivateMethodContainer</title>
<path fill="none" stroke="#6666ff" d="M521.62,-493.87C541.48,-433.97 605.16,-241.91 629.11,-169.66"/>
<polygon fill="#6666ff" stroke="#6666ff" points="632.52,-170.5 632.34,-159.9 625.87,-168.29 632.52,-170.5"/>
</g>
<!-- Metamodel::ParametricRoleHOW&#45;&gt;Metamodel::MultiMethodContainer -->
<g id="edge10" class="edge">
<title>Metamodel::ParametricRoleHOW&#45;&gt;Metamodel::MultiMethodContainer</title>
<path fill="none" stroke="#6666ff" d="M487.95,-494.3C428.29,-456.18 287.54,-366.24 220.79,-323.58"/>
<polygon fill="#6666ff" stroke="#6666ff" points="222.57,-320.57 212.26,-318.13 218.8,-326.46 222.57,-320.57"/>
</g>
<!-- Metamodel::ParametricRoleHOW&#45;&gt;Metamodel::AttributeContainer -->
<g id="edge11" class="edge">
<title>Metamodel::ParametricRoleHOW&#45;&gt;Metamodel::AttributeContainer</title>
<path fill="none" stroke="#6666ff" d="M513.67,-493.92C506.65,-428.79 482.58,-205.68 474.01,-126.21"/>
<polygon fill="#6666ff" stroke="#6666ff" points="477.46,-125.55 472.91,-115.99 470.5,-126.31 477.46,-125.55"/>
</g>
<!-- Metamodel::ParametricRoleHOW&#45;&gt;Metamodel::RoleContainer -->
<g id="edge12" class="edge">
<title>Metamodel::ParametricRoleHOW&#45;&gt;Metamodel::RoleContainer</title>
<path fill="none" stroke="#6666ff" d="M504.5,-493.73C470.15,-437.31 365.52,-265.51 325.09,-199.13"/>
<polygon fill="#6666ff" stroke="#6666ff" points="328.02,-197.21 319.83,-190.49 322.04,-200.85 328.02,-197.21"/>
</g>
<!-- Metamodel::ParametricRoleHOW&#45;&gt;Metamodel::MultipleInheritance -->
<g id="edge13" class="edge">
<title>Metamodel::ParametricRoleHOW&#45;&gt;Metamodel::MultipleInheritance</title>
<path fill="none" stroke="#6666ff" d="M470.72,-529.08C402.69,-555 273.67,-604.15 200.57,-632.01"/>
<polygon fill="#6666ff" stroke="#6666ff" points="199.17,-628.79 191.07,-635.62 201.66,-635.34 199.17,-628.79"/>
</g>
<!-- Metamodel::ParametricRoleHOW&#45;&gt;Metamodel::Stashing -->
<g id="edge14" class="edge">
<title>Metamodel::ParametricRoleHOW&#45;&gt;Metamodel::Stashing</title>
<path fill="none" stroke="#6666ff" d="M526.88,-530.3C557.65,-580.35 643.21,-719.54 679.29,-778.24"/>
<polygon fill="#6666ff" stroke="#6666ff" points="676.42,-780.25 684.64,-786.94 682.39,-776.59 676.42,-780.25"/>
</g>
<!-- Metamodel::ParametricRoleHOW&#45;&gt;Metamodel::TypePretense -->
<g id="edge15" class="edge">
<title>Metamodel::ParametricRoleHOW&#45;&gt;Metamodel::TypePretense</title>
<path fill="none" stroke="#6666ff" d="M564.38,-528.98C629.77,-551.79 745.64,-592.21 814.88,-616.36"/>
<polygon fill="#6666ff" stroke="#6666ff" points="813.74,-619.67 824.33,-619.65 816.04,-613.06 813.74,-619.67"/>
</g>
<!-- Metamodel::CurriedRoleHOW -->
<g id="node16" class="node">
<title>Metamodel::CurriedRoleHOW</title>
<g id="a_node16"><a xlink:href="/type/Metamodel::CurriedRoleHOW" xlink:title="Metamodel::CurriedRoleHOW">
<ellipse fill="none" stroke="#000000" cx="1236.62" cy="-431.94" rx="128.08" ry="18"/>
<text text-anchor="middle" x="1236.62" y="-428.24" font-family="FreeSans" font-size="14.00" fill="#000000">Metamodel::CurriedRoleHOW</text>
</a>
</g>
</g>
<!-- Metamodel::CurriedRoleHOW&#45;&gt;Metamodel::RolePunning -->
<g id="edge17" class="edge">
<title>Metamodel::CurriedRoleHOW&#45;&gt;Metamodel::RolePunning</title>
<path fill="none" stroke="#6666ff" d="M1164.23,-446.88C1105.2,-459.07 1021.98,-476.25 961.41,-488.75"/>
<polygon fill="#6666ff" stroke="#6666ff" points="960.6,-485.34 951.52,-490.79 962.02,-492.2 960.6,-485.34"/>
</g>
<!-- Metamodel::CurriedRoleHOW&#45;&gt;Any -->
<g id="edge3" class="edge">
<title>Metamodel::CurriedRoleHOW&#45;&gt;Any</title>
<path fill="none" stroke="#000000" d="M1174.81,-416.09C1112.19,-400.03 1017.51,-375.76 966.59,-362.7"/>
<polygon fill="#000000" stroke="#000000" points="967.27,-359.26 956.71,-360.17 965.53,-366.04 967.27,-359.26"/>
</g>
<!-- Metamodel::CurriedRoleHOW&#45;&gt;Metamodel::TypePretense -->
<g id="edge18" class="edge">
<title>Metamodel::CurriedRoleHOW&#45;&gt;Metamodel::TypePretense</title>
<path fill="none" stroke="#6666ff" d="M1205.19,-449.53C1138.86,-486.64 984.7,-572.9 911.55,-613.83"/>
<polygon fill="#6666ff" stroke="#6666ff" points="909.64,-610.89 902.62,-618.83 913.06,-617 909.64,-610.89"/>
</g>
<!-- Metamodel::BoolificationProtocol -->
<g id="node17" class="node">
<title>Metamodel::BoolificationProtocol</title>
<g id="a_node17"><a xlink:href="/type/Metamodel::BoolificationProtocol" xlink:title="Metamodel::BoolificationProtocol">
<ellipse fill="none" stroke="#6666ff" cx="1370.36" cy="-1013.36" rx="139.18" ry="18"/>
<text text-anchor="middle" x="1370.36" y="-1009.66" font-family="FreeSans" font-size="14.00" fill="#6666ff">Metamodel::BoolificationProtocol</text>
</a>
</g>
</g>
<!-- Metamodel::ParametricRoleGroupHOW -->
<g id="node18" class="node">
<title>Metamodel::ParametricRoleGroupHOW</title>
<g id="a_node18"><a xlink:href="/type/Metamodel::ParametricRoleGroupHOW" xlink:title="Metamodel::ParametricRoleGroupHOW">
<ellipse fill="none" stroke="#000000" cx="1070.07" cy="-801.52" rx="166.27" ry="18"/>
<text text-anchor="middle" x="1070.07" y="-797.82" font-family="FreeSans" font-size="14.00" fill="#000000">Metamodel::ParametricRoleGroupHOW</text>
</a>
</g>
</g>
<!-- Metamodel::ParametricRoleGroupHOW&#45;&gt;Metamodel::RolePunning -->
<g id="edge22" class="edge">
<title>Metamodel::ParametricRoleGroupHOW&#45;&gt;Metamodel::RolePunning</title>
<path fill="none" stroke="#6666ff" d="M1061.09,-783.53C1039.73,-740.72 987.64,-636.35 987.64,-636.35 987.64,-636.35 934.42,-569.42 903.93,-531.08"/>
<polygon fill="#6666ff" stroke="#6666ff" points="906.4,-528.56 897.44,-522.91 900.92,-532.92 906.4,-528.56"/>
</g>
<!-- Metamodel::ParametricRoleGroupHOW&#45;&gt;Any -->
<g id="edge4" class="edge">
<title>Metamodel::ParametricRoleGroupHOW&#45;&gt;Any</title>
<path fill="none" stroke="#000000" d="M1065.46,-783.41C1049.07,-719.02 994.57,-504.93 994.57,-504.93 994.57,-504.93 960.61,-423.85 942.41,-380.39"/>
<polygon fill="#000000" stroke="#000000" points="945.56,-378.85 938.47,-370.98 939.1,-381.56 945.56,-378.85"/>
</g>
<!-- Metamodel::ParametricRoleGroupHOW&#45;&gt;Metamodel::Naming -->
<g id="edge19" class="edge">
<title>Metamodel::ParametricRoleGroupHOW&#45;&gt;Metamodel::Naming</title>
<path fill="none" stroke="#6666ff" d="M1021.75,-818.83C952.04,-843.81 823.68,-889.81 751.14,-915.8"/>
<polygon fill="#6666ff" stroke="#6666ff" points="749.95,-912.51 741.71,-919.18 752.31,-919.1 749.95,-912.51"/>
</g>
<!-- Metamodel::ParametricRoleGroupHOW&#45;&gt;Metamodel::Stashing -->
<g id="edge20" class="edge">
<title>Metamodel::ParametricRoleGroupHOW&#45;&gt;Metamodel::Stashing</title>
<path fill="none" stroke="#6666ff" d="M904.22,-803.01C868.65,-803.33 832.05,-803.66 799.63,-803.95"/>
<polygon fill="#6666ff" stroke="#6666ff" points="799.22,-800.45 789.25,-804.04 799.28,-807.45 799.22,-800.45"/>
</g>
<!-- Metamodel::ParametricRoleGroupHOW&#45;&gt;Metamodel::TypePretense -->
<g id="edge21" class="edge">
<title>Metamodel::ParametricRoleGroupHOW&#45;&gt;Metamodel::TypePretense</title>
<path fill="none" stroke="#6666ff" d="M1048.46,-783.5C1012.66,-753.67 941.01,-693.96 900.78,-660.44"/>
<polygon fill="#6666ff" stroke="#6666ff" points="902.86,-657.61 892.94,-653.9 898.38,-662.99 902.86,-657.61"/>
</g>
<!-- Metamodel::ParametricRoleGroupHOW&#45;&gt;Metamodel::BoolificationProtocol -->
<g id="edge23" class="edge">
<title>Metamodel::ParametricRoleGroupHOW&#45;&gt;Metamodel::BoolificationProtocol</title>
<path fill="none" stroke="#6666ff" d="M1095.41,-819.4C1149.46,-857.52 1276.03,-946.81 1336.73,-989.64"/>
<polygon fill="#6666ff" stroke="#6666ff" points="1335,-992.7 1345.19,-995.61 1339.03,-986.98 1335,-992.7"/>
</g>
</g>
</svg>
