<?xml version="1.0" encoding="UTF-8" standalone="no"?>
<!DOCTYPE svg PUBLIC "-//W3C//DTD SVG 1.1//EN"
 "http://www.w3.org/Graphics/SVG/1.1/DTD/svg11.dtd">
<!-- Generated by graphviz version 2.43.0 (0)
 -->
<!-- Title: raku&#45;type&#45;graph Pages: 1 -->
<svg width="2063pt" height="1720pt"
 viewBox="0.00 0.00 2063.49 1720.02" xmlns="http://www.w3.org/2000/svg" xmlns:xlink="http://www.w3.org/1999/xlink">
<g id="graph0" class="graph" transform="scale(1 1) rotate(0) translate(4 1716.02)">
<title>raku&#45;type&#45;graph</title>
<polygon fill="#ffffff" stroke="transparent" points="-4,4 -4,-1716.02 2059.49,-1716.02 2059.49,4 -4,4"/>
<!-- Metamodel::AttributeContainer -->
<g id="node1" class="node">
<title>Metamodel::AttributeContainer</title>
<g id="a_node1"><a xlink:href="/type/Metamodel::AttributeContainer" xlink:title="Metamodel::AttributeContainer">
<ellipse fill="none" stroke="#6666ff" cx="998.59" cy="-948.73" rx="129.98" ry="18"/>
<text text-anchor="middle" x="998.59" y="-945.03" font-family="FreeSans" font-size="14.00" fill="#6666ff">Metamodel::AttributeContainer</text>
</a>
</g>
</g>
<!-- Mu -->
<g id="node2" class="node">
<title>Mu</title>
<g id="a_node2"><a xlink:href="/type/Mu" xlink:title="Mu">
<ellipse fill="none" stroke="#000000" cx="1604.75" cy="-229.24" rx="27" ry="18"/>
<text text-anchor="middle" x="1604.75" y="-225.54" font-family="FreeSans" font-size="14.00" fill="#000000">Mu</text>
</a>
</g>
</g>
<!-- Any -->
<g id="node3" class="node">
<title>Any</title>
<g id="a_node3"><a xlink:href="/type/Any" xlink:title="Any">
<ellipse fill="none" stroke="#000000" cx="1210.91" cy="-637.77" rx="27" ry="18"/>
<text text-anchor="middle" x="1210.91" y="-634.07" font-family="FreeSans" font-size="14.00" fill="#000000">Any</text>
</a>
</g>
</g>
<!-- Any&#45;&gt;Mu -->
<g id="edge1" class="edge">
<title>Any&#45;&gt;Mu</title>
<path fill="none" stroke="#000000" d="M1225.87,-622.25C1286.06,-559.82 1510.77,-326.73 1582.56,-252.27"/>
<polygon fill="#000000" stroke="#000000" points="1585.36,-254.4 1589.78,-244.77 1580.32,-249.54 1585.36,-254.4"/>
</g>
<!-- Metamodel::Naming -->
<g id="node4" class="node">
<title>Metamodel::Naming</title>
<g id="a_node4"><a xlink:href="/type/Metamodel::Naming" xlink:title="Metamodel::Naming">
<ellipse fill="none" stroke="#6666ff" cx="1009" cy="-1120.14" rx="90.18" ry="18"/>
<text text-anchor="middle" x="1009" y="-1116.44" font-family="FreeSans" font-size="14.00" fill="#6666ff">Metamodel::Naming</text>
</a>
</g>
</g>
<!-- Metamodel::Documenting -->
<g id="node5" class="node">
<title>Metamodel::Documenting</title>
<g id="a_node5"><a xlink:href="/type/Metamodel::Documenting" xlink:title="Metamodel::Documenting">
<ellipse fill="none" stroke="#6666ff" cx="785.18" cy="-1653.26" rx="111.28" ry="18"/>
<text text-anchor="middle" x="785.18" y="-1649.56" font-family="FreeSans" font-size="14.00" fill="#6666ff">Metamodel::Documenting</text>
</a>
</g>
</g>
<!-- Metamodel::Versioning -->
<g id="node6" class="node">
<title>Metamodel::Versioning</title>
<g id="a_node6"><a xlink:href="/type/Metamodel::Versioning" xlink:title="Metamodel::Versioning">
<ellipse fill="none" stroke="#6666ff" cx="951.96" cy="-1565.83" rx="100.98" ry="18"/>
<text text-anchor="middle" x="951.96" y="-1562.13" font-family="FreeSans" font-size="14.00" fill="#6666ff">Metamodel::Versioning</text>
</a>
</g>
</g>
<!-- Metamodel::Stashing -->
<g id="node7" class="node">
<title>Metamodel::Stashing</title>
<g id="a_node7"><a xlink:href="/type/Metamodel::Stashing" xlink:title="Metamodel::Stashing">
<ellipse fill="none" stroke="#6666ff" cx="682.42" cy="-1320.45" rx="93.68" ry="18"/>
<text text-anchor="middle" x="682.42" y="-1316.75" font-family="FreeSans" font-size="14.00" fill="#6666ff">Metamodel::Stashing</text>
</a>
</g>
</g>
<!-- Metamodel::Finalization -->
<g id="node8" class="node">
<title>Metamodel::Finalization</title>
<g id="a_node8"><a xlink:href="/type/Metamodel::Finalization" xlink:title="Metamodel::Finalization">
<ellipse fill="none" stroke="#6666ff" cx="703.34" cy="-384.69" rx="103.98" ry="18"/>
<text text-anchor="middle" x="703.34" y="-380.99" font-family="FreeSans" font-size="14.00" fill="#6666ff">Metamodel::Finalization</text>
</a>
</g>
</g>
<!-- Metamodel::MethodContainer -->
<g id="node9" class="node">
<title>Metamodel::MethodContainer</title>
<g id="a_node9"><a xlink:href="/type/Metamodel::MethodContainer" xlink:title="Metamodel::MethodContainer">
<ellipse fill="none" stroke="#6666ff" cx="1035.22" cy="-711.87" rx="127.28" ry="18"/>
<text text-anchor="middle" x="1035.22" y="-708.17" font-family="FreeSans" font-size="14.00" fill="#6666ff">Metamodel::MethodContainer</text>
</a>
</g>
</g>
<!-- Metamodel::PrivateMethodContainer -->
<g id="node10" class="node">
<title>Metamodel::PrivateMethodContainer</title>
<g id="a_node10"><a xlink:href="/type/Metamodel::PrivateMethodContainer" xlink:title="Metamodel::PrivateMethodContainer">
<ellipse fill="none" stroke="#6666ff" cx="1417.64" cy="-869.2" rx="154.87" ry="18"/>
<text text-anchor="middle" x="1417.64" y="-865.5" font-family="FreeSans" font-size="14.00" fill="#6666ff">Metamodel::PrivateMethodContainer</text>
</a>
</g>
</g>
<!-- Metamodel::MultiMethodContainer -->
<g id="node11" class="node">
<title>Metamodel::MultiMethodContainer</title>
<g id="a_node11"><a xlink:href="/type/Metamodel::MultiMethodContainer" xlink:title="Metamodel::MultiMethodContainer">
<ellipse fill="none" stroke="#6666ff" cx="1108.69" cy="-834.29" rx="146.47" ry="18"/>
<text text-anchor="middle" x="1108.69" y="-830.59" font-family="FreeSans" font-size="14.00" fill="#6666ff">Metamodel::MultiMethodContainer</text>
</a>
</g>
</g>
<!-- Metamodel::RoleContainer -->
<g id="node12" class="node">
<title>Metamodel::RoleContainer</title>
<g id="a_node12"><a xlink:href="/type/Metamodel::RoleContainer" xlink:title="Metamodel::RoleContainer">
<ellipse fill="none" stroke="#6666ff" cx="927.46" cy="-1255.52" rx="115.88" ry="18"/>
<text text-anchor="middle" x="927.46" y="-1251.82" font-family="FreeSans" font-size="14.00" fill="#6666ff">Metamodel::RoleContainer</text>
</a>
</g>
</g>
<!-- Metamodel::MultipleInheritance -->
<g id="node13" class="node">
<title>Metamodel::MultipleInheritance</title>
<g id="a_node13"><a xlink:href="/type/Metamodel::MultipleInheritance" xlink:title="Metamodel::MultipleInheritance">
<ellipse fill="none" stroke="#6666ff" cx="1194.74" cy="-1530.34" rx="133.78" ry="18"/>
<text text-anchor="middle" x="1194.74" y="-1526.64" font-family="FreeSans" font-size="14.00" fill="#6666ff">Metamodel::MultipleInheritance</text>
</a>
</g>
</g>
<!-- Metamodel::DefaultParent -->
<g id="node14" class="node">
<title>Metamodel::DefaultParent</title>
<g id="a_node14"><a xlink:href="/type/Metamodel::DefaultParent" xlink:title="Metamodel::DefaultParent">
<ellipse fill="none" stroke="#6666ff" cx="376.94" cy="-1606.81" rx="113.18" ry="18"/>
<text text-anchor="middle" x="376.94" y="-1603.11" font-family="FreeSans" font-size="14.00" fill="#6666ff">Metamodel::DefaultParent</text>
</a>
</g>
</g>
<!-- Metamodel::C3MRO -->
<g id="node15" class="node">
<title>Metamodel::C3MRO</title>
<g id="a_node15"><a xlink:href="/type/Metamodel::C3MRO" xlink:title="Metamodel::C3MRO">
<ellipse fill="none" stroke="#6666ff" cx="220.18" cy="-1449.1" rx="92.08" ry="18"/>
<text text-anchor="middle" x="220.18" y="-1445.4" font-family="FreeSans" font-size="14.00" fill="#6666ff">Metamodel::C3MRO</text>
</a>
</g>
</g>
<!-- Metamodel::MROBasedMethodDispatch -->
<g id="node16" class="node">
<title>Metamodel::MROBasedMethodDispatch</title>
<g id="a_node16"><a xlink:href="/type/Metamodel::MROBasedMethodDispatch" xlink:title="Metamodel::MROBasedMethodDispatch">
<ellipse fill="none" stroke="#6666ff" cx="297.02" cy="-560.3" rx="169.77" ry="18"/>
<text text-anchor="middle" x="297.02" y="-556.6" font-family="FreeSans" font-size="14.00" fill="#6666ff">Metamodel::MROBasedMethodDispatch</text>
</a>
</g>
</g>
<!-- Metamodel::MROBasedTypeChecking -->
<g id="node17" class="node">
<title>Metamodel::MROBasedTypeChecking</title>
<g id="a_node17"><a xlink:href="/type/Metamodel::MROBasedTypeChecking" xlink:title="Metamodel::MROBasedTypeChecking">
<ellipse fill="none" stroke="#6666ff" cx="449.78" cy="-448.77" rx="163.27" ry="18"/>
<text text-anchor="middle" x="449.78" y="-445.07" font-family="FreeSans" font-size="14.00" fill="#6666ff">Metamodel::MROBasedTypeChecking</text>
</a>
</g>
</g>
<!-- Metamodel::Trusting -->
<g id="node18" class="node">
<title>Metamodel::Trusting</title>
<g id="a_node18"><a xlink:href="/type/Metamodel::Trusting" xlink:title="Metamodel::Trusting">
<ellipse fill="none" stroke="#6666ff" cx="91.64" cy="-1260.57" rx="91.78" ry="18"/>
<text text-anchor="middle" x="91.64" y="-1256.87" font-family="FreeSans" font-size="14.00" fill="#6666ff">Metamodel::Trusting</text>
</a>
</g>
</g>
<!-- Metamodel::BUILDPLAN -->
<g id="node19" class="node">
<title>Metamodel::BUILDPLAN</title>
<g id="a_node19"><a xlink:href="/type/Metamodel::BUILDPLAN" xlink:title="Metamodel::BUILDPLAN">
<ellipse fill="none" stroke="#6666ff" cx="210.06" cy="-703.33" rx="109.68" ry="18"/>
<text text-anchor="middle" x="210.06" y="-699.63" font-family="FreeSans" font-size="14.00" fill="#6666ff">Metamodel::BUILDPLAN</text>
</a>
</g>
</g>
<!-- Metamodel::Mixins -->
<g id="node20" class="node">
<title>Metamodel::Mixins</title>
<g id="a_node20"><a xlink:href="/type/Metamodel::Mixins" xlink:title="Metamodel::Mixins">
<ellipse fill="none" stroke="#6666ff" cx="155.76" cy="-859.61" rx="85.29" ry="18"/>
<text text-anchor="middle" x="155.76" y="-855.91" font-family="FreeSans" font-size="14.00" fill="#6666ff">Metamodel::Mixins</text>
</a>
</g>
</g>
<!-- Metamodel::BoolificationProtocol -->
<g id="node21" class="node">
<title>Metamodel::BoolificationProtocol</title>
<g id="a_node21"><a xlink:href="/type/Metamodel::BoolificationProtocol" xlink:title="Metamodel::BoolificationProtocol">
<ellipse fill="none" stroke="#6666ff" cx="230.34" cy="-1013.79" rx="139.18" ry="18"/>
<text text-anchor="middle" x="230.34" y="-1010.09" font-family="FreeSans" font-size="14.00" fill="#6666ff">Metamodel::BoolificationProtocol</text>
</a>
</g>
</g>
<!-- Metamodel::ClassHOW -->
<g id="node22" class="node">
<title>Metamodel::ClassHOW</title>
<g id="a_node22"><a xlink:href="/type/Metamodel::ClassHOW" xlink:title="Metamodel::ClassHOW">
<ellipse fill="none" stroke="#000000" cx="651.74" cy="-1021.43" rx="103.18" ry="18"/>
<text text-anchor="middle" x="651.74" y="-1017.73" font-family="FreeSans" font-size="14.00" fill="#000000">Metamodel::ClassHOW</text>
</a>
</g>
</g>
<!-- Metamodel::ClassHOW&#45;&gt;Metamodel::AttributeContainer -->
<g id="edge10" class="edge">
<title>Metamodel::ClassHOW&#45;&gt;Metamodel::AttributeContainer</title>
<path fill="none" stroke="#6666ff" d="M717.79,-1007.59C774.4,-995.72 856.15,-978.58 916.86,-965.86"/>
<polygon fill="#6666ff" stroke="#6666ff" points="917.73,-969.25 926.8,-963.78 916.3,-962.4 917.73,-969.25"/>
</g>
<!-- Metamodel::ClassHOW&#45;&gt;Any -->
<g id="edge2" class="edge">
<title>Metamodel::ClassHOW&#45;&gt;Any</title>
<path fill="none" stroke="#000000" d="M680.54,-1003.99C757.28,-957.52 960.85,-834.23 960.85,-834.23 960.85,-834.23 1164.21,-711.91 1164.21,-711.91 1164.21,-711.91 1181.3,-684.77 1194.81,-663.34"/>
<polygon fill="#000000" stroke="#000000" points="1197.95,-664.92 1200.31,-654.59 1192.02,-661.19 1197.95,-664.92"/>
</g>
<!-- Metamodel::ClassHOW&#45;&gt;Metamodel::Naming -->
<g id="edge6" class="edge">
<title>Metamodel::ClassHOW&#45;&gt;Metamodel::Naming</title>
<path fill="none" stroke="#6666ff" d="M707.17,-1036.75C771.9,-1054.63 878.7,-1084.14 946.37,-1102.83"/>
<polygon fill="#6666ff" stroke="#6666ff" points="945.49,-1106.22 956.06,-1105.51 947.36,-1099.47 945.49,-1106.22"/>
</g>
<!-- Metamodel::ClassHOW&#45;&gt;Metamodel::Documenting -->
<g id="edge7" class="edge">
<title>Metamodel::ClassHOW&#45;&gt;Metamodel::Documenting</title>
<path fill="none" stroke="#6666ff" d="M659.42,-1039.69C686.75,-1104.64 777.61,-1320.56 777.61,-1320.56 777.61,-1320.56 782.69,-1543.67 784.53,-1624.48"/>
<polygon fill="#6666ff" stroke="#6666ff" points="781.04,-1624.98 784.76,-1634.9 788.03,-1624.82 781.04,-1624.98"/>
</g>
<!-- Metamodel::ClassHOW&#45;&gt;Metamodel::Versioning -->
<g id="edge8" class="edge">
<title>Metamodel::ClassHOW&#45;&gt;Metamodel::Versioning</title>
<path fill="none" stroke="#6666ff" d="M661.73,-1039.54C705.94,-1119.71 884.16,-1442.87 937.08,-1538.83"/>
<polygon fill="#6666ff" stroke="#6666ff" points="934.04,-1540.58 941.94,-1547.64 940.17,-1537.2 934.04,-1540.58"/>
</g>
<!-- Metamodel::ClassHOW&#45;&gt;Metamodel::Stashing -->
<g id="edge9" class="edge">
<title>Metamodel::ClassHOW&#45;&gt;Metamodel::Stashing</title>
<path fill="none" stroke="#6666ff" d="M653.61,-1039.69C658.79,-1090.16 673.33,-1231.88 679.55,-1292.44"/>
<polygon fill="#6666ff" stroke="#6666ff" points="676.07,-1292.84 680.57,-1302.43 683.03,-1292.13 676.07,-1292.84"/>
</g>
<!-- Metamodel::ClassHOW&#45;&gt;Metamodel::Finalization -->
<g id="edge11" class="edge">
<title>Metamodel::ClassHOW&#45;&gt;Metamodel::Finalization</title>
<path fill="none" stroke="#6666ff" d="M647.71,-1003.02C632.41,-933.07 578.76,-687.79 578.76,-687.79 578.76,-687.79 661.16,-487.3 691.93,-412.44"/>
<polygon fill="#6666ff" stroke="#6666ff" points="695.35,-413.33 695.92,-402.75 688.88,-410.66 695.35,-413.33"/>
</g>
<!-- Metamodel::ClassHOW&#45;&gt;Metamodel::MethodContainer -->
<g id="edge12" class="edge">
<title>Metamodel::ClassHOW&#45;&gt;Metamodel::MethodContainer</title>
<path fill="none" stroke="#6666ff" d="M673.73,-1003.68C738.71,-951.23 929.91,-796.88 1004.72,-736.49"/>
<polygon fill="#6666ff" stroke="#6666ff" points="1007.26,-738.95 1012.84,-729.94 1002.86,-733.5 1007.26,-738.95"/>
</g>
<!-- Metamodel::ClassHOW&#45;&gt;Metamodel::PrivateMethodContainer -->
<g id="edge13" class="edge">
<title>Metamodel::ClassHOW&#45;&gt;Metamodel::PrivateMethodContainer</title>
<path fill="none" stroke="#6666ff" d="M733.88,-1010.45C861.07,-993.43 1091.19,-962.65 1091.19,-962.65 1091.19,-962.65 1253.68,-916.14 1349.38,-888.74"/>
<polygon fill="#6666ff" stroke="#6666ff" points="1350.63,-892.03 1359.28,-885.91 1348.7,-885.3 1350.63,-892.03"/>
</g>
<!-- Metamodel::ClassHOW&#45;&gt;Metamodel::MultiMethodContainer -->
<g id="edge14" class="edge">
<title>Metamodel::ClassHOW&#45;&gt;Metamodel::MultiMethodContainer</title>
<path fill="none" stroke="#6666ff" d="M692.29,-1004.82C775.51,-970.74 965.47,-892.94 1057.21,-855.37"/>
<polygon fill="#6666ff" stroke="#6666ff" points="1058.65,-858.56 1066.58,-851.53 1056,-852.08 1058.65,-858.56"/>
</g>
<!-- Metamodel::ClassHOW&#45;&gt;Metamodel::RoleContainer -->
<g id="edge15" class="edge">
<title>Metamodel::ClassHOW&#45;&gt;Metamodel::RoleContainer</title>
<path fill="none" stroke="#6666ff" d="M672.92,-1039.41C721.95,-1081.04 843.34,-1184.1 898.89,-1231.26"/>
<polygon fill="#6666ff" stroke="#6666ff" points="896.7,-1233.99 906.59,-1237.8 901.23,-1228.66 896.7,-1233.99"/>
</g>
<!-- Metamodel::ClassHOW&#45;&gt;Metamodel::MultipleInheritance -->
<g id="edge16" class="edge">
<title>Metamodel::ClassHOW&#45;&gt;Metamodel::MultipleInheritance</title>
<path fill="none" stroke="#6666ff" d="M663.91,-1039.4C701.01,-1094.18 810.18,-1255.38 810.18,-1255.38 810.18,-1255.38 1068.23,-1439.88 1161.56,-1506.61"/>
<polygon fill="#6666ff" stroke="#6666ff" points="1159.64,-1509.54 1169.81,-1512.51 1163.71,-1503.85 1159.64,-1509.54"/>
</g>
<!-- Metamodel::ClassHOW&#45;&gt;Metamodel::DefaultParent -->
<g id="edge17" class="edge">
<title>Metamodel::ClassHOW&#45;&gt;Metamodel::DefaultParent</title>
<path fill="none" stroke="#6666ff" d="M643.21,-1039.59C603.63,-1123.91 437.68,-1477.43 389.88,-1579.25"/>
<polygon fill="#6666ff" stroke="#6666ff" points="386.58,-1578.03 385.5,-1588.57 392.92,-1581 386.58,-1578.03"/>
</g>
<!-- Metamodel::ClassHOW&#45;&gt;Metamodel::C3MRO -->
<g id="edge18" class="edge">
<title>Metamodel::ClassHOW&#45;&gt;Metamodel::C3MRO</title>
<path fill="none" stroke="#6666ff" d="M633.74,-1039.26C565.75,-1106.65 324.33,-1345.89 245.37,-1424.13"/>
<polygon fill="#6666ff" stroke="#6666ff" points="242.89,-1421.67 238.25,-1431.19 247.82,-1426.64 242.89,-1421.67"/>
</g>
<!-- Metamodel::ClassHOW&#45;&gt;Metamodel::MROBasedMethodDispatch -->
<g id="edge19" class="edge">
<title>Metamodel::ClassHOW&#45;&gt;Metamodel::MROBasedMethodDispatch</title>
<path fill="none" stroke="#6666ff" d="M637.83,-1003.35C582.97,-932.04 381.41,-670.01 316.97,-586.23"/>
<polygon fill="#6666ff" stroke="#6666ff" points="319.7,-584.04 310.83,-578.25 314.15,-588.31 319.7,-584.04"/>
</g>
<!-- Metamodel::ClassHOW&#45;&gt;Metamodel::MROBasedTypeChecking -->
<g id="edge20" class="edge">
<title>Metamodel::ClassHOW&#45;&gt;Metamodel::MROBasedTypeChecking</title>
<path fill="none" stroke="#6666ff" d="M645.36,-1003.35C616.12,-920.45 494.84,-576.54 459.49,-476.31"/>
<polygon fill="#6666ff" stroke="#6666ff" points="462.79,-475.13 456.16,-466.86 456.18,-477.46 462.79,-475.13"/>
</g>
<!-- Metamodel::ClassHOW&#45;&gt;Metamodel::Trusting -->
<g id="edge21" class="edge">
<title>Metamodel::ClassHOW&#45;&gt;Metamodel::Trusting</title>
<path fill="none" stroke="#6666ff" d="M612.35,-1038.25C512.29,-1080.97 248.51,-1193.6 139.66,-1240.07"/>
<polygon fill="#6666ff" stroke="#6666ff" points="138.06,-1236.95 130.24,-1244.09 140.81,-1243.39 138.06,-1236.95"/>
</g>
<!-- Metamodel::ClassHOW&#45;&gt;Metamodel::BUILDPLAN -->
<g id="edge22" class="edge">
<title>Metamodel::ClassHOW&#45;&gt;Metamodel::BUILDPLAN</title>
<path fill="none" stroke="#6666ff" d="M627.36,-1003.88C552.79,-950.17 327.67,-788.04 242.86,-726.95"/>
<polygon fill="#6666ff" stroke="#6666ff" points="244.79,-724.03 234.63,-721.03 240.7,-729.71 244.79,-724.03"/>
</g>
<!-- Metamodel::ClassHOW&#45;&gt;Metamodel::Mixins -->
<g id="edge23" class="edge">
<title>Metamodel::ClassHOW&#45;&gt;Metamodel::Mixins</title>
<path fill="none" stroke="#6666ff" d="M602.82,-1005.47C510.2,-975.25 309.75,-909.85 211.85,-877.91"/>
<polygon fill="#6666ff" stroke="#6666ff" points="212.73,-874.51 202.13,-874.74 210.56,-881.17 212.73,-874.51"/>
</g>
<!-- Metamodel::ClassHOW&#45;&gt;Metamodel::BoolificationProtocol -->
<g id="edge24" class="edge">
<title>Metamodel::ClassHOW&#45;&gt;Metamodel::BoolificationProtocol</title>
<path fill="none" stroke="#6666ff" d="M548.92,-1019.57C497.67,-1018.64 434.75,-1017.5 378.4,-1016.47"/>
<polygon fill="#6666ff" stroke="#6666ff" points="378.39,-1012.97 368.33,-1016.29 378.26,-1019.97 378.39,-1012.97"/>
</g>
<!-- Metamodel::TypePretense -->
<g id="node23" class="node">
<title>Metamodel::TypePretense</title>
<g id="a_node23"><a xlink:href="/type/Metamodel::TypePretense" xlink:title="Metamodel::TypePretense">
<ellipse fill="none" stroke="#6666ff" cx="1745.35" cy="-1694.02" rx="114.28" ry="18"/>
<text text-anchor="middle" x="1745.35" y="-1690.32" font-family="FreeSans" font-size="14.00" fill="#6666ff">Metamodel::TypePretense</text>
</a>
</g>
</g>
<!-- Metamodel::RolePunning -->
<g id="node24" class="node">
<title>Metamodel::RolePunning</title>
<g id="a_node24"><a xlink:href="/type/Metamodel::RolePunning" xlink:title="Metamodel::RolePunning">
<ellipse fill="none" stroke="#6666ff" cx="1945.65" cy="-1296" rx="109.68" ry="18"/>
<text text-anchor="middle" x="1945.65" y="-1292.3" font-family="FreeSans" font-size="14.00" fill="#6666ff">Metamodel::RolePunning</text>
</a>
</g>
</g>
<!-- Metamodel::ParametricRoleHOW -->
<g id="node25" class="node">
<title>Metamodel::ParametricRoleHOW</title>
<g id="a_node25"><a xlink:href="/type/Metamodel::ParametricRoleHOW" xlink:title="Metamodel::ParametricRoleHOW">
<ellipse fill="none" stroke="#000000" cx="1371.45" cy="-1278.57" rx="141.88" ry="18"/>
<text text-anchor="middle" x="1371.45" y="-1274.87" font-family="FreeSans" font-size="14.00" fill="#000000">Metamodel::ParametricRoleHOW</text>
</a>
</g>
</g>
<!-- Metamodel::ParametricRoleHOW&#45;&gt;Metamodel::AttributeContainer -->
<g id="edge31" class="edge">
<title>Metamodel::ParametricRoleHOW&#45;&gt;Metamodel::AttributeContainer</title>
<path fill="none" stroke="#6666ff" d="M1351.14,-1260.6C1288.66,-1205.33 1099.18,-1037.71 1026.96,-973.83"/>
<polygon fill="#6666ff" stroke="#6666ff" points="1028.96,-970.92 1019.15,-966.92 1024.32,-976.16 1028.96,-970.92"/>
</g>
<!-- Metamodel::ParametricRoleHOW&#45;&gt;Any -->
<g id="edge3" class="edge">
<title>Metamodel::ParametricRoleHOW&#45;&gt;Any</title>
<path fill="none" stroke="#000000" d="M1366.58,-1260.45C1345.27,-1181.22 1261.35,-869.19 1261.35,-869.19 1261.35,-869.19 1256.52,-834.34 1256.52,-834.34 1256.52,-834.34 1229.93,-719.74 1217.35,-665.54"/>
<polygon fill="#000000" stroke="#000000" points="1220.71,-664.51 1215.04,-655.56 1213.89,-666.09 1220.71,-664.51"/>
</g>
<!-- Metamodel::ParametricRoleHOW&#45;&gt;Metamodel::Naming -->
<g id="edge25" class="edge">
<title>Metamodel::ParametricRoleHOW&#45;&gt;Metamodel::Naming</title>
<path fill="none" stroke="#6666ff" d="M1331.63,-1261.16C1264.22,-1231.7 1127.97,-1172.14 1056,-1140.68"/>
<polygon fill="#6666ff" stroke="#6666ff" points="1057.27,-1137.42 1046.71,-1136.62 1054.47,-1143.83 1057.27,-1137.42"/>
</g>
<!-- Metamodel::ParametricRoleHOW&#45;&gt;Metamodel::Documenting -->
<g id="edge26" class="edge">
<title>Metamodel::ParametricRoleHOW&#45;&gt;Metamodel::Documenting</title>
<path fill="none" stroke="#6666ff" d="M1339.2,-1296.31C1225.43,-1358.91 849.62,-1565.7 849.62,-1565.7 849.62,-1565.7 823.62,-1601.03 804.65,-1626.8"/>
<polygon fill="#6666ff" stroke="#6666ff" points="801.64,-1624.99 798.53,-1635.11 807.28,-1629.14 801.64,-1624.99"/>
</g>
<!-- Metamodel::ParametricRoleHOW&#45;&gt;Metamodel::Versioning -->
<g id="edge27" class="edge">
<title>Metamodel::ParametricRoleHOW&#45;&gt;Metamodel::Versioning</title>
<path fill="none" stroke="#6666ff" d="M1345.53,-1296.32C1272.88,-1346.07 1067.34,-1486.82 985.85,-1542.62"/>
<polygon fill="#6666ff" stroke="#6666ff" points="983.72,-1539.84 977.45,-1548.37 987.68,-1545.61 983.72,-1539.84"/>
</g>
<!-- Metamodel::ParametricRoleHOW&#45;&gt;Metamodel::Stashing -->
<g id="edge34" class="edge">
<title>Metamodel::ParametricRoleHOW&#45;&gt;Metamodel::Stashing</title>
<path fill="none" stroke="#6666ff" d="M1243.46,-1286.35C1110.03,-1294.46 903.71,-1307 781.96,-1314.4"/>
<polygon fill="#6666ff" stroke="#6666ff" points="781.67,-1310.91 771.9,-1315.01 782.09,-1317.89 781.67,-1310.91"/>
</g>
<!-- Metamodel::ParametricRoleHOW&#45;&gt;Metamodel::MethodContainer -->
<g id="edge28" class="edge">
<title>Metamodel::ParametricRoleHOW&#45;&gt;Metamodel::MethodContainer</title>
<path fill="none" stroke="#6666ff" d="M1366.58,-1260.45C1345.27,-1181.22 1261.35,-869.19 1261.35,-869.19 1261.35,-869.19 1256.52,-834.34 1256.52,-834.34 1256.52,-834.34 1139.88,-769.79 1075.96,-734.41"/>
<polygon fill="#6666ff" stroke="#6666ff" points="1077.38,-731.2 1066.93,-729.42 1073.99,-737.32 1077.38,-731.2"/>
</g>
<!-- Metamodel::ParametricRoleHOW&#45;&gt;Metamodel::PrivateMethodContainer -->
<g id="edge29" class="edge">
<title>Metamodel::ParametricRoleHOW&#45;&gt;Metamodel::PrivateMethodContainer</title>
<path fill="none" stroke="#6666ff" d="M1368.8,-1260.49C1362.67,-1218.56 1347.98,-1118.24 1347.98,-1118.24 1347.98,-1118.24 1391.46,-962.81 1409.72,-897.54"/>
<polygon fill="#6666ff" stroke="#6666ff" points="1413.2,-898.09 1412.52,-887.51 1406.45,-896.2 1413.2,-898.09"/>
</g>
<!-- Metamodel::ParametricRoleHOW&#45;&gt;Metamodel::MultiMethodContainer -->
<g id="edge30" class="edge">
<title>Metamodel::ParametricRoleHOW&#45;&gt;Metamodel::MultiMethodContainer</title>
<path fill="none" stroke="#6666ff" d="M1360.82,-1260.6C1320.05,-1191.67 1173.48,-943.84 1124.64,-861.27"/>
<polygon fill="#6666ff" stroke="#6666ff" points="1127.55,-859.3 1119.45,-852.48 1121.52,-862.87 1127.55,-859.3"/>
</g>
<!-- Metamodel::ParametricRoleHOW&#45;&gt;Metamodel::RoleContainer -->
<g id="edge32" class="edge">
<title>Metamodel::ParametricRoleHOW&#45;&gt;Metamodel::RoleContainer</title>
<path fill="none" stroke="#6666ff" d="M1240.04,-1271.75C1179.13,-1268.58 1107.23,-1264.85 1047.76,-1261.76"/>
<polygon fill="#6666ff" stroke="#6666ff" points="1047.73,-1258.26 1037.56,-1261.24 1047.37,-1265.25 1047.73,-1258.26"/>
</g>
<!-- Metamodel::ParametricRoleHOW&#45;&gt;Metamodel::MultipleInheritance -->
<g id="edge33" class="edge">
<title>Metamodel::ParametricRoleHOW&#45;&gt;Metamodel::MultipleInheritance</title>
<path fill="none" stroke="#6666ff" d="M1358.74,-1296.68C1327.92,-1340.59 1249.1,-1452.9 1213.13,-1504.14"/>
<polygon fill="#6666ff" stroke="#6666ff" points="1210.22,-1502.2 1207.34,-1512.4 1215.95,-1506.22 1210.22,-1502.2"/>
</g>
<!-- Metamodel::ParametricRoleHOW&#45;&gt;Metamodel::TypePretense -->
<g id="edge35" class="edge">
<title>Metamodel::ParametricRoleHOW&#45;&gt;Metamodel::TypePretense</title>
<path fill="none" stroke="#6666ff" d="M1387.76,-1296.69C1447.16,-1362.69 1652.12,-1590.43 1721.88,-1667.95"/>
<polygon fill="#6666ff" stroke="#6666ff" points="1719.66,-1670.72 1728.95,-1675.81 1724.87,-1666.04 1719.66,-1670.72"/>
</g>
<!-- Metamodel::ParametricRoleHOW&#45;&gt;Metamodel::RolePunning -->
<g id="edge36" class="edge">
<title>Metamodel::ParametricRoleHOW&#45;&gt;Metamodel::RolePunning</title>
<path fill="none" stroke="#6666ff" d="M1509.35,-1282.76C1606.42,-1285.7 1734.99,-1289.61 1827.38,-1292.41"/>
<polygon fill="#6666ff" stroke="#6666ff" points="1827.52,-1295.92 1837.62,-1292.72 1827.73,-1288.92 1827.52,-1295.92"/>
</g>
<!-- Metamodel::BaseType -->
<g id="node26" class="node">
<title>Metamodel::BaseType</title>
<g id="a_node26"><a xlink:href="/type/Metamodel::BaseType" xlink:title="Metamodel::BaseType">
<ellipse fill="none" stroke="#6666ff" cx="674.34" cy="-18" rx="99.38" ry="18"/>
<text text-anchor="middle" x="674.34" y="-14.3" font-family="FreeSans" font-size="14.00" fill="#6666ff">Metamodel::BaseType</text>
</a>
</g>
</g>
<!-- Metamodel::EnumHOW -->
<g id="node27" class="node">
<title>Metamodel::EnumHOW</title>
<g id="a_node27"><a xlink:href="/type/Metamodel::EnumHOW" xlink:title="Metamodel::EnumHOW">
<ellipse fill="none" stroke="#000000" cx="685" cy="-687.83" rx="104.78" ry="18"/>
<text text-anchor="middle" x="685" y="-684.13" font-family="FreeSans" font-size="14.00" fill="#000000">Metamodel::EnumHOW</text>
</a>
</g>
</g>
<!-- Metamodel::EnumHOW&#45;&gt;Metamodel::AttributeContainer -->
<g id="edge39" class="edge">
<title>Metamodel::EnumHOW&#45;&gt;Metamodel::AttributeContainer</title>
<path fill="none" stroke="#6666ff" d="M706.55,-705.77C761.38,-751.38 906.24,-871.89 968.95,-924.07"/>
<polygon fill="#6666ff" stroke="#6666ff" points="966.96,-926.97 976.88,-930.67 971.44,-921.59 966.96,-926.97"/>
</g>
<!-- Metamodel::EnumHOW&#45;&gt;Any -->
<g id="edge4" class="edge">
<title>Metamodel::EnumHOW&#45;&gt;Any</title>
<path fill="none" stroke="#000000" d="M776.61,-679.11C893.91,-667.95 1091.8,-649.11 1173.7,-641.31"/>
<polygon fill="#000000" stroke="#000000" points="1174.39,-644.76 1184.01,-640.33 1173.72,-637.79 1174.39,-644.76"/>
</g>
<!-- Metamodel::EnumHOW&#45;&gt;Metamodel::Naming -->
<g id="edge37" class="edge">
<title>Metamodel::EnumHOW&#45;&gt;Metamodel::Naming</title>
<path fill="none" stroke="#6666ff" d="M697.51,-705.76C738.63,-764.68 867,-948.64 867,-948.64 867,-948.64 947.97,-1046.43 987.63,-1094.33"/>
<polygon fill="#6666ff" stroke="#6666ff" points="985,-1096.64 994.07,-1102.11 990.39,-1092.17 985,-1096.64"/>
</g>
<!-- Metamodel::EnumHOW&#45;&gt;Metamodel::Stashing -->
<g id="edge38" class="edge">
<title>Metamodel::EnumHOW&#45;&gt;Metamodel::Stashing</title>
<path fill="none" stroke="#6666ff" d="M688.95,-706.25C703.98,-776.21 756.68,-1021.55 756.68,-1021.55 756.68,-1021.55 707.98,-1217.55 689.46,-1292.12"/>
<polygon fill="#6666ff" stroke="#6666ff" points="685.97,-1291.65 686.96,-1302.2 692.76,-1293.34 685.97,-1291.65"/>
</g>
<!-- Metamodel::EnumHOW&#45;&gt;Metamodel::MethodContainer -->
<g id="edge40" class="edge">
<title>Metamodel::EnumHOW&#45;&gt;Metamodel::MethodContainer</title>
<path fill="none" stroke="#6666ff" d="M782.56,-694.53C822.19,-697.25 868.46,-700.43 910.5,-703.31"/>
<polygon fill="#6666ff" stroke="#6666ff" points="910.3,-706.81 920.52,-704 910.78,-699.82 910.3,-706.81"/>
</g>
<!-- Metamodel::EnumHOW&#45;&gt;Metamodel::MultiMethodContainer -->
<g id="edge41" class="edge">
<title>Metamodel::EnumHOW&#45;&gt;Metamodel::MultiMethodContainer</title>
<path fill="none" stroke="#6666ff" d="M731.96,-704.07C809.76,-730.96 965.19,-784.69 1050.07,-814.02"/>
<polygon fill="#6666ff" stroke="#6666ff" points="1048.96,-817.35 1059.56,-817.3 1051.25,-810.73 1048.96,-817.35"/>
</g>
<!-- Metamodel::EnumHOW&#45;&gt;Metamodel::RoleContainer -->
<g id="edge42" class="edge">
<title>Metamodel::EnumHOW&#45;&gt;Metamodel::RoleContainer</title>
<path fill="none" stroke="#6666ff" d="M692.79,-706.08C728.1,-788.74 873.15,-1128.36 915.69,-1227.95"/>
<polygon fill="#6666ff" stroke="#6666ff" points="912.55,-1229.52 919.7,-1237.34 918.99,-1226.77 912.55,-1229.52"/>
</g>
<!-- Metamodel::EnumHOW&#45;&gt;Metamodel::MROBasedMethodDispatch -->
<g id="edge44" class="edge">
<title>Metamodel::EnumHOW&#45;&gt;Metamodel::MROBasedMethodDispatch</title>
<path fill="none" stroke="#6666ff" d="M636.25,-671.81C565.89,-648.68 435.88,-605.94 358.86,-580.62"/>
<polygon fill="#6666ff" stroke="#6666ff" points="359.87,-577.27 349.27,-577.47 357.68,-583.92 359.87,-577.27"/>
</g>
<!-- Metamodel::EnumHOW&#45;&gt;Metamodel::MROBasedTypeChecking -->
<g id="edge45" class="edge">
<title>Metamodel::EnumHOW&#45;&gt;Metamodel::MROBasedTypeChecking</title>
<path fill="none" stroke="#6666ff" d="M667.32,-669.87C625.94,-627.81 522.69,-522.88 474.85,-474.25"/>
<polygon fill="#6666ff" stroke="#6666ff" points="477.17,-471.62 467.66,-466.95 472.18,-476.53 477.17,-471.62"/>
</g>
<!-- Metamodel::EnumHOW&#45;&gt;Metamodel::BUILDPLAN -->
<g id="edge46" class="edge">
<title>Metamodel::EnumHOW&#45;&gt;Metamodel::BUILDPLAN</title>
<path fill="none" stroke="#6666ff" d="M581.94,-691.2C507.27,-693.63 406.15,-696.93 328.21,-699.48"/>
<polygon fill="#6666ff" stroke="#6666ff" points="327.74,-695.99 317.86,-699.81 327.96,-702.98 327.74,-695.99"/>
</g>
<!-- Metamodel::EnumHOW&#45;&gt;Metamodel::Mixins -->
<g id="edge48" class="edge">
<title>Metamodel::EnumHOW&#45;&gt;Metamodel::Mixins</title>
<path fill="none" stroke="#6666ff" d="M635.68,-703.84C537.12,-735.83 316.33,-807.49 212.18,-841.3"/>
<polygon fill="#6666ff" stroke="#6666ff" points="210.91,-838.03 202.48,-844.45 213.07,-844.69 210.91,-838.03"/>
</g>
<!-- Metamodel::EnumHOW&#45;&gt;Metamodel::BoolificationProtocol -->
<g id="edge47" class="edge">
<title>Metamodel::EnumHOW&#45;&gt;Metamodel::BoolificationProtocol</title>
<path fill="none" stroke="#6666ff" d="M660.55,-705.36C584.24,-760.07 350.35,-927.75 263.37,-990.11"/>
<polygon fill="#6666ff" stroke="#6666ff" points="261.27,-987.31 255.18,-995.98 265.35,-993 261.27,-987.31"/>
</g>
<!-- Metamodel::EnumHOW&#45;&gt;Metamodel::BaseType -->
<g id="edge43" class="edge">
<title>Metamodel::EnumHOW&#45;&gt;Metamodel::BaseType</title>
<path fill="none" stroke="#6666ff" d="M679.8,-669.77C661.02,-604.49 597.75,-384.59 597.75,-384.59 597.75,-384.59 650.58,-131.69 668.49,-46"/>
<polygon fill="#6666ff" stroke="#6666ff" points="671.92,-46.68 670.54,-36.18 665.07,-45.25 671.92,-46.68"/>
</g>
<!-- Metamodel::ConcreteRoleHOW -->
<g id="node28" class="node">
<title>Metamodel::ConcreteRoleHOW</title>
<g id="a_node28"><a xlink:href="/type/Metamodel::ConcreteRoleHOW" xlink:title="Metamodel::ConcreteRoleHOW">
<ellipse fill="none" stroke="#000000" cx="1484.76" cy="-1118.39" rx="135.38" ry="18"/>
<text text-anchor="middle" x="1484.76" y="-1114.69" font-family="FreeSans" font-size="14.00" fill="#000000">Metamodel::ConcreteRoleHOW</text>
</a>
</g>
</g>
<!-- Metamodel::ConcreteRoleHOW&#45;&gt;Metamodel::AttributeContainer -->
<g id="edge54" class="edge">
<title>Metamodel::ConcreteRoleHOW&#45;&gt;Metamodel::AttributeContainer</title>
<path fill="none" stroke="#6666ff" d="M1436.37,-1101.5C1346.28,-1070.06 1153.21,-1002.69 1056.41,-968.91"/>
<polygon fill="#6666ff" stroke="#6666ff" points="1057.38,-965.54 1046.79,-965.55 1055.08,-972.15 1057.38,-965.54"/>
</g>
<!-- Metamodel::ConcreteRoleHOW&#45;&gt;Any -->
<g id="edge5" class="edge">
<title>Metamodel::ConcreteRoleHOW&#45;&gt;Any</title>
<path fill="none" stroke="#000000" d="M1468.7,-1100.47C1417.47,-1043.33 1261.35,-869.19 1261.35,-869.19 1261.35,-869.19 1256.52,-834.34 1256.52,-834.34 1256.52,-834.34 1229.93,-719.74 1217.35,-665.54"/>
<polygon fill="#000000" stroke="#000000" points="1220.71,-664.51 1215.04,-655.56 1213.89,-666.09 1220.71,-664.51"/>
</g>
<!-- Metamodel::ConcreteRoleHOW&#45;&gt;Metamodel::Naming -->
<g id="edge49" class="edge">
<title>Metamodel::ConcreteRoleHOW&#45;&gt;Metamodel::Naming</title>
<path fill="none" stroke="#6666ff" d="M1349.38,-1118.89C1273.07,-1119.17 1179.34,-1119.51 1109.58,-1119.77"/>
<polygon fill="#6666ff" stroke="#6666ff" points="1109.45,-1116.27 1099.46,-1119.81 1109.48,-1123.27 1109.45,-1116.27"/>
</g>
<!-- Metamodel::ConcreteRoleHOW&#45;&gt;Metamodel::Versioning -->
<g id="edge50" class="edge">
<title>Metamodel::ConcreteRoleHOW&#45;&gt;Metamodel::Versioning</title>
<path fill="none" stroke="#6666ff" d="M1456.32,-1136.14C1389.51,-1177.83 1228.16,-1278.52 1228.16,-1278.52 1228.16,-1278.52 1044.16,-1469.92 976.53,-1540.28"/>
<polygon fill="#6666ff" stroke="#6666ff" points="973.65,-1538.22 969.24,-1547.85 978.69,-1543.07 973.65,-1538.22"/>
</g>
<!-- Metamodel::ConcreteRoleHOW&#45;&gt;Metamodel::MethodContainer -->
<g id="edge52" class="edge">
<title>Metamodel::ConcreteRoleHOW&#45;&gt;Metamodel::MethodContainer</title>
<path fill="none" stroke="#6666ff" d="M1468.7,-1100.47C1417.47,-1043.33 1261.35,-869.19 1261.35,-869.19 1261.35,-869.19 1256.52,-834.34 1256.52,-834.34 1256.52,-834.34 1139.88,-769.79 1075.96,-734.41"/>
<polygon fill="#6666ff" stroke="#6666ff" points="1077.38,-731.2 1066.93,-729.42 1073.99,-737.32 1077.38,-731.2"/>
</g>
<!-- Metamodel::ConcreteRoleHOW&#45;&gt;Metamodel::PrivateMethodContainer -->
<g id="edge51" class="edge">
<title>Metamodel::ConcreteRoleHOW&#45;&gt;Metamodel::PrivateMethodContainer</title>
<path fill="none" stroke="#6666ff" d="M1479.83,-1100.07C1468.19,-1056.85 1438.96,-948.34 1425.12,-896.98"/>
<polygon fill="#6666ff" stroke="#6666ff" points="1428.47,-895.96 1422.49,-887.22 1421.72,-897.78 1428.47,-895.96"/>
</g>
<!-- Metamodel::ConcreteRoleHOW&#45;&gt;Metamodel::MultiMethodContainer -->
<g id="edge53" class="edge">
<title>Metamodel::ConcreteRoleHOW&#45;&gt;Metamodel::MultiMethodContainer</title>
<path fill="none" stroke="#6666ff" d="M1461.24,-1100.62C1396.36,-1051.61 1214.82,-914.46 1140.76,-858.52"/>
<polygon fill="#6666ff" stroke="#6666ff" points="1142.78,-855.65 1132.69,-852.42 1138.56,-861.24 1142.78,-855.65"/>
</g>
<!-- Metamodel::ConcreteRoleHOW&#45;&gt;Metamodel::RoleContainer -->
<g id="edge55" class="edge">
<title>Metamodel::ConcreteRoleHOW&#45;&gt;Metamodel::RoleContainer</title>
<path fill="none" stroke="#6666ff" d="M1420.29,-1134.26C1315.54,-1160.03 1109.11,-1210.82 999.62,-1237.77"/>
<polygon fill="#6666ff" stroke="#6666ff" points="998.53,-1234.43 989.65,-1240.22 1000.2,-1241.23 998.53,-1234.43"/>
</g>
<!-- Metamodel::ConcreteRoleHOW&#45;&gt;Metamodel::MultipleInheritance -->
<g id="edge56" class="edge">
<title>Metamodel::ConcreteRoleHOW&#45;&gt;Metamodel::MultipleInheritance</title>
<path fill="none" stroke="#6666ff" d="M1456.32,-1136.14C1389.51,-1177.83 1228.16,-1278.52 1228.16,-1278.52 1228.16,-1278.52 1207.21,-1436.42 1198.49,-1502.15"/>
<polygon fill="#6666ff" stroke="#6666ff" points="1194.99,-1501.86 1197.15,-1512.23 1201.93,-1502.78 1194.99,-1501.86"/>
</g>
</g>
</svg>
