<?xml version="1.0" encoding="UTF-8" standalone="no"?>
<!DOCTYPE svg PUBLIC "-//W3C//DTD SVG 1.1//EN"
 "http://www.w3.org/Graphics/SVG/1.1/DTD/svg11.dtd">
<!-- Generated by graphviz version 2.43.0 (0)
 -->
<!-- Title: raku&#45;type&#45;graph Pages: 1 -->
<svg width="1808pt" height="1357pt"
 viewBox="0.00 0.00 1807.54 1356.74" xmlns="http://www.w3.org/2000/svg" xmlns:xlink="http://www.w3.org/1999/xlink">
<g id="graph0" class="graph" transform="scale(1 1) rotate(0) translate(4 1352.74)">
<title>raku&#45;type&#45;graph</title>
<polygon fill="#ffffff" stroke="transparent" points="-4,4 -4,-1352.74 1803.54,-1352.74 1803.54,4 -4,4"/>
<!-- Metamodel::MROBasedTypeChecking -->
<g id="node1" class="node">
<title>Metamodel::MROBasedTypeChecking</title>
<g id="a_node1"><a xlink:href="/type/Metamodel::MROBasedTypeChecking" xlink:title="Metamodel::MROBasedTypeChecking">
<ellipse fill="none" stroke="#6666ff" cx="607.53" cy="-462.3" rx="163.27" ry="18"/>
<text text-anchor="middle" x="607.53" y="-458.6" font-family="FreeSans" font-size="14.00" fill="#6666ff">Metamodel::MROBasedTypeChecking</text>
</a>
</g>
</g>
<!-- Mu -->
<g id="node2" class="node">
<title>Mu</title>
<g id="a_node2"><a xlink:href="/type/Mu" xlink:title="Mu">
<ellipse fill="none" stroke="#000000" cx="1675.12" cy="-18" rx="27" ry="18"/>
<text text-anchor="middle" x="1675.12" y="-14.3" font-family="FreeSans" font-size="14.00" fill="#000000">Mu</text>
</a>
</g>
</g>
<!-- Any -->
<g id="node3" class="node">
<title>Any</title>
<g id="a_node3"><a xlink:href="/type/Any" xlink:title="Any">
<ellipse fill="none" stroke="#000000" cx="1286.71" cy="-367.5" rx="27" ry="18"/>
<text text-anchor="middle" x="1286.71" y="-363.8" font-family="FreeSans" font-size="14.00" fill="#000000">Any</text>
</a>
</g>
</g>
<!-- Any&#45;&gt;Mu -->
<g id="edge1" class="edge">
<title>Any&#45;&gt;Mu</title>
<path fill="none" stroke="#000000" d="M1302.9,-352.93C1363.73,-298.2 1578.76,-104.71 1651.14,-39.58"/>
<polygon fill="#000000" stroke="#000000" points="1653.76,-41.93 1658.86,-32.63 1649.08,-36.72 1653.76,-41.93"/>
</g>
<!-- Metamodel::Naming -->
<g id="node4" class="node">
<title>Metamodel::Naming</title>
<g id="a_node4"><a xlink:href="/type/Metamodel::Naming" xlink:title="Metamodel::Naming">
<ellipse fill="none" stroke="#6666ff" cx="531.12" cy="-623.46" rx="90.18" ry="18"/>
<text text-anchor="middle" x="531.12" y="-619.76" font-family="FreeSans" font-size="14.00" fill="#6666ff">Metamodel::Naming</text>
</a>
</g>
</g>
<!-- Metamodel::Documenting -->
<g id="node5" class="node">
<title>Metamodel::Documenting</title>
<g id="a_node5"><a xlink:href="/type/Metamodel::Documenting" xlink:title="Metamodel::Documenting">
<ellipse fill="none" stroke="#6666ff" cx="1374.44" cy="-592.01" rx="111.28" ry="18"/>
<text text-anchor="middle" x="1374.44" y="-588.31" font-family="FreeSans" font-size="14.00" fill="#6666ff">Metamodel::Documenting</text>
</a>
</g>
</g>
<!-- Metamodel::Versioning -->
<g id="node6" class="node">
<title>Metamodel::Versioning</title>
<g id="a_node6"><a xlink:href="/type/Metamodel::Versioning" xlink:title="Metamodel::Versioning">
<ellipse fill="none" stroke="#6666ff" cx="381.73" cy="-264.51" rx="100.98" ry="18"/>
<text text-anchor="middle" x="381.73" y="-260.81" font-family="FreeSans" font-size="14.00" fill="#6666ff">Metamodel::Versioning</text>
</a>
</g>
</g>
<!-- Metamodel::Stashing -->
<g id="node7" class="node">
<title>Metamodel::Stashing</title>
<g id="a_node7"><a xlink:href="/type/Metamodel::Stashing" xlink:title="Metamodel::Stashing">
<ellipse fill="none" stroke="#6666ff" cx="805.91" cy="-418.26" rx="93.68" ry="18"/>
<text text-anchor="middle" x="805.91" y="-414.56" font-family="FreeSans" font-size="14.00" fill="#6666ff">Metamodel::Stashing</text>
</a>
</g>
</g>
<!-- Metamodel::AttributeContainer -->
<g id="node8" class="node">
<title>Metamodel::AttributeContainer</title>
<g id="a_node8"><a xlink:href="/type/Metamodel::AttributeContainer" xlink:title="Metamodel::AttributeContainer">
<ellipse fill="none" stroke="#6666ff" cx="1306.78" cy="-1104.36" rx="129.98" ry="18"/>
<text text-anchor="middle" x="1306.78" y="-1100.66" font-family="FreeSans" font-size="14.00" fill="#6666ff">Metamodel::AttributeContainer</text>
</a>
</g>
</g>
<!-- Metamodel::Finalization -->
<g id="node9" class="node">
<title>Metamodel::Finalization</title>
<g id="a_node9"><a xlink:href="/type/Metamodel::Finalization" xlink:title="Metamodel::Finalization">
<ellipse fill="none" stroke="#6666ff" cx="132.74" cy="-771.44" rx="103.98" ry="18"/>
<text text-anchor="middle" x="132.74" y="-767.74" font-family="FreeSans" font-size="14.00" fill="#6666ff">Metamodel::Finalization</text>
</a>
</g>
</g>
<!-- Metamodel::MethodContainer -->
<g id="node10" class="node">
<title>Metamodel::MethodContainer</title>
<g id="a_node10"><a xlink:href="/type/Metamodel::MethodContainer" xlink:title="Metamodel::MethodContainer">
<ellipse fill="none" stroke="#6666ff" cx="1035.1" cy="-410.17" rx="127.28" ry="18"/>
<text text-anchor="middle" x="1035.1" y="-406.47" font-family="FreeSans" font-size="14.00" fill="#6666ff">Metamodel::MethodContainer</text>
</a>
</g>
</g>
<!-- Metamodel::PrivateMethodContainer -->
<g id="node11" class="node">
<title>Metamodel::PrivateMethodContainer</title>
<g id="a_node11"><a xlink:href="/type/Metamodel::PrivateMethodContainer" xlink:title="Metamodel::PrivateMethodContainer">
<ellipse fill="none" stroke="#6666ff" cx="154.69" cy="-539.98" rx="154.87" ry="18"/>
<text text-anchor="middle" x="154.69" y="-536.28" font-family="FreeSans" font-size="14.00" fill="#6666ff">Metamodel::PrivateMethodContainer</text>
</a>
</g>
</g>
<!-- Metamodel::MultiMethodContainer -->
<g id="node12" class="node">
<title>Metamodel::MultiMethodContainer</title>
<g id="a_node12"><a xlink:href="/type/Metamodel::MultiMethodContainer" xlink:title="Metamodel::MultiMethodContainer">
<ellipse fill="none" stroke="#6666ff" cx="537.91" cy="-1133.2" rx="146.47" ry="18"/>
<text text-anchor="middle" x="537.91" y="-1129.5" font-family="FreeSans" font-size="14.00" fill="#6666ff">Metamodel::MultiMethodContainer</text>
</a>
</g>
</g>
<!-- Metamodel::RoleContainer -->
<g id="node13" class="node">
<title>Metamodel::RoleContainer</title>
<g id="a_node13"><a xlink:href="/type/Metamodel::RoleContainer" xlink:title="Metamodel::RoleContainer">
<ellipse fill="none" stroke="#6666ff" cx="1008.84" cy="-1329.97" rx="115.88" ry="18"/>
<text text-anchor="middle" x="1008.84" y="-1326.27" font-family="FreeSans" font-size="14.00" fill="#6666ff">Metamodel::RoleContainer</text>
</a>
</g>
</g>
<!-- Metamodel::MultipleInheritance -->
<g id="node14" class="node">
<title>Metamodel::MultipleInheritance</title>
<g id="a_node14"><a xlink:href="/type/Metamodel::MultipleInheritance" xlink:title="Metamodel::MultipleInheritance">
<ellipse fill="none" stroke="#6666ff" cx="1219.52" cy="-736.14" rx="133.78" ry="18"/>
<text text-anchor="middle" x="1219.52" y="-732.44" font-family="FreeSans" font-size="14.00" fill="#6666ff">Metamodel::MultipleInheritance</text>
</a>
</g>
</g>
<!-- Metamodel::DefaultParent -->
<g id="node15" class="node">
<title>Metamodel::DefaultParent</title>
<g id="a_node15"><a xlink:href="/type/Metamodel::DefaultParent" xlink:title="Metamodel::DefaultParent">
<ellipse fill="none" stroke="#6666ff" cx="255.47" cy="-1196.04" rx="113.18" ry="18"/>
<text text-anchor="middle" x="255.47" y="-1192.34" font-family="FreeSans" font-size="14.00" fill="#6666ff">Metamodel::DefaultParent</text>
</a>
</g>
</g>
<!-- Metamodel::C3MRO -->
<g id="node16" class="node">
<title>Metamodel::C3MRO</title>
<g id="a_node16"><a xlink:href="/type/Metamodel::C3MRO" xlink:title="Metamodel::C3MRO">
<ellipse fill="none" stroke="#6666ff" cx="552.99" cy="-137.11" rx="92.08" ry="18"/>
<text text-anchor="middle" x="552.99" y="-133.41" font-family="FreeSans" font-size="14.00" fill="#6666ff">Metamodel::C3MRO</text>
</a>
</g>
</g>
<!-- Metamodel::MROBasedMethodDispatch -->
<g id="node17" class="node">
<title>Metamodel::MROBasedMethodDispatch</title>
<g id="a_node17"><a xlink:href="/type/Metamodel::MROBasedMethodDispatch" xlink:title="Metamodel::MROBasedMethodDispatch">
<ellipse fill="none" stroke="#6666ff" cx="1177.11" cy="-533.39" rx="169.77" ry="18"/>
<text text-anchor="middle" x="1177.11" y="-529.69" font-family="FreeSans" font-size="14.00" fill="#6666ff">Metamodel::MROBasedMethodDispatch</text>
</a>
</g>
</g>
<!-- Metamodel::Trusting -->
<g id="node18" class="node">
<title>Metamodel::Trusting</title>
<g id="a_node18"><a xlink:href="/type/Metamodel::Trusting" xlink:title="Metamodel::Trusting">
<ellipse fill="none" stroke="#6666ff" cx="167.15" cy="-983.77" rx="91.78" ry="18"/>
<text text-anchor="middle" x="167.15" y="-980.07" font-family="FreeSans" font-size="14.00" fill="#6666ff">Metamodel::Trusting</text>
</a>
</g>
</g>
<!-- Metamodel::BUILDPLAN -->
<g id="node19" class="node">
<title>Metamodel::BUILDPLAN</title>
<g id="a_node19"><a xlink:href="/type/Metamodel::BUILDPLAN" xlink:title="Metamodel::BUILDPLAN">
<ellipse fill="none" stroke="#6666ff" cx="596.81" cy="-1296.31" rx="109.68" ry="18"/>
<text text-anchor="middle" x="596.81" y="-1292.61" font-family="FreeSans" font-size="14.00" fill="#6666ff">Metamodel::BUILDPLAN</text>
</a>
</g>
</g>
<!-- Metamodel::Mixins -->
<g id="node20" class="node">
<title>Metamodel::Mixins</title>
<g id="a_node20"><a xlink:href="/type/Metamodel::Mixins" xlink:title="Metamodel::Mixins">
<ellipse fill="none" stroke="#6666ff" cx="799.8" cy="-1330.74" rx="85.29" ry="18"/>
<text text-anchor="middle" x="799.8" y="-1327.04" font-family="FreeSans" font-size="14.00" fill="#6666ff">Metamodel::Mixins</text>
</a>
</g>
</g>
<!-- Metamodel::BoolificationProtocol -->
<g id="node21" class="node">
<title>Metamodel::BoolificationProtocol</title>
<g id="a_node21"><a xlink:href="/type/Metamodel::BoolificationProtocol" xlink:title="Metamodel::BoolificationProtocol">
<ellipse fill="none" stroke="#6666ff" cx="1157.87" cy="-1260.86" rx="139.18" ry="18"/>
<text text-anchor="middle" x="1157.87" y="-1257.16" font-family="FreeSans" font-size="14.00" fill="#6666ff">Metamodel::BoolificationProtocol</text>
</a>
</g>
</g>
<!-- Metamodel::ClassHOW -->
<g id="node22" class="node">
<title>Metamodel::ClassHOW</title>
<g id="a_node22"><a xlink:href="/type/Metamodel::ClassHOW" xlink:title="Metamodel::ClassHOW">
<ellipse fill="none" stroke="#000000" cx="734.02" cy="-803.72" rx="103.18" ry="18"/>
<text text-anchor="middle" x="734.02" y="-800.02" font-family="FreeSans" font-size="14.00" fill="#000000">Metamodel::ClassHOW</text>
</a>
</g>
</g>
<!-- Metamodel::ClassHOW&#45;&gt;Metamodel::MROBasedTypeChecking -->
<g id="edge19" class="edge">
<title>Metamodel::ClassHOW&#45;&gt;Metamodel::MROBasedTypeChecking</title>
<path fill="none" stroke="#6666ff" d="M727.22,-785.37C706.28,-728.85 642.69,-557.21 617.73,-489.85"/>
<polygon fill="#6666ff" stroke="#6666ff" points="620.96,-488.49 614.21,-480.33 614.4,-490.92 620.96,-488.49"/>
</g>
<!-- Metamodel::ClassHOW&#45;&gt;Any -->
<g id="edge2" class="edge">
<title>Metamodel::ClassHOW&#45;&gt;Any</title>
<path fill="none" stroke="#000000" d="M751.86,-785.98C812.34,-725.83 1005.87,-533.34 1005.87,-533.34 1005.87,-533.34 1185.51,-427.26 1257.44,-384.79"/>
<polygon fill="#000000" stroke="#000000" points="1259.23,-387.8 1266.06,-379.7 1255.67,-381.77 1259.23,-387.8"/>
</g>
<!-- Metamodel::ClassHOW&#45;&gt;Metamodel::Naming -->
<g id="edge5" class="edge">
<title>Metamodel::ClassHOW&#45;&gt;Metamodel::Naming</title>
<path fill="none" stroke="#6666ff" d="M713.82,-785.78C677.19,-753.24 599.78,-684.46 558.46,-647.75"/>
<polygon fill="#6666ff" stroke="#6666ff" points="560.74,-645.09 550.94,-641.07 556.09,-650.33 560.74,-645.09"/>
</g>
<!-- Metamodel::ClassHOW&#45;&gt;Metamodel::Documenting -->
<g id="edge6" class="edge">
<title>Metamodel::ClassHOW&#45;&gt;Metamodel::Documenting</title>
<path fill="none" stroke="#6666ff" d="M782.42,-787.72C898.03,-749.5 1189.97,-652.99 1315.53,-611.48"/>
<polygon fill="#6666ff" stroke="#6666ff" points="1316.96,-614.7 1325.36,-608.23 1314.76,-608.05 1316.96,-614.7"/>
</g>
<!-- Metamodel::ClassHOW&#45;&gt;Metamodel::Versioning -->
<g id="edge7" class="edge">
<title>Metamodel::ClassHOW&#45;&gt;Metamodel::Versioning</title>
<path fill="none" stroke="#6666ff" d="M722.97,-785.8C694.91,-740.23 623.06,-623.6 623.06,-623.6 623.06,-623.6 442.79,-462.17 442.79,-462.17 442.79,-462.17 407.22,-347 390.37,-292.49"/>
<polygon fill="#6666ff" stroke="#6666ff" points="393.66,-291.27 387.37,-282.75 386.97,-293.34 393.66,-291.27"/>
</g>
<!-- Metamodel::ClassHOW&#45;&gt;Metamodel::Stashing -->
<g id="edge8" class="edge">
<title>Metamodel::ClassHOW&#45;&gt;Metamodel::Stashing</title>
<path fill="none" stroke="#6666ff" d="M737.39,-785.65C748.9,-723.94 786.7,-521.25 800.66,-446.38"/>
<polygon fill="#6666ff" stroke="#6666ff" points="804.15,-446.76 802.54,-436.29 797.27,-445.48 804.15,-446.76"/>
</g>
<!-- Metamodel::ClassHOW&#45;&gt;Metamodel::AttributeContainer -->
<g id="edge9" class="edge">
<title>Metamodel::ClassHOW&#45;&gt;Metamodel::AttributeContainer</title>
<path fill="none" stroke="#6666ff" d="M766.87,-820.97C864.8,-872.37 1154.72,-1024.54 1264.24,-1082.03"/>
<polygon fill="#6666ff" stroke="#6666ff" points="1262.86,-1085.26 1273.34,-1086.81 1266.12,-1079.06 1262.86,-1085.26"/>
</g>
<!-- Metamodel::ClassHOW&#45;&gt;Metamodel::Finalization -->
<g id="edge10" class="edge">
<title>Metamodel::ClassHOW&#45;&gt;Metamodel::Finalization</title>
<path fill="none" stroke="#6666ff" d="M635.07,-798.41C527.1,-792.61 354.71,-783.36 242.61,-777.34"/>
<polygon fill="#6666ff" stroke="#6666ff" points="242.47,-773.83 232.29,-776.79 242.09,-780.82 242.47,-773.83"/>
</g>
<!-- Metamodel::ClassHOW&#45;&gt;Metamodel::MethodContainer -->
<g id="edge11" class="edge">
<title>Metamodel::ClassHOW&#45;&gt;Metamodel::MethodContainer</title>
<path fill="none" stroke="#6666ff" d="M747.74,-785.79C796.03,-722.66 958.33,-510.52 1015.21,-436.18"/>
<polygon fill="#6666ff" stroke="#6666ff" points="1018.01,-438.28 1021.3,-428.21 1012.45,-434.03 1018.01,-438.28"/>
</g>
<!-- Metamodel::ClassHOW&#45;&gt;Metamodel::PrivateMethodContainer -->
<g id="edge12" class="edge">
<title>Metamodel::ClassHOW&#45;&gt;Metamodel::PrivateMethodContainer</title>
<path fill="none" stroke="#6666ff" d="M696.9,-786.82C595.71,-740.76 315.09,-613 202.42,-561.71"/>
<polygon fill="#6666ff" stroke="#6666ff" points="203.56,-558.38 193,-557.42 200.66,-564.75 203.56,-558.38"/>
</g>
<!-- Metamodel::ClassHOW&#45;&gt;Metamodel::MultiMethodContainer -->
<g id="edge13" class="edge">
<title>Metamodel::ClassHOW&#45;&gt;Metamodel::MultiMethodContainer</title>
<path fill="none" stroke="#6666ff" d="M723.2,-821.91C690.52,-876.81 592.72,-1041.12 553.97,-1106.22"/>
<polygon fill="#6666ff" stroke="#6666ff" points="550.81,-1104.69 548.7,-1115.08 556.82,-1108.27 550.81,-1104.69"/>
</g>
<!-- Metamodel::ClassHOW&#45;&gt;Metamodel::RoleContainer -->
<g id="edge14" class="edge">
<title>Metamodel::ClassHOW&#45;&gt;Metamodel::RoleContainer</title>
<path fill="none" stroke="#6666ff" d="M743.48,-821.84C784.32,-900.04 945.65,-1208.96 994.65,-1302.79"/>
<polygon fill="#6666ff" stroke="#6666ff" points="991.69,-1304.68 999.42,-1311.93 997.89,-1301.44 991.69,-1304.68"/>
</g>
<!-- Metamodel::ClassHOW&#45;&gt;Metamodel::MultipleInheritance -->
<g id="edge15" class="edge">
<title>Metamodel::ClassHOW&#45;&gt;Metamodel::MultipleInheritance</title>
<path fill="none" stroke="#6666ff" d="M815.01,-792.45C897.7,-780.94 1026.35,-763.03 1116.3,-750.51"/>
<polygon fill="#6666ff" stroke="#6666ff" points="1116.83,-753.97 1126.25,-749.12 1115.86,-747.03 1116.83,-753.97"/>
</g>
<!-- Metamodel::ClassHOW&#45;&gt;Metamodel::DefaultParent -->
<g id="edge16" class="edge">
<title>Metamodel::ClassHOW&#45;&gt;Metamodel::DefaultParent</title>
<path fill="none" stroke="#6666ff" d="M712.53,-821.34C635.54,-884.45 373.46,-1099.31 284.95,-1171.87"/>
<polygon fill="#6666ff" stroke="#6666ff" points="282.69,-1169.2 277.18,-1178.25 287.13,-1174.61 282.69,-1169.2"/>
</g>
<!-- Metamodel::ClassHOW&#45;&gt;Metamodel::C3MRO -->
<g id="edge17" class="edge">
<title>Metamodel::ClassHOW&#45;&gt;Metamodel::C3MRO</title>
<path fill="none" stroke="#6666ff" d="M736.07,-785.38C744.02,-714.49 772.26,-462.43 772.26,-462.43 772.26,-462.43 710.72,-418.16 710.72,-418.16 710.72,-418.16 607.39,-234.05 568,-163.85"/>
<polygon fill="#6666ff" stroke="#6666ff" points="571.04,-162.12 563.1,-155.11 564.94,-165.55 571.04,-162.12"/>
</g>
<!-- Metamodel::ClassHOW&#45;&gt;Metamodel::MROBasedMethodDispatch -->
<g id="edge18" class="edge">
<title>Metamodel::ClassHOW&#45;&gt;Metamodel::MROBasedMethodDispatch</title>
<path fill="none" stroke="#6666ff" d="M762.41,-786.4C839.34,-739.47 1051.84,-609.82 1139.03,-556.63"/>
<polygon fill="#6666ff" stroke="#6666ff" points="1141.09,-559.47 1147.8,-551.27 1137.44,-553.49 1141.09,-559.47"/>
</g>
<!-- Metamodel::ClassHOW&#45;&gt;Metamodel::Trusting -->
<g id="edge20" class="edge">
<title>Metamodel::ClassHOW&#45;&gt;Metamodel::Trusting</title>
<path fill="none" stroke="#6666ff" d="M684.21,-819.54C579.44,-852.82 336.75,-929.9 225.17,-965.34"/>
<polygon fill="#6666ff" stroke="#6666ff" points="223.91,-962.07 215.44,-968.44 226.03,-968.74 223.91,-962.07"/>
</g>
<!-- Metamodel::ClassHOW&#45;&gt;Metamodel::BUILDPLAN -->
<g id="edge21" class="edge">
<title>Metamodel::ClassHOW&#45;&gt;Metamodel::BUILDPLAN</title>
<path fill="none" stroke="#6666ff" d="M731.35,-821.92C721.23,-891.01 685.75,-1133.33 685.75,-1133.33 685.75,-1133.33 636.8,-1223.03 611.53,-1269.33"/>
<polygon fill="#6666ff" stroke="#6666ff" points="608.38,-1267.79 606.67,-1278.24 614.53,-1271.14 608.38,-1267.79"/>
</g>
<!-- Metamodel::ClassHOW&#45;&gt;Metamodel::Mixins -->
<g id="edge22" class="edge">
<title>Metamodel::ClassHOW&#45;&gt;Metamodel::Mixins</title>
<path fill="none" stroke="#6666ff" d="M736.28,-821.87C746.03,-899.94 784.44,-1207.68 796.3,-1302.66"/>
<polygon fill="#6666ff" stroke="#6666ff" points="792.84,-1303.18 797.55,-1312.67 799.78,-1302.31 792.84,-1303.18"/>
</g>
<!-- Metamodel::ClassHOW&#45;&gt;Metamodel::BoolificationProtocol -->
<g id="edge23" class="edge">
<title>Metamodel::ClassHOW&#45;&gt;Metamodel::BoolificationProtocol</title>
<path fill="none" stroke="#6666ff" d="M750.63,-821.65C816.17,-892.33 1056.91,-1151.97 1133.97,-1235.09"/>
<polygon fill="#6666ff" stroke="#6666ff" points="1131.54,-1237.61 1140.91,-1242.57 1136.68,-1232.85 1131.54,-1237.61"/>
</g>
<!-- Metamodel::NativeHOW -->
<g id="node23" class="node">
<title>Metamodel::NativeHOW</title>
<g id="a_node23"><a xlink:href="/type/Metamodel::NativeHOW" xlink:title="Metamodel::NativeHOW">
<ellipse fill="none" stroke="#000000" cx="983.08" cy="-121.48" rx="106.68" ry="18"/>
<text text-anchor="middle" x="983.08" y="-117.78" font-family="FreeSans" font-size="14.00" fill="#000000">Metamodel::NativeHOW</text>
</a>
</g>
</g>
<!-- Metamodel::NativeHOW&#45;&gt;Metamodel::MROBasedTypeChecking -->
<g id="edge31" class="edge">
<title>Metamodel::NativeHOW&#45;&gt;Metamodel::MROBasedTypeChecking</title>
<path fill="none" stroke="#6666ff" d="M963.42,-139.32C901.07,-195.9 707.67,-371.42 635.27,-437.13"/>
<polygon fill="#6666ff" stroke="#6666ff" points="632.5,-434.91 627.45,-444.22 637.2,-440.09 632.5,-434.91"/>
</g>
<!-- Metamodel::NativeHOW&#45;&gt;Any -->
<g id="edge3" class="edge">
<title>Metamodel::NativeHOW&#45;&gt;Any</title>
<path fill="none" stroke="#000000" d="M1004.92,-139.17C1059.74,-183.59 1202.95,-299.64 1261.36,-346.96"/>
<polygon fill="#000000" stroke="#000000" points="1259.37,-349.85 1269.34,-353.43 1263.77,-344.41 1259.37,-349.85"/>
</g>
<!-- Metamodel::NativeHOW&#45;&gt;Metamodel::Naming -->
<g id="edge24" class="edge">
<title>Metamodel::NativeHOW&#45;&gt;Metamodel::Naming</title>
<path fill="none" stroke="#6666ff" d="M978.08,-139.6C960.28,-204.06 901.1,-418.35 901.1,-418.35 901.1,-418.35 665.78,-548.81 570.49,-601.64"/>
<polygon fill="#6666ff" stroke="#6666ff" points="568.76,-598.59 561.72,-606.5 572.16,-604.72 568.76,-598.59"/>
</g>
<!-- Metamodel::NativeHOW&#45;&gt;Metamodel::Documenting -->
<g id="edge25" class="edge">
<title>Metamodel::NativeHOW&#45;&gt;Metamodel::Documenting</title>
<path fill="none" stroke="#6666ff" d="M999.01,-139.44C1069.31,-218.74 1348.34,-533.45 1348.34,-533.45 1348.34,-533.45 1355.42,-549.33 1362.2,-564.55"/>
<polygon fill="#6666ff" stroke="#6666ff" points="1359.06,-566.09 1366.32,-573.8 1365.45,-563.24 1359.06,-566.09"/>
</g>
<!-- Metamodel::NativeHOW&#45;&gt;Metamodel::Versioning -->
<g id="edge26" class="edge">
<title>Metamodel::NativeHOW&#45;&gt;Metamodel::Versioning</title>
<path fill="none" stroke="#6666ff" d="M921.27,-136.18C808.86,-162.92 571.6,-219.35 452.74,-247.62"/>
<polygon fill="#6666ff" stroke="#6666ff" points="451.57,-244.3 442.66,-250.02 453.19,-251.11 451.57,-244.3"/>
</g>
<!-- Metamodel::NativeHOW&#45;&gt;Metamodel::Stashing -->
<g id="edge27" class="edge">
<title>Metamodel::NativeHOW&#45;&gt;Metamodel::Stashing</title>
<path fill="none" stroke="#6666ff" d="M972.26,-139.59C942.24,-189.89 857.74,-331.43 822.09,-391.14"/>
<polygon fill="#6666ff" stroke="#6666ff" points="818.93,-389.62 816.81,-400 824.94,-393.21 818.93,-389.62"/>
</g>
<!-- Metamodel::NativeHOW&#45;&gt;Metamodel::MultipleInheritance -->
<g id="edge28" class="edge">
<title>Metamodel::NativeHOW&#45;&gt;Metamodel::MultipleInheritance</title>
<path fill="none" stroke="#6666ff" d="M978.27,-139.53C961.42,-202.72 906.11,-410.12 906.11,-410.12 906.11,-410.12 1005.87,-533.34 1005.87,-533.34 1005.87,-533.34 1135.76,-656.64 1192.98,-710.96"/>
<polygon fill="#6666ff" stroke="#6666ff" points="1190.89,-713.8 1200.56,-718.14 1195.71,-708.72 1190.89,-713.8"/>
</g>
<!-- Metamodel::NativeHOW&#45;&gt;Metamodel::C3MRO -->
<g id="edge29" class="edge">
<title>Metamodel::NativeHOW&#45;&gt;Metamodel::C3MRO</title>
<path fill="none" stroke="#6666ff" d="M878.69,-125.27C810.47,-127.75 721.81,-130.97 654.23,-133.43"/>
<polygon fill="#6666ff" stroke="#6666ff" points="653.86,-129.94 643.99,-133.8 654.11,-136.93 653.86,-129.94"/>
</g>
<!-- Metamodel::NativeHOW&#45;&gt;Metamodel::MROBasedMethodDispatch -->
<g id="edge30" class="edge">
<title>Metamodel::NativeHOW&#45;&gt;Metamodel::MROBasedMethodDispatch</title>
<path fill="none" stroke="#6666ff" d="M994.4,-139.54C1034.03,-202.75 1164.09,-410.22 1164.09,-410.22 1164.09,-410.22 1170.28,-468.82 1174.12,-505.18"/>
<polygon fill="#6666ff" stroke="#6666ff" points="1170.65,-505.64 1175.19,-515.22 1177.61,-504.91 1170.65,-505.64"/>
</g>
<!-- Metamodel::BaseType -->
<g id="node24" class="node">
<title>Metamodel::BaseType</title>
<g id="a_node24"><a xlink:href="/type/Metamodel::BaseType" xlink:title="Metamodel::BaseType">
<ellipse fill="none" stroke="#6666ff" cx="1700.1" cy="-1133.53" rx="99.38" ry="18"/>
<text text-anchor="middle" x="1700.1" y="-1129.83" font-family="FreeSans" font-size="14.00" fill="#6666ff">Metamodel::BaseType</text>
</a>
</g>
</g>
<!-- Metamodel::EnumHOW -->
<g id="node25" class="node">
<title>Metamodel::EnumHOW</title>
<g id="a_node25"><a xlink:href="/type/Metamodel::EnumHOW" xlink:title="Metamodel::EnumHOW">
<ellipse fill="none" stroke="#000000" cx="1049.5" cy="-898.81" rx="104.78" ry="18"/>
<text text-anchor="middle" x="1049.5" y="-895.11" font-family="FreeSans" font-size="14.00" fill="#000000">Metamodel::EnumHOW</text>
</a>
</g>
</g>
<!-- Metamodel::EnumHOW&#45;&gt;Metamodel::MROBasedTypeChecking -->
<g id="edge40" class="edge">
<title>Metamodel::EnumHOW&#45;&gt;Metamodel::MROBasedTypeChecking</title>
<path fill="none" stroke="#6666ff" d="M1031.35,-880.89C962.11,-812.5 714.41,-567.86 633.38,-487.84"/>
<polygon fill="#6666ff" stroke="#6666ff" points="635.65,-485.15 626.07,-480.62 630.73,-490.13 635.65,-485.15"/>
</g>
<!-- Metamodel::EnumHOW&#45;&gt;Any -->
<g id="edge4" class="edge">
<title>Metamodel::EnumHOW&#45;&gt;Any</title>
<path fill="none" stroke="#000000" d="M1053.33,-880.77C1062.32,-838.39 1084.03,-736.04 1084.03,-736.04 1084.03,-736.04 1261.7,-591.93 1261.7,-591.93 1261.7,-591.93 1348.34,-533.45 1348.34,-533.45 1348.34,-533.45 1314.37,-441.99 1296.87,-394.87"/>
<polygon fill="#000000" stroke="#000000" points="1300.07,-393.42 1293.31,-385.26 1293.51,-395.86 1300.07,-393.42"/>
</g>
<!-- Metamodel::EnumHOW&#45;&gt;Metamodel::Naming -->
<g id="edge32" class="edge">
<title>Metamodel::EnumHOW&#45;&gt;Metamodel::Naming</title>
<path fill="none" stroke="#6666ff" d="M1017.07,-881.59C926.58,-833.52 671.43,-697.99 571.75,-645.04"/>
<polygon fill="#6666ff" stroke="#6666ff" points="573.35,-641.93 562.88,-640.33 570.07,-648.11 573.35,-641.93"/>
</g>
<!-- Metamodel::EnumHOW&#45;&gt;Metamodel::Stashing -->
<g id="edge33" class="edge">
<title>Metamodel::EnumHOW&#45;&gt;Metamodel::Stashing</title>
<path fill="none" stroke="#6666ff" d="M1040.39,-880.85C1003.39,-807.85 864.12,-533.1 819.65,-445.37"/>
<polygon fill="#6666ff" stroke="#6666ff" points="822.7,-443.64 815.06,-436.31 816.46,-446.81 822.7,-443.64"/>
</g>
<!-- Metamodel::EnumHOW&#45;&gt;Metamodel::AttributeContainer -->
<g id="edge34" class="edge">
<title>Metamodel::EnumHOW&#45;&gt;Metamodel::AttributeContainer</title>
<path fill="none" stroke="#6666ff" d="M1071.88,-916.69C1118.07,-953.59 1223.98,-1038.21 1276.34,-1080.04"/>
<polygon fill="#6666ff" stroke="#6666ff" points="1274.27,-1082.86 1284.26,-1086.37 1278.64,-1077.39 1274.27,-1082.86"/>
</g>
<!-- Metamodel::EnumHOW&#45;&gt;Metamodel::MethodContainer -->
<g id="edge35" class="edge">
<title>Metamodel::EnumHOW&#45;&gt;Metamodel::MethodContainer</title>
<path fill="none" stroke="#6666ff" d="M1047.34,-880.69C1038.53,-806.94 1005.87,-533.34 1005.87,-533.34 1005.87,-533.34 1019.78,-474.75 1028.41,-438.39"/>
<polygon fill="#6666ff" stroke="#6666ff" points="1031.88,-438.88 1030.79,-428.35 1025.07,-437.27 1031.88,-438.88"/>
</g>
<!-- Metamodel::EnumHOW&#45;&gt;Metamodel::MultiMethodContainer -->
<g id="edge36" class="edge">
<title>Metamodel::EnumHOW&#45;&gt;Metamodel::MultiMethodContainer</title>
<path fill="none" stroke="#6666ff" d="M1012.71,-915.67C921.82,-957.31 686.74,-1065.02 585.47,-1111.41"/>
<polygon fill="#6666ff" stroke="#6666ff" points="583.73,-1108.36 576.1,-1115.71 586.65,-1114.72 583.73,-1108.36"/>
</g>
<!-- Metamodel::EnumHOW&#45;&gt;Metamodel::RoleContainer -->
<g id="edge37" class="edge">
<title>Metamodel::EnumHOW&#45;&gt;Metamodel::RoleContainer</title>
<path fill="none" stroke="#6666ff" d="M1047.78,-917.06C1041.41,-984.56 1019.18,-1220.33 1011.49,-1301.92"/>
<polygon fill="#6666ff" stroke="#6666ff" points="1007.99,-1301.67 1010.54,-1311.95 1014.96,-1302.32 1007.99,-1301.67"/>
</g>
<!-- Metamodel::EnumHOW&#45;&gt;Metamodel::MROBasedMethodDispatch -->
<g id="edge39" class="edge">
<title>Metamodel::EnumHOW&#45;&gt;Metamodel::MROBasedMethodDispatch</title>
<path fill="none" stroke="#6666ff" d="M1053.33,-880.77C1062.32,-838.39 1084.03,-736.04 1084.03,-736.04 1084.03,-736.04 1139.24,-615.84 1164.62,-560.59"/>
<polygon fill="#6666ff" stroke="#6666ff" points="1167.85,-561.92 1168.85,-551.38 1161.49,-559 1167.85,-561.92"/>
</g>
<!-- Metamodel::EnumHOW&#45;&gt;Metamodel::BUILDPLAN -->
<g id="edge41" class="edge">
<title>Metamodel::EnumHOW&#45;&gt;Metamodel::BUILDPLAN</title>
<path fill="none" stroke="#6666ff" d="M1029.17,-916.66C956.34,-980.62 708.35,-1198.36 624.66,-1271.85"/>
<polygon fill="#6666ff" stroke="#6666ff" points="622.29,-1269.28 617.08,-1278.51 626.91,-1274.54 622.29,-1269.28"/>
</g>
<!-- Metamodel::EnumHOW&#45;&gt;Metamodel::Mixins -->
<g id="edge43" class="edge">
<title>Metamodel::EnumHOW&#45;&gt;Metamodel::Mixins</title>
<path fill="none" stroke="#6666ff" d="M1039.09,-916.82C1000.06,-984.33 862.31,-1222.61 815.5,-1303.58"/>
<polygon fill="#6666ff" stroke="#6666ff" points="812.23,-1302.24 810.26,-1312.65 818.29,-1305.74 812.23,-1302.24"/>
</g>
<!-- Metamodel::EnumHOW&#45;&gt;Metamodel::BoolificationProtocol -->
<g id="edge42" class="edge">
<title>Metamodel::EnumHOW&#45;&gt;Metamodel::BoolificationProtocol</title>
<path fill="none" stroke="#6666ff" d="M1055.02,-917.26C1072.74,-976.46 1128.23,-1161.85 1149.48,-1232.83"/>
<polygon fill="#6666ff" stroke="#6666ff" points="1146.14,-1233.87 1152.36,-1242.45 1152.84,-1231.86 1146.14,-1233.87"/>
</g>
<!-- Metamodel::EnumHOW&#45;&gt;Metamodel::BaseType -->
<g id="edge38" class="edge">
<title>Metamodel::EnumHOW&#45;&gt;Metamodel::BaseType</title>
<path fill="none" stroke="#6666ff" d="M1094.73,-915.13C1211,-957.08 1519.98,-1068.55 1645.72,-1113.91"/>
<polygon fill="#6666ff" stroke="#6666ff" points="1644.57,-1117.22 1655.17,-1117.32 1646.95,-1110.63 1644.57,-1117.22"/>
</g>
</g>
</svg>
