<?xml version="1.0" encoding="UTF-8" standalone="no"?>
<!DOCTYPE svg PUBLIC "-//W3C//DTD SVG 1.1//EN"
 "http://www.w3.org/Graphics/SVG/1.1/DTD/svg11.dtd">
<!-- Generated by graphviz version 2.43.0 (0)
 -->
<!-- Title: raku&#45;type&#45;graph Pages: 1 -->
<svg width="1793pt" height="1841pt"
 viewBox="0.00 0.00 1793.19 1841.21" xmlns="http://www.w3.org/2000/svg" xmlns:xlink="http://www.w3.org/1999/xlink">
<g id="graph0" class="graph" transform="scale(1 1) rotate(0) translate(4 1837.21)">
<title>raku&#45;type&#45;graph</title>
<polygon fill="#ffffff" stroke="transparent" points="-4,4 -4,-1837.21 1789.19,-1837.21 1789.19,4 -4,4"/>
<!-- Metamodel::Documenting -->
<g id="node1" class="node">
<title>Metamodel::Documenting</title>
<g id="a_node1"><a xlink:href="/type/Metamodel::Documenting" xlink:title="Metamodel::Documenting">
<ellipse fill="none" stroke="#6666ff" cx="560.69" cy="-832.98" rx="111.28" ry="18"/>
<text text-anchor="middle" x="560.69" y="-829.28" font-family="FreeSans" font-size="14.00" fill="#6666ff">Metamodel::Documenting</text>
</a>
</g>
</g>
<!-- Mu -->
<g id="node2" class="node">
<title>Mu</title>
<g id="a_node2"><a xlink:href="/type/Mu" xlink:title="Mu">
<ellipse fill="none" stroke="#000000" cx="427.46" cy="-267.06" rx="27" ry="18"/>
<text text-anchor="middle" x="427.46" y="-263.36" font-family="FreeSans" font-size="14.00" fill="#000000">Mu</text>
</a>
</g>
</g>
<!-- Any -->
<g id="node3" class="node">
<title>Any</title>
<g id="a_node3"><a xlink:href="/type/Any" xlink:title="Any">
<ellipse fill="none" stroke="#000000" cx="592.96" cy="-735.44" rx="27" ry="18"/>
<text text-anchor="middle" x="592.96" y="-731.74" font-family="FreeSans" font-size="14.00" fill="#000000">Any</text>
</a>
</g>
</g>
<!-- Any&#45;&gt;Mu -->
<g id="edge1" class="edge">
<title>Any&#45;&gt;Mu</title>
<path fill="none" stroke="#000000" d="M586.68,-717.65C561.49,-646.35 467.72,-380.99 437.16,-294.5"/>
<polygon fill="#000000" stroke="#000000" points="440.38,-293.13 433.75,-284.87 433.78,-295.46 440.38,-293.13"/>
</g>
<!-- Metamodel::DefiniteHOW -->
<g id="node4" class="node">
<title>Metamodel::DefiniteHOW</title>
<g id="a_node4"><a xlink:href="/type/Metamodel::DefiniteHOW" xlink:title="Metamodel::DefiniteHOW">
<ellipse fill="none" stroke="#000000" cx="121.08" cy="-629.94" rx="111.28" ry="18"/>
<text text-anchor="middle" x="121.08" y="-626.24" font-family="FreeSans" font-size="14.00" fill="#000000">Metamodel::DefiniteHOW</text>
</a>
</g>
</g>
<!-- Metamodel::DefiniteHOW&#45;&gt;Metamodel::Documenting -->
<g id="edge9" class="edge">
<title>Metamodel::DefiniteHOW&#45;&gt;Metamodel::Documenting</title>
<path fill="none" stroke="#6666ff" d="M158.18,-647.07C238.27,-684.06 427.16,-771.31 514.69,-811.73"/>
<polygon fill="#6666ff" stroke="#6666ff" points="513.29,-814.94 523.84,-815.96 516.23,-808.59 513.29,-814.94"/>
</g>
<!-- Metamodel::DefiniteHOW&#45;&gt;Any -->
<g id="edge2" class="edge">
<title>Metamodel::DefiniteHOW&#45;&gt;Any</title>
<path fill="none" stroke="#000000" d="M186.69,-644.61C287.88,-667.23 478.56,-709.86 557.43,-727.49"/>
<polygon fill="#000000" stroke="#000000" points="556.84,-730.95 567.36,-729.71 558.36,-724.11 556.84,-730.95"/>
</g>
<!-- Metamodel::Naming -->
<g id="node5" class="node">
<title>Metamodel::Naming</title>
<g id="a_node5"><a xlink:href="/type/Metamodel::Naming" xlink:title="Metamodel::Naming">
<ellipse fill="none" stroke="#6666ff" cx="770.26" cy="-829.67" rx="90.18" ry="18"/>
<text text-anchor="middle" x="770.26" y="-825.97" font-family="FreeSans" font-size="14.00" fill="#6666ff">Metamodel::Naming</text>
</a>
</g>
</g>
<!-- Metamodel::Stashing -->
<g id="node6" class="node">
<title>Metamodel::Stashing</title>
<g id="a_node6"><a xlink:href="/type/Metamodel::Stashing" xlink:title="Metamodel::Stashing">
<ellipse fill="none" stroke="#6666ff" cx="959.26" cy="-873.68" rx="93.68" ry="18"/>
<text text-anchor="middle" x="959.26" y="-869.98" font-family="FreeSans" font-size="14.00" fill="#6666ff">Metamodel::Stashing</text>
</a>
</g>
</g>
<!-- Metamodel::TypePretense -->
<g id="node7" class="node">
<title>Metamodel::TypePretense</title>
<g id="a_node7"><a xlink:href="/type/Metamodel::TypePretense" xlink:title="Metamodel::TypePretense">
<ellipse fill="none" stroke="#6666ff" cx="1377.97" cy="-499.75" rx="114.28" ry="18"/>
<text text-anchor="middle" x="1377.97" y="-496.05" font-family="FreeSans" font-size="14.00" fill="#6666ff">Metamodel::TypePretense</text>
</a>
</g>
</g>
<!-- Metamodel::MethodDelegation -->
<g id="node8" class="node">
<title>Metamodel::MethodDelegation</title>
<g id="a_node8"><a xlink:href="/type/Metamodel::MethodDelegation" xlink:title="Metamodel::MethodDelegation">
<ellipse fill="none" stroke="#6666ff" cx="991.05" cy="-18" rx="131.08" ry="18"/>
<text text-anchor="middle" x="991.05" y="-14.3" font-family="FreeSans" font-size="14.00" fill="#6666ff">Metamodel::MethodDelegation</text>
</a>
</g>
</g>
<!-- Metamodel::PackageHOW -->
<g id="node9" class="node">
<title>Metamodel::PackageHOW</title>
<g id="a_node9"><a xlink:href="/type/Metamodel::PackageHOW" xlink:title="Metamodel::PackageHOW">
<ellipse fill="none" stroke="#000000" cx="864.66" cy="-403.6" rx="116.18" ry="18"/>
<text text-anchor="middle" x="864.66" y="-399.9" font-family="FreeSans" font-size="14.00" fill="#000000">Metamodel::PackageHOW</text>
</a>
</g>
</g>
<!-- Metamodel::PackageHOW&#45;&gt;Metamodel::Documenting -->
<g id="edge11" class="edge">
<title>Metamodel::PackageHOW&#45;&gt;Metamodel::Documenting</title>
<path fill="none" stroke="#6666ff" d="M851.98,-421.5C804.38,-488.74 636.1,-726.45 579.45,-806.47"/>
<polygon fill="#6666ff" stroke="#6666ff" points="576.34,-804.81 573.41,-815 582.05,-808.86 576.34,-804.81"/>
</g>
<!-- Metamodel::PackageHOW&#45;&gt;Any -->
<g id="edge3" class="edge">
<title>Metamodel::PackageHOW&#45;&gt;Any</title>
<path fill="none" stroke="#000000" d="M849.66,-421.91C803.56,-478.21 663.93,-648.76 612.37,-711.74"/>
<polygon fill="#000000" stroke="#000000" points="609.6,-709.59 605.97,-719.55 615.01,-714.03 609.6,-709.59"/>
</g>
<!-- Metamodel::PackageHOW&#45;&gt;Metamodel::Naming -->
<g id="edge10" class="edge">
<title>Metamodel::PackageHOW&#45;&gt;Metamodel::Naming</title>
<path fill="none" stroke="#6666ff" d="M860.66,-421.63C845.92,-488.18 794.5,-720.26 776.53,-801.4"/>
<polygon fill="#6666ff" stroke="#6666ff" points="773.06,-800.87 774.31,-811.39 779.89,-802.39 773.06,-800.87"/>
</g>
<!-- Metamodel::PackageHOW&#45;&gt;Metamodel::Stashing -->
<g id="edge12" class="edge">
<title>Metamodel::PackageHOW&#45;&gt;Metamodel::Stashing</title>
<path fill="none" stroke="#6666ff" d="M863.71,-421.75C862.32,-448.52 859.88,-495.47 859.88,-495.47 859.88,-495.47 929.05,-758.69 951.98,-845.95"/>
<polygon fill="#6666ff" stroke="#6666ff" points="948.61,-846.91 954.54,-855.69 955.38,-845.13 948.61,-846.91"/>
</g>
<!-- Metamodel::PackageHOW&#45;&gt;Metamodel::TypePretense -->
<g id="edge13" class="edge">
<title>Metamodel::PackageHOW&#45;&gt;Metamodel::TypePretense</title>
<path fill="none" stroke="#6666ff" d="M938.75,-417.47C1033.1,-435.15 1195.69,-465.6 1294.38,-484.09"/>
<polygon fill="#6666ff" stroke="#6666ff" points="1293.84,-487.55 1304.31,-485.95 1295.13,-480.67 1293.84,-487.55"/>
</g>
<!-- Metamodel::PackageHOW&#45;&gt;Metamodel::MethodDelegation -->
<g id="edge14" class="edge">
<title>Metamodel::PackageHOW&#45;&gt;Metamodel::MethodDelegation</title>
<path fill="none" stroke="#6666ff" d="M870.58,-385.52C890.86,-323.66 957.55,-120.2 981.98,-45.67"/>
<polygon fill="#6666ff" stroke="#6666ff" points="985.35,-46.63 985.14,-36.04 978.7,-44.45 985.35,-46.63"/>
</g>
<!-- Metamodel::Versioning -->
<g id="node10" class="node">
<title>Metamodel::Versioning</title>
<g id="a_node10"><a xlink:href="/type/Metamodel::Versioning" xlink:title="Metamodel::Versioning">
<ellipse fill="none" stroke="#6666ff" cx="882.29" cy="-1010.5" rx="100.98" ry="18"/>
<text text-anchor="middle" x="882.29" y="-1006.8" font-family="FreeSans" font-size="14.00" fill="#6666ff">Metamodel::Versioning</text>
</a>
</g>
</g>
<!-- Metamodel::AttributeContainer -->
<g id="node11" class="node">
<title>Metamodel::AttributeContainer</title>
<g id="a_node11"><a xlink:href="/type/Metamodel::AttributeContainer" xlink:title="Metamodel::AttributeContainer">
<ellipse fill="none" stroke="#6666ff" cx="1157.29" cy="-1303.58" rx="129.98" ry="18"/>
<text text-anchor="middle" x="1157.29" y="-1299.88" font-family="FreeSans" font-size="14.00" fill="#6666ff">Metamodel::AttributeContainer</text>
</a>
</g>
</g>
<!-- Metamodel::Finalization -->
<g id="node12" class="node">
<title>Metamodel::Finalization</title>
<g id="a_node12"><a xlink:href="/type/Metamodel::Finalization" xlink:title="Metamodel::Finalization">
<ellipse fill="none" stroke="#6666ff" cx="330.42" cy="-1700.7" rx="103.98" ry="18"/>
<text text-anchor="middle" x="330.42" y="-1697" font-family="FreeSans" font-size="14.00" fill="#6666ff">Metamodel::Finalization</text>
</a>
</g>
</g>
<!-- Metamodel::MethodContainer -->
<g id="node13" class="node">
<title>Metamodel::MethodContainer</title>
<g id="a_node13"><a xlink:href="/type/Metamodel::MethodContainer" xlink:title="Metamodel::MethodContainer">
<ellipse fill="none" stroke="#6666ff" cx="1360.04" cy="-1363.33" rx="127.28" ry="18"/>
<text text-anchor="middle" x="1360.04" y="-1359.63" font-family="FreeSans" font-size="14.00" fill="#6666ff">Metamodel::MethodContainer</text>
</a>
</g>
</g>
<!-- Metamodel::PrivateMethodContainer -->
<g id="node14" class="node">
<title>Metamodel::PrivateMethodContainer</title>
<g id="a_node14"><a xlink:href="/type/Metamodel::PrivateMethodContainer" xlink:title="Metamodel::PrivateMethodContainer">
<ellipse fill="none" stroke="#6666ff" cx="1306.46" cy="-1500.84" rx="154.87" ry="18"/>
<text text-anchor="middle" x="1306.46" y="-1497.14" font-family="FreeSans" font-size="14.00" fill="#6666ff">Metamodel::PrivateMethodContainer</text>
</a>
</g>
</g>
<!-- Metamodel::MultiMethodContainer -->
<g id="node15" class="node">
<title>Metamodel::MultiMethodContainer</title>
<g id="a_node15"><a xlink:href="/type/Metamodel::MultiMethodContainer" xlink:title="Metamodel::MultiMethodContainer">
<ellipse fill="none" stroke="#6666ff" cx="997.28" cy="-1481.92" rx="146.47" ry="18"/>
<text text-anchor="middle" x="997.28" y="-1478.22" font-family="FreeSans" font-size="14.00" fill="#6666ff">Metamodel::MultiMethodContainer</text>
</a>
</g>
</g>
<!-- Metamodel::RoleContainer -->
<g id="node16" class="node">
<title>Metamodel::RoleContainer</title>
<g id="a_node16"><a xlink:href="/type/Metamodel::RoleContainer" xlink:title="Metamodel::RoleContainer">
<ellipse fill="none" stroke="#6666ff" cx="1326.68" cy="-1207.03" rx="115.88" ry="18"/>
<text text-anchor="middle" x="1326.68" y="-1203.33" font-family="FreeSans" font-size="14.00" fill="#6666ff">Metamodel::RoleContainer</text>
</a>
</g>
</g>
<!-- Metamodel::MultipleInheritance -->
<g id="node17" class="node">
<title>Metamodel::MultipleInheritance</title>
<g id="a_node17"><a xlink:href="/type/Metamodel::MultipleInheritance" xlink:title="Metamodel::MultipleInheritance">
<ellipse fill="none" stroke="#6666ff" cx="880.68" cy="-1222.53" rx="133.78" ry="18"/>
<text text-anchor="middle" x="880.68" y="-1218.83" font-family="FreeSans" font-size="14.00" fill="#6666ff">Metamodel::MultipleInheritance</text>
</a>
</g>
</g>
<!-- Metamodel::DefaultParent -->
<g id="node18" class="node">
<title>Metamodel::DefaultParent</title>
<g id="a_node18"><a xlink:href="/type/Metamodel::DefaultParent" xlink:title="Metamodel::DefaultParent">
<ellipse fill="none" stroke="#6666ff" cx="464.05" cy="-1767.08" rx="113.18" ry="18"/>
<text text-anchor="middle" x="464.05" y="-1763.38" font-family="FreeSans" font-size="14.00" fill="#6666ff">Metamodel::DefaultParent</text>
</a>
</g>
</g>
<!-- Metamodel::C3MRO -->
<g id="node19" class="node">
<title>Metamodel::C3MRO</title>
<g id="a_node19"><a xlink:href="/type/Metamodel::C3MRO" xlink:title="Metamodel::C3MRO">
<ellipse fill="none" stroke="#6666ff" cx="161.12" cy="-1336.74" rx="92.08" ry="18"/>
<text text-anchor="middle" x="161.12" y="-1333.04" font-family="FreeSans" font-size="14.00" fill="#6666ff">Metamodel::C3MRO</text>
</a>
</g>
</g>
<!-- Metamodel::MROBasedMethodDispatch -->
<g id="node20" class="node">
<title>Metamodel::MROBasedMethodDispatch</title>
<g id="a_node20"><a xlink:href="/type/Metamodel::MROBasedMethodDispatch" xlink:title="Metamodel::MROBasedMethodDispatch">
<ellipse fill="none" stroke="#6666ff" cx="504.1" cy="-1451.36" rx="169.77" ry="18"/>
<text text-anchor="middle" x="504.1" y="-1447.66" font-family="FreeSans" font-size="14.00" fill="#6666ff">Metamodel::MROBasedMethodDispatch</text>
</a>
</g>
</g>
<!-- Metamodel::MROBasedTypeChecking -->
<g id="node21" class="node">
<title>Metamodel::MROBasedTypeChecking</title>
<g id="a_node21"><a xlink:href="/type/Metamodel::MROBasedTypeChecking" xlink:title="Metamodel::MROBasedTypeChecking">
<ellipse fill="none" stroke="#6666ff" cx="163.14" cy="-1468.82" rx="163.27" ry="18"/>
<text text-anchor="middle" x="163.14" y="-1465.12" font-family="FreeSans" font-size="14.00" fill="#6666ff">Metamodel::MROBasedTypeChecking</text>
</a>
</g>
</g>
<!-- Metamodel::Trusting -->
<g id="node22" class="node">
<title>Metamodel::Trusting</title>
<g id="a_node22"><a xlink:href="/type/Metamodel::Trusting" xlink:title="Metamodel::Trusting">
<ellipse fill="none" stroke="#6666ff" cx="192.88" cy="-1199.95" rx="91.78" ry="18"/>
<text text-anchor="middle" x="192.88" y="-1196.25" font-family="FreeSans" font-size="14.00" fill="#6666ff">Metamodel::Trusting</text>
</a>
</g>
</g>
<!-- Metamodel::BUILDPLAN -->
<g id="node23" class="node">
<title>Metamodel::BUILDPLAN</title>
<g id="a_node23"><a xlink:href="/type/Metamodel::BUILDPLAN" xlink:title="Metamodel::BUILDPLAN">
<ellipse fill="none" stroke="#6666ff" cx="893.37" cy="-1815.21" rx="109.68" ry="18"/>
<text text-anchor="middle" x="893.37" y="-1811.51" font-family="FreeSans" font-size="14.00" fill="#6666ff">Metamodel::BUILDPLAN</text>
</a>
</g>
</g>
<!-- Metamodel::Mixins -->
<g id="node24" class="node">
<title>Metamodel::Mixins</title>
<g id="a_node24"><a xlink:href="/type/Metamodel::Mixins" xlink:title="Metamodel::Mixins">
<ellipse fill="none" stroke="#6666ff" cx="1096.49" cy="-1782.4" rx="85.29" ry="18"/>
<text text-anchor="middle" x="1096.49" y="-1778.7" font-family="FreeSans" font-size="14.00" fill="#6666ff">Metamodel::Mixins</text>
</a>
</g>
</g>
<!-- Metamodel::BoolificationProtocol -->
<g id="node25" class="node">
<title>Metamodel::BoolificationProtocol</title>
<g id="a_node25"><a xlink:href="/type/Metamodel::BoolificationProtocol" xlink:title="Metamodel::BoolificationProtocol">
<ellipse fill="none" stroke="#6666ff" cx="636.31" cy="-1811.13" rx="139.18" ry="18"/>
<text text-anchor="middle" x="636.31" y="-1807.43" font-family="FreeSans" font-size="14.00" fill="#6666ff">Metamodel::BoolificationProtocol</text>
</a>
</g>
</g>
<!-- Metamodel::ClassHOW -->
<g id="node26" class="node">
<title>Metamodel::ClassHOW</title>
<g id="a_node26"><a xlink:href="/type/Metamodel::ClassHOW" xlink:title="Metamodel::ClassHOW">
<ellipse fill="none" stroke="#000000" cx="725.93" cy="-1329.14" rx="103.18" ry="18"/>
<text text-anchor="middle" x="725.93" y="-1325.44" font-family="FreeSans" font-size="14.00" fill="#000000">Metamodel::ClassHOW</text>
</a>
</g>
</g>
<!-- Metamodel::ClassHOW&#45;&gt;Metamodel::Documenting -->
<g id="edge16" class="edge">
<title>Metamodel::ClassHOW&#45;&gt;Metamodel::Documenting</title>
<path fill="none" stroke="#6666ff" d="M719.85,-1310.89C694.87,-1235.89 600.02,-951.09 569.92,-860.69"/>
<polygon fill="#6666ff" stroke="#6666ff" points="573.21,-859.51 566.73,-851.13 566.57,-861.72 573.21,-859.51"/>
</g>
<!-- Metamodel::ClassHOW&#45;&gt;Any -->
<g id="edge4" class="edge">
<title>Metamodel::ClassHOW&#45;&gt;Any</title>
<path fill="none" stroke="#000000" d="M724,-1310.89C714.52,-1221.4 673.42,-833.09 673.42,-833.09 673.42,-833.09 636.71,-788.53 612.88,-759.61"/>
<polygon fill="#000000" stroke="#000000" points="615.31,-757.05 606.25,-751.56 609.91,-761.5 615.31,-757.05"/>
</g>
<!-- Metamodel::ClassHOW&#45;&gt;Metamodel::Naming -->
<g id="edge15" class="edge">
<title>Metamodel::ClassHOW&#45;&gt;Metamodel::Naming</title>
<path fill="none" stroke="#6666ff" d="M727.53,-1311.07C734.18,-1236.11 759.64,-949.34 767.76,-857.88"/>
<polygon fill="#6666ff" stroke="#6666ff" points="771.26,-857.99 768.66,-847.72 764.29,-857.37 771.26,-857.99"/>
</g>
<!-- Metamodel::ClassHOW&#45;&gt;Metamodel::Stashing -->
<g id="edge18" class="edge">
<title>Metamodel::ClassHOW&#45;&gt;Metamodel::Stashing</title>
<path fill="none" stroke="#6666ff" d="M728.99,-1311.09C740.41,-1243.67 779.95,-1010.43 779.95,-1010.43 779.95,-1010.43 876.69,-936.65 928.06,-897.48"/>
<polygon fill="#6666ff" stroke="#6666ff" points="930.36,-900.12 936.19,-891.27 926.12,-894.55 930.36,-900.12"/>
</g>
<!-- Metamodel::ClassHOW&#45;&gt;Metamodel::Versioning -->
<g id="edge17" class="edge">
<title>Metamodel::ClassHOW&#45;&gt;Metamodel::Versioning</title>
<path fill="none" stroke="#6666ff" d="M729.19,-1311.05C734.69,-1280.63 745.19,-1222.51 745.19,-1222.51 745.19,-1222.51 828.31,-1093.97 865.11,-1037.07"/>
<polygon fill="#6666ff" stroke="#6666ff" points="868.11,-1038.88 870.6,-1028.58 862.23,-1035.07 868.11,-1038.88"/>
</g>
<!-- Metamodel::ClassHOW&#45;&gt;Metamodel::AttributeContainer -->
<g id="edge19" class="edge">
<title>Metamodel::ClassHOW&#45;&gt;Metamodel::AttributeContainer</title>
<path fill="none" stroke="#6666ff" d="M823.81,-1323.34C883.98,-1319.77 961.79,-1315.16 1027.11,-1311.29"/>
<polygon fill="#6666ff" stroke="#6666ff" points="1027.71,-1314.76 1037.48,-1310.68 1027.29,-1307.78 1027.71,-1314.76"/>
</g>
<!-- Metamodel::ClassHOW&#45;&gt;Metamodel::Finalization -->
<g id="edge20" class="edge">
<title>Metamodel::ClassHOW&#45;&gt;Metamodel::Finalization</title>
<path fill="none" stroke="#6666ff" d="M718.46,-1347.2C704.39,-1381.25 675.33,-1451.54 675.33,-1451.54 675.33,-1451.54 449,-1615.04 363.02,-1677.15"/>
<polygon fill="#6666ff" stroke="#6666ff" points="360.73,-1674.49 354.67,-1683.18 364.83,-1680.16 360.73,-1674.49"/>
</g>
<!-- Metamodel::ClassHOW&#45;&gt;Metamodel::MethodContainer -->
<g id="edge21" class="edge">
<title>Metamodel::ClassHOW&#45;&gt;Metamodel::MethodContainer</title>
<path fill="none" stroke="#6666ff" d="M824.66,-1334.46C934.02,-1340.36 1110.75,-1349.89 1231,-1356.37"/>
<polygon fill="#6666ff" stroke="#6666ff" points="1230.83,-1359.87 1241,-1356.91 1231.2,-1352.88 1230.83,-1359.87"/>
</g>
<!-- Metamodel::ClassHOW&#45;&gt;Metamodel::PrivateMethodContainer -->
<g id="edge22" class="edge">
<title>Metamodel::ClassHOW&#45;&gt;Metamodel::PrivateMethodContainer</title>
<path fill="none" stroke="#6666ff" d="M778.47,-1344.68C884.38,-1376 1123.29,-1446.66 1239.91,-1481.16"/>
<polygon fill="#6666ff" stroke="#6666ff" points="1239.21,-1484.6 1249.79,-1484.08 1241.19,-1477.89 1239.21,-1484.6"/>
</g>
<!-- Metamodel::ClassHOW&#45;&gt;Metamodel::MultiMethodContainer -->
<g id="edge23" class="edge">
<title>Metamodel::ClassHOW&#45;&gt;Metamodel::MultiMethodContainer</title>
<path fill="none" stroke="#6666ff" d="M756.53,-1346.37C805.76,-1374.09 902.57,-1428.59 957.24,-1459.37"/>
<polygon fill="#6666ff" stroke="#6666ff" points="955.53,-1462.42 965.96,-1464.28 958.96,-1456.33 955.53,-1462.42"/>
</g>
<!-- Metamodel::ClassHOW&#45;&gt;Metamodel::RoleContainer -->
<g id="edge24" class="edge">
<title>Metamodel::ClassHOW&#45;&gt;Metamodel::RoleContainer</title>
<path fill="none" stroke="#6666ff" d="M793.38,-1315.43C904.89,-1292.76 1127.15,-1247.59 1246.5,-1223.33"/>
<polygon fill="#6666ff" stroke="#6666ff" points="1247.22,-1226.75 1256.32,-1221.33 1245.82,-1219.89 1247.22,-1226.75"/>
</g>
<!-- Metamodel::ClassHOW&#45;&gt;Metamodel::MultipleInheritance -->
<g id="edge25" class="edge">
<title>Metamodel::ClassHOW&#45;&gt;Metamodel::MultipleInheritance</title>
<path fill="none" stroke="#6666ff" d="M751.48,-1311.53C777.39,-1293.69 817.64,-1265.96 846.33,-1246.19"/>
<polygon fill="#6666ff" stroke="#6666ff" points="848.58,-1248.89 854.83,-1240.34 844.61,-1243.13 848.58,-1248.89"/>
</g>
<!-- Metamodel::ClassHOW&#45;&gt;Metamodel::DefaultParent -->
<g id="edge26" class="edge">
<title>Metamodel::ClassHOW&#45;&gt;Metamodel::DefaultParent</title>
<path fill="none" stroke="#6666ff" d="M718.46,-1347.2C704.39,-1381.25 675.33,-1451.54 675.33,-1451.54 675.33,-1451.54 533.21,-1663.8 482.09,-1740.14"/>
<polygon fill="#6666ff" stroke="#6666ff" points="478.98,-1738.5 476.33,-1748.76 484.8,-1742.39 478.98,-1738.5"/>
</g>
<!-- Metamodel::ClassHOW&#45;&gt;Metamodel::C3MRO -->
<g id="edge27" class="edge">
<title>Metamodel::ClassHOW&#45;&gt;Metamodel::C3MRO</title>
<path fill="none" stroke="#6666ff" d="M622.66,-1330.53C520.64,-1331.9 365.5,-1333.99 263.71,-1335.36"/>
<polygon fill="#6666ff" stroke="#6666ff" points="263.37,-1331.87 253.42,-1335.5 263.46,-1338.87 263.37,-1331.87"/>
</g>
<!-- Metamodel::ClassHOW&#45;&gt;Metamodel::MROBasedMethodDispatch -->
<g id="edge28" class="edge">
<title>Metamodel::ClassHOW&#45;&gt;Metamodel::MROBasedMethodDispatch</title>
<path fill="none" stroke="#6666ff" d="M694.62,-1346.39C655.48,-1367.95 588.4,-1404.91 545.18,-1428.73"/>
<polygon fill="#6666ff" stroke="#6666ff" points="543.4,-1425.71 536.33,-1433.6 546.78,-1431.84 543.4,-1425.71"/>
</g>
<!-- Metamodel::ClassHOW&#45;&gt;Metamodel::MROBasedTypeChecking -->
<g id="edge29" class="edge">
<title>Metamodel::ClassHOW&#45;&gt;Metamodel::MROBasedTypeChecking</title>
<path fill="none" stroke="#6666ff" d="M666.5,-1343.89C563.78,-1369.38 353.17,-1421.65 239.66,-1449.83"/>
<polygon fill="#6666ff" stroke="#6666ff" points="238.51,-1446.51 229.65,-1452.31 240.2,-1453.3 238.51,-1446.51"/>
</g>
<!-- Metamodel::ClassHOW&#45;&gt;Metamodel::Trusting -->
<g id="edge30" class="edge">
<title>Metamodel::ClassHOW&#45;&gt;Metamodel::Trusting</title>
<path fill="none" stroke="#6666ff" d="M665.56,-1314.51C565.35,-1290.22 365.34,-1241.75 260.52,-1216.34"/>
<polygon fill="#6666ff" stroke="#6666ff" points="261.22,-1212.91 250.68,-1213.96 259.57,-1219.72 261.22,-1212.91"/>
</g>
<!-- Metamodel::ClassHOW&#45;&gt;Metamodel::BUILDPLAN -->
<g id="edge31" class="edge">
<title>Metamodel::ClassHOW&#45;&gt;Metamodel::BUILDPLAN</title>
<path fill="none" stroke="#6666ff" d="M732.19,-1347.3C757.6,-1421.08 853.18,-1698.55 883.84,-1787.55"/>
<polygon fill="#6666ff" stroke="#6666ff" points="880.6,-1788.9 887.17,-1797.21 887.22,-1786.62 880.6,-1788.9"/>
</g>
<!-- Metamodel::ClassHOW&#45;&gt;Metamodel::Mixins -->
<g id="edge32" class="edge">
<title>Metamodel::ClassHOW&#45;&gt;Metamodel::Mixins</title>
<path fill="none" stroke="#6666ff" d="M740.58,-1347.26C773.3,-1387.72 849.45,-1481.88 849.45,-1481.88 849.45,-1481.88 1015.54,-1683.93 1075.35,-1756.69"/>
<polygon fill="#6666ff" stroke="#6666ff" points="1072.72,-1759 1081.78,-1764.5 1078.13,-1754.56 1072.72,-1759"/>
</g>
<!-- Metamodel::ClassHOW&#45;&gt;Metamodel::BoolificationProtocol -->
<g id="edge33" class="edge">
<title>Metamodel::ClassHOW&#45;&gt;Metamodel::BoolificationProtocol</title>
<path fill="none" stroke="#6666ff" d="M722.58,-1347.15C709.01,-1420.15 658.04,-1694.26 641.52,-1783.13"/>
<polygon fill="#6666ff" stroke="#6666ff" points="638.06,-1782.55 639.68,-1793.02 644.95,-1783.83 638.06,-1782.55"/>
</g>
<!-- Metamodel::RolePunning -->
<g id="node27" class="node">
<title>Metamodel::RolePunning</title>
<g id="a_node27"><a xlink:href="/type/Metamodel::RolePunning" xlink:title="Metamodel::RolePunning">
<ellipse fill="none" stroke="#6666ff" cx="1675.35" cy="-811.54" rx="109.68" ry="18"/>
<text text-anchor="middle" x="1675.35" y="-807.84" font-family="FreeSans" font-size="14.00" fill="#6666ff">Metamodel::RolePunning</text>
</a>
</g>
</g>
<!-- Metamodel::ParametricRoleHOW -->
<g id="node28" class="node">
<title>Metamodel::ParametricRoleHOW</title>
<g id="a_node28"><a xlink:href="/type/Metamodel::ParametricRoleHOW" xlink:title="Metamodel::ParametricRoleHOW">
<ellipse fill="none" stroke="#000000" cx="1199.29" cy="-934.78" rx="141.88" ry="18"/>
<text text-anchor="middle" x="1199.29" y="-931.08" font-family="FreeSans" font-size="14.00" fill="#000000">Metamodel::ParametricRoleHOW</text>
</a>
</g>
</g>
<!-- Metamodel::ParametricRoleHOW&#45;&gt;Metamodel::Documenting -->
<g id="edge35" class="edge">
<title>Metamodel::ParametricRoleHOW&#45;&gt;Metamodel::Documenting</title>
<path fill="none" stroke="#6666ff" d="M1109.02,-920.9C1018.19,-906.93 891.48,-887.44 891.48,-887.44 891.48,-887.44 746.58,-863.58 648.58,-847.45"/>
<polygon fill="#6666ff" stroke="#6666ff" points="649.1,-843.98 638.66,-845.81 647.96,-850.89 649.1,-843.98"/>
</g>
<!-- Metamodel::ParametricRoleHOW&#45;&gt;Any -->
<g id="edge5" class="edge">
<title>Metamodel::ParametricRoleHOW&#45;&gt;Any</title>
<path fill="none" stroke="#000000" d="M1159.34,-917.42C1108.46,-895.3 1027.05,-859.91 1027.05,-859.91 1027.05,-859.91 730.8,-774.96 627.77,-745.42"/>
<polygon fill="#000000" stroke="#000000" points="628.44,-741.97 617.86,-742.58 626.51,-748.7 628.44,-741.97"/>
</g>
<!-- Metamodel::ParametricRoleHOW&#45;&gt;Metamodel::Naming -->
<g id="edge34" class="edge">
<title>Metamodel::ParametricRoleHOW&#45;&gt;Metamodel::Naming</title>
<path fill="none" stroke="#6666ff" d="M1109.02,-920.9C1018.19,-906.93 891.48,-887.44 891.48,-887.44 891.48,-887.44 849.05,-867.21 814.39,-850.7"/>
<polygon fill="#6666ff" stroke="#6666ff" points="815.86,-847.52 805.33,-846.38 812.85,-853.84 815.86,-847.52"/>
</g>
<!-- Metamodel::ParametricRoleHOW&#45;&gt;Metamodel::Stashing -->
<g id="edge43" class="edge">
<title>Metamodel::ParametricRoleHOW&#45;&gt;Metamodel::Stashing</title>
<path fill="none" stroke="#6666ff" d="M1135.91,-918.65C1102.03,-910.02 1060.34,-899.41 1025.97,-890.66"/>
<polygon fill="#6666ff" stroke="#6666ff" points="1026.58,-887.2 1016.02,-888.12 1024.85,-893.98 1026.58,-887.2"/>
</g>
<!-- Metamodel::ParametricRoleHOW&#45;&gt;Metamodel::TypePretense -->
<g id="edge44" class="edge">
<title>Metamodel::ParametricRoleHOW&#45;&gt;Metamodel::TypePretense</title>
<path fill="none" stroke="#6666ff" d="M1206.74,-916.64C1234.64,-848.72 1333.04,-609.14 1366.63,-527.35"/>
<polygon fill="#6666ff" stroke="#6666ff" points="1369.92,-528.54 1370.49,-517.96 1363.45,-525.88 1369.92,-528.54"/>
</g>
<!-- Metamodel::ParametricRoleHOW&#45;&gt;Metamodel::Versioning -->
<g id="edge36" class="edge">
<title>Metamodel::ParametricRoleHOW&#45;&gt;Metamodel::Versioning</title>
<path fill="none" stroke="#6666ff" d="M1132.45,-950.75C1079.69,-963.35 1006.3,-980.88 952.65,-993.69"/>
<polygon fill="#6666ff" stroke="#6666ff" points="951.79,-990.3 942.87,-996.03 953.41,-997.11 951.79,-990.3"/>
</g>
<!-- Metamodel::ParametricRoleHOW&#45;&gt;Metamodel::AttributeContainer -->
<g id="edge40" class="edge">
<title>Metamodel::ParametricRoleHOW&#45;&gt;Metamodel::AttributeContainer</title>
<path fill="none" stroke="#6666ff" d="M1197.24,-952.82C1190.45,-1012.38 1168.73,-1203.09 1160.5,-1275.41"/>
<polygon fill="#6666ff" stroke="#6666ff" points="1156.99,-1275.25 1159.34,-1285.58 1163.95,-1276.04 1156.99,-1275.25"/>
</g>
<!-- Metamodel::ParametricRoleHOW&#45;&gt;Metamodel::MethodContainer -->
<g id="edge37" class="edge">
<title>Metamodel::ParametricRoleHOW&#45;&gt;Metamodel::MethodContainer</title>
<path fill="none" stroke="#6666ff" d="M1199.97,-953.06C1202.23,-1014.07 1209.39,-1206.92 1209.39,-1206.92 1209.39,-1206.92 1293.21,-1293.94 1335.8,-1338.17"/>
<polygon fill="#6666ff" stroke="#6666ff" points="1333.3,-1340.61 1342.76,-1345.39 1338.34,-1335.76 1333.3,-1340.61"/>
</g>
<!-- Metamodel::ParametricRoleHOW&#45;&gt;Metamodel::PrivateMethodContainer -->
<g id="edge38" class="edge">
<title>Metamodel::ParametricRoleHOW&#45;&gt;Metamodel::PrivateMethodContainer</title>
<path fill="none" stroke="#6666ff" d="M1199.97,-953.06C1202.23,-1014.07 1209.39,-1206.92 1209.39,-1206.92 1209.39,-1206.92 1288.87,-1303.68 1288.87,-1303.68 1288.87,-1303.68 1231.05,-1363.2 1231.05,-1363.2 1231.05,-1363.2 1269.71,-1433.77 1291.67,-1473.85"/>
<polygon fill="#6666ff" stroke="#6666ff" points="1288.73,-1475.76 1296.6,-1482.85 1294.87,-1472.39 1288.73,-1475.76"/>
</g>
<!-- Metamodel::ParametricRoleHOW&#45;&gt;Metamodel::MultiMethodContainer -->
<g id="edge39" class="edge">
<title>Metamodel::ParametricRoleHOW&#45;&gt;Metamodel::MultiMethodContainer</title>
<path fill="none" stroke="#6666ff" d="M1190.8,-952.81C1155.95,-1026.84 1025.7,-1303.48 1025.7,-1303.48 1025.7,-1303.48 1009.74,-1403.7 1001.74,-1453.92"/>
<polygon fill="#6666ff" stroke="#6666ff" points="998.28,-1453.4 1000.16,-1463.83 1005.19,-1454.5 998.28,-1453.4"/>
</g>
<!-- Metamodel::ParametricRoleHOW&#45;&gt;Metamodel::RoleContainer -->
<g id="edge41" class="edge">
<title>Metamodel::ParametricRoleHOW&#45;&gt;Metamodel::RoleContainer</title>
<path fill="none" stroke="#6666ff" d="M1207.85,-953.07C1229.74,-999.85 1287.88,-1124.12 1313.84,-1179.61"/>
<polygon fill="#6666ff" stroke="#6666ff" points="1310.75,-1181.25 1318.16,-1188.82 1317.09,-1178.28 1310.75,-1181.25"/>
</g>
<!-- Metamodel::ParametricRoleHOW&#45;&gt;Metamodel::MultipleInheritance -->
<g id="edge42" class="edge">
<title>Metamodel::ParametricRoleHOW&#45;&gt;Metamodel::MultipleInheritance</title>
<path fill="none" stroke="#6666ff" d="M1179.36,-952.78C1124.49,-1002.34 971.11,-1140.86 908.17,-1197.7"/>
<polygon fill="#6666ff" stroke="#6666ff" points="905.68,-1195.24 900.6,-1204.54 910.37,-1200.43 905.68,-1195.24"/>
</g>
<!-- Metamodel::ParametricRoleHOW&#45;&gt;Metamodel::RolePunning -->
<g id="edge45" class="edge">
<title>Metamodel::ParametricRoleHOW&#45;&gt;Metamodel::RolePunning</title>
<path fill="none" stroke="#6666ff" d="M1262.02,-918.54C1351.18,-895.46 1513.97,-853.32 1606.42,-829.39"/>
<polygon fill="#6666ff" stroke="#6666ff" points="1607.43,-832.74 1616.23,-826.85 1605.67,-825.96 1607.43,-832.74"/>
</g>
<!-- Metamodel::SubsetHOW -->
<g id="node29" class="node">
<title>Metamodel::SubsetHOW</title>
<g id="a_node29"><a xlink:href="/type/Metamodel::SubsetHOW" xlink:title="Metamodel::SubsetHOW">
<ellipse fill="none" stroke="#000000" cx="326.93" cy="-502.63" rx="108.58" ry="18"/>
<text text-anchor="middle" x="326.93" y="-498.93" font-family="FreeSans" font-size="14.00" fill="#000000">Metamodel::SubsetHOW</text>
</a>
</g>
</g>
<!-- Metamodel::SubsetHOW&#45;&gt;Metamodel::Documenting -->
<g id="edge47" class="edge">
<title>Metamodel::SubsetHOW&#45;&gt;Metamodel::Documenting</title>
<path fill="none" stroke="#6666ff" d="M339.83,-520.86C378.86,-576.02 495.84,-741.33 541.82,-806.32"/>
<polygon fill="#6666ff" stroke="#6666ff" points="539.19,-808.66 547.83,-814.8 544.91,-804.62 539.19,-808.66"/>
</g>
<!-- Metamodel::SubsetHOW&#45;&gt;Any -->
<g id="edge6" class="edge">
<title>Metamodel::SubsetHOW&#45;&gt;Any</title>
<path fill="none" stroke="#000000" d="M347.36,-520.51C395.64,-562.75 516.59,-668.6 568.58,-714.1"/>
<polygon fill="#000000" stroke="#000000" points="566.48,-716.91 576.31,-720.86 571.09,-711.64 566.48,-716.91"/>
</g>
<!-- Metamodel::SubsetHOW&#45;&gt;Metamodel::Naming -->
<g id="edge46" class="edge">
<title>Metamodel::SubsetHOW&#45;&gt;Metamodel::Naming</title>
<path fill="none" stroke="#6666ff" d="M350.76,-520.21C425.27,-575.17 653.85,-743.79 738.39,-806.16"/>
<polygon fill="#6666ff" stroke="#6666ff" points="736.46,-809.08 746.58,-812.2 740.61,-803.45 736.46,-809.08"/>
</g>
<!-- Metamodel::NativeHOW -->
<g id="node30" class="node">
<title>Metamodel::NativeHOW</title>
<g id="a_node30"><a xlink:href="/type/Metamodel::NativeHOW" xlink:title="Metamodel::NativeHOW">
<ellipse fill="none" stroke="#000000" cx="389.4" cy="-1013.93" rx="106.68" ry="18"/>
<text text-anchor="middle" x="389.4" y="-1010.23" font-family="FreeSans" font-size="14.00" fill="#000000">Metamodel::NativeHOW</text>
</a>
</g>
</g>
<!-- Metamodel::NativeHOW&#45;&gt;Metamodel::Documenting -->
<g id="edge49" class="edge">
<title>Metamodel::NativeHOW&#45;&gt;Metamodel::Documenting</title>
<path fill="none" stroke="#6666ff" d="M406.45,-995.92C437.1,-963.53 501.58,-895.41 536.68,-858.33"/>
<polygon fill="#6666ff" stroke="#6666ff" points="539.37,-860.58 543.7,-850.91 534.29,-855.77 539.37,-860.58"/>
</g>
<!-- Metamodel::NativeHOW&#45;&gt;Any -->
<g id="edge7" class="edge">
<title>Metamodel::NativeHOW&#45;&gt;Any</title>
<path fill="none" stroke="#000000" d="M395.23,-995.9C410.03,-950.11 447.95,-832.86 447.95,-832.86 447.95,-832.86 523.18,-782.32 565.27,-754.04"/>
<polygon fill="#000000" stroke="#000000" points="567.36,-756.86 573.71,-748.37 563.45,-751.05 567.36,-756.86"/>
</g>
<!-- Metamodel::NativeHOW&#45;&gt;Metamodel::Naming -->
<g id="edge48" class="edge">
<title>Metamodel::NativeHOW&#45;&gt;Metamodel::Naming</title>
<path fill="none" stroke="#6666ff" d="M424.55,-996.92C494.3,-963.18 650.08,-887.82 726.41,-850.89"/>
<polygon fill="#6666ff" stroke="#6666ff" points="728.27,-853.87 735.75,-846.37 725.22,-847.57 728.27,-853.87"/>
</g>
<!-- Metamodel::NativeHOW&#45;&gt;Metamodel::Stashing -->
<g id="edge51" class="edge">
<title>Metamodel::NativeHOW&#45;&gt;Metamodel::Stashing</title>
<path fill="none" stroke="#6666ff" d="M449.84,-999.05C557.03,-972.67 779.66,-917.88 891.72,-890.3"/>
<polygon fill="#6666ff" stroke="#6666ff" points="892.69,-893.66 901.56,-887.88 891.02,-886.87 892.69,-893.66"/>
</g>
<!-- Metamodel::NativeHOW&#45;&gt;Metamodel::Versioning -->
<g id="edge50" class="edge">
<title>Metamodel::NativeHOW&#45;&gt;Metamodel::Versioning</title>
<path fill="none" stroke="#6666ff" d="M496.04,-1013.19C577.29,-1012.62 688.83,-1011.85 771.16,-1011.27"/>
<polygon fill="#6666ff" stroke="#6666ff" points="771.33,-1014.77 781.31,-1011.2 771.29,-1007.77 771.33,-1014.77"/>
</g>
<!-- Metamodel::NativeHOW&#45;&gt;Metamodel::MultipleInheritance -->
<g id="edge52" class="edge">
<title>Metamodel::NativeHOW&#45;&gt;Metamodel::MultipleInheritance</title>
<path fill="none" stroke="#6666ff" d="M429.18,-1030.82C518.17,-1068.6 733.08,-1159.86 830.81,-1201.35"/>
<polygon fill="#6666ff" stroke="#6666ff" points="829.6,-1204.64 840.18,-1205.33 832.34,-1198.2 829.6,-1204.64"/>
</g>
<!-- Metamodel::NativeHOW&#45;&gt;Metamodel::C3MRO -->
<g id="edge53" class="edge">
<title>Metamodel::NativeHOW&#45;&gt;Metamodel::C3MRO</title>
<path fill="none" stroke="#6666ff" d="M379.31,-1032.12C353.32,-1078.97 286.11,-1200.11 286.11,-1200.11 286.11,-1200.11 220.4,-1271.95 184.27,-1311.44"/>
<polygon fill="#6666ff" stroke="#6666ff" points="181.63,-1309.14 177.46,-1318.88 186.79,-1313.87 181.63,-1309.14"/>
</g>
<!-- Metamodel::NativeHOW&#45;&gt;Metamodel::MROBasedMethodDispatch -->
<g id="edge54" class="edge">
<title>Metamodel::NativeHOW&#45;&gt;Metamodel::MROBasedMethodDispatch</title>
<path fill="none" stroke="#6666ff" d="M394.18,-1032.17C412.07,-1100.39 475.13,-1340.87 496.76,-1423.35"/>
<polygon fill="#6666ff" stroke="#6666ff" points="493.38,-1424.26 499.3,-1433.04 500.15,-1422.48 493.38,-1424.26"/>
</g>
<!-- Metamodel::NativeHOW&#45;&gt;Metamodel::MROBasedTypeChecking -->
<g id="edge55" class="edge">
<title>Metamodel::NativeHOW&#45;&gt;Metamodel::MROBasedTypeChecking</title>
<path fill="none" stroke="#6666ff" d="M381.79,-1032.21C353.36,-1100.51 255.01,-1336.8 255.01,-1336.8 255.01,-1336.8 208.62,-1403.46 181.77,-1442.05"/>
<polygon fill="#6666ff" stroke="#6666ff" points="178.56,-1440.53 175.72,-1450.74 184.3,-1444.53 178.56,-1440.53"/>
</g>
<!-- Metamodel::ModuleHOW -->
<g id="node31" class="node">
<title>Metamodel::ModuleHOW</title>
<g id="a_node31"><a xlink:href="/type/Metamodel::ModuleHOW" xlink:title="Metamodel::ModuleHOW">
<ellipse fill="none" stroke="#000000" cx="971.97" cy="-495.64" rx="110.48" ry="18"/>
<text text-anchor="middle" x="971.97" y="-491.94" font-family="FreeSans" font-size="14.00" fill="#000000">Metamodel::ModuleHOW</text>
</a>
</g>
</g>
<!-- Metamodel::ModuleHOW&#45;&gt;Metamodel::Documenting -->
<g id="edge57" class="edge">
<title>Metamodel::ModuleHOW&#45;&gt;Metamodel::Documenting</title>
<path fill="none" stroke="#6666ff" d="M950.43,-513.31C882.02,-569.42 669.5,-743.73 590.58,-808.45"/>
<polygon fill="#6666ff" stroke="#6666ff" points="588.01,-806.03 582.5,-815.08 592.45,-811.45 588.01,-806.03"/>
</g>
<!-- Metamodel::ModuleHOW&#45;&gt;Any -->
<g id="edge8" class="edge">
<title>Metamodel::ModuleHOW&#45;&gt;Any</title>
<path fill="none" stroke="#000000" d="M944.41,-513.08C874.79,-557.13 692.42,-672.51 621.63,-717.3"/>
<polygon fill="#000000" stroke="#000000" points="619.37,-714.59 612.79,-722.89 623.11,-720.5 619.37,-714.59"/>
</g>
<!-- Metamodel::ModuleHOW&#45;&gt;Metamodel::Naming -->
<g id="edge56" class="edge">
<title>Metamodel::ModuleHOW&#45;&gt;Metamodel::Naming</title>
<path fill="none" stroke="#6666ff" d="M961.12,-513.6C927.74,-568.88 826.39,-736.72 786.58,-802.66"/>
<polygon fill="#6666ff" stroke="#6666ff" points="783.34,-801.25 781.16,-811.62 789.33,-804.87 783.34,-801.25"/>
</g>
<!-- Metamodel::ModuleHOW&#45;&gt;Metamodel::Stashing -->
<g id="edge59" class="edge">
<title>Metamodel::ModuleHOW&#45;&gt;Metamodel::Stashing</title>
<path fill="none" stroke="#6666ff" d="M971.36,-513.88C969.31,-574.76 962.7,-771.36 960.22,-845.25"/>
<polygon fill="#6666ff" stroke="#6666ff" points="956.71,-845.51 959.87,-855.62 963.71,-845.75 956.71,-845.51"/>
</g>
<!-- Metamodel::ModuleHOW&#45;&gt;Metamodel::TypePretense -->
<g id="edge60" class="edge">
<title>Metamodel::ModuleHOW&#45;&gt;Metamodel::TypePretense</title>
<path fill="none" stroke="#6666ff" d="M1082.37,-496.76C1135.32,-497.3 1198.95,-497.94 1253.6,-498.49"/>
<polygon fill="#6666ff" stroke="#6666ff" points="1253.66,-501.99 1263.69,-498.59 1253.73,-494.99 1253.66,-501.99"/>
</g>
<!-- Metamodel::ModuleHOW&#45;&gt;Metamodel::MethodDelegation -->
<g id="edge61" class="edge">
<title>Metamodel::ModuleHOW&#45;&gt;Metamodel::MethodDelegation</title>
<path fill="none" stroke="#6666ff" d="M974.07,-477.48C977.16,-450.69 982.59,-403.72 982.59,-403.72 982.59,-403.72 988.48,-135.21 990.43,-46.25"/>
<polygon fill="#6666ff" stroke="#6666ff" points="993.93,-46.16 990.65,-36.09 986.94,-46.01 993.93,-46.16"/>
</g>
<!-- Metamodel::ModuleHOW&#45;&gt;Metamodel::Versioning -->
<g id="edge58" class="edge">
<title>Metamodel::ModuleHOW&#45;&gt;Metamodel::Versioning</title>
<path fill="none" stroke="#6666ff" d="M966.76,-513.87C945.21,-589.36 864.08,-873.54 864.08,-873.54 864.08,-873.54 873.21,-942.23 878.54,-982.32"/>
<polygon fill="#6666ff" stroke="#6666ff" points="875.08,-982.86 879.87,-992.31 882.02,-981.94 875.08,-982.86"/>
</g>
</g>
</svg>
