<?xml version="1.0" encoding="UTF-8" standalone="no"?>
<!DOCTYPE svg PUBLIC "-//W3C//DTD SVG 1.1//EN"
 "http://www.w3.org/Graphics/SVG/1.1/DTD/svg11.dtd">
<!-- Generated by graphviz version 2.43.0 (0)
 -->
<!-- Title: raku&#45;type&#45;graph Pages: 1 -->
<svg width="2087pt" height="1828pt"
 viewBox="0.00 0.00 2087.29 1828.24" xmlns="http://www.w3.org/2000/svg" xmlns:xlink="http://www.w3.org/1999/xlink">
<g id="graph0" class="graph" transform="scale(1 1) rotate(0) translate(4 1824.24)">
<title>raku&#45;type&#45;graph</title>
<polygon fill="#ffffff" stroke="transparent" points="-4,4 -4,-1824.24 2083.29,-1824.24 2083.29,4 -4,4"/>
<!-- Metamodel::MethodContainer -->
<g id="node1" class="node">
<title>Metamodel::MethodContainer</title>
<g id="a_node1"><a xlink:href="/type/Metamodel::MethodContainer" xlink:title="Metamodel::MethodContainer">
<ellipse fill="none" stroke="#6666ff" cx="1062.21" cy="-982.3" rx="127.28" ry="18"/>
<text text-anchor="middle" x="1062.21" y="-978.6" font-family="FreeSans" font-size="14.00" fill="#6666ff">Metamodel::MethodContainer</text>
</a>
</g>
</g>
<!-- Mu -->
<g id="node2" class="node">
<title>Mu</title>
<g id="a_node2"><a xlink:href="/type/Mu" xlink:title="Mu">
<ellipse fill="none" stroke="#000000" cx="1739.05" cy="-352.67" rx="27" ry="18"/>
<text text-anchor="middle" x="1739.05" y="-348.97" font-family="FreeSans" font-size="14.00" fill="#000000">Mu</text>
</a>
</g>
</g>
<!-- Any -->
<g id="node3" class="node">
<title>Any</title>
<g id="a_node3"><a xlink:href="/type/Any" xlink:title="Any">
<ellipse fill="none" stroke="#000000" cx="1343.1" cy="-721.59" rx="27" ry="18"/>
<text text-anchor="middle" x="1343.1" y="-717.89" font-family="FreeSans" font-size="14.00" fill="#000000">Any</text>
</a>
</g>
</g>
<!-- Any&#45;&gt;Mu -->
<g id="edge1" class="edge">
<title>Any&#45;&gt;Mu</title>
<path fill="none" stroke="#000000" d="M1359.11,-706.67C1420.81,-649.19 1643.32,-441.87 1715.95,-374.2"/>
<polygon fill="#000000" stroke="#000000" points="1718.35,-376.75 1723.28,-367.37 1713.57,-371.63 1718.35,-376.75"/>
</g>
<!-- Metamodel::Naming -->
<g id="node4" class="node">
<title>Metamodel::Naming</title>
<g id="a_node4"><a xlink:href="/type/Metamodel::Naming" xlink:title="Metamodel::Naming">
<ellipse fill="none" stroke="#6666ff" cx="1083.05" cy="-1148.56" rx="90.18" ry="18"/>
<text text-anchor="middle" x="1083.05" y="-1144.86" font-family="FreeSans" font-size="14.00" fill="#6666ff">Metamodel::Naming</text>
</a>
</g>
</g>
<!-- Metamodel::Documenting -->
<g id="node5" class="node">
<title>Metamodel::Documenting</title>
<g id="a_node5"><a xlink:href="/type/Metamodel::Documenting" xlink:title="Metamodel::Documenting">
<ellipse fill="none" stroke="#6666ff" cx="806.03" cy="-1687.68" rx="111.28" ry="18"/>
<text text-anchor="middle" x="806.03" y="-1683.98" font-family="FreeSans" font-size="14.00" fill="#6666ff">Metamodel::Documenting</text>
</a>
</g>
</g>
<!-- Metamodel::Versioning -->
<g id="node6" class="node">
<title>Metamodel::Versioning</title>
<g id="a_node6"><a xlink:href="/type/Metamodel::Versioning" xlink:title="Metamodel::Versioning">
<ellipse fill="none" stroke="#6666ff" cx="965.03" cy="-1628.58" rx="100.98" ry="18"/>
<text text-anchor="middle" x="965.03" y="-1624.88" font-family="FreeSans" font-size="14.00" fill="#6666ff">Metamodel::Versioning</text>
</a>
</g>
</g>
<!-- Metamodel::Stashing -->
<g id="node7" class="node">
<title>Metamodel::Stashing</title>
<g id="a_node7"><a xlink:href="/type/Metamodel::Stashing" xlink:title="Metamodel::Stashing">
<ellipse fill="none" stroke="#6666ff" cx="758.49" cy="-1326.82" rx="93.68" ry="18"/>
<text text-anchor="middle" x="758.49" y="-1323.12" font-family="FreeSans" font-size="14.00" fill="#6666ff">Metamodel::Stashing</text>
</a>
</g>
</g>
<!-- Metamodel::AttributeContainer -->
<g id="node8" class="node">
<title>Metamodel::AttributeContainer</title>
<g id="a_node8"><a xlink:href="/type/Metamodel::AttributeContainer" xlink:title="Metamodel::AttributeContainer">
<ellipse fill="none" stroke="#6666ff" cx="1215.48" cy="-901.09" rx="129.98" ry="18"/>
<text text-anchor="middle" x="1215.48" y="-897.39" font-family="FreeSans" font-size="14.00" fill="#6666ff">Metamodel::AttributeContainer</text>
</a>
</g>
</g>
<!-- Metamodel::Finalization -->
<g id="node9" class="node">
<title>Metamodel::Finalization</title>
<g id="a_node9"><a xlink:href="/type/Metamodel::Finalization" xlink:title="Metamodel::Finalization">
<ellipse fill="none" stroke="#6666ff" cx="103.99" cy="-1056.38" rx="103.98" ry="18"/>
<text text-anchor="middle" x="103.99" y="-1052.68" font-family="FreeSans" font-size="14.00" fill="#6666ff">Metamodel::Finalization</text>
</a>
</g>
</g>
<!-- Metamodel::PrivateMethodContainer -->
<g id="node10" class="node">
<title>Metamodel::PrivateMethodContainer</title>
<g id="a_node10"><a xlink:href="/type/Metamodel::PrivateMethodContainer" xlink:title="Metamodel::PrivateMethodContainer">
<ellipse fill="none" stroke="#6666ff" cx="1408.52" cy="-974.99" rx="154.87" ry="18"/>
<text text-anchor="middle" x="1408.52" y="-971.29" font-family="FreeSans" font-size="14.00" fill="#6666ff">Metamodel::PrivateMethodContainer</text>
</a>
</g>
</g>
<!-- Metamodel::MultiMethodContainer -->
<g id="node11" class="node">
<title>Metamodel::MultiMethodContainer</title>
<g id="a_node11"><a xlink:href="/type/Metamodel::MultiMethodContainer" xlink:title="Metamodel::MultiMethodContainer">
<ellipse fill="none" stroke="#6666ff" cx="1161.84" cy="-756.84" rx="146.47" ry="18"/>
<text text-anchor="middle" x="1161.84" y="-753.14" font-family="FreeSans" font-size="14.00" fill="#6666ff">Metamodel::MultiMethodContainer</text>
</a>
</g>
</g>
<!-- Metamodel::RoleContainer -->
<g id="node12" class="node">
<title>Metamodel::RoleContainer</title>
<g id="a_node12"><a xlink:href="/type/Metamodel::RoleContainer" xlink:title="Metamodel::RoleContainer">
<ellipse fill="none" stroke="#6666ff" cx="998.54" cy="-1282.66" rx="115.88" ry="18"/>
<text text-anchor="middle" x="998.54" y="-1278.96" font-family="FreeSans" font-size="14.00" fill="#6666ff">Metamodel::RoleContainer</text>
</a>
</g>
</g>
<!-- Metamodel::MultipleInheritance -->
<g id="node13" class="node">
<title>Metamodel::MultipleInheritance</title>
<g id="a_node13"><a xlink:href="/type/Metamodel::MultipleInheritance" xlink:title="Metamodel::MultipleInheritance">
<ellipse fill="none" stroke="#6666ff" cx="1207.86" cy="-1592.37" rx="133.78" ry="18"/>
<text text-anchor="middle" x="1207.86" y="-1588.67" font-family="FreeSans" font-size="14.00" fill="#6666ff">Metamodel::MultipleInheritance</text>
</a>
</g>
</g>
<!-- Metamodel::DefaultParent -->
<g id="node14" class="node">
<title>Metamodel::DefaultParent</title>
<g id="a_node14"><a xlink:href="/type/Metamodel::DefaultParent" xlink:title="Metamodel::DefaultParent">
<ellipse fill="none" stroke="#6666ff" cx="410.69" cy="-1626.78" rx="113.18" ry="18"/>
<text text-anchor="middle" x="410.69" y="-1623.08" font-family="FreeSans" font-size="14.00" fill="#6666ff">Metamodel::DefaultParent</text>
</a>
</g>
</g>
<!-- Metamodel::C3MRO -->
<g id="node15" class="node">
<title>Metamodel::C3MRO</title>
<g id="a_node15"><a xlink:href="/type/Metamodel::C3MRO" xlink:title="Metamodel::C3MRO">
<ellipse fill="none" stroke="#6666ff" cx="266.32" cy="-1467.41" rx="92.08" ry="18"/>
<text text-anchor="middle" x="266.32" y="-1463.71" font-family="FreeSans" font-size="14.00" fill="#6666ff">Metamodel::C3MRO</text>
</a>
</g>
</g>
<!-- Metamodel::MROBasedMethodDispatch -->
<g id="node16" class="node">
<title>Metamodel::MROBasedMethodDispatch</title>
<g id="a_node16"><a xlink:href="/type/Metamodel::MROBasedMethodDispatch" xlink:title="Metamodel::MROBasedMethodDispatch">
<ellipse fill="none" stroke="#6666ff" cx="512.33" cy="-484.27" rx="169.77" ry="18"/>
<text text-anchor="middle" x="512.33" y="-480.57" font-family="FreeSans" font-size="14.00" fill="#6666ff">Metamodel::MROBasedMethodDispatch</text>
</a>
</g>
</g>
<!-- Metamodel::MROBasedTypeChecking -->
<g id="node17" class="node">
<title>Metamodel::MROBasedTypeChecking</title>
<g id="a_node17"><a xlink:href="/type/Metamodel::MROBasedTypeChecking" xlink:title="Metamodel::MROBasedTypeChecking">
<ellipse fill="none" stroke="#6666ff" cx="695.99" cy="-408.89" rx="163.27" ry="18"/>
<text text-anchor="middle" x="695.99" y="-405.19" font-family="FreeSans" font-size="14.00" fill="#6666ff">Metamodel::MROBasedTypeChecking</text>
</a>
</g>
</g>
<!-- Metamodel::Trusting -->
<g id="node18" class="node">
<title>Metamodel::Trusting</title>
<g id="a_node18"><a xlink:href="/type/Metamodel::Trusting" xlink:title="Metamodel::Trusting">
<ellipse fill="none" stroke="#6666ff" cx="167.48" cy="-1283" rx="91.78" ry="18"/>
<text text-anchor="middle" x="167.48" y="-1279.3" font-family="FreeSans" font-size="14.00" fill="#6666ff">Metamodel::Trusting</text>
</a>
</g>
</g>
<!-- Metamodel::BUILDPLAN -->
<g id="node19" class="node">
<title>Metamodel::BUILDPLAN</title>
<g id="a_node19"><a xlink:href="/type/Metamodel::BUILDPLAN" xlink:title="Metamodel::BUILDPLAN">
<ellipse fill="none" stroke="#6666ff" cx="375.25" cy="-581.78" rx="109.68" ry="18"/>
<text text-anchor="middle" x="375.25" y="-578.08" font-family="FreeSans" font-size="14.00" fill="#6666ff">Metamodel::BUILDPLAN</text>
</a>
</g>
</g>
<!-- Metamodel::Mixins -->
<g id="node20" class="node">
<title>Metamodel::Mixins</title>
<g id="a_node20"><a xlink:href="/type/Metamodel::Mixins" xlink:title="Metamodel::Mixins">
<ellipse fill="none" stroke="#6666ff" cx="337.65" cy="-896.2" rx="85.29" ry="18"/>
<text text-anchor="middle" x="337.65" y="-892.5" font-family="FreeSans" font-size="14.00" fill="#6666ff">Metamodel::Mixins</text>
</a>
</g>
</g>
<!-- Metamodel::BoolificationProtocol -->
<g id="node21" class="node">
<title>Metamodel::BoolificationProtocol</title>
<g id="a_node21"><a xlink:href="/type/Metamodel::BoolificationProtocol" xlink:title="Metamodel::BoolificationProtocol">
<ellipse fill="none" stroke="#6666ff" cx="305.78" cy="-726.53" rx="139.18" ry="18"/>
<text text-anchor="middle" x="305.78" y="-722.83" font-family="FreeSans" font-size="14.00" fill="#6666ff">Metamodel::BoolificationProtocol</text>
</a>
</g>
</g>
<!-- Metamodel::ClassHOW -->
<g id="node22" class="node">
<title>Metamodel::ClassHOW</title>
<g id="a_node22"><a xlink:href="/type/Metamodel::ClassHOW" xlink:title="Metamodel::ClassHOW">
<ellipse fill="none" stroke="#000000" cx="705.29" cy="-1058.34" rx="103.18" ry="18"/>
<text text-anchor="middle" x="705.29" y="-1054.64" font-family="FreeSans" font-size="14.00" fill="#000000">Metamodel::ClassHOW</text>
</a>
</g>
</g>
<!-- Metamodel::ClassHOW&#45;&gt;Metamodel::MethodContainer -->
<g id="edge12" class="edge">
<title>Metamodel::ClassHOW&#45;&gt;Metamodel::MethodContainer</title>
<path fill="none" stroke="#6666ff" d="M770.76,-1044.4C830.17,-1031.74 917.96,-1013.03 981.65,-999.46"/>
<polygon fill="#6666ff" stroke="#6666ff" points="982.61,-1002.84 991.66,-997.33 981.15,-995.99 982.61,-1002.84"/>
</g>
<!-- Metamodel::ClassHOW&#45;&gt;Any -->
<g id="edge2" class="edge">
<title>Metamodel::ClassHOW&#45;&gt;Any</title>
<path fill="none" stroke="#000000" d="M739.52,-1041.27C867.37,-977.5 1309.68,-756.9 1309.68,-756.9 1309.68,-756.9 1314.91,-751.37 1321.24,-744.68"/>
<polygon fill="#000000" stroke="#000000" points="1324.01,-746.85 1328.34,-737.18 1318.92,-742.04 1324.01,-746.85"/>
</g>
<!-- Metamodel::ClassHOW&#45;&gt;Metamodel::Naming -->
<g id="edge6" class="edge">
<title>Metamodel::ClassHOW&#45;&gt;Metamodel::Naming</title>
<path fill="none" stroke="#6666ff" d="M766.41,-1072.94C834.47,-1089.19 944.22,-1115.4 1014.98,-1132.3"/>
<polygon fill="#6666ff" stroke="#6666ff" points="1014.59,-1135.8 1025.13,-1134.72 1016.21,-1129 1014.59,-1135.8"/>
</g>
<!-- Metamodel::ClassHOW&#45;&gt;Metamodel::Documenting -->
<g id="edge7" class="edge">
<title>Metamodel::ClassHOW&#45;&gt;Metamodel::Documenting</title>
<path fill="none" stroke="#6666ff" d="M702.47,-1076.37C693.06,-1136.54 663.3,-1326.7 663.3,-1326.7 663.3,-1326.7 761.52,-1575.12 795,-1659.79"/>
<polygon fill="#6666ff" stroke="#6666ff" points="791.82,-1661.27 798.75,-1669.28 798.33,-1658.7 791.82,-1661.27"/>
</g>
<!-- Metamodel::ClassHOW&#45;&gt;Metamodel::Versioning -->
<g id="edge8" class="edge">
<title>Metamodel::ClassHOW&#45;&gt;Metamodel::Versioning</title>
<path fill="none" stroke="#6666ff" d="M715.26,-1076.38C748.53,-1136.6 853.68,-1326.93 853.68,-1326.93 853.68,-1326.93 927.34,-1526.46 954.84,-1600.96"/>
<polygon fill="#6666ff" stroke="#6666ff" points="951.66,-1602.44 958.4,-1610.61 958.22,-1600.02 951.66,-1602.44"/>
</g>
<!-- Metamodel::ClassHOW&#45;&gt;Metamodel::Stashing -->
<g id="edge9" class="edge">
<title>Metamodel::ClassHOW&#45;&gt;Metamodel::Stashing</title>
<path fill="none" stroke="#6666ff" d="M708.87,-1076.38C717.95,-1122.21 741.97,-1243.46 752.91,-1298.69"/>
<polygon fill="#6666ff" stroke="#6666ff" points="749.48,-1299.38 754.86,-1308.51 756.35,-1298.02 749.48,-1299.38"/>
</g>
<!-- Metamodel::ClassHOW&#45;&gt;Metamodel::AttributeContainer -->
<g id="edge10" class="edge">
<title>Metamodel::ClassHOW&#45;&gt;Metamodel::AttributeContainer</title>
<path fill="none" stroke="#6666ff" d="M752.87,-1042.26C829.42,-1016.38 971.43,-968.38 971.43,-968.38 971.43,-968.38 1074.87,-939.86 1147.06,-919.96"/>
<polygon fill="#6666ff" stroke="#6666ff" points="1148.31,-923.24 1157.02,-917.21 1146.45,-916.49 1148.31,-923.24"/>
</g>
<!-- Metamodel::ClassHOW&#45;&gt;Metamodel::Finalization -->
<g id="edge11" class="edge">
<title>Metamodel::ClassHOW&#45;&gt;Metamodel::Finalization</title>
<path fill="none" stroke="#6666ff" d="M601.93,-1058.01C495.12,-1057.66 328.85,-1057.12 218.22,-1056.75"/>
<polygon fill="#6666ff" stroke="#6666ff" points="218.03,-1053.25 208.02,-1056.72 218.01,-1060.25 218.03,-1053.25"/>
</g>
<!-- Metamodel::ClassHOW&#45;&gt;Metamodel::PrivateMethodContainer -->
<g id="edge13" class="edge">
<title>Metamodel::ClassHOW&#45;&gt;Metamodel::PrivateMethodContainer</title>
<path fill="none" stroke="#6666ff" d="M790.82,-1048.21C915.75,-1033.4 1148.62,-1005.8 1289.99,-989.04"/>
<polygon fill="#6666ff" stroke="#6666ff" points="1290.49,-992.51 1300.01,-987.85 1289.67,-985.56 1290.49,-992.51"/>
</g>
<!-- Metamodel::ClassHOW&#45;&gt;Metamodel::MultiMethodContainer -->
<g id="edge14" class="edge">
<title>Metamodel::ClassHOW&#45;&gt;Metamodel::MultiMethodContainer</title>
<path fill="none" stroke="#6666ff" d="M731.81,-1040.83C809.73,-989.37 1038.03,-838.61 1126.37,-780.27"/>
<polygon fill="#6666ff" stroke="#6666ff" points="1128.55,-783.03 1134.96,-774.59 1124.69,-777.18 1128.55,-783.03"/>
</g>
<!-- Metamodel::ClassHOW&#45;&gt;Metamodel::RoleContainer -->
<g id="edge15" class="edge">
<title>Metamodel::ClassHOW&#45;&gt;Metamodel::RoleContainer</title>
<path fill="none" stroke="#6666ff" d="M728.3,-1075.95C780.42,-1115.81 907.56,-1213.07 966.97,-1258.51"/>
<polygon fill="#6666ff" stroke="#6666ff" points="965.16,-1261.53 975.23,-1264.83 969.41,-1255.97 965.16,-1261.53"/>
</g>
<!-- Metamodel::ClassHOW&#45;&gt;Metamodel::MultipleInheritance -->
<g id="edge16" class="edge">
<title>Metamodel::ClassHOW&#45;&gt;Metamodel::MultipleInheritance</title>
<path fill="none" stroke="#6666ff" d="M719.4,-1076.31C761.15,-1129.51 881.25,-1282.52 881.25,-1282.52 881.25,-1282.52 1103.65,-1493.5 1181.41,-1567.27"/>
<polygon fill="#6666ff" stroke="#6666ff" points="1179.23,-1570.03 1188.89,-1574.37 1184.04,-1564.95 1179.23,-1570.03"/>
</g>
<!-- Metamodel::ClassHOW&#45;&gt;Metamodel::DefaultParent -->
<g id="edge17" class="edge">
<title>Metamodel::ClassHOW&#45;&gt;Metamodel::DefaultParent</title>
<path fill="none" stroke="#6666ff" d="M695.99,-1076.3C653.3,-1158.66 476.06,-1500.64 424.7,-1599.75"/>
<polygon fill="#6666ff" stroke="#6666ff" points="421.49,-1598.34 420,-1608.83 427.7,-1601.56 421.49,-1598.34"/>
</g>
<!-- Metamodel::ClassHOW&#45;&gt;Metamodel::C3MRO -->
<g id="edge18" class="edge">
<title>Metamodel::ClassHOW&#45;&gt;Metamodel::C3MRO</title>
<path fill="none" stroke="#6666ff" d="M686.15,-1076.19C616.13,-1141.43 373.83,-1367.23 292.89,-1442.66"/>
<polygon fill="#6666ff" stroke="#6666ff" points="290.5,-1440.1 285.57,-1449.48 295.27,-1445.22 290.5,-1440.1"/>
</g>
<!-- Metamodel::ClassHOW&#45;&gt;Metamodel::MROBasedMethodDispatch -->
<g id="edge19" class="edge">
<title>Metamodel::ClassHOW&#45;&gt;Metamodel::MROBasedMethodDispatch</title>
<path fill="none" stroke="#6666ff" d="M699.2,-1040.22C671.29,-957.2 555.61,-613.05 521.71,-512.17"/>
<polygon fill="#6666ff" stroke="#6666ff" points="524.92,-510.76 518.42,-502.4 518.29,-513 524.92,-510.76"/>
</g>
<!-- Metamodel::ClassHOW&#45;&gt;Metamodel::MROBasedTypeChecking -->
<g id="edge20" class="edge">
<title>Metamodel::ClassHOW&#45;&gt;Metamodel::MROBasedTypeChecking</title>
<path fill="none" stroke="#6666ff" d="M705.04,-1040.3C703.74,-950.09 697.98,-548.02 696.4,-437.23"/>
<polygon fill="#6666ff" stroke="#6666ff" points="699.9,-437.11 696.25,-427.16 692.9,-437.21 699.9,-437.11"/>
</g>
<!-- Metamodel::ClassHOW&#45;&gt;Metamodel::Trusting -->
<g id="edge21" class="edge">
<title>Metamodel::ClassHOW&#45;&gt;Metamodel::Trusting</title>
<path fill="none" stroke="#6666ff" d="M665.31,-1075.05C568.41,-1115.53 321.26,-1218.76 216.07,-1262.7"/>
<polygon fill="#6666ff" stroke="#6666ff" points="214.52,-1259.56 206.64,-1266.64 217.22,-1266.02 214.52,-1259.56"/>
</g>
<!-- Metamodel::ClassHOW&#45;&gt;Metamodel::BUILDPLAN -->
<g id="edge22" class="edge">
<title>Metamodel::ClassHOW&#45;&gt;Metamodel::BUILDPLAN</title>
<path fill="none" stroke="#6666ff" d="M692.76,-1040.24C642.27,-967.34 453.62,-694.95 393.67,-608.38"/>
<polygon fill="#6666ff" stroke="#6666ff" points="396.37,-606.13 387.79,-599.9 390.61,-610.12 396.37,-606.13"/>
</g>
<!-- Metamodel::ClassHOW&#45;&gt;Metamodel::Mixins -->
<g id="edge23" class="edge">
<title>Metamodel::ClassHOW&#45;&gt;Metamodel::Mixins</title>
<path fill="none" stroke="#6666ff" d="M666.99,-1041.45C598.96,-1011.45 457.33,-948.99 383.95,-916.62"/>
<polygon fill="#6666ff" stroke="#6666ff" points="385.06,-913.29 374.5,-912.45 382.23,-919.69 385.06,-913.29"/>
</g>
<!-- Metamodel::ClassHOW&#45;&gt;Metamodel::BoolificationProtocol -->
<g id="edge24" class="edge">
<title>Metamodel::ClassHOW&#45;&gt;Metamodel::BoolificationProtocol</title>
<path fill="none" stroke="#6666ff" d="M683.81,-1040.5C616.89,-984.92 412,-814.75 335.24,-750.99"/>
<polygon fill="#6666ff" stroke="#6666ff" points="337.3,-748.15 327.37,-744.46 332.83,-753.54 337.3,-748.15"/>
</g>
<!-- Metamodel::TypePretense -->
<g id="node23" class="node">
<title>Metamodel::TypePretense</title>
<g id="a_node23"><a xlink:href="/type/Metamodel::TypePretense" xlink:title="Metamodel::TypePretense">
<ellipse fill="none" stroke="#6666ff" cx="1743.27" cy="-1802.24" rx="114.28" ry="18"/>
<text text-anchor="middle" x="1743.27" y="-1798.54" font-family="FreeSans" font-size="14.00" fill="#6666ff">Metamodel::TypePretense</text>
</a>
</g>
</g>
<!-- Metamodel::RolePunning -->
<g id="node24" class="node">
<title>Metamodel::RolePunning</title>
<g id="a_node24"><a xlink:href="/type/Metamodel::RolePunning" xlink:title="Metamodel::RolePunning">
<ellipse fill="none" stroke="#6666ff" cx="1969.45" cy="-1419.69" rx="109.68" ry="18"/>
<text text-anchor="middle" x="1969.45" y="-1415.99" font-family="FreeSans" font-size="14.00" fill="#6666ff">Metamodel::RolePunning</text>
</a>
</g>
</g>
<!-- Metamodel::ParametricRoleHOW -->
<g id="node25" class="node">
<title>Metamodel::ParametricRoleHOW</title>
<g id="a_node25"><a xlink:href="/type/Metamodel::ParametricRoleHOW" xlink:title="Metamodel::ParametricRoleHOW">
<ellipse fill="none" stroke="#000000" cx="1400.11" cy="-1360.34" rx="141.88" ry="18"/>
<text text-anchor="middle" x="1400.11" y="-1356.64" font-family="FreeSans" font-size="14.00" fill="#000000">Metamodel::ParametricRoleHOW</text>
</a>
</g>
</g>
<!-- Metamodel::ParametricRoleHOW&#45;&gt;Metamodel::MethodContainer -->
<g id="edge28" class="edge">
<title>Metamodel::ParametricRoleHOW&#45;&gt;Metamodel::MethodContainer</title>
<path fill="none" stroke="#6666ff" d="M1384.04,-1342.36C1329.23,-1281.04 1149.49,-1079.95 1085.27,-1008.11"/>
<polygon fill="#6666ff" stroke="#6666ff" points="1087.65,-1005.51 1078.37,-1000.39 1082.43,-1010.18 1087.65,-1005.51"/>
</g>
<!-- Metamodel::ParametricRoleHOW&#45;&gt;Any -->
<g id="edge3" class="edge">
<title>Metamodel::ParametricRoleHOW&#45;&gt;Any</title>
<path fill="none" stroke="#000000" d="M1393.17,-1342.27C1363.94,-1266.08 1252.24,-974.97 1252.24,-974.97 1252.24,-974.97 1347.07,-901.19 1347.07,-901.19 1347.07,-901.19 1344.85,-800.74 1343.73,-750.09"/>
<polygon fill="#000000" stroke="#000000" points="1347.22,-749.72 1343.5,-739.8 1340.22,-749.88 1347.22,-749.72"/>
</g>
<!-- Metamodel::ParametricRoleHOW&#45;&gt;Metamodel::Naming -->
<g id="edge25" class="edge">
<title>Metamodel::ParametricRoleHOW&#45;&gt;Metamodel::Naming</title>
<path fill="none" stroke="#6666ff" d="M1373.62,-1342.65C1316.48,-1304.48 1181.64,-1214.41 1117.77,-1171.74"/>
<polygon fill="#6666ff" stroke="#6666ff" points="1119.5,-1168.69 1109.24,-1166.05 1115.61,-1174.51 1119.5,-1168.69"/>
</g>
<!-- Metamodel::ParametricRoleHOW&#45;&gt;Metamodel::Documenting -->
<g id="edge26" class="edge">
<title>Metamodel::ParametricRoleHOW&#45;&gt;Metamodel::Documenting</title>
<path fill="none" stroke="#6666ff" d="M1364.85,-1377.93C1245.29,-1437.58 862.7,-1628.45 862.7,-1628.45 862.7,-1628.45 845.94,-1645.97 830.65,-1661.95"/>
<polygon fill="#6666ff" stroke="#6666ff" points="827.72,-1659.94 823.34,-1669.59 832.78,-1664.78 827.72,-1659.94"/>
</g>
<!-- Metamodel::ParametricRoleHOW&#45;&gt;Metamodel::Versioning -->
<g id="edge27" class="edge">
<title>Metamodel::ParametricRoleHOW&#45;&gt;Metamodel::Versioning</title>
<path fill="none" stroke="#6666ff" d="M1371.23,-1378.15C1294.7,-1425.33 1086.77,-1553.52 1001.88,-1605.86"/>
<polygon fill="#6666ff" stroke="#6666ff" points="1000.02,-1602.9 993.34,-1611.12 1003.69,-1608.86 1000.02,-1602.9"/>
</g>
<!-- Metamodel::ParametricRoleHOW&#45;&gt;Metamodel::Stashing -->
<g id="edge34" class="edge">
<title>Metamodel::ParametricRoleHOW&#45;&gt;Metamodel::Stashing</title>
<path fill="none" stroke="#6666ff" d="M1268.72,-1353.48C1147.3,-1347.13 969.5,-1337.84 859.04,-1332.07"/>
<polygon fill="#6666ff" stroke="#6666ff" points="859.06,-1328.57 848.89,-1331.54 858.7,-1335.56 859.06,-1328.57"/>
</g>
<!-- Metamodel::ParametricRoleHOW&#45;&gt;Metamodel::AttributeContainer -->
<g id="edge31" class="edge">
<title>Metamodel::ParametricRoleHOW&#45;&gt;Metamodel::AttributeContainer</title>
<path fill="none" stroke="#6666ff" d="M1392.87,-1342.34C1364.53,-1271.83 1260.93,-1014.15 1226.61,-928.78"/>
<polygon fill="#6666ff" stroke="#6666ff" points="1229.85,-927.44 1222.87,-919.47 1223.35,-930.06 1229.85,-927.44"/>
</g>
<!-- Metamodel::ParametricRoleHOW&#45;&gt;Metamodel::PrivateMethodContainer -->
<g id="edge29" class="edge">
<title>Metamodel::ParametricRoleHOW&#45;&gt;Metamodel::PrivateMethodContainer</title>
<path fill="none" stroke="#6666ff" d="M1398.49,-1342.05C1394.83,-1300.68 1386.24,-1203.53 1386.24,-1203.53 1386.24,-1203.53 1399.78,-1064.71 1405.75,-1003.46"/>
<polygon fill="#6666ff" stroke="#6666ff" points="1409.25,-1003.6 1406.74,-993.31 1402.28,-1002.92 1409.25,-1003.6"/>
</g>
<!-- Metamodel::ParametricRoleHOW&#45;&gt;Metamodel::MultiMethodContainer -->
<g id="edge30" class="edge">
<title>Metamodel::ParametricRoleHOW&#45;&gt;Metamodel::MultiMethodContainer</title>
<path fill="none" stroke="#6666ff" d="M1390.17,-1342.37C1348.65,-1267.26 1191.19,-982.39 1191.19,-982.39 1191.19,-982.39 1083.89,-900.99 1083.89,-900.99 1083.89,-900.99 1124.81,-825.33 1147.35,-783.64"/>
<polygon fill="#6666ff" stroke="#6666ff" points="1150.45,-785.27 1152.13,-774.81 1144.29,-781.94 1150.45,-785.27"/>
</g>
<!-- Metamodel::ParametricRoleHOW&#45;&gt;Metamodel::RoleContainer -->
<g id="edge32" class="edge">
<title>Metamodel::ParametricRoleHOW&#45;&gt;Metamodel::RoleContainer</title>
<path fill="none" stroke="#6666ff" d="M1322.21,-1345.27C1252.97,-1331.88 1152.05,-1312.36 1081.36,-1298.68"/>
<polygon fill="#6666ff" stroke="#6666ff" points="1081.64,-1295.17 1071.16,-1296.71 1080.31,-1302.04 1081.64,-1295.17"/>
</g>
<!-- Metamodel::ParametricRoleHOW&#45;&gt;Metamodel::MultipleInheritance -->
<g id="edge33" class="edge">
<title>Metamodel::ParametricRoleHOW&#45;&gt;Metamodel::MultipleInheritance</title>
<path fill="none" stroke="#6666ff" d="M1385.02,-1378.55C1351.12,-1419.47 1268.8,-1518.82 1229.48,-1566.28"/>
<polygon fill="#6666ff" stroke="#6666ff" points="1226.56,-1564.31 1222.88,-1574.25 1231.95,-1568.78 1226.56,-1564.31"/>
</g>
<!-- Metamodel::ParametricRoleHOW&#45;&gt;Metamodel::TypePretense -->
<g id="edge35" class="edge">
<title>Metamodel::ParametricRoleHOW&#45;&gt;Metamodel::TypePretense</title>
<path fill="none" stroke="#6666ff" d="M1414.2,-1378.49C1467.87,-1447.59 1659.61,-1694.5 1722.86,-1775.96"/>
<polygon fill="#6666ff" stroke="#6666ff" points="1720.36,-1778.43 1729.25,-1784.19 1725.88,-1774.14 1720.36,-1778.43"/>
</g>
<!-- Metamodel::ParametricRoleHOW&#45;&gt;Metamodel::RolePunning -->
<g id="edge36" class="edge">
<title>Metamodel::ParametricRoleHOW&#45;&gt;Metamodel::RolePunning</title>
<path fill="none" stroke="#6666ff" d="M1509.88,-1371.78C1612.82,-1382.52 1765.57,-1398.44 1866.3,-1408.94"/>
<polygon fill="#6666ff" stroke="#6666ff" points="1866.18,-1412.45 1876.49,-1410 1866.91,-1405.48 1866.18,-1412.45"/>
</g>
<!-- Metamodel::BaseType -->
<g id="node26" class="node">
<title>Metamodel::BaseType</title>
<g id="a_node26"><a xlink:href="/type/Metamodel::BaseType" xlink:title="Metamodel::BaseType">
<ellipse fill="none" stroke="#6666ff" cx="965.53" cy="-18" rx="99.38" ry="18"/>
<text text-anchor="middle" x="965.53" y="-14.3" font-family="FreeSans" font-size="14.00" fill="#6666ff">Metamodel::BaseType</text>
</a>
</g>
</g>
<!-- Metamodel::EnumHOW -->
<g id="node27" class="node">
<title>Metamodel::EnumHOW</title>
<g id="a_node27"><a xlink:href="/type/Metamodel::EnumHOW" xlink:title="Metamodel::EnumHOW">
<ellipse fill="none" stroke="#000000" cx="845.16" cy="-654.28" rx="104.78" ry="18"/>
<text text-anchor="middle" x="845.16" y="-650.58" font-family="FreeSans" font-size="14.00" fill="#000000">Metamodel::EnumHOW</text>
</a>
</g>
</g>
<!-- Metamodel::EnumHOW&#45;&gt;Metamodel::MethodContainer -->
<g id="edge40" class="edge">
<title>Metamodel::EnumHOW&#45;&gt;Metamodel::MethodContainer</title>
<path fill="none" stroke="#6666ff" d="M857.14,-672.38C893.38,-727.15 1001.99,-891.3 1044.69,-955.83"/>
<polygon fill="#6666ff" stroke="#6666ff" points="1041.83,-957.84 1050.26,-964.25 1047.67,-953.98 1041.83,-957.84"/>
</g>
<!-- Metamodel::EnumHOW&#45;&gt;Any -->
<g id="edge4" class="edge">
<title>Metamodel::EnumHOW&#45;&gt;Any</title>
<path fill="none" stroke="#000000" d="M927.67,-665.43C1037.57,-680.29 1227.34,-705.94 1306.63,-716.66"/>
<polygon fill="#000000" stroke="#000000" points="1306.25,-720.14 1316.62,-718.01 1307.18,-713.21 1306.25,-720.14"/>
</g>
<!-- Metamodel::EnumHOW&#45;&gt;Metamodel::Naming -->
<g id="edge37" class="edge">
<title>Metamodel::EnumHOW&#45;&gt;Metamodel::Naming</title>
<path fill="none" stroke="#6666ff" d="M850.02,-672.38C868.48,-741.12 933.22,-982.21 933.22,-982.21 933.22,-982.21 1018.24,-1076.6 1060.19,-1123.18"/>
<polygon fill="#6666ff" stroke="#6666ff" points="1057.72,-1125.67 1067.02,-1130.75 1062.93,-1120.98 1057.72,-1125.67"/>
</g>
<!-- Metamodel::EnumHOW&#45;&gt;Metamodel::Stashing -->
<g id="edge38" class="edge">
<title>Metamodel::EnumHOW&#45;&gt;Metamodel::Stashing</title>
<path fill="none" stroke="#6666ff" d="M843.6,-672.43C836.8,-751.08 810.23,-1058.46 810.23,-1058.46 810.23,-1058.46 777.19,-1229.8 763.92,-1298.66"/>
<polygon fill="#6666ff" stroke="#6666ff" points="760.42,-1298.31 761.96,-1308.79 767.29,-1299.63 760.42,-1298.31"/>
</g>
<!-- Metamodel::EnumHOW&#45;&gt;Metamodel::AttributeContainer -->
<g id="edge39" class="edge">
<title>Metamodel::EnumHOW&#45;&gt;Metamodel::AttributeContainer</title>
<path fill="none" stroke="#6666ff" d="M871.5,-671.83C936.92,-715.43 1106.84,-828.69 1180.54,-877.8"/>
<polygon fill="#6666ff" stroke="#6666ff" points="1178.77,-880.83 1189.03,-883.47 1182.65,-875.01 1178.77,-880.83"/>
</g>
<!-- Metamodel::EnumHOW&#45;&gt;Metamodel::MultiMethodContainer -->
<g id="edge41" class="edge">
<title>Metamodel::EnumHOW&#45;&gt;Metamodel::MultiMethodContainer</title>
<path fill="none" stroke="#6666ff" d="M894.3,-670.19C949.67,-688.13 1039.8,-717.32 1099.94,-736.79"/>
<polygon fill="#6666ff" stroke="#6666ff" points="1099.1,-740.2 1109.69,-739.95 1101.26,-733.54 1099.1,-740.2"/>
</g>
<!-- Metamodel::EnumHOW&#45;&gt;Metamodel::RoleContainer -->
<g id="edge42" class="edge">
<title>Metamodel::EnumHOW&#45;&gt;Metamodel::RoleContainer</title>
<path fill="none" stroke="#6666ff" d="M849.59,-672.41C871.17,-760.82 965.4,-1146.89 991.7,-1254.64"/>
<polygon fill="#6666ff" stroke="#6666ff" points="988.33,-1255.57 994.1,-1264.46 995.13,-1253.91 988.33,-1255.57"/>
</g>
<!-- Metamodel::EnumHOW&#45;&gt;Metamodel::MROBasedMethodDispatch -->
<g id="edge44" class="edge">
<title>Metamodel::EnumHOW&#45;&gt;Metamodel::MROBasedMethodDispatch</title>
<path fill="none" stroke="#6666ff" d="M811.73,-637.2C751.27,-606.32 623.8,-541.21 556.34,-506.75"/>
<polygon fill="#6666ff" stroke="#6666ff" points="557.74,-503.53 547.24,-502.1 554.55,-509.77 557.74,-503.53"/>
</g>
<!-- Metamodel::EnumHOW&#45;&gt;Metamodel::MROBasedTypeChecking -->
<g id="edge45" class="edge">
<title>Metamodel::EnumHOW&#45;&gt;Metamodel::MROBasedTypeChecking</title>
<path fill="none" stroke="#6666ff" d="M834.2,-636.23C808.23,-593.51 742.87,-486 712.27,-435.66"/>
<polygon fill="#6666ff" stroke="#6666ff" points="715.16,-433.69 706.98,-426.96 709.18,-437.32 715.16,-433.69"/>
</g>
<!-- Metamodel::EnumHOW&#45;&gt;Metamodel::BUILDPLAN -->
<g id="edge46" class="edge">
<title>Metamodel::EnumHOW&#45;&gt;Metamodel::BUILDPLAN</title>
<path fill="none" stroke="#6666ff" d="M767.04,-642.23C683.99,-629.41 552.82,-609.18 465.43,-595.7"/>
<polygon fill="#6666ff" stroke="#6666ff" points="465.94,-592.23 455.53,-594.17 464.88,-599.15 465.94,-592.23"/>
</g>
<!-- Metamodel::EnumHOW&#45;&gt;Metamodel::Mixins -->
<g id="edge48" class="edge">
<title>Metamodel::EnumHOW&#45;&gt;Metamodel::Mixins</title>
<path fill="none" stroke="#6666ff" d="M809.48,-671.29C718.88,-714.48 480.17,-828.26 381.4,-875.34"/>
<polygon fill="#6666ff" stroke="#6666ff" points="379.81,-872.23 372.29,-879.69 382.82,-878.54 379.81,-872.23"/>
</g>
<!-- Metamodel::EnumHOW&#45;&gt;Metamodel::BoolificationProtocol -->
<g id="edge47" class="edge">
<title>Metamodel::EnumHOW&#45;&gt;Metamodel::BoolificationProtocol</title>
<path fill="none" stroke="#6666ff" d="M762.36,-665.37C668.62,-677.93 515.62,-698.42 412.87,-712.19"/>
<polygon fill="#6666ff" stroke="#6666ff" points="412.22,-708.74 402.77,-713.54 413.15,-715.68 412.22,-708.74"/>
</g>
<!-- Metamodel::EnumHOW&#45;&gt;Metamodel::BaseType -->
<g id="edge43" class="edge">
<title>Metamodel::EnumHOW&#45;&gt;Metamodel::BaseType</title>
<path fill="none" stroke="#6666ff" d="M848.57,-636.26C865.4,-547.3 939.64,-154.89 960.22,-46.07"/>
<polygon fill="#6666ff" stroke="#6666ff" points="963.68,-46.64 962.1,-36.16 956.8,-45.34 963.68,-46.64"/>
</g>
<!-- Metamodel::ConcreteRoleHOW -->
<g id="node28" class="node">
<title>Metamodel::ConcreteRoleHOW</title>
<g id="a_node28"><a xlink:href="/type/Metamodel::ConcreteRoleHOW" xlink:title="Metamodel::ConcreteRoleHOW">
<ellipse fill="none" stroke="#000000" cx="1523.02" cy="-1203.69" rx="135.38" ry="18"/>
<text text-anchor="middle" x="1523.02" y="-1199.99" font-family="FreeSans" font-size="14.00" fill="#000000">Metamodel::ConcreteRoleHOW</text>
</a>
</g>
</g>
<!-- Metamodel::ConcreteRoleHOW&#45;&gt;Metamodel::MethodContainer -->
<g id="edge52" class="edge">
<title>Metamodel::ConcreteRoleHOW&#45;&gt;Metamodel::MethodContainer</title>
<path fill="none" stroke="#6666ff" d="M1486.86,-1186.31C1403.67,-1146.34 1198.82,-1047.93 1107.46,-1004.04"/>
<polygon fill="#6666ff" stroke="#6666ff" points="1108.73,-1000.77 1098.2,-999.59 1105.7,-1007.08 1108.73,-1000.77"/>
</g>
<!-- Metamodel::ConcreteRoleHOW&#45;&gt;Any -->
<g id="edge5" class="edge">
<title>Metamodel::ConcreteRoleHOW&#45;&gt;Any</title>
<path fill="none" stroke="#000000" d="M1526.37,-1185.36C1536.29,-1131.09 1564.81,-975.01 1564.81,-975.01 1564.81,-975.01 1418.9,-808.24 1363.81,-745.27"/>
<polygon fill="#000000" stroke="#000000" points="1366.18,-742.67 1356.96,-737.44 1360.92,-747.28 1366.18,-742.67"/>
</g>
<!-- Metamodel::ConcreteRoleHOW&#45;&gt;Metamodel::Naming -->
<g id="edge49" class="edge">
<title>Metamodel::ConcreteRoleHOW&#45;&gt;Metamodel::Naming</title>
<path fill="none" stroke="#6666ff" d="M1424.56,-1191.35C1348.11,-1181.77 1243.13,-1168.61 1169.81,-1159.43"/>
<polygon fill="#6666ff" stroke="#6666ff" points="1170.04,-1155.93 1159.68,-1158.16 1169.17,-1162.87 1170.04,-1155.93"/>
</g>
<!-- Metamodel::ConcreteRoleHOW&#45;&gt;Metamodel::Versioning -->
<g id="edge50" class="edge">
<title>Metamodel::ConcreteRoleHOW&#45;&gt;Metamodel::Versioning</title>
<path fill="none" stroke="#6666ff" d="M1493,-1221.35C1423.39,-1262.3 1256.82,-1360.29 1256.82,-1360.29 1256.82,-1360.29 1064.34,-1537.27 992.04,-1603.74"/>
<polygon fill="#6666ff" stroke="#6666ff" points="989.62,-1601.21 984.63,-1610.56 994.36,-1606.36 989.62,-1601.21"/>
</g>
<!-- Metamodel::ConcreteRoleHOW&#45;&gt;Metamodel::AttributeContainer -->
<g id="edge54" class="edge">
<title>Metamodel::ConcreteRoleHOW&#45;&gt;Metamodel::AttributeContainer</title>
<path fill="none" stroke="#6666ff" d="M1501.78,-1185.74C1437.94,-1131.82 1252.24,-974.97 1252.24,-974.97 1252.24,-974.97 1239.5,-949.37 1229.02,-928.31"/>
<polygon fill="#6666ff" stroke="#6666ff" points="1232.15,-926.75 1224.57,-919.36 1225.89,-929.87 1232.15,-926.75"/>
</g>
<!-- Metamodel::ConcreteRoleHOW&#45;&gt;Metamodel::PrivateMethodContainer -->
<g id="edge51" class="edge">
<title>Metamodel::ConcreteRoleHOW&#45;&gt;Metamodel::PrivateMethodContainer</title>
<path fill="none" stroke="#6666ff" d="M1513.85,-1185.36C1493.74,-1145.2 1445.71,-1049.27 1422.1,-1002.11"/>
<polygon fill="#6666ff" stroke="#6666ff" points="1425.19,-1000.47 1417.59,-993.09 1418.93,-1003.6 1425.19,-1000.47"/>
</g>
<!-- Metamodel::ConcreteRoleHOW&#45;&gt;Metamodel::MultiMethodContainer -->
<g id="edge53" class="edge">
<title>Metamodel::ConcreteRoleHOW&#45;&gt;Metamodel::MultiMethodContainer</title>
<path fill="none" stroke="#6666ff" d="M1526.37,-1185.36C1536.29,-1131.09 1564.81,-975.01 1564.81,-975.01 1564.81,-975.01 1306.25,-835.03 1203.36,-779.32"/>
<polygon fill="#6666ff" stroke="#6666ff" points="1204.94,-776.2 1194.48,-774.51 1201.6,-782.35 1204.94,-776.2"/>
</g>
<!-- Metamodel::ConcreteRoleHOW&#45;&gt;Metamodel::RoleContainer -->
<g id="edge55" class="edge">
<title>Metamodel::ConcreteRoleHOW&#45;&gt;Metamodel::RoleContainer</title>
<path fill="none" stroke="#6666ff" d="M1433.46,-1217.17C1338.23,-1231.51 1188.32,-1254.08 1091.73,-1268.63"/>
<polygon fill="#6666ff" stroke="#6666ff" points="1091.05,-1265.19 1081.68,-1270.14 1092.09,-1272.11 1091.05,-1265.19"/>
</g>
<!-- Metamodel::ConcreteRoleHOW&#45;&gt;Metamodel::MultipleInheritance -->
<g id="edge56" class="edge">
<title>Metamodel::ConcreteRoleHOW&#45;&gt;Metamodel::MultipleInheritance</title>
<path fill="none" stroke="#6666ff" d="M1493,-1221.35C1423.39,-1262.3 1256.82,-1360.29 1256.82,-1360.29 1256.82,-1360.29 1226.82,-1502.52 1213.79,-1564.29"/>
<polygon fill="#6666ff" stroke="#6666ff" points="1210.34,-1563.65 1211.7,-1574.16 1217.19,-1565.1 1210.34,-1563.65"/>
</g>
</g>
</svg>
