<?xml version="1.0" encoding="UTF-8" standalone="no"?>
<!DOCTYPE svg PUBLIC "-//W3C//DTD SVG 1.1//EN"
 "http://www.w3.org/Graphics/SVG/1.1/DTD/svg11.dtd">
<!-- Generated by graphviz version 2.43.0 (0)
 -->
<!-- Title: raku&#45;type&#45;graph Pages: 1 -->
<svg width="1045pt" height="404pt"
 viewBox="0.00 0.00 1044.54 404.00" xmlns="http://www.w3.org/2000/svg" xmlns:xlink="http://www.w3.org/1999/xlink">
<g id="graph0" class="graph" transform="scale(1 1) rotate(0) translate(4 400)">
<title>raku&#45;type&#45;graph</title>
<polygon fill="#ffffff" stroke="transparent" points="-4,4 -4,-400 1040.54,-400 1040.54,4 -4,4"/>
<!-- Numeric -->
<g id="node1" class="node">
<title>Numeric</title>
<g id="a_node1"><a xlink:href="/type/Numeric" xlink:title="Numeric">
<ellipse fill="none" stroke="#6666ff" cx="619" cy="-306" rx="44.39" ry="18"/>
<text text-anchor="middle" x="619" y="-302.3" font-family="FreeSans" font-size="14.00" fill="#6666ff">Numeric</text>
</a>
</g>
</g>
<!-- Real -->
<g id="node2" class="node">
<title>Real</title>
<g id="a_node2"><a xlink:href="/type/Real" xlink:title="Real">
<ellipse fill="none" stroke="#6666ff" cx="558" cy="-234" rx="28.7" ry="18"/>
<text text-anchor="middle" x="558" y="-230.3" font-family="FreeSans" font-size="14.00" fill="#6666ff">Real</text>
</a>
</g>
</g>
<!-- Real&#45;&gt;Numeric -->
<g id="edge25" class="edge">
<title>Real&#45;&gt;Numeric</title>
<path fill="none" stroke="#6666ff" d="M571.24,-250.19C579.09,-259.2 589.22,-270.82 598.13,-281.05"/>
<polygon fill="#6666ff" stroke="#6666ff" points="595.73,-283.63 604.94,-288.87 601.01,-279.03 595.73,-283.63"/>
</g>
<!-- Mu -->
<g id="node3" class="node">
<title>Mu</title>
<g id="a_node3"><a xlink:href="/type/Mu" xlink:title="Mu">
<ellipse fill="none" stroke="#000000" cx="765" cy="-378" rx="27" ry="18"/>
<text text-anchor="middle" x="765" y="-374.3" font-family="FreeSans" font-size="14.00" fill="#000000">Mu</text>
</a>
</g>
</g>
<!-- Any -->
<g id="node4" class="node">
<title>Any</title>
<g id="a_node4"><a xlink:href="/type/Any" xlink:title="Any">
<ellipse fill="none" stroke="#000000" cx="765" cy="-306" rx="27" ry="18"/>
<text text-anchor="middle" x="765" y="-302.3" font-family="FreeSans" font-size="14.00" fill="#000000">Any</text>
</a>
</g>
</g>
<!-- Any&#45;&gt;Mu -->
<g id="edge1" class="edge">
<title>Any&#45;&gt;Mu</title>
<path fill="none" stroke="#000000" d="M765,-324.3C765,-332.02 765,-341.29 765,-349.89"/>
<polygon fill="#000000" stroke="#000000" points="761.5,-349.9 765,-359.9 768.5,-349.9 761.5,-349.9"/>
</g>
<!-- Cool -->
<g id="node5" class="node">
<title>Cool</title>
<g id="a_node5"><a xlink:href="/type/Cool" xlink:title="Cool">
<ellipse fill="none" stroke="#000000" cx="765" cy="-234" rx="28.7" ry="18"/>
<text text-anchor="middle" x="765" y="-230.3" font-family="FreeSans" font-size="14.00" fill="#000000">Cool</text>
</a>
</g>
</g>
<!-- Cool&#45;&gt;Any -->
<g id="edge2" class="edge">
<title>Cool&#45;&gt;Any</title>
<path fill="none" stroke="#000000" d="M765,-252.3C765,-260.02 765,-269.29 765,-277.89"/>
<polygon fill="#000000" stroke="#000000" points="761.5,-277.9 765,-287.9 768.5,-277.9 761.5,-277.9"/>
</g>
<!-- Complex -->
<g id="node6" class="node">
<title>Complex</title>
<g id="a_node6"><a xlink:href="/type/Complex" xlink:title="Complex">
<ellipse fill="none" stroke="#000000" cx="981" cy="-162" rx="45.49" ry="18"/>
<text text-anchor="middle" x="981" y="-158.3" font-family="FreeSans" font-size="14.00" fill="#000000">Complex</text>
</a>
</g>
</g>
<!-- Complex&#45;&gt;Numeric -->
<g id="edge26" class="edge">
<title>Complex&#45;&gt;Numeric</title>
<path fill="none" stroke="#6666ff" d="M972.91,-179.74C960.46,-205.52 938,-252 938,-252 938,-252 758.83,-281.77 669.05,-296.69"/>
<polygon fill="#6666ff" stroke="#6666ff" points="668.37,-293.25 659.08,-298.34 669.52,-300.15 668.37,-293.25"/>
</g>
<!-- Complex&#45;&gt;Cool -->
<g id="edge3" class="edge">
<title>Complex&#45;&gt;Cool</title>
<path fill="none" stroke="#000000" d="M946.77,-174.09C906.53,-187.13 840.1,-208.66 799.66,-221.77"/>
<polygon fill="#000000" stroke="#000000" points="798.41,-218.49 789.97,-224.91 800.57,-225.15 798.41,-218.49"/>
</g>
<!-- Stringy -->
<g id="node7" class="node">
<title>Stringy</title>
<g id="a_node7"><a xlink:href="/type/Stringy" xlink:title="Stringy">
<ellipse fill="none" stroke="#6666ff" cx="891" cy="-234" rx="38.19" ry="18"/>
<text text-anchor="middle" x="891" y="-230.3" font-family="FreeSans" font-size="14.00" fill="#6666ff">Stringy</text>
</a>
</g>
</g>
<!-- Str -->
<g id="node8" class="node">
<title>Str</title>
<g id="a_node8"><a xlink:href="/type/Str" xlink:title="Str">
<ellipse fill="none" stroke="#000000" cx="891" cy="-162" rx="27" ry="18"/>
<text text-anchor="middle" x="891" y="-158.3" font-family="FreeSans" font-size="14.00" fill="#000000">Str</text>
</a>
</g>
</g>
<!-- Str&#45;&gt;Cool -->
<g id="edge4" class="edge">
<title>Str&#45;&gt;Cool</title>
<path fill="none" stroke="#000000" d="M870.76,-174.25C850.24,-185.64 818.28,-203.4 794.86,-216.41"/>
<polygon fill="#000000" stroke="#000000" points="793.08,-213.4 786.03,-221.31 796.48,-219.52 793.08,-213.4"/>
</g>
<!-- Str&#45;&gt;Stringy -->
<g id="edge27" class="edge">
<title>Str&#45;&gt;Stringy</title>
<path fill="none" stroke="#6666ff" d="M891,-180.3C891,-188.02 891,-197.29 891,-205.89"/>
<polygon fill="#6666ff" stroke="#6666ff" points="887.5,-205.9 891,-215.9 894.5,-205.9 887.5,-205.9"/>
</g>
<!-- Allomorph -->
<g id="node9" class="node">
<title>Allomorph</title>
<g id="a_node9"><a xlink:href="/type/Allomorph" xlink:title="Allomorph">
<ellipse fill="none" stroke="#000000" cx="941" cy="-90" rx="50.09" ry="18"/>
<text text-anchor="middle" x="941" y="-86.3" font-family="FreeSans" font-size="14.00" fill="#000000">Allomorph</text>
</a>
</g>
</g>
<!-- Allomorph&#45;&gt;Str -->
<g id="edge5" class="edge">
<title>Allomorph&#45;&gt;Str</title>
<path fill="none" stroke="#000000" d="M929.15,-107.59C922.81,-116.47 914.89,-127.56 907.91,-137.33"/>
<polygon fill="#000000" stroke="#000000" points="905.04,-135.32 902.08,-145.49 910.74,-139.39 905.04,-135.32"/>
</g>
<!-- ComplexStr -->
<g id="node10" class="node">
<title>ComplexStr</title>
<g id="a_node10"><a xlink:href="/type/ComplexStr" xlink:title="ComplexStr">
<ellipse fill="none" stroke="#000000" cx="980" cy="-18" rx="56.59" ry="18"/>
<text text-anchor="middle" x="980" y="-14.3" font-family="FreeSans" font-size="14.00" fill="#000000">ComplexStr</text>
</a>
</g>
</g>
<!-- ComplexStr&#45;&gt;Complex -->
<g id="edge7" class="edge">
<title>ComplexStr&#45;&gt;Complex</title>
<path fill="none" stroke="#000000" d="M986.44,-36.06C992.28,-51.55 1000,-72 1000,-72 1000,-72 1000,-108 1000,-108 1000,-108 995.25,-121.24 990.51,-134.48"/>
<polygon fill="#000000" stroke="#000000" points="987.2,-133.34 987.12,-143.94 993.79,-135.71 987.2,-133.34"/>
</g>
<!-- ComplexStr&#45;&gt;Allomorph -->
<g id="edge6" class="edge">
<title>ComplexStr&#45;&gt;Allomorph</title>
<path fill="none" stroke="#000000" d="M970.56,-35.95C965.96,-44.2 960.33,-54.3 955.23,-63.46"/>
<polygon fill="#000000" stroke="#000000" points="952.16,-61.77 950.35,-72.21 958.28,-65.18 952.16,-61.77"/>
</g>
<!-- Rational -->
<g id="node11" class="node">
<title>Rational</title>
<g id="a_node11"><a xlink:href="/type/Rational" xlink:title="Rational">
<ellipse fill="none" stroke="#6666ff" cx="529" cy="-162" rx="42.79" ry="18"/>
<text text-anchor="middle" x="529" y="-158.3" font-family="FreeSans" font-size="14.00" fill="#6666ff">Rational</text>
</a>
</g>
</g>
<!-- Rational&#45;&gt;Real -->
<g id="edge28" class="edge">
<title>Rational&#45;&gt;Real</title>
<path fill="none" stroke="#6666ff" d="M536.02,-179.95C539.37,-188.03 543.45,-197.88 547.18,-206.89"/>
<polygon fill="#6666ff" stroke="#6666ff" points="543.98,-208.31 551.04,-216.21 550.45,-205.63 543.98,-208.31"/>
</g>
<!-- Int -->
<g id="node12" class="node">
<title>Int</title>
<g id="a_node12"><a xlink:href="/type/Int" xlink:title="Int">
<ellipse fill="none" stroke="#000000" cx="441" cy="-162" rx="27" ry="18"/>
<text text-anchor="middle" x="441" y="-158.3" font-family="FreeSans" font-size="14.00" fill="#000000">Int</text>
</a>
</g>
</g>
<!-- Int&#45;&gt;Real -->
<g id="edge29" class="edge">
<title>Int&#45;&gt;Real</title>
<path fill="none" stroke="#6666ff" d="M460.58,-174.72C479.37,-185.95 507.95,-203.05 529.3,-215.83"/>
<polygon fill="#6666ff" stroke="#6666ff" points="527.58,-218.88 537.96,-221.01 531.18,-212.87 527.58,-218.88"/>
</g>
<!-- Int&#45;&gt;Cool -->
<g id="edge8" class="edge">
<title>Int&#45;&gt;Cool</title>
<path fill="none" stroke="#000000" d="M462.36,-173.09C470.11,-176.75 477,-180 477,-180 477,-180 650.3,-211.89 728.04,-226.2"/>
<polygon fill="#000000" stroke="#000000" points="727.44,-229.65 737.91,-228.01 728.7,-222.76 727.44,-229.65"/>
</g>
<!-- Instant -->
<g id="node13" class="node">
<title>Instant</title>
<g id="a_node13"><a xlink:href="/type/Instant" xlink:title="Instant">
<ellipse fill="none" stroke="#000000" cx="733" cy="-162" rx="37.09" ry="18"/>
<text text-anchor="middle" x="733" y="-158.3" font-family="FreeSans" font-size="14.00" fill="#000000">Instant</text>
</a>
</g>
</g>
<!-- Instant&#45;&gt;Real -->
<g id="edge30" class="edge">
<title>Instant&#45;&gt;Real</title>
<path fill="none" stroke="#6666ff" d="M705.27,-174.09C674.26,-186.49 624.08,-206.57 591.06,-219.78"/>
<polygon fill="#6666ff" stroke="#6666ff" points="589.38,-216.68 581.4,-223.64 591.98,-223.18 589.38,-216.68"/>
</g>
<!-- Instant&#45;&gt;Cool -->
<g id="edge9" class="edge">
<title>Instant&#45;&gt;Cool</title>
<path fill="none" stroke="#000000" d="M740.75,-179.95C744.44,-188.03 748.94,-197.88 753.06,-206.89"/>
<polygon fill="#000000" stroke="#000000" points="749.98,-208.57 757.33,-216.21 756.35,-205.66 749.98,-208.57"/>
</g>
<!-- Duration -->
<g id="node14" class="node">
<title>Duration</title>
<g id="a_node14"><a xlink:href="/type/Duration" xlink:title="Duration">
<ellipse fill="none" stroke="#000000" cx="634" cy="-162" rx="44.39" ry="18"/>
<text text-anchor="middle" x="634" y="-158.3" font-family="FreeSans" font-size="14.00" fill="#000000">Duration</text>
</a>
</g>
</g>
<!-- Duration&#45;&gt;Real -->
<g id="edge31" class="edge">
<title>Duration&#45;&gt;Real</title>
<path fill="none" stroke="#6666ff" d="M616.75,-178.88C606.22,-188.59 592.62,-201.11 581.16,-211.67"/>
<polygon fill="#6666ff" stroke="#6666ff" points="578.61,-209.26 573.63,-218.61 583.35,-214.41 578.61,-209.26"/>
</g>
<!-- Duration&#45;&gt;Cool -->
<g id="edge10" class="edge">
<title>Duration&#45;&gt;Cool</title>
<path fill="none" stroke="#000000" d="M659.88,-176.83C681.51,-188.39 712.37,-204.87 735.06,-217"/>
<polygon fill="#000000" stroke="#000000" points="733.45,-220.11 743.92,-221.74 736.75,-213.94 733.45,-220.11"/>
</g>
<!-- Num -->
<g id="node15" class="node">
<title>Num</title>
<g id="a_node15"><a xlink:href="/type/Num" xlink:title="Num">
<ellipse fill="none" stroke="#000000" cx="366" cy="-162" rx="29.8" ry="18"/>
<text text-anchor="middle" x="366" y="-158.3" font-family="FreeSans" font-size="14.00" fill="#000000">Num</text>
</a>
</g>
</g>
<!-- Num&#45;&gt;Real -->
<g id="edge32" class="edge">
<title>Num&#45;&gt;Real</title>
<path fill="none" stroke="#6666ff" d="M389.59,-173.28C397.8,-176.86 405,-180 405,-180 405,-180 478.61,-205.5 523.72,-221.12"/>
<polygon fill="#6666ff" stroke="#6666ff" points="522.82,-224.52 533.42,-224.48 525.11,-217.9 522.82,-224.52"/>
</g>
<!-- Num&#45;&gt;Cool -->
<g id="edge11" class="edge">
<title>Num&#45;&gt;Cool</title>
<path fill="none" stroke="#000000" d="M389.59,-173.28C397.8,-176.86 405,-180 405,-180 405,-180 634.98,-213.86 727.31,-227.45"/>
<polygon fill="#000000" stroke="#000000" points="726.95,-230.94 737.35,-228.93 727.97,-224.01 726.95,-230.94"/>
</g>
<!-- PromiseStatus -->
<g id="node16" class="node">
<title>PromiseStatus</title>
<g id="a_node16"><a xlink:href="/type/PromiseStatus" xlink:title="PromiseStatus">
<ellipse fill="none" stroke="#33bb33" cx="641" cy="-90" rx="67.69" ry="18"/>
<text text-anchor="middle" x="641" y="-86.3" font-family="FreeSans" font-size="14.00" fill="#33bb33">PromiseStatus</text>
</a>
</g>
</g>
<!-- PromiseStatus&#45;&gt;Int -->
<g id="edge12" class="edge">
<title>PromiseStatus&#45;&gt;Int</title>
<path fill="none" stroke="#000000" d="M599.62,-104.37C551.03,-120.07 477,-144 477,-144 477,-144 474.82,-145.03 471.53,-146.58"/>
<polygon fill="#000000" stroke="#000000" points="469.91,-143.48 462.36,-150.91 472.89,-149.81 469.91,-143.48"/>
</g>
<!-- Signal -->
<g id="node17" class="node">
<title>Signal</title>
<g id="a_node17"><a xlink:href="/type/Signal" xlink:title="Signal">
<ellipse fill="none" stroke="#33bb33" cx="44" cy="-90" rx="35.19" ry="18"/>
<text text-anchor="middle" x="44" y="-86.3" font-family="FreeSans" font-size="14.00" fill="#33bb33">Signal</text>
</a>
</g>
</g>
<!-- Signal&#45;&gt;Int -->
<g id="edge13" class="edge">
<title>Signal&#45;&gt;Int</title>
<path fill="none" stroke="#000000" d="M71.11,-101.48C80.17,-104.97 88,-108 88,-108 88,-108 405,-144 405,-144 405,-144 407.18,-145.03 410.47,-146.58"/>
<polygon fill="#000000" stroke="#000000" points="409.11,-149.81 419.64,-150.91 412.09,-143.48 409.11,-149.81"/>
</g>
<!-- Bool -->
<g id="node18" class="node">
<title>Bool</title>
<g id="a_node18"><a xlink:href="/type/Bool" xlink:title="Bool">
<ellipse fill="none" stroke="#33bb33" cx="126" cy="-90" rx="28.7" ry="18"/>
<text text-anchor="middle" x="126" y="-86.3" font-family="FreeSans" font-size="14.00" fill="#33bb33">Bool</text>
</a>
</g>
</g>
<!-- Bool&#45;&gt;Int -->
<g id="edge14" class="edge">
<title>Bool&#45;&gt;Int</title>
<path fill="none" stroke="#000000" d="M148.54,-101.09C156.73,-104.75 164,-108 164,-108 164,-108 405,-144 405,-144 405,-144 407.18,-145.03 410.47,-146.58"/>
<polygon fill="#000000" stroke="#000000" points="409.11,-149.81 419.64,-150.91 412.09,-143.48 409.11,-149.81"/>
</g>
<!-- atomicint -->
<g id="node19" class="node">
<title>atomicint</title>
<g id="a_node19"><a xlink:href="/type/atomicint" xlink:title="atomicint">
<ellipse fill="none" stroke="#000000" cx="219" cy="-90" rx="46.29" ry="18"/>
<text text-anchor="middle" x="219" y="-86.3" font-family="FreeSans" font-size="14.00" fill="#000000">atomicint</text>
</a>
</g>
</g>
<!-- atomicint&#45;&gt;Int -->
<g id="edge15" class="edge">
<title>atomicint&#45;&gt;Int</title>
<path fill="none" stroke="#000000" d="M254.14,-101.86C264.92,-105.19 274,-108 274,-108 274,-108 405,-144 405,-144 405,-144 407.18,-145.03 410.47,-146.58"/>
<polygon fill="#000000" stroke="#000000" points="409.11,-149.81 419.64,-150.91 412.09,-143.48 409.11,-149.81"/>
</g>
<!-- IntStr -->
<g id="node20" class="node">
<title>IntStr</title>
<g id="a_node20"><a xlink:href="/type/IntStr" xlink:title="IntStr">
<ellipse fill="none" stroke="#000000" cx="709" cy="-18" rx="31.7" ry="18"/>
<text text-anchor="middle" x="709" y="-14.3" font-family="FreeSans" font-size="14.00" fill="#000000">IntStr</text>
</a>
</g>
</g>
<!-- IntStr&#45;&gt;Allomorph -->
<g id="edge16" class="edge">
<title>IntStr&#45;&gt;Allomorph</title>
<path fill="none" stroke="#000000" d="M736.52,-27.3C775.41,-39.04 846.95,-60.62 894.25,-74.89"/>
<polygon fill="#000000" stroke="#000000" points="893.37,-78.29 903.96,-77.82 895.39,-71.58 893.37,-78.29"/>
</g>
<!-- IntStr&#45;&gt;Int -->
<g id="edge17" class="edge">
<title>IntStr&#45;&gt;Int</title>
<path fill="none" stroke="#000000" d="M683.08,-28.48C641.37,-43.72 564,-72 564,-72 564,-72 526,-108 526,-108 526,-108 493.77,-128.1 469,-143.54"/>
<polygon fill="#000000" stroke="#000000" points="466.92,-140.71 460.29,-148.97 470.63,-146.65 466.92,-140.71"/>
</g>
<!-- Order -->
<g id="node21" class="node">
<title>Order</title>
<g id="a_node21"><a xlink:href="/type/Order" xlink:title="Order">
<ellipse fill="none" stroke="#33bb33" cx="317" cy="-90" rx="33.6" ry="18"/>
<text text-anchor="middle" x="317" y="-86.3" font-family="FreeSans" font-size="14.00" fill="#33bb33">Order</text>
</a>
</g>
</g>
<!-- Order&#45;&gt;Int -->
<g id="edge18" class="edge">
<title>Order&#45;&gt;Int</title>
<path fill="none" stroke="#000000" d="M339.46,-103.68C359.73,-115.12 389.69,-132.03 411.81,-144.52"/>
<polygon fill="#000000" stroke="#000000" points="410.34,-147.71 420.76,-149.58 413.78,-141.61 410.34,-147.71"/>
</g>
<!-- Endian -->
<g id="node22" class="node">
<title>Endian</title>
<g id="a_node22"><a xlink:href="/type/Endian" xlink:title="Endian">
<ellipse fill="none" stroke="#33bb33" cx="407" cy="-90" rx="38.19" ry="18"/>
<text text-anchor="middle" x="407" y="-86.3" font-family="FreeSans" font-size="14.00" fill="#33bb33">Endian</text>
</a>
</g>
</g>
<!-- Endian&#45;&gt;Int -->
<g id="edge19" class="edge">
<title>Endian&#45;&gt;Int</title>
<path fill="none" stroke="#000000" d="M415.23,-107.95C419.26,-116.23 424.19,-126.38 428.65,-135.58"/>
<polygon fill="#000000" stroke="#000000" points="425.56,-137.23 433.08,-144.69 431.86,-134.17 425.56,-137.23"/>
</g>
<!-- int -->
<g id="node23" class="node">
<title>int</title>
<g id="a_node23"><a xlink:href="/type/int" xlink:title="int">
<ellipse fill="none" stroke="#000000" cx="490" cy="-90" rx="27" ry="18"/>
<text text-anchor="middle" x="490" y="-86.3" font-family="FreeSans" font-size="14.00" fill="#000000">int</text>
</a>
</g>
</g>
<!-- int&#45;&gt;Int -->
<g id="edge20" class="edge">
<title>int&#45;&gt;Int</title>
<path fill="none" stroke="#000000" d="M479.13,-106.54C472.84,-115.51 464.81,-126.98 457.74,-137.08"/>
<polygon fill="#000000" stroke="#000000" points="454.71,-135.31 451.84,-145.51 460.45,-139.32 454.71,-135.31"/>
</g>
<!-- NumStr -->
<g id="node24" class="node">
<title>NumStr</title>
<g id="a_node24"><a xlink:href="/type/NumStr" xlink:title="NumStr">
<ellipse fill="none" stroke="#000000" cx="382" cy="-18" rx="40.89" ry="18"/>
<text text-anchor="middle" x="382" y="-14.3" font-family="FreeSans" font-size="14.00" fill="#000000">NumStr</text>
</a>
</g>
</g>
<!-- NumStr&#45;&gt;Allomorph -->
<g id="edge21" class="edge">
<title>NumStr&#45;&gt;Allomorph</title>
<path fill="none" stroke="#000000" d="M421.23,-23.16C539.1,-35.65 882,-72 882,-72 882,-72 886.6,-73.33 893.24,-75.24"/>
<polygon fill="#000000" stroke="#000000" points="892.72,-78.73 903.3,-78.14 894.66,-72.01 892.72,-78.73"/>
</g>
<!-- NumStr&#45;&gt;Num -->
<g id="edge22" class="edge">
<title>NumStr&#45;&gt;Num</title>
<path fill="none" stroke="#000000" d="M343.62,-24.32C246.75,-37.76 0,-72 0,-72 0,-72 0,-108 0,-108 0,-108 233.19,-141.77 327.3,-155.4"/>
<polygon fill="#000000" stroke="#000000" points="326.88,-158.87 337.28,-156.84 327.89,-151.94 326.88,-158.87"/>
</g>
<!-- FatRat -->
<g id="node25" class="node">
<title>FatRat</title>
<g id="a_node25"><a xlink:href="/type/FatRat" xlink:title="FatRat">
<ellipse fill="none" stroke="#000000" cx="836" cy="-90" rx="37.09" ry="18"/>
<text text-anchor="middle" x="836" y="-86.3" font-family="FreeSans" font-size="14.00" fill="#000000">FatRat</text>
</a>
</g>
</g>
<!-- FatRat&#45;&gt;Cool -->
<g id="edge23" class="edge">
<title>FatRat&#45;&gt;Cool</title>
<path fill="none" stroke="#000000" d="M827.91,-107.74C815.46,-133.52 793,-180 793,-180 793,-180 785.6,-194.01 778.41,-207.63"/>
<polygon fill="#000000" stroke="#000000" points="775.13,-206.33 773.55,-216.81 781.32,-209.6 775.13,-206.33"/>
</g>
<!-- FatRat&#45;&gt;Rational -->
<g id="edge33" class="edge">
<title>FatRat&#45;&gt;Rational</title>
<path fill="none" stroke="#6666ff" d="M807.39,-101.57C798.04,-105.03 790,-108 790,-108 790,-108 581,-144 581,-144 581,-144 577.23,-145.23 571.73,-147.03"/>
<polygon fill="#6666ff" stroke="#6666ff" points="570.35,-143.8 561.93,-150.23 572.52,-150.45 570.35,-143.8"/>
</g>
<!-- Rat -->
<g id="node26" class="node">
<title>Rat</title>
<g id="a_node26"><a xlink:href="/type/Rat" xlink:title="Rat">
<ellipse fill="none" stroke="#000000" cx="754" cy="-90" rx="27" ry="18"/>
<text text-anchor="middle" x="754" y="-86.3" font-family="FreeSans" font-size="14.00" fill="#000000">Rat</text>
</a>
</g>
</g>
<!-- Rat&#45;&gt;Cool -->
<g id="edge24" class="edge">
<title>Rat&#45;&gt;Cool</title>
<path fill="none" stroke="#000000" d="M761.77,-107.48C769.11,-123.04 779,-144 779,-144 779,-144 779,-180 779,-180 779,-180 775.57,-192.98 772.11,-206.1"/>
<polygon fill="#000000" stroke="#000000" points="768.68,-205.38 769.51,-215.94 775.44,-207.16 768.68,-205.38"/>
</g>
<!-- Rat&#45;&gt;Rational -->
<g id="edge34" class="edge">
<title>Rat&#45;&gt;Rational</title>
<path fill="none" stroke="#6666ff" d="M732.64,-101.09C724.89,-104.75 718,-108 718,-108 718,-108 581,-144 581,-144 581,-144 577.23,-145.23 571.73,-147.03"/>
<polygon fill="#6666ff" stroke="#6666ff" points="570.35,-143.8 561.93,-150.23 572.52,-150.45 570.35,-143.8"/>
</g>
</g>
</svg>
