<?xml version="1.0" encoding="UTF-8" standalone="no"?>
<!DOCTYPE svg PUBLIC "-//W3C//DTD SVG 1.1//EN"
 "http://www.w3.org/Graphics/SVG/1.1/DTD/svg11.dtd">
<!-- Generated by graphviz version 2.43.0 (0)
 -->
<!-- Title: raku&#45;type&#45;graph Pages: 1 -->
<svg width="1112pt" height="404pt"
 viewBox="0.00 0.00 1111.64 404.00" xmlns="http://www.w3.org/2000/svg" xmlns:xlink="http://www.w3.org/1999/xlink">
<g id="graph0" class="graph" transform="scale(1 1) rotate(0) translate(4 400)">
<title>raku&#45;type&#45;graph</title>
<polygon fill="#ffffff" stroke="transparent" points="-4,4 -4,-400 1107.64,-400 1107.64,4 -4,4"/>
<!-- Numeric -->
<g id="node1" class="node">
<title>Numeric</title>
<g id="a_node1"><a xlink:href="/type/Numeric" xlink:title="Numeric">
<ellipse fill="none" stroke="#6666ff" cx="1005.15" cy="-306" rx="44.39" ry="18"/>
<text text-anchor="middle" x="1005.15" y="-302.3" font-family="FreeSans" font-size="14.00" fill="#6666ff">Numeric</text>
</a>
</g>
</g>
<!-- Real -->
<g id="node2" class="node">
<title>Real</title>
<g id="a_node2"><a xlink:href="/type/Real" xlink:title="Real">
<ellipse fill="none" stroke="#6666ff" cx="653.15" cy="-234" rx="28.7" ry="18"/>
<text text-anchor="middle" x="653.15" y="-230.3" font-family="FreeSans" font-size="14.00" fill="#6666ff">Real</text>
</a>
</g>
</g>
<!-- Real&#45;&gt;Numeric -->
<g id="edge25" class="edge">
<title>Real&#45;&gt;Numeric</title>
<path fill="none" stroke="#6666ff" d="M680.18,-240.38C739.3,-252.13 880.79,-280.27 956.07,-295.24"/>
<polygon fill="#6666ff" stroke="#6666ff" points="955.75,-298.75 966.24,-297.26 957.12,-291.88 955.75,-298.75"/>
</g>
<!-- Mu -->
<g id="node3" class="node">
<title>Mu</title>
<g id="a_node3"><a xlink:href="/type/Mu" xlink:title="Mu">
<ellipse fill="none" stroke="#000000" cx="839.15" cy="-378" rx="27" ry="18"/>
<text text-anchor="middle" x="839.15" y="-374.3" font-family="FreeSans" font-size="14.00" fill="#000000">Mu</text>
</a>
</g>
</g>
<!-- Any -->
<g id="node4" class="node">
<title>Any</title>
<g id="a_node4"><a xlink:href="/type/Any" xlink:title="Any">
<ellipse fill="none" stroke="#000000" cx="839.15" cy="-306" rx="27" ry="18"/>
<text text-anchor="middle" x="839.15" y="-302.3" font-family="FreeSans" font-size="14.00" fill="#000000">Any</text>
</a>
</g>
</g>
<!-- Any&#45;&gt;Mu -->
<g id="edge1" class="edge">
<title>Any&#45;&gt;Mu</title>
<path fill="none" stroke="#000000" d="M839.15,-324.3C839.15,-332.02 839.15,-341.29 839.15,-349.89"/>
<polygon fill="#000000" stroke="#000000" points="835.65,-349.9 839.15,-359.9 842.65,-349.9 835.65,-349.9"/>
</g>
<!-- Cool -->
<g id="node5" class="node">
<title>Cool</title>
<g id="a_node5"><a xlink:href="/type/Cool" xlink:title="Cool">
<ellipse fill="none" stroke="#000000" cx="839.15" cy="-234" rx="28.7" ry="18"/>
<text text-anchor="middle" x="839.15" y="-230.3" font-family="FreeSans" font-size="14.00" fill="#000000">Cool</text>
</a>
</g>
</g>
<!-- Cool&#45;&gt;Any -->
<g id="edge2" class="edge">
<title>Cool&#45;&gt;Any</title>
<path fill="none" stroke="#000000" d="M839.15,-252.3C839.15,-260.02 839.15,-269.29 839.15,-277.89"/>
<polygon fill="#000000" stroke="#000000" points="835.65,-277.9 839.15,-287.9 842.65,-277.9 835.65,-277.9"/>
</g>
<!-- Complex -->
<g id="node6" class="node">
<title>Complex</title>
<g id="a_node6"><a xlink:href="/type/Complex" xlink:title="Complex">
<ellipse fill="none" stroke="#000000" cx="1058.15" cy="-162" rx="45.49" ry="18"/>
<text text-anchor="middle" x="1058.15" y="-158.3" font-family="FreeSans" font-size="14.00" fill="#000000">Complex</text>
</a>
</g>
</g>
<!-- Complex&#45;&gt;Numeric -->
<g id="edge26" class="edge">
<title>Complex&#45;&gt;Numeric</title>
<path fill="none" stroke="#6666ff" d="M1051.86,-179.85C1042.73,-204.29 1025.74,-249.83 1014.96,-278.71"/>
<polygon fill="#6666ff" stroke="#6666ff" points="1011.64,-277.58 1011.43,-288.18 1018.2,-280.03 1011.64,-277.58"/>
</g>
<!-- Complex&#45;&gt;Cool -->
<g id="edge3" class="edge">
<title>Complex&#45;&gt;Cool</title>
<path fill="none" stroke="#000000" d="M1023.93,-173.94C983.03,-187.01 914.97,-208.76 873.86,-221.9"/>
<polygon fill="#000000" stroke="#000000" points="872.73,-218.59 864.27,-224.97 874.86,-225.26 872.73,-218.59"/>
</g>
<!-- Stringy -->
<g id="node7" class="node">
<title>Stringy</title>
<g id="a_node7"><a xlink:href="/type/Stringy" xlink:title="Stringy">
<ellipse fill="none" stroke="#6666ff" cx="968.15" cy="-234" rx="38.19" ry="18"/>
<text text-anchor="middle" x="968.15" y="-230.3" font-family="FreeSans" font-size="14.00" fill="#6666ff">Stringy</text>
</a>
</g>
</g>
<!-- Str -->
<g id="node8" class="node">
<title>Str</title>
<g id="a_node8"><a xlink:href="/type/Str" xlink:title="Str">
<ellipse fill="none" stroke="#000000" cx="968.15" cy="-162" rx="27" ry="18"/>
<text text-anchor="middle" x="968.15" y="-158.3" font-family="FreeSans" font-size="14.00" fill="#000000">Str</text>
</a>
</g>
</g>
<!-- Str&#45;&gt;Cool -->
<g id="edge4" class="edge">
<title>Str&#45;&gt;Cool</title>
<path fill="none" stroke="#000000" d="M947.71,-174.09C926.63,-185.53 893.54,-203.48 869.43,-216.57"/>
<polygon fill="#000000" stroke="#000000" points="867.47,-213.65 860.35,-221.49 870.81,-219.8 867.47,-213.65"/>
</g>
<!-- Str&#45;&gt;Stringy -->
<g id="edge27" class="edge">
<title>Str&#45;&gt;Stringy</title>
<path fill="none" stroke="#6666ff" d="M968.15,-180.3C968.15,-188.02 968.15,-197.29 968.15,-205.89"/>
<polygon fill="#6666ff" stroke="#6666ff" points="964.65,-205.9 968.15,-215.9 971.65,-205.9 964.65,-205.9"/>
</g>
<!-- Allomorph -->
<g id="node9" class="node">
<title>Allomorph</title>
<g id="a_node9"><a xlink:href="/type/Allomorph" xlink:title="Allomorph">
<ellipse fill="none" stroke="#000000" cx="968.15" cy="-90" rx="50.09" ry="18"/>
<text text-anchor="middle" x="968.15" y="-86.3" font-family="FreeSans" font-size="14.00" fill="#000000">Allomorph</text>
</a>
</g>
</g>
<!-- Allomorph&#45;&gt;Str -->
<g id="edge5" class="edge">
<title>Allomorph&#45;&gt;Str</title>
<path fill="none" stroke="#000000" d="M968.15,-108.3C968.15,-116.02 968.15,-125.29 968.15,-133.89"/>
<polygon fill="#000000" stroke="#000000" points="964.65,-133.9 968.15,-143.9 971.65,-133.9 964.65,-133.9"/>
</g>
<!-- ComplexStr -->
<g id="node10" class="node">
<title>ComplexStr</title>
<g id="a_node10"><a xlink:href="/type/ComplexStr" xlink:title="ComplexStr">
<ellipse fill="none" stroke="#000000" cx="1010.15" cy="-18" rx="56.59" ry="18"/>
<text text-anchor="middle" x="1010.15" y="-14.3" font-family="FreeSans" font-size="14.00" fill="#000000">ComplexStr</text>
</a>
</g>
</g>
<!-- ComplexStr&#45;&gt;Complex -->
<g id="edge7" class="edge">
<title>ComplexStr&#45;&gt;Complex</title>
<path fill="none" stroke="#000000" d="M1015.94,-36.13C1024.15,-60.44 1039.28,-105.18 1049.01,-133.99"/>
<polygon fill="#000000" stroke="#000000" points="1045.82,-135.46 1052.34,-143.81 1052.45,-133.22 1045.82,-135.46"/>
</g>
<!-- ComplexStr&#45;&gt;Allomorph -->
<g id="edge6" class="edge">
<title>ComplexStr&#45;&gt;Allomorph</title>
<path fill="none" stroke="#000000" d="M999.98,-35.95C995.03,-44.2 988.97,-54.3 983.47,-63.46"/>
<polygon fill="#000000" stroke="#000000" points="980.36,-61.84 978.22,-72.21 986.37,-65.44 980.36,-61.84"/>
</g>
<!-- Duration -->
<g id="node11" class="node">
<title>Duration</title>
<g id="a_node11"><a xlink:href="/type/Duration" xlink:title="Duration">
<ellipse fill="none" stroke="#000000" cx="803.15" cy="-162" rx="44.39" ry="18"/>
<text text-anchor="middle" x="803.15" y="-158.3" font-family="FreeSans" font-size="14.00" fill="#000000">Duration</text>
</a>
</g>
</g>
<!-- Duration&#45;&gt;Real -->
<g id="edge28" class="edge">
<title>Duration&#45;&gt;Real</title>
<path fill="none" stroke="#6666ff" d="M775.28,-176C749.63,-187.98 711.6,-205.72 684.8,-218.23"/>
<polygon fill="#6666ff" stroke="#6666ff" points="683.07,-215.18 675.48,-222.58 686.03,-221.52 683.07,-215.18"/>
</g>
<!-- Duration&#45;&gt;Cool -->
<g id="edge8" class="edge">
<title>Duration&#45;&gt;Cool</title>
<path fill="none" stroke="#000000" d="M811.86,-179.95C816.12,-188.23 821.34,-198.38 826.07,-207.58"/>
<polygon fill="#000000" stroke="#000000" points="823.07,-209.4 830.76,-216.69 829.3,-206.2 823.07,-209.4"/>
</g>
<!-- Rational -->
<g id="node12" class="node">
<title>Rational</title>
<g id="a_node12"><a xlink:href="/type/Rational" xlink:title="Rational">
<ellipse fill="none" stroke="#6666ff" cx="698.15" cy="-162" rx="42.79" ry="18"/>
<text text-anchor="middle" x="698.15" y="-158.3" font-family="FreeSans" font-size="14.00" fill="#6666ff">Rational</text>
</a>
</g>
</g>
<!-- Rational&#45;&gt;Real -->
<g id="edge29" class="edge">
<title>Rational&#45;&gt;Real</title>
<path fill="none" stroke="#6666ff" d="M687.48,-179.59C681.97,-188.17 675.13,-198.81 669,-208.33"/>
<polygon fill="#6666ff" stroke="#6666ff" points="665.89,-206.71 663.42,-217.01 671.78,-210.49 665.89,-206.71"/>
</g>
<!-- Num -->
<g id="node13" class="node">
<title>Num</title>
<g id="a_node13"><a xlink:href="/type/Num" xlink:title="Num">
<ellipse fill="none" stroke="#000000" cx="607.15" cy="-162" rx="29.8" ry="18"/>
<text text-anchor="middle" x="607.15" y="-158.3" font-family="FreeSans" font-size="14.00" fill="#000000">Num</text>
</a>
</g>
</g>
<!-- Num&#45;&gt;Real -->
<g id="edge30" class="edge">
<title>Num&#45;&gt;Real</title>
<path fill="none" stroke="#6666ff" d="M617.58,-178.88C623.35,-187.66 630.63,-198.74 637.1,-208.58"/>
<polygon fill="#6666ff" stroke="#6666ff" points="634.33,-210.74 642.75,-217.18 640.18,-206.9 634.33,-210.74"/>
</g>
<!-- Num&#45;&gt;Cool -->
<g id="edge9" class="edge">
<title>Num&#45;&gt;Cool</title>
<path fill="none" stroke="#000000" d="M630.73,-173.28C638.95,-176.86 646.15,-180 646.15,-180 646.15,-180 747.95,-207.96 803.68,-223.26"/>
<polygon fill="#000000" stroke="#000000" points="802.95,-226.69 813.52,-225.96 804.8,-219.94 802.95,-226.69"/>
</g>
<!-- Int -->
<g id="node14" class="node">
<title>Int</title>
<g id="a_node14"><a xlink:href="/type/Int" xlink:title="Int">
<ellipse fill="none" stroke="#000000" cx="440.15" cy="-162" rx="27" ry="18"/>
<text text-anchor="middle" x="440.15" y="-158.3" font-family="FreeSans" font-size="14.00" fill="#000000">Int</text>
</a>
</g>
</g>
<!-- Int&#45;&gt;Real -->
<g id="edge31" class="edge">
<title>Int&#45;&gt;Real</title>
<path fill="none" stroke="#6666ff" d="M461.5,-173.09C469.26,-176.75 476.15,-180 476.15,-180 476.15,-180 566.41,-207.03 618.02,-222.48"/>
<polygon fill="#6666ff" stroke="#6666ff" points="617.2,-225.89 627.79,-225.41 619.21,-219.18 617.2,-225.89"/>
</g>
<!-- Int&#45;&gt;Cool -->
<g id="edge10" class="edge">
<title>Int&#45;&gt;Cool</title>
<path fill="none" stroke="#000000" d="M461.5,-173.09C469.26,-176.75 476.15,-180 476.15,-180 476.15,-180 708.59,-213.94 801.47,-227.5"/>
<polygon fill="#000000" stroke="#000000" points="801.16,-230.99 811.56,-228.97 802.17,-224.06 801.16,-230.99"/>
</g>
<!-- Instant -->
<g id="node15" class="node">
<title>Instant</title>
<g id="a_node15"><a xlink:href="/type/Instant" xlink:title="Instant">
<ellipse fill="none" stroke="#000000" cx="522.15" cy="-162" rx="37.09" ry="18"/>
<text text-anchor="middle" x="522.15" y="-158.3" font-family="FreeSans" font-size="14.00" fill="#000000">Instant</text>
</a>
</g>
</g>
<!-- Instant&#45;&gt;Real -->
<g id="edge32" class="edge">
<title>Instant&#45;&gt;Real</title>
<path fill="none" stroke="#6666ff" d="M546.17,-175.84C567.73,-187.36 599.46,-204.31 622.77,-216.77"/>
<polygon fill="#6666ff" stroke="#6666ff" points="621.4,-220.01 631.87,-221.63 624.7,-213.83 621.4,-220.01"/>
</g>
<!-- Instant&#45;&gt;Cool -->
<g id="edge11" class="edge">
<title>Instant&#45;&gt;Cool</title>
<path fill="none" stroke="#000000" d="M550.76,-173.57C560.11,-177.03 568.15,-180 568.15,-180 568.15,-180 728.21,-211.3 802.31,-225.8"/>
<polygon fill="#000000" stroke="#000000" points="801.68,-229.24 812.17,-227.72 803.03,-222.37 801.68,-229.24"/>
</g>
<!-- NumStr -->
<g id="node16" class="node">
<title>NumStr</title>
<g id="a_node16"><a xlink:href="/type/NumStr" xlink:title="NumStr">
<ellipse fill="none" stroke="#000000" cx="810.15" cy="-18" rx="40.89" ry="18"/>
<text text-anchor="middle" x="810.15" y="-14.3" font-family="FreeSans" font-size="14.00" fill="#000000">NumStr</text>
</a>
</g>
</g>
<!-- NumStr&#45;&gt;Allomorph -->
<g id="edge12" class="edge">
<title>NumStr&#45;&gt;Allomorph</title>
<path fill="none" stroke="#000000" d="M838.03,-31.35C863.18,-42.5 900.45,-59.01 928.66,-71.51"/>
<polygon fill="#000000" stroke="#000000" points="927.29,-74.73 937.85,-75.58 930.12,-68.33 927.29,-74.73"/>
</g>
<!-- NumStr&#45;&gt;Num -->
<g id="edge13" class="edge">
<title>NumStr&#45;&gt;Num</title>
<path fill="none" stroke="#000000" d="M791.35,-34.33C772.15,-49.98 745.15,-72 745.15,-72 745.15,-72 707.15,-108 707.15,-108 707.15,-108 667.34,-129.1 637.95,-144.67"/>
<polygon fill="#000000" stroke="#000000" points="636.04,-141.72 628.84,-149.5 639.32,-147.91 636.04,-141.72"/>
</g>
<!-- int -->
<g id="node17" class="node">
<title>int</title>
<g id="a_node17"><a xlink:href="/type/int" xlink:title="int">
<ellipse fill="none" stroke="#000000" cx="671.15" cy="-90" rx="27" ry="18"/>
<text text-anchor="middle" x="671.15" y="-86.3" font-family="FreeSans" font-size="14.00" fill="#000000">int</text>
</a>
</g>
</g>
<!-- int&#45;&gt;Int -->
<g id="edge14" class="edge">
<title>int&#45;&gt;Int</title>
<path fill="none" stroke="#000000" d="M648.73,-100.3C639.15,-104.26 630.15,-108 630.15,-108 630.15,-108 476.15,-144 476.15,-144 476.15,-144 473.97,-145.03 470.68,-146.58"/>
<polygon fill="#000000" stroke="#000000" points="469.05,-143.48 461.5,-150.91 472.04,-149.81 469.05,-143.48"/>
</g>
<!-- IntStr -->
<g id="node18" class="node">
<title>IntStr</title>
<g id="a_node18"><a xlink:href="/type/IntStr" xlink:title="IntStr">
<ellipse fill="none" stroke="#000000" cx="710.15" cy="-18" rx="31.7" ry="18"/>
<text text-anchor="middle" x="710.15" y="-14.3" font-family="FreeSans" font-size="14.00" fill="#000000">IntStr</text>
</a>
</g>
</g>
<!-- IntStr&#45;&gt;Allomorph -->
<g id="edge15" class="edge">
<title>IntStr&#45;&gt;Allomorph</title>
<path fill="none" stroke="#000000" d="M736.9,-28.1C748.79,-32.14 760.15,-36 760.15,-36 760.15,-36 909.15,-72 909.15,-72 909.15,-72 913.75,-73.33 920.38,-75.24"/>
<polygon fill="#000000" stroke="#000000" points="919.87,-78.73 930.45,-78.14 921.81,-72.01 919.87,-78.73"/>
</g>
<!-- IntStr&#45;&gt;Int -->
<g id="edge16" class="edge">
<title>IntStr&#45;&gt;Int</title>
<path fill="none" stroke="#000000" d="M690.83,-32.65C668.61,-48.35 635.15,-72 635.15,-72 635.15,-72 597.15,-108 597.15,-108 597.15,-108 476.15,-144 476.15,-144 476.15,-144 473.97,-145.03 470.68,-146.58"/>
<polygon fill="#000000" stroke="#000000" points="469.05,-143.48 461.5,-150.91 472.04,-149.81 469.05,-143.48"/>
</g>
<!-- atomicint -->
<g id="node19" class="node">
<title>atomicint</title>
<g id="a_node19"><a xlink:href="/type/atomicint" xlink:title="atomicint">
<ellipse fill="none" stroke="#000000" cx="46.15" cy="-90" rx="46.29" ry="18"/>
<text text-anchor="middle" x="46.15" y="-86.3" font-family="FreeSans" font-size="14.00" fill="#000000">atomicint</text>
</a>
</g>
</g>
<!-- atomicint&#45;&gt;Int -->
<g id="edge17" class="edge">
<title>atomicint&#45;&gt;Int</title>
<path fill="none" stroke="#000000" d="M81.29,-101.86C92.07,-105.19 101.15,-108 101.15,-108 101.15,-108 316.83,-141.72 404.12,-155.37"/>
<polygon fill="#000000" stroke="#000000" points="403.69,-158.84 414.11,-156.93 404.77,-151.93 403.69,-158.84"/>
</g>
<!-- Endian -->
<g id="node20" class="node">
<title>Endian</title>
<g id="a_node20"><a xlink:href="/type/Endian" xlink:title="Endian">
<ellipse fill="none" stroke="#33bb33" cx="148.15" cy="-90" rx="38.19" ry="18"/>
<text text-anchor="middle" x="148.15" y="-86.3" font-family="FreeSans" font-size="14.00" fill="#33bb33">Endian</text>
</a>
</g>
</g>
<!-- Endian&#45;&gt;Int -->
<g id="edge18" class="edge">
<title>Endian&#45;&gt;Int</title>
<path fill="none" stroke="#000000" d="M177.64,-101.67C187.09,-105.09 195.15,-108 195.15,-108 195.15,-108 337.28,-138.75 405.03,-153.4"/>
<polygon fill="#000000" stroke="#000000" points="404.34,-156.83 414.85,-155.53 405.82,-149.99 404.34,-156.83"/>
</g>
<!-- Signal -->
<g id="node21" class="node">
<title>Signal</title>
<g id="a_node21"><a xlink:href="/type/Signal" xlink:title="Signal">
<ellipse fill="none" stroke="#33bb33" cx="239.15" cy="-90" rx="35.19" ry="18"/>
<text text-anchor="middle" x="239.15" y="-86.3" font-family="FreeSans" font-size="14.00" fill="#33bb33">Signal</text>
</a>
</g>
</g>
<!-- Signal&#45;&gt;Int -->
<g id="edge19" class="edge">
<title>Signal&#45;&gt;Int</title>
<path fill="none" stroke="#000000" d="M266.26,-101.48C275.31,-104.97 283.15,-108 283.15,-108 283.15,-108 361,-134.28 407.06,-149.83"/>
<polygon fill="#000000" stroke="#000000" points="406.05,-153.18 416.64,-153.07 408.29,-146.55 406.05,-153.18"/>
</g>
<!-- Order -->
<g id="node22" class="node">
<title>Order</title>
<g id="a_node22"><a xlink:href="/type/Order" xlink:title="Order">
<ellipse fill="none" stroke="#33bb33" cx="326.15" cy="-90" rx="33.6" ry="18"/>
<text text-anchor="middle" x="326.15" y="-86.3" font-family="FreeSans" font-size="14.00" fill="#33bb33">Order</text>
</a>
</g>
</g>
<!-- Order&#45;&gt;Int -->
<g id="edge20" class="edge">
<title>Order&#45;&gt;Int</title>
<path fill="none" stroke="#000000" d="M347.59,-104.17C365.82,-115.36 392.14,-131.52 412.05,-143.75"/>
<polygon fill="#000000" stroke="#000000" points="410.35,-146.81 420.7,-149.06 414.01,-140.84 410.35,-146.81"/>
</g>
<!-- PromiseStatus -->
<g id="node23" class="node">
<title>PromiseStatus</title>
<g id="a_node23"><a xlink:href="/type/PromiseStatus" xlink:title="PromiseStatus">
<ellipse fill="none" stroke="#33bb33" cx="445.15" cy="-90" rx="67.69" ry="18"/>
<text text-anchor="middle" x="445.15" y="-86.3" font-family="FreeSans" font-size="14.00" fill="#33bb33">PromiseStatus</text>
</a>
</g>
</g>
<!-- PromiseStatus&#45;&gt;Int -->
<g id="edge21" class="edge">
<title>PromiseStatus&#45;&gt;Int</title>
<path fill="none" stroke="#000000" d="M443.91,-108.3C443.36,-116.02 442.7,-125.29 442.08,-133.89"/>
<polygon fill="#000000" stroke="#000000" points="438.59,-133.67 441.37,-143.9 445.57,-134.17 438.59,-133.67"/>
</g>
<!-- Bool -->
<g id="node24" class="node">
<title>Bool</title>
<g id="a_node24"><a xlink:href="/type/Bool" xlink:title="Bool">
<ellipse fill="none" stroke="#33bb33" cx="559.15" cy="-90" rx="28.7" ry="18"/>
<text text-anchor="middle" x="559.15" y="-86.3" font-family="FreeSans" font-size="14.00" fill="#33bb33">Bool</text>
</a>
</g>
</g>
<!-- Bool&#45;&gt;Int -->
<g id="edge22" class="edge">
<title>Bool&#45;&gt;Int</title>
<path fill="none" stroke="#000000" d="M538.96,-102.87C519.58,-114.27 490.13,-131.6 468.42,-144.37"/>
<polygon fill="#000000" stroke="#000000" points="466.48,-141.45 459.64,-149.53 470.03,-147.48 466.48,-141.45"/>
</g>
<!-- Rat -->
<g id="node25" class="node">
<title>Rat</title>
<g id="a_node25"><a xlink:href="/type/Rat" xlink:title="Rat">
<ellipse fill="none" stroke="#000000" cx="781.15" cy="-90" rx="27" ry="18"/>
<text text-anchor="middle" x="781.15" y="-86.3" font-family="FreeSans" font-size="14.00" fill="#000000">Rat</text>
</a>
</g>
</g>
<!-- Rat&#45;&gt;Cool -->
<g id="edge23" class="edge">
<title>Rat&#45;&gt;Cool</title>
<path fill="none" stroke="#000000" d="M798.92,-103.56C821.1,-119.23 856.15,-144 856.15,-144 856.15,-144 856.15,-180 856.15,-180 856.15,-180 851.93,-193.15 847.7,-206.34"/>
<polygon fill="#000000" stroke="#000000" points="844.25,-205.64 844.52,-216.23 850.91,-207.78 844.25,-205.64"/>
</g>
<!-- Rat&#45;&gt;Rational -->
<g id="edge33" class="edge">
<title>Rat&#45;&gt;Rational</title>
<path fill="none" stroke="#6666ff" d="M764.75,-104.83C753.25,-114.53 737.62,-127.71 724.4,-138.86"/>
<polygon fill="#6666ff" stroke="#6666ff" points="721.92,-136.37 716.53,-145.49 726.43,-141.72 721.92,-136.37"/>
</g>
<!-- FatRat -->
<g id="node26" class="node">
<title>FatRat</title>
<g id="a_node26"><a xlink:href="/type/FatRat" xlink:title="FatRat">
<ellipse fill="none" stroke="#000000" cx="863.15" cy="-90" rx="37.09" ry="18"/>
<text text-anchor="middle" x="863.15" y="-86.3" font-family="FreeSans" font-size="14.00" fill="#000000">FatRat</text>
</a>
</g>
</g>
<!-- FatRat&#45;&gt;Cool -->
<g id="edge24" class="edge">
<title>FatRat&#45;&gt;Cool</title>
<path fill="none" stroke="#000000" d="M871.37,-107.77C878.99,-123.3 889.15,-144 889.15,-144 889.15,-144 889.15,-180 889.15,-180 889.15,-180 873.72,-196.36 860,-210.9"/>
<polygon fill="#000000" stroke="#000000" points="857.39,-208.56 853.07,-218.24 862.48,-213.36 857.39,-208.56"/>
</g>
<!-- FatRat&#45;&gt;Rational -->
<g id="edge34" class="edge">
<title>FatRat&#45;&gt;Rational</title>
<path fill="none" stroke="#6666ff" d="M836.27,-102.4C809.24,-113.87 767.31,-131.66 736.73,-144.63"/>
<polygon fill="#6666ff" stroke="#6666ff" points="735.07,-141.53 727.24,-148.66 737.81,-147.98 735.07,-141.53"/>
</g>
</g>
</svg>
