<?xml version="1.0" encoding="UTF-8" standalone="no"?>
<!DOCTYPE svg PUBLIC "-//W3C//DTD SVG 1.1//EN"
 "http://www.w3.org/Graphics/SVG/1.1/DTD/svg11.dtd">
<!-- Generated by graphviz version 2.43.0 (0)
 -->
<!-- Title: raku&#45;type&#45;graph Pages: 1 -->
<svg width="1719pt" height="260pt"
 viewBox="0.00 0.00 1719.48 260.00" xmlns="http://www.w3.org/2000/svg" xmlns:xlink="http://www.w3.org/1999/xlink">
<g id="graph0" class="graph" transform="scale(1 1) rotate(0) translate(4 256)">
<title>raku&#45;type&#45;graph</title>
<polygon fill="#ffffff" stroke="transparent" points="-4,4 -4,-256 1715.48,-256 1715.48,4 -4,4"/>
<!-- Pod::Block -->
<g id="node1" class="node">
<title>Pod::Block</title>
<g id="a_node1"><a xlink:href="/type/Pod::Block" xlink:title="Pod::Block">
<ellipse fill="none" stroke="#000000" cx="878.79" cy="-90" rx="53.09" ry="18"/>
<text text-anchor="middle" x="878.79" y="-86.3" font-family="FreeSans" font-size="14.00" fill="#000000">Pod::Block</text>
</a>
</g>
</g>
<!-- Any -->
<g id="node3" class="node">
<title>Any</title>
<g id="a_node3"><a xlink:href="/type/Any" xlink:title="Any">
<ellipse fill="none" stroke="#000000" cx="878.79" cy="-162" rx="27" ry="18"/>
<text text-anchor="middle" x="878.79" y="-158.3" font-family="FreeSans" font-size="14.00" fill="#000000">Any</text>
</a>
</g>
</g>
<!-- Pod::Block&#45;&gt;Any -->
<g id="edge1" class="edge">
<title>Pod::Block&#45;&gt;Any</title>
<path fill="none" stroke="#000000" d="M878.79,-108.3C878.79,-116.02 878.79,-125.29 878.79,-133.89"/>
<polygon fill="#000000" stroke="#000000" points="875.29,-133.9 878.79,-143.9 882.29,-133.9 875.29,-133.9"/>
</g>
<!-- Mu -->
<g id="node2" class="node">
<title>Mu</title>
<g id="a_node2"><a xlink:href="/type/Mu" xlink:title="Mu">
<ellipse fill="none" stroke="#000000" cx="878.79" cy="-234" rx="27" ry="18"/>
<text text-anchor="middle" x="878.79" y="-230.3" font-family="FreeSans" font-size="14.00" fill="#000000">Mu</text>
</a>
</g>
</g>
<!-- Any&#45;&gt;Mu -->
<g id="edge2" class="edge">
<title>Any&#45;&gt;Mu</title>
<path fill="none" stroke="#000000" d="M878.79,-180.3C878.79,-188.02 878.79,-197.29 878.79,-205.89"/>
<polygon fill="#000000" stroke="#000000" points="875.29,-205.9 878.79,-215.9 882.29,-205.9 875.29,-205.9"/>
</g>
<!-- Pod::Block::Declarator -->
<g id="node4" class="node">
<title>Pod::Block::Declarator</title>
<g id="a_node4"><a xlink:href="/type/Pod::Block::Declarator" xlink:title="Pod::Block::Declarator">
<ellipse fill="none" stroke="#000000" cx="98.79" cy="-18" rx="98.58" ry="18"/>
<text text-anchor="middle" x="98.79" y="-14.3" font-family="FreeSans" font-size="14.00" fill="#000000">Pod::Block::Declarator</text>
</a>
</g>
</g>
<!-- Pod::Block::Declarator&#45;&gt;Pod::Block -->
<g id="edge3" class="edge">
<title>Pod::Block::Declarator&#45;&gt;Pod::Block</title>
<path fill="none" stroke="#000000" d="M170.83,-30.34C190.64,-33.46 206.79,-36 206.79,-36 206.79,-36 651.55,-71.08 817.41,-84.16"/>
<polygon fill="#000000" stroke="#000000" points="817.21,-87.65 827.45,-84.95 817.76,-80.68 817.21,-87.65"/>
</g>
<!-- Pod::Item -->
<g id="node5" class="node">
<title>Pod::Item</title>
<g id="a_node5"><a xlink:href="/type/Pod::Item" xlink:title="Pod::Item">
<ellipse fill="none" stroke="#000000" cx="263.79" cy="-18" rx="48.19" ry="18"/>
<text text-anchor="middle" x="263.79" y="-14.3" font-family="FreeSans" font-size="14.00" fill="#000000">Pod::Item</text>
</a>
</g>
</g>
<!-- Pod::Item&#45;&gt;Pod::Block -->
<g id="edge4" class="edge">
<title>Pod::Item&#45;&gt;Pod::Block</title>
<path fill="none" stroke="#000000" d="M300.21,-29.86C311.38,-33.19 320.79,-36 320.79,-36 320.79,-36 673.78,-69.53 818.25,-83.25"/>
<polygon fill="#000000" stroke="#000000" points="818,-86.74 828.29,-84.2 818.66,-79.77 818,-86.74"/>
</g>
<!-- Pod::Block::Code -->
<g id="node6" class="node">
<title>Pod::Block::Code</title>
<g id="a_node6"><a xlink:href="/type/Pod::Block::Code" xlink:title="Pod::Block::Code">
<ellipse fill="none" stroke="#000000" cx="408.79" cy="-18" rx="79.09" ry="18"/>
<text text-anchor="middle" x="408.79" y="-14.3" font-family="FreeSans" font-size="14.00" fill="#000000">Pod::Block::Code</text>
</a>
</g>
</g>
<!-- Pod::Block::Code&#45;&gt;Pod::Block -->
<g id="edge5" class="edge">
<title>Pod::Block::Code&#45;&gt;Pod::Block</title>
<path fill="none" stroke="#000000" d="M467,-30.24C483.36,-33.41 496.79,-36 496.79,-36 496.79,-36 713.42,-66.06 820.41,-80.9"/>
<polygon fill="#000000" stroke="#000000" points="820.02,-84.38 830.41,-82.29 820.99,-77.45 820.02,-84.38"/>
</g>
<!-- Pod::Block::Table -->
<g id="node7" class="node">
<title>Pod::Block::Table</title>
<g id="a_node7"><a xlink:href="/type/Pod::Block::Table" xlink:title="Pod::Block::Table">
<ellipse fill="none" stroke="#000000" cx="586.79" cy="-18" rx="80.69" ry="18"/>
<text text-anchor="middle" x="586.79" y="-14.3" font-family="FreeSans" font-size="14.00" fill="#000000">Pod::Block::Table</text>
</a>
</g>
</g>
<!-- Pod::Block::Table&#45;&gt;Pod::Block -->
<g id="edge6" class="edge">
<title>Pod::Block::Table&#45;&gt;Pod::Block</title>
<path fill="none" stroke="#000000" d="M639.67,-31.68C692.78,-44.41 774.11,-63.91 826.88,-76.56"/>
<polygon fill="#000000" stroke="#000000" points="826.17,-79.98 836.71,-78.91 827.8,-73.18 826.17,-79.98"/>
</g>
<!-- Pod::FormattingCode -->
<g id="node8" class="node">
<title>Pod::FormattingCode</title>
<g id="a_node8"><a xlink:href="/type/Pod::FormattingCode" xlink:title="Pod::FormattingCode">
<ellipse fill="none" stroke="#000000" cx="779.79" cy="-18" rx="94.48" ry="18"/>
<text text-anchor="middle" x="779.79" y="-14.3" font-family="FreeSans" font-size="14.00" fill="#000000">Pod::FormattingCode</text>
</a>
</g>
</g>
<!-- Pod::FormattingCode&#45;&gt;Pod::Block -->
<g id="edge7" class="edge">
<title>Pod::FormattingCode&#45;&gt;Pod::Block</title>
<path fill="none" stroke="#000000" d="M803.25,-35.59C816.83,-45.19 834.05,-57.37 848.63,-67.67"/>
<polygon fill="#000000" stroke="#000000" points="846.67,-70.57 856.85,-73.49 850.71,-64.86 846.67,-70.57"/>
</g>
<!-- Pod::Block::Named -->
<g id="node9" class="node">
<title>Pod::Block::Named</title>
<g id="a_node9"><a xlink:href="/type/Pod::Block::Named" xlink:title="Pod::Block::Named">
<ellipse fill="none" stroke="#000000" cx="978.79" cy="-18" rx="87.18" ry="18"/>
<text text-anchor="middle" x="978.79" y="-14.3" font-family="FreeSans" font-size="14.00" fill="#000000">Pod::Block::Named</text>
</a>
</g>
</g>
<!-- Pod::Block::Named&#45;&gt;Pod::Block -->
<g id="edge8" class="edge">
<title>Pod::Block::Named&#45;&gt;Pod::Block</title>
<path fill="none" stroke="#000000" d="M955.35,-35.41C941.64,-45.01 924.19,-57.22 909.41,-67.57"/>
<polygon fill="#000000" stroke="#000000" points="907.25,-64.81 901.06,-73.41 911.26,-70.54 907.25,-64.81"/>
</g>
<!-- Pod::Heading -->
<g id="node10" class="node">
<title>Pod::Heading</title>
<g id="a_node10"><a xlink:href="/type/Pod::Heading" xlink:title="Pod::Heading">
<ellipse fill="none" stroke="#000000" cx="1147.79" cy="-18" rx="63.89" ry="18"/>
<text text-anchor="middle" x="1147.79" y="-14.3" font-family="FreeSans" font-size="14.00" fill="#000000">Pod::Heading</text>
</a>
</g>
</g>
<!-- Pod::Heading&#45;&gt;Pod::Block -->
<g id="edge9" class="edge">
<title>Pod::Heading&#45;&gt;Pod::Block</title>
<path fill="none" stroke="#000000" d="M1102.46,-30.8C1054.7,-43.23 979.62,-62.76 929.81,-75.72"/>
<polygon fill="#000000" stroke="#000000" points="928.68,-72.4 919.89,-78.31 930.45,-79.17 928.68,-72.4"/>
</g>
<!-- Pod::Defn -->
<g id="node11" class="node">
<title>Pod::Defn</title>
<g id="a_node11"><a xlink:href="/type/Pod::Defn" xlink:title="Pod::Defn">
<ellipse fill="none" stroke="#000000" cx="1279.79" cy="-18" rx="50.09" ry="18"/>
<text text-anchor="middle" x="1279.79" y="-14.3" font-family="FreeSans" font-size="14.00" fill="#000000">Pod::Defn</text>
</a>
</g>
</g>
<!-- Pod::Defn&#45;&gt;Pod::Block -->
<g id="edge10" class="edge">
<title>Pod::Defn&#45;&gt;Pod::Block</title>
<path fill="none" stroke="#000000" d="M1242.09,-29.86C1230.53,-33.19 1220.79,-36 1220.79,-36 1220.79,-36 1033.79,-64.98 936.34,-80.08"/>
<polygon fill="#000000" stroke="#000000" points="935.69,-76.64 926.34,-81.63 936.76,-83.56 935.69,-76.64"/>
</g>
<!-- Pod::Block::Comment -->
<g id="node12" class="node">
<title>Pod::Block::Comment</title>
<g id="a_node12"><a xlink:href="/type/Pod::Block::Comment" xlink:title="Pod::Block::Comment">
<ellipse fill="none" stroke="#000000" cx="1443.79" cy="-18" rx="96.38" ry="18"/>
<text text-anchor="middle" x="1443.79" y="-14.3" font-family="FreeSans" font-size="14.00" fill="#000000">Pod::Block::Comment</text>
</a>
</g>
</g>
<!-- Pod::Block::Comment&#45;&gt;Pod::Block -->
<g id="edge11" class="edge">
<title>Pod::Block::Comment&#45;&gt;Pod::Block</title>
<path fill="none" stroke="#000000" d="M1373.75,-30.34C1354.49,-33.46 1338.79,-36 1338.79,-36 1338.79,-36 1063.12,-67.76 938.59,-82.11"/>
<polygon fill="#000000" stroke="#000000" points="937.99,-78.66 928.46,-83.28 938.79,-85.61 937.99,-78.66"/>
</g>
<!-- Pod::Block::Para -->
<g id="node13" class="node">
<title>Pod::Block::Para</title>
<g id="a_node13"><a xlink:href="/type/Pod::Block::Para" xlink:title="Pod::Block::Para">
<ellipse fill="none" stroke="#000000" cx="1634.79" cy="-18" rx="76.89" ry="18"/>
<text text-anchor="middle" x="1634.79" y="-14.3" font-family="FreeSans" font-size="14.00" fill="#000000">Pod::Block::Para</text>
</a>
</g>
</g>
<!-- Pod::Block::Para&#45;&gt;Pod::Block -->
<g id="edge12" class="edge">
<title>Pod::Block::Para&#45;&gt;Pod::Block</title>
<path fill="none" stroke="#000000" d="M1577.91,-30.24C1561.91,-33.41 1548.79,-36 1548.79,-36 1548.79,-36 1105.36,-71.08 939.99,-84.16"/>
<polygon fill="#000000" stroke="#000000" points="939.67,-80.67 929.98,-84.95 940.22,-87.65 939.67,-80.67"/>
</g>
</g>
</svg>
