<?xml version="1.0" encoding="UTF-8" standalone="no"?>
<!DOCTYPE svg PUBLIC "-//W3C//DTD SVG 1.1//EN"
 "http://www.w3.org/Graphics/SVG/1.1/DTD/svg11.dtd">
<!-- Generated by graphviz version 2.43.0 (0)
 -->
<!-- Title: raku&#45;type&#45;graph Pages: 1 -->
<svg width="1720pt" height="260pt"
 viewBox="0.00 0.00 1719.93 260.00" xmlns="http://www.w3.org/2000/svg" xmlns:xlink="http://www.w3.org/1999/xlink">
<g id="graph0" class="graph" transform="scale(1 1) rotate(0) translate(4 256)">
<title>raku&#45;type&#45;graph</title>
<polygon fill="#ffffff" stroke="transparent" points="-4,4 -4,-256 1715.93,-256 1715.93,4 -4,4"/>
<!-- Pod::Block -->
<g id="node1" class="node">
<title>Pod::Block</title>
<g id="a_node1"><a xlink:href="/type/Pod::Block" xlink:title="Pod::Block">
<ellipse fill="none" stroke="#000000" cx="878.24" cy="-90" rx="53.09" ry="18"/>
<text text-anchor="middle" x="878.24" y="-86.3" font-family="FreeSans" font-size="14.00" fill="#000000">Pod::Block</text>
</a>
</g>
</g>
<!-- Any -->
<g id="node3" class="node">
<title>Any</title>
<g id="a_node3"><a xlink:href="/type/Any" xlink:title="Any">
<ellipse fill="none" stroke="#000000" cx="878.24" cy="-162" rx="27" ry="18"/>
<text text-anchor="middle" x="878.24" y="-158.3" font-family="FreeSans" font-size="14.00" fill="#000000">Any</text>
</a>
</g>
</g>
<!-- Pod::Block&#45;&gt;Any -->
<g id="edge1" class="edge">
<title>Pod::Block&#45;&gt;Any</title>
<path fill="none" stroke="#000000" d="M878.24,-108.3C878.24,-116.02 878.24,-125.29 878.24,-133.89"/>
<polygon fill="#000000" stroke="#000000" points="874.74,-133.9 878.24,-143.9 881.74,-133.9 874.74,-133.9"/>
</g>
<!-- Mu -->
<g id="node2" class="node">
<title>Mu</title>
<g id="a_node2"><a xlink:href="/type/Mu" xlink:title="Mu">
<ellipse fill="none" stroke="#000000" cx="878.24" cy="-234" rx="27" ry="18"/>
<text text-anchor="middle" x="878.24" y="-230.3" font-family="FreeSans" font-size="14.00" fill="#000000">Mu</text>
</a>
</g>
</g>
<!-- Any&#45;&gt;Mu -->
<g id="edge2" class="edge">
<title>Any&#45;&gt;Mu</title>
<path fill="none" stroke="#000000" d="M878.24,-180.3C878.24,-188.02 878.24,-197.29 878.24,-205.89"/>
<polygon fill="#000000" stroke="#000000" points="874.74,-205.9 878.24,-215.9 881.74,-205.9 874.74,-205.9"/>
</g>
<!-- Pod::FormattingCode -->
<g id="node4" class="node">
<title>Pod::FormattingCode</title>
<g id="a_node4"><a xlink:href="/type/Pod::FormattingCode" xlink:title="Pod::FormattingCode">
<ellipse fill="none" stroke="#000000" cx="94.24" cy="-18" rx="94.48" ry="18"/>
<text text-anchor="middle" x="94.24" y="-14.3" font-family="FreeSans" font-size="14.00" fill="#000000">Pod::FormattingCode</text>
</a>
</g>
</g>
<!-- Pod::FormattingCode&#45;&gt;Pod::Block -->
<g id="edge3" class="edge">
<title>Pod::FormattingCode&#45;&gt;Pod::Block</title>
<path fill="none" stroke="#000000" d="M162.94,-30.34C181.84,-33.46 197.24,-36 197.24,-36 197.24,-36 649.01,-71.16 816.63,-84.2"/>
<polygon fill="#000000" stroke="#000000" points="816.54,-87.71 826.78,-84.99 817.08,-80.73 816.54,-87.71"/>
</g>
<!-- Pod::Item -->
<g id="node5" class="node">
<title>Pod::Item</title>
<g id="a_node5"><a xlink:href="/type/Pod::Item" xlink:title="Pod::Item">
<ellipse fill="none" stroke="#000000" cx="254.24" cy="-18" rx="48.19" ry="18"/>
<text text-anchor="middle" x="254.24" y="-14.3" font-family="FreeSans" font-size="14.00" fill="#000000">Pod::Item</text>
</a>
</g>
</g>
<!-- Pod::Item&#45;&gt;Pod::Block -->
<g id="edge4" class="edge">
<title>Pod::Item&#45;&gt;Pod::Block</title>
<path fill="none" stroke="#000000" d="M290.66,-29.86C301.83,-33.19 311.24,-36 311.24,-36 311.24,-36 671.22,-69.65 817.52,-83.32"/>
<polygon fill="#000000" stroke="#000000" points="817.39,-86.83 827.67,-84.27 818.04,-79.86 817.39,-86.83"/>
</g>
<!-- Pod::Block::Table -->
<g id="node6" class="node">
<title>Pod::Block::Table</title>
<g id="a_node6"><a xlink:href="/type/Pod::Block::Table" xlink:title="Pod::Block::Table">
<ellipse fill="none" stroke="#000000" cx="401.24" cy="-18" rx="80.69" ry="18"/>
<text text-anchor="middle" x="401.24" y="-14.3" font-family="FreeSans" font-size="14.00" fill="#000000">Pod::Block::Table</text>
</a>
</g>
</g>
<!-- Pod::Block::Table&#45;&gt;Pod::Block -->
<g id="edge5" class="edge">
<title>Pod::Block::Table&#45;&gt;Pod::Block</title>
<path fill="none" stroke="#000000" d="M460.52,-30.2C477.37,-33.38 491.24,-36 491.24,-36 491.24,-36 711.26,-66.13 819.5,-80.96"/>
<polygon fill="#000000" stroke="#000000" points="819.24,-84.45 829.62,-82.34 820.19,-77.52 819.24,-84.45"/>
</g>
<!-- Pod::Block::Code -->
<g id="node7" class="node">
<title>Pod::Block::Code</title>
<g id="a_node7"><a xlink:href="/type/Pod::Block::Code" xlink:title="Pod::Block::Code">
<ellipse fill="none" stroke="#000000" cx="579.24" cy="-18" rx="79.09" ry="18"/>
<text text-anchor="middle" x="579.24" y="-14.3" font-family="FreeSans" font-size="14.00" fill="#000000">Pod::Block::Code</text>
</a>
</g>
</g>
<!-- Pod::Block::Code&#45;&gt;Pod::Block -->
<g id="edge6" class="edge">
<title>Pod::Block::Code&#45;&gt;Pod::Block</title>
<path fill="none" stroke="#000000" d="M632.35,-31.43C687.01,-44.23 771.64,-64.04 825.99,-76.77"/>
<polygon fill="#000000" stroke="#000000" points="825.24,-80.19 835.77,-79.06 826.83,-73.37 825.24,-80.19"/>
</g>
<!-- Pod::Block::Comment -->
<g id="node8" class="node">
<title>Pod::Block::Comment</title>
<g id="a_node8"><a xlink:href="/type/Pod::Block::Comment" xlink:title="Pod::Block::Comment">
<ellipse fill="none" stroke="#000000" cx="772.24" cy="-18" rx="96.38" ry="18"/>
<text text-anchor="middle" x="772.24" y="-14.3" font-family="FreeSans" font-size="14.00" fill="#000000">Pod::Block::Comment</text>
</a>
</g>
</g>
<!-- Pod::Block::Comment&#45;&gt;Pod::Block -->
<g id="edge7" class="edge">
<title>Pod::Block::Comment&#45;&gt;Pod::Block</title>
<path fill="none" stroke="#000000" d="M797.09,-35.41C811.86,-45.16 830.73,-57.63 846.56,-68.08"/>
<polygon fill="#000000" stroke="#000000" points="844.72,-71.06 855,-73.65 848.58,-65.22 844.72,-71.06"/>
</g>
<!-- Pod::Block::Declarator -->
<g id="node9" class="node">
<title>Pod::Block::Declarator</title>
<g id="a_node9"><a xlink:href="/type/Pod::Block::Declarator" xlink:title="Pod::Block::Declarator">
<ellipse fill="none" stroke="#000000" cx="985.24" cy="-18" rx="98.58" ry="18"/>
<text text-anchor="middle" x="985.24" y="-14.3" font-family="FreeSans" font-size="14.00" fill="#000000">Pod::Block::Declarator</text>
</a>
</g>
</g>
<!-- Pod::Block::Declarator&#45;&gt;Pod::Block -->
<g id="edge8" class="edge">
<title>Pod::Block::Declarator&#45;&gt;Pod::Block</title>
<path fill="none" stroke="#000000" d="M960.15,-35.41C945.25,-45.16 926.2,-57.63 910.22,-68.08"/>
<polygon fill="#000000" stroke="#000000" points="908.16,-65.25 901.71,-73.65 911.99,-71.1 908.16,-65.25"/>
</g>
<!-- Pod::Defn -->
<g id="node10" class="node">
<title>Pod::Defn</title>
<g id="a_node10"><a xlink:href="/type/Pod::Defn" xlink:title="Pod::Defn">
<ellipse fill="none" stroke="#000000" cx="1152.24" cy="-18" rx="50.09" ry="18"/>
<text text-anchor="middle" x="1152.24" y="-14.3" font-family="FreeSans" font-size="14.00" fill="#000000">Pod::Defn</text>
</a>
</g>
</g>
<!-- Pod::Defn&#45;&gt;Pod::Block -->
<g id="edge9" class="edge">
<title>Pod::Defn&#45;&gt;Pod::Block</title>
<path fill="none" stroke="#000000" d="M1114.54,-29.86C1102.98,-33.19 1093.24,-36 1093.24,-36 1093.24,-36 993.44,-60.6 929.83,-76.28"/>
<polygon fill="#000000" stroke="#000000" points="928.82,-72.93 919.95,-78.72 930.5,-79.72 928.82,-72.93"/>
</g>
<!-- Pod::Heading -->
<g id="node11" class="node">
<title>Pod::Heading</title>
<g id="a_node11"><a xlink:href="/type/Pod::Heading" xlink:title="Pod::Heading">
<ellipse fill="none" stroke="#000000" cx="1284.24" cy="-18" rx="63.89" ry="18"/>
<text text-anchor="middle" x="1284.24" y="-14.3" font-family="FreeSans" font-size="14.00" fill="#000000">Pod::Heading</text>
</a>
</g>
</g>
<!-- Pod::Heading&#45;&gt;Pod::Block -->
<g id="edge10" class="edge">
<title>Pod::Heading&#45;&gt;Pod::Block</title>
<path fill="none" stroke="#000000" d="M1236.77,-30.05C1222.83,-33.3 1211.24,-36 1211.24,-36 1211.24,-36 1030.91,-64.7 935.66,-79.86"/>
<polygon fill="#000000" stroke="#000000" points="934.92,-76.43 925.6,-81.46 936.02,-83.35 934.92,-76.43"/>
</g>
<!-- Pod::Block::Named -->
<g id="node12" class="node">
<title>Pod::Block::Named</title>
<g id="a_node12"><a xlink:href="/type/Pod::Block::Named" xlink:title="Pod::Block::Named">
<ellipse fill="none" stroke="#000000" cx="1453.24" cy="-18" rx="87.18" ry="18"/>
<text text-anchor="middle" x="1453.24" y="-14.3" font-family="FreeSans" font-size="14.00" fill="#000000">Pod::Block::Named</text>
</a>
</g>
</g>
<!-- Pod::Block::Named&#45;&gt;Pod::Block -->
<g id="edge11" class="edge">
<title>Pod::Block::Named&#45;&gt;Pod::Block</title>
<path fill="none" stroke="#000000" d="M1389.48,-30.29C1371.74,-33.43 1357.24,-36 1357.24,-36 1357.24,-36 1066.78,-68.14 938.23,-82.36"/>
<polygon fill="#000000" stroke="#000000" points="937.7,-78.9 928.15,-83.48 938.47,-85.86 937.7,-78.9"/>
</g>
<!-- Pod::Block::Para -->
<g id="node13" class="node">
<title>Pod::Block::Para</title>
<g id="a_node13"><a xlink:href="/type/Pod::Block::Para" xlink:title="Pod::Block::Para">
<ellipse fill="none" stroke="#000000" cx="1635.24" cy="-18" rx="76.89" ry="18"/>
<text text-anchor="middle" x="1635.24" y="-14.3" font-family="FreeSans" font-size="14.00" fill="#000000">Pod::Block::Para</text>
</a>
</g>
</g>
<!-- Pod::Block::Para&#45;&gt;Pod::Block -->
<g id="edge12" class="edge">
<title>Pod::Block::Para&#45;&gt;Pod::Block</title>
<path fill="none" stroke="#000000" d="M1578.36,-30.24C1562.36,-33.41 1549.24,-36 1549.24,-36 1549.24,-36 1105.15,-71.08 939.53,-84.16"/>
<polygon fill="#000000" stroke="#000000" points="939.2,-80.67 929.5,-84.95 939.75,-87.65 939.2,-80.67"/>
</g>
</g>
</svg>
