<?xml version="1.0" encoding="UTF-8" standalone="no"?>
<!DOCTYPE svg PUBLIC "-//W3C//DTD SVG 1.1//EN"
 "http://www.w3.org/Graphics/SVG/1.1/DTD/svg11.dtd">
<!-- Generated by graphviz version 2.43.0 (0)
 -->
<!-- Title: raku&#45;type&#45;graph Pages: 1 -->
<svg width="394pt" height="260pt"
 viewBox="0.00 0.00 393.64 260.00" xmlns="http://www.w3.org/2000/svg" xmlns:xlink="http://www.w3.org/1999/xlink">
<g id="graph0" class="graph" transform="scale(1 1) rotate(0) translate(4 256)">
<title>raku&#45;type&#45;graph</title>
<polygon fill="#ffffff" stroke="transparent" points="-4,4 -4,-256 389.64,-256 389.64,4 -4,4"/>
<!-- PositionalBindFailover -->
<g id="node1" class="node">
<title>PositionalBindFailover</title>
<g id="a_node1"><a xlink:href="/type/PositionalBindFailover" xlink:title="PositionalBindFailover">
<ellipse fill="none" stroke="#6666ff" cx="125.6" cy="-162" rx="97.48" ry="18"/>
<text text-anchor="middle" x="125.6" y="-158.3" font-family="FreeSans" font-size="14.00" fill="#6666ff">PositionalBindFailover</text>
</a>
</g>
</g>
<!-- Sequence -->
<g id="node2" class="node">
<title>Sequence</title>
<g id="a_node2"><a xlink:href="/type/Sequence" xlink:title="Sequence">
<ellipse fill="none" stroke="#6666ff" cx="125.6" cy="-90" rx="50.09" ry="18"/>
<text text-anchor="middle" x="125.6" y="-86.3" font-family="FreeSans" font-size="14.00" fill="#6666ff">Sequence</text>
</a>
</g>
</g>
<!-- Sequence&#45;&gt;PositionalBindFailover -->
<g id="edge6" class="edge">
<title>Sequence&#45;&gt;PositionalBindFailover</title>
<path fill="none" stroke="#6666ff" d="M125.6,-108.3C125.6,-116.02 125.6,-125.29 125.6,-133.89"/>
<polygon fill="#6666ff" stroke="#6666ff" points="122.1,-133.9 125.6,-143.9 129.1,-133.9 122.1,-133.9"/>
</g>
<!-- Mu -->
<g id="node3" class="node">
<title>Mu</title>
<g id="a_node3"><a xlink:href="/type/Mu" xlink:title="Mu">
<ellipse fill="none" stroke="#000000" cx="301.6" cy="-234" rx="27" ry="18"/>
<text text-anchor="middle" x="301.6" y="-230.3" font-family="FreeSans" font-size="14.00" fill="#000000">Mu</text>
</a>
</g>
</g>
<!-- Any -->
<g id="node4" class="node">
<title>Any</title>
<g id="a_node4"><a xlink:href="/type/Any" xlink:title="Any">
<ellipse fill="none" stroke="#000000" cx="301.6" cy="-162" rx="27" ry="18"/>
<text text-anchor="middle" x="301.6" y="-158.3" font-family="FreeSans" font-size="14.00" fill="#000000">Any</text>
</a>
</g>
</g>
<!-- Any&#45;&gt;Mu -->
<g id="edge1" class="edge">
<title>Any&#45;&gt;Mu</title>
<path fill="none" stroke="#000000" d="M301.6,-180.3C301.6,-188.02 301.6,-197.29 301.6,-205.89"/>
<polygon fill="#000000" stroke="#000000" points="298.1,-205.9 301.6,-215.9 305.1,-205.9 298.1,-205.9"/>
</g>
<!-- Iterable -->
<g id="node5" class="node">
<title>Iterable</title>
<g id="a_node5"><a xlink:href="/type/Iterable" xlink:title="Iterable">
<ellipse fill="none" stroke="#6666ff" cx="233.6" cy="-90" rx="40.09" ry="18"/>
<text text-anchor="middle" x="233.6" y="-86.3" font-family="FreeSans" font-size="14.00" fill="#6666ff">Iterable</text>
</a>
</g>
</g>
<!-- RaceSeq -->
<g id="node6" class="node">
<title>RaceSeq</title>
<g id="a_node6"><a xlink:href="/type/RaceSeq" xlink:title="RaceSeq">
<ellipse fill="none" stroke="#000000" cx="220.6" cy="-18" rx="46.59" ry="18"/>
<text text-anchor="middle" x="220.6" y="-14.3" font-family="FreeSans" font-size="14.00" fill="#000000">RaceSeq</text>
</a>
</g>
</g>
<!-- RaceSeq&#45;&gt;Sequence -->
<g id="edge8" class="edge">
<title>RaceSeq&#45;&gt;Sequence</title>
<path fill="none" stroke="#6666ff" d="M199.98,-34.19C186.75,-43.94 169.38,-56.74 154.74,-67.52"/>
<polygon fill="#6666ff" stroke="#6666ff" points="152.47,-64.85 146.5,-73.6 156.63,-70.48 152.47,-64.85"/>
</g>
<!-- RaceSeq&#45;&gt;Any -->
<g id="edge2" class="edge">
<title>RaceSeq&#45;&gt;Any</title>
<path fill="none" stroke="#000000" d="M238.86,-34.62C257.15,-50.25 282.6,-72 282.6,-72 282.6,-72 290.25,-107.83 295.84,-134.03"/>
<polygon fill="#000000" stroke="#000000" points="292.42,-134.79 297.93,-143.84 299.27,-133.33 292.42,-134.79"/>
</g>
<!-- RaceSeq&#45;&gt;Iterable -->
<g id="edge7" class="edge">
<title>RaceSeq&#45;&gt;Iterable</title>
<path fill="none" stroke="#6666ff" d="M223.81,-36.3C225.24,-44.02 226.97,-53.29 228.56,-61.89"/>
<polygon fill="#6666ff" stroke="#6666ff" points="225.15,-62.7 230.42,-71.9 232.04,-61.42 225.15,-62.7"/>
</g>
<!-- HyperSeq -->
<g id="node7" class="node">
<title>HyperSeq</title>
<g id="a_node7"><a xlink:href="/type/HyperSeq" xlink:title="HyperSeq">
<ellipse fill="none" stroke="#000000" cx="335.6" cy="-18" rx="50.09" ry="18"/>
<text text-anchor="middle" x="335.6" y="-14.3" font-family="FreeSans" font-size="14.00" fill="#000000">HyperSeq</text>
</a>
</g>
</g>
<!-- HyperSeq&#45;&gt;Sequence -->
<g id="edge10" class="edge">
<title>HyperSeq&#45;&gt;Sequence</title>
<path fill="none" stroke="#6666ff" d="M299.97,-30.87C264.42,-42.73 209.65,-60.98 171,-73.87"/>
<polygon fill="#6666ff" stroke="#6666ff" points="169.42,-70.7 161.04,-77.18 171.64,-77.34 169.42,-70.7"/>
</g>
<!-- HyperSeq&#45;&gt;Any -->
<g id="edge3" class="edge">
<title>HyperSeq&#45;&gt;Any</title>
<path fill="none" stroke="#000000" d="M331.74,-36.16C325.93,-62.02 315.6,-108 315.6,-108 315.6,-108 312.12,-121.15 308.64,-134.34"/>
<polygon fill="#000000" stroke="#000000" points="305.2,-133.67 306.03,-144.23 311.97,-135.46 305.2,-133.67"/>
</g>
<!-- HyperSeq&#45;&gt;Iterable -->
<g id="edge9" class="edge">
<title>HyperSeq&#45;&gt;Iterable</title>
<path fill="none" stroke="#6666ff" d="M313.46,-34.19C298.73,-44.3 279.21,-57.7 263.15,-68.72"/>
<polygon fill="#6666ff" stroke="#6666ff" points="260.91,-66.01 254.64,-74.56 264.87,-71.79 260.91,-66.01"/>
</g>
<!-- Cool -->
<g id="node8" class="node">
<title>Cool</title>
<g id="a_node8"><a xlink:href="/type/Cool" xlink:title="Cool">
<ellipse fill="none" stroke="#000000" cx="28.6" cy="-90" rx="28.7" ry="18"/>
<text text-anchor="middle" x="28.6" y="-86.3" font-family="FreeSans" font-size="14.00" fill="#000000">Cool</text>
</a>
</g>
</g>
<!-- Cool&#45;&gt;Any -->
<g id="edge4" class="edge">
<title>Cool&#45;&gt;Any</title>
<path fill="none" stroke="#000000" d="M51.14,-101.09C59.32,-104.75 66.6,-108 66.6,-108 66.6,-108 231.6,-144 231.6,-144 231.6,-144 249.07,-148.24 266.56,-152.49"/>
<polygon fill="#000000" stroke="#000000" points="266.18,-156 276.72,-154.96 267.83,-149.2 266.18,-156"/>
</g>
<!-- Seq -->
<g id="node9" class="node">
<title>Seq</title>
<g id="a_node9"><a xlink:href="/type/Seq" xlink:title="Seq">
<ellipse fill="none" stroke="#000000" cx="125.6" cy="-18" rx="27" ry="18"/>
<text text-anchor="middle" x="125.6" y="-14.3" font-family="FreeSans" font-size="14.00" fill="#000000">Seq</text>
</a>
</g>
</g>
<!-- Seq&#45;&gt;Sequence -->
<g id="edge12" class="edge">
<title>Seq&#45;&gt;Sequence</title>
<path fill="none" stroke="#6666ff" d="M125.6,-36.3C125.6,-44.02 125.6,-53.29 125.6,-61.89"/>
<polygon fill="#6666ff" stroke="#6666ff" points="122.1,-61.9 125.6,-71.9 129.1,-61.9 122.1,-61.9"/>
</g>
<!-- Seq&#45;&gt;Iterable -->
<g id="edge11" class="edge">
<title>Seq&#45;&gt;Iterable</title>
<path fill="none" stroke="#6666ff" d="M144.41,-31.19C160.58,-41.68 184.22,-56.99 203.09,-69.23"/>
<polygon fill="#6666ff" stroke="#6666ff" points="201.36,-72.27 211.65,-74.78 205.16,-66.4 201.36,-72.27"/>
</g>
<!-- Seq&#45;&gt;Cool -->
<g id="edge5" class="edge">
<title>Seq&#45;&gt;Cool</title>
<path fill="none" stroke="#000000" d="M107.81,-31.84C93,-42.53 71.69,-57.9 54.91,-70.01"/>
<polygon fill="#000000" stroke="#000000" points="52.67,-67.32 46.6,-76.01 56.76,-72.99 52.67,-67.32"/>
</g>
</g>
</svg>
