<?xml version="1.0" encoding="UTF-8" standalone="no"?>
<!DOCTYPE svg PUBLIC "-//W3C//DTD SVG 1.1//EN"
 "http://www.w3.org/Graphics/SVG/1.1/DTD/svg11.dtd">
<!-- Generated by graphviz version 2.43.0 (0)
 -->
<!-- Title: raku&#45;type&#45;graph Pages: 1 -->
<svg width="818pt" height="332pt"
 viewBox="0.00 0.00 817.84 332.00" xmlns="http://www.w3.org/2000/svg" xmlns:xlink="http://www.w3.org/1999/xlink">
<g id="graph0" class="graph" transform="scale(1 1) rotate(0) translate(4 328)">
<title>raku&#45;type&#45;graph</title>
<polygon fill="#ffffff" stroke="transparent" points="-4,4 -4,-328 813.84,-328 813.84,4 -4,4"/>
<!-- Positional -->
<g id="node1" class="node">
<title>Positional</title>
<g id="a_node1"><a xlink:href="/type/Positional" xlink:title="Positional">
<ellipse fill="none" stroke="#6666ff" cx="222.6" cy="-162" rx="48.99" ry="18"/>
<text text-anchor="middle" x="222.6" y="-158.3" font-family="FreeSans" font-size="14.00" fill="#6666ff">Positional</text>
</a>
</g>
</g>
<!-- Mu -->
<g id="node2" class="node">
<title>Mu</title>
<g id="a_node2"><a xlink:href="/type/Mu" xlink:title="Mu">
<ellipse fill="none" stroke="#000000" cx="493.6" cy="-306" rx="27" ry="18"/>
<text text-anchor="middle" x="493.6" y="-302.3" font-family="FreeSans" font-size="14.00" fill="#000000">Mu</text>
</a>
</g>
</g>
<!-- Any -->
<g id="node3" class="node">
<title>Any</title>
<g id="a_node3"><a xlink:href="/type/Any" xlink:title="Any">
<ellipse fill="none" stroke="#000000" cx="493.6" cy="-234" rx="27" ry="18"/>
<text text-anchor="middle" x="493.6" y="-230.3" font-family="FreeSans" font-size="14.00" fill="#000000">Any</text>
</a>
</g>
</g>
<!-- Any&#45;&gt;Mu -->
<g id="edge1" class="edge">
<title>Any&#45;&gt;Mu</title>
<path fill="none" stroke="#000000" d="M493.6,-252.3C493.6,-260.02 493.6,-269.29 493.6,-277.89"/>
<polygon fill="#000000" stroke="#000000" points="490.1,-277.9 493.6,-287.9 497.1,-277.9 490.1,-277.9"/>
</g>
<!-- Cool -->
<g id="node4" class="node">
<title>Cool</title>
<g id="a_node4"><a xlink:href="/type/Cool" xlink:title="Cool">
<ellipse fill="none" stroke="#000000" cx="28.6" cy="-162" rx="28.7" ry="18"/>
<text text-anchor="middle" x="28.6" y="-158.3" font-family="FreeSans" font-size="14.00" fill="#000000">Cool</text>
</a>
</g>
</g>
<!-- Cool&#45;&gt;Any -->
<g id="edge2" class="edge">
<title>Cool&#45;&gt;Any</title>
<path fill="none" stroke="#000000" d="M51.14,-173.09C59.32,-176.75 66.6,-180 66.6,-180 66.6,-180 354.03,-215.68 457.25,-228.49"/>
<polygon fill="#000000" stroke="#000000" points="456.85,-231.97 467.21,-229.72 457.72,-225.02 456.85,-231.97"/>
</g>
<!-- Iterable -->
<g id="node5" class="node">
<title>Iterable</title>
<g id="a_node5"><a xlink:href="/type/Iterable" xlink:title="Iterable">
<ellipse fill="none" stroke="#6666ff" cx="115.6" cy="-162" rx="40.09" ry="18"/>
<text text-anchor="middle" x="115.6" y="-158.3" font-family="FreeSans" font-size="14.00" fill="#6666ff">Iterable</text>
</a>
</g>
</g>
<!-- Range -->
<g id="node6" class="node">
<title>Range</title>
<g id="a_node6"><a xlink:href="/type/Range" xlink:title="Range">
<ellipse fill="none" stroke="#000000" cx="156.6" cy="-90" rx="36.29" ry="18"/>
<text text-anchor="middle" x="156.6" y="-86.3" font-family="FreeSans" font-size="14.00" fill="#000000">Range</text>
</a>
</g>
</g>
<!-- Range&#45;&gt;Positional -->
<g id="edge14" class="edge">
<title>Range&#45;&gt;Positional</title>
<path fill="none" stroke="#6666ff" d="M171.25,-106.54C179.72,-115.52 190.56,-127.02 200.09,-137.13"/>
<polygon fill="#6666ff" stroke="#6666ff" points="197.66,-139.66 207.07,-144.53 202.76,-134.86 197.66,-139.66"/>
</g>
<!-- Range&#45;&gt;Cool -->
<g id="edge3" class="edge">
<title>Range&#45;&gt;Cool</title>
<path fill="none" stroke="#000000" d="M133.12,-103.84C112.06,-115.36 81.06,-132.31 58.28,-144.77"/>
<polygon fill="#000000" stroke="#000000" points="56.48,-141.76 49.39,-149.63 59.84,-147.9 56.48,-141.76"/>
</g>
<!-- Range&#45;&gt;Iterable -->
<g id="edge15" class="edge">
<title>Range&#45;&gt;Iterable</title>
<path fill="none" stroke="#6666ff" d="M146.88,-107.59C142.05,-115.84 136.1,-125.99 130.7,-135.22"/>
<polygon fill="#6666ff" stroke="#6666ff" points="127.56,-133.65 125.53,-144.04 133.6,-137.18 127.56,-133.65"/>
</g>
<!-- Stringy -->
<g id="node7" class="node">
<title>Stringy</title>
<g id="a_node7"><a xlink:href="/type/Stringy" xlink:title="Stringy">
<ellipse fill="none" stroke="#6666ff" cx="493.6" cy="-162" rx="38.19" ry="18"/>
<text text-anchor="middle" x="493.6" y="-158.3" font-family="FreeSans" font-size="14.00" fill="#6666ff">Stringy</text>
</a>
</g>
</g>
<!-- Blob -->
<g id="node8" class="node">
<title>Blob</title>
<g id="a_node8"><a xlink:href="/type/Blob" xlink:title="Blob">
<ellipse fill="none" stroke="#6666ff" cx="426.6" cy="-90" rx="28.7" ry="18"/>
<text text-anchor="middle" x="426.6" y="-86.3" font-family="FreeSans" font-size="14.00" fill="#6666ff">Blob</text>
</a>
</g>
</g>
<!-- Blob&#45;&gt;Positional -->
<g id="edge16" class="edge">
<title>Blob&#45;&gt;Positional</title>
<path fill="none" stroke="#6666ff" d="M402.78,-100C391.99,-104.08 381.6,-108 381.6,-108 381.6,-108 314.22,-130.46 267.19,-146.14"/>
<polygon fill="#6666ff" stroke="#6666ff" points="265.87,-142.89 257.49,-149.37 268.08,-149.53 265.87,-142.89"/>
</g>
<!-- Blob&#45;&gt;Stringy -->
<g id="edge17" class="edge">
<title>Blob&#45;&gt;Stringy</title>
<path fill="none" stroke="#6666ff" d="M440.81,-105.85C449.71,-115.15 461.37,-127.33 471.46,-137.88"/>
<polygon fill="#6666ff" stroke="#6666ff" points="469.03,-140.4 478.48,-145.2 474.09,-135.56 469.03,-140.4"/>
</g>
<!-- Associative -->
<g id="node9" class="node">
<title>Associative</title>
<g id="a_node9"><a xlink:href="/type/Associative" xlink:title="Associative">
<ellipse fill="none" stroke="#6666ff" cx="344.6" cy="-162" rx="55.49" ry="18"/>
<text text-anchor="middle" x="344.6" y="-158.3" font-family="FreeSans" font-size="14.00" fill="#6666ff">Associative</text>
</a>
</g>
</g>
<!-- IO::Path::Parts -->
<g id="node10" class="node">
<title>IO::Path::Parts</title>
<g id="a_node10"><a xlink:href="/type/IO::Path::Parts" xlink:title="IO::Path::Parts">
<ellipse fill="none" stroke="#000000" cx="303.6" cy="-90" rx="68.79" ry="18"/>
<text text-anchor="middle" x="303.6" y="-86.3" font-family="FreeSans" font-size="14.00" fill="#000000">IO::Path::Parts</text>
</a>
</g>
</g>
<!-- IO::Path::Parts&#45;&gt;Positional -->
<g id="edge18" class="edge">
<title>IO::Path::Parts&#45;&gt;Positional</title>
<path fill="none" stroke="#6666ff" d="M284.4,-107.59C273.68,-116.85 260.18,-128.52 248.53,-138.59"/>
<polygon fill="#6666ff" stroke="#6666ff" points="246.1,-136.06 240.82,-145.25 250.68,-141.36 246.1,-136.06"/>
</g>
<!-- IO::Path::Parts&#45;&gt;Any -->
<g id="edge4" class="edge">
<title>IO::Path::Parts&#45;&gt;Any</title>
<path fill="none" stroke="#000000" d="M333.97,-106.33C364.98,-121.98 408.6,-144 408.6,-144 408.6,-144 447.38,-184.61 472.56,-210.97"/>
<polygon fill="#000000" stroke="#000000" points="470.12,-213.49 479.56,-218.3 475.19,-208.65 470.12,-213.49"/>
</g>
<!-- IO::Path::Parts&#45;&gt;Iterable -->
<g id="edge20" class="edge">
<title>IO::Path::Parts&#45;&gt;Iterable</title>
<path fill="none" stroke="#6666ff" d="M265.55,-105.17C233.47,-117.11 187.7,-134.15 155.19,-146.26"/>
<polygon fill="#6666ff" stroke="#6666ff" points="153.7,-143.08 145.55,-149.85 156.14,-149.64 153.7,-143.08"/>
</g>
<!-- IO::Path::Parts&#45;&gt;Associative -->
<g id="edge19" class="edge">
<title>IO::Path::Parts&#45;&gt;Associative</title>
<path fill="none" stroke="#6666ff" d="M313.52,-107.95C318.36,-116.2 324.27,-126.3 329.64,-135.46"/>
<polygon fill="#6666ff" stroke="#6666ff" points="326.69,-137.35 334.76,-144.21 332.73,-133.81 326.69,-137.35"/>
</g>
<!-- List -->
<g id="node11" class="node">
<title>List</title>
<g id="a_node11"><a xlink:href="/type/List" xlink:title="List">
<ellipse fill="none" stroke="#000000" cx="75.6" cy="-90" rx="27" ry="18"/>
<text text-anchor="middle" x="75.6" y="-86.3" font-family="FreeSans" font-size="14.00" fill="#000000">List</text>
</a>
</g>
</g>
<!-- List&#45;&gt;Positional -->
<g id="edge21" class="edge">
<title>List&#45;&gt;Positional</title>
<path fill="none" stroke="#6666ff" d="M96.97,-101.18C119.94,-112.11 156.89,-129.71 184.79,-142.99"/>
<polygon fill="#6666ff" stroke="#6666ff" points="183.33,-146.18 193.87,-147.32 186.34,-139.86 183.33,-146.18"/>
</g>
<!-- List&#45;&gt;Cool -->
<g id="edge5" class="edge">
<title>List&#45;&gt;Cool</title>
<path fill="none" stroke="#000000" d="M64.93,-106.88C59.04,-115.66 51.6,-126.74 44.99,-136.58"/>
<polygon fill="#000000" stroke="#000000" points="41.89,-134.93 39.22,-145.18 47.7,-138.83 41.89,-134.93"/>
</g>
<!-- List&#45;&gt;Iterable -->
<g id="edge22" class="edge">
<title>List&#45;&gt;Iterable</title>
<path fill="none" stroke="#6666ff" d="M84.87,-107.24C89.65,-115.6 95.59,-125.98 100.97,-135.39"/>
<polygon fill="#6666ff" stroke="#6666ff" points="98.09,-137.42 106.09,-144.37 104.17,-133.95 98.09,-137.42"/>
</g>
<!-- Uni -->
<g id="node12" class="node">
<title>Uni</title>
<g id="a_node12"><a xlink:href="/type/Uni" xlink:title="Uni">
<ellipse fill="none" stroke="#000000" cx="614.6" cy="-90" rx="27" ry="18"/>
<text text-anchor="middle" x="614.6" y="-86.3" font-family="FreeSans" font-size="14.00" fill="#000000">Uni</text>
</a>
</g>
</g>
<!-- Uni&#45;&gt;Positional -->
<g id="edge23" class="edge">
<title>Uni&#45;&gt;Positional</title>
<path fill="none" stroke="#6666ff" d="M588.67,-95.11C510.19,-107.57 280.6,-144 280.6,-144 280.6,-144 276.07,-145.33 269.55,-147.24"/>
<polygon fill="#6666ff" stroke="#6666ff" points="268.27,-143.97 259.66,-150.14 270.24,-150.68 268.27,-143.97"/>
</g>
<!-- Uni&#45;&gt;Any -->
<g id="edge6" class="edge">
<title>Uni&#45;&gt;Any</title>
<path fill="none" stroke="#000000" d="M607.08,-107.32C595.24,-133.02 573.6,-180 573.6,-180 573.6,-180 543.87,-199.7 520.65,-215.08"/>
<polygon fill="#000000" stroke="#000000" points="518.56,-212.27 512.15,-220.71 522.42,-218.1 518.56,-212.27"/>
</g>
<!-- Uni&#45;&gt;Stringy -->
<g id="edge24" class="edge">
<title>Uni&#45;&gt;Stringy</title>
<path fill="none" stroke="#6666ff" d="M594.89,-102.4C576.17,-113.23 547.71,-129.7 525.71,-142.42"/>
<polygon fill="#6666ff" stroke="#6666ff" points="523.93,-139.41 517.03,-147.44 527.44,-145.46 523.93,-139.41"/>
</g>
<!-- Array -->
<g id="node13" class="node">
<title>Array</title>
<g id="a_node13"><a xlink:href="/type/Array" xlink:title="Array">
<ellipse fill="none" stroke="#000000" cx="37.6" cy="-18" rx="31.7" ry="18"/>
<text text-anchor="middle" x="37.6" y="-14.3" font-family="FreeSans" font-size="14.00" fill="#000000">Array</text>
</a>
</g>
</g>
<!-- Array&#45;&gt;List -->
<g id="edge7" class="edge">
<title>Array&#45;&gt;List</title>
<path fill="none" stroke="#000000" d="M46.6,-35.59C51.15,-43.96 56.75,-54.29 61.83,-63.63"/>
<polygon fill="#000000" stroke="#000000" points="58.81,-65.41 66.66,-72.53 64.96,-62.07 58.81,-65.41"/>
</g>
<!-- Slip -->
<g id="node14" class="node">
<title>Slip</title>
<g id="a_node14"><a xlink:href="/type/Slip" xlink:title="Slip">
<ellipse fill="none" stroke="#000000" cx="114.6" cy="-18" rx="27" ry="18"/>
<text text-anchor="middle" x="114.6" y="-14.3" font-family="FreeSans" font-size="14.00" fill="#000000">Slip</text>
</a>
</g>
</g>
<!-- Slip&#45;&gt;List -->
<g id="edge8" class="edge">
<title>Slip&#45;&gt;List</title>
<path fill="none" stroke="#000000" d="M105.55,-35.24C100.78,-43.81 94.82,-54.51 89.47,-64.1"/>
<polygon fill="#000000" stroke="#000000" points="86.4,-62.41 84.59,-72.85 92.52,-65.82 86.4,-62.41"/>
</g>
<!-- NFKC -->
<g id="node15" class="node">
<title>NFKC</title>
<g id="a_node15"><a xlink:href="/type/NFKC" xlink:title="NFKC">
<ellipse fill="none" stroke="#000000" cx="697.6" cy="-18" rx="36" ry="18"/>
<text text-anchor="middle" x="697.6" y="-14.3" font-family="FreeSans" font-size="14.00" fill="#000000">NFKC</text>
</a>
</g>
</g>
<!-- NFKC&#45;&gt;Uni -->
<g id="edge9" class="edge">
<title>NFKC&#45;&gt;Uni</title>
<path fill="none" stroke="#000000" d="M680,-33.85C667.94,-44.02 651.79,-57.63 638.57,-68.79"/>
<polygon fill="#000000" stroke="#000000" points="636.15,-66.24 630.77,-75.36 640.67,-71.59 636.15,-66.24"/>
</g>
<!-- NFC -->
<g id="node16" class="node">
<title>NFC</title>
<g id="a_node16"><a xlink:href="/type/NFC" xlink:title="NFC">
<ellipse fill="none" stroke="#000000" cx="780.6" cy="-18" rx="29.5" ry="18"/>
<text text-anchor="middle" x="780.6" y="-14.3" font-family="FreeSans" font-size="14.00" fill="#000000">NFC</text>
</a>
</g>
</g>
<!-- NFC&#45;&gt;Uni -->
<g id="edge10" class="edge">
<title>NFC&#45;&gt;Uni</title>
<path fill="none" stroke="#000000" d="M757.62,-29.28C749.61,-32.86 742.6,-36 742.6,-36 742.6,-36 684.43,-60.09 646.52,-75.78"/>
<polygon fill="#000000" stroke="#000000" points="644.79,-72.71 636.89,-79.77 647.47,-79.18 644.79,-72.71"/>
</g>
<!-- NFKD -->
<g id="node17" class="node">
<title>NFKD</title>
<g id="a_node17"><a xlink:href="/type/NFKD" xlink:title="NFKD">
<ellipse fill="none" stroke="#000000" cx="531.6" cy="-18" rx="36" ry="18"/>
<text text-anchor="middle" x="531.6" y="-14.3" font-family="FreeSans" font-size="14.00" fill="#000000">NFKD</text>
</a>
</g>
</g>
<!-- NFKD&#45;&gt;Uni -->
<g id="edge11" class="edge">
<title>NFKD&#45;&gt;Uni</title>
<path fill="none" stroke="#000000" d="M549.2,-33.85C561.26,-44.02 577.4,-57.63 590.63,-68.79"/>
<polygon fill="#000000" stroke="#000000" points="588.53,-71.59 598.43,-75.36 593.04,-66.24 588.53,-71.59"/>
</g>
<!-- NFD -->
<g id="node18" class="node">
<title>NFD</title>
<g id="a_node18"><a xlink:href="/type/NFD" xlink:title="NFD">
<ellipse fill="none" stroke="#000000" cx="614.6" cy="-18" rx="29.5" ry="18"/>
<text text-anchor="middle" x="614.6" y="-14.3" font-family="FreeSans" font-size="14.00" fill="#000000">NFD</text>
</a>
</g>
</g>
<!-- NFD&#45;&gt;Uni -->
<g id="edge12" class="edge">
<title>NFD&#45;&gt;Uni</title>
<path fill="none" stroke="#000000" d="M614.6,-36.3C614.6,-44.02 614.6,-53.29 614.6,-61.89"/>
<polygon fill="#000000" stroke="#000000" points="611.1,-61.9 614.6,-71.9 618.1,-61.9 611.1,-61.9"/>
</g>
<!-- utf8 -->
<g id="node19" class="node">
<title>utf8</title>
<g id="a_node19"><a xlink:href="/type/utf8" xlink:title="utf8">
<ellipse fill="none" stroke="#000000" cx="450.6" cy="-18" rx="27" ry="18"/>
<text text-anchor="middle" x="450.6" y="-14.3" font-family="FreeSans" font-size="14.00" fill="#000000">utf8</text>
</a>
</g>
</g>
<!-- utf8&#45;&gt;Any -->
<g id="edge13" class="edge">
<title>utf8&#45;&gt;Any</title>
<path fill="none" stroke="#000000" d="M461.81,-34.58C485.94,-68.09 540.6,-144 540.6,-144 540.6,-144 540.6,-180 540.6,-180 540.6,-180 526.36,-196.06 513.56,-210.49"/>
<polygon fill="#000000" stroke="#000000" points="510.71,-208.43 506.69,-218.24 515.94,-213.08 510.71,-208.43"/>
</g>
<!-- utf8&#45;&gt;Blob -->
<g id="edge25" class="edge">
<title>utf8&#45;&gt;Blob</title>
<path fill="none" stroke="#6666ff" d="M444.79,-35.95C442.05,-43.94 438.71,-53.67 435.65,-62.6"/>
<polygon fill="#6666ff" stroke="#6666ff" points="432.29,-61.62 432.35,-72.21 438.91,-63.89 432.29,-61.62"/>
</g>
<!-- Buf -->
<g id="node20" class="node">
<title>Buf</title>
<g id="a_node20"><a xlink:href="/type/Buf" xlink:title="Buf">
<ellipse fill="none" stroke="#6666ff" cx="378.6" cy="-18" rx="27" ry="18"/>
<text text-anchor="middle" x="378.6" y="-14.3" font-family="FreeSans" font-size="14.00" fill="#6666ff">Buf</text>
</a>
</g>
</g>
<!-- Buf&#45;&gt;Blob -->
<g id="edge26" class="edge">
<title>Buf&#45;&gt;Blob</title>
<path fill="none" stroke="#6666ff" d="M389.49,-34.88C395.57,-43.74 403.26,-54.96 410.06,-64.88"/>
<polygon fill="#6666ff" stroke="#6666ff" points="407.21,-66.91 415.75,-73.18 412.98,-62.95 407.21,-66.91"/>
</g>
</g>
</svg>
