<?xml version="1.0" encoding="UTF-8" standalone="no"?>
<!DOCTYPE svg PUBLIC "-//W3C//DTD SVG 1.1//EN"
 "http://www.w3.org/Graphics/SVG/1.1/DTD/svg11.dtd">
<!-- Generated by graphviz version 2.43.0 (0)
 -->
<!-- Title: raku&#45;type&#45;graph Pages: 1 -->
<svg width="888pt" height="332pt"
 viewBox="0.00 0.00 888.49 332.00" xmlns="http://www.w3.org/2000/svg" xmlns:xlink="http://www.w3.org/1999/xlink">
<g id="graph0" class="graph" transform="scale(1 1) rotate(0) translate(4 328)">
<title>raku&#45;type&#45;graph</title>
<polygon fill="#ffffff" stroke="transparent" points="-4,4 -4,-328 884.49,-328 884.49,4 -4,4"/>
<!-- Positional -->
<g id="node1" class="node">
<title>Positional</title>
<g id="a_node1"><a xlink:href="/type/Positional" xlink:title="Positional">
<ellipse fill="none" stroke="#6666ff" cx="492.25" cy="-162" rx="48.99" ry="18"/>
<text text-anchor="middle" x="492.25" y="-158.3" font-family="FreeSans" font-size="14.00" fill="#6666ff">Positional</text>
</a>
</g>
</g>
<!-- Mu -->
<g id="node2" class="node">
<title>Mu</title>
<g id="a_node2"><a xlink:href="/type/Mu" xlink:title="Mu">
<ellipse fill="none" stroke="#000000" cx="501.25" cy="-306" rx="27" ry="18"/>
<text text-anchor="middle" x="501.25" y="-302.3" font-family="FreeSans" font-size="14.00" fill="#000000">Mu</text>
</a>
</g>
</g>
<!-- Any -->
<g id="node3" class="node">
<title>Any</title>
<g id="a_node3"><a xlink:href="/type/Any" xlink:title="Any">
<ellipse fill="none" stroke="#000000" cx="501.25" cy="-234" rx="27" ry="18"/>
<text text-anchor="middle" x="501.25" y="-230.3" font-family="FreeSans" font-size="14.00" fill="#000000">Any</text>
</a>
</g>
</g>
<!-- Any&#45;&gt;Mu -->
<g id="edge1" class="edge">
<title>Any&#45;&gt;Mu</title>
<path fill="none" stroke="#000000" d="M501.25,-252.3C501.25,-260.02 501.25,-269.29 501.25,-277.89"/>
<polygon fill="#000000" stroke="#000000" points="497.75,-277.9 501.25,-287.9 504.75,-277.9 497.75,-277.9"/>
</g>
<!-- Stringy -->
<g id="node4" class="node">
<title>Stringy</title>
<g id="a_node4"><a xlink:href="/type/Stringy" xlink:title="Stringy">
<ellipse fill="none" stroke="#6666ff" cx="348.25" cy="-162" rx="38.19" ry="18"/>
<text text-anchor="middle" x="348.25" y="-158.3" font-family="FreeSans" font-size="14.00" fill="#6666ff">Stringy</text>
</a>
</g>
</g>
<!-- Uni -->
<g id="node5" class="node">
<title>Uni</title>
<g id="a_node5"><a xlink:href="/type/Uni" xlink:title="Uni">
<ellipse fill="none" stroke="#000000" cx="278.25" cy="-90" rx="27" ry="18"/>
<text text-anchor="middle" x="278.25" y="-86.3" font-family="FreeSans" font-size="14.00" fill="#000000">Uni</text>
</a>
</g>
</g>
<!-- Uni&#45;&gt;Positional -->
<g id="edge14" class="edge">
<title>Uni&#45;&gt;Positional</title>
<path fill="none" stroke="#6666ff" d="M300.72,-100.1C310.71,-104.14 320.25,-108 320.25,-108 320.25,-108 394.98,-131.03 445.93,-146.73"/>
<polygon fill="#6666ff" stroke="#6666ff" points="445.18,-150.16 455.77,-149.76 447.24,-143.47 445.18,-150.16"/>
</g>
<!-- Uni&#45;&gt;Any -->
<g id="edge2" class="edge">
<title>Uni&#45;&gt;Any</title>
<path fill="none" stroke="#000000" d="M282.68,-108.16C289.37,-134.02 301.25,-180 301.25,-180 301.25,-180 409.34,-208.64 466.59,-223.82"/>
<polygon fill="#000000" stroke="#000000" points="465.76,-227.22 476.32,-226.39 467.55,-220.45 465.76,-227.22"/>
</g>
<!-- Uni&#45;&gt;Stringy -->
<g id="edge15" class="edge">
<title>Uni&#45;&gt;Stringy</title>
<path fill="none" stroke="#6666ff" d="M292.75,-105.5C302.12,-114.87 314.52,-127.27 325.22,-137.97"/>
<polygon fill="#6666ff" stroke="#6666ff" points="322.75,-140.45 332.3,-145.05 327.7,-135.5 322.75,-140.45"/>
</g>
<!-- Cool -->
<g id="node6" class="node">
<title>Cool</title>
<g id="a_node6"><a xlink:href="/type/Cool" xlink:title="Cool">
<ellipse fill="none" stroke="#000000" cx="587.25" cy="-162" rx="28.7" ry="18"/>
<text text-anchor="middle" x="587.25" y="-158.3" font-family="FreeSans" font-size="14.00" fill="#000000">Cool</text>
</a>
</g>
</g>
<!-- Cool&#45;&gt;Any -->
<g id="edge3" class="edge">
<title>Cool&#45;&gt;Any</title>
<path fill="none" stroke="#000000" d="M570.26,-176.83C557.49,-187.22 539.82,-201.6 525.56,-213.21"/>
<polygon fill="#000000" stroke="#000000" points="523.17,-210.65 517.62,-219.67 527.58,-216.08 523.17,-210.65"/>
</g>
<!-- Iterable -->
<g id="node7" class="node">
<title>Iterable</title>
<g id="a_node7"><a xlink:href="/type/Iterable" xlink:title="Iterable">
<ellipse fill="none" stroke="#6666ff" cx="674.25" cy="-162" rx="40.09" ry="18"/>
<text text-anchor="middle" x="674.25" y="-158.3" font-family="FreeSans" font-size="14.00" fill="#6666ff">Iterable</text>
</a>
</g>
</g>
<!-- List -->
<g id="node8" class="node">
<title>List</title>
<g id="a_node8"><a xlink:href="/type/List" xlink:title="List">
<ellipse fill="none" stroke="#000000" cx="597.25" cy="-90" rx="27" ry="18"/>
<text text-anchor="middle" x="597.25" y="-86.3" font-family="FreeSans" font-size="14.00" fill="#000000">List</text>
</a>
</g>
</g>
<!-- List&#45;&gt;Positional -->
<g id="edge16" class="edge">
<title>List&#45;&gt;Positional</title>
<path fill="none" stroke="#6666ff" d="M578.48,-103.51C563.17,-113.72 541.22,-128.35 523.3,-140.3"/>
<polygon fill="#6666ff" stroke="#6666ff" points="521.25,-137.46 514.88,-145.91 525.14,-143.28 521.25,-137.46"/>
</g>
<!-- List&#45;&gt;Cool -->
<g id="edge4" class="edge">
<title>List&#45;&gt;Cool</title>
<path fill="none" stroke="#000000" d="M594.83,-107.95C593.73,-115.65 592.39,-124.97 591.16,-133.64"/>
<polygon fill="#000000" stroke="#000000" points="587.66,-133.33 589.72,-143.72 594.59,-134.32 587.66,-133.33"/>
</g>
<!-- List&#45;&gt;Iterable -->
<g id="edge17" class="edge">
<title>List&#45;&gt;Iterable</title>
<path fill="none" stroke="#6666ff" d="M612.83,-105.17C623.43,-114.8 637.67,-127.75 649.77,-138.75"/>
<polygon fill="#6666ff" stroke="#6666ff" points="647.6,-141.5 657.35,-145.64 652.31,-136.32 647.6,-141.5"/>
</g>
<!-- Blob -->
<g id="node9" class="node">
<title>Blob</title>
<g id="a_node9"><a xlink:href="/type/Blob" xlink:title="Blob">
<ellipse fill="none" stroke="#6666ff" cx="358.25" cy="-90" rx="28.7" ry="18"/>
<text text-anchor="middle" x="358.25" y="-86.3" font-family="FreeSans" font-size="14.00" fill="#6666ff">Blob</text>
</a>
</g>
</g>
<!-- Blob&#45;&gt;Positional -->
<g id="edge18" class="edge">
<title>Blob&#45;&gt;Positional</title>
<path fill="none" stroke="#6666ff" d="M379.48,-102.09C400.03,-112.83 431.58,-129.31 456.08,-142.11"/>
<polygon fill="#6666ff" stroke="#6666ff" points="454.61,-145.29 465.09,-146.82 457.85,-139.08 454.61,-145.29"/>
</g>
<!-- Blob&#45;&gt;Stringy -->
<g id="edge19" class="edge">
<title>Blob&#45;&gt;Stringy</title>
<path fill="none" stroke="#6666ff" d="M355.83,-107.95C354.73,-115.65 353.39,-124.97 352.16,-133.64"/>
<polygon fill="#6666ff" stroke="#6666ff" points="348.66,-133.33 350.72,-143.72 355.59,-134.32 348.66,-133.33"/>
</g>
<!-- Range -->
<g id="node10" class="node">
<title>Range</title>
<g id="a_node10"><a xlink:href="/type/Range" xlink:title="Range">
<ellipse fill="none" stroke="#000000" cx="516.25" cy="-90" rx="36.29" ry="18"/>
<text text-anchor="middle" x="516.25" y="-86.3" font-family="FreeSans" font-size="14.00" fill="#000000">Range</text>
</a>
</g>
</g>
<!-- Range&#45;&gt;Positional -->
<g id="edge20" class="edge">
<title>Range&#45;&gt;Positional</title>
<path fill="none" stroke="#6666ff" d="M510.44,-107.95C507.74,-115.82 504.46,-125.38 501.43,-134.21"/>
<polygon fill="#6666ff" stroke="#6666ff" points="498.1,-133.13 498.17,-143.72 504.72,-135.4 498.1,-133.13"/>
</g>
<!-- Range&#45;&gt;Cool -->
<g id="edge5" class="edge">
<title>Range&#45;&gt;Cool</title>
<path fill="none" stroke="#000000" d="M532,-106.54C541.74,-116.13 554.37,-128.58 565.1,-139.16"/>
<polygon fill="#000000" stroke="#000000" points="562.93,-141.94 572.5,-146.46 567.84,-136.95 562.93,-141.94"/>
</g>
<!-- Range&#45;&gt;Iterable -->
<g id="edge21" class="edge">
<title>Range&#45;&gt;Iterable</title>
<path fill="none" stroke="#6666ff" d="M542.34,-102.56C568.17,-114 607.96,-131.63 637.09,-144.54"/>
<polygon fill="#6666ff" stroke="#6666ff" points="635.96,-147.87 646.52,-148.72 638.8,-141.47 635.96,-147.87"/>
</g>
<!-- Associative -->
<g id="node11" class="node">
<title>Associative</title>
<g id="a_node11"><a xlink:href="/type/Associative" xlink:title="Associative">
<ellipse fill="none" stroke="#6666ff" cx="825.25" cy="-162" rx="55.49" ry="18"/>
<text text-anchor="middle" x="825.25" y="-158.3" font-family="FreeSans" font-size="14.00" fill="#6666ff">Associative</text>
</a>
</g>
</g>
<!-- IO::Path::Parts -->
<g id="node12" class="node">
<title>IO::Path::Parts</title>
<g id="a_node12"><a xlink:href="/type/IO::Path::Parts" xlink:title="IO::Path::Parts">
<ellipse fill="none" stroke="#000000" cx="731.25" cy="-90" rx="68.79" ry="18"/>
<text text-anchor="middle" x="731.25" y="-86.3" font-family="FreeSans" font-size="14.00" fill="#000000">IO::Path::Parts</text>
</a>
</g>
</g>
<!-- IO::Path::Parts&#45;&gt;Positional -->
<g id="edge22" class="edge">
<title>IO::Path::Parts&#45;&gt;Positional</title>
<path fill="none" stroke="#6666ff" d="M686.73,-103.97C632.84,-119.66 549.25,-144 549.25,-144 549.25,-144 544.89,-145.3 538.58,-147.18"/>
<polygon fill="#6666ff" stroke="#6666ff" points="537.57,-143.83 528.99,-150.04 539.57,-150.54 537.57,-143.83"/>
</g>
<!-- IO::Path::Parts&#45;&gt;Any -->
<g id="edge6" class="edge">
<title>IO::Path::Parts&#45;&gt;Any</title>
<path fill="none" stroke="#000000" d="M729.7,-108.16C727.38,-134.02 723.25,-180 723.25,-180 723.25,-180 598.6,-209.76 536.11,-224.68"/>
<polygon fill="#000000" stroke="#000000" points="535.2,-221.3 526.28,-227.02 536.82,-228.11 535.2,-221.3"/>
</g>
<!-- IO::Path::Parts&#45;&gt;Iterable -->
<g id="edge24" class="edge">
<title>IO::Path::Parts&#45;&gt;Iterable</title>
<path fill="none" stroke="#6666ff" d="M717.45,-107.95C710.42,-116.58 701.74,-127.24 694.01,-136.73"/>
<polygon fill="#6666ff" stroke="#6666ff" points="691.13,-134.73 687.53,-144.69 696.55,-139.15 691.13,-134.73"/>
</g>
<!-- IO::Path::Parts&#45;&gt;Associative -->
<g id="edge23" class="edge">
<title>IO::Path::Parts&#45;&gt;Associative</title>
<path fill="none" stroke="#6666ff" d="M753.05,-107.24C765.8,-116.73 782.08,-128.85 795.94,-139.18"/>
<polygon fill="#6666ff" stroke="#6666ff" points="794.1,-142.17 804.21,-145.33 798.28,-136.55 794.1,-142.17"/>
</g>
<!-- NFD -->
<g id="node13" class="node">
<title>NFD</title>
<g id="a_node13"><a xlink:href="/type/NFD" xlink:title="NFD">
<ellipse fill="none" stroke="#000000" cx="29.25" cy="-18" rx="29.5" ry="18"/>
<text text-anchor="middle" x="29.25" y="-14.3" font-family="FreeSans" font-size="14.00" fill="#000000">NFD</text>
</a>
</g>
</g>
<!-- NFD&#45;&gt;Uni -->
<g id="edge7" class="edge">
<title>NFD&#45;&gt;Uni</title>
<path fill="none" stroke="#000000" d="M52.23,-29.28C60.23,-32.86 67.25,-36 67.25,-36 67.25,-36 183.48,-65.2 243.41,-80.25"/>
<polygon fill="#000000" stroke="#000000" points="242.66,-83.67 253.21,-82.71 244.37,-76.88 242.66,-83.67"/>
</g>
<!-- NFKD -->
<g id="node14" class="node">
<title>NFKD</title>
<g id="a_node14"><a xlink:href="/type/NFKD" xlink:title="NFKD">
<ellipse fill="none" stroke="#000000" cx="112.25" cy="-18" rx="36" ry="18"/>
<text text-anchor="middle" x="112.25" y="-14.3" font-family="FreeSans" font-size="14.00" fill="#000000">NFKD</text>
</a>
</g>
</g>
<!-- NFKD&#45;&gt;Uni -->
<g id="edge8" class="edge">
<title>NFKD&#45;&gt;Uni</title>
<path fill="none" stroke="#000000" d="M138.92,-30.25C168.19,-42.59 215.17,-62.4 246.37,-75.56"/>
<polygon fill="#000000" stroke="#000000" points="245.33,-78.92 255.9,-79.58 248.05,-72.47 245.33,-78.92"/>
</g>
<!-- NFC -->
<g id="node15" class="node">
<title>NFC</title>
<g id="a_node15"><a xlink:href="/type/NFC" xlink:title="NFC">
<ellipse fill="none" stroke="#000000" cx="195.25" cy="-18" rx="29.5" ry="18"/>
<text text-anchor="middle" x="195.25" y="-14.3" font-family="FreeSans" font-size="14.00" fill="#000000">NFC</text>
</a>
</g>
</g>
<!-- NFC&#45;&gt;Uni -->
<g id="edge9" class="edge">
<title>NFC&#45;&gt;Uni</title>
<path fill="none" stroke="#000000" d="M212.04,-33.17C224.13,-43.36 240.6,-57.25 254.09,-68.63"/>
<polygon fill="#000000" stroke="#000000" points="252.14,-71.56 262.04,-75.33 256.65,-66.21 252.14,-71.56"/>
</g>
<!-- NFKC -->
<g id="node16" class="node">
<title>NFKC</title>
<g id="a_node16"><a xlink:href="/type/NFKC" xlink:title="NFKC">
<ellipse fill="none" stroke="#000000" cx="278.25" cy="-18" rx="36" ry="18"/>
<text text-anchor="middle" x="278.25" y="-14.3" font-family="FreeSans" font-size="14.00" fill="#000000">NFKC</text>
</a>
</g>
</g>
<!-- NFKC&#45;&gt;Uni -->
<g id="edge10" class="edge">
<title>NFKC&#45;&gt;Uni</title>
<path fill="none" stroke="#000000" d="M278.25,-36.3C278.25,-44.02 278.25,-53.29 278.25,-61.89"/>
<polygon fill="#000000" stroke="#000000" points="274.75,-61.9 278.25,-71.9 281.75,-61.9 274.75,-61.9"/>
</g>
<!-- Slip -->
<g id="node17" class="node">
<title>Slip</title>
<g id="a_node17"><a xlink:href="/type/Slip" xlink:title="Slip">
<ellipse fill="none" stroke="#000000" cx="559.25" cy="-18" rx="27" ry="18"/>
<text text-anchor="middle" x="559.25" y="-14.3" font-family="FreeSans" font-size="14.00" fill="#000000">Slip</text>
</a>
</g>
</g>
<!-- Slip&#45;&gt;List -->
<g id="edge11" class="edge">
<title>Slip&#45;&gt;List</title>
<path fill="none" stroke="#000000" d="M568.06,-35.24C572.67,-43.72 578.4,-54.29 583.57,-63.8"/>
<polygon fill="#000000" stroke="#000000" points="580.63,-65.73 588.48,-72.85 586.79,-62.39 580.63,-65.73"/>
</g>
<!-- Array -->
<g id="node18" class="node">
<title>Array</title>
<g id="a_node18"><a xlink:href="/type/Array" xlink:title="Array">
<ellipse fill="none" stroke="#000000" cx="636.25" cy="-18" rx="31.7" ry="18"/>
<text text-anchor="middle" x="636.25" y="-14.3" font-family="FreeSans" font-size="14.00" fill="#000000">Array</text>
</a>
</g>
</g>
<!-- Array&#45;&gt;List -->
<g id="edge12" class="edge">
<title>Array&#45;&gt;List</title>
<path fill="none" stroke="#000000" d="M627,-35.59C622.34,-43.96 616.59,-54.29 611.38,-63.63"/>
<polygon fill="#000000" stroke="#000000" points="608.23,-62.09 606.42,-72.53 614.35,-65.5 608.23,-62.09"/>
</g>
<!-- utf8 -->
<g id="node19" class="node">
<title>utf8</title>
<g id="a_node19"><a xlink:href="/type/utf8" xlink:title="utf8">
<ellipse fill="none" stroke="#000000" cx="431.25" cy="-18" rx="27" ry="18"/>
<text text-anchor="middle" x="431.25" y="-14.3" font-family="FreeSans" font-size="14.00" fill="#000000">utf8</text>
</a>
</g>
</g>
<!-- utf8&#45;&gt;Any -->
<g id="edge13" class="edge">
<title>utf8&#45;&gt;Any</title>
<path fill="none" stroke="#000000" d="M431.57,-36.23C432.34,-77.76 434.25,-180 434.25,-180 434.25,-180 457.4,-198.32 476.49,-213.42"/>
<polygon fill="#000000" stroke="#000000" points="474.33,-216.17 484.34,-219.63 478.67,-210.68 474.33,-216.17"/>
</g>
<!-- utf8&#45;&gt;Blob -->
<g id="edge25" class="edge">
<title>utf8&#45;&gt;Blob</title>
<path fill="none" stroke="#6666ff" d="M416.47,-33.17C406.15,-43.06 392.19,-56.45 380.52,-67.64"/>
<polygon fill="#6666ff" stroke="#6666ff" points="378.04,-65.17 373.25,-74.62 382.89,-70.22 378.04,-65.17"/>
</g>
<!-- Buf -->
<g id="node20" class="node">
<title>Buf</title>
<g id="a_node20"><a xlink:href="/type/Buf" xlink:title="Buf">
<ellipse fill="none" stroke="#6666ff" cx="359.25" cy="-18" rx="27" ry="18"/>
<text text-anchor="middle" x="359.25" y="-14.3" font-family="FreeSans" font-size="14.00" fill="#6666ff">Buf</text>
</a>
</g>
</g>
<!-- Buf&#45;&gt;Blob -->
<g id="edge26" class="edge">
<title>Buf&#45;&gt;Blob</title>
<path fill="none" stroke="#6666ff" d="M359,-36.3C358.89,-44.02 358.76,-53.29 358.63,-61.89"/>
<polygon fill="#6666ff" stroke="#6666ff" points="355.14,-61.85 358.49,-71.9 362.13,-61.95 355.14,-61.85"/>
</g>
</g>
</svg>
