<?xml version="1.0" encoding="UTF-8" standalone="no"?>
<!DOCTYPE svg PUBLIC "-//W3C//DTD SVG 1.1//EN"
 "http://www.w3.org/Graphics/SVG/1.1/DTD/svg11.dtd">
<!-- Generated by graphviz version 2.43.0 (0)
 -->
<!-- Title: raku&#45;type&#45;graph Pages: 1 -->
<svg width="504pt" height="332pt"
 viewBox="0.00 0.00 504.44 332.00" xmlns="http://www.w3.org/2000/svg" xmlns:xlink="http://www.w3.org/1999/xlink">
<g id="graph0" class="graph" transform="scale(1 1) rotate(0) translate(4 328)">
<title>raku&#45;type&#45;graph</title>
<polygon fill="#ffffff" stroke="transparent" points="-4,4 -4,-328 500.44,-328 500.44,4 -4,4"/>
<!-- QuantHash -->
<g id="node1" class="node">
<title>QuantHash</title>
<g id="a_node1"><a xlink:href="/type/QuantHash" xlink:title="QuantHash">
<ellipse fill="none" stroke="#6666ff" cx="129.2" cy="-234" rx="55.79" ry="18"/>
<text text-anchor="middle" x="129.2" y="-230.3" font-family="FreeSans" font-size="14.00" fill="#6666ff">QuantHash</text>
</a>
</g>
</g>
<!-- Associative -->
<g id="node2" class="node">
<title>Associative</title>
<g id="a_node2"><a xlink:href="/type/Associative" xlink:title="Associative">
<ellipse fill="none" stroke="#6666ff" cx="129.2" cy="-306" rx="55.49" ry="18"/>
<text text-anchor="middle" x="129.2" y="-302.3" font-family="FreeSans" font-size="14.00" fill="#6666ff">Associative</text>
</a>
</g>
</g>
<!-- QuantHash&#45;&gt;Associative -->
<g id="edge8" class="edge">
<title>QuantHash&#45;&gt;Associative</title>
<path fill="none" stroke="#6666ff" d="M129.2,-252.3C129.2,-260.02 129.2,-269.29 129.2,-277.89"/>
<polygon fill="#6666ff" stroke="#6666ff" points="125.7,-277.9 129.2,-287.9 132.7,-277.9 125.7,-277.9"/>
</g>
<!-- Setty -->
<g id="node3" class="node">
<title>Setty</title>
<g id="a_node3"><a xlink:href="/type/Setty" xlink:title="Setty">
<ellipse fill="none" stroke="#6666ff" cx="129.2" cy="-162" rx="30.59" ry="18"/>
<text text-anchor="middle" x="129.2" y="-158.3" font-family="FreeSans" font-size="14.00" fill="#6666ff">Setty</text>
</a>
</g>
</g>
<!-- Setty&#45;&gt;QuantHash -->
<g id="edge9" class="edge">
<title>Setty&#45;&gt;QuantHash</title>
<path fill="none" stroke="#6666ff" d="M129.2,-180.3C129.2,-188.02 129.2,-197.29 129.2,-205.89"/>
<polygon fill="#6666ff" stroke="#6666ff" points="125.7,-205.9 129.2,-215.9 132.7,-205.9 125.7,-205.9"/>
</g>
<!-- Baggy -->
<g id="node4" class="node">
<title>Baggy</title>
<g id="a_node4"><a xlink:href="/type/Baggy" xlink:title="Baggy">
<ellipse fill="none" stroke="#6666ff" cx="350.2" cy="-162" rx="36" ry="18"/>
<text text-anchor="middle" x="350.2" y="-158.3" font-family="FreeSans" font-size="14.00" fill="#6666ff">Baggy</text>
</a>
</g>
</g>
<!-- Baggy&#45;&gt;QuantHash -->
<g id="edge10" class="edge">
<title>Baggy&#45;&gt;QuantHash</title>
<path fill="none" stroke="#6666ff" d="M320.85,-172.3C284.17,-183.91 220.91,-203.95 177.15,-217.81"/>
<polygon fill="#6666ff" stroke="#6666ff" points="176.06,-214.49 167.58,-220.84 178.17,-221.16 176.06,-214.49"/>
</g>
<!-- Mu -->
<g id="node5" class="node">
<title>Mu</title>
<g id="a_node5"><a xlink:href="/type/Mu" xlink:title="Mu">
<ellipse fill="none" stroke="#000000" cx="230.2" cy="-234" rx="27" ry="18"/>
<text text-anchor="middle" x="230.2" y="-230.3" font-family="FreeSans" font-size="14.00" fill="#000000">Mu</text>
</a>
</g>
</g>
<!-- Any -->
<g id="node6" class="node">
<title>Any</title>
<g id="a_node6"><a xlink:href="/type/Any" xlink:title="Any">
<ellipse fill="none" stroke="#000000" cx="226.2" cy="-162" rx="27" ry="18"/>
<text text-anchor="middle" x="226.2" y="-158.3" font-family="FreeSans" font-size="14.00" fill="#000000">Any</text>
</a>
</g>
</g>
<!-- Any&#45;&gt;Mu -->
<g id="edge1" class="edge">
<title>Any&#45;&gt;Mu</title>
<path fill="none" stroke="#000000" d="M227.18,-180.3C227.63,-188.02 228.16,-197.29 228.65,-205.89"/>
<polygon fill="#000000" stroke="#000000" points="225.15,-206.11 229.22,-215.9 232.14,-205.71 225.15,-206.11"/>
</g>
<!-- SetHash -->
<g id="node7" class="node">
<title>SetHash</title>
<g id="a_node7"><a xlink:href="/type/SetHash" xlink:title="SetHash">
<ellipse fill="none" stroke="#000000" cx="44.2" cy="-90" rx="44.39" ry="18"/>
<text text-anchor="middle" x="44.2" y="-86.3" font-family="FreeSans" font-size="14.00" fill="#000000">SetHash</text>
</a>
</g>
</g>
<!-- SetHash&#45;&gt;Setty -->
<g id="edge11" class="edge">
<title>SetHash&#45;&gt;Setty</title>
<path fill="none" stroke="#6666ff" d="M63.06,-106.54C75.21,-116.54 91.14,-129.66 104.32,-140.52"/>
<polygon fill="#6666ff" stroke="#6666ff" points="102.17,-143.28 112.12,-146.93 106.62,-137.88 102.17,-143.28"/>
</g>
<!-- SetHash&#45;&gt;Any -->
<g id="edge2" class="edge">
<title>SetHash&#45;&gt;Any</title>
<path fill="none" stroke="#000000" d="M75.48,-103.03C108.46,-115.72 160.16,-135.6 193.61,-148.47"/>
<polygon fill="#000000" stroke="#000000" points="192.78,-151.9 203.37,-152.22 195.29,-145.36 192.78,-151.9"/>
</g>
<!-- Set -->
<g id="node8" class="node">
<title>Set</title>
<g id="a_node8"><a xlink:href="/type/Set" xlink:title="Set">
<ellipse fill="none" stroke="#000000" cx="133.2" cy="-90" rx="27" ry="18"/>
<text text-anchor="middle" x="133.2" y="-86.3" font-family="FreeSans" font-size="14.00" fill="#000000">Set</text>
</a>
</g>
</g>
<!-- Set&#45;&gt;Setty -->
<g id="edge12" class="edge">
<title>Set&#45;&gt;Setty</title>
<path fill="none" stroke="#6666ff" d="M132.21,-108.3C131.77,-116.02 131.24,-125.29 130.75,-133.89"/>
<polygon fill="#6666ff" stroke="#6666ff" points="127.25,-133.71 130.17,-143.9 134.24,-134.11 127.25,-133.71"/>
</g>
<!-- Set&#45;&gt;Any -->
<g id="edge3" class="edge">
<title>Set&#45;&gt;Any</title>
<path fill="none" stroke="#000000" d="M150.69,-104.17C164.72,-114.73 184.61,-129.7 200.46,-141.63"/>
<polygon fill="#000000" stroke="#000000" points="198.69,-144.68 208.78,-147.89 202.9,-139.08 198.69,-144.68"/>
</g>
<!-- Bag -->
<g id="node9" class="node">
<title>Bag</title>
<g id="a_node9"><a xlink:href="/type/Bag" xlink:title="Bag">
<ellipse fill="none" stroke="#000000" cx="393.2" cy="-90" rx="27" ry="18"/>
<text text-anchor="middle" x="393.2" y="-86.3" font-family="FreeSans" font-size="14.00" fill="#000000">Bag</text>
</a>
</g>
</g>
<!-- Bag&#45;&gt;Baggy -->
<g id="edge13" class="edge">
<title>Bag&#45;&gt;Baggy</title>
<path fill="none" stroke="#6666ff" d="M383.44,-106.88C378.13,-115.53 371.44,-126.42 365.45,-136.17"/>
<polygon fill="#6666ff" stroke="#6666ff" points="362.47,-134.34 360.21,-144.69 368.43,-138 362.47,-134.34"/>
</g>
<!-- Bag&#45;&gt;Any -->
<g id="edge4" class="edge">
<title>Bag&#45;&gt;Any</title>
<path fill="none" stroke="#000000" d="M371.84,-101.09C364.09,-104.75 357.2,-108 357.2,-108 357.2,-108 296.83,-132.42 258.06,-148.11"/>
<polygon fill="#000000" stroke="#000000" points="256.67,-144.89 248.72,-151.89 259.3,-151.38 256.67,-144.89"/>
</g>
<!-- Mixy -->
<g id="node10" class="node">
<title>Mixy</title>
<g id="a_node10"><a xlink:href="/type/Mixy" xlink:title="Mixy">
<ellipse fill="none" stroke="#6666ff" cx="467.2" cy="-90" rx="29.5" ry="18"/>
<text text-anchor="middle" x="467.2" y="-86.3" font-family="FreeSans" font-size="14.00" fill="#6666ff">Mixy</text>
</a>
</g>
</g>
<!-- Mixy&#45;&gt;Baggy -->
<g id="edge14" class="edge">
<title>Mixy&#45;&gt;Baggy</title>
<path fill="none" stroke="#6666ff" d="M446.82,-103.19C428.68,-114.04 401.89,-130.07 381.11,-142.5"/>
<polygon fill="#6666ff" stroke="#6666ff" points="379.12,-139.62 372.33,-147.76 382.71,-145.63 379.12,-139.62"/>
</g>
<!-- BagHash -->
<g id="node11" class="node">
<title>BagHash</title>
<g id="a_node11"><a xlink:href="/type/BagHash" xlink:title="BagHash">
<ellipse fill="none" stroke="#000000" cx="301.2" cy="-90" rx="46.59" ry="18"/>
<text text-anchor="middle" x="301.2" y="-86.3" font-family="FreeSans" font-size="14.00" fill="#000000">BagHash</text>
</a>
</g>
</g>
<!-- BagHash&#45;&gt;Baggy -->
<g id="edge15" class="edge">
<title>BagHash&#45;&gt;Baggy</title>
<path fill="none" stroke="#6666ff" d="M312.81,-107.59C318.79,-116.13 326.2,-126.72 332.84,-136.21"/>
<polygon fill="#6666ff" stroke="#6666ff" points="330.07,-138.34 338.67,-144.53 335.8,-134.33 330.07,-138.34"/>
</g>
<!-- BagHash&#45;&gt;Any -->
<g id="edge5" class="edge">
<title>BagHash&#45;&gt;Any</title>
<path fill="none" stroke="#000000" d="M284.18,-106.88C273.78,-116.59 260.36,-129.11 249.05,-139.67"/>
<polygon fill="#000000" stroke="#000000" points="246.54,-137.23 241.62,-146.61 251.32,-142.34 246.54,-137.23"/>
</g>
<!-- MixHash -->
<g id="node12" class="node">
<title>MixHash</title>
<g id="a_node12"><a xlink:href="/type/MixHash" xlink:title="MixHash">
<ellipse fill="none" stroke="#000000" cx="419.2" cy="-18" rx="45.49" ry="18"/>
<text text-anchor="middle" x="419.2" y="-14.3" font-family="FreeSans" font-size="14.00" fill="#000000">MixHash</text>
</a>
</g>
</g>
<!-- MixHash&#45;&gt;Any -->
<g id="edge6" class="edge">
<title>MixHash&#45;&gt;Any</title>
<path fill="none" stroke="#000000" d="M384.4,-29.6C333.63,-45.06 245.2,-72 245.2,-72 245.2,-72 237.55,-107.83 231.95,-134.03"/>
<polygon fill="#000000" stroke="#000000" points="228.52,-133.33 229.86,-143.84 235.37,-134.79 228.52,-133.33"/>
</g>
<!-- MixHash&#45;&gt;Mixy -->
<g id="edge16" class="edge">
<title>MixHash&#45;&gt;Mixy</title>
<path fill="none" stroke="#6666ff" d="M430.57,-35.59C436.51,-44.26 443.9,-55.03 450.48,-64.62"/>
<polygon fill="#6666ff" stroke="#6666ff" points="447.69,-66.74 456.23,-73.01 453.46,-62.79 447.69,-66.74"/>
</g>
<!-- Mix -->
<g id="node13" class="node">
<title>Mix</title>
<g id="a_node13"><a xlink:href="/type/Mix" xlink:title="Mix">
<ellipse fill="none" stroke="#000000" cx="282.2" cy="-18" rx="27" ry="18"/>
<text text-anchor="middle" x="282.2" y="-14.3" font-family="FreeSans" font-size="14.00" fill="#000000">Mix</text>
</a>
</g>
</g>
<!-- Mix&#45;&gt;Any -->
<g id="edge7" class="edge">
<title>Mix&#45;&gt;Any</title>
<path fill="none" stroke="#000000" d="M264.89,-32.1C244.16,-47.8 212.2,-72 212.2,-72 212.2,-72 212.2,-108 212.2,-108 212.2,-108 215.67,-121.15 219.16,-134.34"/>
<polygon fill="#000000" stroke="#000000" points="215.83,-135.46 221.77,-144.23 222.6,-133.67 215.83,-135.46"/>
</g>
<!-- Mix&#45;&gt;Mixy -->
<g id="edge17" class="edge">
<title>Mix&#45;&gt;Mixy</title>
<path fill="none" stroke="#6666ff" d="M305.49,-27.4C346.94,-42.34 429.2,-72 429.2,-72 429.2,-72 431.54,-73.05 435.07,-74.63"/>
<polygon fill="#6666ff" stroke="#6666ff" points="433.66,-77.83 444.21,-78.72 436.52,-71.44 433.66,-77.83"/>
</g>
</g>
</svg>
