<?xml version="1.0" encoding="UTF-8" standalone="no"?>
<!DOCTYPE svg PUBLIC "-//W3C//DTD SVG 1.1//EN"
 "http://www.w3.org/Graphics/SVG/1.1/DTD/svg11.dtd">
<!-- Generated by graphviz version 2.43.0 (0)
 -->
<!-- Title: raku&#45;type&#45;graph Pages: 1 -->
<svg width="267pt" height="404pt"
 viewBox="0.00 0.00 267.24 404.00" xmlns="http://www.w3.org/2000/svg" xmlns:xlink="http://www.w3.org/1999/xlink">
<g id="graph0" class="graph" transform="scale(1 1) rotate(0) translate(4 400)">
<title>raku&#45;type&#45;graph</title>
<polygon fill="#ffffff" stroke="transparent" points="-4,4 -4,-400 263.24,-400 263.24,4 -4,4"/>
<!-- Rational -->
<g id="node1" class="node">
<title>Rational</title>
<g id="a_node1"><a xlink:href="/type/Rational" xlink:title="Rational">
<ellipse fill="none" stroke="#6666ff" cx="44.2" cy="-234" rx="42.79" ry="18"/>
<text text-anchor="middle" x="44.2" y="-230.3" font-family="FreeSans" font-size="14.00" fill="#6666ff">Rational</text>
</a>
</g>
</g>
<!-- Real -->
<g id="node3" class="node">
<title>Real</title>
<g id="a_node3"><a xlink:href="/type/Real" xlink:title="Real">
<ellipse fill="none" stroke="#6666ff" cx="44.2" cy="-306" rx="28.7" ry="18"/>
<text text-anchor="middle" x="44.2" y="-302.3" font-family="FreeSans" font-size="14.00" fill="#6666ff">Real</text>
</a>
</g>
</g>
<!-- Rational&#45;&gt;Real -->
<g id="edge9" class="edge">
<title>Rational&#45;&gt;Real</title>
<path fill="none" stroke="#6666ff" d="M44.2,-252.3C44.2,-260.02 44.2,-269.29 44.2,-277.89"/>
<polygon fill="#6666ff" stroke="#6666ff" points="40.7,-277.9 44.2,-287.9 47.7,-277.9 40.7,-277.9"/>
</g>
<!-- Numeric -->
<g id="node2" class="node">
<title>Numeric</title>
<g id="a_node2"><a xlink:href="/type/Numeric" xlink:title="Numeric">
<ellipse fill="none" stroke="#6666ff" cx="44.2" cy="-378" rx="44.39" ry="18"/>
<text text-anchor="middle" x="44.2" y="-374.3" font-family="FreeSans" font-size="14.00" fill="#6666ff">Numeric</text>
</a>
</g>
</g>
<!-- Real&#45;&gt;Numeric -->
<g id="edge10" class="edge">
<title>Real&#45;&gt;Numeric</title>
<path fill="none" stroke="#6666ff" d="M44.2,-324.3C44.2,-332.02 44.2,-341.29 44.2,-349.89"/>
<polygon fill="#6666ff" stroke="#6666ff" points="40.7,-349.9 44.2,-359.9 47.7,-349.9 40.7,-349.9"/>
</g>
<!-- Mu -->
<g id="node4" class="node">
<title>Mu</title>
<g id="a_node4"><a xlink:href="/type/Mu" xlink:title="Mu">
<ellipse fill="none" stroke="#000000" cx="133.2" cy="-378" rx="27" ry="18"/>
<text text-anchor="middle" x="133.2" y="-374.3" font-family="FreeSans" font-size="14.00" fill="#000000">Mu</text>
</a>
</g>
</g>
<!-- Any -->
<g id="node5" class="node">
<title>Any</title>
<g id="a_node5"><a xlink:href="/type/Any" xlink:title="Any">
<ellipse fill="none" stroke="#000000" cx="133.2" cy="-306" rx="27" ry="18"/>
<text text-anchor="middle" x="133.2" y="-302.3" font-family="FreeSans" font-size="14.00" fill="#000000">Any</text>
</a>
</g>
</g>
<!-- Any&#45;&gt;Mu -->
<g id="edge1" class="edge">
<title>Any&#45;&gt;Mu</title>
<path fill="none" stroke="#000000" d="M133.2,-324.3C133.2,-332.02 133.2,-341.29 133.2,-349.89"/>
<polygon fill="#000000" stroke="#000000" points="129.7,-349.9 133.2,-359.9 136.7,-349.9 129.7,-349.9"/>
</g>
<!-- Cool -->
<g id="node6" class="node">
<title>Cool</title>
<g id="a_node6"><a xlink:href="/type/Cool" xlink:title="Cool">
<ellipse fill="none" stroke="#000000" cx="133.2" cy="-234" rx="28.7" ry="18"/>
<text text-anchor="middle" x="133.2" y="-230.3" font-family="FreeSans" font-size="14.00" fill="#000000">Cool</text>
</a>
</g>
</g>
<!-- Cool&#45;&gt;Any -->
<g id="edge2" class="edge">
<title>Cool&#45;&gt;Any</title>
<path fill="none" stroke="#000000" d="M133.2,-252.3C133.2,-260.02 133.2,-269.29 133.2,-277.89"/>
<polygon fill="#000000" stroke="#000000" points="129.7,-277.9 133.2,-287.9 136.7,-277.9 129.7,-277.9"/>
</g>
<!-- Rat -->
<g id="node7" class="node">
<title>Rat</title>
<g id="a_node7"><a xlink:href="/type/Rat" xlink:title="Rat">
<ellipse fill="none" stroke="#000000" cx="131.2" cy="-162" rx="27" ry="18"/>
<text text-anchor="middle" x="131.2" y="-158.3" font-family="FreeSans" font-size="14.00" fill="#000000">Rat</text>
</a>
</g>
</g>
<!-- Rat&#45;&gt;Rational -->
<g id="edge11" class="edge">
<title>Rat&#45;&gt;Rational</title>
<path fill="none" stroke="#6666ff" d="M114.42,-176.5C102.2,-186.33 85.39,-199.85 71.28,-211.21"/>
<polygon fill="#6666ff" stroke="#6666ff" points="68.94,-208.6 63.34,-217.59 73.33,-214.05 68.94,-208.6"/>
</g>
<!-- Rat&#45;&gt;Cool -->
<g id="edge3" class="edge">
<title>Rat&#45;&gt;Cool</title>
<path fill="none" stroke="#000000" d="M131.69,-180.3C131.91,-188.02 132.18,-197.29 132.42,-205.89"/>
<polygon fill="#000000" stroke="#000000" points="128.92,-206 132.71,-215.9 135.92,-205.8 128.92,-206"/>
</g>
<!-- FatRat -->
<g id="node8" class="node">
<title>FatRat</title>
<g id="a_node8"><a xlink:href="/type/FatRat" xlink:title="FatRat">
<ellipse fill="none" stroke="#000000" cx="47.2" cy="-162" rx="37.09" ry="18"/>
<text text-anchor="middle" x="47.2" y="-158.3" font-family="FreeSans" font-size="14.00" fill="#000000">FatRat</text>
</a>
</g>
</g>
<!-- FatRat&#45;&gt;Rational -->
<g id="edge12" class="edge">
<title>FatRat&#45;&gt;Rational</title>
<path fill="none" stroke="#6666ff" d="M46.45,-180.3C46.12,-188.02 45.73,-197.29 45.36,-205.89"/>
<polygon fill="#6666ff" stroke="#6666ff" points="41.86,-205.75 44.93,-215.9 48.85,-206.05 41.86,-205.75"/>
</g>
<!-- FatRat&#45;&gt;Cool -->
<g id="edge4" class="edge">
<title>FatRat&#45;&gt;Cool</title>
<path fill="none" stroke="#000000" d="M65.43,-177.85C77.93,-188.02 94.65,-201.63 108.36,-212.79"/>
<polygon fill="#000000" stroke="#000000" points="106.48,-215.76 116.44,-219.36 110.9,-210.34 106.48,-215.76"/>
</g>
<!-- Stringy -->
<g id="node9" class="node">
<title>Stringy</title>
<g id="a_node9"><a xlink:href="/type/Stringy" xlink:title="Stringy">
<ellipse fill="none" stroke="#6666ff" cx="218.2" cy="-234" rx="38.19" ry="18"/>
<text text-anchor="middle" x="218.2" y="-230.3" font-family="FreeSans" font-size="14.00" fill="#6666ff">Stringy</text>
</a>
</g>
</g>
<!-- Str -->
<g id="node10" class="node">
<title>Str</title>
<g id="a_node10"><a xlink:href="/type/Str" xlink:title="Str">
<ellipse fill="none" stroke="#000000" cx="209.2" cy="-162" rx="27" ry="18"/>
<text text-anchor="middle" x="209.2" y="-158.3" font-family="FreeSans" font-size="14.00" fill="#000000">Str</text>
</a>
</g>
</g>
<!-- Str&#45;&gt;Cool -->
<g id="edge5" class="edge">
<title>Str&#45;&gt;Cool</title>
<path fill="none" stroke="#000000" d="M193.82,-177.17C183.07,-187.06 168.53,-200.45 156.39,-211.64"/>
<polygon fill="#000000" stroke="#000000" points="153.8,-209.27 148.81,-218.62 158.54,-214.41 153.8,-209.27"/>
</g>
<!-- Str&#45;&gt;Stringy -->
<g id="edge13" class="edge">
<title>Str&#45;&gt;Stringy</title>
<path fill="none" stroke="#6666ff" d="M211.37,-179.95C212.37,-187.65 213.56,-196.97 214.68,-205.64"/>
<polygon fill="#6666ff" stroke="#6666ff" points="211.23,-206.25 215.97,-215.72 218.17,-205.36 211.23,-206.25"/>
</g>
<!-- Allomorph -->
<g id="node11" class="node">
<title>Allomorph</title>
<g id="a_node11"><a xlink:href="/type/Allomorph" xlink:title="Allomorph">
<ellipse fill="none" stroke="#000000" cx="209.2" cy="-90" rx="50.09" ry="18"/>
<text text-anchor="middle" x="209.2" y="-86.3" font-family="FreeSans" font-size="14.00" fill="#000000">Allomorph</text>
</a>
</g>
</g>
<!-- Allomorph&#45;&gt;Str -->
<g id="edge6" class="edge">
<title>Allomorph&#45;&gt;Str</title>
<path fill="none" stroke="#000000" d="M209.2,-108.3C209.2,-116.02 209.2,-125.29 209.2,-133.89"/>
<polygon fill="#000000" stroke="#000000" points="205.7,-133.9 209.2,-143.9 212.7,-133.9 205.7,-133.9"/>
</g>
<!-- RatStr -->
<g id="node12" class="node">
<title>RatStr</title>
<g id="a_node12"><a xlink:href="/type/RatStr" xlink:title="RatStr">
<ellipse fill="none" stroke="#000000" cx="170.2" cy="-18" rx="36" ry="18"/>
<text text-anchor="middle" x="170.2" y="-14.3" font-family="FreeSans" font-size="14.00" fill="#000000">RatStr</text>
</a>
</g>
</g>
<!-- RatStr&#45;&gt;Rat -->
<g id="edge8" class="edge">
<title>RatStr&#45;&gt;Rat</title>
<path fill="none" stroke="#000000" d="M163.87,-35.77C158.01,-51.3 150.2,-72 150.2,-72 150.2,-72 142.55,-107.83 136.95,-134.03"/>
<polygon fill="#000000" stroke="#000000" points="133.52,-133.33 134.86,-143.84 140.37,-134.79 133.52,-133.33"/>
</g>
<!-- RatStr&#45;&gt;Allomorph -->
<g id="edge7" class="edge">
<title>RatStr&#45;&gt;Allomorph</title>
<path fill="none" stroke="#000000" d="M179.44,-35.59C184.03,-43.84 189.69,-53.99 194.83,-63.22"/>
<polygon fill="#000000" stroke="#000000" points="191.82,-65.01 199.75,-72.04 197.94,-61.6 191.82,-65.01"/>
</g>
</g>
</svg>
