<?xml version="1.0" encoding="UTF-8" standalone="no"?>
<!DOCTYPE svg PUBLIC "-//W3C//DTD SVG 1.1//EN"
 "http://www.w3.org/Graphics/SVG/1.1/DTD/svg11.dtd">
<!-- Generated by graphviz version 2.43.0 (0)
 -->
<!-- Title: raku&#45;type&#45;graph Pages: 1 -->
<svg width="1028pt" height="404pt"
 viewBox="0.00 0.00 1027.64 404.00" xmlns="http://www.w3.org/2000/svg" xmlns:xlink="http://www.w3.org/1999/xlink">
<g id="graph0" class="graph" transform="scale(1 1) rotate(0) translate(4 400)">
<title>raku&#45;type&#45;graph</title>
<polygon fill="#ffffff" stroke="transparent" points="-4,4 -4,-400 1023.64,-400 1023.64,4 -4,4"/>
<!-- Real -->
<g id="node1" class="node">
<title>Real</title>
<g id="a_node1"><a xlink:href="/type/Real" xlink:title="Real">
<ellipse fill="none" stroke="#6666ff" cx="577.6" cy="-234" rx="28.7" ry="18"/>
<text text-anchor="middle" x="577.6" y="-230.3" font-family="FreeSans" font-size="14.00" fill="#6666ff">Real</text>
</a>
</g>
</g>
<!-- Numeric -->
<g id="node2" class="node">
<title>Numeric</title>
<g id="a_node2"><a xlink:href="/type/Numeric" xlink:title="Numeric">
<ellipse fill="none" stroke="#6666ff" cx="577.6" cy="-306" rx="44.39" ry="18"/>
<text text-anchor="middle" x="577.6" y="-302.3" font-family="FreeSans" font-size="14.00" fill="#6666ff">Numeric</text>
</a>
</g>
</g>
<!-- Real&#45;&gt;Numeric -->
<g id="edge22" class="edge">
<title>Real&#45;&gt;Numeric</title>
<path fill="none" stroke="#6666ff" d="M577.6,-252.3C577.6,-260.02 577.6,-269.29 577.6,-277.89"/>
<polygon fill="#6666ff" stroke="#6666ff" points="574.1,-277.9 577.6,-287.9 581.1,-277.9 574.1,-277.9"/>
</g>
<!-- Rational -->
<g id="node3" class="node">
<title>Rational</title>
<g id="a_node3"><a xlink:href="/type/Rational" xlink:title="Rational">
<ellipse fill="none" stroke="#6666ff" cx="577.6" cy="-162" rx="42.79" ry="18"/>
<text text-anchor="middle" x="577.6" y="-158.3" font-family="FreeSans" font-size="14.00" fill="#6666ff">Rational</text>
</a>
</g>
</g>
<!-- Rational&#45;&gt;Real -->
<g id="edge23" class="edge">
<title>Rational&#45;&gt;Real</title>
<path fill="none" stroke="#6666ff" d="M577.6,-180.3C577.6,-188.02 577.6,-197.29 577.6,-205.89"/>
<polygon fill="#6666ff" stroke="#6666ff" points="574.1,-205.9 577.6,-215.9 581.1,-205.9 574.1,-205.9"/>
</g>
<!-- Mu -->
<g id="node4" class="node">
<title>Mu</title>
<g id="a_node4"><a xlink:href="/type/Mu" xlink:title="Mu">
<ellipse fill="none" stroke="#000000" cx="781.6" cy="-378" rx="27" ry="18"/>
<text text-anchor="middle" x="781.6" y="-374.3" font-family="FreeSans" font-size="14.00" fill="#000000">Mu</text>
</a>
</g>
</g>
<!-- Any -->
<g id="node5" class="node">
<title>Any</title>
<g id="a_node5"><a xlink:href="/type/Any" xlink:title="Any">
<ellipse fill="none" stroke="#000000" cx="781.6" cy="-306" rx="27" ry="18"/>
<text text-anchor="middle" x="781.6" y="-302.3" font-family="FreeSans" font-size="14.00" fill="#000000">Any</text>
</a>
</g>
</g>
<!-- Any&#45;&gt;Mu -->
<g id="edge1" class="edge">
<title>Any&#45;&gt;Mu</title>
<path fill="none" stroke="#000000" d="M781.6,-324.3C781.6,-332.02 781.6,-341.29 781.6,-349.89"/>
<polygon fill="#000000" stroke="#000000" points="778.1,-349.9 781.6,-359.9 785.1,-349.9 778.1,-349.9"/>
</g>
<!-- Cool -->
<g id="node6" class="node">
<title>Cool</title>
<g id="a_node6"><a xlink:href="/type/Cool" xlink:title="Cool">
<ellipse fill="none" stroke="#000000" cx="781.6" cy="-234" rx="28.7" ry="18"/>
<text text-anchor="middle" x="781.6" y="-230.3" font-family="FreeSans" font-size="14.00" fill="#000000">Cool</text>
</a>
</g>
</g>
<!-- Cool&#45;&gt;Any -->
<g id="edge2" class="edge">
<title>Cool&#45;&gt;Any</title>
<path fill="none" stroke="#000000" d="M781.6,-252.3C781.6,-260.02 781.6,-269.29 781.6,-277.89"/>
<polygon fill="#000000" stroke="#000000" points="778.1,-277.9 781.6,-287.9 785.1,-277.9 778.1,-277.9"/>
</g>
<!-- Int -->
<g id="node7" class="node">
<title>Int</title>
<g id="a_node7"><a xlink:href="/type/Int" xlink:title="Int">
<ellipse fill="none" stroke="#000000" cx="384.6" cy="-162" rx="27" ry="18"/>
<text text-anchor="middle" x="384.6" y="-158.3" font-family="FreeSans" font-size="14.00" fill="#000000">Int</text>
</a>
</g>
</g>
<!-- Int&#45;&gt;Real -->
<g id="edge24" class="edge">
<title>Int&#45;&gt;Real</title>
<path fill="none" stroke="#6666ff" d="M407.88,-171.44C441.65,-183.69 504.46,-206.47 543.47,-220.62"/>
<polygon fill="#6666ff" stroke="#6666ff" points="542.73,-224.08 553.32,-224.2 545.12,-217.5 542.73,-224.08"/>
</g>
<!-- Int&#45;&gt;Cool -->
<g id="edge3" class="edge">
<title>Int&#45;&gt;Cool</title>
<path fill="none" stroke="#000000" d="M409.14,-169.62C426.82,-174.39 447.6,-180 447.6,-180 447.6,-180 657.12,-213.25 744.27,-227.08"/>
<polygon fill="#000000" stroke="#000000" points="743.84,-230.55 754.26,-228.66 744.94,-223.64 743.84,-230.55"/>
</g>
<!-- Instant -->
<g id="node8" class="node">
<title>Instant</title>
<g id="a_node8"><a xlink:href="/type/Instant" xlink:title="Instant">
<ellipse fill="none" stroke="#000000" cx="781.6" cy="-162" rx="37.09" ry="18"/>
<text text-anchor="middle" x="781.6" y="-158.3" font-family="FreeSans" font-size="14.00" fill="#000000">Instant</text>
</a>
</g>
</g>
<!-- Instant&#45;&gt;Real -->
<g id="edge25" class="edge">
<title>Instant&#45;&gt;Real</title>
<path fill="none" stroke="#6666ff" d="M752.99,-173.57C743.63,-177.03 735.6,-180 735.6,-180 735.6,-180 658.46,-205.88 611.98,-221.47"/>
<polygon fill="#6666ff" stroke="#6666ff" points="610.65,-218.22 602.28,-224.72 612.88,-224.86 610.65,-218.22"/>
</g>
<!-- Instant&#45;&gt;Cool -->
<g id="edge4" class="edge">
<title>Instant&#45;&gt;Cool</title>
<path fill="none" stroke="#000000" d="M781.6,-180.3C781.6,-188.02 781.6,-197.29 781.6,-205.89"/>
<polygon fill="#000000" stroke="#000000" points="778.1,-205.9 781.6,-215.9 785.1,-205.9 778.1,-205.9"/>
</g>
<!-- Duration -->
<g id="node9" class="node">
<title>Duration</title>
<g id="a_node9"><a xlink:href="/type/Duration" xlink:title="Duration">
<ellipse fill="none" stroke="#000000" cx="682.6" cy="-162" rx="44.39" ry="18"/>
<text text-anchor="middle" x="682.6" y="-158.3" font-family="FreeSans" font-size="14.00" fill="#000000">Duration</text>
</a>
</g>
</g>
<!-- Duration&#45;&gt;Real -->
<g id="edge26" class="edge">
<title>Duration&#45;&gt;Real</title>
<path fill="none" stroke="#6666ff" d="M660.59,-177.67C644.51,-188.39 622.59,-203.01 605.31,-214.52"/>
<polygon fill="#6666ff" stroke="#6666ff" points="603.14,-211.77 596.76,-220.23 607.02,-217.59 603.14,-211.77"/>
</g>
<!-- Duration&#45;&gt;Cool -->
<g id="edge5" class="edge">
<title>Duration&#45;&gt;Cool</title>
<path fill="none" stroke="#000000" d="M703.59,-177.85C718.53,-188.41 738.73,-202.69 754.83,-214.08"/>
<polygon fill="#000000" stroke="#000000" points="753.11,-217.14 763.3,-220.06 757.15,-211.43 753.11,-217.14"/>
</g>
<!-- Num -->
<g id="node10" class="node">
<title>Num</title>
<g id="a_node10"><a xlink:href="/type/Num" xlink:title="Num">
<ellipse fill="none" stroke="#000000" cx="486.6" cy="-162" rx="29.8" ry="18"/>
<text text-anchor="middle" x="486.6" y="-158.3" font-family="FreeSans" font-size="14.00" fill="#000000">Num</text>
</a>
</g>
</g>
<!-- Num&#45;&gt;Real -->
<g id="edge27" class="edge">
<title>Num&#45;&gt;Real</title>
<path fill="none" stroke="#6666ff" d="M504.58,-176.83C518.21,-187.32 537.13,-201.87 552.29,-213.54"/>
<polygon fill="#6666ff" stroke="#6666ff" points="550.21,-216.35 560.27,-219.67 554.48,-210.8 550.21,-216.35"/>
</g>
<!-- Num&#45;&gt;Cool -->
<g id="edge6" class="edge">
<title>Num&#45;&gt;Cool</title>
<path fill="none" stroke="#000000" d="M510.18,-173.28C518.4,-176.86 525.6,-180 525.6,-180 525.6,-180 674,-210.72 744.83,-225.39"/>
<polygon fill="#000000" stroke="#000000" points="744.18,-228.83 754.68,-227.43 745.6,-221.97 744.18,-228.83"/>
</g>
<!-- PromiseStatus -->
<g id="node11" class="node">
<title>PromiseStatus</title>
<g id="a_node11"><a xlink:href="/type/PromiseStatus" xlink:title="PromiseStatus">
<ellipse fill="none" stroke="#33bb33" cx="543.6" cy="-90" rx="67.69" ry="18"/>
<text text-anchor="middle" x="543.6" y="-86.3" font-family="FreeSans" font-size="14.00" fill="#33bb33">PromiseStatus</text>
</a>
</g>
</g>
<!-- PromiseStatus&#45;&gt;Int -->
<g id="edge7" class="edge">
<title>PromiseStatus&#45;&gt;Int</title>
<path fill="none" stroke="#000000" d="M510.27,-105.67C482.53,-117.89 443.32,-135.15 416.1,-147.13"/>
<polygon fill="#000000" stroke="#000000" points="414.4,-144.05 406.66,-151.29 417.22,-150.46 414.4,-144.05"/>
</g>
<!-- Signal -->
<g id="node12" class="node">
<title>Signal</title>
<g id="a_node12"><a xlink:href="/type/Signal" xlink:title="Signal">
<ellipse fill="none" stroke="#33bb33" cx="664.6" cy="-90" rx="35.19" ry="18"/>
<text text-anchor="middle" x="664.6" y="-86.3" font-family="FreeSans" font-size="14.00" fill="#33bb33">Signal</text>
</a>
</g>
</g>
<!-- Signal&#45;&gt;Int -->
<g id="edge8" class="edge">
<title>Signal&#45;&gt;Int</title>
<path fill="none" stroke="#000000" d="M637.48,-101.48C628.43,-104.97 620.6,-108 620.6,-108 620.6,-108 447.6,-144 447.6,-144 447.6,-144 433.62,-147.77 418.83,-151.76"/>
<polygon fill="#000000" stroke="#000000" points="417.88,-148.39 409.14,-154.38 419.7,-155.15 417.88,-148.39"/>
</g>
<!-- Bool -->
<g id="node13" class="node">
<title>Bool</title>
<g id="a_node13"><a xlink:href="/type/Bool" xlink:title="Bool">
<ellipse fill="none" stroke="#33bb33" cx="28.6" cy="-90" rx="28.7" ry="18"/>
<text text-anchor="middle" x="28.6" y="-86.3" font-family="FreeSans" font-size="14.00" fill="#33bb33">Bool</text>
</a>
</g>
</g>
<!-- Bool&#45;&gt;Int -->
<g id="edge9" class="edge">
<title>Bool&#45;&gt;Int</title>
<path fill="none" stroke="#000000" d="M51.14,-101.09C59.32,-104.75 66.6,-108 66.6,-108 66.6,-108 265.27,-141.11 348.55,-154.99"/>
<polygon fill="#000000" stroke="#000000" points="348.13,-158.47 358.57,-156.66 349.29,-151.57 348.13,-158.47"/>
</g>
<!-- atomicint -->
<g id="node14" class="node">
<title>atomicint</title>
<g id="a_node14"><a xlink:href="/type/atomicint" xlink:title="atomicint">
<ellipse fill="none" stroke="#000000" cx="121.6" cy="-90" rx="46.29" ry="18"/>
<text text-anchor="middle" x="121.6" y="-86.3" font-family="FreeSans" font-size="14.00" fill="#000000">atomicint</text>
</a>
</g>
</g>
<!-- atomicint&#45;&gt;Int -->
<g id="edge10" class="edge">
<title>atomicint&#45;&gt;Int</title>
<path fill="none" stroke="#000000" d="M157.88,-101.28C170.52,-104.86 181.6,-108 181.6,-108 181.6,-108 291.86,-136.79 349.86,-151.93"/>
<polygon fill="#000000" stroke="#000000" points="349.15,-155.36 359.71,-154.5 350.91,-148.59 349.15,-155.36"/>
</g>
<!-- Stringy -->
<g id="node15" class="node">
<title>Stringy</title>
<g id="a_node15"><a xlink:href="/type/Stringy" xlink:title="Stringy">
<ellipse fill="none" stroke="#6666ff" cx="959.6" cy="-234" rx="38.19" ry="18"/>
<text text-anchor="middle" x="959.6" y="-230.3" font-family="FreeSans" font-size="14.00" fill="#6666ff">Stringy</text>
</a>
</g>
</g>
<!-- Str -->
<g id="node16" class="node">
<title>Str</title>
<g id="a_node16"><a xlink:href="/type/Str" xlink:title="Str">
<ellipse fill="none" stroke="#000000" cx="959.6" cy="-162" rx="27" ry="18"/>
<text text-anchor="middle" x="959.6" y="-158.3" font-family="FreeSans" font-size="14.00" fill="#000000">Str</text>
</a>
</g>
</g>
<!-- Str&#45;&gt;Cool -->
<g id="edge11" class="edge">
<title>Str&#45;&gt;Cool</title>
<path fill="none" stroke="#000000" d="M936.69,-172.01C905.71,-184.19 850.24,-206.01 814.72,-219.97"/>
<polygon fill="#000000" stroke="#000000" points="813.29,-216.78 805.27,-223.69 815.85,-223.29 813.29,-216.78"/>
</g>
<!-- Str&#45;&gt;Stringy -->
<g id="edge28" class="edge">
<title>Str&#45;&gt;Stringy</title>
<path fill="none" stroke="#6666ff" d="M959.6,-180.3C959.6,-188.02 959.6,-197.29 959.6,-205.89"/>
<polygon fill="#6666ff" stroke="#6666ff" points="956.1,-205.9 959.6,-215.9 963.1,-205.9 956.1,-205.9"/>
</g>
<!-- Allomorph -->
<g id="node17" class="node">
<title>Allomorph</title>
<g id="a_node17"><a xlink:href="/type/Allomorph" xlink:title="Allomorph">
<ellipse fill="none" stroke="#000000" cx="969.6" cy="-90" rx="50.09" ry="18"/>
<text text-anchor="middle" x="969.6" y="-86.3" font-family="FreeSans" font-size="14.00" fill="#000000">Allomorph</text>
</a>
</g>
</g>
<!-- Allomorph&#45;&gt;Str -->
<g id="edge12" class="edge">
<title>Allomorph&#45;&gt;Str</title>
<path fill="none" stroke="#000000" d="M967.13,-108.3C966.02,-116.02 964.7,-125.29 963.47,-133.89"/>
<polygon fill="#000000" stroke="#000000" points="959.99,-133.5 962.04,-143.9 966.92,-134.49 959.99,-133.5"/>
</g>
<!-- IntStr -->
<g id="node18" class="node">
<title>IntStr</title>
<g id="a_node18"><a xlink:href="/type/IntStr" xlink:title="IntStr">
<ellipse fill="none" stroke="#000000" cx="537.6" cy="-18" rx="31.7" ry="18"/>
<text text-anchor="middle" x="537.6" y="-14.3" font-family="FreeSans" font-size="14.00" fill="#000000">IntStr</text>
</a>
</g>
</g>
<!-- IntStr&#45;&gt;Int -->
<g id="edge14" class="edge">
<title>IntStr&#45;&gt;Int</title>
<path fill="none" stroke="#000000" d="M507.5,-23.94C427.32,-37.1 214.6,-72 214.6,-72 214.6,-72 214.6,-108 214.6,-108 214.6,-108 301.37,-135.05 350.93,-150.5"/>
<polygon fill="#000000" stroke="#000000" points="350.01,-153.88 360.6,-153.52 352.1,-147.2 350.01,-153.88"/>
</g>
<!-- IntStr&#45;&gt;Allomorph -->
<g id="edge13" class="edge">
<title>IntStr&#45;&gt;Allomorph</title>
<path fill="none" stroke="#000000" d="M568.12,-23.34C657.2,-36 910.6,-72 910.6,-72 910.6,-72 915.2,-73.33 921.83,-75.24"/>
<polygon fill="#000000" stroke="#000000" points="921.32,-78.73 931.9,-78.14 923.26,-72.01 921.32,-78.73"/>
</g>
<!-- Order -->
<g id="node19" class="node">
<title>Order</title>
<g id="a_node19"><a xlink:href="/type/Order" xlink:title="Order">
<ellipse fill="none" stroke="#33bb33" cx="257.6" cy="-90" rx="33.6" ry="18"/>
<text text-anchor="middle" x="257.6" y="-86.3" font-family="FreeSans" font-size="14.00" fill="#33bb33">Order</text>
</a>
</g>
</g>
<!-- Order&#45;&gt;Int -->
<g id="edge15" class="edge">
<title>Order&#45;&gt;Int</title>
<path fill="none" stroke="#000000" d="M280.3,-103.51C301.25,-115.06 332.46,-132.26 355.28,-144.84"/>
<polygon fill="#000000" stroke="#000000" points="353.74,-147.99 364.19,-149.75 357.12,-141.86 353.74,-147.99"/>
</g>
<!-- Endian -->
<g id="node20" class="node">
<title>Endian</title>
<g id="a_node20"><a xlink:href="/type/Endian" xlink:title="Endian">
<ellipse fill="none" stroke="#33bb33" cx="347.6" cy="-90" rx="38.19" ry="18"/>
<text text-anchor="middle" x="347.6" y="-86.3" font-family="FreeSans" font-size="14.00" fill="#33bb33">Endian</text>
</a>
</g>
</g>
<!-- Endian&#45;&gt;Int -->
<g id="edge16" class="edge">
<title>Endian&#45;&gt;Int</title>
<path fill="none" stroke="#000000" d="M356.37,-107.59C360.79,-115.96 366.25,-126.29 371.19,-135.63"/>
<polygon fill="#000000" stroke="#000000" points="368.12,-137.32 375.89,-144.53 374.31,-134.05 368.12,-137.32"/>
</g>
<!-- int -->
<g id="node21" class="node">
<title>int</title>
<g id="a_node21"><a xlink:href="/type/int" xlink:title="int">
<ellipse fill="none" stroke="#000000" cx="430.6" cy="-90" rx="27" ry="18"/>
<text text-anchor="middle" x="430.6" y="-86.3" font-family="FreeSans" font-size="14.00" fill="#000000">int</text>
</a>
</g>
</g>
<!-- int&#45;&gt;Int -->
<g id="edge17" class="edge">
<title>int&#45;&gt;Int</title>
<path fill="none" stroke="#000000" d="M420.16,-106.88C414.4,-115.66 407.11,-126.74 400.64,-136.58"/>
<polygon fill="#000000" stroke="#000000" points="397.56,-134.9 394.99,-145.18 403.41,-138.74 397.56,-134.9"/>
</g>
<!-- NumStr -->
<g id="node22" class="node">
<title>NumStr</title>
<g id="a_node22"><a xlink:href="/type/NumStr" xlink:title="NumStr">
<ellipse fill="none" stroke="#000000" cx="848.6" cy="-18" rx="40.89" ry="18"/>
<text text-anchor="middle" x="848.6" y="-14.3" font-family="FreeSans" font-size="14.00" fill="#000000">NumStr</text>
</a>
</g>
</g>
<!-- NumStr&#45;&gt;Num -->
<g id="edge19" class="edge">
<title>NumStr&#45;&gt;Num</title>
<path fill="none" stroke="#000000" d="M823.12,-32.24C792.91,-47.94 746.6,-72 746.6,-72 746.6,-72 708.6,-108 708.6,-108 708.6,-108 525.6,-144 525.6,-144 525.6,-144 523.19,-145.05 519.57,-146.63"/>
<polygon fill="#000000" stroke="#000000" points="517.95,-143.51 510.18,-150.72 520.75,-149.93 517.95,-143.51"/>
</g>
<!-- NumStr&#45;&gt;Allomorph -->
<g id="edge18" class="edge">
<title>NumStr&#45;&gt;Allomorph</title>
<path fill="none" stroke="#000000" d="M872.5,-32.83C890.42,-43.2 915.2,-57.53 935.24,-69.12"/>
<polygon fill="#000000" stroke="#000000" points="933.66,-72.25 944.07,-74.23 937.17,-66.2 933.66,-72.25"/>
</g>
<!-- FatRat -->
<g id="node23" class="node">
<title>FatRat</title>
<g id="a_node23"><a xlink:href="/type/FatRat" xlink:title="FatRat">
<ellipse fill="none" stroke="#000000" cx="792.6" cy="-90" rx="37.09" ry="18"/>
<text text-anchor="middle" x="792.6" y="-86.3" font-family="FreeSans" font-size="14.00" fill="#000000">FatRat</text>
</a>
</g>
</g>
<!-- FatRat&#45;&gt;Rational -->
<g id="edge29" class="edge">
<title>FatRat&#45;&gt;Rational</title>
<path fill="none" stroke="#6666ff" d="M762.93,-100.89C751.71,-104.63 741.6,-108 741.6,-108 741.6,-108 629.6,-144 629.6,-144 629.6,-144 625.83,-145.23 620.32,-147.03"/>
<polygon fill="#6666ff" stroke="#6666ff" points="618.95,-143.8 610.53,-150.23 621.12,-150.45 618.95,-143.8"/>
</g>
<!-- FatRat&#45;&gt;Cool -->
<g id="edge20" class="edge">
<title>FatRat&#45;&gt;Cool</title>
<path fill="none" stroke="#000000" d="M803.48,-107.48C813.75,-123.04 827.6,-144 827.6,-144 827.6,-144 827.6,-180 827.6,-180 827.6,-180 813.83,-195.86 801.36,-210.23"/>
<polygon fill="#000000" stroke="#000000" points="798.57,-208.11 794.66,-217.95 803.85,-212.7 798.57,-208.11"/>
</g>
<!-- Rat -->
<g id="node24" class="node">
<title>Rat</title>
<g id="a_node24"><a xlink:href="/type/Rat" xlink:title="Rat">
<ellipse fill="none" stroke="#000000" cx="874.6" cy="-90" rx="27" ry="18"/>
<text text-anchor="middle" x="874.6" y="-86.3" font-family="FreeSans" font-size="14.00" fill="#000000">Rat</text>
</a>
</g>
</g>
<!-- Rat&#45;&gt;Rational -->
<g id="edge30" class="edge">
<title>Rat&#45;&gt;Rational</title>
<path fill="none" stroke="#6666ff" d="M853.24,-101.09C845.49,-104.75 838.6,-108 838.6,-108 838.6,-108 629.6,-144 629.6,-144 629.6,-144 625.83,-145.23 620.32,-147.03"/>
<polygon fill="#6666ff" stroke="#6666ff" points="618.95,-143.8 610.53,-150.23 621.12,-150.45 618.95,-143.8"/>
</g>
<!-- Rat&#45;&gt;Cool -->
<g id="edge21" class="edge">
<title>Rat&#45;&gt;Cool</title>
<path fill="none" stroke="#000000" d="M868.39,-107.74C858.83,-133.52 841.6,-180 841.6,-180 841.6,-180 822.29,-197.06 805.58,-211.82"/>
<polygon fill="#000000" stroke="#000000" points="802.85,-209.55 797.68,-218.8 807.49,-214.8 802.85,-209.55"/>
</g>
</g>
</svg>
