<?xml version="1.0" encoding="UTF-8" standalone="no"?>
<!DOCTYPE svg PUBLIC "-//W3C//DTD SVG 1.1//EN"
 "http://www.w3.org/Graphics/SVG/1.1/DTD/svg11.dtd">
<!-- Generated by graphviz version 2.43.0 (0)
 -->
<!-- Title: raku&#45;type&#45;graph Pages: 1 -->
<svg width="1026pt" height="404pt"
 viewBox="0.00 0.00 1026.39 404.00" xmlns="http://www.w3.org/2000/svg" xmlns:xlink="http://www.w3.org/1999/xlink">
<g id="graph0" class="graph" transform="scale(1 1) rotate(0) translate(4 400)">
<title>raku&#45;type&#45;graph</title>
<polygon fill="#ffffff" stroke="transparent" points="-4,4 -4,-400 1022.39,-400 1022.39,4 -4,4"/>
<!-- Real -->
<g id="node1" class="node">
<title>Real</title>
<g id="a_node1"><a xlink:href="/type/Real" xlink:title="Real">
<ellipse fill="none" stroke="#6666ff" cx="398.05" cy="-234" rx="28.7" ry="18"/>
<text text-anchor="middle" x="398.05" y="-230.3" font-family="FreeSans" font-size="14.00" fill="#6666ff">Real</text>
</a>
</g>
</g>
<!-- Numeric -->
<g id="node2" class="node">
<title>Numeric</title>
<g id="a_node2"><a xlink:href="/type/Numeric" xlink:title="Numeric">
<ellipse fill="none" stroke="#6666ff" cx="398.05" cy="-306" rx="44.39" ry="18"/>
<text text-anchor="middle" x="398.05" y="-302.3" font-family="FreeSans" font-size="14.00" fill="#6666ff">Numeric</text>
</a>
</g>
</g>
<!-- Real&#45;&gt;Numeric -->
<g id="edge22" class="edge">
<title>Real&#45;&gt;Numeric</title>
<path fill="none" stroke="#6666ff" d="M398.05,-252.3C398.05,-260.02 398.05,-269.29 398.05,-277.89"/>
<polygon fill="#6666ff" stroke="#6666ff" points="394.55,-277.9 398.05,-287.9 401.55,-277.9 394.55,-277.9"/>
</g>
<!-- Mu -->
<g id="node3" class="node">
<title>Mu</title>
<g id="a_node3"><a xlink:href="/type/Mu" xlink:title="Mu">
<ellipse fill="none" stroke="#000000" cx="227.05" cy="-378" rx="27" ry="18"/>
<text text-anchor="middle" x="227.05" y="-374.3" font-family="FreeSans" font-size="14.00" fill="#000000">Mu</text>
</a>
</g>
</g>
<!-- Any -->
<g id="node4" class="node">
<title>Any</title>
<g id="a_node4"><a xlink:href="/type/Any" xlink:title="Any">
<ellipse fill="none" stroke="#000000" cx="227.05" cy="-306" rx="27" ry="18"/>
<text text-anchor="middle" x="227.05" y="-302.3" font-family="FreeSans" font-size="14.00" fill="#000000">Any</text>
</a>
</g>
</g>
<!-- Any&#45;&gt;Mu -->
<g id="edge1" class="edge">
<title>Any&#45;&gt;Mu</title>
<path fill="none" stroke="#000000" d="M227.05,-324.3C227.05,-332.02 227.05,-341.29 227.05,-349.89"/>
<polygon fill="#000000" stroke="#000000" points="223.55,-349.9 227.05,-359.9 230.55,-349.9 223.55,-349.9"/>
</g>
<!-- Cool -->
<g id="node5" class="node">
<title>Cool</title>
<g id="a_node5"><a xlink:href="/type/Cool" xlink:title="Cool">
<ellipse fill="none" stroke="#000000" cx="227.05" cy="-234" rx="28.7" ry="18"/>
<text text-anchor="middle" x="227.05" y="-230.3" font-family="FreeSans" font-size="14.00" fill="#000000">Cool</text>
</a>
</g>
</g>
<!-- Cool&#45;&gt;Any -->
<g id="edge2" class="edge">
<title>Cool&#45;&gt;Any</title>
<path fill="none" stroke="#000000" d="M227.05,-252.3C227.05,-260.02 227.05,-269.29 227.05,-277.89"/>
<polygon fill="#000000" stroke="#000000" points="223.55,-277.9 227.05,-287.9 230.55,-277.9 223.55,-277.9"/>
</g>
<!-- Duration -->
<g id="node6" class="node">
<title>Duration</title>
<g id="a_node6"><a xlink:href="/type/Duration" xlink:title="Duration">
<ellipse fill="none" stroke="#000000" cx="299.05" cy="-162" rx="44.39" ry="18"/>
<text text-anchor="middle" x="299.05" y="-158.3" font-family="FreeSans" font-size="14.00" fill="#000000">Duration</text>
</a>
</g>
</g>
<!-- Duration&#45;&gt;Real -->
<g id="edge23" class="edge">
<title>Duration&#45;&gt;Real</title>
<path fill="none" stroke="#6666ff" d="M320.04,-177.85C334.98,-188.41 355.18,-202.69 371.28,-214.08"/>
<polygon fill="#6666ff" stroke="#6666ff" points="369.56,-217.14 379.74,-220.06 373.6,-211.43 369.56,-217.14"/>
</g>
<!-- Duration&#45;&gt;Cool -->
<g id="edge3" class="edge">
<title>Duration&#45;&gt;Cool</title>
<path fill="none" stroke="#000000" d="M282.71,-178.88C272.96,-188.36 260.43,-200.54 249.74,-210.94"/>
<polygon fill="#000000" stroke="#000000" points="247.06,-208.66 242.33,-218.14 251.94,-213.67 247.06,-208.66"/>
</g>
<!-- Rational -->
<g id="node7" class="node">
<title>Rational</title>
<g id="a_node7"><a xlink:href="/type/Rational" xlink:title="Rational">
<ellipse fill="none" stroke="#6666ff" cx="496.05" cy="-162" rx="42.79" ry="18"/>
<text text-anchor="middle" x="496.05" y="-158.3" font-family="FreeSans" font-size="14.00" fill="#6666ff">Rational</text>
</a>
</g>
</g>
<!-- Rational&#45;&gt;Real -->
<g id="edge24" class="edge">
<title>Rational&#45;&gt;Real</title>
<path fill="none" stroke="#6666ff" d="M475.26,-177.85C460.47,-188.41 440.48,-202.69 424.54,-214.08"/>
<polygon fill="#6666ff" stroke="#6666ff" points="422.27,-211.4 416.16,-220.06 426.33,-217.09 422.27,-211.4"/>
</g>
<!-- Num -->
<g id="node8" class="node">
<title>Num</title>
<g id="a_node8"><a xlink:href="/type/Num" xlink:title="Num">
<ellipse fill="none" stroke="#000000" cx="131.05" cy="-162" rx="29.8" ry="18"/>
<text text-anchor="middle" x="131.05" y="-158.3" font-family="FreeSans" font-size="14.00" fill="#000000">Num</text>
</a>
</g>
</g>
<!-- Num&#45;&gt;Real -->
<g id="edge25" class="edge">
<title>Num&#45;&gt;Real</title>
<path fill="none" stroke="#6666ff" d="M158.12,-170.1C206.57,-182.8 308.09,-209.42 362.23,-223.61"/>
<polygon fill="#6666ff" stroke="#6666ff" points="361.53,-227.04 372.09,-226.19 363.3,-220.27 361.53,-227.04"/>
</g>
<!-- Num&#45;&gt;Cool -->
<g id="edge4" class="edge">
<title>Num&#45;&gt;Cool</title>
<path fill="none" stroke="#000000" d="M149.56,-176.5C163.99,-187.02 184.24,-201.78 200.41,-213.58"/>
<polygon fill="#000000" stroke="#000000" points="198.78,-216.72 208.92,-219.78 202.9,-211.06 198.78,-216.72"/>
</g>
<!-- Int -->
<g id="node9" class="node">
<title>Int</title>
<g id="a_node9"><a xlink:href="/type/Int" xlink:title="Int">
<ellipse fill="none" stroke="#000000" cx="631.05" cy="-162" rx="27" ry="18"/>
<text text-anchor="middle" x="631.05" y="-158.3" font-family="FreeSans" font-size="14.00" fill="#000000">Int</text>
</a>
</g>
</g>
<!-- Int&#45;&gt;Real -->
<g id="edge26" class="edge">
<title>Int&#45;&gt;Real</title>
<path fill="none" stroke="#6666ff" d="M606.99,-170.23C565.63,-182.65 480.89,-208.11 433.01,-222.5"/>
<polygon fill="#6666ff" stroke="#6666ff" points="431.95,-219.16 423.38,-225.39 433.96,-225.86 431.95,-219.16"/>
</g>
<!-- Int&#45;&gt;Cool -->
<g id="edge5" class="edge">
<title>Int&#45;&gt;Cool</title>
<path fill="none" stroke="#000000" d="M605.69,-168.19C581.28,-173.19 548.05,-180 548.05,-180 548.05,-180 348.99,-212.87 264.38,-226.84"/>
<polygon fill="#000000" stroke="#000000" points="263.71,-223.4 254.41,-228.48 264.85,-230.31 263.71,-223.4"/>
</g>
<!-- Instant -->
<g id="node10" class="node">
<title>Instant</title>
<g id="a_node10"><a xlink:href="/type/Instant" xlink:title="Instant">
<ellipse fill="none" stroke="#000000" cx="398.05" cy="-162" rx="37.09" ry="18"/>
<text text-anchor="middle" x="398.05" y="-158.3" font-family="FreeSans" font-size="14.00" fill="#000000">Instant</text>
</a>
</g>
</g>
<!-- Instant&#45;&gt;Real -->
<g id="edge27" class="edge">
<title>Instant&#45;&gt;Real</title>
<path fill="none" stroke="#6666ff" d="M398.05,-180.3C398.05,-188.02 398.05,-197.29 398.05,-205.89"/>
<polygon fill="#6666ff" stroke="#6666ff" points="394.55,-205.9 398.05,-215.9 401.55,-205.9 394.55,-205.9"/>
</g>
<!-- Instant&#45;&gt;Cool -->
<g id="edge6" class="edge">
<title>Instant&#45;&gt;Cool</title>
<path fill="none" stroke="#000000" d="M370.57,-174.25C340.37,-186.61 291.88,-206.46 259.74,-219.62"/>
<polygon fill="#000000" stroke="#000000" points="258.26,-216.44 250.33,-223.47 260.91,-222.92 258.26,-216.44"/>
</g>
<!-- Stringy -->
<g id="node11" class="node">
<title>Stringy</title>
<g id="a_node11"><a xlink:href="/type/Stringy" xlink:title="Stringy">
<ellipse fill="none" stroke="#6666ff" cx="55.05" cy="-234" rx="38.19" ry="18"/>
<text text-anchor="middle" x="55.05" y="-230.3" font-family="FreeSans" font-size="14.00" fill="#6666ff">Stringy</text>
</a>
</g>
</g>
<!-- Str -->
<g id="node12" class="node">
<title>Str</title>
<g id="a_node12"><a xlink:href="/type/Str" xlink:title="Str">
<ellipse fill="none" stroke="#000000" cx="55.05" cy="-162" rx="27" ry="18"/>
<text text-anchor="middle" x="55.05" y="-158.3" font-family="FreeSans" font-size="14.00" fill="#000000">Str</text>
</a>
</g>
</g>
<!-- Str&#45;&gt;Cool -->
<g id="edge7" class="edge">
<title>Str&#45;&gt;Cool</title>
<path fill="none" stroke="#000000" d="M76.57,-172.89C84.71,-176.63 92.05,-180 92.05,-180 92.05,-180 153.85,-204.27 193.83,-219.96"/>
<polygon fill="#000000" stroke="#000000" points="192.63,-223.25 203.22,-223.65 195.19,-216.73 192.63,-223.25"/>
</g>
<!-- Str&#45;&gt;Stringy -->
<g id="edge28" class="edge">
<title>Str&#45;&gt;Stringy</title>
<path fill="none" stroke="#6666ff" d="M55.05,-180.3C55.05,-188.02 55.05,-197.29 55.05,-205.89"/>
<polygon fill="#6666ff" stroke="#6666ff" points="51.55,-205.9 55.05,-215.9 58.55,-205.9 51.55,-205.9"/>
</g>
<!-- Allomorph -->
<g id="node13" class="node">
<title>Allomorph</title>
<g id="a_node13"><a xlink:href="/type/Allomorph" xlink:title="Allomorph">
<ellipse fill="none" stroke="#000000" cx="50.05" cy="-90" rx="50.09" ry="18"/>
<text text-anchor="middle" x="50.05" y="-86.3" font-family="FreeSans" font-size="14.00" fill="#000000">Allomorph</text>
</a>
</g>
</g>
<!-- Allomorph&#45;&gt;Str -->
<g id="edge8" class="edge">
<title>Allomorph&#45;&gt;Str</title>
<path fill="none" stroke="#000000" d="M51.28,-108.3C51.83,-116.02 52.49,-125.29 53.11,-133.89"/>
<polygon fill="#000000" stroke="#000000" points="49.62,-134.17 53.82,-143.9 56.6,-133.67 49.62,-134.17"/>
</g>
<!-- NumStr -->
<g id="node14" class="node">
<title>NumStr</title>
<g id="a_node14"><a xlink:href="/type/NumStr" xlink:title="NumStr">
<ellipse fill="none" stroke="#000000" cx="89.05" cy="-18" rx="40.89" ry="18"/>
<text text-anchor="middle" x="89.05" y="-14.3" font-family="FreeSans" font-size="14.00" fill="#000000">NumStr</text>
</a>
</g>
</g>
<!-- NumStr&#45;&gt;Num -->
<g id="edge10" class="edge">
<title>NumStr&#45;&gt;Num</title>
<path fill="none" stroke="#000000" d="M95.48,-36.06C101.33,-51.55 109.05,-72 109.05,-72 109.05,-72 117.9,-107.83 124.38,-134.03"/>
<polygon fill="#000000" stroke="#000000" points="121.01,-134.97 126.8,-143.84 127.8,-133.29 121.01,-134.97"/>
</g>
<!-- NumStr&#45;&gt;Allomorph -->
<g id="edge9" class="edge">
<title>NumStr&#45;&gt;Allomorph</title>
<path fill="none" stroke="#000000" d="M79.8,-35.59C75.21,-43.84 69.55,-53.99 64.41,-63.22"/>
<polygon fill="#000000" stroke="#000000" points="61.3,-61.6 59.49,-72.04 67.42,-65.01 61.3,-61.6"/>
</g>
<!-- int -->
<g id="node15" class="node">
<title>int</title>
<g id="a_node15"><a xlink:href="/type/int" xlink:title="int">
<ellipse fill="none" stroke="#000000" cx="787.05" cy="-90" rx="27" ry="18"/>
<text text-anchor="middle" x="787.05" y="-86.3" font-family="FreeSans" font-size="14.00" fill="#000000">int</text>
</a>
</g>
</g>
<!-- int&#45;&gt;Int -->
<g id="edge11" class="edge">
<title>int&#45;&gt;Int</title>
<path fill="none" stroke="#000000" d="M765.35,-100.73C738.54,-112.77 692.7,-133.33 662.14,-147.05"/>
<polygon fill="#000000" stroke="#000000" points="660.49,-143.95 652.8,-151.24 663.36,-150.34 660.49,-143.95"/>
</g>
<!-- IntStr -->
<g id="node16" class="node">
<title>IntStr</title>
<g id="a_node16"><a xlink:href="/type/IntStr" xlink:title="IntStr">
<ellipse fill="none" stroke="#000000" cx="456.05" cy="-18" rx="31.7" ry="18"/>
<text text-anchor="middle" x="456.05" y="-14.3" font-family="FreeSans" font-size="14.00" fill="#000000">IntStr</text>
</a>
</g>
</g>
<!-- IntStr&#45;&gt;Int -->
<g id="edge13" class="edge">
<title>IntStr&#45;&gt;Int</title>
<path fill="none" stroke="#000000" d="M485.53,-25.08C553.03,-39 713.05,-72 713.05,-72 713.05,-72 713.05,-108 713.05,-108 713.05,-108 682.3,-127.87 658.46,-143.28"/>
<polygon fill="#000000" stroke="#000000" points="656.56,-140.34 650.06,-148.71 660.36,-146.22 656.56,-140.34"/>
</g>
<!-- IntStr&#45;&gt;Allomorph -->
<g id="edge12" class="edge">
<title>IntStr&#45;&gt;Allomorph</title>
<path fill="none" stroke="#000000" d="M425.85,-24.18C348.1,-37.51 147.05,-72 147.05,-72 147.05,-72 126.27,-75.64 103.95,-79.55"/>
<polygon fill="#000000" stroke="#000000" points="103.25,-76.12 94,-81.3 104.46,-83.02 103.25,-76.12"/>
</g>
<!-- atomicint -->
<g id="node17" class="node">
<title>atomicint</title>
<g id="a_node17"><a xlink:href="/type/atomicint" xlink:title="atomicint">
<ellipse fill="none" stroke="#000000" cx="878.05" cy="-90" rx="46.29" ry="18"/>
<text text-anchor="middle" x="878.05" y="-86.3" font-family="FreeSans" font-size="14.00" fill="#000000">atomicint</text>
</a>
</g>
</g>
<!-- atomicint&#45;&gt;Int -->
<g id="edge14" class="edge">
<title>atomicint&#45;&gt;Int</title>
<path fill="none" stroke="#000000" d="M842.9,-101.86C832.12,-105.19 823.05,-108 823.05,-108 823.05,-108 720.74,-136.24 665.49,-151.49"/>
<polygon fill="#000000" stroke="#000000" points="664.46,-148.14 655.75,-154.18 666.32,-154.89 664.46,-148.14"/>
</g>
<!-- Endian -->
<g id="node18" class="node">
<title>Endian</title>
<g id="a_node18"><a xlink:href="/type/Endian" xlink:title="Endian">
<ellipse fill="none" stroke="#33bb33" cx="980.05" cy="-90" rx="38.19" ry="18"/>
<text text-anchor="middle" x="980.05" y="-86.3" font-family="FreeSans" font-size="14.00" fill="#33bb33">Endian</text>
</a>
</g>
</g>
<!-- Endian&#45;&gt;Int -->
<g id="edge15" class="edge">
<title>Endian&#45;&gt;Int</title>
<path fill="none" stroke="#000000" d="M950.55,-101.67C941.1,-105.09 933.05,-108 933.05,-108 933.05,-108 746.91,-140.67 666.9,-154.71"/>
<polygon fill="#000000" stroke="#000000" points="666.04,-151.31 656.79,-156.48 667.25,-158.2 666.04,-151.31"/>
</g>
<!-- Signal -->
<g id="node19" class="node">
<title>Signal</title>
<g id="a_node19"><a xlink:href="/type/Signal" xlink:title="Signal">
<ellipse fill="none" stroke="#33bb33" cx="355.05" cy="-90" rx="35.19" ry="18"/>
<text text-anchor="middle" x="355.05" y="-86.3" font-family="FreeSans" font-size="14.00" fill="#33bb33">Signal</text>
</a>
</g>
</g>
<!-- Signal&#45;&gt;Int -->
<g id="edge16" class="edge">
<title>Signal&#45;&gt;Int</title>
<path fill="none" stroke="#000000" d="M382.16,-101.48C391.21,-104.97 399.05,-108 399.05,-108 399.05,-108 531.14,-138.18 595.98,-152.99"/>
<polygon fill="#000000" stroke="#000000" points="595.25,-156.41 605.78,-155.23 596.81,-149.59 595.25,-156.41"/>
</g>
<!-- Order -->
<g id="node20" class="node">
<title>Order</title>
<g id="a_node20"><a xlink:href="/type/Order" xlink:title="Order">
<ellipse fill="none" stroke="#33bb33" cx="442.05" cy="-90" rx="33.6" ry="18"/>
<text text-anchor="middle" x="442.05" y="-86.3" font-family="FreeSans" font-size="14.00" fill="#33bb33">Order</text>
</a>
</g>
</g>
<!-- Order&#45;&gt;Int -->
<g id="edge17" class="edge">
<title>Order&#45;&gt;Int</title>
<path fill="none" stroke="#000000" d="M468.41,-101.67C476.84,-105.09 484.05,-108 484.05,-108 484.05,-108 554.84,-133.53 598.17,-149.15"/>
<polygon fill="#000000" stroke="#000000" points="597.16,-152.5 607.75,-152.6 599.53,-145.92 597.16,-152.5"/>
</g>
<!-- PromiseStatus -->
<g id="node21" class="node">
<title>PromiseStatus</title>
<g id="a_node21"><a xlink:href="/type/PromiseStatus" xlink:title="PromiseStatus">
<ellipse fill="none" stroke="#33bb33" cx="561.05" cy="-90" rx="67.69" ry="18"/>
<text text-anchor="middle" x="561.05" y="-86.3" font-family="FreeSans" font-size="14.00" fill="#33bb33">PromiseStatus</text>
</a>
</g>
</g>
<!-- PromiseStatus&#45;&gt;Int -->
<g id="edge18" class="edge">
<title>PromiseStatus&#45;&gt;Int</title>
<path fill="none" stroke="#000000" d="M577.63,-107.59C587.13,-117.09 599.16,-129.12 609.4,-139.35"/>
<polygon fill="#000000" stroke="#000000" points="606.93,-141.83 616.48,-146.43 611.88,-136.88 606.93,-141.83"/>
</g>
<!-- Bool -->
<g id="node22" class="node">
<title>Bool</title>
<g id="a_node22"><a xlink:href="/type/Bool" xlink:title="Bool">
<ellipse fill="none" stroke="#33bb33" cx="675.05" cy="-90" rx="28.7" ry="18"/>
<text text-anchor="middle" x="675.05" y="-86.3" font-family="FreeSans" font-size="14.00" fill="#33bb33">Bool</text>
</a>
</g>
</g>
<!-- Bool&#45;&gt;Int -->
<g id="edge19" class="edge">
<title>Bool&#45;&gt;Int</title>
<path fill="none" stroke="#000000" d="M665.06,-106.88C659.55,-115.66 652.58,-126.74 646.39,-136.58"/>
<polygon fill="#000000" stroke="#000000" points="643.35,-134.85 640.99,-145.18 649.28,-138.58 643.35,-134.85"/>
</g>
<!-- Rat -->
<g id="node23" class="node">
<title>Rat</title>
<g id="a_node23"><a xlink:href="/type/Rat" xlink:title="Rat">
<ellipse fill="none" stroke="#000000" cx="275.05" cy="-90" rx="27" ry="18"/>
<text text-anchor="middle" x="275.05" y="-86.3" font-family="FreeSans" font-size="14.00" fill="#000000">Rat</text>
</a>
</g>
</g>
<!-- Rat&#45;&gt;Cool -->
<g id="edge20" class="edge">
<title>Rat&#45;&gt;Cool</title>
<path fill="none" stroke="#000000" d="M266.19,-107.19C257.66,-122.78 246.05,-144 246.05,-144 246.05,-144 238.4,-179.83 232.8,-206.03"/>
<polygon fill="#000000" stroke="#000000" points="229.37,-205.33 230.71,-215.84 236.22,-206.79 229.37,-205.33"/>
</g>
<!-- Rat&#45;&gt;Rational -->
<g id="edge29" class="edge">
<title>Rat&#45;&gt;Rational</title>
<path fill="none" stroke="#6666ff" d="M296.4,-101.09C304.15,-104.75 311.05,-108 311.05,-108 311.05,-108 444.05,-144 444.05,-144 444.05,-144 447.81,-145.23 453.32,-147.03"/>
<polygon fill="#6666ff" stroke="#6666ff" points="452.52,-150.45 463.11,-150.23 454.7,-143.8 452.52,-150.45"/>
</g>
<!-- FatRat -->
<g id="node24" class="node">
<title>FatRat</title>
<g id="a_node24"><a xlink:href="/type/FatRat" xlink:title="FatRat">
<ellipse fill="none" stroke="#000000" cx="193.05" cy="-90" rx="37.09" ry="18"/>
<text text-anchor="middle" x="193.05" y="-86.3" font-family="FreeSans" font-size="14.00" fill="#000000">FatRat</text>
</a>
</g>
</g>
<!-- FatRat&#45;&gt;Cool -->
<g id="edge21" class="edge">
<title>FatRat&#45;&gt;Cool</title>
<path fill="none" stroke="#000000" d="M196.9,-108.16C202.71,-134.02 213.05,-180 213.05,-180 213.05,-180 216.47,-192.98 219.94,-206.1"/>
<polygon fill="#000000" stroke="#000000" points="216.6,-207.16 222.54,-215.94 223.37,-205.38 216.6,-207.16"/>
</g>
<!-- FatRat&#45;&gt;Rational -->
<g id="edge30" class="edge">
<title>FatRat&#45;&gt;Rational</title>
<path fill="none" stroke="#6666ff" d="M221.65,-101.57C231.01,-105.03 239.05,-108 239.05,-108 239.05,-108 444.05,-144 444.05,-144 444.05,-144 447.81,-145.23 453.32,-147.03"/>
<polygon fill="#6666ff" stroke="#6666ff" points="452.52,-150.45 463.11,-150.23 454.7,-143.8 452.52,-150.45"/>
</g>
</g>
</svg>
