<?xml version="1.0" encoding="UTF-8" standalone="no"?>
<!DOCTYPE svg PUBLIC "-//W3C//DTD SVG 1.1//EN"
 "http://www.w3.org/Graphics/SVG/1.1/DTD/svg11.dtd">
<!-- Generated by graphviz version 2.43.0 (0)
 -->
<!-- Title: raku&#45;type&#45;graph Pages: 1 -->
<svg width="939pt" height="404pt"
 viewBox="0.00 0.00 938.90 404.00" xmlns="http://www.w3.org/2000/svg" xmlns:xlink="http://www.w3.org/1999/xlink">
<g id="graph0" class="graph" transform="scale(1 1) rotate(0) translate(4 400)">
<title>raku&#45;type&#45;graph</title>
<polygon fill="#ffffff" stroke="transparent" points="-4,4 -4,-400 934.9,-400 934.9,4 -4,4"/>
<!-- Stringy -->
<g id="node1" class="node">
<title>Stringy</title>
<g id="a_node1"><a xlink:href="/type/Stringy" xlink:title="Stringy">
<ellipse fill="none" stroke="#6666ff" cx="688.9" cy="-306" rx="38.19" ry="18"/>
<text text-anchor="middle" x="688.9" y="-302.3" font-family="FreeSans" font-size="14.00" fill="#6666ff">Stringy</text>
</a>
</g>
</g>
<!-- Positional -->
<g id="node2" class="node">
<title>Positional</title>
<g id="a_node2"><a xlink:href="/type/Positional" xlink:title="Positional">
<ellipse fill="none" stroke="#6666ff" cx="796.9" cy="-306" rx="48.99" ry="18"/>
<text text-anchor="middle" x="796.9" y="-302.3" font-family="FreeSans" font-size="14.00" fill="#6666ff">Positional</text>
</a>
</g>
</g>
<!-- Blob -->
<g id="node3" class="node">
<title>Blob</title>
<g id="a_node3"><a xlink:href="/type/Blob" xlink:title="Blob">
<ellipse fill="none" stroke="#6666ff" cx="818.9" cy="-234" rx="28.7" ry="18"/>
<text text-anchor="middle" x="818.9" y="-230.3" font-family="FreeSans" font-size="14.00" fill="#6666ff">Blob</text>
</a>
</g>
</g>
<!-- Blob&#45;&gt;Stringy -->
<g id="edge24" class="edge">
<title>Blob&#45;&gt;Stringy</title>
<path fill="none" stroke="#6666ff" d="M797.72,-246.4C777.27,-257.42 745.98,-274.26 722.19,-287.07"/>
<polygon fill="#6666ff" stroke="#6666ff" points="720.31,-284.11 713.16,-291.93 723.63,-290.27 720.31,-284.11"/>
</g>
<!-- Blob&#45;&gt;Positional -->
<g id="edge23" class="edge">
<title>Blob&#45;&gt;Positional</title>
<path fill="none" stroke="#6666ff" d="M813.57,-251.95C811.12,-259.74 808.15,-269.18 805.41,-277.92"/>
<polygon fill="#6666ff" stroke="#6666ff" points="801.98,-277.14 802.33,-287.72 808.66,-279.23 801.98,-277.14"/>
</g>
<!-- Mu -->
<g id="node4" class="node">
<title>Mu</title>
<g id="a_node4"><a xlink:href="/type/Mu" xlink:title="Mu">
<ellipse fill="none" stroke="#000000" cx="605.9" cy="-378" rx="27" ry="18"/>
<text text-anchor="middle" x="605.9" y="-374.3" font-family="FreeSans" font-size="14.00" fill="#000000">Mu</text>
</a>
</g>
</g>
<!-- Any -->
<g id="node5" class="node">
<title>Any</title>
<g id="a_node5"><a xlink:href="/type/Any" xlink:title="Any">
<ellipse fill="none" stroke="#000000" cx="605.9" cy="-306" rx="27" ry="18"/>
<text text-anchor="middle" x="605.9" y="-302.3" font-family="FreeSans" font-size="14.00" fill="#000000">Any</text>
</a>
</g>
</g>
<!-- Any&#45;&gt;Mu -->
<g id="edge1" class="edge">
<title>Any&#45;&gt;Mu</title>
<path fill="none" stroke="#000000" d="M605.9,-324.3C605.9,-332.02 605.9,-341.29 605.9,-349.89"/>
<polygon fill="#000000" stroke="#000000" points="602.4,-349.9 605.9,-359.9 609.4,-349.9 602.4,-349.9"/>
</g>
<!-- Uni -->
<g id="node6" class="node">
<title>Uni</title>
<g id="a_node6"><a xlink:href="/type/Uni" xlink:title="Uni">
<ellipse fill="none" stroke="#000000" cx="667.9" cy="-234" rx="27" ry="18"/>
<text text-anchor="middle" x="667.9" y="-230.3" font-family="FreeSans" font-size="14.00" fill="#000000">Uni</text>
</a>
</g>
</g>
<!-- Uni&#45;&gt;Stringy -->
<g id="edge26" class="edge">
<title>Uni&#45;&gt;Stringy</title>
<path fill="none" stroke="#6666ff" d="M672.98,-251.95C675.32,-259.74 678.15,-269.18 680.77,-277.92"/>
<polygon fill="#6666ff" stroke="#6666ff" points="677.49,-279.15 683.71,-287.72 684.19,-277.14 677.49,-279.15"/>
</g>
<!-- Uni&#45;&gt;Positional -->
<g id="edge25" class="edge">
<title>Uni&#45;&gt;Positional</title>
<path fill="none" stroke="#6666ff" d="M688.34,-246.09C707.9,-256.71 737.84,-272.95 761.32,-285.69"/>
<polygon fill="#6666ff" stroke="#6666ff" points="759.83,-288.87 770.29,-290.56 763.17,-282.72 759.83,-288.87"/>
</g>
<!-- Uni&#45;&gt;Any -->
<g id="edge2" class="edge">
<title>Uni&#45;&gt;Any</title>
<path fill="none" stroke="#000000" d="M654.75,-249.85C646.36,-259.31 635.34,-271.76 625.88,-282.44"/>
<polygon fill="#000000" stroke="#000000" points="623.04,-280.37 619.03,-290.18 628.28,-285.01 623.04,-280.37"/>
</g>
<!-- Cool -->
<g id="node7" class="node">
<title>Cool</title>
<g id="a_node7"><a xlink:href="/type/Cool" xlink:title="Cool">
<ellipse fill="none" stroke="#000000" cx="266.9" cy="-234" rx="28.7" ry="18"/>
<text text-anchor="middle" x="266.9" y="-230.3" font-family="FreeSans" font-size="14.00" fill="#000000">Cool</text>
</a>
</g>
</g>
<!-- Cool&#45;&gt;Any -->
<g id="edge3" class="edge">
<title>Cool&#45;&gt;Any</title>
<path fill="none" stroke="#000000" d="M293.36,-241.43C313.18,-246.24 336.9,-252 336.9,-252 336.9,-252 496.67,-283.48 569.95,-297.92"/>
<polygon fill="#000000" stroke="#000000" points="569.62,-301.42 580.1,-299.92 570.97,-294.55 569.62,-301.42"/>
</g>
<!-- Str -->
<g id="node8" class="node">
<title>Str</title>
<g id="a_node8"><a xlink:href="/type/Str" xlink:title="Str">
<ellipse fill="none" stroke="#000000" cx="318.9" cy="-162" rx="27" ry="18"/>
<text text-anchor="middle" x="318.9" y="-158.3" font-family="FreeSans" font-size="14.00" fill="#000000">Str</text>
</a>
</g>
</g>
<!-- Str&#45;&gt;Stringy -->
<g id="edge27" class="edge">
<title>Str&#45;&gt;Stringy</title>
<path fill="none" stroke="#6666ff" d="M340.25,-173.09C348.01,-176.75 354.9,-180 354.9,-180 354.9,-180 562.29,-257.62 650.22,-290.53"/>
<polygon fill="#6666ff" stroke="#6666ff" points="649.25,-293.9 659.84,-294.13 651.7,-287.34 649.25,-293.9"/>
</g>
<!-- Str&#45;&gt;Cool -->
<g id="edge4" class="edge">
<title>Str&#45;&gt;Cool</title>
<path fill="none" stroke="#000000" d="M307.36,-178.54C300.62,-187.6 291.99,-199.21 284.44,-209.39"/>
<polygon fill="#000000" stroke="#000000" points="281.56,-207.39 278.4,-217.51 287.18,-211.57 281.56,-207.39"/>
</g>
<!-- NFKC -->
<g id="node9" class="node">
<title>NFKC</title>
<g id="a_node9"><a xlink:href="/type/NFKC" xlink:title="NFKC">
<ellipse fill="none" stroke="#000000" cx="584.9" cy="-162" rx="36" ry="18"/>
<text text-anchor="middle" x="584.9" y="-158.3" font-family="FreeSans" font-size="14.00" fill="#000000">NFKC</text>
</a>
</g>
</g>
<!-- NFKC&#45;&gt;Uni -->
<g id="edge5" class="edge">
<title>NFKC&#45;&gt;Uni</title>
<path fill="none" stroke="#000000" d="M602.5,-177.85C614.56,-188.02 630.7,-201.63 643.93,-212.79"/>
<polygon fill="#000000" stroke="#000000" points="641.83,-215.59 651.73,-219.36 646.34,-210.24 641.83,-215.59"/>
</g>
<!-- NFC -->
<g id="node10" class="node">
<title>NFC</title>
<g id="a_node10"><a xlink:href="/type/NFC" xlink:title="NFC">
<ellipse fill="none" stroke="#000000" cx="667.9" cy="-162" rx="29.5" ry="18"/>
<text text-anchor="middle" x="667.9" y="-158.3" font-family="FreeSans" font-size="14.00" fill="#000000">NFC</text>
</a>
</g>
</g>
<!-- NFC&#45;&gt;Uni -->
<g id="edge6" class="edge">
<title>NFC&#45;&gt;Uni</title>
<path fill="none" stroke="#000000" d="M667.9,-180.3C667.9,-188.02 667.9,-197.29 667.9,-205.89"/>
<polygon fill="#000000" stroke="#000000" points="664.4,-205.9 667.9,-215.9 671.4,-205.9 664.4,-205.9"/>
</g>
<!-- NFKD -->
<g id="node11" class="node">
<title>NFKD</title>
<g id="a_node11"><a xlink:href="/type/NFKD" xlink:title="NFKD">
<ellipse fill="none" stroke="#000000" cx="750.9" cy="-162" rx="36" ry="18"/>
<text text-anchor="middle" x="750.9" y="-158.3" font-family="FreeSans" font-size="14.00" fill="#000000">NFKD</text>
</a>
</g>
</g>
<!-- NFKD&#45;&gt;Uni -->
<g id="edge7" class="edge">
<title>NFKD&#45;&gt;Uni</title>
<path fill="none" stroke="#000000" d="M733.29,-177.85C721.24,-188.02 705.09,-201.63 691.86,-212.79"/>
<polygon fill="#000000" stroke="#000000" points="689.45,-210.24 684.07,-219.36 693.97,-215.59 689.45,-210.24"/>
</g>
<!-- NFD -->
<g id="node12" class="node">
<title>NFD</title>
<g id="a_node12"><a xlink:href="/type/NFD" xlink:title="NFD">
<ellipse fill="none" stroke="#000000" cx="501.9" cy="-162" rx="29.5" ry="18"/>
<text text-anchor="middle" x="501.9" y="-158.3" font-family="FreeSans" font-size="14.00" fill="#000000">NFD</text>
</a>
</g>
</g>
<!-- NFD&#45;&gt;Uni -->
<g id="edge8" class="edge">
<title>NFD&#45;&gt;Uni</title>
<path fill="none" stroke="#000000" d="M524.88,-173.28C532.88,-176.86 539.9,-180 539.9,-180 539.9,-180 598.07,-204.09 635.98,-219.78"/>
<polygon fill="#000000" stroke="#000000" points="635.02,-223.18 645.6,-223.77 637.7,-216.71 635.02,-223.18"/>
</g>
<!-- Allomorph -->
<g id="node13" class="node">
<title>Allomorph</title>
<g id="a_node13"><a xlink:href="/type/Allomorph" xlink:title="Allomorph">
<ellipse fill="none" stroke="#000000" cx="278.9" cy="-90" rx="50.09" ry="18"/>
<text text-anchor="middle" x="278.9" y="-86.3" font-family="FreeSans" font-size="14.00" fill="#000000">Allomorph</text>
</a>
</g>
</g>
<!-- Allomorph&#45;&gt;Str -->
<g id="edge9" class="edge">
<title>Allomorph&#45;&gt;Str</title>
<path fill="none" stroke="#000000" d="M288.58,-107.95C293.37,-116.32 299.24,-126.6 304.53,-135.87"/>
<polygon fill="#000000" stroke="#000000" points="301.58,-137.75 309.58,-144.69 307.66,-134.27 301.58,-137.75"/>
</g>
<!-- utf8 -->
<g id="node14" class="node">
<title>utf8</title>
<g id="a_node14"><a xlink:href="/type/utf8" xlink:title="utf8">
<ellipse fill="none" stroke="#000000" cx="831.9" cy="-162" rx="27" ry="18"/>
<text text-anchor="middle" x="831.9" y="-158.3" font-family="FreeSans" font-size="14.00" fill="#000000">utf8</text>
</a>
</g>
</g>
<!-- utf8&#45;&gt;Blob -->
<g id="edge28" class="edge">
<title>utf8&#45;&gt;Blob</title>
<path fill="none" stroke="#6666ff" d="M828.75,-179.95C827.32,-187.65 825.59,-196.97 823.98,-205.64"/>
<polygon fill="#6666ff" stroke="#6666ff" points="820.49,-205.25 822.1,-215.72 827.37,-206.53 820.49,-205.25"/>
</g>
<!-- utf8&#45;&gt;Any -->
<g id="edge10" class="edge">
<title>utf8&#45;&gt;Any</title>
<path fill="none" stroke="#000000" d="M813.83,-175.56C778.55,-200.1 703.9,-252 703.9,-252 703.9,-252 664.01,-273.57 635.13,-289.19"/>
<polygon fill="#000000" stroke="#000000" points="633.33,-286.18 626.2,-294.02 636.66,-292.34 633.33,-286.18"/>
</g>
<!-- Buf -->
<g id="node15" class="node">
<title>Buf</title>
<g id="a_node15"><a xlink:href="/type/Buf" xlink:title="Buf">
<ellipse fill="none" stroke="#6666ff" cx="903.9" cy="-162" rx="27" ry="18"/>
<text text-anchor="middle" x="903.9" y="-158.3" font-family="FreeSans" font-size="14.00" fill="#6666ff">Buf</text>
</a>
</g>
</g>
<!-- Buf&#45;&gt;Blob -->
<g id="edge29" class="edge">
<title>Buf&#45;&gt;Blob</title>
<path fill="none" stroke="#6666ff" d="M887.51,-176.5C875.01,-186.79 857.58,-201.14 843.42,-212.8"/>
<polygon fill="#6666ff" stroke="#6666ff" points="841.02,-210.25 835.52,-219.31 845.47,-215.65 841.02,-210.25"/>
</g>
<!-- Numeric -->
<g id="node16" class="node">
<title>Numeric</title>
<g id="a_node16"><a xlink:href="/type/Numeric" xlink:title="Numeric">
<ellipse fill="none" stroke="#6666ff" cx="269.9" cy="-306" rx="44.39" ry="18"/>
<text text-anchor="middle" x="269.9" y="-302.3" font-family="FreeSans" font-size="14.00" fill="#6666ff">Numeric</text>
</a>
</g>
</g>
<!-- Real -->
<g id="node17" class="node">
<title>Real</title>
<g id="a_node17"><a xlink:href="/type/Real" xlink:title="Real">
<ellipse fill="none" stroke="#6666ff" cx="137.9" cy="-234" rx="28.7" ry="18"/>
<text text-anchor="middle" x="137.9" y="-230.3" font-family="FreeSans" font-size="14.00" fill="#6666ff">Real</text>
</a>
</g>
</g>
<!-- Real&#45;&gt;Numeric -->
<g id="edge30" class="edge">
<title>Real&#45;&gt;Numeric</title>
<path fill="none" stroke="#6666ff" d="M159.1,-246.25C179.52,-257.08 210.78,-273.65 234.89,-286.44"/>
<polygon fill="#6666ff" stroke="#6666ff" points="233.27,-289.54 243.74,-291.13 236.55,-283.35 233.27,-289.54"/>
</g>
<!-- Rational -->
<g id="node18" class="node">
<title>Rational</title>
<g id="a_node18"><a xlink:href="/type/Rational" xlink:title="Rational">
<ellipse fill="none" stroke="#6666ff" cx="42.9" cy="-162" rx="42.79" ry="18"/>
<text text-anchor="middle" x="42.9" y="-158.3" font-family="FreeSans" font-size="14.00" fill="#6666ff">Rational</text>
</a>
</g>
</g>
<!-- Rational&#45;&gt;Real -->
<g id="edge31" class="edge">
<title>Rational&#45;&gt;Real</title>
<path fill="none" stroke="#6666ff" d="M63.51,-178.19C77.56,-188.54 96.29,-202.34 111.44,-213.51"/>
<polygon fill="#6666ff" stroke="#6666ff" points="109.76,-216.61 119.88,-219.73 113.91,-210.98 109.76,-216.61"/>
</g>
<!-- Rat -->
<g id="node19" class="node">
<title>Rat</title>
<g id="a_node19"><a xlink:href="/type/Rat" xlink:title="Rat">
<ellipse fill="none" stroke="#000000" cx="183.9" cy="-90" rx="27" ry="18"/>
<text text-anchor="middle" x="183.9" y="-86.3" font-family="FreeSans" font-size="14.00" fill="#000000">Rat</text>
</a>
</g>
</g>
<!-- Rat&#45;&gt;Cool -->
<g id="edge11" class="edge">
<title>Rat&#45;&gt;Cool</title>
<path fill="none" stroke="#000000" d="M187.95,-108.16C194.05,-134.02 204.9,-180 204.9,-180 204.9,-180 225.46,-197.58 242.9,-212.49"/>
<polygon fill="#000000" stroke="#000000" points="240.73,-215.24 250.61,-219.07 245.28,-209.92 240.73,-215.24"/>
</g>
<!-- Rat&#45;&gt;Rational -->
<g id="edge32" class="edge">
<title>Rat&#45;&gt;Rational</title>
<path fill="none" stroke="#6666ff" d="M162.79,-101.48C140.52,-112.53 105.05,-130.15 78.45,-143.35"/>
<polygon fill="#6666ff" stroke="#6666ff" points="76.85,-140.24 69.45,-147.82 79.96,-146.51 76.85,-140.24"/>
</g>
<!-- RatStr -->
<g id="node20" class="node">
<title>RatStr</title>
<g id="a_node20"><a xlink:href="/type/RatStr" xlink:title="RatStr">
<ellipse fill="none" stroke="#000000" cx="201.9" cy="-18" rx="36" ry="18"/>
<text text-anchor="middle" x="201.9" y="-14.3" font-family="FreeSans" font-size="14.00" fill="#000000">RatStr</text>
</a>
</g>
</g>
<!-- RatStr&#45;&gt;Allomorph -->
<g id="edge12" class="edge">
<title>RatStr&#45;&gt;Allomorph</title>
<path fill="none" stroke="#000000" d="M218.6,-34.19C228.88,-43.53 242.25,-55.69 253.79,-66.17"/>
<polygon fill="#000000" stroke="#000000" points="251.67,-68.97 261.42,-73.11 256.37,-63.8 251.67,-68.97"/>
</g>
<!-- RatStr&#45;&gt;Rat -->
<g id="edge13" class="edge">
<title>RatStr&#45;&gt;Rat</title>
<path fill="none" stroke="#000000" d="M197.54,-35.95C195.5,-43.86 193.03,-53.46 190.76,-62.31"/>
<polygon fill="#000000" stroke="#000000" points="187.31,-61.65 188.21,-72.21 194.09,-63.4 187.31,-61.65"/>
</g>
<!-- Int -->
<g id="node21" class="node">
<title>Int</title>
<g id="a_node21"><a xlink:href="/type/Int" xlink:title="Int">
<ellipse fill="none" stroke="#000000" cx="130.9" cy="-162" rx="27" ry="18"/>
<text text-anchor="middle" x="130.9" y="-158.3" font-family="FreeSans" font-size="14.00" fill="#000000">Int</text>
</a>
</g>
</g>
<!-- Int&#45;&gt;Cool -->
<g id="edge14" class="edge">
<title>Int&#45;&gt;Cool</title>
<path fill="none" stroke="#000000" d="M151.55,-173.63C174.05,-185.21 210.28,-203.86 236.14,-217.17"/>
<polygon fill="#000000" stroke="#000000" points="234.65,-220.34 245.14,-221.8 237.85,-214.12 234.65,-220.34"/>
</g>
<!-- Int&#45;&gt;Real -->
<g id="edge33" class="edge">
<title>Int&#45;&gt;Real</title>
<path fill="none" stroke="#6666ff" d="M132.63,-180.3C133.4,-188.02 134.32,-197.29 135.18,-205.89"/>
<polygon fill="#6666ff" stroke="#6666ff" points="131.71,-206.29 136.19,-215.9 138.67,-205.6 131.71,-206.29"/>
</g>
<!-- IntStr -->
<g id="node22" class="node">
<title>IntStr</title>
<g id="a_node22"><a xlink:href="/type/IntStr" xlink:title="IntStr">
<ellipse fill="none" stroke="#000000" cx="115.9" cy="-18" rx="31.7" ry="18"/>
<text text-anchor="middle" x="115.9" y="-14.3" font-family="FreeSans" font-size="14.00" fill="#000000">IntStr</text>
</a>
</g>
</g>
<!-- IntStr&#45;&gt;Allomorph -->
<g id="edge15" class="edge">
<title>IntStr&#45;&gt;Allomorph</title>
<path fill="none" stroke="#000000" d="M140.65,-29.63C166.61,-40.78 207.81,-58.47 238.49,-71.65"/>
<polygon fill="#000000" stroke="#000000" points="237.48,-75.02 248.05,-75.75 240.24,-68.59 237.48,-75.02"/>
</g>
<!-- IntStr&#45;&gt;Int -->
<g id="edge16" class="edge">
<title>IntStr&#45;&gt;Int</title>
<path fill="none" stroke="#000000" d="M117.71,-36.13C120.26,-60.33 124.96,-104.79 128,-133.61"/>
<polygon fill="#000000" stroke="#000000" points="124.55,-134.23 129.08,-143.81 131.51,-133.5 124.55,-134.23"/>
</g>
<!-- Complex -->
<g id="node23" class="node">
<title>Complex</title>
<g id="a_node23"><a xlink:href="/type/Complex" xlink:title="Complex">
<ellipse fill="none" stroke="#000000" cx="408.9" cy="-162" rx="45.49" ry="18"/>
<text text-anchor="middle" x="408.9" y="-158.3" font-family="FreeSans" font-size="14.00" fill="#000000">Complex</text>
</a>
</g>
</g>
<!-- Complex&#45;&gt;Cool -->
<g id="edge17" class="edge">
<title>Complex&#45;&gt;Cool</title>
<path fill="none" stroke="#000000" d="M381.52,-176.5C357.65,-188.26 323.04,-205.32 298.11,-217.62"/>
<polygon fill="#000000" stroke="#000000" points="296.49,-214.51 289.06,-222.07 299.58,-220.79 296.49,-214.51"/>
</g>
<!-- Complex&#45;&gt;Numeric -->
<g id="edge34" class="edge">
<title>Complex&#45;&gt;Numeric</title>
<path fill="none" stroke="#6666ff" d="M393.22,-179.01C368.72,-204.05 321.2,-252.58 292.84,-281.56"/>
<polygon fill="#6666ff" stroke="#6666ff" points="290.22,-279.23 285.73,-288.83 295.22,-284.13 290.22,-279.23"/>
</g>
<!-- ComplexStr -->
<g id="node24" class="node">
<title>ComplexStr</title>
<g id="a_node24"><a xlink:href="/type/ComplexStr" xlink:title="ComplexStr">
<ellipse fill="none" stroke="#000000" cx="411.9" cy="-18" rx="56.59" ry="18"/>
<text text-anchor="middle" x="411.9" y="-14.3" font-family="FreeSans" font-size="14.00" fill="#000000">ComplexStr</text>
</a>
</g>
</g>
<!-- ComplexStr&#45;&gt;Allomorph -->
<g id="edge18" class="edge">
<title>ComplexStr&#45;&gt;Allomorph</title>
<path fill="none" stroke="#000000" d="M384.02,-33.67C363.89,-44.27 336.53,-58.66 314.78,-70.12"/>
<polygon fill="#000000" stroke="#000000" points="313.05,-67.07 305.83,-74.82 316.31,-73.26 313.05,-67.07"/>
</g>
<!-- ComplexStr&#45;&gt;Complex -->
<g id="edge19" class="edge">
<title>ComplexStr&#45;&gt;Complex</title>
<path fill="none" stroke="#000000" d="M411.53,-36.13C411.02,-60.33 410.08,-104.79 409.47,-133.61"/>
<polygon fill="#000000" stroke="#000000" points="405.97,-133.74 409.26,-143.81 412.97,-133.89 405.97,-133.74"/>
</g>
<!-- Num -->
<g id="node25" class="node">
<title>Num</title>
<g id="a_node25"><a xlink:href="/type/Num" xlink:title="Num">
<ellipse fill="none" stroke="#000000" cx="243.9" cy="-162" rx="29.8" ry="18"/>
<text text-anchor="middle" x="243.9" y="-158.3" font-family="FreeSans" font-size="14.00" fill="#000000">Num</text>
</a>
</g>
</g>
<!-- Num&#45;&gt;Cool -->
<g id="edge20" class="edge">
<title>Num&#45;&gt;Cool</title>
<path fill="none" stroke="#000000" d="M249.46,-179.95C252.09,-187.94 255.29,-197.67 258.22,-206.6"/>
<polygon fill="#000000" stroke="#000000" points="254.93,-207.8 261.38,-216.21 261.58,-205.62 254.93,-207.8"/>
</g>
<!-- Num&#45;&gt;Real -->
<g id="edge35" class="edge">
<title>Num&#45;&gt;Real</title>
<path fill="none" stroke="#6666ff" d="M224.45,-175.84C207.92,-186.76 183.97,-202.57 165.45,-214.8"/>
<polygon fill="#6666ff" stroke="#6666ff" points="163.27,-212.05 156.86,-220.48 167.13,-217.89 163.27,-212.05"/>
</g>
<!-- NumStr -->
<g id="node26" class="node">
<title>NumStr</title>
<g id="a_node26"><a xlink:href="/type/NumStr" xlink:title="NumStr">
<ellipse fill="none" stroke="#000000" cx="296.9" cy="-18" rx="40.89" ry="18"/>
<text text-anchor="middle" x="296.9" y="-14.3" font-family="FreeSans" font-size="14.00" fill="#000000">NumStr</text>
</a>
</g>
</g>
<!-- NumStr&#45;&gt;Allomorph -->
<g id="edge21" class="edge">
<title>NumStr&#45;&gt;Allomorph</title>
<path fill="none" stroke="#000000" d="M292.54,-35.95C290.53,-43.74 288.11,-53.18 285.86,-61.92"/>
<polygon fill="#000000" stroke="#000000" points="282.44,-61.17 283.34,-71.72 289.22,-62.91 282.44,-61.17"/>
</g>
<!-- NumStr&#45;&gt;Num -->
<g id="edge22" class="edge">
<title>NumStr&#45;&gt;Num</title>
<path fill="none" stroke="#000000" d="M309.42,-35.19C321.48,-50.78 337.9,-72 337.9,-72 337.9,-72 337.9,-108 337.9,-108 337.9,-108 301.62,-128.45 274.14,-143.95"/>
<polygon fill="#000000" stroke="#000000" points="272.22,-141.01 265.23,-148.97 275.66,-147.11 272.22,-141.01"/>
</g>
</g>
</svg>
