<?xml version="1.0" encoding="UTF-8" standalone="no"?>
<!DOCTYPE svg PUBLIC "-//W3C//DTD SVG 1.1//EN"
 "http://www.w3.org/Graphics/SVG/1.1/DTD/svg11.dtd">
<!-- Generated by graphviz version 2.43.0 (0)
 -->
<!-- Title: raku&#45;type&#45;graph Pages: 1 -->
<svg width="254pt" height="260pt"
 viewBox="0.00 0.00 254.15 260.00" xmlns="http://www.w3.org/2000/svg" xmlns:xlink="http://www.w3.org/1999/xlink">
<g id="graph0" class="graph" transform="scale(1 1) rotate(0) translate(4 256)">
<title>raku&#45;type&#45;graph</title>
<polygon fill="#ffffff" stroke="transparent" points="-4,4 -4,-256 250.15,-256 250.15,4 -4,4"/>
<!-- Systemic -->
<g id="node1" class="node">
<title>Systemic</title>
<g id="a_node1"><a xlink:href="/type/Systemic" xlink:title="Systemic">
<ellipse fill="none" stroke="#6666ff" cx="89.15" cy="-162" rx="46.29" ry="18"/>
<text text-anchor="middle" x="89.15" y="-158.3" font-family="FreeSans" font-size="14.00" fill="#6666ff">Systemic</text>
</a>
</g>
</g>
<!-- Mu -->
<g id="node2" class="node">
<title>Mu</title>
<g id="a_node2"><a xlink:href="/type/Mu" xlink:title="Mu">
<ellipse fill="none" stroke="#000000" cx="180.15" cy="-234" rx="27" ry="18"/>
<text text-anchor="middle" x="180.15" y="-230.3" font-family="FreeSans" font-size="14.00" fill="#000000">Mu</text>
</a>
</g>
</g>
<!-- Any -->
<g id="node3" class="node">
<title>Any</title>
<g id="a_node3"><a xlink:href="/type/Any" xlink:title="Any">
<ellipse fill="none" stroke="#000000" cx="180.15" cy="-162" rx="27" ry="18"/>
<text text-anchor="middle" x="180.15" y="-158.3" font-family="FreeSans" font-size="14.00" fill="#000000">Any</text>
</a>
</g>
</g>
<!-- Any&#45;&gt;Mu -->
<g id="edge1" class="edge">
<title>Any&#45;&gt;Mu</title>
<path fill="none" stroke="#000000" d="M180.15,-180.3C180.15,-188.02 180.15,-197.29 180.15,-205.89"/>
<polygon fill="#000000" stroke="#000000" points="176.65,-205.9 180.15,-215.9 183.65,-205.9 176.65,-205.9"/>
</g>
<!-- Compiler -->
<g id="node4" class="node">
<title>Compiler</title>
<g id="a_node4"><a xlink:href="/type/Compiler" xlink:title="Compiler">
<ellipse fill="none" stroke="#000000" cx="46.15" cy="-90" rx="46.29" ry="18"/>
<text text-anchor="middle" x="46.15" y="-86.3" font-family="FreeSans" font-size="14.00" fill="#000000">Compiler</text>
</a>
</g>
</g>
<!-- Compiler&#45;&gt;Systemic -->
<g id="edge6" class="edge">
<title>Compiler&#45;&gt;Systemic</title>
<path fill="none" stroke="#6666ff" d="M56.34,-107.59C61.46,-115.92 67.77,-126.2 73.49,-135.51"/>
<polygon fill="#6666ff" stroke="#6666ff" points="70.51,-137.35 78.73,-144.04 76.48,-133.69 70.51,-137.35"/>
</g>
<!-- Compiler&#45;&gt;Any -->
<g id="edge2" class="edge">
<title>Compiler&#45;&gt;Any</title>
<path fill="none" stroke="#000000" d="M72.62,-104.83C95.01,-116.53 127.07,-133.28 150.36,-145.44"/>
<polygon fill="#000000" stroke="#000000" points="148.95,-148.65 159.43,-150.18 152.19,-142.45 148.95,-148.65"/>
</g>
<!-- Raku -->
<g id="node5" class="node">
<title>Raku</title>
<g id="a_node5"><a xlink:href="/type/Raku" xlink:title="Raku">
<ellipse fill="none" stroke="#000000" cx="142.15" cy="-90" rx="31.7" ry="18"/>
<text text-anchor="middle" x="142.15" y="-86.3" font-family="FreeSans" font-size="14.00" fill="#000000">Raku</text>
</a>
</g>
</g>
<!-- Raku&#45;&gt;Systemic -->
<g id="edge7" class="edge">
<title>Raku&#45;&gt;Systemic</title>
<path fill="none" stroke="#6666ff" d="M130.12,-106.88C123.6,-115.49 115.39,-126.33 108.04,-136.04"/>
<polygon fill="#6666ff" stroke="#6666ff" points="105.11,-134.12 101.86,-144.2 110.69,-138.34 105.11,-134.12"/>
</g>
<!-- Raku&#45;&gt;Any -->
<g id="edge3" class="edge">
<title>Raku&#45;&gt;Any</title>
<path fill="none" stroke="#000000" d="M151.15,-107.59C155.69,-115.96 161.3,-126.29 166.37,-135.63"/>
<polygon fill="#000000" stroke="#000000" points="163.36,-137.41 171.21,-144.53 169.51,-134.07 163.36,-137.41"/>
</g>
<!-- VM -->
<g id="node6" class="node">
<title>VM</title>
<g id="a_node6"><a xlink:href="/type/VM" xlink:title="VM">
<ellipse fill="none" stroke="#000000" cx="219.15" cy="-90" rx="27" ry="18"/>
<text text-anchor="middle" x="219.15" y="-86.3" font-family="FreeSans" font-size="14.00" fill="#000000">VM</text>
</a>
</g>
</g>
<!-- VM&#45;&gt;Systemic -->
<g id="edge8" class="edge">
<title>VM&#45;&gt;Systemic</title>
<path fill="none" stroke="#6666ff" d="M198.83,-101.94C178.91,-112.66 148.14,-129.24 124.25,-142.1"/>
<polygon fill="#6666ff" stroke="#6666ff" points="122.29,-139.18 115.14,-147 125.6,-145.34 122.29,-139.18"/>
</g>
<!-- VM&#45;&gt;Any -->
<g id="edge4" class="edge">
<title>VM&#45;&gt;Any</title>
<path fill="none" stroke="#000000" d="M210.1,-107.24C205.33,-115.81 199.36,-126.51 194.02,-136.1"/>
<polygon fill="#000000" stroke="#000000" points="190.95,-134.41 189.14,-144.85 197.07,-137.82 190.95,-134.41"/>
</g>
<!-- Perl -->
<g id="node7" class="node">
<title>Perl</title>
<g id="a_node7"><a xlink:href="/type/Perl" xlink:title="Perl">
<ellipse fill="none" stroke="#000000" cx="142.15" cy="-18" rx="27" ry="18"/>
<text text-anchor="middle" x="142.15" y="-14.3" font-family="FreeSans" font-size="14.00" fill="#000000">Perl</text>
</a>
</g>
</g>
<!-- Perl&#45;&gt;Raku -->
<g id="edge5" class="edge">
<title>Perl&#45;&gt;Raku</title>
<path fill="none" stroke="#000000" d="M142.15,-36.3C142.15,-44.02 142.15,-53.29 142.15,-61.89"/>
<polygon fill="#000000" stroke="#000000" points="138.65,-61.9 142.15,-71.9 145.65,-61.9 138.65,-61.9"/>
</g>
</g>
</svg>
