<?xml version="1.0" encoding="UTF-8" standalone="no"?>
<!DOCTYPE svg PUBLIC "-//W3C//DTD SVG 1.1//EN"
 "http://www.w3.org/Graphics/SVG/1.1/DTD/svg11.dtd">
<!-- Generated by graphviz version 2.43.0 (0)
 -->
<!-- Title: raku&#45;type&#45;graph Pages: 1 -->
<svg width="322pt" height="260pt"
 viewBox="0.00 0.00 321.99 260.00" xmlns="http://www.w3.org/2000/svg" xmlns:xlink="http://www.w3.org/1999/xlink">
<g id="graph0" class="graph" transform="scale(1 1) rotate(0) translate(4 256)">
<title>raku&#45;type&#45;graph</title>
<polygon fill="#ffffff" stroke="transparent" points="-4,4 -4,-256 317.99,-256 317.99,4 -4,4"/>
<!-- Uni -->
<g id="node1" class="node">
<title>Uni</title>
<g id="a_node1"><a xlink:href="/type/Uni" xlink:title="Uni">
<ellipse fill="none" stroke="#000000" cx="153.25" cy="-90" rx="27" ry="18"/>
<text text-anchor="middle" x="153.25" y="-86.3" font-family="FreeSans" font-size="14.00" fill="#000000">Uni</text>
</a>
</g>
</g>
<!-- Any -->
<g id="node3" class="node">
<title>Any</title>
<g id="a_node3"><a xlink:href="/type/Any" xlink:title="Any">
<ellipse fill="none" stroke="#000000" cx="59.25" cy="-162" rx="27" ry="18"/>
<text text-anchor="middle" x="59.25" y="-158.3" font-family="FreeSans" font-size="14.00" fill="#000000">Any</text>
</a>
</g>
</g>
<!-- Uni&#45;&gt;Any -->
<g id="edge1" class="edge">
<title>Uni&#45;&gt;Any</title>
<path fill="none" stroke="#000000" d="M135.57,-104.17C121.3,-114.79 101.02,-129.89 84.96,-141.85"/>
<polygon fill="#000000" stroke="#000000" points="82.46,-139.35 76.53,-148.13 86.64,-144.96 82.46,-139.35"/>
</g>
<!-- Positional -->
<g id="node4" class="node">
<title>Positional</title>
<g id="a_node4"><a xlink:href="/type/Positional" xlink:title="Positional">
<ellipse fill="none" stroke="#6666ff" cx="153.25" cy="-162" rx="48.99" ry="18"/>
<text text-anchor="middle" x="153.25" y="-158.3" font-family="FreeSans" font-size="14.00" fill="#6666ff">Positional</text>
</a>
</g>
</g>
<!-- Uni&#45;&gt;Positional -->
<g id="edge7" class="edge">
<title>Uni&#45;&gt;Positional</title>
<path fill="none" stroke="#6666ff" d="M153.25,-108.3C153.25,-116.02 153.25,-125.29 153.25,-133.89"/>
<polygon fill="#6666ff" stroke="#6666ff" points="149.75,-133.9 153.25,-143.9 156.75,-133.9 149.75,-133.9"/>
</g>
<!-- Stringy -->
<g id="node5" class="node">
<title>Stringy</title>
<g id="a_node5"><a xlink:href="/type/Stringy" xlink:title="Stringy">
<ellipse fill="none" stroke="#6666ff" cx="258.25" cy="-162" rx="38.19" ry="18"/>
<text text-anchor="middle" x="258.25" y="-158.3" font-family="FreeSans" font-size="14.00" fill="#6666ff">Stringy</text>
</a>
</g>
</g>
<!-- Uni&#45;&gt;Stringy -->
<g id="edge8" class="edge">
<title>Uni&#45;&gt;Stringy</title>
<path fill="none" stroke="#6666ff" d="M172.02,-103.51C187.73,-113.99 210.44,-129.13 228.61,-141.24"/>
<polygon fill="#6666ff" stroke="#6666ff" points="226.85,-144.27 237.11,-146.91 230.73,-138.45 226.85,-144.27"/>
</g>
<!-- Mu -->
<g id="node2" class="node">
<title>Mu</title>
<g id="a_node2"><a xlink:href="/type/Mu" xlink:title="Mu">
<ellipse fill="none" stroke="#000000" cx="59.25" cy="-234" rx="27" ry="18"/>
<text text-anchor="middle" x="59.25" y="-230.3" font-family="FreeSans" font-size="14.00" fill="#000000">Mu</text>
</a>
</g>
</g>
<!-- Any&#45;&gt;Mu -->
<g id="edge2" class="edge">
<title>Any&#45;&gt;Mu</title>
<path fill="none" stroke="#000000" d="M59.25,-180.3C59.25,-188.02 59.25,-197.29 59.25,-205.89"/>
<polygon fill="#000000" stroke="#000000" points="55.75,-205.9 59.25,-215.9 62.75,-205.9 55.75,-205.9"/>
</g>
<!-- NFD -->
<g id="node6" class="node">
<title>NFD</title>
<g id="a_node6"><a xlink:href="/type/NFD" xlink:title="NFD">
<ellipse fill="none" stroke="#000000" cx="29.25" cy="-18" rx="29.5" ry="18"/>
<text text-anchor="middle" x="29.25" y="-14.3" font-family="FreeSans" font-size="14.00" fill="#000000">NFD</text>
</a>
</g>
</g>
<!-- NFD&#45;&gt;Uni -->
<g id="edge3" class="edge">
<title>NFD&#45;&gt;Uni</title>
<path fill="none" stroke="#000000" d="M50,-30.72C70.36,-42.21 101.58,-59.83 124.36,-72.69"/>
<polygon fill="#000000" stroke="#000000" points="122.82,-75.84 133.25,-77.71 126.26,-69.75 122.82,-75.84"/>
</g>
<!-- NFKD -->
<g id="node7" class="node">
<title>NFKD</title>
<g id="a_node7"><a xlink:href="/type/NFKD" xlink:title="NFKD">
<ellipse fill="none" stroke="#000000" cx="112.25" cy="-18" rx="36" ry="18"/>
<text text-anchor="middle" x="112.25" y="-14.3" font-family="FreeSans" font-size="14.00" fill="#000000">NFKD</text>
</a>
</g>
</g>
<!-- NFKD&#45;&gt;Uni -->
<g id="edge4" class="edge">
<title>NFKD&#45;&gt;Uni</title>
<path fill="none" stroke="#000000" d="M121.96,-35.59C126.99,-44.17 133.22,-54.81 138.8,-64.33"/>
<polygon fill="#000000" stroke="#000000" points="135.81,-66.15 143.88,-73.01 141.85,-62.61 135.81,-66.15"/>
</g>
<!-- NFC -->
<g id="node8" class="node">
<title>NFC</title>
<g id="a_node8"><a xlink:href="/type/NFC" xlink:title="NFC">
<ellipse fill="none" stroke="#000000" cx="195.25" cy="-18" rx="29.5" ry="18"/>
<text text-anchor="middle" x="195.25" y="-14.3" font-family="FreeSans" font-size="14.00" fill="#000000">NFC</text>
</a>
</g>
</g>
<!-- NFC&#45;&gt;Uni -->
<g id="edge5" class="edge">
<title>NFC&#45;&gt;Uni</title>
<path fill="none" stroke="#000000" d="M185.51,-35.24C180.36,-43.81 173.94,-54.51 168.19,-64.1"/>
<polygon fill="#000000" stroke="#000000" points="165.08,-62.48 162.94,-72.85 171.08,-66.08 165.08,-62.48"/>
</g>
<!-- NFKC -->
<g id="node9" class="node">
<title>NFKC</title>
<g id="a_node9"><a xlink:href="/type/NFKC" xlink:title="NFKC">
<ellipse fill="none" stroke="#000000" cx="278.25" cy="-18" rx="36" ry="18"/>
<text text-anchor="middle" x="278.25" y="-14.3" font-family="FreeSans" font-size="14.00" fill="#000000">NFKC</text>
</a>
</g>
</g>
<!-- NFKC&#45;&gt;Uni -->
<g id="edge6" class="edge">
<title>NFKC&#45;&gt;Uni</title>
<path fill="none" stroke="#000000" d="M255.32,-31.84C234.85,-43.3 204.75,-60.16 182.53,-72.6"/>
<polygon fill="#000000" stroke="#000000" points="180.56,-69.69 173.55,-77.63 183.98,-75.8 180.56,-69.69"/>
</g>
</g>
</svg>
