<?xml version="1.0" encoding="UTF-8" standalone="no"?>
<!DOCTYPE svg PUBLIC "-//W3C//DTD SVG 1.1//EN"
 "http://www.w3.org/Graphics/SVG/1.1/DTD/svg11.dtd">
<!-- Generated by graphviz version 2.43.0 (0)
 -->
<!-- Title: raku&#45;type&#45;graph Pages: 1 -->
<svg width="1184pt" height="332pt"
 viewBox="0.00 0.00 1184.24 332.00" xmlns="http://www.w3.org/2000/svg" xmlns:xlink="http://www.w3.org/1999/xlink">
<g id="graph0" class="graph" transform="scale(1 1) rotate(0) translate(4 328)">
<title>raku&#45;type&#45;graph</title>
<polygon fill="#ffffff" stroke="transparent" points="-4,4 -4,-328 1180.24,-328 1180.24,4 -4,4"/>
<!-- X::Control -->
<g id="node1" class="node">
<title>X::Control</title>
<g id="a_node1"><a xlink:href="/type/X::Control" xlink:title="X::Control">
<ellipse fill="none" stroke="#6666ff" cx="583.75" cy="-90" rx="50.09" ry="18"/>
<text text-anchor="middle" x="583.75" y="-86.3" font-family="FreeSans" font-size="14.00" fill="#6666ff">X::Control</text>
</a>
</g>
</g>
<!-- Exception -->
<g id="node4" class="node">
<title>Exception</title>
<g id="a_node4"><a xlink:href="/type/Exception" xlink:title="Exception">
<ellipse fill="none" stroke="#000000" cx="626.75" cy="-162" rx="49.29" ry="18"/>
<text text-anchor="middle" x="626.75" y="-158.3" font-family="FreeSans" font-size="14.00" fill="#000000">Exception</text>
</a>
</g>
</g>
<!-- X::Control&#45;&gt;Exception -->
<g id="edge1" class="edge">
<title>X::Control&#45;&gt;Exception</title>
<path fill="none" stroke="#000000" d="M594.15,-107.95C599.23,-116.2 605.43,-126.3 611.06,-135.46"/>
<polygon fill="#000000" stroke="#000000" points="608.22,-137.52 616.43,-144.21 614.18,-133.86 608.22,-137.52"/>
</g>
<!-- Mu -->
<g id="node2" class="node">
<title>Mu</title>
<g id="a_node2"><a xlink:href="/type/Mu" xlink:title="Mu">
<ellipse fill="none" stroke="#000000" cx="626.75" cy="-306" rx="27" ry="18"/>
<text text-anchor="middle" x="626.75" y="-302.3" font-family="FreeSans" font-size="14.00" fill="#000000">Mu</text>
</a>
</g>
</g>
<!-- Any -->
<g id="node3" class="node">
<title>Any</title>
<g id="a_node3"><a xlink:href="/type/Any" xlink:title="Any">
<ellipse fill="none" stroke="#000000" cx="626.75" cy="-234" rx="27" ry="18"/>
<text text-anchor="middle" x="626.75" y="-230.3" font-family="FreeSans" font-size="14.00" fill="#000000">Any</text>
</a>
</g>
</g>
<!-- Any&#45;&gt;Mu -->
<g id="edge2" class="edge">
<title>Any&#45;&gt;Mu</title>
<path fill="none" stroke="#000000" d="M626.75,-252.3C626.75,-260.02 626.75,-269.29 626.75,-277.89"/>
<polygon fill="#000000" stroke="#000000" points="623.25,-277.9 626.75,-287.9 630.25,-277.9 623.25,-277.9"/>
</g>
<!-- Exception&#45;&gt;Any -->
<g id="edge3" class="edge">
<title>Exception&#45;&gt;Any</title>
<path fill="none" stroke="#000000" d="M626.75,-180.3C626.75,-188.02 626.75,-197.29 626.75,-205.89"/>
<polygon fill="#000000" stroke="#000000" points="623.25,-205.9 626.75,-215.9 630.25,-205.9 623.25,-205.9"/>
</g>
<!-- CX::Done -->
<g id="node5" class="node">
<title>CX::Done</title>
<g id="a_node5"><a xlink:href="/type/CX::Done" xlink:title="CX::Done">
<ellipse fill="none" stroke="#000000" cx="48.75" cy="-18" rx="48.99" ry="18"/>
<text text-anchor="middle" x="48.75" y="-14.3" font-family="FreeSans" font-size="14.00" fill="#000000">CX::Done</text>
</a>
</g>
</g>
<!-- CX::Done&#45;&gt;X::Control -->
<g id="edge15" class="edge">
<title>CX::Done&#45;&gt;X::Control</title>
<path fill="none" stroke="#6666ff" d="M85.81,-29.86C97.17,-33.19 106.75,-36 106.75,-36 106.75,-36 399.66,-68.55 526.42,-82.63"/>
<polygon fill="#6666ff" stroke="#6666ff" points="526.38,-86.15 536.7,-83.77 527.15,-79.19 526.38,-86.15"/>
</g>
<!-- CX::Done&#45;&gt;Exception -->
<g id="edge4" class="edge">
<title>CX::Done&#45;&gt;Exception</title>
<path fill="none" stroke="#000000" d="M83.01,-30.91C152.76,-55.16 304.75,-108 304.75,-108 304.75,-108 481,-137.01 572.7,-152.11"/>
<polygon fill="#000000" stroke="#000000" points="572.21,-155.57 582.65,-153.74 573.35,-148.66 572.21,-155.57"/>
</g>
<!-- CX::Next -->
<g id="node6" class="node">
<title>CX::Next</title>
<g id="a_node6"><a xlink:href="/type/CX::Next" xlink:title="CX::Next">
<ellipse fill="none" stroke="#000000" cx="161.75" cy="-18" rx="46.29" ry="18"/>
<text text-anchor="middle" x="161.75" y="-14.3" font-family="FreeSans" font-size="14.00" fill="#000000">CX::Next</text>
</a>
</g>
</g>
<!-- CX::Next&#45;&gt;X::Control -->
<g id="edge16" class="edge">
<title>CX::Next&#45;&gt;X::Control</title>
<path fill="none" stroke="#6666ff" d="M196.89,-29.86C207.67,-33.19 216.75,-36 216.75,-36 216.75,-36 425.07,-66.09 527.81,-80.92"/>
<polygon fill="#6666ff" stroke="#6666ff" points="527.61,-84.43 538.01,-82.39 528.61,-77.5 527.61,-84.43"/>
</g>
<!-- CX::Next&#45;&gt;Exception -->
<g id="edge5" class="edge">
<title>CX::Next&#45;&gt;Exception</title>
<path fill="none" stroke="#000000" d="M194.07,-31.19C258.7,-55.56 397.75,-108 397.75,-108 397.75,-108 508.89,-133.72 576.31,-149.33"/>
<polygon fill="#000000" stroke="#000000" points="575.8,-152.8 586.33,-151.65 577.38,-145.98 575.8,-152.8"/>
</g>
<!-- CX::Return -->
<g id="node7" class="node">
<title>CX::Return</title>
<g id="a_node7"><a xlink:href="/type/CX::Return" xlink:title="CX::Return">
<ellipse fill="none" stroke="#000000" cx="279.75" cy="-18" rx="53.89" ry="18"/>
<text text-anchor="middle" x="279.75" y="-14.3" font-family="FreeSans" font-size="14.00" fill="#000000">CX::Return</text>
</a>
</g>
</g>
<!-- CX::Return&#45;&gt;X::Control -->
<g id="edge17" class="edge">
<title>CX::Return&#45;&gt;X::Control</title>
<path fill="none" stroke="#6666ff" d="M320.36,-29.96C332.55,-33.25 342.75,-36 342.75,-36 342.75,-36 461.45,-62.1 532.24,-77.67"/>
<polygon fill="#6666ff" stroke="#6666ff" points="531.8,-81.16 542.32,-79.89 533.3,-74.32 531.8,-81.16"/>
</g>
<!-- CX::Return&#45;&gt;Exception -->
<g id="edge6" class="edge">
<title>CX::Return&#45;&gt;Exception</title>
<path fill="none" stroke="#000000" d="M310.37,-32.91C365.5,-57.94 475.75,-108 475.75,-108 475.75,-108 538.4,-129.99 582.99,-145.64"/>
<polygon fill="#000000" stroke="#000000" points="581.89,-148.96 592.48,-148.97 584.2,-142.36 581.89,-148.96"/>
</g>
<!-- CX::Proceed -->
<g id="node8" class="node">
<title>CX::Proceed</title>
<g id="a_node8"><a xlink:href="/type/CX::Proceed" xlink:title="CX::Proceed">
<ellipse fill="none" stroke="#000000" cx="411.75" cy="-18" rx="60.39" ry="18"/>
<text text-anchor="middle" x="411.75" y="-14.3" font-family="FreeSans" font-size="14.00" fill="#000000">CX::Proceed</text>
</a>
</g>
</g>
<!-- CX::Proceed&#45;&gt;X::Control -->
<g id="edge18" class="edge">
<title>CX::Proceed&#45;&gt;X::Control</title>
<path fill="none" stroke="#6666ff" d="M446.14,-33C473.8,-44.25 512.75,-60.11 542.16,-72.08"/>
<polygon fill="#6666ff" stroke="#6666ff" points="541.15,-75.44 551.74,-75.97 543.79,-68.96 541.15,-75.44"/>
</g>
<!-- CX::Proceed&#45;&gt;Exception -->
<g id="edge7" class="edge">
<title>CX::Proceed&#45;&gt;Exception</title>
<path fill="none" stroke="#000000" d="M431.48,-35.12C462.9,-60.76 520.75,-108 520.75,-108 520.75,-108 559.14,-127.2 589.71,-142.48"/>
<polygon fill="#000000" stroke="#000000" points="588.39,-145.73 598.9,-147.07 591.52,-139.47 588.39,-145.73"/>
</g>
<!-- CX::Take -->
<g id="node9" class="node">
<title>CX::Take</title>
<g id="a_node9"><a xlink:href="/type/CX::Take" xlink:title="CX::Take">
<ellipse fill="none" stroke="#000000" cx="538.75" cy="-18" rx="48.19" ry="18"/>
<text text-anchor="middle" x="538.75" y="-14.3" font-family="FreeSans" font-size="14.00" fill="#000000">CX::Take</text>
</a>
</g>
</g>
<!-- CX::Take&#45;&gt;X::Control -->
<g id="edge19" class="edge">
<title>CX::Take&#45;&gt;X::Control</title>
<path fill="none" stroke="#6666ff" d="M549.41,-35.59C554.77,-43.92 561.38,-54.2 567.36,-63.51"/>
<polygon fill="#6666ff" stroke="#6666ff" points="564.49,-65.52 572.85,-72.04 570.38,-61.74 564.49,-65.52"/>
</g>
<!-- CX::Take&#45;&gt;Exception -->
<g id="edge8" class="edge">
<title>CX::Take&#45;&gt;Exception</title>
<path fill="none" stroke="#000000" d="M534.24,-36.06C530.15,-51.55 524.75,-72 524.75,-72 524.75,-72 524.75,-108 524.75,-108 524.75,-108 561.15,-126.92 590.47,-142.15"/>
<polygon fill="#000000" stroke="#000000" points="589.19,-145.43 599.68,-146.94 592.42,-139.22 589.19,-145.43"/>
</g>
<!-- CX::Redo -->
<g id="node10" class="node">
<title>CX::Redo</title>
<g id="a_node10"><a xlink:href="/type/CX::Redo" xlink:title="CX::Redo">
<ellipse fill="none" stroke="#000000" cx="653.75" cy="-18" rx="48.99" ry="18"/>
<text text-anchor="middle" x="653.75" y="-14.3" font-family="FreeSans" font-size="14.00" fill="#000000">CX::Redo</text>
</a>
</g>
</g>
<!-- CX::Redo&#45;&gt;X::Control -->
<g id="edge20" class="edge">
<title>CX::Redo&#45;&gt;X::Control</title>
<path fill="none" stroke="#6666ff" d="M632.49,-34.54C622.68,-43.31 611.26,-54.47 601.86,-64.4"/>
<polygon fill="#6666ff" stroke="#6666ff" points="599.03,-62.31 594.83,-72.04 604.18,-67.06 599.03,-62.31"/>
</g>
<!-- CX::Redo&#45;&gt;X::Control -->
<g id="edge21" class="edge">
<title>CX::Redo&#45;&gt;X::Control</title>
<path fill="none" stroke="#6666ff" d="M643,-35.59C634.77,-44.83 623.3,-56.46 612.59,-66.51"/>
<polygon fill="#6666ff" stroke="#6666ff" points="609.98,-64.15 604.97,-73.49 614.71,-69.31 609.98,-64.15"/>
</g>
<!-- CX::Redo&#45;&gt;Exception -->
<g id="edge9" class="edge">
<title>CX::Redo&#45;&gt;Exception</title>
<path fill="none" stroke="#000000" d="M645.97,-36.16C639.43,-62.02 633.75,-108 633.75,-108 633.75,-108 629.83,-120.98 626.96,-134.1"/>
<polygon fill="#000000" stroke="#000000" points="623.52,-133.46 625.05,-143.94 630.39,-134.79 623.52,-133.46"/>
</g>
<!-- CX::Redo&#45;&gt;Exception -->
<g id="edge10" class="edge">
<title>CX::Redo&#45;&gt;Exception</title>
<path fill="none" stroke="#000000" d="M657.28,-36.16C657.43,-62.02 651.75,-108 651.75,-108 651.75,-108 647.7,-121.41 642.53,-134.73"/>
<polygon fill="#000000" stroke="#000000" points="639.19,-133.65 638.61,-144.23 645.66,-136.32 639.19,-133.65"/>
</g>
<!-- CX::Warn -->
<g id="node11" class="node">
<title>CX::Warn</title>
<g id="a_node11"><a xlink:href="/type/CX::Warn" xlink:title="CX::Warn">
<ellipse fill="none" stroke="#000000" cx="768.75" cy="-18" rx="48.99" ry="18"/>
<text text-anchor="middle" x="768.75" y="-14.3" font-family="FreeSans" font-size="14.00" fill="#000000">CX::Warn</text>
</a>
</g>
</g>
<!-- CX::Warn&#45;&gt;X::Control -->
<g id="edge22" class="edge">
<title>CX::Warn&#45;&gt;X::Control</title>
<path fill="none" stroke="#6666ff" d="M735.67,-31.51C705.12,-43.08 659.56,-60.31 626.31,-72.9"/>
<polygon fill="#6666ff" stroke="#6666ff" points="624.96,-69.66 616.84,-76.48 627.44,-76.21 624.96,-69.66"/>
</g>
<!-- CX::Warn&#45;&gt;Exception -->
<g id="edge11" class="edge">
<title>CX::Warn&#45;&gt;Exception</title>
<path fill="none" stroke="#000000" d="M752.73,-35.01C727.7,-60.05 679.16,-108.58 650.19,-137.56"/>
<polygon fill="#000000" stroke="#000000" points="647.51,-135.28 642.92,-144.83 652.46,-140.23 647.51,-135.28"/>
</g>
<!-- CX::Last -->
<g id="node12" class="node">
<title>CX::Last</title>
<g id="a_node12"><a xlink:href="/type/CX::Last" xlink:title="CX::Last">
<ellipse fill="none" stroke="#000000" cx="880.75" cy="-18" rx="44.69" ry="18"/>
<text text-anchor="middle" x="880.75" y="-14.3" font-family="FreeSans" font-size="14.00" fill="#000000">CX::Last</text>
</a>
</g>
</g>
<!-- CX::Last&#45;&gt;X::Control -->
<g id="edge23" class="edge">
<title>CX::Last&#45;&gt;X::Control</title>
<path fill="none" stroke="#6666ff" d="M846.55,-29.77C835.83,-33.14 826.75,-36 826.75,-36 826.75,-36 707.06,-62.1 635.68,-77.67"/>
<polygon fill="#6666ff" stroke="#6666ff" points="634.54,-74.34 625.52,-79.89 636.04,-81.18 634.54,-74.34"/>
</g>
<!-- CX::Last&#45;&gt;Exception -->
<g id="edge12" class="edge">
<title>CX::Last&#45;&gt;Exception</title>
<path fill="none" stroke="#000000" d="M855.46,-33.13C809.77,-58.68 713.38,-112.56 661.52,-141.56"/>
<polygon fill="#000000" stroke="#000000" points="659.7,-138.56 652.68,-146.5 663.12,-144.67 659.7,-138.56"/>
</g>
<!-- CX::Succeed -->
<g id="node13" class="node">
<title>CX::Succeed</title>
<g id="a_node13"><a xlink:href="/type/CX::Succeed" xlink:title="CX::Succeed">
<ellipse fill="none" stroke="#000000" cx="1005.75" cy="-18" rx="61.99" ry="18"/>
<text text-anchor="middle" x="1005.75" y="-14.3" font-family="FreeSans" font-size="14.00" fill="#000000">CX::Succeed</text>
</a>
</g>
</g>
<!-- CX::Succeed&#45;&gt;X::Control -->
<g id="edge24" class="edge">
<title>CX::Succeed&#45;&gt;X::Control</title>
<path fill="none" stroke="#6666ff" d="M959.58,-30.05C946.02,-33.3 934.75,-36 934.75,-36 934.75,-36 737.89,-65.72 639.03,-80.65"/>
<polygon fill="#6666ff" stroke="#6666ff" points="638.28,-77.23 628.91,-82.18 639.32,-84.15 638.28,-77.23"/>
</g>
<!-- CX::Succeed&#45;&gt;Exception -->
<g id="edge13" class="edge">
<title>CX::Succeed&#45;&gt;Exception</title>
<path fill="none" stroke="#000000" d="M969.49,-32.61C903.1,-57.55 768.75,-108 768.75,-108 768.75,-108 711.31,-129.44 669.49,-145.05"/>
<polygon fill="#000000" stroke="#000000" points="668.18,-141.8 660.04,-148.57 670.63,-148.36 668.18,-141.8"/>
</g>
<!-- CX::Emit -->
<g id="node14" class="node">
<title>CX::Emit</title>
<g id="a_node14"><a xlink:href="/type/CX::Emit" xlink:title="CX::Emit">
<ellipse fill="none" stroke="#000000" cx="1130.75" cy="-18" rx="45.49" ry="18"/>
<text text-anchor="middle" x="1130.75" y="-14.3" font-family="FreeSans" font-size="14.00" fill="#000000">CX::Emit</text>
</a>
</g>
</g>
<!-- CX::Emit&#45;&gt;X::Control -->
<g id="edge25" class="edge">
<title>CX::Emit&#45;&gt;X::Control</title>
<path fill="none" stroke="#6666ff" d="M1096.24,-29.86C1085.66,-33.19 1076.75,-36 1076.75,-36 1076.75,-36 771.18,-68.85 641.18,-82.83"/>
<polygon fill="#6666ff" stroke="#6666ff" points="640.59,-79.37 631.02,-83.92 641.33,-86.33 640.59,-79.37"/>
</g>
<!-- CX::Emit&#45;&gt;Exception -->
<g id="edge14" class="edge">
<title>CX::Emit&#45;&gt;Exception</title>
<path fill="none" stroke="#000000" d="M1096.24,-29.86C1085.66,-33.19 1076.75,-36 1076.75,-36 1076.75,-36 828.75,-108 828.75,-108 828.75,-108 735.49,-132.47 675.71,-148.15"/>
<polygon fill="#000000" stroke="#000000" points="674.48,-144.86 665.69,-150.78 676.25,-151.63 674.48,-144.86"/>
</g>
</g>
</svg>
