<?xml version="1.0" encoding="UTF-8" standalone="no"?>
<!DOCTYPE svg PUBLIC "-//W3C//DTD SVG 1.1//EN"
 "http://www.w3.org/Graphics/SVG/1.1/DTD/svg11.dtd">
<!-- Generated by graphviz version 2.43.0 (0)
 -->
<!-- Title: raku&#45;type&#45;graph Pages: 1 -->
<svg width="1184pt" height="332pt"
 viewBox="0.00 0.00 1183.84 332.00" xmlns="http://www.w3.org/2000/svg" xmlns:xlink="http://www.w3.org/1999/xlink">
<g id="graph0" class="graph" transform="scale(1 1) rotate(0) translate(4 328)">
<title>raku&#45;type&#45;graph</title>
<polygon fill="#ffffff" stroke="transparent" points="-4,4 -4,-328 1179.84,-328 1179.84,4 -4,4"/>
<!-- X::Control -->
<g id="node1" class="node">
<title>X::Control</title>
<g id="a_node1"><a xlink:href="/type/X::Control" xlink:title="X::Control">
<ellipse fill="none" stroke="#6666ff" cx="516.75" cy="-90" rx="50.09" ry="18"/>
<text text-anchor="middle" x="516.75" y="-86.3" font-family="FreeSans" font-size="14.00" fill="#6666ff">X::Control</text>
</a>
</g>
</g>
<!-- Exception -->
<g id="node4" class="node">
<title>Exception</title>
<g id="a_node4"><a xlink:href="/type/Exception" xlink:title="Exception">
<ellipse fill="none" stroke="#000000" cx="477.75" cy="-162" rx="49.29" ry="18"/>
<text text-anchor="middle" x="477.75" y="-158.3" font-family="FreeSans" font-size="14.00" fill="#000000">Exception</text>
</a>
</g>
</g>
<!-- X::Control&#45;&gt;Exception -->
<g id="edge1" class="edge">
<title>X::Control&#45;&gt;Exception</title>
<path fill="none" stroke="#000000" d="M507.3,-107.95C502.71,-116.2 497.08,-126.3 491.97,-135.46"/>
<polygon fill="#000000" stroke="#000000" points="488.91,-133.77 487.1,-144.21 495.02,-137.18 488.91,-133.77"/>
</g>
<!-- Mu -->
<g id="node2" class="node">
<title>Mu</title>
<g id="a_node2"><a xlink:href="/type/Mu" xlink:title="Mu">
<ellipse fill="none" stroke="#000000" cx="477.75" cy="-306" rx="27" ry="18"/>
<text text-anchor="middle" x="477.75" y="-302.3" font-family="FreeSans" font-size="14.00" fill="#000000">Mu</text>
</a>
</g>
</g>
<!-- Any -->
<g id="node3" class="node">
<title>Any</title>
<g id="a_node3"><a xlink:href="/type/Any" xlink:title="Any">
<ellipse fill="none" stroke="#000000" cx="477.75" cy="-234" rx="27" ry="18"/>
<text text-anchor="middle" x="477.75" y="-230.3" font-family="FreeSans" font-size="14.00" fill="#000000">Any</text>
</a>
</g>
</g>
<!-- Any&#45;&gt;Mu -->
<g id="edge2" class="edge">
<title>Any&#45;&gt;Mu</title>
<path fill="none" stroke="#000000" d="M477.75,-252.3C477.75,-260.02 477.75,-269.29 477.75,-277.89"/>
<polygon fill="#000000" stroke="#000000" points="474.25,-277.9 477.75,-287.9 481.25,-277.9 474.25,-277.9"/>
</g>
<!-- Exception&#45;&gt;Any -->
<g id="edge3" class="edge">
<title>Exception&#45;&gt;Any</title>
<path fill="none" stroke="#000000" d="M477.75,-180.3C477.75,-188.02 477.75,-197.29 477.75,-205.89"/>
<polygon fill="#000000" stroke="#000000" points="474.25,-205.9 477.75,-215.9 481.25,-205.9 474.25,-205.9"/>
</g>
<!-- CX::Redo -->
<g id="node5" class="node">
<title>CX::Redo</title>
<g id="a_node5"><a xlink:href="/type/CX::Redo" xlink:title="CX::Redo">
<ellipse fill="none" stroke="#000000" cx="48.75" cy="-18" rx="48.99" ry="18"/>
<text text-anchor="middle" x="48.75" y="-14.3" font-family="FreeSans" font-size="14.00" fill="#000000">CX::Redo</text>
</a>
</g>
</g>
<!-- CX::Redo&#45;&gt;X::Control -->
<g id="edge15" class="edge">
<title>CX::Redo&#45;&gt;X::Control</title>
<path fill="none" stroke="#6666ff" d="M81.97,-31.26C90.74,-33.95 97.75,-36 97.75,-36 97.75,-36 345.48,-68.02 460.04,-82.29"/>
<polygon fill="#6666ff" stroke="#6666ff" points="459.68,-85.77 470.03,-83.53 460.54,-78.82 459.68,-85.77"/>
</g>
<!-- CX::Redo&#45;&gt;X::Control -->
<g id="edge16" class="edge">
<title>CX::Redo&#45;&gt;X::Control</title>
<path fill="none" stroke="#6666ff" d="M88.9,-28.4C103.21,-32.33 115.75,-36 115.75,-36 115.75,-36 351.07,-66.42 461.24,-81.17"/>
<polygon fill="#6666ff" stroke="#6666ff" points="460.8,-84.64 471.18,-82.5 461.73,-77.7 460.8,-84.64"/>
</g>
<!-- CX::Redo&#45;&gt;Exception -->
<g id="edge4" class="edge">
<title>CX::Redo&#45;&gt;Exception</title>
<path fill="none" stroke="#000000" d="M77.93,-32.71C136.65,-57.68 262.75,-108 262.75,-108 262.75,-108 362.85,-133.75 426.54,-149.36"/>
<polygon fill="#000000" stroke="#000000" points="425.88,-152.8 436.43,-151.77 427.54,-146 425.88,-152.8"/>
</g>
<!-- CX::Redo&#45;&gt;Exception -->
<g id="edge5" class="edge">
<title>CX::Redo&#45;&gt;Exception</title>
<path fill="none" stroke="#000000" d="M83.23,-30.82C148.02,-55.03 280.75,-108 280.75,-108 280.75,-108 372.77,-131.68 431.12,-147.38"/>
<polygon fill="#000000" stroke="#000000" points="430.31,-150.79 440.88,-150.02 432.14,-144.03 430.31,-150.79"/>
</g>
<!-- CX::Next -->
<g id="node6" class="node">
<title>CX::Next</title>
<g id="a_node6"><a xlink:href="/type/CX::Next" xlink:title="CX::Next">
<ellipse fill="none" stroke="#000000" cx="161.75" cy="-18" rx="46.29" ry="18"/>
<text text-anchor="middle" x="161.75" y="-14.3" font-family="FreeSans" font-size="14.00" fill="#000000">CX::Next</text>
</a>
</g>
</g>
<!-- CX::Next&#45;&gt;X::Control -->
<g id="edge17" class="edge">
<title>CX::Next&#45;&gt;X::Control</title>
<path fill="none" stroke="#6666ff" d="M196.89,-29.86C207.67,-33.19 216.75,-36 216.75,-36 216.75,-36 376.57,-64.24 462.91,-79.49"/>
<polygon fill="#6666ff" stroke="#6666ff" points="462.35,-82.94 472.8,-81.24 463.56,-76.05 462.35,-82.94"/>
</g>
<!-- CX::Next&#45;&gt;Exception -->
<g id="edge6" class="edge">
<title>CX::Next&#45;&gt;Exception</title>
<path fill="none" stroke="#000000" d="M189.69,-32.52C241.16,-57.41 345.75,-108 345.75,-108 345.75,-108 397.57,-128.81 436.27,-144.35"/>
<polygon fill="#000000" stroke="#000000" points="435.21,-147.69 445.79,-148.17 437.82,-141.2 435.21,-147.69"/>
</g>
<!-- CX::Last -->
<g id="node7" class="node">
<title>CX::Last</title>
<g id="a_node7"><a xlink:href="/type/CX::Last" xlink:title="CX::Last">
<ellipse fill="none" stroke="#000000" cx="270.75" cy="-18" rx="44.69" ry="18"/>
<text text-anchor="middle" x="270.75" y="-14.3" font-family="FreeSans" font-size="14.00" fill="#000000">CX::Last</text>
</a>
</g>
</g>
<!-- CX::Last&#45;&gt;X::Control -->
<g id="edge18" class="edge">
<title>CX::Last&#45;&gt;X::Control</title>
<path fill="none" stroke="#6666ff" d="M304.94,-29.77C315.66,-33.14 324.75,-36 324.75,-36 324.75,-36 411.58,-59.97 468.46,-75.67"/>
<polygon fill="#6666ff" stroke="#6666ff" points="467.78,-79.11 478.35,-78.4 469.64,-72.37 467.78,-79.11"/>
</g>
<!-- CX::Last&#45;&gt;Exception -->
<g id="edge7" class="edge">
<title>CX::Last&#45;&gt;Exception</title>
<path fill="none" stroke="#000000" d="M292.51,-33.93C329.53,-59.32 404.85,-110.99 447.15,-140.01"/>
<polygon fill="#000000" stroke="#000000" points="445.43,-143.07 455.65,-145.84 449.39,-137.3 445.43,-143.07"/>
</g>
<!-- CX::Warn -->
<g id="node8" class="node">
<title>CX::Warn</title>
<g id="a_node8"><a xlink:href="/type/CX::Warn" xlink:title="CX::Warn">
<ellipse fill="none" stroke="#000000" cx="382.75" cy="-18" rx="48.99" ry="18"/>
<text text-anchor="middle" x="382.75" y="-14.3" font-family="FreeSans" font-size="14.00" fill="#000000">CX::Warn</text>
</a>
</g>
</g>
<!-- CX::Warn&#45;&gt;X::Control -->
<g id="edge19" class="edge">
<title>CX::Warn&#45;&gt;X::Control</title>
<path fill="none" stroke="#6666ff" d="M409.86,-33.17C430.2,-43.79 458.26,-58.45 480.52,-70.08"/>
<polygon fill="#6666ff" stroke="#6666ff" points="479.19,-73.33 489.67,-74.86 482.43,-67.12 479.19,-73.33"/>
</g>
<!-- CX::Warn&#45;&gt;Exception -->
<g id="edge8" class="edge">
<title>CX::Warn&#45;&gt;Exception</title>
<path fill="none" stroke="#000000" d="M393.83,-35.57C410.33,-60.23 441.48,-106.8 460.84,-135.73"/>
<polygon fill="#000000" stroke="#000000" points="457.97,-137.73 466.44,-144.1 463.79,-133.84 457.97,-137.73"/>
</g>
<!-- CX::Return -->
<g id="node9" class="node">
<title>CX::Return</title>
<g id="a_node9"><a xlink:href="/type/CX::Return" xlink:title="CX::Return">
<ellipse fill="none" stroke="#000000" cx="503.75" cy="-18" rx="53.89" ry="18"/>
<text text-anchor="middle" x="503.75" y="-14.3" font-family="FreeSans" font-size="14.00" fill="#000000">CX::Return</text>
</a>
</g>
</g>
<!-- CX::Return&#45;&gt;X::Control -->
<g id="edge20" class="edge">
<title>CX::Return&#45;&gt;X::Control</title>
<path fill="none" stroke="#6666ff" d="M506.96,-36.3C508.39,-44.02 510.11,-53.29 511.71,-61.89"/>
<polygon fill="#6666ff" stroke="#6666ff" points="508.3,-62.7 513.57,-71.9 515.18,-61.42 508.3,-62.7"/>
</g>
<!-- CX::Return&#45;&gt;Exception -->
<g id="edge9" class="edge">
<title>CX::Return&#45;&gt;Exception</title>
<path fill="none" stroke="#000000" d="M489.44,-35.48C475.94,-51.04 457.75,-72 457.75,-72 457.75,-72 457.75,-108 457.75,-108 457.75,-108 462.74,-121.24 467.74,-134.48"/>
<polygon fill="#000000" stroke="#000000" points="464.5,-135.82 471.31,-143.94 471.05,-133.35 464.5,-135.82"/>
</g>
<!-- CX::Proceed -->
<g id="node10" class="node">
<title>CX::Proceed</title>
<g id="a_node10"><a xlink:href="/type/CX::Proceed" xlink:title="CX::Proceed">
<ellipse fill="none" stroke="#000000" cx="635.75" cy="-18" rx="60.39" ry="18"/>
<text text-anchor="middle" x="635.75" y="-14.3" font-family="FreeSans" font-size="14.00" fill="#000000">CX::Proceed</text>
</a>
</g>
</g>
<!-- CX::Proceed&#45;&gt;X::Control -->
<g id="edge21" class="edge">
<title>CX::Proceed&#45;&gt;X::Control</title>
<path fill="none" stroke="#6666ff" d="M609.63,-34.36C592.34,-44.53 569.5,-57.97 550.79,-68.97"/>
<polygon fill="#6666ff" stroke="#6666ff" points="548.83,-66.07 541.98,-74.15 552.38,-72.1 548.83,-66.07"/>
</g>
<!-- CX::Proceed&#45;&gt;Exception -->
<g id="edge10" class="edge">
<title>CX::Proceed&#45;&gt;Exception</title>
<path fill="none" stroke="#000000" d="M624.46,-35.74C607.08,-61.52 575.75,-108 575.75,-108 575.75,-108 541.18,-126.7 513.1,-141.88"/>
<polygon fill="#000000" stroke="#000000" points="511.4,-138.82 504.27,-146.66 514.73,-144.98 511.4,-138.82"/>
</g>
<!-- CX::Done -->
<g id="node11" class="node">
<title>CX::Done</title>
<g id="a_node11"><a xlink:href="/type/CX::Done" xlink:title="CX::Done">
<ellipse fill="none" stroke="#000000" cx="762.75" cy="-18" rx="48.99" ry="18"/>
<text text-anchor="middle" x="762.75" y="-14.3" font-family="FreeSans" font-size="14.00" fill="#000000">CX::Done</text>
</a>
</g>
</g>
<!-- CX::Done&#45;&gt;X::Control -->
<g id="edge22" class="edge">
<title>CX::Done&#45;&gt;X::Control</title>
<path fill="none" stroke="#6666ff" d="M725.69,-29.86C714.32,-33.19 704.75,-36 704.75,-36 704.75,-36 620.18,-59.84 564.49,-75.54"/>
<polygon fill="#6666ff" stroke="#6666ff" points="563.47,-72.19 554.79,-78.27 565.36,-78.93 563.47,-72.19"/>
</g>
<!-- CX::Done&#45;&gt;Exception -->
<g id="edge11" class="edge">
<title>CX::Done&#45;&gt;Exception</title>
<path fill="none" stroke="#000000" d="M736.88,-33.3C691.37,-58.46 601.75,-108 601.75,-108 601.75,-108 554.3,-128.28 518.11,-143.75"/>
<polygon fill="#000000" stroke="#000000" points="516.54,-140.61 508.72,-147.76 519.29,-147.05 516.54,-140.61"/>
</g>
<!-- CX::Emit -->
<g id="node12" class="node">
<title>CX::Emit</title>
<g id="a_node12"><a xlink:href="/type/CX::Emit" xlink:title="CX::Emit">
<ellipse fill="none" stroke="#000000" cx="874.75" cy="-18" rx="45.49" ry="18"/>
<text text-anchor="middle" x="874.75" y="-14.3" font-family="FreeSans" font-size="14.00" fill="#000000">CX::Emit</text>
</a>
</g>
</g>
<!-- CX::Emit&#45;&gt;X::Control -->
<g id="edge23" class="edge">
<title>CX::Emit&#45;&gt;X::Control</title>
<path fill="none" stroke="#6666ff" d="M840.24,-29.86C829.66,-33.19 820.75,-36 820.75,-36 820.75,-36 658.38,-64.31 570.97,-79.55"/>
<polygon fill="#6666ff" stroke="#6666ff" points="570.2,-76.13 560.95,-81.29 571.4,-83.02 570.2,-76.13"/>
</g>
<!-- CX::Emit&#45;&gt;Exception -->
<g id="edge12" class="edge">
<title>CX::Emit&#45;&gt;Exception</title>
<path fill="none" stroke="#000000" d="M843.52,-31.19C781.08,-55.56 646.75,-108 646.75,-108 646.75,-108 573.72,-130.9 523.67,-146.6"/>
<polygon fill="#000000" stroke="#000000" points="522.49,-143.3 514,-149.63 524.59,-149.98 522.49,-143.3"/>
</g>
<!-- CX::Succeed -->
<g id="node13" class="node">
<title>CX::Succeed</title>
<g id="a_node13"><a xlink:href="/type/CX::Succeed" xlink:title="CX::Succeed">
<ellipse fill="none" stroke="#000000" cx="999.75" cy="-18" rx="61.99" ry="18"/>
<text text-anchor="middle" x="999.75" y="-14.3" font-family="FreeSans" font-size="14.00" fill="#000000">CX::Succeed</text>
</a>
</g>
</g>
<!-- CX::Succeed&#45;&gt;X::Control -->
<g id="edge24" class="edge">
<title>CX::Succeed&#45;&gt;X::Control</title>
<path fill="none" stroke="#6666ff" d="M953.58,-30.05C940.02,-33.3 928.75,-36 928.75,-36 928.75,-36 686.33,-67.18 573.39,-81.71"/>
<polygon fill="#6666ff" stroke="#6666ff" points="572.68,-78.28 563.21,-83.02 573.57,-85.22 572.68,-78.28"/>
</g>
<!-- CX::Succeed&#45;&gt;Exception -->
<g id="edge13" class="edge">
<title>CX::Succeed&#45;&gt;Exception</title>
<path fill="none" stroke="#000000" d="M958.42,-31.47C877.23,-55.96 704.75,-108 704.75,-108 704.75,-108 594.87,-133.65 528,-149.27"/>
<polygon fill="#000000" stroke="#000000" points="527.01,-145.9 518.07,-151.59 528.6,-152.72 527.01,-145.9"/>
</g>
<!-- CX::Take -->
<g id="node14" class="node">
<title>CX::Take</title>
<g id="a_node14"><a xlink:href="/type/CX::Take" xlink:title="CX::Take">
<ellipse fill="none" stroke="#000000" cx="1127.75" cy="-18" rx="48.19" ry="18"/>
<text text-anchor="middle" x="1127.75" y="-14.3" font-family="FreeSans" font-size="14.00" fill="#000000">CX::Take</text>
</a>
</g>
</g>
<!-- CX::Take&#45;&gt;X::Control -->
<g id="edge25" class="edge">
<title>CX::Take&#45;&gt;X::Control</title>
<path fill="none" stroke="#6666ff" d="M1091.32,-29.86C1080.15,-33.19 1070.75,-36 1070.75,-36 1070.75,-36 716.78,-69.86 574.72,-83.45"/>
<polygon fill="#6666ff" stroke="#6666ff" points="574.08,-80 564.46,-84.44 574.75,-86.97 574.08,-80"/>
</g>
<!-- CX::Take&#45;&gt;Exception -->
<g id="edge14" class="edge">
<title>CX::Take&#45;&gt;Exception</title>
<path fill="none" stroke="#000000" d="M1091.32,-29.86C1080.15,-33.19 1070.75,-36 1070.75,-36 1070.75,-36 775.75,-108 775.75,-108 775.75,-108 616.9,-136.25 531.16,-151.5"/>
<polygon fill="#000000" stroke="#000000" points="530.31,-148.1 521.08,-153.29 531.54,-154.99 530.31,-148.1"/>
</g>
</g>
</svg>
