<?xml version="1.0" encoding="UTF-8" standalone="no"?>
<!DOCTYPE svg PUBLIC "-//W3C//DTD SVG 1.1//EN"
 "http://www.w3.org/Graphics/SVG/1.1/DTD/svg11.dtd">
<!-- Generated by graphviz version 2.43.0 (0)
 -->
<!-- Title: raku&#45;type&#45;graph Pages: 1 -->
<svg width="1818pt" height="404pt"
 viewBox="0.00 0.00 1818.04 404.00" xmlns="http://www.w3.org/2000/svg" xmlns:xlink="http://www.w3.org/1999/xlink">
<g id="graph0" class="graph" transform="scale(1 1) rotate(0) translate(4 400)">
<title>raku&#45;type&#45;graph</title>
<polygon fill="#ffffff" stroke="transparent" points="-4,4 -4,-400 1814.04,-400 1814.04,4 -4,4"/>
<!-- X::IO -->
<g id="node1" class="node">
<title>X::IO</title>
<g id="a_node1"><a xlink:href="/type/X::IO" xlink:title="X::IO">
<ellipse fill="none" stroke="#6666ff" cx="873.54" cy="-90" rx="31.4" ry="18"/>
<text text-anchor="middle" x="873.54" y="-86.3" font-family="FreeSans" font-size="14.00" fill="#6666ff">X::IO</text>
</a>
</g>
</g>
<!-- Exception -->
<g id="node4" class="node">
<title>Exception</title>
<g id="a_node4"><a xlink:href="/type/Exception" xlink:title="Exception">
<ellipse fill="none" stroke="#000000" cx="987.54" cy="-234" rx="49.29" ry="18"/>
<text text-anchor="middle" x="987.54" y="-230.3" font-family="FreeSans" font-size="14.00" fill="#000000">Exception</text>
</a>
</g>
</g>
<!-- X::IO&#45;&gt;Exception -->
<g id="edge1" class="edge">
<title>X::IO&#45;&gt;Exception</title>
<path fill="none" stroke="#000000" d="M882.01,-107.74C895.04,-133.52 918.54,-180 918.54,-180 918.54,-180 940.23,-196.65 959.28,-211.29"/>
<polygon fill="#000000" stroke="#000000" points="957.15,-214.07 967.22,-217.38 961.42,-208.52 957.15,-214.07"/>
</g>
<!-- X::OS -->
<g id="node5" class="node">
<title>X::OS</title>
<g id="a_node5"><a xlink:href="/type/X::OS" xlink:title="X::OS">
<ellipse fill="none" stroke="#6666ff" cx="832.54" cy="-162" rx="34.39" ry="18"/>
<text text-anchor="middle" x="832.54" y="-158.3" font-family="FreeSans" font-size="14.00" fill="#6666ff">X::OS</text>
</a>
</g>
</g>
<!-- X::IO&#45;&gt;X::OS -->
<g id="edge39" class="edge">
<title>X::IO&#45;&gt;X::OS</title>
<path fill="none" stroke="#6666ff" d="M864.04,-107.24C859.09,-115.68 852.93,-126.2 847.37,-135.69"/>
<polygon fill="#6666ff" stroke="#6666ff" points="844.32,-133.97 842.29,-144.37 850.36,-137.51 844.32,-133.97"/>
</g>
<!-- Mu -->
<g id="node2" class="node">
<title>Mu</title>
<g id="a_node2"><a xlink:href="/type/Mu" xlink:title="Mu">
<ellipse fill="none" stroke="#000000" cx="987.54" cy="-378" rx="27" ry="18"/>
<text text-anchor="middle" x="987.54" y="-374.3" font-family="FreeSans" font-size="14.00" fill="#000000">Mu</text>
</a>
</g>
</g>
<!-- Any -->
<g id="node3" class="node">
<title>Any</title>
<g id="a_node3"><a xlink:href="/type/Any" xlink:title="Any">
<ellipse fill="none" stroke="#000000" cx="987.54" cy="-306" rx="27" ry="18"/>
<text text-anchor="middle" x="987.54" y="-302.3" font-family="FreeSans" font-size="14.00" fill="#000000">Any</text>
</a>
</g>
</g>
<!-- Any&#45;&gt;Mu -->
<g id="edge2" class="edge">
<title>Any&#45;&gt;Mu</title>
<path fill="none" stroke="#000000" d="M987.54,-324.3C987.54,-332.02 987.54,-341.29 987.54,-349.89"/>
<polygon fill="#000000" stroke="#000000" points="984.05,-349.9 987.54,-359.9 991.05,-349.9 984.05,-349.9"/>
</g>
<!-- Exception&#45;&gt;Any -->
<g id="edge3" class="edge">
<title>Exception&#45;&gt;Any</title>
<path fill="none" stroke="#000000" d="M987.54,-252.3C987.54,-260.02 987.54,-269.29 987.54,-277.89"/>
<polygon fill="#000000" stroke="#000000" points="984.05,-277.9 987.54,-287.9 991.05,-277.9 984.05,-277.9"/>
</g>
<!-- X::OS&#45;&gt;Exception -->
<g id="edge4" class="edge">
<title>X::OS&#45;&gt;Exception</title>
<path fill="none" stroke="#000000" d="M857.79,-174.4C882.38,-185.51 920.1,-202.54 948.54,-215.39"/>
<polygon fill="#000000" stroke="#000000" points="947.24,-218.64 957.8,-219.57 950.13,-212.26 947.24,-218.64"/>
</g>
<!-- X::IO::Copy -->
<g id="node6" class="node">
<title>X::IO::Copy</title>
<g id="a_node6"><a xlink:href="/type/X::IO::Copy" xlink:title="X::IO::Copy">
<ellipse fill="none" stroke="#000000" cx="56.54" cy="-18" rx="56.59" ry="18"/>
<text text-anchor="middle" x="56.54" y="-14.3" font-family="FreeSans" font-size="14.00" fill="#000000">X::IO::Copy</text>
</a>
</g>
</g>
<!-- X::IO::Copy&#45;&gt;X::IO -->
<g id="edge40" class="edge">
<title>X::IO::Copy&#45;&gt;X::IO</title>
<path fill="none" stroke="#6666ff" d="M99.09,-29.96C111.86,-33.25 122.54,-36 122.54,-36 122.54,-36 675.68,-75.04 832.53,-86.11"/>
<polygon fill="#6666ff" stroke="#6666ff" points="832.48,-89.61 842.7,-86.82 832.98,-82.63 832.48,-89.61"/>
</g>
<!-- X::IO::Copy&#45;&gt;Exception -->
<g id="edge5" class="edge">
<title>X::IO::Copy&#45;&gt;Exception</title>
<path fill="none" stroke="#000000" d="M90.59,-32.59C194.34,-71.4 498.54,-180 498.54,-180 498.54,-180 801.1,-213.41 930.3,-227.18"/>
<polygon fill="#000000" stroke="#000000" points="930.09,-230.67 940.41,-228.25 930.83,-223.71 930.09,-230.67"/>
</g>
<!-- X::IO::Copy&#45;&gt;Exception -->
<g id="edge6" class="edge">
<title>X::IO::Copy&#45;&gt;Exception</title>
<path fill="none" stroke="#000000" d="M95.04,-31.37C205.79,-69.07 516.54,-180 516.54,-180 516.54,-180 806.32,-212 931.35,-226.27"/>
<polygon fill="#000000" stroke="#000000" points="931.16,-229.77 941.5,-227.43 931.96,-222.81 931.16,-229.77"/>
</g>
<!-- X::IO::Chmod -->
<g id="node7" class="node">
<title>X::IO::Chmod</title>
<g id="a_node7"><a xlink:href="/type/X::IO::Chmod" xlink:title="X::IO::Chmod">
<ellipse fill="none" stroke="#000000" cx="195.54" cy="-18" rx="64.19" ry="18"/>
<text text-anchor="middle" x="195.54" y="-14.3" font-family="FreeSans" font-size="14.00" fill="#000000">X::IO::Chmod</text>
</a>
</g>
</g>
<!-- X::IO::Chmod&#45;&gt;X::IO -->
<g id="edge41" class="edge">
<title>X::IO::Chmod&#45;&gt;X::IO</title>
<path fill="none" stroke="#6666ff" d="M243.42,-30.15C257.18,-33.35 268.54,-36 268.54,-36 268.54,-36 696.82,-73.52 832.7,-85.42"/>
<polygon fill="#6666ff" stroke="#6666ff" points="832.44,-88.91 842.71,-86.3 833.05,-81.94 832.44,-88.91"/>
</g>
<!-- X::IO::Chmod&#45;&gt;Exception -->
<g id="edge7" class="edge">
<title>X::IO::Chmod&#45;&gt;Exception</title>
<path fill="none" stroke="#000000" d="M227.88,-33.57C322.22,-73.2 589.54,-180 589.54,-180 589.54,-180 821.37,-211.58 931.23,-225.99"/>
<polygon fill="#000000" stroke="#000000" points="931.1,-229.5 941.47,-227.33 932.01,-222.56 931.1,-229.5"/>
</g>
<!-- X::IO::Chmod&#45;&gt;Exception -->
<g id="edge8" class="edge">
<title>X::IO::Chmod&#45;&gt;Exception</title>
<path fill="none" stroke="#000000" d="M233.57,-32.59C335.72,-71.4 607.54,-180 607.54,-180 607.54,-180 827.14,-209.92 932.54,-224.8"/>
<polygon fill="#000000" stroke="#000000" points="932.28,-228.3 942.67,-226.23 933.26,-221.37 932.28,-228.3"/>
</g>
<!-- X::IO::Rmdir -->
<g id="node8" class="node">
<title>X::IO::Rmdir</title>
<g id="a_node8"><a xlink:href="/type/X::IO::Rmdir" xlink:title="X::IO::Rmdir">
<ellipse fill="none" stroke="#000000" cx="337.54" cy="-18" rx="59.59" ry="18"/>
<text text-anchor="middle" x="337.54" y="-14.3" font-family="FreeSans" font-size="14.00" fill="#000000">X::IO::Rmdir</text>
</a>
</g>
</g>
<!-- X::IO::Rmdir&#45;&gt;X::IO -->
<g id="edge42" class="edge">
<title>X::IO::Rmdir&#45;&gt;X::IO</title>
<path fill="none" stroke="#6666ff" d="M382.41,-30.05C395.59,-33.3 406.54,-36 406.54,-36 406.54,-36 719.91,-71.56 833.25,-84.43"/>
<polygon fill="#6666ff" stroke="#6666ff" points="832.93,-87.91 843.26,-85.56 833.72,-80.96 832.93,-87.91"/>
</g>
<!-- X::IO::Rmdir&#45;&gt;Exception -->
<g id="edge9" class="edge">
<title>X::IO::Rmdir&#45;&gt;Exception</title>
<path fill="none" stroke="#000000" d="M365.14,-34.15C444.48,-74.23 666.54,-180 666.54,-180 666.54,-180 841.26,-209.68 932.97,-224.62"/>
<polygon fill="#000000" stroke="#000000" points="932.49,-228.09 942.92,-226.23 933.61,-221.18 932.49,-228.09"/>
</g>
<!-- X::IO::Rmdir&#45;&gt;Exception -->
<g id="edge10" class="edge">
<title>X::IO::Rmdir&#45;&gt;Exception</title>
<path fill="none" stroke="#000000" d="M371.02,-33.01C458.18,-72.18 684.54,-180 684.54,-180 684.54,-180 847.78,-207.73 934.7,-223.07"/>
<polygon fill="#000000" stroke="#000000" points="934.2,-226.54 944.65,-224.83 935.42,-219.64 934.2,-226.54"/>
</g>
<!-- X::IO::Link -->
<g id="node9" class="node">
<title>X::IO::Link</title>
<g id="a_node9"><a xlink:href="/type/X::IO::Link" xlink:title="X::IO::Link">
<ellipse fill="none" stroke="#000000" cx="468.54" cy="-18" rx="53.09" ry="18"/>
<text text-anchor="middle" x="468.54" y="-14.3" font-family="FreeSans" font-size="14.00" fill="#000000">X::IO::Link</text>
</a>
</g>
</g>
<!-- X::IO::Link&#45;&gt;X::IO -->
<g id="edge43" class="edge">
<title>X::IO::Link&#45;&gt;X::IO</title>
<path fill="none" stroke="#6666ff" d="M508.51,-29.96C520.51,-33.25 530.54,-36 530.54,-36 530.54,-36 743.09,-68.84 833.56,-82.82"/>
<polygon fill="#6666ff" stroke="#6666ff" points="833.29,-86.32 843.71,-84.39 834.36,-79.4 833.29,-86.32"/>
</g>
<!-- X::IO::Link&#45;&gt;Exception -->
<g id="edge11" class="edge">
<title>X::IO::Link&#45;&gt;Exception</title>
<path fill="none" stroke="#000000" d="M490.45,-34.73C553.17,-75.24 727.54,-180 727.54,-180 727.54,-180 858.55,-207.66 934.66,-223.02"/>
<polygon fill="#000000" stroke="#000000" points="934.07,-226.47 944.57,-225.01 935.45,-219.61 934.07,-226.47"/>
</g>
<!-- X::IO::Link&#45;&gt;Exception -->
<g id="edge12" class="edge">
<title>X::IO::Link&#45;&gt;Exception</title>
<path fill="none" stroke="#000000" d="M496.68,-33.43C567.34,-72.95 745.54,-180 745.54,-180 745.54,-180 866.56,-205.55 937.52,-221.17"/>
<polygon fill="#000000" stroke="#000000" points="937.09,-224.66 947.61,-223.4 938.6,-217.83 937.09,-224.66"/>
</g>
<!-- X::IO::Rename -->
<g id="node10" class="node">
<title>X::IO::Rename</title>
<g id="a_node10"><a xlink:href="/type/X::IO::Rename" xlink:title="X::IO::Rename">
<ellipse fill="none" stroke="#000000" cx="609.54" cy="-18" rx="69.59" ry="18"/>
<text text-anchor="middle" x="609.54" y="-14.3" font-family="FreeSans" font-size="14.00" fill="#000000">X::IO::Rename</text>
</a>
</g>
</g>
<!-- X::IO::Rename&#45;&gt;X::IO -->
<g id="edge44" class="edge">
<title>X::IO::Rename&#45;&gt;X::IO</title>
<path fill="none" stroke="#6666ff" d="M656.44,-31.43C707.65,-45.01 788.66,-66.49 835.9,-79.02"/>
<polygon fill="#6666ff" stroke="#6666ff" points="835.16,-82.44 845.72,-81.62 836.96,-75.68 835.16,-82.44"/>
</g>
<!-- X::IO::Rename&#45;&gt;Exception -->
<g id="edge13" class="edge">
<title>X::IO::Rename&#45;&gt;Exception</title>
<path fill="none" stroke="#000000" d="M622.69,-35.93C660.98,-77.26 767.54,-180 767.54,-180 767.54,-180 871.17,-206.03 936.28,-221.6"/>
<polygon fill="#000000" stroke="#000000" points="935.83,-225.1 946.37,-224.01 937.46,-218.29 935.83,-225.1"/>
</g>
<!-- X::IO::Rename&#45;&gt;Exception -->
<g id="edge14" class="edge">
<title>X::IO::Rename&#45;&gt;Exception</title>
<path fill="none" stroke="#000000" d="M630.82,-35.32C677.93,-76.25 785.54,-180 785.54,-180 785.54,-180 880.32,-203.81 940.13,-219.51"/>
<polygon fill="#000000" stroke="#000000" points="939.57,-222.98 950.13,-222.15 941.35,-216.21 939.57,-222.98"/>
</g>
<!-- X::IO::Dir -->
<g id="node11" class="node">
<title>X::IO::Dir</title>
<g id="a_node11"><a xlink:href="/type/X::IO::Dir" xlink:title="X::IO::Dir">
<ellipse fill="none" stroke="#000000" cx="744.54" cy="-18" rx="47.39" ry="18"/>
<text text-anchor="middle" x="744.54" y="-14.3" font-family="FreeSans" font-size="14.00" fill="#000000">X::IO::Dir</text>
</a>
</g>
</g>
<!-- X::IO::Dir&#45;&gt;X::IO -->
<g id="edge45" class="edge">
<title>X::IO::Dir&#45;&gt;X::IO</title>
<path fill="none" stroke="#6666ff" d="M770.65,-33.17C791.39,-44.42 820.47,-60.2 842.42,-72.11"/>
<polygon fill="#6666ff" stroke="#6666ff" points="840.89,-75.26 851.35,-76.95 844.23,-69.11 840.89,-75.26"/>
</g>
<!-- X::IO::Dir&#45;&gt;Exception -->
<g id="edge15" class="edge">
<title>X::IO::Dir&#45;&gt;Exception</title>
<path fill="none" stroke="#000000" d="M740.47,-36.23C742.97,-77.76 771.54,-180 771.54,-180 771.54,-180 870.85,-206.58 935.2,-222.1"/>
<polygon fill="#000000" stroke="#000000" points="934.67,-225.57 945.21,-224.48 936.29,-218.76 934.67,-225.57"/>
</g>
<!-- X::IO::Dir&#45;&gt;Exception -->
<g id="edge16" class="edge">
<title>X::IO::Dir&#45;&gt;Exception</title>
<path fill="none" stroke="#000000" d="M749.28,-35.93C760.83,-77.26 789.54,-180 789.54,-180 789.54,-180 880.45,-204.33 939.07,-220.03"/>
<polygon fill="#000000" stroke="#000000" points="938.33,-223.45 948.9,-222.66 940.14,-216.69 938.33,-223.45"/>
</g>
<!-- X::IO::Dir&#45;&gt;Exception -->
<g id="edge17" class="edge">
<title>X::IO::Dir&#45;&gt;Exception</title>
<path fill="none" stroke="#000000" d="M757.8,-35.32C778.55,-76.25 807.54,-180 807.54,-180 807.54,-180 890.49,-202.2 944.12,-217.87"/>
<polygon fill="#000000" stroke="#000000" points="943.19,-221.24 953.77,-220.71 945.17,-214.52 943.19,-221.24"/>
</g>
<!-- X::IO::Symlink -->
<g id="node12" class="node">
<title>X::IO::Symlink</title>
<g id="a_node12"><a xlink:href="/type/X::IO::Symlink" xlink:title="X::IO::Symlink">
<ellipse fill="none" stroke="#000000" cx="877.54" cy="-18" rx="67.69" ry="18"/>
<text text-anchor="middle" x="877.54" y="-14.3" font-family="FreeSans" font-size="14.00" fill="#000000">X::IO::Symlink</text>
</a>
</g>
</g>
<!-- X::IO::Symlink&#45;&gt;X::IO -->
<g id="edge46" class="edge">
<title>X::IO::Symlink&#45;&gt;X::IO</title>
<path fill="none" stroke="#6666ff" d="M876.56,-36.3C876.12,-44.02 875.59,-53.29 875.09,-61.89"/>
<polygon fill="#6666ff" stroke="#6666ff" points="871.6,-61.71 874.52,-71.9 878.59,-62.11 871.6,-61.71"/>
</g>
<!-- X::IO::Symlink&#45;&gt;Exception -->
<g id="edge18" class="edge">
<title>X::IO::Symlink&#45;&gt;Exception</title>
<path fill="none" stroke="#000000" d="M875.45,-36.06C881.66,-51.55 895.54,-72 895.54,-72 895.54,-72 937.46,-163.18 965.87,-208.31"/>
<polygon fill="#000000" stroke="#000000" points="962.94,-210.23 971.35,-216.68 968.8,-206.39 962.94,-210.23"/>
</g>
<!-- X::IO::Symlink&#45;&gt;Exception -->
<g id="edge19" class="edge">
<title>X::IO::Symlink&#45;&gt;Exception</title>
<path fill="none" stroke="#000000" d="M888.94,-35.77C899.48,-51.3 913.54,-72 913.54,-72 913.54,-72 954.53,-161.17 975.5,-206.79"/>
<polygon fill="#000000" stroke="#000000" points="972.41,-208.45 979.77,-216.07 978.77,-205.53 972.41,-208.45"/>
</g>
<!-- X::IO::Symlink&#45;&gt;Exception -->
<g id="edge20" class="edge">
<title>X::IO::Symlink&#45;&gt;Exception</title>
<path fill="none" stroke="#000000" d="M901.7,-34.9C916.95,-50.51 931.54,-72 931.54,-72 931.54,-72 971.99,-159.99 985.81,-205.88"/>
<polygon fill="#000000" stroke="#000000" points="982.5,-207.05 988.52,-215.77 989.25,-205.2 982.5,-207.05"/>
</g>
<!-- X::IO::Unlink -->
<g id="node13" class="node">
<title>X::IO::Unlink</title>
<g id="a_node13"><a xlink:href="/type/X::IO::Unlink" xlink:title="X::IO::Unlink">
<ellipse fill="none" stroke="#000000" cx="1024.54" cy="-18" rx="61.19" ry="18"/>
<text text-anchor="middle" x="1024.54" y="-14.3" font-family="FreeSans" font-size="14.00" fill="#000000">X::IO::Unlink</text>
</a>
</g>
</g>
<!-- X::IO::Unlink&#45;&gt;X::IO -->
<g id="edge47" class="edge">
<title>X::IO::Unlink&#45;&gt;X::IO</title>
<path fill="none" stroke="#6666ff" d="M993.26,-33.5C967.98,-45.22 932.49,-61.67 906.72,-73.62"/>
<polygon fill="#6666ff" stroke="#6666ff" points="904.97,-70.58 897.36,-77.96 907.91,-76.93 904.97,-70.58"/>
</g>
<!-- X::IO::Unlink&#45;&gt;Exception -->
<g id="edge21" class="edge">
<title>X::IO::Unlink&#45;&gt;Exception</title>
<path fill="none" stroke="#000000" d="M1013.96,-35.79C1000.43,-72.66 984.61,-160.96 982.89,-205.83"/>
<polygon fill="#000000" stroke="#000000" points="979.39,-205.95 982.76,-215.99 986.39,-206.04 979.39,-205.95"/>
</g>
<!-- X::IO::Unlink&#45;&gt;Exception -->
<g id="edge22" class="edge">
<title>X::IO::Unlink&#45;&gt;Exception</title>
<path fill="none" stroke="#000000" d="M1021.58,-36.15C1015.17,-73.25 999.96,-161.19 992.23,-205.9"/>
<polygon fill="#000000" stroke="#000000" points="988.78,-205.32 990.52,-215.77 995.68,-206.51 988.78,-205.32"/>
</g>
<!-- X::IO::Unlink&#45;&gt;Exception -->
<g id="edge23" class="edge">
<title>X::IO::Unlink&#45;&gt;Exception</title>
<path fill="none" stroke="#000000" d="M1029.33,-36.15C1030.01,-73.51 1015.12,-162.44 1001.29,-206.84"/>
<polygon fill="#000000" stroke="#000000" points="997.95,-205.77 998.08,-216.36 1004.59,-208 997.95,-205.77"/>
</g>
<!-- X::IO::DoesNotExist -->
<g id="node14" class="node">
<title>X::IO::DoesNotExist</title>
<g id="a_node14"><a xlink:href="/type/X::IO::DoesNotExist" xlink:title="X::IO::DoesNotExist">
<ellipse fill="none" stroke="#000000" cx="1193.54" cy="-18" rx="89.88" ry="18"/>
<text text-anchor="middle" x="1193.54" y="-14.3" font-family="FreeSans" font-size="14.00" fill="#000000">X::IO::DoesNotExist</text>
</a>
</g>
</g>
<!-- X::IO::DoesNotExist&#45;&gt;X::IO -->
<g id="edge48" class="edge">
<title>X::IO::DoesNotExist&#45;&gt;X::IO</title>
<path fill="none" stroke="#6666ff" d="M1135.22,-31.76C1070.4,-45.94 967.54,-68.44 912.06,-80.58"/>
<polygon fill="#6666ff" stroke="#6666ff" points="911.29,-77.16 902.27,-82.72 912.79,-84 911.29,-77.16"/>
</g>
<!-- X::IO::DoesNotExist&#45;&gt;Exception -->
<g id="edge24" class="edge">
<title>X::IO::DoesNotExist&#45;&gt;Exception</title>
<path fill="none" stroke="#000000" d="M1170.11,-35.44C1126.82,-72.77 1038.42,-164.12 1002.32,-208.29"/>
<polygon fill="#000000" stroke="#000000" points="999.5,-206.21 996.02,-216.21 1004.98,-210.56 999.5,-206.21"/>
</g>
<!-- X::IO::DoesNotExist&#45;&gt;Exception -->
<g id="edge25" class="edge">
<title>X::IO::DoesNotExist&#45;&gt;Exception</title>
<path fill="none" stroke="#000000" d="M1177.38,-35.79C1140.87,-73.72 1051.98,-166.07 1010.09,-209.58"/>
<polygon fill="#000000" stroke="#000000" points="1007.48,-207.24 1003.07,-216.87 1012.53,-212.09 1007.48,-207.24"/>
</g>
<!-- X::IO::DoesNotExist&#45;&gt;Exception -->
<g id="edge26" class="edge">
<title>X::IO::DoesNotExist&#45;&gt;Exception</title>
<path fill="none" stroke="#000000" d="M1184.79,-36.15C1155,-74.77 1065.06,-168.48 1017.14,-211.16"/>
<polygon fill="#000000" stroke="#000000" points="1014.77,-208.59 1009.54,-217.8 1019.38,-213.86 1014.77,-208.59"/>
</g>
<!-- X::IO::Move -->
<g id="node15" class="node">
<title>X::IO::Move</title>
<g id="a_node15"><a xlink:href="/type/X::IO::Move" xlink:title="X::IO::Move">
<ellipse fill="none" stroke="#000000" cx="1359.54" cy="-18" rx="57.69" ry="18"/>
<text text-anchor="middle" x="1359.54" y="-14.3" font-family="FreeSans" font-size="14.00" fill="#000000">X::IO::Move</text>
</a>
</g>
</g>
<!-- X::IO::Move&#45;&gt;X::IO -->
<g id="edge49" class="edge">
<title>X::IO::Move&#45;&gt;X::IO</title>
<path fill="none" stroke="#6666ff" d="M1315.98,-30.05C1303.18,-33.3 1292.54,-36 1292.54,-36 1292.54,-36 1018.87,-70.62 913.88,-83.9"/>
<polygon fill="#6666ff" stroke="#6666ff" points="913.16,-80.46 903.68,-85.19 914.04,-87.41 913.16,-80.46"/>
</g>
<!-- X::IO::Move&#45;&gt;Exception -->
<g id="edge27" class="edge">
<title>X::IO::Move&#45;&gt;Exception</title>
<path fill="none" stroke="#000000" d="M1327.56,-33.15C1251.6,-72.43 1070.54,-180 1070.54,-180 1070.54,-180 1038.46,-196.84 1013.68,-211.53"/>
<polygon fill="#000000" stroke="#000000" points="1011.7,-208.64 1004.96,-216.81 1015.33,-214.63 1011.7,-208.64"/>
</g>
<!-- X::IO::Move&#45;&gt;Exception -->
<g id="edge28" class="edge">
<title>X::IO::Move&#45;&gt;Exception</title>
<path fill="none" stroke="#000000" d="M1333.56,-34.44C1265.73,-74.73 1088.54,-180 1088.54,-180 1088.54,-180 1052.71,-198.81 1023.73,-214.01"/>
<polygon fill="#000000" stroke="#000000" points="1021.84,-211.05 1014.61,-218.8 1025.09,-217.25 1021.84,-211.05"/>
</g>
<!-- X::IO::Move&#45;&gt;Exception -->
<g id="edge29" class="edge">
<title>X::IO::Move&#45;&gt;Exception</title>
<path fill="none" stroke="#000000" d="M1340.76,-35.32C1281.17,-76.25 1106.54,-180 1106.54,-180 1106.54,-180 1065.98,-201.29 1031.68,-216.88"/>
<polygon fill="#000000" stroke="#000000" points="1029.92,-213.83 1022.21,-221.11 1032.77,-220.23 1029.92,-213.83"/>
</g>
<!-- X::IO::Chdir -->
<g id="node16" class="node">
<title>X::IO::Chdir</title>
<g id="a_node16"><a xlink:href="/type/X::IO::Chdir" xlink:title="X::IO::Chdir">
<ellipse fill="none" stroke="#000000" cx="1492.54" cy="-18" rx="57.39" ry="18"/>
<text text-anchor="middle" x="1492.54" y="-14.3" font-family="FreeSans" font-size="14.00" fill="#000000">X::IO::Chdir</text>
</a>
</g>
</g>
<!-- X::IO::Chdir&#45;&gt;X::IO -->
<g id="edge50" class="edge">
<title>X::IO::Chdir&#45;&gt;X::IO</title>
<path fill="none" stroke="#6666ff" d="M1449.63,-30.05C1437.02,-33.3 1426.54,-36 1426.54,-36 1426.54,-36 1041.92,-72.86 914.21,-85.1"/>
<polygon fill="#6666ff" stroke="#6666ff" points="913.68,-81.64 904.06,-86.07 914.35,-88.6 913.68,-81.64"/>
</g>
<!-- X::IO::Chdir&#45;&gt;Exception -->
<g id="edge30" class="edge">
<title>X::IO::Chdir&#45;&gt;Exception</title>
<path fill="none" stroke="#000000" d="M1456.64,-32.18C1364.88,-70.63 1132.54,-180 1132.54,-180 1132.54,-180 1069.69,-200.44 1026.35,-215.93"/>
<polygon fill="#000000" stroke="#000000" points="1025.1,-212.66 1016.89,-219.35 1027.48,-219.24 1025.1,-212.66"/>
</g>
<!-- X::IO::Chdir&#45;&gt;Exception -->
<g id="edge31" class="edge">
<title>X::IO::Chdir&#45;&gt;Exception</title>
<path fill="none" stroke="#000000" d="M1462.19,-33.29C1378.49,-72.69 1150.54,-180 1150.54,-180 1150.54,-180 1081.18,-202.55 1032.95,-218.24"/>
<polygon fill="#000000" stroke="#000000" points="1031.74,-214.95 1023.32,-221.37 1033.91,-221.61 1031.74,-214.95"/>
</g>
<!-- X::IO::Chdir&#45;&gt;Exception -->
<g id="edge32" class="edge">
<title>X::IO::Chdir&#45;&gt;Exception</title>
<path fill="none" stroke="#000000" d="M1468.24,-34.44C1392.15,-74.73 1168.54,-180 1168.54,-180 1168.54,-180 1091.88,-204.93 1037.9,-220.59"/>
<polygon fill="#000000" stroke="#000000" points="1036.75,-217.28 1028.1,-223.4 1038.68,-224.01 1036.75,-217.28"/>
</g>
<!-- X::IO::Cwd -->
<g id="node17" class="node">
<title>X::IO::Cwd</title>
<g id="a_node17"><a xlink:href="/type/X::IO::Cwd" xlink:title="X::IO::Cwd">
<ellipse fill="none" stroke="#000000" cx="1621.54" cy="-18" rx="53.89" ry="18"/>
<text text-anchor="middle" x="1621.54" y="-14.3" font-family="FreeSans" font-size="14.00" fill="#000000">X::IO::Cwd</text>
</a>
</g>
</g>
<!-- X::IO::Cwd&#45;&gt;X::IO -->
<g id="edge51" class="edge">
<title>X::IO::Cwd&#45;&gt;X::IO</title>
<path fill="none" stroke="#6666ff" d="M1580.93,-29.96C1568.74,-33.25 1558.54,-36 1558.54,-36 1558.54,-36 1061.73,-74.44 914.31,-85.85"/>
<polygon fill="#6666ff" stroke="#6666ff" points="914.01,-82.36 904.31,-86.62 914.55,-89.34 914.01,-82.36"/>
</g>
<!-- X::IO::Cwd&#45;&gt;Exception -->
<g id="edge33" class="edge">
<title>X::IO::Cwd&#45;&gt;Exception</title>
<path fill="none" stroke="#000000" d="M1583.99,-30.97C1480.19,-68.28 1200.54,-180 1200.54,-180 1200.54,-180 1097.07,-203.74 1034.03,-219.44"/>
<polygon fill="#000000" stroke="#000000" points="1033.13,-216.06 1024.28,-221.89 1034.83,-222.85 1033.13,-216.06"/>
</g>
<!-- X::IO::Cwd&#45;&gt;Exception -->
<g id="edge34" class="edge">
<title>X::IO::Cwd&#45;&gt;Exception</title>
<path fill="none" stroke="#000000" d="M1588.22,-32.31C1491.67,-70.89 1218.54,-180 1218.54,-180 1218.54,-180 1106.43,-205.72 1038.42,-221.33"/>
<polygon fill="#000000" stroke="#000000" points="1037.28,-218 1028.31,-223.65 1038.84,-224.82 1037.28,-218"/>
</g>
<!-- X::IO::Cwd&#45;&gt;Exception -->
<g id="edge35" class="edge">
<title>X::IO::Cwd&#45;&gt;Exception</title>
<path fill="none" stroke="#000000" d="M1593.67,-33.43C1504.51,-72.95 1236.54,-180 1236.54,-180 1236.54,-180 1114.6,-207.98 1041.01,-223.28"/>
<polygon fill="#000000" stroke="#000000" points="1040.05,-219.9 1030.96,-225.35 1041.46,-226.76 1040.05,-219.9"/>
</g>
<!-- X::IO::Mkdir -->
<g id="node18" class="node">
<title>X::IO::Mkdir</title>
<g id="a_node18"><a xlink:href="/type/X::IO::Mkdir" xlink:title="X::IO::Mkdir">
<ellipse fill="none" stroke="#000000" cx="1751.54" cy="-18" rx="58.49" ry="18"/>
<text text-anchor="middle" x="1751.54" y="-14.3" font-family="FreeSans" font-size="14.00" fill="#000000">X::IO::Mkdir</text>
</a>
</g>
</g>
<!-- X::IO::Mkdir&#45;&gt;X::IO -->
<g id="edge52" class="edge">
<title>X::IO::Mkdir&#45;&gt;X::IO</title>
<path fill="none" stroke="#6666ff" d="M1707.98,-30.05C1695.18,-33.3 1684.54,-36 1684.54,-36 1684.54,-36 1079.35,-75.55 914.55,-86.32"/>
<polygon fill="#6666ff" stroke="#6666ff" points="914.1,-82.84 904.35,-86.99 914.55,-89.83 914.1,-82.84"/>
</g>
<!-- X::IO::Mkdir&#45;&gt;Exception -->
<g id="edge36" class="edge">
<title>X::IO::Mkdir&#45;&gt;Exception</title>
<path fill="none" stroke="#000000" d="M1710.31,-30.84C1594.1,-68.02 1275.54,-180 1275.54,-180 1275.54,-180 1121.85,-206.62 1038.71,-222.13"/>
<polygon fill="#000000" stroke="#000000" points="1037.88,-218.72 1028.7,-224.01 1039.17,-225.6 1037.88,-218.72"/>
</g>
<!-- X::IO::Mkdir&#45;&gt;Exception -->
<g id="edge37" class="edge">
<title>X::IO::Mkdir&#45;&gt;Exception</title>
<path fill="none" stroke="#000000" d="M1714.45,-32.04C1605.42,-70.37 1293.54,-180 1293.54,-180 1293.54,-180 1128.84,-208.53 1041.11,-223.72"/>
<polygon fill="#000000" stroke="#000000" points="1040.32,-220.31 1031.06,-225.46 1041.51,-227.2 1040.32,-220.31"/>
</g>
<!-- X::IO::Mkdir&#45;&gt;Exception -->
<g id="edge38" class="edge">
<title>X::IO::Mkdir&#45;&gt;Exception</title>
<path fill="none" stroke="#000000" d="M1719.47,-33.15C1617.54,-72.43 1311.54,-180 1311.54,-180 1311.54,-180 1135.85,-210.43 1042.89,-225.17"/>
<polygon fill="#000000" stroke="#000000" points="1042.14,-221.75 1032.8,-226.76 1043.22,-228.67 1042.14,-221.75"/>
</g>
</g>
</svg>
