<?xml version="1.0" encoding="UTF-8" standalone="no"?>
<!DOCTYPE svg PUBLIC "-//W3C//DTD SVG 1.1//EN"
 "http://www.w3.org/Graphics/SVG/1.1/DTD/svg11.dtd">
<!-- Generated by graphviz version 2.43.0 (0)
 -->
<!-- Title: raku&#45;type&#45;graph Pages: 1 -->
<svg width="1816pt" height="404pt"
 viewBox="0.00 0.00 1816.29 404.00" xmlns="http://www.w3.org/2000/svg" xmlns:xlink="http://www.w3.org/1999/xlink">
<g id="graph0" class="graph" transform="scale(1 1) rotate(0) translate(4 400)">
<title>raku&#45;type&#45;graph</title>
<polygon fill="#ffffff" stroke="transparent" points="-4,4 -4,-400 1812.29,-400 1812.29,4 -4,4"/>
<!-- X::IO -->
<g id="node1" class="node">
<title>X::IO</title>
<g id="a_node1"><a xlink:href="/type/X::IO" xlink:title="X::IO">
<ellipse fill="none" stroke="#6666ff" cx="856.59" cy="-90" rx="31.4" ry="18"/>
<text text-anchor="middle" x="856.59" y="-86.3" font-family="FreeSans" font-size="14.00" fill="#6666ff">X::IO</text>
</a>
</g>
</g>
<!-- Exception -->
<g id="node4" class="node">
<title>Exception</title>
<g id="a_node4"><a xlink:href="/type/Exception" xlink:title="Exception">
<ellipse fill="none" stroke="#000000" cx="933.59" cy="-234" rx="49.29" ry="18"/>
<text text-anchor="middle" x="933.59" y="-230.3" font-family="FreeSans" font-size="14.00" fill="#000000">Exception</text>
</a>
</g>
</g>
<!-- X::IO&#45;&gt;Exception -->
<g id="edge1" class="edge">
<title>X::IO&#45;&gt;Exception</title>
<path fill="none" stroke="#000000" d="M865.06,-107.74C878.09,-133.52 901.59,-180 901.59,-180 901.59,-180 910.01,-193.93 918.2,-207.51"/>
<polygon fill="#000000" stroke="#000000" points="915.3,-209.48 923.47,-216.23 921.3,-205.86 915.3,-209.48"/>
</g>
<!-- X::OS -->
<g id="node5" class="node">
<title>X::OS</title>
<g id="a_node5"><a xlink:href="/type/X::OS" xlink:title="X::OS">
<ellipse fill="none" stroke="#6666ff" cx="815.59" cy="-162" rx="34.39" ry="18"/>
<text text-anchor="middle" x="815.59" y="-158.3" font-family="FreeSans" font-size="14.00" fill="#6666ff">X::OS</text>
</a>
</g>
</g>
<!-- X::IO&#45;&gt;X::OS -->
<g id="edge41" class="edge">
<title>X::IO&#45;&gt;X::OS</title>
<path fill="none" stroke="#6666ff" d="M847.08,-107.24C842.14,-115.68 835.98,-126.2 830.42,-135.69"/>
<polygon fill="#6666ff" stroke="#6666ff" points="827.37,-133.97 825.34,-144.37 833.41,-137.51 827.37,-133.97"/>
</g>
<!-- Mu -->
<g id="node2" class="node">
<title>Mu</title>
<g id="a_node2"><a xlink:href="/type/Mu" xlink:title="Mu">
<ellipse fill="none" stroke="#000000" cx="933.59" cy="-378" rx="27" ry="18"/>
<text text-anchor="middle" x="933.59" y="-374.3" font-family="FreeSans" font-size="14.00" fill="#000000">Mu</text>
</a>
</g>
</g>
<!-- Any -->
<g id="node3" class="node">
<title>Any</title>
<g id="a_node3"><a xlink:href="/type/Any" xlink:title="Any">
<ellipse fill="none" stroke="#000000" cx="933.59" cy="-306" rx="27" ry="18"/>
<text text-anchor="middle" x="933.59" y="-302.3" font-family="FreeSans" font-size="14.00" fill="#000000">Any</text>
</a>
</g>
</g>
<!-- Any&#45;&gt;Mu -->
<g id="edge2" class="edge">
<title>Any&#45;&gt;Mu</title>
<path fill="none" stroke="#000000" d="M933.59,-324.3C933.59,-332.02 933.59,-341.29 933.59,-349.89"/>
<polygon fill="#000000" stroke="#000000" points="930.09,-349.9 933.59,-359.9 937.09,-349.9 930.09,-349.9"/>
</g>
<!-- Exception&#45;&gt;Any -->
<g id="edge3" class="edge">
<title>Exception&#45;&gt;Any</title>
<path fill="none" stroke="#000000" d="M933.59,-252.3C933.59,-260.02 933.59,-269.29 933.59,-277.89"/>
<polygon fill="#000000" stroke="#000000" points="930.09,-277.9 933.59,-287.9 937.09,-277.9 930.09,-277.9"/>
</g>
<!-- X::OS&#45;&gt;Exception -->
<g id="edge4" class="edge">
<title>X::OS&#45;&gt;Exception</title>
<path fill="none" stroke="#000000" d="M837.51,-176C855.08,-186.43 880.03,-201.23 900.1,-213.13"/>
<polygon fill="#000000" stroke="#000000" points="898.55,-216.28 908.94,-218.37 902.12,-210.26 898.55,-216.28"/>
</g>
<!-- X::IO::Symlink -->
<g id="node6" class="node">
<title>X::IO::Symlink</title>
<g id="a_node6"><a xlink:href="/type/X::IO::Symlink" xlink:title="X::IO::Symlink">
<ellipse fill="none" stroke="#000000" cx="67.59" cy="-18" rx="67.69" ry="18"/>
<text text-anchor="middle" x="67.59" y="-14.3" font-family="FreeSans" font-size="14.00" fill="#000000">X::IO::Symlink</text>
</a>
</g>
</g>
<!-- X::IO::Symlink&#45;&gt;X::IO -->
<g id="edge42" class="edge">
<title>X::IO::Symlink&#45;&gt;X::IO</title>
<path fill="none" stroke="#6666ff" d="M118.09,-30.15C132.61,-33.35 144.59,-36 144.59,-36 144.59,-36 663.31,-74.61 815.25,-85.92"/>
<polygon fill="#6666ff" stroke="#6666ff" points="815.31,-89.44 825.54,-86.69 815.83,-82.46 815.31,-89.44"/>
</g>
<!-- X::IO::Symlink&#45;&gt;Exception -->
<g id="edge5" class="edge">
<title>X::IO::Symlink&#45;&gt;Exception</title>
<path fill="none" stroke="#000000" d="M102.74,-33.57C204.71,-73.2 492.59,-180 492.59,-180 492.59,-180 757.99,-212.56 877.08,-226.64"/>
<polygon fill="#000000" stroke="#000000" points="876.77,-230.13 887.11,-227.82 877.59,-223.17 876.77,-230.13"/>
</g>
<!-- X::IO::Symlink&#45;&gt;Exception -->
<g id="edge6" class="edge">
<title>X::IO::Symlink&#45;&gt;Exception</title>
<path fill="none" stroke="#000000" d="M108.24,-32.59C217.85,-71.4 510.59,-180 510.59,-180 510.59,-180 763.41,-211.02 878.2,-225.59"/>
<polygon fill="#000000" stroke="#000000" points="877.85,-229.08 888.21,-226.87 878.73,-222.13 877.85,-229.08"/>
</g>
<!-- X::IO::Chdir -->
<g id="node7" class="node">
<title>X::IO::Chdir</title>
<g id="a_node7"><a xlink:href="/type/X::IO::Chdir" xlink:title="X::IO::Chdir">
<ellipse fill="none" stroke="#000000" cx="210.59" cy="-18" rx="57.39" ry="18"/>
<text text-anchor="middle" x="210.59" y="-14.3" font-family="FreeSans" font-size="14.00" fill="#000000">X::IO::Chdir</text>
</a>
</g>
</g>
<!-- X::IO::Chdir&#45;&gt;X::IO -->
<g id="edge43" class="edge">
<title>X::IO::Chdir&#45;&gt;X::IO</title>
<path fill="none" stroke="#6666ff" d="M253.51,-30.05C266.12,-33.3 276.59,-36 276.59,-36 276.59,-36 683.57,-73.19 815.7,-85.26"/>
<polygon fill="#6666ff" stroke="#6666ff" points="815.54,-88.76 825.82,-86.19 816.18,-81.79 815.54,-88.76"/>
</g>
<!-- X::IO::Chdir&#45;&gt;Exception -->
<g id="edge7" class="edge">
<title>X::IO::Chdir&#45;&gt;Exception</title>
<path fill="none" stroke="#000000" d="M240.17,-33.43C327.58,-72.95 577.59,-180 577.59,-180 577.59,-180 778.04,-210.62 878.19,-225.31"/>
<polygon fill="#000000" stroke="#000000" points="877.74,-228.78 888.14,-226.76 878.75,-221.85 877.74,-228.78"/>
</g>
<!-- X::IO::Chdir&#45;&gt;Exception -->
<g id="edge8" class="edge">
<title>X::IO::Chdir&#45;&gt;Exception</title>
<path fill="none" stroke="#000000" d="M245.66,-32.31C340.77,-70.89 595.59,-180 595.59,-180 595.59,-180 783.98,-208.77 879.54,-223.92"/>
<polygon fill="#000000" stroke="#000000" points="879.18,-227.41 889.61,-225.52 880.28,-220.49 879.18,-227.41"/>
</g>
<!-- X::IO::Cwd -->
<g id="node8" class="node">
<title>X::IO::Cwd</title>
<g id="a_node8"><a xlink:href="/type/X::IO::Cwd" xlink:title="X::IO::Cwd">
<ellipse fill="none" stroke="#000000" cx="339.59" cy="-18" rx="53.89" ry="18"/>
<text text-anchor="middle" x="339.59" y="-14.3" font-family="FreeSans" font-size="14.00" fill="#000000">X::IO::Cwd</text>
</a>
</g>
</g>
<!-- X::IO::Cwd&#45;&gt;X::IO -->
<g id="edge44" class="edge">
<title>X::IO::Cwd&#45;&gt;X::IO</title>
<path fill="none" stroke="#6666ff" d="M380.21,-29.96C392.4,-33.25 402.59,-36 402.59,-36 402.59,-36 704.52,-71.25 815.93,-84.25"/>
<polygon fill="#6666ff" stroke="#6666ff" points="815.76,-87.76 826.1,-85.44 816.57,-80.8 815.76,-87.76"/>
</g>
<!-- X::IO::Cwd&#45;&gt;Exception -->
<g id="edge9" class="edge">
<title>X::IO::Cwd&#45;&gt;Exception</title>
<path fill="none" stroke="#000000" d="M365.13,-34C439.51,-73.97 649.59,-180 649.59,-180 649.59,-180 797.39,-208.48 879.83,-223.69"/>
<polygon fill="#000000" stroke="#000000" points="879.32,-227.15 889.78,-225.52 880.58,-220.27 879.32,-227.15"/>
</g>
<!-- X::IO::Cwd&#45;&gt;Exception -->
<g id="edge10" class="edge">
<title>X::IO::Cwd&#45;&gt;Exception</title>
<path fill="none" stroke="#000000" d="M370.82,-32.73C452.93,-71.66 667.59,-180 667.59,-180 667.59,-180 804.88,-206.46 882.28,-221.99"/>
<polygon fill="#000000" stroke="#000000" points="881.83,-225.47 892.32,-224.01 883.21,-218.6 881.83,-225.47"/>
</g>
<!-- X::IO::Dir -->
<g id="node9" class="node">
<title>X::IO::Dir</title>
<g id="a_node9"><a xlink:href="/type/X::IO::Dir" xlink:title="X::IO::Dir">
<ellipse fill="none" stroke="#000000" cx="458.59" cy="-18" rx="47.39" ry="18"/>
<text text-anchor="middle" x="458.59" y="-14.3" font-family="FreeSans" font-size="14.00" fill="#000000">X::IO::Dir</text>
</a>
</g>
</g>
<!-- X::IO::Dir&#45;&gt;X::IO -->
<g id="edge45" class="edge">
<title>X::IO::Dir&#45;&gt;X::IO</title>
<path fill="none" stroke="#6666ff" d="M494.38,-29.86C505.35,-33.19 514.59,-36 514.59,-36 514.59,-36 726.52,-68.84 816.72,-82.82"/>
<polygon fill="#6666ff" stroke="#6666ff" points="816.42,-86.32 826.84,-84.39 817.5,-79.4 816.42,-86.32"/>
</g>
<!-- X::IO::Dir&#45;&gt;Exception -->
<g id="edge11" class="edge">
<title>X::IO::Dir&#45;&gt;Exception</title>
<path fill="none" stroke="#000000" d="M475.75,-35.03C531.89,-75.75 699.59,-180 699.59,-180 699.59,-180 811.41,-207.44 880.85,-222.83"/>
<polygon fill="#000000" stroke="#000000" points="880.25,-226.28 890.77,-225.01 881.75,-219.44 880.25,-226.28"/>
</g>
<!-- X::IO::Dir&#45;&gt;Exception -->
<g id="edge12" class="edge">
<title>X::IO::Dir&#45;&gt;Exception</title>
<path fill="none" stroke="#000000" d="M482.5,-33.86C546.61,-73.71 717.59,-180 717.59,-180 717.59,-180 820.06,-205.14 883.84,-220.79"/>
<polygon fill="#000000" stroke="#000000" points="883.18,-224.23 893.72,-223.22 884.85,-217.43 883.18,-224.23"/>
</g>
<!-- X::IO::Dir&#45;&gt;Exception -->
<g id="edge13" class="edge">
<title>X::IO::Dir&#45;&gt;Exception</title>
<path fill="none" stroke="#000000" d="M487.97,-32.31C560.06,-70.89 735.59,-180 735.59,-180 735.59,-180 829.44,-203.03 888.26,-218.72"/>
<polygon fill="#000000" stroke="#000000" points="887.52,-222.15 898.09,-221.37 889.34,-215.39 887.52,-222.15"/>
</g>
<!-- X::IO::Move -->
<g id="node10" class="node">
<title>X::IO::Move</title>
<g id="a_node10"><a xlink:href="/type/X::IO::Move" xlink:title="X::IO::Move">
<ellipse fill="none" stroke="#000000" cx="581.59" cy="-18" rx="57.69" ry="18"/>
<text text-anchor="middle" x="581.59" y="-14.3" font-family="FreeSans" font-size="14.00" fill="#000000">X::IO::Move</text>
</a>
</g>
</g>
<!-- X::IO::Move&#45;&gt;X::IO -->
<g id="edge46" class="edge">
<title>X::IO::Move&#45;&gt;X::IO</title>
<path fill="none" stroke="#6666ff" d="M624.88,-30.15C637.32,-33.35 647.59,-36 647.59,-36 647.59,-36 758.19,-64.05 818.48,-79.33"/>
<polygon fill="#6666ff" stroke="#6666ff" points="817.85,-82.79 828.41,-81.85 819.57,-76 817.85,-82.79"/>
</g>
<!-- X::IO::Move&#45;&gt;Exception -->
<g id="edge14" class="edge">
<title>X::IO::Move&#45;&gt;Exception</title>
<path fill="none" stroke="#000000" d="M591.48,-35.93C628.01,-77.26 741.59,-180 741.59,-180 741.59,-180 825.45,-205.54 882.76,-221.16"/>
<polygon fill="#000000" stroke="#000000" points="881.85,-224.54 892.41,-223.77 883.67,-217.78 881.85,-224.54"/>
</g>
<!-- X::IO::Move&#45;&gt;Exception -->
<g id="edge15" class="edge">
<title>X::IO::Move&#45;&gt;Exception</title>
<path fill="none" stroke="#000000" d="M599.64,-35.32C644.89,-76.25 759.59,-180 759.59,-180 759.59,-180 835.52,-203.13 887.06,-218.83"/>
<polygon fill="#000000" stroke="#000000" points="886.11,-222.19 896.69,-221.76 888.15,-215.5 886.11,-222.19"/>
</g>
<!-- X::IO::Move&#45;&gt;Exception -->
<g id="edge16" class="edge">
<title>X::IO::Move&#45;&gt;Exception</title>
<path fill="none" stroke="#000000" d="M607.15,-34.44C661.21,-74.73 777.59,-180 777.59,-180 777.59,-180 846.45,-200.97 893.05,-216.53"/>
<polygon fill="#000000" stroke="#000000" points="892.03,-219.88 902.63,-219.76 894.27,-213.25 892.03,-219.88"/>
</g>
<!-- X::IO::Rename -->
<g id="node11" class="node">
<title>X::IO::Rename</title>
<g id="a_node11"><a xlink:href="/type/X::IO::Rename" xlink:title="X::IO::Rename">
<ellipse fill="none" stroke="#000000" cx="726.59" cy="-18" rx="69.59" ry="18"/>
<text text-anchor="middle" x="726.59" y="-14.3" font-family="FreeSans" font-size="14.00" fill="#000000">X::IO::Rename</text>
</a>
</g>
</g>
<!-- X::IO::Rename&#45;&gt;X::IO -->
<g id="edge47" class="edge">
<title>X::IO::Rename&#45;&gt;X::IO</title>
<path fill="none" stroke="#6666ff" d="M755.45,-34.54C776.17,-45.69 804.07,-60.72 825.33,-72.16"/>
<polygon fill="#6666ff" stroke="#6666ff" points="823.81,-75.32 834.28,-76.98 827.13,-69.16 823.81,-75.32"/>
</g>
<!-- X::IO::Rename&#45;&gt;Exception -->
<g id="edge17" class="edge">
<title>X::IO::Rename&#45;&gt;Exception</title>
<path fill="none" stroke="#000000" d="M722.63,-36.23C725.38,-77.76 754.59,-180 754.59,-180 754.59,-180 830.32,-204.93 883.71,-220.59"/>
<polygon fill="#000000" stroke="#000000" points="882.82,-223.98 893.4,-223.4 884.77,-217.26 882.82,-223.98"/>
</g>
<!-- X::IO::Rename&#45;&gt;Exception -->
<g id="edge18" class="edge">
<title>X::IO::Rename&#45;&gt;Exception</title>
<path fill="none" stroke="#000000" d="M731.52,-36.23C743.38,-77.76 772.59,-180 772.59,-180 772.59,-180 841.1,-202.55 888.74,-218.24"/>
<polygon fill="#000000" stroke="#000000" points="887.67,-221.57 898.26,-221.37 889.86,-214.92 887.67,-221.57"/>
</g>
<!-- X::IO::Rename&#45;&gt;Exception -->
<g id="edge19" class="edge">
<title>X::IO::Rename&#45;&gt;Exception</title>
<path fill="none" stroke="#000000" d="M740.25,-35.93C761.24,-77.26 790.59,-180 790.59,-180 790.59,-180 852.42,-200.35 895.17,-215.83"/>
<polygon fill="#000000" stroke="#000000" points="894.17,-219.2 904.77,-219.35 896.58,-212.63 894.17,-219.2"/>
</g>
<!-- X::IO::Unlink -->
<g id="node12" class="node">
<title>X::IO::Unlink</title>
<g id="a_node12"><a xlink:href="/type/X::IO::Unlink" xlink:title="X::IO::Unlink">
<ellipse fill="none" stroke="#000000" cx="875.59" cy="-18" rx="61.19" ry="18"/>
<text text-anchor="middle" x="875.59" y="-14.3" font-family="FreeSans" font-size="14.00" fill="#000000">X::IO::Unlink</text>
</a>
</g>
</g>
<!-- X::IO::Unlink&#45;&gt;X::IO -->
<g id="edge48" class="edge">
<title>X::IO::Unlink&#45;&gt;X::IO</title>
<path fill="none" stroke="#6666ff" d="M870.9,-36.3C868.78,-44.1 866.23,-53.49 863.88,-62.17"/>
<polygon fill="#6666ff" stroke="#6666ff" points="860.48,-61.33 861.24,-71.9 867.23,-63.16 860.48,-61.33"/>
</g>
<!-- X::IO::Unlink&#45;&gt;Exception -->
<g id="edge20" class="edge">
<title>X::IO::Unlink&#45;&gt;Exception</title>
<path fill="none" stroke="#000000" d="M868.67,-36.06C870.49,-51.55 878.59,-72 878.59,-72 878.59,-72 899.19,-161.61 917.12,-207.12"/>
<polygon fill="#000000" stroke="#000000" points="913.91,-208.52 921.02,-216.38 920.36,-205.8 913.91,-208.52"/>
</g>
<!-- X::IO::Unlink&#45;&gt;Exception -->
<g id="edge21" class="edge">
<title>X::IO::Unlink&#45;&gt;Exception</title>
<path fill="none" stroke="#000000" d="M882.35,-36.06C888.49,-51.55 896.59,-72 896.59,-72 896.59,-72 916.82,-159.99 927.36,-205.88"/>
<polygon fill="#000000" stroke="#000000" points="923.98,-206.81 929.63,-215.77 930.81,-205.24 923.98,-206.81"/>
</g>
<!-- X::IO::Unlink&#45;&gt;Exception -->
<g id="edge22" class="edge">
<title>X::IO::Unlink&#45;&gt;Exception</title>
<path fill="none" stroke="#000000" d="M895.45,-35.19C906.18,-50.78 914.59,-72 914.59,-72 914.59,-72 934.83,-160.05 938.09,-205.92"/>
<polygon fill="#000000" stroke="#000000" points="934.6,-206.23 938.53,-216.07 941.59,-205.93 934.6,-206.23"/>
</g>
<!-- X::IO::Link -->
<g id="node13" class="node">
<title>X::IO::Link</title>
<g id="a_node13"><a xlink:href="/type/X::IO::Link" xlink:title="X::IO::Link">
<ellipse fill="none" stroke="#000000" cx="1007.59" cy="-18" rx="53.09" ry="18"/>
<text text-anchor="middle" x="1007.59" y="-14.3" font-family="FreeSans" font-size="14.00" fill="#000000">X::IO::Link</text>
</a>
</g>
</g>
<!-- X::IO::Link&#45;&gt;X::IO -->
<g id="edge49" class="edge">
<title>X::IO::Link&#45;&gt;X::IO</title>
<path fill="none" stroke="#6666ff" d="M977.4,-33C951.95,-44.79 915.6,-61.64 889.44,-73.78"/>
<polygon fill="#6666ff" stroke="#6666ff" points="887.89,-70.63 880.29,-78.01 890.84,-76.98 887.89,-70.63"/>
</g>
<!-- X::IO::Link&#45;&gt;Exception -->
<g id="edge23" class="edge">
<title>X::IO::Link&#45;&gt;Exception</title>
<path fill="none" stroke="#000000" d="M994.29,-35.44C974.38,-72.13 943.07,-161.03 933.6,-206"/>
<polygon fill="#000000" stroke="#000000" points="930.14,-205.44 931.76,-215.91 937.02,-206.72 930.14,-205.44"/>
</g>
<!-- X::IO::Link&#45;&gt;Exception -->
<g id="edge24" class="edge">
<title>X::IO::Link&#45;&gt;Exception</title>
<path fill="none" stroke="#000000" d="M1001.66,-36.15C988.78,-73.42 958.15,-162 942.75,-206.51"/>
<polygon fill="#000000" stroke="#000000" points="939.41,-205.47 939.45,-216.06 946.03,-207.76 939.41,-205.47"/>
</g>
<!-- X::IO::Link&#45;&gt;Exception -->
<g id="edge25" class="edge">
<title>X::IO::Link&#45;&gt;Exception</title>
<path fill="none" stroke="#000000" d="M1009.42,-36.15C1003.6,-73.76 972.97,-163.63 951.43,-207.72"/>
<polygon fill="#000000" stroke="#000000" points="948.3,-206.16 946.85,-216.65 954.53,-209.35 948.3,-206.16"/>
</g>
<!-- X::IO::Mkdir -->
<g id="node14" class="node">
<title>X::IO::Mkdir</title>
<g id="a_node14"><a xlink:href="/type/X::IO::Mkdir" xlink:title="X::IO::Mkdir">
<ellipse fill="none" stroke="#000000" cx="1137.59" cy="-18" rx="58.49" ry="18"/>
<text text-anchor="middle" x="1137.59" y="-14.3" font-family="FreeSans" font-size="14.00" fill="#000000">X::IO::Mkdir</text>
</a>
</g>
</g>
<!-- X::IO::Mkdir&#45;&gt;X::IO -->
<g id="edge50" class="edge">
<title>X::IO::Mkdir&#45;&gt;X::IO</title>
<path fill="none" stroke="#6666ff" d="M1093.76,-29.96C1080.6,-33.25 1069.59,-36 1069.59,-36 1069.59,-36 955.84,-64.31 894.59,-79.55"/>
<polygon fill="#6666ff" stroke="#6666ff" points="893.74,-76.15 884.88,-81.96 895.43,-82.94 893.74,-76.15"/>
</g>
<!-- X::IO::Mkdir&#45;&gt;Exception -->
<g id="edge26" class="edge">
<title>X::IO::Mkdir&#45;&gt;Exception</title>
<path fill="none" stroke="#000000" d="M1114.68,-34.73C1068.24,-75.24 972.59,-180 972.59,-180 972.59,-180 957.23,-194.29 944.97,-208.03"/>
<polygon fill="#000000" stroke="#000000" points="942.06,-206.05 938.26,-215.94 947.4,-210.58 942.06,-206.05"/>
</g>
<!-- X::IO::Mkdir&#45;&gt;Exception -->
<g id="edge27" class="edge">
<title>X::IO::Mkdir&#45;&gt;Exception</title>
<path fill="none" stroke="#000000" d="M1122.42,-35.62C1084.86,-76.76 990.59,-180 990.59,-180 990.59,-180 973.53,-195.87 958.07,-210.24"/>
<polygon fill="#000000" stroke="#000000" points="955.64,-207.73 950.7,-217.1 960.4,-212.85 955.64,-207.73"/>
</g>
<!-- X::IO::Mkdir&#45;&gt;Exception -->
<g id="edge28" class="edge">
<title>X::IO::Mkdir&#45;&gt;Exception</title>
<path fill="none" stroke="#000000" d="M1130.96,-35.93C1102.4,-77.26 1008.59,-180 1008.59,-180 1008.59,-180 989.18,-198.05 969.43,-213.09"/>
<polygon fill="#000000" stroke="#000000" points="967.28,-210.33 961.3,-219.07 971.43,-215.96 967.28,-210.33"/>
</g>
<!-- X::IO::Rmdir -->
<g id="node15" class="node">
<title>X::IO::Rmdir</title>
<g id="a_node15"><a xlink:href="/type/X::IO::Rmdir" xlink:title="X::IO::Rmdir">
<ellipse fill="none" stroke="#000000" cx="1273.59" cy="-18" rx="59.59" ry="18"/>
<text text-anchor="middle" x="1273.59" y="-14.3" font-family="FreeSans" font-size="14.00" fill="#000000">X::IO::Rmdir</text>
</a>
</g>
</g>
<!-- X::IO::Rmdir&#45;&gt;X::IO -->
<g id="edge51" class="edge">
<title>X::IO::Rmdir&#45;&gt;X::IO</title>
<path fill="none" stroke="#6666ff" d="M1228.73,-30.05C1215.55,-33.3 1204.59,-36 1204.59,-36 1204.59,-36 987.99,-68.99 896.56,-82.91"/>
<polygon fill="#6666ff" stroke="#6666ff" points="895.92,-79.47 886.57,-84.44 896.98,-86.39 895.92,-79.47"/>
</g>
<!-- X::IO::Rmdir&#45;&gt;Exception -->
<g id="edge29" class="edge">
<title>X::IO::Rmdir&#45;&gt;Exception</title>
<path fill="none" stroke="#000000" d="M1243.56,-33.86C1175.73,-73.71 1020.59,-180 1020.59,-180 1020.59,-180 986.53,-197.19 960.53,-211.99"/>
<polygon fill="#000000" stroke="#000000" points="958.63,-209.05 951.74,-217.1 962.15,-215.1 958.63,-209.05"/>
</g>
<!-- X::IO::Rmdir&#45;&gt;Exception -->
<g id="edge30" class="edge">
<title>X::IO::Rmdir&#45;&gt;Exception</title>
<path fill="none" stroke="#000000" d="M1250.63,-34.73C1191.5,-75.24 1038.59,-180 1038.59,-180 1038.59,-180 1000.79,-199.08 970.55,-214.35"/>
<polygon fill="#000000" stroke="#000000" points="968.81,-211.31 961.46,-218.94 971.96,-217.55 968.81,-211.31"/>
</g>
<!-- X::IO::Rmdir&#45;&gt;Exception -->
<g id="edge31" class="edge">
<title>X::IO::Rmdir&#45;&gt;Exception</title>
<path fill="none" stroke="#000000" d="M1258.09,-35.62C1207.29,-76.76 1056.59,-180 1056.59,-180 1056.59,-180 1013.82,-201.59 978.19,-217.21"/>
<polygon fill="#000000" stroke="#000000" points="976.65,-214.07 968.85,-221.24 979.41,-220.5 976.65,-214.07"/>
</g>
<!-- X::IO::Copy -->
<g id="node16" class="node">
<title>X::IO::Copy</title>
<g id="a_node16"><a xlink:href="/type/X::IO::Copy" xlink:title="X::IO::Copy">
<ellipse fill="none" stroke="#000000" cx="1407.59" cy="-18" rx="56.59" ry="18"/>
<text text-anchor="middle" x="1407.59" y="-14.3" font-family="FreeSans" font-size="14.00" fill="#000000">X::IO::Copy</text>
</a>
</g>
</g>
<!-- X::IO::Copy&#45;&gt;X::IO -->
<g id="edge52" class="edge">
<title>X::IO::Copy&#45;&gt;X::IO</title>
<path fill="none" stroke="#6666ff" d="M1365.33,-30.05C1352.91,-33.3 1342.59,-36 1342.59,-36 1342.59,-36 1013.55,-71.88 896.96,-84.6"/>
<polygon fill="#6666ff" stroke="#6666ff" points="896.56,-81.12 887,-85.68 897.32,-88.08 896.56,-81.12"/>
</g>
<!-- X::IO::Copy&#45;&gt;Exception -->
<g id="edge32" class="edge">
<title>X::IO::Copy&#45;&gt;Exception</title>
<path fill="none" stroke="#000000" d="M1373.62,-32.45C1288.87,-71.14 1078.59,-180 1078.59,-180 1078.59,-180 1015.73,-200.44 972.4,-215.93"/>
<polygon fill="#000000" stroke="#000000" points="971.15,-212.66 962.94,-219.35 973.53,-219.24 971.15,-212.66"/>
</g>
<!-- X::IO::Copy&#45;&gt;Exception -->
<g id="edge33" class="edge">
<title>X::IO::Copy&#45;&gt;Exception</title>
<path fill="none" stroke="#000000" d="M1379.17,-33.71C1302.4,-73.46 1096.59,-180 1096.59,-180 1096.59,-180 1027.23,-202.55 979,-218.24"/>
<polygon fill="#000000" stroke="#000000" points="977.79,-214.95 969.37,-221.37 979.96,-221.61 977.79,-214.95"/>
</g>
<!-- X::IO::Copy&#45;&gt;Exception -->
<g id="edge34" class="edge">
<title>X::IO::Copy&#45;&gt;Exception</title>
<path fill="none" stroke="#000000" d="M1385.76,-34.73C1316.95,-75.24 1114.59,-180 1114.59,-180 1114.59,-180 1037.93,-204.93 983.94,-220.59"/>
<polygon fill="#000000" stroke="#000000" points="982.8,-217.28 974.15,-223.4 984.73,-224.01 982.8,-217.28"/>
</g>
<!-- X::IO::Chmod -->
<g id="node17" class="node">
<title>X::IO::Chmod</title>
<g id="a_node17"><a xlink:href="/type/X::IO::Chmod" xlink:title="X::IO::Chmod">
<ellipse fill="none" stroke="#000000" cx="1546.59" cy="-18" rx="64.19" ry="18"/>
<text text-anchor="middle" x="1546.59" y="-14.3" font-family="FreeSans" font-size="14.00" fill="#000000">X::IO::Chmod</text>
</a>
</g>
</g>
<!-- X::IO::Chmod&#45;&gt;X::IO -->
<g id="edge53" class="edge">
<title>X::IO::Chmod&#45;&gt;X::IO</title>
<path fill="none" stroke="#6666ff" d="M1498.72,-30.15C1484.96,-33.35 1473.59,-36 1473.59,-36 1473.59,-36 1034.85,-73.69 897.31,-85.5"/>
<polygon fill="#6666ff" stroke="#6666ff" points="896.85,-82.03 887.19,-86.37 897.45,-89 896.85,-82.03"/>
</g>
<!-- X::IO::Chmod&#45;&gt;Exception -->
<g id="edge35" class="edge">
<title>X::IO::Chmod&#45;&gt;Exception</title>
<path fill="none" stroke="#000000" d="M1506.8,-32.31C1404.52,-70.89 1143.59,-180 1143.59,-180 1143.59,-180 1042.45,-203.51 980.21,-219.22"/>
<polygon fill="#000000" stroke="#000000" points="979.03,-215.9 970.2,-221.76 980.76,-222.69 979.03,-215.9"/>
</g>
<!-- X::IO::Chmod&#45;&gt;Exception -->
<g id="edge36" class="edge">
<title>X::IO::Chmod&#45;&gt;Exception</title>
<path fill="none" stroke="#000000" d="M1512.43,-33.29C1418.2,-72.69 1161.59,-180 1161.59,-180 1161.59,-180 1051.23,-205.65 984.07,-221.27"/>
<polygon fill="#000000" stroke="#000000" points="983.04,-217.91 974.09,-223.59 984.63,-224.73 983.04,-217.91"/>
</g>
<!-- X::IO::Chmod&#45;&gt;Exception -->
<g id="edge37" class="edge">
<title>X::IO::Chmod&#45;&gt;Exception</title>
<path fill="none" stroke="#000000" d="M1518.48,-34.29C1431.92,-74.48 1179.59,-180 1179.59,-180 1179.59,-180 1059.54,-207.91 986.79,-223.22"/>
<polygon fill="#000000" stroke="#000000" points="985.93,-219.82 976.85,-225.29 987.36,-226.68 985.93,-219.82"/>
</g>
<!-- X::IO::DoesNotExist -->
<g id="node18" class="node">
<title>X::IO::DoesNotExist</title>
<g id="a_node18"><a xlink:href="/type/X::IO::DoesNotExist" xlink:title="X::IO::DoesNotExist">
<ellipse fill="none" stroke="#000000" cx="1718.59" cy="-18" rx="89.88" ry="18"/>
<text text-anchor="middle" x="1718.59" y="-14.3" font-family="FreeSans" font-size="14.00" fill="#000000">X::IO::DoesNotExist</text>
</a>
</g>
</g>
<!-- X::IO::DoesNotExist&#45;&gt;X::IO -->
<g id="edge54" class="edge">
<title>X::IO::DoesNotExist&#45;&gt;X::IO</title>
<path fill="none" stroke="#6666ff" d="M1652.83,-30.29C1634.55,-33.43 1619.59,-36 1619.59,-36 1619.59,-36 1056.37,-75.12 897.73,-86.14"/>
<polygon fill="#6666ff" stroke="#6666ff" points="897.18,-82.67 887.45,-86.86 897.67,-89.66 897.18,-82.67"/>
</g>
<!-- X::IO::DoesNotExist&#45;&gt;Exception -->
<g id="edge38" class="edge">
<title>X::IO::DoesNotExist&#45;&gt;Exception</title>
<path fill="none" stroke="#000000" d="M1668.35,-33.01C1540.73,-72.18 1216.59,-180 1216.59,-180 1216.59,-180 1066.2,-206.48 984.39,-222.01"/>
<polygon fill="#000000" stroke="#000000" points="983.69,-218.58 974.52,-223.89 985,-225.45 983.69,-218.58"/>
</g>
<!-- X::IO::DoesNotExist&#45;&gt;Exception -->
<g id="edge39" class="edge">
<title>X::IO::DoesNotExist&#45;&gt;Exception</title>
<path fill="none" stroke="#000000" d="M1674.36,-33.71C1554.88,-73.46 1234.59,-180 1234.59,-180 1234.59,-180 1073.41,-208.38 986.95,-223.61"/>
<polygon fill="#000000" stroke="#000000" points="986.28,-220.17 977.04,-225.35 987.5,-227.06 986.28,-220.17"/>
</g>
<!-- X::IO::DoesNotExist&#45;&gt;Exception -->
<g id="edge40" class="edge">
<title>X::IO::DoesNotExist&#45;&gt;Exception</title>
<path fill="none" stroke="#000000" d="M1680.67,-34.44C1569.04,-74.73 1252.59,-180 1252.59,-180 1252.59,-180 1080.63,-210.28 988.89,-225.06"/>
<polygon fill="#000000" stroke="#000000" points="988.24,-221.62 978.92,-226.66 989.35,-228.54 988.24,-221.62"/>
</g>
</g>
</svg>
