<?xml version="1.0" encoding="UTF-8" standalone="no"?>
<!DOCTYPE svg PUBLIC "-//W3C//DTD SVG 1.1//EN"
 "http://www.w3.org/Graphics/SVG/1.1/DTD/svg11.dtd">
<!-- Generated by graphviz version 2.43.0 (0)
 -->
<!-- Title: raku&#45;type&#45;graph Pages: 1 -->
<svg width="250pt" height="404pt"
 viewBox="0.00 0.00 250.14 404.00" xmlns="http://www.w3.org/2000/svg" xmlns:xlink="http://www.w3.org/1999/xlink">
<g id="graph0" class="graph" transform="scale(1 1) rotate(0) translate(4 400)">
<title>raku&#45;type&#45;graph</title>
<polygon fill="#ffffff" stroke="transparent" points="-4,4 -4,-400 246.14,-400 246.14,4 -4,4"/>
<!-- X::IO::DoesNotExist -->
<g id="node1" class="node">
<title>X::IO::DoesNotExist</title>
<g id="a_node1"><a xlink:href="/type/X::IO::DoesNotExist" xlink:title="X::IO::DoesNotExist">
<ellipse fill="none" stroke="#000000" cx="89.69" cy="-18" rx="89.88" ry="18"/>
<text text-anchor="middle" x="89.69" y="-14.3" font-family="FreeSans" font-size="14.00" fill="#000000">X::IO::DoesNotExist</text>
</a>
</g>
</g>
<!-- Exception -->
<g id="node4" class="node">
<title>Exception</title>
<g id="a_node4"><a xlink:href="/type/Exception" xlink:title="Exception">
<ellipse fill="none" stroke="#000000" cx="89.69" cy="-234" rx="49.29" ry="18"/>
<text text-anchor="middle" x="89.69" y="-230.3" font-family="FreeSans" font-size="14.00" fill="#000000">Exception</text>
</a>
</g>
</g>
<!-- X::IO::DoesNotExist&#45;&gt;Exception -->
<g id="edge1" class="edge">
<title>X::IO::DoesNotExist&#45;&gt;Exception</title>
<path fill="none" stroke="#000000" d="M81.94,-36.15C74.85,-73.26 74.32,-161.25 80.35,-205.95"/>
<polygon fill="#000000" stroke="#000000" points="76.94,-206.75 81.98,-216.06 83.85,-205.64 76.94,-206.75"/>
</g>
<!-- X::IO::DoesNotExist&#45;&gt;Exception -->
<g id="edge2" class="edge">
<title>X::IO::DoesNotExist&#45;&gt;Exception</title>
<path fill="none" stroke="#000000" d="M89.69,-36.15C89.69,-73.17 89.69,-160.82 89.69,-205.61"/>
<polygon fill="#000000" stroke="#000000" points="86.19,-205.77 89.69,-215.77 93.19,-205.77 86.19,-205.77"/>
</g>
<!-- X::IO::DoesNotExist&#45;&gt;Exception -->
<g id="edge3" class="edge">
<title>X::IO::DoesNotExist&#45;&gt;Exception</title>
<path fill="none" stroke="#000000" d="M97.45,-36.15C104.54,-73.26 105.06,-161.25 99.03,-205.95"/>
<polygon fill="#000000" stroke="#000000" points="95.54,-205.64 97.41,-216.06 102.45,-206.75 95.54,-205.64"/>
</g>
<!-- X::IO -->
<g id="node6" class="node">
<title>X::IO</title>
<g id="a_node6"><a xlink:href="/type/X::IO" xlink:title="X::IO">
<ellipse fill="none" stroke="#6666ff" cx="166.69" cy="-90" rx="31.4" ry="18"/>
<text text-anchor="middle" x="166.69" y="-86.3" font-family="FreeSans" font-size="14.00" fill="#6666ff">X::IO</text>
</a>
</g>
</g>
<!-- X::IO::DoesNotExist&#45;&gt;X::IO -->
<g id="edge8" class="edge">
<title>X::IO::DoesNotExist&#45;&gt;X::IO</title>
<path fill="none" stroke="#6666ff" d="M108.33,-35.95C118.72,-45.39 131.76,-57.24 142.88,-67.35"/>
<polygon fill="#6666ff" stroke="#6666ff" points="140.82,-70.21 150.57,-74.34 145.53,-65.03 140.82,-70.21"/>
</g>
<!-- Mu -->
<g id="node2" class="node">
<title>Mu</title>
<g id="a_node2"><a xlink:href="/type/Mu" xlink:title="Mu">
<ellipse fill="none" stroke="#000000" cx="89.69" cy="-378" rx="27" ry="18"/>
<text text-anchor="middle" x="89.69" y="-374.3" font-family="FreeSans" font-size="14.00" fill="#000000">Mu</text>
</a>
</g>
</g>
<!-- Any -->
<g id="node3" class="node">
<title>Any</title>
<g id="a_node3"><a xlink:href="/type/Any" xlink:title="Any">
<ellipse fill="none" stroke="#000000" cx="89.69" cy="-306" rx="27" ry="18"/>
<text text-anchor="middle" x="89.69" y="-302.3" font-family="FreeSans" font-size="14.00" fill="#000000">Any</text>
</a>
</g>
</g>
<!-- Any&#45;&gt;Mu -->
<g id="edge4" class="edge">
<title>Any&#45;&gt;Mu</title>
<path fill="none" stroke="#000000" d="M89.69,-324.3C89.69,-332.02 89.69,-341.29 89.69,-349.89"/>
<polygon fill="#000000" stroke="#000000" points="86.19,-349.9 89.69,-359.9 93.19,-349.9 86.19,-349.9"/>
</g>
<!-- Exception&#45;&gt;Any -->
<g id="edge5" class="edge">
<title>Exception&#45;&gt;Any</title>
<path fill="none" stroke="#000000" d="M89.69,-252.3C89.69,-260.02 89.69,-269.29 89.69,-277.89"/>
<polygon fill="#000000" stroke="#000000" points="86.19,-277.9 89.69,-287.9 93.19,-277.9 86.19,-277.9"/>
</g>
<!-- X::OS -->
<g id="node5" class="node">
<title>X::OS</title>
<g id="a_node5"><a xlink:href="/type/X::OS" xlink:title="X::OS">
<ellipse fill="none" stroke="#6666ff" cx="207.69" cy="-162" rx="34.39" ry="18"/>
<text text-anchor="middle" x="207.69" y="-158.3" font-family="FreeSans" font-size="14.00" fill="#6666ff">X::OS</text>
</a>
</g>
</g>
<!-- X::OS&#45;&gt;Exception -->
<g id="edge6" class="edge">
<title>X::OS&#45;&gt;Exception</title>
<path fill="none" stroke="#000000" d="M185.77,-176C168.2,-186.43 143.25,-201.23 123.18,-213.13"/>
<polygon fill="#000000" stroke="#000000" points="121.16,-210.26 114.35,-218.37 124.73,-216.28 121.16,-210.26"/>
</g>
<!-- X::IO&#45;&gt;Exception -->
<g id="edge7" class="edge">
<title>X::IO&#45;&gt;Exception</title>
<path fill="none" stroke="#000000" d="M158.23,-107.74C145.19,-133.52 121.69,-180 121.69,-180 121.69,-180 113.28,-193.93 105.08,-207.51"/>
<polygon fill="#000000" stroke="#000000" points="101.99,-205.86 99.82,-216.23 107.98,-209.48 101.99,-205.86"/>
</g>
<!-- X::IO&#45;&gt;X::OS -->
<g id="edge9" class="edge">
<title>X::IO&#45;&gt;X::OS</title>
<path fill="none" stroke="#6666ff" d="M176.2,-107.24C181.15,-115.68 187.31,-126.2 192.87,-135.69"/>
<polygon fill="#6666ff" stroke="#6666ff" points="189.88,-137.51 197.95,-144.37 195.92,-133.97 189.88,-137.51"/>
</g>
</g>
</svg>
