<?xml version="1.0" encoding="UTF-8" standalone="no"?>
<!DOCTYPE svg PUBLIC "-//W3C//DTD SVG 1.1//EN"
 "http://www.w3.org/Graphics/SVG/1.1/DTD/svg11.dtd">
<!-- Generated by graphviz version 2.43.0 (0)
 -->
<!-- Title: raku&#45;type&#45;graph Pages: 1 -->
<svg width="1816pt" height="404pt"
 viewBox="0.00 0.00 1816.29 404.00" xmlns="http://www.w3.org/2000/svg" xmlns:xlink="http://www.w3.org/1999/xlink">
<g id="graph0" class="graph" transform="scale(1 1) rotate(0) translate(4 400)">
<title>raku&#45;type&#45;graph</title>
<polygon fill="#ffffff" stroke="transparent" points="-4,4 -4,-400 1812.29,-400 1812.29,4 -4,4"/>
<!-- X::OS -->
<g id="node1" class="node">
<title>X::OS</title>
<g id="a_node1"><a xlink:href="/type/X::OS" xlink:title="X::OS">
<ellipse fill="none" stroke="#6666ff" cx="853.59" cy="-162" rx="34.39" ry="18"/>
<text text-anchor="middle" x="853.59" y="-158.3" font-family="FreeSans" font-size="14.00" fill="#6666ff">X::OS</text>
</a>
</g>
</g>
<!-- Exception -->
<g id="node4" class="node">
<title>Exception</title>
<g id="a_node4"><a xlink:href="/type/Exception" xlink:title="Exception">
<ellipse fill="none" stroke="#000000" cx="933.59" cy="-234" rx="49.29" ry="18"/>
<text text-anchor="middle" x="933.59" y="-230.3" font-family="FreeSans" font-size="14.00" fill="#000000">Exception</text>
</a>
</g>
</g>
<!-- X::OS&#45;&gt;Exception -->
<g id="edge1" class="edge">
<title>X::OS&#45;&gt;Exception</title>
<path fill="none" stroke="#000000" d="M870.56,-177.85C881.4,-187.33 895.65,-199.8 907.87,-210.49"/>
<polygon fill="#000000" stroke="#000000" points="905.71,-213.25 915.54,-217.2 910.32,-207.98 905.71,-213.25"/>
</g>
<!-- Mu -->
<g id="node2" class="node">
<title>Mu</title>
<g id="a_node2"><a xlink:href="/type/Mu" xlink:title="Mu">
<ellipse fill="none" stroke="#000000" cx="933.59" cy="-378" rx="27" ry="18"/>
<text text-anchor="middle" x="933.59" y="-374.3" font-family="FreeSans" font-size="14.00" fill="#000000">Mu</text>
</a>
</g>
</g>
<!-- Any -->
<g id="node3" class="node">
<title>Any</title>
<g id="a_node3"><a xlink:href="/type/Any" xlink:title="Any">
<ellipse fill="none" stroke="#000000" cx="933.59" cy="-306" rx="27" ry="18"/>
<text text-anchor="middle" x="933.59" y="-302.3" font-family="FreeSans" font-size="14.00" fill="#000000">Any</text>
</a>
</g>
</g>
<!-- Any&#45;&gt;Mu -->
<g id="edge2" class="edge">
<title>Any&#45;&gt;Mu</title>
<path fill="none" stroke="#000000" d="M933.59,-324.3C933.59,-332.02 933.59,-341.29 933.59,-349.89"/>
<polygon fill="#000000" stroke="#000000" points="930.09,-349.9 933.59,-359.9 937.09,-349.9 930.09,-349.9"/>
</g>
<!-- Exception&#45;&gt;Any -->
<g id="edge3" class="edge">
<title>Exception&#45;&gt;Any</title>
<path fill="none" stroke="#000000" d="M933.59,-252.3C933.59,-260.02 933.59,-269.29 933.59,-277.89"/>
<polygon fill="#000000" stroke="#000000" points="930.09,-277.9 933.59,-287.9 937.09,-277.9 930.09,-277.9"/>
</g>
<!-- X::IO -->
<g id="node5" class="node">
<title>X::IO</title>
<g id="a_node5"><a xlink:href="/type/X::IO" xlink:title="X::IO">
<ellipse fill="none" stroke="#6666ff" cx="853.59" cy="-90" rx="31.4" ry="18"/>
<text text-anchor="middle" x="853.59" y="-86.3" font-family="FreeSans" font-size="14.00" fill="#6666ff">X::IO</text>
</a>
</g>
</g>
<!-- X::IO&#45;&gt;X::OS -->
<g id="edge41" class="edge">
<title>X::IO&#45;&gt;X::OS</title>
<path fill="none" stroke="#6666ff" d="M853.59,-108.3C853.59,-116.02 853.59,-125.29 853.59,-133.89"/>
<polygon fill="#6666ff" stroke="#6666ff" points="850.09,-133.9 853.59,-143.9 857.09,-133.9 850.09,-133.9"/>
</g>
<!-- X::IO&#45;&gt;Exception -->
<g id="edge4" class="edge">
<title>X::IO&#45;&gt;Exception</title>
<path fill="none" stroke="#000000" d="M840.93,-106.62C828.24,-122.25 810.59,-144 810.59,-144 810.59,-144 810.59,-180 810.59,-180 810.59,-180 857.65,-200.28 893.56,-215.75"/>
<polygon fill="#000000" stroke="#000000" points="892.3,-219.02 902.87,-219.76 895.07,-212.59 892.3,-219.02"/>
</g>
<!-- X::IO::Symlink -->
<g id="node6" class="node">
<title>X::IO::Symlink</title>
<g id="a_node6"><a xlink:href="/type/X::IO::Symlink" xlink:title="X::IO::Symlink">
<ellipse fill="none" stroke="#000000" cx="67.59" cy="-18" rx="67.69" ry="18"/>
<text text-anchor="middle" x="67.59" y="-14.3" font-family="FreeSans" font-size="14.00" fill="#000000">X::IO::Symlink</text>
</a>
</g>
</g>
<!-- X::IO::Symlink&#45;&gt;Exception -->
<g id="edge5" class="edge">
<title>X::IO::Symlink&#45;&gt;Exception</title>
<path fill="none" stroke="#000000" d="M103.18,-33.43C207.03,-72.95 501.59,-180 501.59,-180 501.59,-180 759.68,-212.34 876.96,-226.49"/>
<polygon fill="#000000" stroke="#000000" points="876.83,-230 887.18,-227.72 877.67,-223.05 876.83,-230"/>
</g>
<!-- X::IO::Symlink&#45;&gt;Exception -->
<g id="edge6" class="edge">
<title>X::IO::Symlink&#45;&gt;Exception</title>
<path fill="none" stroke="#000000" d="M108.6,-32.45C220.07,-71.14 519.59,-180 519.59,-180 519.59,-180 764.81,-210.72 877.86,-225.39"/>
<polygon fill="#000000" stroke="#000000" points="877.69,-228.89 888.05,-226.71 878.59,-221.95 877.69,-228.89"/>
</g>
<!-- X::IO::Symlink&#45;&gt;X::IO -->
<g id="edge42" class="edge">
<title>X::IO::Symlink&#45;&gt;X::IO</title>
<path fill="none" stroke="#6666ff" d="M118.09,-30.15C132.61,-33.35 144.59,-36 144.59,-36 144.59,-36 661.12,-74.61 812.42,-85.92"/>
<polygon fill="#6666ff" stroke="#6666ff" points="812.44,-89.43 822.67,-86.69 812.96,-82.45 812.44,-89.43"/>
</g>
<!-- X::IO::Chdir -->
<g id="node7" class="node">
<title>X::IO::Chdir</title>
<g id="a_node7"><a xlink:href="/type/X::IO::Chdir" xlink:title="X::IO::Chdir">
<ellipse fill="none" stroke="#000000" cx="210.59" cy="-18" rx="57.39" ry="18"/>
<text text-anchor="middle" x="210.59" y="-14.3" font-family="FreeSans" font-size="14.00" fill="#000000">X::IO::Chdir</text>
</a>
</g>
</g>
<!-- X::IO::Chdir&#45;&gt;Exception -->
<g id="edge7" class="edge">
<title>X::IO::Chdir&#45;&gt;Exception</title>
<path fill="none" stroke="#000000" d="M240.84,-33.29C330.65,-72.69 588.59,-180 588.59,-180 588.59,-180 780.85,-210.33 878.4,-225.1"/>
<polygon fill="#000000" stroke="#000000" points="877.98,-228.57 888.39,-226.61 879.02,-221.65 877.98,-228.57"/>
</g>
<!-- X::IO::Chdir&#45;&gt;Exception -->
<g id="edge8" class="edge">
<title>X::IO::Chdir&#45;&gt;Exception</title>
<path fill="none" stroke="#000000" d="M246.22,-32.18C343.69,-70.63 606.59,-180 606.59,-180 606.59,-180 787.25,-208.5 880.08,-223.7"/>
<polygon fill="#000000" stroke="#000000" points="879.7,-227.18 890.13,-225.35 880.83,-220.28 879.7,-227.18"/>
</g>
<!-- X::IO::Chdir&#45;&gt;X::IO -->
<g id="edge43" class="edge">
<title>X::IO::Chdir&#45;&gt;X::IO</title>
<path fill="none" stroke="#6666ff" d="M253.51,-30.05C266.12,-33.3 276.59,-36 276.59,-36 276.59,-36 681.47,-73.19 812.92,-85.26"/>
<polygon fill="#6666ff" stroke="#6666ff" points="812.7,-88.76 822.98,-86.19 813.34,-81.79 812.7,-88.76"/>
</g>
<!-- X::IO::Cwd -->
<g id="node8" class="node">
<title>X::IO::Cwd</title>
<g id="a_node8"><a xlink:href="/type/X::IO::Cwd" xlink:title="X::IO::Cwd">
<ellipse fill="none" stroke="#000000" cx="339.59" cy="-18" rx="53.89" ry="18"/>
<text text-anchor="middle" x="339.59" y="-14.3" font-family="FreeSans" font-size="14.00" fill="#000000">X::IO::Cwd</text>
</a>
</g>
</g>
<!-- X::IO::Cwd&#45;&gt;Exception -->
<g id="edge9" class="edge">
<title>X::IO::Cwd&#45;&gt;Exception</title>
<path fill="none" stroke="#000000" d="M365.96,-33.71C443.57,-73.46 664.59,-180 664.59,-180 664.59,-180 801.7,-207.95 880.24,-223.26"/>
<polygon fill="#000000" stroke="#000000" points="879.96,-226.77 890.44,-225.24 881.29,-219.89 879.96,-226.77"/>
</g>
<!-- X::IO::Cwd&#45;&gt;Exception -->
<g id="edge10" class="edge">
<title>X::IO::Cwd&#45;&gt;Exception</title>
<path fill="none" stroke="#000000" d="M371.8,-32.59C457.31,-71.4 682.59,-180 682.59,-180 682.59,-180 809.82,-205.93 883.2,-221.52"/>
<polygon fill="#000000" stroke="#000000" points="882.66,-224.99 893.17,-223.65 884.12,-218.14 882.66,-224.99"/>
</g>
<!-- X::IO::Cwd&#45;&gt;X::IO -->
<g id="edge44" class="edge">
<title>X::IO::Cwd&#45;&gt;X::IO</title>
<path fill="none" stroke="#6666ff" d="M380.21,-29.96C392.4,-33.25 402.59,-36 402.59,-36 402.59,-36 702.52,-71.25 813.2,-84.25"/>
<polygon fill="#6666ff" stroke="#6666ff" points="812.96,-87.75 823.3,-85.44 813.78,-80.8 812.96,-87.75"/>
</g>
<!-- X::IO::Dir -->
<g id="node9" class="node">
<title>X::IO::Dir</title>
<g id="a_node9"><a xlink:href="/type/X::IO::Dir" xlink:title="X::IO::Dir">
<ellipse fill="none" stroke="#000000" cx="458.59" cy="-18" rx="47.39" ry="18"/>
<text text-anchor="middle" x="458.59" y="-14.3" font-family="FreeSans" font-size="14.00" fill="#000000">X::IO::Dir</text>
</a>
</g>
</g>
<!-- X::IO::Dir&#45;&gt;Exception -->
<g id="edge11" class="edge">
<title>X::IO::Dir&#45;&gt;Exception</title>
<path fill="none" stroke="#000000" d="M477.3,-34.73C538.06,-75.24 719.59,-180 719.59,-180 719.59,-180 817.9,-206.58 881.66,-222.1"/>
<polygon fill="#000000" stroke="#000000" points="881.04,-225.55 891.58,-224.48 882.68,-218.74 881.04,-225.55"/>
</g>
<!-- X::IO::Dir&#45;&gt;Exception -->
<g id="edge12" class="edge">
<title>X::IO::Dir&#45;&gt;Exception</title>
<path fill="none" stroke="#000000" d="M483.85,-33.57C552.52,-73.2 737.59,-180 737.59,-180 737.59,-180 827.1,-204.2 885.14,-219.9"/>
<polygon fill="#000000" stroke="#000000" points="884.3,-223.3 894.87,-222.53 886.13,-216.54 884.3,-223.3"/>
</g>
<!-- X::IO::Dir&#45;&gt;Exception -->
<g id="edge13" class="edge">
<title>X::IO::Dir&#45;&gt;Exception</title>
<path fill="none" stroke="#000000" d="M488.8,-31.9C565.16,-70.11 755.59,-180 755.59,-180 755.59,-180 837.36,-202.11 890.41,-217.77"/>
<polygon fill="#000000" stroke="#000000" points="889.7,-221.21 900.29,-220.71 891.7,-214.5 889.7,-221.21"/>
</g>
<!-- X::IO::Dir&#45;&gt;X::IO -->
<g id="edge45" class="edge">
<title>X::IO::Dir&#45;&gt;X::IO</title>
<path fill="none" stroke="#6666ff" d="M494.38,-29.86C505.35,-33.19 514.59,-36 514.59,-36 514.59,-36 724.16,-68.76 813.75,-82.77"/>
<polygon fill="#6666ff" stroke="#6666ff" points="813.39,-86.26 823.81,-84.34 814.47,-79.34 813.39,-86.26"/>
</g>
<!-- X::IO::Move -->
<g id="node10" class="node">
<title>X::IO::Move</title>
<g id="a_node10"><a xlink:href="/type/X::IO::Move" xlink:title="X::IO::Move">
<ellipse fill="none" stroke="#000000" cx="581.59" cy="-18" rx="57.69" ry="18"/>
<text text-anchor="middle" x="581.59" y="-14.3" font-family="FreeSans" font-size="14.00" fill="#000000">X::IO::Move</text>
</a>
</g>
</g>
<!-- X::IO::Move&#45;&gt;Exception -->
<g id="edge14" class="edge">
<title>X::IO::Move&#45;&gt;Exception</title>
<path fill="none" stroke="#000000" d="M593.9,-35.62C636.78,-76.76 767.59,-180 767.59,-180 767.59,-180 835.16,-204.2 884.54,-219.89"/>
<polygon fill="#000000" stroke="#000000" points="883.56,-223.25 894.15,-222.91 885.65,-216.57 883.56,-223.25"/>
</g>
<!-- X::IO::Move&#45;&gt;Exception -->
<g id="edge15" class="edge">
<title>X::IO::Move&#45;&gt;Exception</title>
<path fill="none" stroke="#000000" d="M601.9,-35.03C653.5,-75.75 785.59,-180 785.59,-180 785.59,-180 846.4,-201.78 890.06,-217.41"/>
<polygon fill="#000000" stroke="#000000" points="889.05,-220.76 899.64,-220.84 891.41,-214.17 889.05,-220.76"/>
</g>
<!-- X::IO::Move&#45;&gt;Exception -->
<g id="edge16" class="edge">
<title>X::IO::Move&#45;&gt;Exception</title>
<path fill="none" stroke="#000000" d="M609.2,-34.15C669.57,-74.23 803.59,-180 803.59,-180 803.59,-180 858.41,-199.63 897.26,-215"/>
<polygon fill="#000000" stroke="#000000" points="896.17,-218.33 906.75,-218.8 898.77,-211.83 896.17,-218.33"/>
</g>
<!-- X::IO::Move&#45;&gt;X::IO -->
<g id="edge46" class="edge">
<title>X::IO::Move&#45;&gt;X::IO</title>
<path fill="none" stroke="#6666ff" d="M624.88,-30.15C637.32,-33.35 647.59,-36 647.59,-36 647.59,-36 756.05,-63.9 815.57,-79.22"/>
<polygon fill="#6666ff" stroke="#6666ff" points="814.83,-82.64 825.38,-81.74 816.57,-75.86 814.83,-82.64"/>
</g>
<!-- X::IO::Rename -->
<g id="node11" class="node">
<title>X::IO::Rename</title>
<g id="a_node11"><a xlink:href="/type/X::IO::Rename" xlink:title="X::IO::Rename">
<ellipse fill="none" stroke="#000000" cx="726.59" cy="-18" rx="69.59" ry="18"/>
<text text-anchor="middle" x="726.59" y="-14.3" font-family="FreeSans" font-size="14.00" fill="#000000">X::IO::Rename</text>
</a>
</g>
</g>
<!-- X::IO::Rename&#45;&gt;Exception -->
<g id="edge17" class="edge">
<title>X::IO::Rename&#45;&gt;Exception</title>
<path fill="none" stroke="#000000" d="M726.26,-36.23C737.79,-77.76 788.59,-180 788.59,-180 788.59,-180 843.77,-203.03 886.54,-218.72"/>
<polygon fill="#000000" stroke="#000000" points="885.41,-222.04 896,-222.15 887.79,-215.45 885.41,-222.04"/>
</g>
<!-- X::IO::Rename&#45;&gt;Exception -->
<g id="edge18" class="edge">
<title>X::IO::Rename&#45;&gt;Exception</title>
<path fill="none" stroke="#000000" d="M735,-35.93C755.54,-77.26 806.59,-180 806.59,-180 806.59,-180 855.47,-200.4 892.58,-215.88"/>
<polygon fill="#000000" stroke="#000000" points="891.62,-219.28 902.2,-219.9 894.32,-212.82 891.62,-219.28"/>
</g>
<!-- X::IO::Rename&#45;&gt;Exception -->
<g id="edge19" class="edge">
<title>X::IO::Rename&#45;&gt;Exception</title>
<path fill="none" stroke="#000000" d="M743.61,-35.62C773.29,-76.76 824.59,-180 824.59,-180 824.59,-180 868.83,-198.46 901.39,-213.59"/>
<polygon fill="#000000" stroke="#000000" points="900.1,-216.85 910.63,-217.95 903.08,-210.52 900.1,-216.85"/>
</g>
<!-- X::IO::Rename&#45;&gt;X::IO -->
<g id="edge47" class="edge">
<title>X::IO::Rename&#45;&gt;X::IO</title>
<path fill="none" stroke="#6666ff" d="M754.78,-34.54C774.93,-45.64 802.04,-60.59 822.77,-72.01"/>
<polygon fill="#6666ff" stroke="#6666ff" points="821.35,-75.22 831.79,-76.98 824.73,-69.09 821.35,-75.22"/>
</g>
<!-- X::IO::Unlink -->
<g id="node12" class="node">
<title>X::IO::Unlink</title>
<g id="a_node12"><a xlink:href="/type/X::IO::Unlink" xlink:title="X::IO::Unlink">
<ellipse fill="none" stroke="#000000" cx="875.59" cy="-18" rx="61.19" ry="18"/>
<text text-anchor="middle" x="875.59" y="-14.3" font-family="FreeSans" font-size="14.00" fill="#000000">X::IO::Unlink</text>
</a>
</g>
</g>
<!-- X::IO::Unlink&#45;&gt;Exception -->
<g id="edge20" class="edge">
<title>X::IO::Unlink&#45;&gt;Exception</title>
<path fill="none" stroke="#000000" d="M867.7,-36.06C868.65,-51.55 875.59,-72 875.59,-72 875.59,-72 897.86,-161.61 916.64,-207.12"/>
<polygon fill="#000000" stroke="#000000" points="913.48,-208.63 920.71,-216.38 919.89,-205.81 913.48,-208.63"/>
</g>
<!-- X::IO::Unlink&#45;&gt;Exception -->
<g id="edge21" class="edge">
<title>X::IO::Unlink&#45;&gt;Exception</title>
<path fill="none" stroke="#000000" d="M881.39,-36.06C886.65,-51.55 893.59,-72 893.59,-72 893.59,-72 915.46,-159.99 926.86,-205.88"/>
<polygon fill="#000000" stroke="#000000" points="923.51,-206.91 929.31,-215.77 930.3,-205.22 923.51,-206.91"/>
</g>
<!-- X::IO::Unlink&#45;&gt;Exception -->
<g id="edge22" class="edge">
<title>X::IO::Unlink&#45;&gt;Exception</title>
<path fill="none" stroke="#000000" d="M894.53,-35.19C904.39,-50.78 911.59,-72 911.59,-72 911.59,-72 933.47,-160.05 937.59,-205.92"/>
<polygon fill="#000000" stroke="#000000" points="934.1,-206.31 938.21,-216.07 941.09,-205.88 934.1,-206.31"/>
</g>
<!-- X::IO::Unlink&#45;&gt;X::IO -->
<g id="edge48" class="edge">
<title>X::IO::Unlink&#45;&gt;X::IO</title>
<path fill="none" stroke="#6666ff" d="M870.27,-35.95C867.76,-43.94 864.7,-53.67 861.89,-62.6"/>
<polygon fill="#6666ff" stroke="#6666ff" points="858.53,-61.62 858.87,-72.21 865.21,-63.72 858.53,-61.62"/>
</g>
<!-- X::IO::Link -->
<g id="node13" class="node">
<title>X::IO::Link</title>
<g id="a_node13"><a xlink:href="/type/X::IO::Link" xlink:title="X::IO::Link">
<ellipse fill="none" stroke="#000000" cx="1007.59" cy="-18" rx="53.09" ry="18"/>
<text text-anchor="middle" x="1007.59" y="-14.3" font-family="FreeSans" font-size="14.00" fill="#000000">X::IO::Link</text>
</a>
</g>
</g>
<!-- X::IO::Link&#45;&gt;Exception -->
<g id="edge23" class="edge">
<title>X::IO::Link&#45;&gt;Exception</title>
<path fill="none" stroke="#000000" d="M994.29,-35.44C974.38,-72.13 943.07,-161.03 933.6,-206"/>
<polygon fill="#000000" stroke="#000000" points="930.14,-205.44 931.76,-215.91 937.02,-206.72 930.14,-205.44"/>
</g>
<!-- X::IO::Link&#45;&gt;Exception -->
<g id="edge24" class="edge">
<title>X::IO::Link&#45;&gt;Exception</title>
<path fill="none" stroke="#000000" d="M1001.66,-36.15C988.78,-73.42 958.15,-162 942.75,-206.51"/>
<polygon fill="#000000" stroke="#000000" points="939.41,-205.47 939.45,-216.06 946.03,-207.76 939.41,-205.47"/>
</g>
<!-- X::IO::Link&#45;&gt;Exception -->
<g id="edge25" class="edge">
<title>X::IO::Link&#45;&gt;Exception</title>
<path fill="none" stroke="#000000" d="M1009.42,-36.15C1003.6,-73.76 972.97,-163.63 951.43,-207.72"/>
<polygon fill="#000000" stroke="#000000" points="948.3,-206.16 946.85,-216.65 954.53,-209.35 948.3,-206.16"/>
</g>
<!-- X::IO::Link&#45;&gt;X::IO -->
<g id="edge49" class="edge">
<title>X::IO::Link&#45;&gt;X::IO</title>
<path fill="none" stroke="#6666ff" d="M977.17,-32.83C951.09,-44.68 913.6,-61.72 886.77,-73.92"/>
<polygon fill="#6666ff" stroke="#6666ff" points="885.06,-70.85 877.4,-78.18 887.95,-77.23 885.06,-70.85"/>
</g>
<!-- X::IO::Mkdir -->
<g id="node14" class="node">
<title>X::IO::Mkdir</title>
<g id="a_node14"><a xlink:href="/type/X::IO::Mkdir" xlink:title="X::IO::Mkdir">
<ellipse fill="none" stroke="#000000" cx="1137.59" cy="-18" rx="58.49" ry="18"/>
<text text-anchor="middle" x="1137.59" y="-14.3" font-family="FreeSans" font-size="14.00" fill="#000000">X::IO::Mkdir</text>
</a>
</g>
</g>
<!-- X::IO::Mkdir&#45;&gt;Exception -->
<g id="edge26" class="edge">
<title>X::IO::Mkdir&#45;&gt;Exception</title>
<path fill="none" stroke="#000000" d="M1114.68,-34.73C1068.24,-75.24 972.59,-180 972.59,-180 972.59,-180 957.23,-194.29 944.97,-208.03"/>
<polygon fill="#000000" stroke="#000000" points="942.06,-206.05 938.26,-215.94 947.4,-210.58 942.06,-206.05"/>
</g>
<!-- X::IO::Mkdir&#45;&gt;Exception -->
<g id="edge27" class="edge">
<title>X::IO::Mkdir&#45;&gt;Exception</title>
<path fill="none" stroke="#000000" d="M1122.42,-35.62C1084.86,-76.76 990.59,-180 990.59,-180 990.59,-180 973.53,-195.87 958.07,-210.24"/>
<polygon fill="#000000" stroke="#000000" points="955.64,-207.73 950.7,-217.1 960.4,-212.85 955.64,-207.73"/>
</g>
<!-- X::IO::Mkdir&#45;&gt;Exception -->
<g id="edge28" class="edge">
<title>X::IO::Mkdir&#45;&gt;Exception</title>
<path fill="none" stroke="#000000" d="M1130.96,-35.93C1102.4,-77.26 1008.59,-180 1008.59,-180 1008.59,-180 989.18,-198.05 969.43,-213.09"/>
<polygon fill="#000000" stroke="#000000" points="967.28,-210.33 961.3,-219.07 971.43,-215.96 967.28,-210.33"/>
</g>
<!-- X::IO::Mkdir&#45;&gt;X::IO -->
<g id="edge50" class="edge">
<title>X::IO::Mkdir&#45;&gt;X::IO</title>
<path fill="none" stroke="#6666ff" d="M1093.76,-29.96C1080.6,-33.25 1069.59,-36 1069.59,-36 1069.59,-36 953.65,-64.45 891.66,-79.66"/>
<polygon fill="#6666ff" stroke="#6666ff" points="890.71,-76.29 881.83,-82.07 892.38,-83.09 890.71,-76.29"/>
</g>
<!-- X::IO::Rmdir -->
<g id="node15" class="node">
<title>X::IO::Rmdir</title>
<g id="a_node15"><a xlink:href="/type/X::IO::Rmdir" xlink:title="X::IO::Rmdir">
<ellipse fill="none" stroke="#000000" cx="1273.59" cy="-18" rx="59.59" ry="18"/>
<text text-anchor="middle" x="1273.59" y="-14.3" font-family="FreeSans" font-size="14.00" fill="#000000">X::IO::Rmdir</text>
</a>
</g>
</g>
<!-- X::IO::Rmdir&#45;&gt;Exception -->
<g id="edge29" class="edge">
<title>X::IO::Rmdir&#45;&gt;Exception</title>
<path fill="none" stroke="#000000" d="M1243.56,-33.86C1175.73,-73.71 1020.59,-180 1020.59,-180 1020.59,-180 986.53,-197.19 960.53,-211.99"/>
<polygon fill="#000000" stroke="#000000" points="958.63,-209.05 951.74,-217.1 962.15,-215.1 958.63,-209.05"/>
</g>
<!-- X::IO::Rmdir&#45;&gt;Exception -->
<g id="edge30" class="edge">
<title>X::IO::Rmdir&#45;&gt;Exception</title>
<path fill="none" stroke="#000000" d="M1250.63,-34.73C1191.5,-75.24 1038.59,-180 1038.59,-180 1038.59,-180 1000.79,-199.08 970.55,-214.35"/>
<polygon fill="#000000" stroke="#000000" points="968.81,-211.31 961.46,-218.94 971.96,-217.55 968.81,-211.31"/>
</g>
<!-- X::IO::Rmdir&#45;&gt;Exception -->
<g id="edge31" class="edge">
<title>X::IO::Rmdir&#45;&gt;Exception</title>
<path fill="none" stroke="#000000" d="M1258.09,-35.62C1207.29,-76.76 1056.59,-180 1056.59,-180 1056.59,-180 1013.82,-201.59 978.19,-217.21"/>
<polygon fill="#000000" stroke="#000000" points="976.65,-214.07 968.85,-221.24 979.41,-220.5 976.65,-214.07"/>
</g>
<!-- X::IO::Rmdir&#45;&gt;X::IO -->
<g id="edge51" class="edge">
<title>X::IO::Rmdir&#45;&gt;X::IO</title>
<path fill="none" stroke="#6666ff" d="M1228.73,-30.05C1215.55,-33.3 1204.59,-36 1204.59,-36 1204.59,-36 985.61,-69.07 893.58,-82.96"/>
<polygon fill="#6666ff" stroke="#6666ff" points="892.89,-79.53 883.52,-84.48 893.93,-86.45 892.89,-79.53"/>
</g>
<!-- X::IO::Copy -->
<g id="node16" class="node">
<title>X::IO::Copy</title>
<g id="a_node16"><a xlink:href="/type/X::IO::Copy" xlink:title="X::IO::Copy">
<ellipse fill="none" stroke="#000000" cx="1407.59" cy="-18" rx="56.59" ry="18"/>
<text text-anchor="middle" x="1407.59" y="-14.3" font-family="FreeSans" font-size="14.00" fill="#000000">X::IO::Copy</text>
</a>
</g>
</g>
<!-- X::IO::Copy&#45;&gt;Exception -->
<g id="edge32" class="edge">
<title>X::IO::Copy&#45;&gt;Exception</title>
<path fill="none" stroke="#000000" d="M1373.62,-32.45C1288.87,-71.14 1078.59,-180 1078.59,-180 1078.59,-180 1015.73,-200.44 972.4,-215.93"/>
<polygon fill="#000000" stroke="#000000" points="971.15,-212.66 962.94,-219.35 973.53,-219.24 971.15,-212.66"/>
</g>
<!-- X::IO::Copy&#45;&gt;Exception -->
<g id="edge33" class="edge">
<title>X::IO::Copy&#45;&gt;Exception</title>
<path fill="none" stroke="#000000" d="M1379.17,-33.71C1302.4,-73.46 1096.59,-180 1096.59,-180 1096.59,-180 1027.23,-202.55 979,-218.24"/>
<polygon fill="#000000" stroke="#000000" points="977.79,-214.95 969.37,-221.37 979.96,-221.61 977.79,-214.95"/>
</g>
<!-- X::IO::Copy&#45;&gt;Exception -->
<g id="edge34" class="edge">
<title>X::IO::Copy&#45;&gt;Exception</title>
<path fill="none" stroke="#000000" d="M1385.76,-34.73C1316.95,-75.24 1114.59,-180 1114.59,-180 1114.59,-180 1037.93,-204.93 983.94,-220.59"/>
<polygon fill="#000000" stroke="#000000" points="982.8,-217.28 974.15,-223.4 984.73,-224.01 982.8,-217.28"/>
</g>
<!-- X::IO::Copy&#45;&gt;X::IO -->
<g id="edge52" class="edge">
<title>X::IO::Copy&#45;&gt;X::IO</title>
<path fill="none" stroke="#6666ff" d="M1365.33,-30.05C1352.91,-33.3 1342.59,-36 1342.59,-36 1342.59,-36 1011.52,-71.88 894.21,-84.6"/>
<polygon fill="#6666ff" stroke="#6666ff" points="893.75,-81.13 884.18,-85.68 894.5,-88.09 893.75,-81.13"/>
</g>
<!-- X::IO::Chmod -->
<g id="node17" class="node">
<title>X::IO::Chmod</title>
<g id="a_node17"><a xlink:href="/type/X::IO::Chmod" xlink:title="X::IO::Chmod">
<ellipse fill="none" stroke="#000000" cx="1546.59" cy="-18" rx="64.19" ry="18"/>
<text text-anchor="middle" x="1546.59" y="-14.3" font-family="FreeSans" font-size="14.00" fill="#000000">X::IO::Chmod</text>
</a>
</g>
</g>
<!-- X::IO::Chmod&#45;&gt;Exception -->
<g id="edge35" class="edge">
<title>X::IO::Chmod&#45;&gt;Exception</title>
<path fill="none" stroke="#000000" d="M1506.89,-32.31C1404.84,-70.89 1144.59,-180 1144.59,-180 1144.59,-180 1042.72,-203.58 980.21,-219.28"/>
<polygon fill="#000000" stroke="#000000" points="979,-215.98 970.16,-221.82 980.72,-222.76 979,-215.98"/>
</g>
<!-- X::IO::Chmod&#45;&gt;Exception -->
<g id="edge36" class="edge">
<title>X::IO::Chmod&#45;&gt;Exception</title>
<path fill="none" stroke="#000000" d="M1512.52,-33.29C1418.54,-72.69 1162.59,-180 1162.59,-180 1162.59,-180 1051.45,-205.72 984.03,-221.33"/>
<polygon fill="#000000" stroke="#000000" points="982.96,-217.98 974.01,-223.65 984.54,-224.8 982.96,-217.98"/>
</g>
<!-- X::IO::Chmod&#45;&gt;Exception -->
<g id="edge37" class="edge">
<title>X::IO::Chmod&#45;&gt;Exception</title>
<path fill="none" stroke="#000000" d="M1518.57,-34.29C1432.27,-74.48 1180.59,-180 1180.59,-180 1180.59,-180 1060.01,-207.91 986.97,-223.22"/>
<polygon fill="#000000" stroke="#000000" points="986.08,-219.83 977,-225.29 987.5,-226.69 986.08,-219.83"/>
</g>
<!-- X::IO::Chmod&#45;&gt;X::IO -->
<g id="edge53" class="edge">
<title>X::IO::Chmod&#45;&gt;X::IO</title>
<path fill="none" stroke="#6666ff" d="M1498.72,-30.15C1484.96,-33.35 1473.59,-36 1473.59,-36 1473.59,-36 1032.71,-73.69 894.51,-85.5"/>
<polygon fill="#6666ff" stroke="#6666ff" points="894.01,-82.03 884.34,-86.37 894.6,-89.01 894.01,-82.03"/>
</g>
<!-- X::IO::DoesNotExist -->
<g id="node18" class="node">
<title>X::IO::DoesNotExist</title>
<g id="a_node18"><a xlink:href="/type/X::IO::DoesNotExist" xlink:title="X::IO::DoesNotExist">
<ellipse fill="none" stroke="#000000" cx="1718.59" cy="-18" rx="89.88" ry="18"/>
<text text-anchor="middle" x="1718.59" y="-14.3" font-family="FreeSans" font-size="14.00" fill="#000000">X::IO::DoesNotExist</text>
</a>
</g>
</g>
<!-- X::IO::DoesNotExist&#45;&gt;Exception -->
<g id="edge38" class="edge">
<title>X::IO::DoesNotExist&#45;&gt;Exception</title>
<path fill="none" stroke="#000000" d="M1668.53,-33.01C1541.4,-72.18 1218.59,-180 1218.59,-180 1218.59,-180 1067.21,-206.48 984.8,-222.01"/>
<polygon fill="#000000" stroke="#000000" points="984.04,-218.59 974.87,-223.89 985.34,-225.47 984.04,-218.59"/>
</g>
<!-- X::IO::DoesNotExist&#45;&gt;Exception -->
<g id="edge39" class="edge">
<title>X::IO::DoesNotExist&#45;&gt;Exception</title>
<path fill="none" stroke="#000000" d="M1674.54,-33.71C1555.55,-73.46 1236.59,-180 1236.59,-180 1236.59,-180 1073.93,-208.45 986.96,-223.66"/>
<polygon fill="#000000" stroke="#000000" points="986.25,-220.24 977.01,-225.41 987.46,-227.13 986.25,-220.24"/>
</g>
<!-- X::IO::DoesNotExist&#45;&gt;Exception -->
<g id="edge40" class="edge">
<title>X::IO::DoesNotExist&#45;&gt;Exception</title>
<path fill="none" stroke="#000000" d="M1680.86,-34.44C1569.74,-74.73 1254.59,-180 1254.59,-180 1254.59,-180 1081.06,-210.35 988.84,-225.12"/>
<polygon fill="#000000" stroke="#000000" points="988.16,-221.69 978.83,-226.71 989.26,-228.6 988.16,-221.69"/>
</g>
<!-- X::IO::DoesNotExist&#45;&gt;X::IO -->
<g id="edge54" class="edge">
<title>X::IO::DoesNotExist&#45;&gt;X::IO</title>
<path fill="none" stroke="#6666ff" d="M1652.83,-30.29C1634.55,-33.43 1619.59,-36 1619.59,-36 1619.59,-36 1054.16,-75.12 894.89,-86.14"/>
<polygon fill="#6666ff" stroke="#6666ff" points="894.31,-82.67 884.57,-86.86 894.79,-89.66 894.31,-82.67"/>
</g>
</g>
</svg>
