<?xml version="1.0" encoding="UTF-8" standalone="no"?>
<!DOCTYPE svg PUBLIC "-//W3C//DTD SVG 1.1//EN"
 "http://www.w3.org/Graphics/SVG/1.1/DTD/svg11.dtd">
<!-- Generated by graphviz version 2.43.0 (0)
 -->
<!-- Title: raku&#45;type&#45;graph Pages: 1 -->
<svg width="1818pt" height="404pt"
 viewBox="0.00 0.00 1818.04 404.00" xmlns="http://www.w3.org/2000/svg" xmlns:xlink="http://www.w3.org/1999/xlink">
<g id="graph0" class="graph" transform="scale(1 1) rotate(0) translate(4 400)">
<title>raku&#45;type&#45;graph</title>
<polygon fill="#ffffff" stroke="transparent" points="-4,4 -4,-400 1814.04,-400 1814.04,4 -4,4"/>
<!-- X::OS -->
<g id="node1" class="node">
<title>X::OS</title>
<g id="a_node1"><a xlink:href="/type/X::OS" xlink:title="X::OS">
<ellipse fill="none" stroke="#6666ff" cx="870.54" cy="-162" rx="34.39" ry="18"/>
<text text-anchor="middle" x="870.54" y="-158.3" font-family="FreeSans" font-size="14.00" fill="#6666ff">X::OS</text>
</a>
</g>
</g>
<!-- Exception -->
<g id="node4" class="node">
<title>Exception</title>
<g id="a_node4"><a xlink:href="/type/Exception" xlink:title="Exception">
<ellipse fill="none" stroke="#000000" cx="987.54" cy="-234" rx="49.29" ry="18"/>
<text text-anchor="middle" x="987.54" y="-230.3" font-family="FreeSans" font-size="14.00" fill="#000000">Exception</text>
</a>
</g>
</g>
<!-- X::OS&#45;&gt;Exception -->
<g id="edge1" class="edge">
<title>X::OS&#45;&gt;Exception</title>
<path fill="none" stroke="#000000" d="M892.28,-176C909.58,-186.36 934.11,-201.03 953.94,-212.9"/>
<polygon fill="#000000" stroke="#000000" points="952.31,-216 962.68,-218.13 955.9,-209.99 952.31,-216"/>
</g>
<!-- Mu -->
<g id="node2" class="node">
<title>Mu</title>
<g id="a_node2"><a xlink:href="/type/Mu" xlink:title="Mu">
<ellipse fill="none" stroke="#000000" cx="987.54" cy="-378" rx="27" ry="18"/>
<text text-anchor="middle" x="987.54" y="-374.3" font-family="FreeSans" font-size="14.00" fill="#000000">Mu</text>
</a>
</g>
</g>
<!-- Any -->
<g id="node3" class="node">
<title>Any</title>
<g id="a_node3"><a xlink:href="/type/Any" xlink:title="Any">
<ellipse fill="none" stroke="#000000" cx="987.54" cy="-306" rx="27" ry="18"/>
<text text-anchor="middle" x="987.54" y="-302.3" font-family="FreeSans" font-size="14.00" fill="#000000">Any</text>
</a>
</g>
</g>
<!-- Any&#45;&gt;Mu -->
<g id="edge2" class="edge">
<title>Any&#45;&gt;Mu</title>
<path fill="none" stroke="#000000" d="M987.54,-324.3C987.54,-332.02 987.54,-341.29 987.54,-349.89"/>
<polygon fill="#000000" stroke="#000000" points="984.05,-349.9 987.54,-359.9 991.05,-349.9 984.05,-349.9"/>
</g>
<!-- Exception&#45;&gt;Any -->
<g id="edge3" class="edge">
<title>Exception&#45;&gt;Any</title>
<path fill="none" stroke="#000000" d="M987.54,-252.3C987.54,-260.02 987.54,-269.29 987.54,-277.89"/>
<polygon fill="#000000" stroke="#000000" points="984.05,-277.9 987.54,-287.9 991.05,-277.9 984.05,-277.9"/>
</g>
<!-- X::IO -->
<g id="node5" class="node">
<title>X::IO</title>
<g id="a_node5"><a xlink:href="/type/X::IO" xlink:title="X::IO">
<ellipse fill="none" stroke="#6666ff" cx="870.54" cy="-90" rx="31.4" ry="18"/>
<text text-anchor="middle" x="870.54" y="-86.3" font-family="FreeSans" font-size="14.00" fill="#6666ff">X::IO</text>
</a>
</g>
</g>
<!-- X::IO&#45;&gt;X::OS -->
<g id="edge39" class="edge">
<title>X::IO&#45;&gt;X::OS</title>
<path fill="none" stroke="#6666ff" d="M870.54,-108.3C870.54,-116.02 870.54,-125.29 870.54,-133.89"/>
<polygon fill="#6666ff" stroke="#6666ff" points="867.05,-133.9 870.54,-143.9 874.05,-133.9 867.05,-133.9"/>
</g>
<!-- X::IO&#45;&gt;Exception -->
<g id="edge4" class="edge">
<title>X::IO&#45;&gt;Exception</title>
<path fill="none" stroke="#000000" d="M857.88,-106.62C845.19,-122.25 827.54,-144 827.54,-144 827.54,-144 827.54,-180 827.54,-180 827.54,-180 894.97,-202.33 942.28,-218"/>
<polygon fill="#000000" stroke="#000000" points="941.44,-221.42 952.04,-221.24 943.64,-214.77 941.44,-221.42"/>
</g>
<!-- X::IO::Copy -->
<g id="node6" class="node">
<title>X::IO::Copy</title>
<g id="a_node6"><a xlink:href="/type/X::IO::Copy" xlink:title="X::IO::Copy">
<ellipse fill="none" stroke="#000000" cx="56.54" cy="-18" rx="56.59" ry="18"/>
<text text-anchor="middle" x="56.54" y="-14.3" font-family="FreeSans" font-size="14.00" fill="#000000">X::IO::Copy</text>
</a>
</g>
</g>
<!-- X::IO::Copy&#45;&gt;Exception -->
<g id="edge5" class="edge">
<title>X::IO::Copy&#45;&gt;Exception</title>
<path fill="none" stroke="#000000" d="M91.14,-32.45C197.18,-71.14 509.54,-180 509.54,-180 509.54,-180 803.16,-213.18 930.22,-227.03"/>
<polygon fill="#000000" stroke="#000000" points="930.21,-230.55 940.53,-228.16 930.96,-223.6 930.21,-230.55"/>
</g>
<!-- X::IO::Copy&#45;&gt;Exception -->
<g id="edge6" class="edge">
<title>X::IO::Copy&#45;&gt;Exception</title>
<path fill="none" stroke="#000000" d="M95.48,-31.23C208.46,-68.81 527.54,-180 527.54,-180 527.54,-180 808.61,-211.76 931.4,-226.11"/>
<polygon fill="#000000" stroke="#000000" points="931.03,-229.59 941.37,-227.28 931.85,-222.64 931.03,-229.59"/>
</g>
<!-- X::IO::Copy&#45;&gt;X::IO -->
<g id="edge40" class="edge">
<title>X::IO::Copy&#45;&gt;X::IO</title>
<path fill="none" stroke="#6666ff" d="M99.09,-29.96C111.86,-33.25 122.54,-36 122.54,-36 122.54,-36 673.47,-75.04 829.7,-86.11"/>
<polygon fill="#6666ff" stroke="#6666ff" points="829.61,-89.61 839.83,-86.82 830.1,-82.63 829.61,-89.61"/>
</g>
<!-- X::IO::Chmod -->
<g id="node7" class="node">
<title>X::IO::Chmod</title>
<g id="a_node7"><a xlink:href="/type/X::IO::Chmod" xlink:title="X::IO::Chmod">
<ellipse fill="none" stroke="#000000" cx="195.54" cy="-18" rx="64.19" ry="18"/>
<text text-anchor="middle" x="195.54" y="-14.3" font-family="FreeSans" font-size="14.00" fill="#000000">X::IO::Chmod</text>
</a>
</g>
</g>
<!-- X::IO::Chmod&#45;&gt;Exception -->
<g id="edge7" class="edge">
<title>X::IO::Chmod&#45;&gt;Exception</title>
<path fill="none" stroke="#000000" d="M228.71,-33.43C325.94,-72.95 602.54,-180 602.54,-180 602.54,-180 824.97,-211.35 931.77,-225.83"/>
<polygon fill="#000000" stroke="#000000" points="931.36,-229.31 941.74,-227.18 932.29,-222.37 931.36,-229.31"/>
</g>
<!-- X::IO::Chmod&#45;&gt;Exception -->
<g id="edge8" class="edge">
<title>X::IO::Chmod&#45;&gt;Exception</title>
<path fill="none" stroke="#000000" d="M234.29,-32.45C339.28,-71.14 620.54,-180 620.54,-180 620.54,-180 830.25,-209.56 932.69,-224.53"/>
<polygon fill="#000000" stroke="#000000" points="932.45,-228.03 942.85,-226.02 933.47,-221.1 932.45,-228.03"/>
</g>
<!-- X::IO::Chmod&#45;&gt;X::IO -->
<g id="edge41" class="edge">
<title>X::IO::Chmod&#45;&gt;X::IO</title>
<path fill="none" stroke="#6666ff" d="M243.42,-30.15C257.18,-33.35 268.54,-36 268.54,-36 268.54,-36 694.69,-73.52 829.9,-85.42"/>
<polygon fill="#6666ff" stroke="#6666ff" points="829.6,-88.91 839.86,-86.3 830.21,-81.94 829.6,-88.91"/>
</g>
<!-- X::IO::Rmdir -->
<g id="node8" class="node">
<title>X::IO::Rmdir</title>
<g id="a_node8"><a xlink:href="/type/X::IO::Rmdir" xlink:title="X::IO::Rmdir">
<ellipse fill="none" stroke="#000000" cx="337.54" cy="-18" rx="59.59" ry="18"/>
<text text-anchor="middle" x="337.54" y="-14.3" font-family="FreeSans" font-size="14.00" fill="#000000">X::IO::Rmdir</text>
</a>
</g>
</g>
<!-- X::IO::Rmdir&#45;&gt;Exception -->
<g id="edge9" class="edge">
<title>X::IO::Rmdir&#45;&gt;Exception</title>
<path fill="none" stroke="#000000" d="M366.04,-33.86C448.85,-73.71 682.54,-180 682.54,-180 682.54,-180 845.14,-209.11 932.98,-224.19"/>
<polygon fill="#000000" stroke="#000000" points="932.6,-227.67 943.05,-225.91 933.78,-220.77 932.6,-227.67"/>
</g>
<!-- X::IO::Rmdir&#45;&gt;Exception -->
<g id="edge10" class="edge">
<title>X::IO::Rmdir&#45;&gt;Exception</title>
<path fill="none" stroke="#000000" d="M372.08,-32.87C462.9,-71.92 700.54,-180 700.54,-180 700.54,-180 852.38,-207.19 935.26,-222.62"/>
<polygon fill="#000000" stroke="#000000" points="934.78,-226.09 945.25,-224.48 936.06,-219.21 934.78,-226.09"/>
</g>
<!-- X::IO::Rmdir&#45;&gt;X::IO -->
<g id="edge42" class="edge">
<title>X::IO::Rmdir&#45;&gt;X::IO</title>
<path fill="none" stroke="#6666ff" d="M382.41,-30.05C395.59,-33.3 406.54,-36 406.54,-36 406.54,-36 717.18,-71.48 830.12,-84.38"/>
<polygon fill="#6666ff" stroke="#6666ff" points="829.77,-87.86 840.1,-85.52 830.56,-80.91 829.77,-87.86"/>
</g>
<!-- X::IO::Link -->
<g id="node9" class="node">
<title>X::IO::Link</title>
<g id="a_node9"><a xlink:href="/type/X::IO::Link" xlink:title="X::IO::Link">
<ellipse fill="none" stroke="#000000" cx="468.54" cy="-18" rx="53.09" ry="18"/>
<text text-anchor="middle" x="468.54" y="-14.3" font-family="FreeSans" font-size="14.00" fill="#000000">X::IO::Link</text>
</a>
</g>
</g>
<!-- X::IO::Link&#45;&gt;Exception -->
<g id="edge11" class="edge">
<title>X::IO::Link&#45;&gt;Exception</title>
<path fill="none" stroke="#000000" d="M492.01,-34.44C559.59,-74.73 748.54,-180 748.54,-180 748.54,-180 864.85,-206.8 935.29,-222.29"/>
<polygon fill="#000000" stroke="#000000" points="934.81,-225.76 945.33,-224.48 936.31,-218.93 934.81,-225.76"/>
</g>
<!-- X::IO::Link&#45;&gt;Exception -->
<g id="edge12" class="edge">
<title>X::IO::Link&#45;&gt;Exception</title>
<path fill="none" stroke="#000000" d="M498.02,-33.15C573.46,-72.43 766.54,-180 766.54,-180 766.54,-180 873.6,-204.67 938.78,-220.35"/>
<polygon fill="#000000" stroke="#000000" points="938.31,-223.84 948.86,-222.78 939.96,-217.03 938.31,-223.84"/>
</g>
<!-- X::IO::Link&#45;&gt;X::IO -->
<g id="edge43" class="edge">
<title>X::IO::Link&#45;&gt;X::IO</title>
<path fill="none" stroke="#6666ff" d="M508.51,-29.96C520.51,-33.25 530.54,-36 530.54,-36 530.54,-36 740.73,-68.76 830.58,-82.77"/>
<polygon fill="#6666ff" stroke="#6666ff" points="830.25,-86.26 840.67,-84.34 831.33,-79.34 830.25,-86.26"/>
</g>
<!-- X::IO::Rename -->
<g id="node10" class="node">
<title>X::IO::Rename</title>
<g id="a_node10"><a xlink:href="/type/X::IO::Rename" xlink:title="X::IO::Rename">
<ellipse fill="none" stroke="#000000" cx="609.54" cy="-18" rx="69.59" ry="18"/>
<text text-anchor="middle" x="609.54" y="-14.3" font-family="FreeSans" font-size="14.00" fill="#000000">X::IO::Rename</text>
</a>
</g>
</g>
<!-- X::IO::Rename&#45;&gt;Exception -->
<g id="edge13" class="edge">
<title>X::IO::Rename&#45;&gt;Exception</title>
<path fill="none" stroke="#000000" d="M625.09,-35.62C669.78,-76.76 793.54,-180 793.54,-180 793.54,-180 880.35,-204.87 937.93,-220.54"/>
<polygon fill="#000000" stroke="#000000" points="937.04,-223.92 947.61,-223.16 938.87,-217.16 937.04,-223.92"/>
</g>
<!-- X::IO::Rename&#45;&gt;Exception -->
<g id="edge14" class="edge">
<title>X::IO::Rename&#45;&gt;Exception</title>
<path fill="none" stroke="#000000" d="M633.07,-35.03C686.57,-75.75 811.54,-180 811.54,-180 811.54,-180 890.48,-202.61 942.72,-218.3"/>
<polygon fill="#000000" stroke="#000000" points="941.88,-221.7 952.46,-221.24 943.9,-215 941.88,-221.7"/>
</g>
<!-- X::IO::Rename&#45;&gt;X::IO -->
<g id="edge44" class="edge">
<title>X::IO::Rename&#45;&gt;X::IO</title>
<path fill="none" stroke="#6666ff" d="M655.91,-31.43C706.4,-44.98 786.19,-66.38 832.95,-78.92"/>
<polygon fill="#6666ff" stroke="#6666ff" points="832.11,-82.32 842.68,-81.53 833.93,-75.56 832.11,-82.32"/>
</g>
<!-- X::IO::Dir -->
<g id="node11" class="node">
<title>X::IO::Dir</title>
<g id="a_node11"><a xlink:href="/type/X::IO::Dir" xlink:title="X::IO::Dir">
<ellipse fill="none" stroke="#000000" cx="744.54" cy="-18" rx="47.39" ry="18"/>
<text text-anchor="middle" x="744.54" y="-14.3" font-family="FreeSans" font-size="14.00" fill="#000000">X::IO::Dir</text>
</a>
</g>
</g>
<!-- X::IO::Dir&#45;&gt;Exception -->
<g id="edge15" class="edge">
<title>X::IO::Dir&#45;&gt;Exception</title>
<path fill="none" stroke="#000000" d="M744.11,-36.23C755.38,-77.76 805.54,-180 805.54,-180 805.54,-180 883.1,-205.06 937.4,-220.72"/>
<polygon fill="#000000" stroke="#000000" points="936.66,-224.15 947.24,-223.52 938.58,-217.42 936.66,-224.15"/>
</g>
<!-- X::IO::Dir&#45;&gt;Exception -->
<g id="edge16" class="edge">
<title>X::IO::Dir&#45;&gt;Exception</title>
<path fill="none" stroke="#000000" d="M752.85,-35.93C773.13,-77.26 823.54,-180 823.54,-180 823.54,-180 893.72,-202.68 942.26,-218.37"/>
<polygon fill="#000000" stroke="#000000" points="941.37,-221.76 951.96,-221.5 943.52,-215.09 941.37,-221.76"/>
</g>
<!-- X::IO::Dir&#45;&gt;Exception -->
<g id="edge17" class="edge">
<title>X::IO::Dir&#45;&gt;Exception</title>
<path fill="none" stroke="#000000" d="M761.03,-35.03C790.39,-75.75 841.54,-180 841.54,-180 841.54,-180 904.79,-200.44 948.42,-215.93"/>
<polygon fill="#000000" stroke="#000000" points="947.35,-219.27 957.95,-219.35 949.72,-212.68 947.35,-219.27"/>
</g>
<!-- X::IO::Dir&#45;&gt;X::IO -->
<g id="edge45" class="edge">
<title>X::IO::Dir&#45;&gt;X::IO</title>
<path fill="none" stroke="#6666ff" d="M770.35,-33.33C790.42,-44.48 818.33,-59.99 839.6,-71.81"/>
<polygon fill="#6666ff" stroke="#6666ff" points="838.12,-74.99 848.56,-76.79 841.52,-68.87 838.12,-74.99"/>
</g>
<!-- X::IO::Symlink -->
<g id="node12" class="node">
<title>X::IO::Symlink</title>
<g id="a_node12"><a xlink:href="/type/X::IO::Symlink" xlink:title="X::IO::Symlink">
<ellipse fill="none" stroke="#000000" cx="877.54" cy="-18" rx="67.69" ry="18"/>
<text text-anchor="middle" x="877.54" y="-14.3" font-family="FreeSans" font-size="14.00" fill="#000000">X::IO::Symlink</text>
</a>
</g>
</g>
<!-- X::IO::Symlink&#45;&gt;Exception -->
<g id="edge18" class="edge">
<title>X::IO::Symlink&#45;&gt;Exception</title>
<path fill="none" stroke="#000000" d="M874.48,-36.06C879.81,-51.55 892.54,-72 892.54,-72 892.54,-72 936.37,-163.63 965.62,-208.64"/>
<polygon fill="#000000" stroke="#000000" points="962.76,-210.65 971.26,-216.97 968.56,-206.73 962.76,-210.65"/>
</g>
<!-- X::IO::Symlink&#45;&gt;Exception -->
<g id="edge19" class="edge">
<title>X::IO::Symlink&#45;&gt;Exception</title>
<path fill="none" stroke="#000000" d="M888.17,-36.06C897.81,-51.55 910.54,-72 910.54,-72 910.54,-72 953.19,-161.17 975.01,-206.79"/>
<polygon fill="#000000" stroke="#000000" points="971.98,-208.56 979.45,-216.07 978.29,-205.54 971.98,-208.56"/>
</g>
<!-- X::IO::Symlink&#45;&gt;Exception -->
<g id="edge20" class="edge">
<title>X::IO::Symlink&#45;&gt;Exception</title>
<path fill="none" stroke="#000000" d="M900.8,-34.9C915.17,-50.51 928.54,-72 928.54,-72 928.54,-72 970.81,-160.36 985.39,-206.17"/>
<polygon fill="#000000" stroke="#000000" points="982.03,-207.15 988.2,-215.77 988.75,-205.19 982.03,-207.15"/>
</g>
<!-- X::IO::Symlink&#45;&gt;X::IO -->
<g id="edge46" class="edge">
<title>X::IO::Symlink&#45;&gt;X::IO</title>
<path fill="none" stroke="#6666ff" d="M875.81,-36.3C875.04,-44.02 874.12,-53.29 873.26,-61.89"/>
<polygon fill="#6666ff" stroke="#6666ff" points="869.77,-61.6 872.26,-71.9 876.73,-62.29 869.77,-61.6"/>
</g>
<!-- X::IO::Unlink -->
<g id="node13" class="node">
<title>X::IO::Unlink</title>
<g id="a_node13"><a xlink:href="/type/X::IO::Unlink" xlink:title="X::IO::Unlink">
<ellipse fill="none" stroke="#000000" cx="1024.54" cy="-18" rx="61.19" ry="18"/>
<text text-anchor="middle" x="1024.54" y="-14.3" font-family="FreeSans" font-size="14.00" fill="#000000">X::IO::Unlink</text>
</a>
</g>
</g>
<!-- X::IO::Unlink&#45;&gt;Exception -->
<g id="edge21" class="edge">
<title>X::IO::Unlink&#45;&gt;Exception</title>
<path fill="none" stroke="#000000" d="M1013.96,-35.79C1000.43,-72.66 984.61,-160.96 982.89,-205.83"/>
<polygon fill="#000000" stroke="#000000" points="979.39,-205.95 982.76,-215.99 986.39,-206.04 979.39,-205.95"/>
</g>
<!-- X::IO::Unlink&#45;&gt;Exception -->
<g id="edge22" class="edge">
<title>X::IO::Unlink&#45;&gt;Exception</title>
<path fill="none" stroke="#000000" d="M1021.58,-36.15C1015.17,-73.25 999.96,-161.19 992.23,-205.9"/>
<polygon fill="#000000" stroke="#000000" points="988.78,-205.32 990.52,-215.77 995.68,-206.51 988.78,-205.32"/>
</g>
<!-- X::IO::Unlink&#45;&gt;Exception -->
<g id="edge23" class="edge">
<title>X::IO::Unlink&#45;&gt;Exception</title>
<path fill="none" stroke="#000000" d="M1029.33,-36.15C1030.01,-73.51 1015.12,-162.44 1001.29,-206.84"/>
<polygon fill="#000000" stroke="#000000" points="997.95,-205.77 998.08,-216.36 1004.59,-208 997.95,-205.77"/>
</g>
<!-- X::IO::Unlink&#45;&gt;X::IO -->
<g id="edge47" class="edge">
<title>X::IO::Unlink&#45;&gt;X::IO</title>
<path fill="none" stroke="#6666ff" d="M992.64,-33.5C966.59,-45.35 929.9,-62.02 903.56,-73.99"/>
<polygon fill="#6666ff" stroke="#6666ff" points="902.01,-70.85 894.36,-78.18 904.91,-77.22 902.01,-70.85"/>
</g>
<!-- X::IO::DoesNotExist -->
<g id="node14" class="node">
<title>X::IO::DoesNotExist</title>
<g id="a_node14"><a xlink:href="/type/X::IO::DoesNotExist" xlink:title="X::IO::DoesNotExist">
<ellipse fill="none" stroke="#000000" cx="1193.54" cy="-18" rx="89.88" ry="18"/>
<text text-anchor="middle" x="1193.54" y="-14.3" font-family="FreeSans" font-size="14.00" fill="#000000">X::IO::DoesNotExist</text>
</a>
</g>
</g>
<!-- X::IO::DoesNotExist&#45;&gt;Exception -->
<g id="edge24" class="edge">
<title>X::IO::DoesNotExist&#45;&gt;Exception</title>
<path fill="none" stroke="#000000" d="M1170.11,-35.44C1126.82,-72.77 1038.42,-164.12 1002.32,-208.29"/>
<polygon fill="#000000" stroke="#000000" points="999.5,-206.21 996.02,-216.21 1004.98,-210.56 999.5,-206.21"/>
</g>
<!-- X::IO::DoesNotExist&#45;&gt;Exception -->
<g id="edge25" class="edge">
<title>X::IO::DoesNotExist&#45;&gt;Exception</title>
<path fill="none" stroke="#000000" d="M1177.38,-35.79C1140.87,-73.72 1051.98,-166.07 1010.09,-209.58"/>
<polygon fill="#000000" stroke="#000000" points="1007.48,-207.24 1003.07,-216.87 1012.53,-212.09 1007.48,-207.24"/>
</g>
<!-- X::IO::DoesNotExist&#45;&gt;Exception -->
<g id="edge26" class="edge">
<title>X::IO::DoesNotExist&#45;&gt;Exception</title>
<path fill="none" stroke="#000000" d="M1184.79,-36.15C1155,-74.77 1065.06,-168.48 1017.14,-211.16"/>
<polygon fill="#000000" stroke="#000000" points="1014.77,-208.59 1009.54,-217.8 1019.38,-213.86 1014.77,-208.59"/>
</g>
<!-- X::IO::DoesNotExist&#45;&gt;X::IO -->
<g id="edge48" class="edge">
<title>X::IO::DoesNotExist&#45;&gt;X::IO</title>
<path fill="none" stroke="#6666ff" d="M1135.05,-31.68C1069.5,-45.88 965.1,-68.51 909.08,-80.65"/>
<polygon fill="#6666ff" stroke="#6666ff" points="908.23,-77.25 899.2,-82.79 909.71,-84.09 908.23,-77.25"/>
</g>
<!-- X::IO::Move -->
<g id="node15" class="node">
<title>X::IO::Move</title>
<g id="a_node15"><a xlink:href="/type/X::IO::Move" xlink:title="X::IO::Move">
<ellipse fill="none" stroke="#000000" cx="1359.54" cy="-18" rx="57.69" ry="18"/>
<text text-anchor="middle" x="1359.54" y="-14.3" font-family="FreeSans" font-size="14.00" fill="#000000">X::IO::Move</text>
</a>
</g>
</g>
<!-- X::IO::Move&#45;&gt;Exception -->
<g id="edge27" class="edge">
<title>X::IO::Move&#45;&gt;Exception</title>
<path fill="none" stroke="#000000" d="M1327.56,-33.15C1251.6,-72.43 1070.54,-180 1070.54,-180 1070.54,-180 1038.46,-196.84 1013.68,-211.53"/>
<polygon fill="#000000" stroke="#000000" points="1011.7,-208.64 1004.96,-216.81 1015.33,-214.63 1011.7,-208.64"/>
</g>
<!-- X::IO::Move&#45;&gt;Exception -->
<g id="edge28" class="edge">
<title>X::IO::Move&#45;&gt;Exception</title>
<path fill="none" stroke="#000000" d="M1333.56,-34.44C1265.73,-74.73 1088.54,-180 1088.54,-180 1088.54,-180 1052.71,-198.81 1023.73,-214.01"/>
<polygon fill="#000000" stroke="#000000" points="1021.84,-211.05 1014.61,-218.8 1025.09,-217.25 1021.84,-211.05"/>
</g>
<!-- X::IO::Move&#45;&gt;Exception -->
<g id="edge29" class="edge">
<title>X::IO::Move&#45;&gt;Exception</title>
<path fill="none" stroke="#000000" d="M1340.76,-35.32C1281.17,-76.25 1106.54,-180 1106.54,-180 1106.54,-180 1065.98,-201.29 1031.68,-216.88"/>
<polygon fill="#000000" stroke="#000000" points="1029.92,-213.83 1022.21,-221.11 1032.77,-220.23 1029.92,-213.83"/>
</g>
<!-- X::IO::Move&#45;&gt;X::IO -->
<g id="edge49" class="edge">
<title>X::IO::Move&#45;&gt;X::IO</title>
<path fill="none" stroke="#6666ff" d="M1315.98,-30.05C1303.18,-33.3 1292.54,-36 1292.54,-36 1292.54,-36 1016.36,-70.69 910.85,-83.94"/>
<polygon fill="#6666ff" stroke="#6666ff" points="910.38,-80.47 900.89,-85.19 911.25,-87.41 910.38,-80.47"/>
</g>
<!-- X::IO::Chdir -->
<g id="node16" class="node">
<title>X::IO::Chdir</title>
<g id="a_node16"><a xlink:href="/type/X::IO::Chdir" xlink:title="X::IO::Chdir">
<ellipse fill="none" stroke="#000000" cx="1492.54" cy="-18" rx="57.39" ry="18"/>
<text text-anchor="middle" x="1492.54" y="-14.3" font-family="FreeSans" font-size="14.00" fill="#000000">X::IO::Chdir</text>
</a>
</g>
</g>
<!-- X::IO::Chdir&#45;&gt;Exception -->
<g id="edge30" class="edge">
<title>X::IO::Chdir&#45;&gt;Exception</title>
<path fill="none" stroke="#000000" d="M1456.64,-32.18C1364.88,-70.63 1132.54,-180 1132.54,-180 1132.54,-180 1069.69,-200.44 1026.35,-215.93"/>
<polygon fill="#000000" stroke="#000000" points="1025.1,-212.66 1016.89,-219.35 1027.48,-219.24 1025.1,-212.66"/>
</g>
<!-- X::IO::Chdir&#45;&gt;Exception -->
<g id="edge31" class="edge">
<title>X::IO::Chdir&#45;&gt;Exception</title>
<path fill="none" stroke="#000000" d="M1462.19,-33.29C1378.49,-72.69 1150.54,-180 1150.54,-180 1150.54,-180 1081.18,-202.55 1032.95,-218.24"/>
<polygon fill="#000000" stroke="#000000" points="1031.74,-214.95 1023.32,-221.37 1033.91,-221.61 1031.74,-214.95"/>
</g>
<!-- X::IO::Chdir&#45;&gt;Exception -->
<g id="edge32" class="edge">
<title>X::IO::Chdir&#45;&gt;Exception</title>
<path fill="none" stroke="#000000" d="M1468.24,-34.44C1392.15,-74.73 1168.54,-180 1168.54,-180 1168.54,-180 1091.88,-204.93 1037.9,-220.59"/>
<polygon fill="#000000" stroke="#000000" points="1036.75,-217.28 1028.1,-223.4 1038.68,-224.01 1036.75,-217.28"/>
</g>
<!-- X::IO::Chdir&#45;&gt;X::IO -->
<g id="edge50" class="edge">
<title>X::IO::Chdir&#45;&gt;X::IO</title>
<path fill="none" stroke="#6666ff" d="M1449.63,-30.05C1437.02,-33.3 1426.54,-36 1426.54,-36 1426.54,-36 1039.84,-72.86 911.43,-85.1"/>
<polygon fill="#6666ff" stroke="#6666ff" points="910.85,-81.64 901.23,-86.07 911.52,-88.61 910.85,-81.64"/>
</g>
<!-- X::IO::Cwd -->
<g id="node17" class="node">
<title>X::IO::Cwd</title>
<g id="a_node17"><a xlink:href="/type/X::IO::Cwd" xlink:title="X::IO::Cwd">
<ellipse fill="none" stroke="#000000" cx="1621.54" cy="-18" rx="53.89" ry="18"/>
<text text-anchor="middle" x="1621.54" y="-14.3" font-family="FreeSans" font-size="14.00" fill="#000000">X::IO::Cwd</text>
</a>
</g>
</g>
<!-- X::IO::Cwd&#45;&gt;Exception -->
<g id="edge33" class="edge">
<title>X::IO::Cwd&#45;&gt;Exception</title>
<path fill="none" stroke="#000000" d="M1584.06,-30.97C1480.49,-68.28 1201.54,-180 1201.54,-180 1201.54,-180 1097.63,-203.74 1034.28,-219.44"/>
<polygon fill="#000000" stroke="#000000" points="1033.34,-216.07 1024.49,-221.89 1035.04,-222.86 1033.34,-216.07"/>
</g>
<!-- X::IO::Cwd&#45;&gt;Exception -->
<g id="edge34" class="edge">
<title>X::IO::Cwd&#45;&gt;Exception</title>
<path fill="none" stroke="#000000" d="M1588.31,-32.31C1491.99,-70.89 1219.54,-180 1219.54,-180 1219.54,-180 1106.65,-205.79 1038.36,-221.39"/>
<polygon fill="#000000" stroke="#000000" points="1037.19,-218.07 1028.22,-223.71 1038.75,-224.89 1037.19,-218.07"/>
</g>
<!-- X::IO::Cwd&#45;&gt;Exception -->
<g id="edge35" class="edge">
<title>X::IO::Cwd&#45;&gt;Exception</title>
<path fill="none" stroke="#000000" d="M1593.76,-33.43C1504.85,-72.95 1237.54,-180 1237.54,-180 1237.54,-180 1115.07,-207.98 1041.19,-223.28"/>
<polygon fill="#000000" stroke="#000000" points="1040.2,-219.91 1031.11,-225.35 1041.61,-226.77 1040.2,-219.91"/>
</g>
<!-- X::IO::Cwd&#45;&gt;X::IO -->
<g id="edge51" class="edge">
<title>X::IO::Cwd&#45;&gt;X::IO</title>
<path fill="none" stroke="#6666ff" d="M1580.93,-29.96C1568.74,-33.25 1558.54,-36 1558.54,-36 1558.54,-36 1059.56,-74.44 911.49,-85.85"/>
<polygon fill="#6666ff" stroke="#6666ff" points="911.15,-82.36 901.44,-86.62 911.68,-89.34 911.15,-82.36"/>
</g>
<!-- X::IO::Mkdir -->
<g id="node18" class="node">
<title>X::IO::Mkdir</title>
<g id="a_node18"><a xlink:href="/type/X::IO::Mkdir" xlink:title="X::IO::Mkdir">
<ellipse fill="none" stroke="#000000" cx="1751.54" cy="-18" rx="58.49" ry="18"/>
<text text-anchor="middle" x="1751.54" y="-14.3" font-family="FreeSans" font-size="14.00" fill="#000000">X::IO::Mkdir</text>
</a>
</g>
</g>
<!-- X::IO::Mkdir&#45;&gt;Exception -->
<g id="edge36" class="edge">
<title>X::IO::Mkdir&#45;&gt;Exception</title>
<path fill="none" stroke="#000000" d="M1710.46,-30.84C1594.71,-68.02 1277.54,-180 1277.54,-180 1277.54,-180 1122.53,-206.68 1038.87,-222.18"/>
<polygon fill="#000000" stroke="#000000" points="1038.23,-218.74 1029.04,-224.01 1039.51,-225.62 1038.23,-218.74"/>
</g>
<!-- X::IO::Mkdir&#45;&gt;Exception -->
<g id="edge37" class="edge">
<title>X::IO::Mkdir&#45;&gt;Exception</title>
<path fill="none" stroke="#000000" d="M1714.61,-32.04C1606.06,-70.37 1295.54,-180 1295.54,-180 1295.54,-180 1129.77,-208.53 1041.46,-223.72"/>
<polygon fill="#000000" stroke="#000000" points="1040.61,-220.32 1031.35,-225.46 1041.8,-227.22 1040.61,-220.32"/>
</g>
<!-- X::IO::Mkdir&#45;&gt;Exception -->
<g id="edge38" class="edge">
<title>X::IO::Mkdir&#45;&gt;Exception</title>
<path fill="none" stroke="#000000" d="M1719.65,-33.15C1618.21,-72.43 1313.54,-180 1313.54,-180 1313.54,-180 1136.71,-210.43 1043.19,-225.17"/>
<polygon fill="#000000" stroke="#000000" points="1042.38,-221.76 1033.04,-226.76 1043.46,-228.68 1042.38,-221.76"/>
</g>
<!-- X::IO::Mkdir&#45;&gt;X::IO -->
<g id="edge52" class="edge">
<title>X::IO::Mkdir&#45;&gt;X::IO</title>
<path fill="none" stroke="#6666ff" d="M1707.98,-30.05C1695.18,-33.3 1684.54,-36 1684.54,-36 1684.54,-36 1077.11,-75.55 911.71,-86.32"/>
<polygon fill="#6666ff" stroke="#6666ff" points="911.21,-82.84 901.46,-86.99 911.67,-89.83 911.21,-82.84"/>
</g>
</g>
</svg>
