<?xml version="1.0" encoding="UTF-8" standalone="no"?>
<!DOCTYPE svg PUBLIC "-//W3C//DTD SVG 1.1//EN"
 "http://www.w3.org/Graphics/SVG/1.1/DTD/svg11.dtd">
<!-- Generated by graphviz version 2.43.0 (0)
 -->
<!-- Title: raku&#45;type&#45;graph Pages: 1 -->
<svg width="628pt" height="404pt"
 viewBox="0.00 0.00 627.92 404.00" xmlns="http://www.w3.org/2000/svg" xmlns:xlink="http://www.w3.org/1999/xlink">
<g id="graph0" class="graph" transform="scale(1 1) rotate(0) translate(4 400)">
<title>raku&#45;type&#45;graph</title>
<polygon fill="#ffffff" stroke="transparent" points="-4,4 -4,-400 623.92,-400 623.92,4 -4,4"/>
<!-- X::Pod -->
<g id="node1" class="node">
<title>X::Pod</title>
<g id="a_node1"><a xlink:href="/type/X::Pod" xlink:title="X::Pod">
<ellipse fill="none" stroke="#6666ff" cx="262.69" cy="-90" rx="37.09" ry="18"/>
<text text-anchor="middle" x="262.69" y="-86.3" font-family="FreeSans" font-size="14.00" fill="#6666ff">X::Pod</text>
</a>
</g>
</g>
<!-- Mu -->
<g id="node2" class="node">
<title>Mu</title>
<g id="a_node2"><a xlink:href="/type/Mu" xlink:title="Mu">
<ellipse fill="none" stroke="#000000" cx="358.69" cy="-378" rx="27" ry="18"/>
<text text-anchor="middle" x="358.69" y="-374.3" font-family="FreeSans" font-size="14.00" fill="#000000">Mu</text>
</a>
</g>
</g>
<!-- Any -->
<g id="node3" class="node">
<title>Any</title>
<g id="a_node3"><a xlink:href="/type/Any" xlink:title="Any">
<ellipse fill="none" stroke="#000000" cx="358.69" cy="-306" rx="27" ry="18"/>
<text text-anchor="middle" x="358.69" y="-302.3" font-family="FreeSans" font-size="14.00" fill="#000000">Any</text>
</a>
</g>
</g>
<!-- Any&#45;&gt;Mu -->
<g id="edge1" class="edge">
<title>Any&#45;&gt;Mu</title>
<path fill="none" stroke="#000000" d="M358.69,-324.3C358.69,-332.02 358.69,-341.29 358.69,-349.89"/>
<polygon fill="#000000" stroke="#000000" points="355.19,-349.9 358.69,-359.9 362.19,-349.9 355.19,-349.9"/>
</g>
<!-- Exception -->
<g id="node4" class="node">
<title>Exception</title>
<g id="a_node4"><a xlink:href="/type/Exception" xlink:title="Exception">
<ellipse fill="none" stroke="#000000" cx="358.69" cy="-234" rx="49.29" ry="18"/>
<text text-anchor="middle" x="358.69" y="-230.3" font-family="FreeSans" font-size="14.00" fill="#000000">Exception</text>
</a>
</g>
</g>
<!-- Exception&#45;&gt;Any -->
<g id="edge2" class="edge">
<title>Exception&#45;&gt;Any</title>
<path fill="none" stroke="#000000" d="M358.69,-252.3C358.69,-260.02 358.69,-269.29 358.69,-277.89"/>
<polygon fill="#000000" stroke="#000000" points="355.19,-277.9 358.69,-287.9 362.19,-277.9 355.19,-277.9"/>
</g>
<!-- X::Comp -->
<g id="node5" class="node">
<title>X::Comp</title>
<g id="a_node5"><a xlink:href="/type/X::Comp" xlink:title="X::Comp">
<ellipse fill="none" stroke="#6666ff" cx="322.69" cy="-162" rx="44.69" ry="18"/>
<text text-anchor="middle" x="322.69" y="-158.3" font-family="FreeSans" font-size="14.00" fill="#6666ff">X::Comp</text>
</a>
</g>
</g>
<!-- X::Comp&#45;&gt;Exception -->
<g id="edge3" class="edge">
<title>X::Comp&#45;&gt;Exception</title>
<path fill="none" stroke="#000000" d="M331.4,-179.95C335.6,-188.11 340.73,-198.09 345.41,-207.18"/>
<polygon fill="#000000" stroke="#000000" points="342.37,-208.92 350.05,-216.21 348.59,-205.72 342.37,-208.92"/>
</g>
<!-- X::Syntax -->
<g id="node6" class="node">
<title>X::Syntax</title>
<g id="a_node6"><a xlink:href="/type/X::Syntax" xlink:title="X::Syntax">
<ellipse fill="none" stroke="#6666ff" cx="374.69" cy="-90" rx="48.19" ry="18"/>
<text text-anchor="middle" x="374.69" y="-86.3" font-family="FreeSans" font-size="14.00" fill="#6666ff">X::Syntax</text>
</a>
</g>
</g>
<!-- X::Syntax&#45;&gt;Exception -->
<g id="edge4" class="edge">
<title>X::Syntax&#45;&gt;Exception</title>
<path fill="none" stroke="#000000" d="M375.33,-108.06C375.92,-123.55 376.69,-144 376.69,-144 376.69,-144 376.69,-180 376.69,-180 376.69,-180 372.28,-192.98 367.82,-206.1"/>
<polygon fill="#000000" stroke="#000000" points="364.38,-205.34 364.48,-215.94 371.01,-207.6 364.38,-205.34"/>
</g>
<!-- X::Syntax&#45;&gt;X::Comp -->
<g id="edge7" class="edge">
<title>X::Syntax&#45;&gt;X::Comp</title>
<path fill="none" stroke="#6666ff" d="M362.36,-107.59C356.02,-116.13 348.15,-126.72 341.1,-136.21"/>
<polygon fill="#6666ff" stroke="#6666ff" points="338.08,-134.42 334.92,-144.53 343.7,-138.59 338.08,-134.42"/>
</g>
<!-- X::Syntax::Pod::BeginWithoutEnd -->
<g id="node7" class="node">
<title>X::Syntax::Pod::BeginWithoutEnd</title>
<g id="a_node7"><a xlink:href="/type/X::Syntax::Pod::BeginWithoutEnd" xlink:title="X::Syntax::Pod::BeginWithoutEnd">
<ellipse fill="none" stroke="#000000" cx="141.69" cy="-18" rx="141.88" ry="18"/>
<text text-anchor="middle" x="141.69" y="-14.3" font-family="FreeSans" font-size="14.00" fill="#000000">X::Syntax::Pod::BeginWithoutEnd</text>
</a>
</g>
</g>
<!-- X::Syntax::Pod::BeginWithoutEnd&#45;&gt;X::Pod -->
<g id="edge9" class="edge">
<title>X::Syntax::Pod::BeginWithoutEnd&#45;&gt;X::Pod</title>
<path fill="none" stroke="#6666ff" d="M170.67,-35.77C188.82,-46.26 212.21,-59.8 230.87,-70.59"/>
<polygon fill="#6666ff" stroke="#6666ff" points="229.19,-73.67 239.6,-75.64 232.7,-67.61 229.19,-73.67"/>
</g>
<!-- X::Syntax::Pod::BeginWithoutEnd&#45;&gt;Exception -->
<g id="edge5" class="edge">
<title>X::Syntax::Pod::BeginWithoutEnd&#45;&gt;Exception</title>
<path fill="none" stroke="#000000" d="M155.04,-35.93C187.65,-77.26 268.69,-180 268.69,-180 268.69,-180 299.33,-198.05 324.86,-213.08"/>
<polygon fill="#000000" stroke="#000000" points="323.22,-216.18 333.62,-218.24 326.78,-210.15 323.22,-216.18"/>
</g>
<!-- X::Syntax::Pod::BeginWithoutEnd&#45;&gt;X::Syntax -->
<g id="edge8" class="edge">
<title>X::Syntax::Pod::BeginWithoutEnd&#45;&gt;X::Syntax</title>
<path fill="none" stroke="#6666ff" d="M194.27,-34.8C234.56,-46.9 289.62,-63.44 328.28,-75.06"/>
<polygon fill="#6666ff" stroke="#6666ff" points="327.65,-78.52 338.23,-78.05 329.66,-71.82 327.65,-78.52"/>
</g>
<!-- X::Syntax::Pod::BeginWithoutIdentifier -->
<g id="node8" class="node">
<title>X::Syntax::Pod::BeginWithoutIdentifier</title>
<g id="a_node8"><a xlink:href="/type/X::Syntax::Pod::BeginWithoutIdentifier" xlink:title="X::Syntax::Pod::BeginWithoutIdentifier">
<ellipse fill="none" stroke="#000000" cx="460.69" cy="-18" rx="159.47" ry="18"/>
<text text-anchor="middle" x="460.69" y="-14.3" font-family="FreeSans" font-size="14.00" fill="#000000">X::Syntax::Pod::BeginWithoutIdentifier</text>
</a>
</g>
</g>
<!-- X::Syntax::Pod::BeginWithoutIdentifier&#45;&gt;X::Pod -->
<g id="edge11" class="edge">
<title>X::Syntax::Pod::BeginWithoutIdentifier&#45;&gt;X::Pod</title>
<path fill="none" stroke="#6666ff" d="M414.76,-35.24C380.39,-47.39 333.9,-63.82 301.4,-75.31"/>
<polygon fill="#6666ff" stroke="#6666ff" points="300.06,-72.08 291.8,-78.71 302.39,-78.68 300.06,-72.08"/>
</g>
<!-- X::Syntax::Pod::BeginWithoutIdentifier&#45;&gt;Exception -->
<g id="edge6" class="edge">
<title>X::Syntax::Pod::BeginWithoutIdentifier&#45;&gt;Exception</title>
<path fill="none" stroke="#000000" d="M455.1,-36.16C446.67,-62.02 431.69,-108 431.69,-108 431.69,-108 390.69,-180 390.69,-180 390.69,-180 382.28,-193.93 374.08,-207.51"/>
<polygon fill="#000000" stroke="#000000" points="370.98,-205.86 368.81,-216.23 376.98,-209.48 370.98,-205.86"/>
</g>
<!-- X::Syntax::Pod::BeginWithoutIdentifier&#45;&gt;X::Syntax -->
<g id="edge10" class="edge">
<title>X::Syntax::Pod::BeginWithoutIdentifier&#45;&gt;X::Syntax</title>
<path fill="none" stroke="#6666ff" d="M439.87,-35.95C428.37,-45.31 413.96,-57.04 401.61,-67.09"/>
<polygon fill="#6666ff" stroke="#6666ff" points="399.39,-64.38 393.84,-73.41 403.81,-69.81 399.39,-64.38"/>
</g>
</g>
</svg>
