<?xml version="1.0" encoding="UTF-8" standalone="no"?>
<!DOCTYPE svg PUBLIC "-//W3C//DTD SVG 1.1//EN"
 "http://www.w3.org/Graphics/SVG/1.1/DTD/svg11.dtd">
<!-- Generated by graphviz version 2.43.0 (0)
 -->
<!-- Title: raku&#45;type&#45;graph Pages: 1 -->
<svg width="1670pt" height="332pt"
 viewBox="0.00 0.00 1670.18 332.00" xmlns="http://www.w3.org/2000/svg" xmlns:xlink="http://www.w3.org/1999/xlink">
<g id="graph0" class="graph" transform="scale(1 1) rotate(0) translate(4 328)">
<title>raku&#45;type&#45;graph</title>
<polygon fill="#ffffff" stroke="transparent" points="-4,4 -4,-328 1666.18,-328 1666.18,4 -4,4"/>
<!-- X::Proc::Async -->
<g id="node1" class="node">
<title>X::Proc::Async</title>
<g id="a_node1"><a xlink:href="/type/X::Proc::Async" xlink:title="X::Proc::Async">
<ellipse fill="none" stroke="#6666ff" cx="870.84" cy="-90" rx="68.49" ry="18"/>
<text text-anchor="middle" x="870.84" y="-86.3" font-family="FreeSans" font-size="14.00" fill="#6666ff">X::Proc::Async</text>
</a>
</g>
</g>
<!-- Exception -->
<g id="node4" class="node">
<title>Exception</title>
<g id="a_node4"><a xlink:href="/type/Exception" xlink:title="Exception">
<ellipse fill="none" stroke="#000000" cx="870.84" cy="-162" rx="49.29" ry="18"/>
<text text-anchor="middle" x="870.84" y="-158.3" font-family="FreeSans" font-size="14.00" fill="#000000">Exception</text>
</a>
</g>
</g>
<!-- X::Proc::Async&#45;&gt;Exception -->
<g id="edge1" class="edge">
<title>X::Proc::Async&#45;&gt;Exception</title>
<path fill="none" stroke="#000000" d="M870.84,-108.3C870.84,-116.02 870.84,-125.29 870.84,-133.89"/>
<polygon fill="#000000" stroke="#000000" points="867.34,-133.9 870.84,-143.9 874.34,-133.9 867.34,-133.9"/>
</g>
<!-- Mu -->
<g id="node2" class="node">
<title>Mu</title>
<g id="a_node2"><a xlink:href="/type/Mu" xlink:title="Mu">
<ellipse fill="none" stroke="#000000" cx="870.84" cy="-306" rx="27" ry="18"/>
<text text-anchor="middle" x="870.84" y="-302.3" font-family="FreeSans" font-size="14.00" fill="#000000">Mu</text>
</a>
</g>
</g>
<!-- Any -->
<g id="node3" class="node">
<title>Any</title>
<g id="a_node3"><a xlink:href="/type/Any" xlink:title="Any">
<ellipse fill="none" stroke="#000000" cx="870.84" cy="-234" rx="27" ry="18"/>
<text text-anchor="middle" x="870.84" y="-230.3" font-family="FreeSans" font-size="14.00" fill="#000000">Any</text>
</a>
</g>
</g>
<!-- Any&#45;&gt;Mu -->
<g id="edge2" class="edge">
<title>Any&#45;&gt;Mu</title>
<path fill="none" stroke="#000000" d="M870.84,-252.3C870.84,-260.02 870.84,-269.29 870.84,-277.89"/>
<polygon fill="#000000" stroke="#000000" points="867.34,-277.9 870.84,-287.9 874.34,-277.9 867.34,-277.9"/>
</g>
<!-- Exception&#45;&gt;Any -->
<g id="edge3" class="edge">
<title>Exception&#45;&gt;Any</title>
<path fill="none" stroke="#000000" d="M870.84,-180.3C870.84,-188.02 870.84,-197.29 870.84,-205.89"/>
<polygon fill="#000000" stroke="#000000" points="867.34,-205.9 870.84,-215.9 874.34,-205.9 867.34,-205.9"/>
</g>
<!-- X::Proc::Async::OpenForWriting -->
<g id="node5" class="node">
<title>X::Proc::Async::OpenForWriting</title>
<g id="a_node5"><a xlink:href="/type/X::Proc::Async::OpenForWriting" xlink:title="X::Proc::Async::OpenForWriting">
<ellipse fill="none" stroke="#000000" cx="135.84" cy="-18" rx="135.68" ry="18"/>
<text text-anchor="middle" x="135.84" y="-14.3" font-family="FreeSans" font-size="14.00" fill="#000000">X::Proc::Async::OpenForWriting</text>
</a>
</g>
</g>
<!-- X::Proc::Async::OpenForWriting&#45;&gt;X::Proc::Async -->
<g id="edge10" class="edge">
<title>X::Proc::Async::OpenForWriting&#45;&gt;X::Proc::Async</title>
<path fill="none" stroke="#6666ff" d="M233.76,-30.48C259.81,-33.53 280.84,-36 280.84,-36 280.84,-36 639.13,-68.19 797.29,-82.39"/>
<polygon fill="#6666ff" stroke="#6666ff" points="797.14,-85.89 807.42,-83.3 797.77,-78.92 797.14,-85.89"/>
</g>
<!-- X::Proc::Async::OpenForWriting&#45;&gt;Exception -->
<g id="edge4" class="edge">
<title>X::Proc::Async::OpenForWriting&#45;&gt;Exception</title>
<path fill="none" stroke="#000000" d="M208.53,-33.25C336.79,-58.39 589.84,-108 589.84,-108 589.84,-108 736.34,-135.63 817.78,-150.99"/>
<polygon fill="#000000" stroke="#000000" points="817.38,-154.48 827.85,-152.89 818.68,-147.6 817.38,-154.48"/>
</g>
<!-- X::Proc::Async::MustBeStarted -->
<g id="node6" class="node">
<title>X::Proc::Async::MustBeStarted</title>
<g id="a_node6"><a xlink:href="/type/X::Proc::Async::MustBeStarted" xlink:title="X::Proc::Async::MustBeStarted">
<ellipse fill="none" stroke="#000000" cx="421.84" cy="-18" rx="131.88" ry="18"/>
<text text-anchor="middle" x="421.84" y="-14.3" font-family="FreeSans" font-size="14.00" fill="#000000">X::Proc::Async::MustBeStarted</text>
</a>
</g>
</g>
<!-- X::Proc::Async::MustBeStarted&#45;&gt;X::Proc::Async -->
<g id="edge11" class="edge">
<title>X::Proc::Async::MustBeStarted&#45;&gt;X::Proc::Async</title>
<path fill="none" stroke="#6666ff" d="M505.24,-32C591.33,-45.42 723.99,-66.11 803.61,-78.52"/>
<polygon fill="#6666ff" stroke="#6666ff" points="803.11,-81.98 813.53,-80.07 804.18,-75.07 803.11,-81.98"/>
</g>
<!-- X::Proc::Async::MustBeStarted&#45;&gt;Exception -->
<g id="edge5" class="edge">
<title>X::Proc::Async::MustBeStarted&#45;&gt;Exception</title>
<path fill="none" stroke="#000000" d="M471.6,-34.74C559.35,-62.49 740.28,-119.71 825.09,-146.53"/>
<polygon fill="#000000" stroke="#000000" points="824.11,-149.89 834.7,-149.57 826.22,-143.22 824.11,-149.89"/>
</g>
<!-- X::Proc::Async::TapBeforeSpawn -->
<g id="node7" class="node">
<title>X::Proc::Async::TapBeforeSpawn</title>
<g id="a_node7"><a xlink:href="/type/X::Proc::Async::TapBeforeSpawn" xlink:title="X::Proc::Async::TapBeforeSpawn">
<ellipse fill="none" stroke="#000000" cx="713.84" cy="-18" rx="141.88" ry="18"/>
<text text-anchor="middle" x="713.84" y="-14.3" font-family="FreeSans" font-size="14.00" fill="#000000">X::Proc::Async::TapBeforeSpawn</text>
</a>
</g>
</g>
<!-- X::Proc::Async::TapBeforeSpawn&#45;&gt;X::Proc::Async -->
<g id="edge12" class="edge">
<title>X::Proc::Async::TapBeforeSpawn&#45;&gt;X::Proc::Async</title>
<path fill="none" stroke="#6666ff" d="M750.65,-35.41C773.93,-45.79 804.11,-59.25 828.4,-70.08"/>
<polygon fill="#6666ff" stroke="#6666ff" points="827.17,-73.36 837.73,-74.24 830.02,-66.97 827.17,-73.36"/>
</g>
<!-- X::Proc::Async::TapBeforeSpawn&#45;&gt;Exception -->
<g id="edge6" class="edge">
<title>X::Proc::Async::TapBeforeSpawn&#45;&gt;Exception</title>
<path fill="none" stroke="#000000" d="M729.26,-36.16C752.51,-62.02 793.84,-108 793.84,-108 793.84,-108 818.77,-125.16 840.26,-139.95"/>
<polygon fill="#000000" stroke="#000000" points="838.34,-142.88 848.57,-145.67 842.31,-137.12 838.34,-142.88"/>
</g>
<!-- X::Proc::Async::AlreadyStarted -->
<g id="node8" class="node">
<title>X::Proc::Async::AlreadyStarted</title>
<g id="a_node8"><a xlink:href="/type/X::Proc::Async::AlreadyStarted" xlink:title="X::Proc::Async::AlreadyStarted">
<ellipse fill="none" stroke="#000000" cx="1004.84" cy="-18" rx="131.08" ry="18"/>
<text text-anchor="middle" x="1004.84" y="-14.3" font-family="FreeSans" font-size="14.00" fill="#000000">X::Proc::Async::AlreadyStarted</text>
</a>
</g>
</g>
<!-- X::Proc::Async::AlreadyStarted&#45;&gt;X::Proc::Async -->
<g id="edge13" class="edge">
<title>X::Proc::Async::AlreadyStarted&#45;&gt;X::Proc::Async</title>
<path fill="none" stroke="#6666ff" d="M973.08,-35.59C953.89,-45.62 929.3,-58.46 909.04,-69.04"/>
<polygon fill="#6666ff" stroke="#6666ff" points="907.32,-65.99 900.08,-73.73 910.56,-72.2 907.32,-65.99"/>
</g>
<!-- X::Proc::Async::AlreadyStarted&#45;&gt;Exception -->
<g id="edge7" class="edge">
<title>X::Proc::Async::AlreadyStarted&#45;&gt;Exception</title>
<path fill="none" stroke="#000000" d="M993.85,-36.16C977.28,-62.02 947.84,-108 947.84,-108 947.84,-108 922.91,-125.16 901.42,-139.95"/>
<polygon fill="#000000" stroke="#000000" points="899.36,-137.12 893.11,-145.67 903.33,-142.88 899.36,-137.12"/>
</g>
<!-- X::Proc::Async::CharsOrBytes -->
<g id="node9" class="node">
<title>X::Proc::Async::CharsOrBytes</title>
<g id="a_node9"><a xlink:href="/type/X::Proc::Async::CharsOrBytes" xlink:title="X::Proc::Async::CharsOrBytes">
<ellipse fill="none" stroke="#000000" cx="1282.84" cy="-18" rx="128.88" ry="18"/>
<text text-anchor="middle" x="1282.84" y="-14.3" font-family="FreeSans" font-size="14.00" fill="#000000">X::Proc::Async::CharsOrBytes</text>
</a>
</g>
</g>
<!-- X::Proc::Async::CharsOrBytes&#45;&gt;X::Proc::Async -->
<g id="edge14" class="edge">
<title>X::Proc::Async::CharsOrBytes&#45;&gt;X::Proc::Async</title>
<path fill="none" stroke="#6666ff" d="M1204.37,-32.33C1126.78,-45.52 1009.37,-65.46 936.54,-77.84"/>
<polygon fill="#6666ff" stroke="#6666ff" points="935.84,-74.41 926.57,-79.53 937.01,-81.31 935.84,-74.41"/>
</g>
<!-- X::Proc::Async::CharsOrBytes&#45;&gt;Exception -->
<g id="edge8" class="edge">
<title>X::Proc::Async::CharsOrBytes&#45;&gt;Exception</title>
<path fill="none" stroke="#000000" d="M1236.78,-34.88C1156.93,-62.39 993.86,-118.6 915.21,-145.71"/>
<polygon fill="#000000" stroke="#000000" points="913.91,-142.45 905.59,-149.02 916.19,-149.07 913.91,-142.45"/>
</g>
<!-- X::Proc::Async::BindOrUse -->
<g id="node10" class="node">
<title>X::Proc::Async::BindOrUse</title>
<g id="a_node10"><a xlink:href="/type/X::Proc::Async::BindOrUse" xlink:title="X::Proc::Async::BindOrUse">
<ellipse fill="none" stroke="#000000" cx="1545.84" cy="-18" rx="116.18" ry="18"/>
<text text-anchor="middle" x="1545.84" y="-14.3" font-family="FreeSans" font-size="14.00" fill="#000000">X::Proc::Async::BindOrUse</text>
</a>
</g>
</g>
<!-- X::Proc::Async::BindOrUse&#45;&gt;X::Proc::Async -->
<g id="edge15" class="edge">
<title>X::Proc::Async::BindOrUse&#45;&gt;X::Proc::Async</title>
<path fill="none" stroke="#6666ff" d="M1461.42,-30.48C1438.97,-33.53 1420.84,-36 1420.84,-36 1420.84,-36 1093.2,-67.57 943.68,-81.98"/>
<polygon fill="#6666ff" stroke="#6666ff" points="943.28,-78.5 933.66,-82.95 943.95,-85.47 943.28,-78.5"/>
</g>
<!-- X::Proc::Async::BindOrUse&#45;&gt;Exception -->
<g id="edge9" class="edge">
<title>X::Proc::Async::BindOrUse&#45;&gt;Exception</title>
<path fill="none" stroke="#000000" d="M1479.89,-32.87C1345.79,-61.08 1043.81,-124.61 922.62,-150.11"/>
<polygon fill="#000000" stroke="#000000" points="921.55,-146.75 912.49,-152.24 923,-153.6 921.55,-146.75"/>
</g>
</g>
</svg>
