<?xml version="1.0" encoding="UTF-8" standalone="no"?>
<!DOCTYPE svg PUBLIC "-//W3C//DTD SVG 1.1//EN"
 "http://www.w3.org/Graphics/SVG/1.1/DTD/svg11.dtd">
<!-- Generated by graphviz version 2.43.0 (0)
 -->
<!-- Title: raku&#45;type&#45;graph Pages: 1 -->
<svg width="1670pt" height="332pt"
 viewBox="0.00 0.00 1669.98 332.00" xmlns="http://www.w3.org/2000/svg" xmlns:xlink="http://www.w3.org/1999/xlink">
<g id="graph0" class="graph" transform="scale(1 1) rotate(0) translate(4 328)">
<title>raku&#45;type&#45;graph</title>
<polygon fill="#ffffff" stroke="transparent" points="-4,4 -4,-328 1665.98,-328 1665.98,4 -4,4"/>
<!-- X::Proc::Async -->
<g id="node1" class="node">
<title>X::Proc::Async</title>
<g id="a_node1"><a xlink:href="/type/X::Proc::Async" xlink:title="X::Proc::Async">
<ellipse fill="none" stroke="#6666ff" cx="863.69" cy="-90" rx="68.49" ry="18"/>
<text text-anchor="middle" x="863.69" y="-86.3" font-family="FreeSans" font-size="14.00" fill="#6666ff">X::Proc::Async</text>
</a>
</g>
</g>
<!-- Exception -->
<g id="node4" class="node">
<title>Exception</title>
<g id="a_node4"><a xlink:href="/type/Exception" xlink:title="Exception">
<ellipse fill="none" stroke="#000000" cx="863.69" cy="-162" rx="49.29" ry="18"/>
<text text-anchor="middle" x="863.69" y="-158.3" font-family="FreeSans" font-size="14.00" fill="#000000">Exception</text>
</a>
</g>
</g>
<!-- X::Proc::Async&#45;&gt;Exception -->
<g id="edge1" class="edge">
<title>X::Proc::Async&#45;&gt;Exception</title>
<path fill="none" stroke="#000000" d="M863.69,-108.3C863.69,-116.02 863.69,-125.29 863.69,-133.89"/>
<polygon fill="#000000" stroke="#000000" points="860.19,-133.9 863.69,-143.9 867.19,-133.9 860.19,-133.9"/>
</g>
<!-- Mu -->
<g id="node2" class="node">
<title>Mu</title>
<g id="a_node2"><a xlink:href="/type/Mu" xlink:title="Mu">
<ellipse fill="none" stroke="#000000" cx="863.69" cy="-306" rx="27" ry="18"/>
<text text-anchor="middle" x="863.69" y="-302.3" font-family="FreeSans" font-size="14.00" fill="#000000">Mu</text>
</a>
</g>
</g>
<!-- Any -->
<g id="node3" class="node">
<title>Any</title>
<g id="a_node3"><a xlink:href="/type/Any" xlink:title="Any">
<ellipse fill="none" stroke="#000000" cx="863.69" cy="-234" rx="27" ry="18"/>
<text text-anchor="middle" x="863.69" y="-230.3" font-family="FreeSans" font-size="14.00" fill="#000000">Any</text>
</a>
</g>
</g>
<!-- Any&#45;&gt;Mu -->
<g id="edge2" class="edge">
<title>Any&#45;&gt;Mu</title>
<path fill="none" stroke="#000000" d="M863.69,-252.3C863.69,-260.02 863.69,-269.29 863.69,-277.89"/>
<polygon fill="#000000" stroke="#000000" points="860.19,-277.9 863.69,-287.9 867.19,-277.9 860.19,-277.9"/>
</g>
<!-- Exception&#45;&gt;Any -->
<g id="edge3" class="edge">
<title>Exception&#45;&gt;Any</title>
<path fill="none" stroke="#000000" d="M863.69,-180.3C863.69,-188.02 863.69,-197.29 863.69,-205.89"/>
<polygon fill="#000000" stroke="#000000" points="860.19,-205.9 863.69,-215.9 867.19,-205.9 860.19,-205.9"/>
</g>
<!-- X::Proc::Async::TapBeforeSpawn -->
<g id="node5" class="node">
<title>X::Proc::Async::TapBeforeSpawn</title>
<g id="a_node5"><a xlink:href="/type/X::Proc::Async::TapBeforeSpawn" xlink:title="X::Proc::Async::TapBeforeSpawn">
<ellipse fill="none" stroke="#000000" cx="141.69" cy="-18" rx="141.88" ry="18"/>
<text text-anchor="middle" x="141.69" y="-14.3" font-family="FreeSans" font-size="14.00" fill="#000000">X::Proc::Async::TapBeforeSpawn</text>
</a>
</g>
</g>
<!-- X::Proc::Async::TapBeforeSpawn&#45;&gt;X::Proc::Async -->
<g id="edge10" class="edge">
<title>X::Proc::Async::TapBeforeSpawn&#45;&gt;X::Proc::Async</title>
<path fill="none" stroke="#6666ff" d="M243.81,-30.57C270.37,-33.58 291.69,-36 291.69,-36 291.69,-36 635.81,-67.89 790.23,-82.19"/>
<polygon fill="#6666ff" stroke="#6666ff" points="790.28,-85.71 800.56,-83.15 790.93,-78.74 790.28,-85.71"/>
</g>
<!-- X::Proc::Async::TapBeforeSpawn&#45;&gt;Exception -->
<g id="edge4" class="edge">
<title>X::Proc::Async::TapBeforeSpawn&#45;&gt;Exception</title>
<path fill="none" stroke="#000000" d="M214.74,-33.45C342.17,-58.65 591.69,-108 591.69,-108 591.69,-108 731.82,-135.31 810.92,-150.72"/>
<polygon fill="#000000" stroke="#000000" points="810.7,-154.24 821.19,-152.72 812.04,-147.37 810.7,-154.24"/>
</g>
<!-- X::Proc::Async::CharsOrBytes -->
<g id="node6" class="node">
<title>X::Proc::Async::CharsOrBytes</title>
<g id="a_node6"><a xlink:href="/type/X::Proc::Async::CharsOrBytes" xlink:title="X::Proc::Async::CharsOrBytes">
<ellipse fill="none" stroke="#000000" cx="429.69" cy="-18" rx="128.88" ry="18"/>
<text text-anchor="middle" x="429.69" y="-14.3" font-family="FreeSans" font-size="14.00" fill="#000000">X::Proc::Async::CharsOrBytes</text>
</a>
</g>
</g>
<!-- X::Proc::Async::CharsOrBytes&#45;&gt;X::Proc::Async -->
<g id="edge11" class="edge">
<title>X::Proc::Async::CharsOrBytes&#45;&gt;X::Proc::Async</title>
<path fill="none" stroke="#6666ff" d="M510.56,-32.04C593.17,-45.37 719.95,-65.82 797,-78.24"/>
<polygon fill="#6666ff" stroke="#6666ff" points="796.65,-81.73 807.07,-79.87 797.76,-74.82 796.65,-81.73"/>
</g>
<!-- X::Proc::Async::CharsOrBytes&#45;&gt;Exception -->
<g id="edge5" class="edge">
<title>X::Proc::Async::CharsOrBytes&#45;&gt;Exception</title>
<path fill="none" stroke="#000000" d="M477.79,-34.74C562.3,-62.39 736.26,-119.31 818.6,-146.25"/>
<polygon fill="#000000" stroke="#000000" points="817.58,-149.6 828.17,-149.38 819.75,-142.94 817.58,-149.6"/>
</g>
<!-- X::Proc::Async::MustBeStarted -->
<g id="node7" class="node">
<title>X::Proc::Async::MustBeStarted</title>
<g id="a_node7"><a xlink:href="/type/X::Proc::Async::MustBeStarted" xlink:title="X::Proc::Async::MustBeStarted">
<ellipse fill="none" stroke="#000000" cx="708.69" cy="-18" rx="131.88" ry="18"/>
<text text-anchor="middle" x="708.69" y="-14.3" font-family="FreeSans" font-size="14.00" fill="#000000">X::Proc::Async::MustBeStarted</text>
</a>
</g>
</g>
<!-- X::Proc::Async::MustBeStarted&#45;&gt;X::Proc::Async -->
<g id="edge12" class="edge">
<title>X::Proc::Async::MustBeStarted&#45;&gt;X::Proc::Async</title>
<path fill="none" stroke="#6666ff" d="M745.03,-35.41C767.94,-45.76 797.6,-59.16 821.54,-69.97"/>
<polygon fill="#6666ff" stroke="#6666ff" points="820.19,-73.2 830.74,-74.12 823.07,-66.82 820.19,-73.2"/>
</g>
<!-- X::Proc::Async::MustBeStarted&#45;&gt;Exception -->
<g id="edge6" class="edge">
<title>X::Proc::Async::MustBeStarted&#45;&gt;Exception</title>
<path fill="none" stroke="#000000" d="M723.73,-36.16C746.39,-62.02 786.69,-108 786.69,-108 786.69,-108 811.62,-125.16 833.11,-139.95"/>
<polygon fill="#000000" stroke="#000000" points="831.19,-142.88 841.42,-145.67 835.16,-137.12 831.19,-142.88"/>
</g>
<!-- X::Proc::Async::OpenForWriting -->
<g id="node8" class="node">
<title>X::Proc::Async::OpenForWriting</title>
<g id="a_node8"><a xlink:href="/type/X::Proc::Async::OpenForWriting" xlink:title="X::Proc::Async::OpenForWriting">
<ellipse fill="none" stroke="#000000" cx="994.69" cy="-18" rx="135.68" ry="18"/>
<text text-anchor="middle" x="994.69" y="-14.3" font-family="FreeSans" font-size="14.00" fill="#000000">X::Proc::Async::OpenForWriting</text>
</a>
</g>
</g>
<!-- X::Proc::Async::OpenForWriting&#45;&gt;X::Proc::Async -->
<g id="edge13" class="edge">
<title>X::Proc::Async::OpenForWriting&#45;&gt;X::Proc::Async</title>
<path fill="none" stroke="#6666ff" d="M963.64,-35.59C945.09,-45.5 921.39,-58.17 901.72,-68.68"/>
<polygon fill="#6666ff" stroke="#6666ff" points="899.89,-65.69 892.71,-73.49 903.18,-71.86 899.89,-65.69"/>
</g>
<!-- X::Proc::Async::OpenForWriting&#45;&gt;Exception -->
<g id="edge7" class="edge">
<title>X::Proc::Async::OpenForWriting&#45;&gt;Exception</title>
<path fill="none" stroke="#000000" d="M984.28,-36.16C968.58,-62.02 940.69,-108 940.69,-108 940.69,-108 915.76,-125.16 894.27,-139.95"/>
<polygon fill="#000000" stroke="#000000" points="892.21,-137.12 885.96,-145.67 896.18,-142.88 892.21,-137.12"/>
</g>
<!-- X::Proc::Async::BindOrUse -->
<g id="node9" class="node">
<title>X::Proc::Async::BindOrUse</title>
<g id="a_node9"><a xlink:href="/type/X::Proc::Async::BindOrUse" xlink:title="X::Proc::Async::BindOrUse">
<ellipse fill="none" stroke="#000000" cx="1264.69" cy="-18" rx="116.18" ry="18"/>
<text text-anchor="middle" x="1264.69" y="-14.3" font-family="FreeSans" font-size="14.00" fill="#000000">X::Proc::Async::BindOrUse</text>
</a>
</g>
</g>
<!-- X::Proc::Async::BindOrUse&#45;&gt;X::Proc::Async -->
<g id="edge14" class="edge">
<title>X::Proc::Async::BindOrUse&#45;&gt;X::Proc::Async</title>
<path fill="none" stroke="#6666ff" d="M1190.67,-31.92C1115.72,-45 1000.9,-65.05 929.17,-77.57"/>
<polygon fill="#6666ff" stroke="#6666ff" points="928.15,-74.19 918.91,-79.36 929.36,-81.09 928.15,-74.19"/>
</g>
<!-- X::Proc::Async::BindOrUse&#45;&gt;Exception -->
<g id="edge8" class="edge">
<title>X::Proc::Async::BindOrUse&#45;&gt;Exception</title>
<path fill="none" stroke="#000000" d="M1220.24,-34.74C1142.96,-62.11 984.73,-118.14 907.73,-145.4"/>
<polygon fill="#000000" stroke="#000000" points="906.12,-142.26 897.87,-148.9 908.46,-148.86 906.12,-142.26"/>
</g>
<!-- X::Proc::Async::AlreadyStarted -->
<g id="node10" class="node">
<title>X::Proc::Async::AlreadyStarted</title>
<g id="a_node10"><a xlink:href="/type/X::Proc::Async::AlreadyStarted" xlink:title="X::Proc::Async::AlreadyStarted">
<ellipse fill="none" stroke="#000000" cx="1530.69" cy="-18" rx="131.08" ry="18"/>
<text text-anchor="middle" x="1530.69" y="-14.3" font-family="FreeSans" font-size="14.00" fill="#000000">X::Proc::Async::AlreadyStarted</text>
</a>
</g>
</g>
<!-- X::Proc::Async::AlreadyStarted&#45;&gt;X::Proc::Async -->
<g id="edge15" class="edge">
<title>X::Proc::Async::AlreadyStarted&#45;&gt;X::Proc::Async</title>
<path fill="none" stroke="#6666ff" d="M1435.47,-30.48C1410.14,-33.53 1389.69,-36 1389.69,-36 1389.69,-36 1080.45,-67.16 936.19,-81.69"/>
<polygon fill="#6666ff" stroke="#6666ff" points="935.69,-78.23 926.09,-82.71 936.39,-85.19 935.69,-78.23"/>
</g>
<!-- X::Proc::Async::AlreadyStarted&#45;&gt;Exception -->
<g id="edge9" class="edge">
<title>X::Proc::Async::AlreadyStarted&#45;&gt;Exception</title>
<path fill="none" stroke="#000000" d="M1462.75,-33.46C1329.03,-61.93 1034.34,-124.67 915.19,-150.04"/>
<polygon fill="#000000" stroke="#000000" points="914.28,-146.65 905.23,-152.16 915.74,-153.5 914.28,-146.65"/>
</g>
</g>
</svg>
