<?xml version="1.0" encoding="UTF-8" standalone="no"?>
<!DOCTYPE svg PUBLIC "-//W3C//DTD SVG 1.1//EN"
 "http://www.w3.org/Graphics/SVG/1.1/DTD/svg11.dtd">
<!-- Generated by graphviz version 2.43.0 (0)
 -->
<!-- Title: raku&#45;type&#45;graph Pages: 1 -->
<svg width="291pt" height="404pt"
 viewBox="0.00 0.00 291.37 404.00" xmlns="http://www.w3.org/2000/svg" xmlns:xlink="http://www.w3.org/1999/xlink">
<g id="graph0" class="graph" transform="scale(1 1) rotate(0) translate(4 400)">
<title>raku&#45;type&#45;graph</title>
<polygon fill="#ffffff" stroke="transparent" points="-4,4 -4,-400 287.37,-400 287.37,4 -4,4"/>
<!-- X::Syntax::Argument::MOPMacro -->
<g id="node1" class="node">
<title>X::Syntax::Argument::MOPMacro</title>
<g id="a_node1"><a xlink:href="/type/X::Syntax::Argument::MOPMacro" xlink:title="X::Syntax::Argument::MOPMacro">
<ellipse fill="none" stroke="#000000" cx="141.69" cy="-18" rx="141.88" ry="18"/>
<text text-anchor="middle" x="141.69" y="-14.3" font-family="FreeSans" font-size="14.00" fill="#000000">X::Syntax::Argument::MOPMacro</text>
</a>
</g>
</g>
<!-- Exception -->
<g id="node4" class="node">
<title>Exception</title>
<g id="a_node4"><a xlink:href="/type/Exception" xlink:title="Exception">
<ellipse fill="none" stroke="#000000" cx="141.69" cy="-234" rx="49.29" ry="18"/>
<text text-anchor="middle" x="141.69" y="-230.3" font-family="FreeSans" font-size="14.00" fill="#000000">Exception</text>
</a>
</g>
</g>
<!-- X::Syntax::Argument::MOPMacro&#45;&gt;Exception -->
<g id="edge1" class="edge">
<title>X::Syntax::Argument::MOPMacro&#45;&gt;Exception</title>
<path fill="none" stroke="#000000" d="M135.57,-36.06C130.02,-51.55 122.69,-72 122.69,-72 122.69,-72 122.69,-108 122.69,-108 122.69,-108 131.96,-169.01 137.55,-205.78"/>
<polygon fill="#000000" stroke="#000000" points="134.12,-206.52 139.09,-215.88 141.04,-205.47 134.12,-206.52"/>
</g>
<!-- X::Syntax -->
<g id="node6" class="node">
<title>X::Syntax</title>
<g id="a_node6"><a xlink:href="/type/X::Syntax" xlink:title="X::Syntax">
<ellipse fill="none" stroke="#6666ff" cx="179.69" cy="-90" rx="48.19" ry="18"/>
<text text-anchor="middle" x="179.69" y="-86.3" font-family="FreeSans" font-size="14.00" fill="#6666ff">X::Syntax</text>
</a>
</g>
</g>
<!-- X::Syntax::Argument::MOPMacro&#45;&gt;X::Syntax -->
<g id="edge6" class="edge">
<title>X::Syntax::Argument::MOPMacro&#45;&gt;X::Syntax</title>
<path fill="none" stroke="#6666ff" d="M151.08,-36.3C155.45,-44.36 160.74,-54.11 165.58,-63.02"/>
<polygon fill="#6666ff" stroke="#6666ff" points="162.56,-64.78 170.4,-71.9 168.71,-61.44 162.56,-64.78"/>
</g>
<!-- Mu -->
<g id="node2" class="node">
<title>Mu</title>
<g id="a_node2"><a xlink:href="/type/Mu" xlink:title="Mu">
<ellipse fill="none" stroke="#000000" cx="141.69" cy="-378" rx="27" ry="18"/>
<text text-anchor="middle" x="141.69" y="-374.3" font-family="FreeSans" font-size="14.00" fill="#000000">Mu</text>
</a>
</g>
</g>
<!-- Any -->
<g id="node3" class="node">
<title>Any</title>
<g id="a_node3"><a xlink:href="/type/Any" xlink:title="Any">
<ellipse fill="none" stroke="#000000" cx="141.69" cy="-306" rx="27" ry="18"/>
<text text-anchor="middle" x="141.69" y="-302.3" font-family="FreeSans" font-size="14.00" fill="#000000">Any</text>
</a>
</g>
</g>
<!-- Any&#45;&gt;Mu -->
<g id="edge2" class="edge">
<title>Any&#45;&gt;Mu</title>
<path fill="none" stroke="#000000" d="M141.69,-324.3C141.69,-332.02 141.69,-341.29 141.69,-349.89"/>
<polygon fill="#000000" stroke="#000000" points="138.19,-349.9 141.69,-359.9 145.19,-349.9 138.19,-349.9"/>
</g>
<!-- Exception&#45;&gt;Any -->
<g id="edge3" class="edge">
<title>Exception&#45;&gt;Any</title>
<path fill="none" stroke="#000000" d="M141.69,-252.3C141.69,-260.02 141.69,-269.29 141.69,-277.89"/>
<polygon fill="#000000" stroke="#000000" points="138.19,-277.9 141.69,-287.9 145.19,-277.9 138.19,-277.9"/>
</g>
<!-- X::Comp -->
<g id="node5" class="node">
<title>X::Comp</title>
<g id="a_node5"><a xlink:href="/type/X::Comp" xlink:title="X::Comp">
<ellipse fill="none" stroke="#6666ff" cx="214.69" cy="-162" rx="44.69" ry="18"/>
<text text-anchor="middle" x="214.69" y="-158.3" font-family="FreeSans" font-size="14.00" fill="#6666ff">X::Comp</text>
</a>
</g>
</g>
<!-- X::Comp&#45;&gt;Exception -->
<g id="edge4" class="edge">
<title>X::Comp&#45;&gt;Exception</title>
<path fill="none" stroke="#000000" d="M198.12,-178.88C188.58,-188.04 176.41,-199.71 165.81,-209.87"/>
<polygon fill="#000000" stroke="#000000" points="163.23,-207.49 158.44,-216.94 168.08,-212.54 163.23,-207.49"/>
</g>
<!-- X::Syntax&#45;&gt;Exception -->
<g id="edge5" class="edge">
<title>X::Syntax&#45;&gt;Exception</title>
<path fill="none" stroke="#000000" d="M173.57,-108.06C168.02,-123.55 160.69,-144 160.69,-144 160.69,-144 153.04,-179.83 147.45,-206.03"/>
<polygon fill="#000000" stroke="#000000" points="144.02,-205.33 145.35,-215.84 150.86,-206.79 144.02,-205.33"/>
</g>
<!-- X::Syntax&#45;&gt;X::Comp -->
<g id="edge7" class="edge">
<title>X::Syntax&#45;&gt;X::Comp</title>
<path fill="none" stroke="#6666ff" d="M188.16,-107.95C192.24,-116.11 197.23,-126.09 201.78,-135.18"/>
<polygon fill="#6666ff" stroke="#6666ff" points="198.69,-136.83 206.29,-144.21 204.95,-133.7 198.69,-136.83"/>
</g>
</g>
</svg>
