<?xml version="1.0" encoding="UTF-8" standalone="no"?>
<!DOCTYPE svg PUBLIC "-//W3C//DTD SVG 1.1//EN"
 "http://www.w3.org/Graphics/SVG/1.1/DTD/svg11.dtd">
<!-- Generated by graphviz version 2.43.0 (0)
 -->
<!-- Title: raku&#45;type&#45;graph Pages: 1 -->
<svg width="886pt" height="332pt"
 viewBox="0.00 0.00 885.68 332.00" xmlns="http://www.w3.org/2000/svg" xmlns:xlink="http://www.w3.org/1999/xlink">
<g id="graph0" class="graph" transform="scale(1 1) rotate(0) translate(4 328)">
<title>raku&#45;type&#45;graph</title>
<polygon fill="#ffffff" stroke="transparent" points="-4,4 -4,-328 881.68,-328 881.68,4 -4,4"/>
<!-- X::TypeCheck -->
<g id="node1" class="node">
<title>X::TypeCheck</title>
<g id="a_node1"><a xlink:href="/type/X::TypeCheck" xlink:title="X::TypeCheck">
<ellipse fill="none" stroke="#000000" cx="427.54" cy="-90" rx="66.89" ry="18"/>
<text text-anchor="middle" x="427.54" y="-86.3" font-family="FreeSans" font-size="14.00" fill="#000000">X::TypeCheck</text>
</a>
</g>
</g>
<!-- Exception -->
<g id="node4" class="node">
<title>Exception</title>
<g id="a_node4"><a xlink:href="/type/Exception" xlink:title="Exception">
<ellipse fill="none" stroke="#000000" cx="427.54" cy="-162" rx="49.29" ry="18"/>
<text text-anchor="middle" x="427.54" y="-158.3" font-family="FreeSans" font-size="14.00" fill="#000000">Exception</text>
</a>
</g>
</g>
<!-- X::TypeCheck&#45;&gt;Exception -->
<g id="edge1" class="edge">
<title>X::TypeCheck&#45;&gt;Exception</title>
<path fill="none" stroke="#000000" d="M427.54,-108.3C427.54,-116.02 427.54,-125.29 427.54,-133.89"/>
<polygon fill="#000000" stroke="#000000" points="424.04,-133.9 427.54,-143.9 431.04,-133.9 424.04,-133.9"/>
</g>
<!-- Mu -->
<g id="node2" class="node">
<title>Mu</title>
<g id="a_node2"><a xlink:href="/type/Mu" xlink:title="Mu">
<ellipse fill="none" stroke="#000000" cx="427.54" cy="-306" rx="27" ry="18"/>
<text text-anchor="middle" x="427.54" y="-302.3" font-family="FreeSans" font-size="14.00" fill="#000000">Mu</text>
</a>
</g>
</g>
<!-- Any -->
<g id="node3" class="node">
<title>Any</title>
<g id="a_node3"><a xlink:href="/type/Any" xlink:title="Any">
<ellipse fill="none" stroke="#000000" cx="427.54" cy="-234" rx="27" ry="18"/>
<text text-anchor="middle" x="427.54" y="-230.3" font-family="FreeSans" font-size="14.00" fill="#000000">Any</text>
</a>
</g>
</g>
<!-- Any&#45;&gt;Mu -->
<g id="edge2" class="edge">
<title>Any&#45;&gt;Mu</title>
<path fill="none" stroke="#000000" d="M427.54,-252.3C427.54,-260.02 427.54,-269.29 427.54,-277.89"/>
<polygon fill="#000000" stroke="#000000" points="424.04,-277.9 427.54,-287.9 431.04,-277.9 424.04,-277.9"/>
</g>
<!-- Exception&#45;&gt;Any -->
<g id="edge3" class="edge">
<title>Exception&#45;&gt;Any</title>
<path fill="none" stroke="#000000" d="M427.54,-180.3C427.54,-188.02 427.54,-197.29 427.54,-205.89"/>
<polygon fill="#000000" stroke="#000000" points="424.04,-205.9 427.54,-215.9 431.04,-205.9 424.04,-205.9"/>
</g>
<!-- X::TypeCheck::Splice -->
<g id="node5" class="node">
<title>X::TypeCheck::Splice</title>
<g id="a_node5"><a xlink:href="/type/X::TypeCheck::Splice" xlink:title="X::TypeCheck::Splice">
<ellipse fill="none" stroke="#000000" cx="95.54" cy="-18" rx="95.58" ry="18"/>
<text text-anchor="middle" x="95.54" y="-14.3" font-family="FreeSans" font-size="14.00" fill="#000000">X::TypeCheck::Splice</text>
</a>
</g>
</g>
<!-- X::TypeCheck::Splice&#45;&gt;X::TypeCheck -->
<g id="edge4" class="edge">
<title>X::TypeCheck::Splice&#45;&gt;X::TypeCheck</title>
<path fill="none" stroke="#000000" d="M156.82,-31.92C216.6,-44.52 307,-63.58 366.64,-76.16"/>
<polygon fill="#000000" stroke="#000000" points="366.17,-79.64 376.67,-78.27 367.61,-72.79 366.17,-79.64"/>
</g>
<!-- X::TypeCheck::Binding -->
<g id="node6" class="node">
<title>X::TypeCheck::Binding</title>
<g id="a_node6"><a xlink:href="/type/X::TypeCheck::Binding" xlink:title="X::TypeCheck::Binding">
<ellipse fill="none" stroke="#000000" cx="309.54" cy="-18" rx="100.98" ry="18"/>
<text text-anchor="middle" x="309.54" y="-14.3" font-family="FreeSans" font-size="14.00" fill="#000000">X::TypeCheck::Binding</text>
</a>
</g>
</g>
<!-- X::TypeCheck::Binding&#45;&gt;X::TypeCheck -->
<g id="edge5" class="edge">
<title>X::TypeCheck::Binding&#45;&gt;X::TypeCheck</title>
<path fill="none" stroke="#000000" d="M337.21,-35.41C353.68,-45.18 374.75,-57.68 392.39,-68.15"/>
<polygon fill="#000000" stroke="#000000" points="390.88,-71.32 401.26,-73.41 394.45,-65.3 390.88,-71.32"/>
</g>
<!-- X::TypeCheck::Assignment -->
<g id="node7" class="node">
<title>X::TypeCheck::Assignment</title>
<g id="a_node7"><a xlink:href="/type/X::TypeCheck::Assignment" xlink:title="X::TypeCheck::Assignment">
<ellipse fill="none" stroke="#000000" cx="545.54" cy="-18" rx="117.78" ry="18"/>
<text text-anchor="middle" x="545.54" y="-14.3" font-family="FreeSans" font-size="14.00" fill="#000000">X::TypeCheck::Assignment</text>
</a>
</g>
</g>
<!-- X::TypeCheck::Assignment&#45;&gt;X::TypeCheck -->
<g id="edge6" class="edge">
<title>X::TypeCheck::Assignment&#45;&gt;X::TypeCheck</title>
<path fill="none" stroke="#000000" d="M517.58,-35.59C501.21,-45.3 480.39,-57.65 462.89,-68.03"/>
<polygon fill="#000000" stroke="#000000" points="460.9,-65.14 454.09,-73.25 464.48,-71.16 460.9,-65.14"/>
</g>
<!-- X::TypeCheck::Return -->
<g id="node8" class="node">
<title>X::TypeCheck::Return</title>
<g id="a_node8"><a xlink:href="/type/X::TypeCheck::Return" xlink:title="X::TypeCheck::Return">
<ellipse fill="none" stroke="#000000" cx="779.54" cy="-18" rx="98.28" ry="18"/>
<text text-anchor="middle" x="779.54" y="-14.3" font-family="FreeSans" font-size="14.00" fill="#000000">X::TypeCheck::Return</text>
</a>
</g>
</g>
<!-- X::TypeCheck::Return&#45;&gt;X::TypeCheck -->
<g id="edge7" class="edge">
<title>X::TypeCheck::Return&#45;&gt;X::TypeCheck</title>
<path fill="none" stroke="#000000" d="M715.39,-31.76C651.2,-44.52 553.13,-64.03 489.67,-76.65"/>
<polygon fill="#000000" stroke="#000000" points="488.92,-73.23 479.79,-78.61 490.28,-80.09 488.92,-73.23"/>
</g>
</g>
</svg>
